<svg xmlns="http://www.w3.org/2000/svg" xmlns:xlink="http://www.w3.org/1999/xlink" width="471.736" height="389.5" viewBox="0 0 471.736 389.5">
  <defs>
    <clipPath id="clip-path">
      <rect id="Rect치ngulo_53070" data-name="Rect치ngulo 53070" width="60.333" height="56.254" fill="#727997"/>
    </clipPath>
    <clipPath id="clip-path-2">
      <rect id="Rect치ngulo_53071" data-name="Rect치ngulo 53071" width="181.239" height="181.239" fill="none"/>
    </clipPath>
  </defs>
  <g id="Grupo_167605" data-name="Grupo 167605" transform="translate(8.892 10)">
    <g id="Grupo_167602" data-name="Grupo 167602" transform="translate(-17.999 -10)">
      <g id="Grupo_167606" data-name="Grupo 167606" transform="translate(0 0)">
        <path id="Trazado_258819" data-name="Trazado 258819" d="M399.858,294.569a3.016,3.016,0,0,1-.8-.11l-11-3.06a3.007,3.007,0,0,1-2.086-3.7l2.683-9.647-9.645-2.683a3.007,3.007,0,0,1-2.087-3.694l3.061-11a3,3,0,0,1,3.694-2.087l9.646,2.684L396,251.629a3,3,0,0,1,3.694-2.087l11,3.061a3.008,3.008,0,0,1,2.087,3.7l-2.684,9.646,9.645,2.683a3,3,0,0,1,2.087,3.7l-3.06,11a3,3,0,0,1-3.7,2.086l-9.646-2.683-2.683,9.646a3.008,3.008,0,0,1-2.893,2.2m-10.53-6.325L399.6,291.1l3.487-12.537,12.537,3.486,2.856-10.267-12.538-3.487,3.49-12.537L399.159,252.9l-3.489,12.539-12.536-3.49-2.857,10.268,12.538,3.487Zm29.514-16.358h0Z" transform="translate(58.898 52.552)" fill="#a3314f"/>
        <path id="Trazado_258820" data-name="Trazado 258820" d="M81.677,89.657a2.859,2.859,0,0,1-.768-.105l-9.694-2.7a2.846,2.846,0,0,1-1.978-3.5l2.311-8.308-8.309-2.311a2.844,2.844,0,0,1-1.978-3.5l2.7-9.694a2.846,2.846,0,0,1,3.5-1.978l8.308,2.31,2.311-8.308a2.848,2.848,0,0,1,3.5-1.978l9.7,2.7a2.846,2.846,0,0,1,1.978,3.5l-2.311,8.308L99.257,66.4a2.845,2.845,0,0,1,1.977,3.5l-2.7,9.693a2.848,2.848,0,0,1-3.5,1.98l-8.309-2.311-2.31,8.308a2.85,2.85,0,0,1-2.737,2.084m-9.04-5.916,8.663,2.41L84.374,75.1l11.05,3.073,2.41-8.662-11.05-3.075,3.073-11.05-8.662-2.41L78.12,64.029,67.072,60.955l-2.41,8.662,11.049,3.075ZM98.347,69.655h0Z" transform="translate(9.558 10.044)" fill="#fff"/>
        <path id="Trazado_258821" data-name="Trazado 258821" d="M396.849,73.788a2.955,2.955,0,0,1-.512-.043l-13.653-2.33a3.005,3.005,0,0,1-2.456-3.464l2.151-12.6-12.6-2.15a3.006,3.006,0,0,1-2.456-3.464l2.33-13.654a3.007,3.007,0,0,1,3.464-2.457l12.6,2.151,2.151-12.6a3,3,0,0,1,3.465-2.456l13.651,2.329a3.008,3.008,0,0,1,2.456,3.465l-2.15,12.6,12.6,2.15a3,3,0,0,1,2.455,3.464l-2.329,13.654a3.01,3.01,0,0,1-3.465,2.454l-12.6-2.148-2.151,12.6a3,3,0,0,1-2.953,2.5M372.613,36.412a.177.177,0,0,0-.173.146l-2.329,13.655a.194.194,0,0,0,.143.2l15.387,2.626-2.626,15.389a.175.175,0,0,0,.145.2l13.653,2.33a.2.2,0,0,0,.2-.142l2.626-15.389,15.387,2.627a.174.174,0,0,0,.2-.145l2.329-13.653a.168.168,0,0,0-.029-.131.175.175,0,0,0-.113-.073l-15.387-2.624,2.624-15.388a.175.175,0,0,0-.143-.2l-13.653-2.33a.2.2,0,0,0-.2.143L388.03,39.039l-15.387-2.624-.03,0" transform="translate(57.408 3.232)" fill="#d62b54"/>
        <path id="Trazado_258822" data-name="Trazado 258822" d="M24.855,210.03a3.338,3.338,0,0,1-2.137-2.414l-2.832-12.7-12.7,2.833A3.342,3.342,0,0,1,3.2,195.217l-3.122-14a3.341,3.341,0,0,1,2.53-3.983l12.7-2.832-2.833-12.7a3.342,3.342,0,0,1,2.531-3.984l14-3.122a3.337,3.337,0,0,1,3.982,2.531l2.832,12.7,12.7-2.833a3.344,3.344,0,0,1,3.982,2.531l3.122,14a3.342,3.342,0,0,1-2.53,3.983l-12.7,2.832,2.832,12.7a3.338,3.338,0,0,1-2.531,3.983l-14,3.122a3.33,3.33,0,0,1-1.845-.116M22.45,190.878l3.567,16,13.949-3.157-3.6-15.947,16-3.567-3.146-13.9-15.956,3.559-3.568-16-13.947,3.156,3.6,15.947-16,3.568L6.5,194.48Z" transform="translate(46.106 129.277)" fill="#d62b54"/>
        <path id="Trazado_258823" data-name="Trazado 258823" d="M395.291,50.33c-.016.3-.031.508-.047.657l-.267,2.526v.017L364.449,350.276a6.709,6.709,0,0,1-7.169,6.169L154.414,338.493l-8.395-.738a6.762,6.762,0,0,1-5.282-3.66,5.723,5.723,0,0,1-.331-.706,7.02,7.02,0,0,1-.439-3.3l.518-5.022,9.873-94.671L170.2,40.2a6.733,6.733,0,0,1,6.885-6.186l134.076,5.891,67.533,2.971,7.608.328,2.609.115a6.372,6.372,0,0,1,3.994,1.625,6.831,6.831,0,0,1,1.87,2.658,7.11,7.11,0,0,1,.519,2.724" transform="translate(21.871 5.316)" fill="#ffb500"/>
        <path id="Trazado_258824" data-name="Trazado 258824" d="M395.571,48.414,363.929,350.046a5.9,5.9,0,0,1-6.249,5.393L145.2,337.122a5.62,5.62,0,0,1-3.946-2.175,6.141,6.141,0,0,1-1.286-4.494l7.375-69.315c42.586-24.338,144.1-92.5,212.467-220.651l30.3,1.258a5.588,5.588,0,0,1,4.607,2.8,6.033,6.033,0,0,1,.857,3.864" transform="translate(21.871 6.329)" fill="#fdc94a"/>
        <path id="Trazado_258825" data-name="Trazado 258825" d="M378.361,54.99,350.505,331.455A5.264,5.264,0,0,1,345,336.4L157.936,319.61a4.908,4.908,0,0,1-3.475-1.994,5.792,5.792,0,0,1-1.132-4.119l6.493-63.531L180.683,45.731a5.25,5.25,0,0,1,5.266-4.943l160.925,6.937,26.677,1.153a4.9,4.9,0,0,1,4.056,2.57,5.725,5.725,0,0,1,.754,3.542" transform="translate(23.961 6.375)" fill="#fff"/>
        <path id="Trazado_258826" data-name="Trazado 258826" d="M378.361,53.784l-27.855,276.77A5.266,5.266,0,0,1,345,335.5L157.936,318.7a4.907,4.907,0,0,1-3.475-2,5.8,5.8,0,0,1-1.132-4.124l6.493-63.6c37.492-22.333,126.86-84.879,187.051-202.464l26.677,1.154a4.9,4.9,0,0,1,4.056,2.573,5.736,5.736,0,0,1,.754,3.546" transform="translate(23.961 7.27)" fill="#efefef"/>
        <path id="Trazado_258827" data-name="Trazado 258827" d="M311.757,29.586l-27.243-1.242,1.211-10.768c.031-.267.046-.55.062-.8a15.784,15.784,0,0,0-31.44-2.735L252.9,26.914l-26.566-1.226c-1.226-.047-2.233.3-2.311.77l-3.835,43.449-.11,1.273c-.079.5.927.991,2.217,1.086l85.344,5.344a5.185,5.185,0,0,0,1.242-.064c.66-.11,1.1-.361,1.163-.691l3.993-46.185c.11-.518-.959-1.021-2.279-1.085m-39.945-9.227a5.008,5.008,0,0,1-5.628-.88,5.07,5.07,0,1,1,5.628.88" transform="translate(34.399 0)" fill="#b0c0d2"/>
        <path id="Trazado_258828" data-name="Trazado 258828" d="M314.036,30.145,310.043,76.33c-.064.33-.5.582-1.163.691a5.185,5.185,0,0,1-1.242.064L222.294,71.74c-1.289-.094-2.3-.582-2.217-1.085l.11-1.273,46-50.43a5.011,5.011,0,0,0,5.628.881,5.042,5.042,0,0,0,1.194-8.347l7.4-8.112a15.668,15.668,0,0,1,5.377,12.874c-.016.252-.031.534-.062.8l-1.211,10.768,27.243,1.242c1.32.062,2.389.567,2.279,1.085" transform="translate(34.399 0.527)" fill="#727997"/>
        <path id="Trazado_258829" data-name="Trazado 258829" d="M312.665,157.9l-4.159,32.841a6.388,6.388,0,0,1-6.714,5.23l-26.922-1.744-3.055,26.077a6.355,6.355,0,0,1-6.73,5.609l-33.05-2.088a6.37,6.37,0,0,1-5.919-7.093l3-25.663L204.2,189.244a6.355,6.355,0,0,1-5.816-7.473l4.159-32.841a6.37,6.37,0,0,1,6.7-5.229l25.214,1.743,3.054-26.076a6.367,6.367,0,0,1,6.714-5.627l33.05,2.106a6.315,6.315,0,0,1,4.625,2.433,6.4,6.4,0,0,1,1.311,4.66l-3,25.663,26.629,1.829a6.364,6.364,0,0,1,5.834,7.472" transform="translate(30.992 24.54)" fill="#a3314f"/>
        <path id="Trazado_258830" data-name="Trazado 258830" d="M301.842,190.613,306,157.772a6.366,6.366,0,0,0-5.834-7.473l-26.629-1.829,3-25.663a6.4,6.4,0,0,0-1.311-4.659,6.32,6.32,0,0,0-4.625-2.434l-17.948-1.144L240.911,224.678l17.51,1.107a6.354,6.354,0,0,0,6.73-5.608l3.055-26.077,26.922,1.743a6.387,6.387,0,0,0,6.714-5.229" transform="translate(37.656 24.697)" fill="#a3314f"/>
        <path id="Trazado_258831" data-name="Trazado 258831" d="M427.722,198.461a188.639,188.639,0,0,1-14.314,34.113c-21.371,39.354-63.493,80.87-146.082,80.87q-12.16,0-25.515-1.245c-42.056-3.979-77.758-29.167-103.257-72.828a246.876,246.876,0,0,1-21.978-50.245c-2.7-8.713-3.882-14.313-4-14.854l6.4-1.326a207.666,207.666,0,0,0,7.828,25.876,235.393,235.393,0,0,0,17.49,37.4c24.73,42.269,57.746,65.623,98.115,69.439,90.843,8.6,137.534-30.3,161.411-69.635a177.687,177.687,0,0,0,17.638-39.5Z" transform="translate(17.596 40.597)" fill="#727997"/>
        <path id="Trazado_258832" data-name="Trazado 258832" d="M111.615,188.386a74.752,74.752,0,0,1-77.635-49.029L8.37,69.422a8.06,8.06,0,0,1,3.936-9.966l16.862-8.514,2.272,4.5L14.576,63.955A3.022,3.022,0,0,0,13.1,67.69l25.616,69.946a69.313,69.313,0,0,0,72.235,45.772,70.92,70.92,0,0,0,14.878-3.143,69.348,69.348,0,0,0,45.3-85.746L150.612,22.842a3.022,3.022,0,0,0-3.359-2.154l-19.7,3.011-.761-4.981,19.7-3.011a8.074,8.074,0,0,1,8.965,5.748L175.968,93.12a74.7,74.7,0,0,1-48.578,91.936,75.23,75.23,0,0,1-15.776,3.33" transform="translate(1.231 2.44)" fill="#727997"/>
        <path id="Trazado_258833" data-name="Trazado 258833" d="M173.514,145.827A79.287,79.287,0,0,1,127.7,184.41a81.828,81.828,0,0,1-16.83,3.56,79.72,79.72,0,0,1-82.888-52.338l-12-32.806a1.388,1.388,0,0,1,.82-1.77l11.612-4.249a1.384,1.384,0,0,1,1.771.838L42.2,130.469a64.62,64.62,0,0,0,123.819-36.2c-.3-1.267-.615-2.516-.988-3.785l-9.99-34.91a1.379,1.379,0,0,1,.95-1.7l11.873-3.411a1.393,1.393,0,0,1,1.715.95l3.579,12.545,6.393,22.329a79.248,79.248,0,0,1-6.039,59.533" transform="translate(2.484 11.204)" fill="#b0c0d2"/>
        <path id="Trazado_258834" data-name="Trazado 258834" d="M168.824,144a79.287,79.287,0,0,1-45.815,38.583,81.828,81.828,0,0,1-16.83,3.56A80.126,80.126,0,0,1,45.9,166.885a162.237,162.237,0,0,0,25.722-1.156,64.742,64.742,0,0,0,89.71-73.288,150.609,150.609,0,0,0,7.139-30.307l6.393,22.329A79.248,79.248,0,0,1,168.824,144" transform="translate(7.174 13.586)" fill="#727997"/>
        <path id="Trazado_258835" data-name="Trazado 258835" d="M33.339,46.232c2.365,4.527,1.865,9.46-1.117,11.017s-7.316-.85-9.681-5.377-1.865-9.46,1.117-11.017,7.316.85,9.681,5.377" transform="translate(3.29 6.312)" fill="#b0c0d2"/>
        <path id="Trazado_258836" data-name="Trazado 258836" d="M105.653,22.476c.755,5.051,4.064,8.743,7.391,8.246s5.412-5,4.656-10.047-4.064-8.743-7.391-8.246-5.412,5-4.656,10.047" transform="translate(16.49 1.936)" fill="#b0c0d2"/>
        <path id="Trazado_258837" data-name="Trazado 258837" d="M417.715,172.156A28.952,28.952,0,1,1,388.764,143.2a28.952,28.952,0,0,1,28.952,28.952" transform="translate(56.241 29.446)" fill="#fff"/>
        <path id="Trazado_258838" data-name="Trazado 258838" d="M415.493,150.77c-.426-.508-.867-.983-1.31-1.458A34.134,34.134,0,0,0,363.3,194.774c.541.672,1.131,1.31,1.737,1.932a34.137,34.137,0,0,0,50.457-45.937m-26.023,49.7a27.451,27.451,0,0,1-19.717-8.32c-.509-.508-.983-1.048-1.442-1.6a27.329,27.329,0,0,1-6.452-17.687,27.582,27.582,0,0,1,47.608-19c.345.36.688.737,1.015,1.13a27.342,27.342,0,0,1,6.6,17.867,27.656,27.656,0,0,1-27.612,27.611" transform="translate(55.537 31.752)" fill="#727997"/>
        <path id="Trazado_258839" data-name="Trazado 258839" d="M404.372,170.568a17.174,17.174,0,1,1-4.667-11.791,17.193,17.193,0,0,1,4.667,11.791" transform="translate(57.83 34.016)" fill="#b0c0d2"/>
        <path id="Trazado_258840" data-name="Trazado 258840" d="M131.05,168.286l-3.43,1.118-3.225,1.044,2.834,8.667a4.5,4.5,0,0,1-2.89,5.667l-5.927,1.938a4.492,4.492,0,0,1-5.666-2.888l-2.833-8.668-1.361.448-5.406,1.752a7.753,7.753,0,0,1-9.8-4.977l-3.112-9.525a7.8,7.8,0,0,1,5-9.823l27.9-9.1a7.735,7.735,0,0,1,5.61.317,7.827,7.827,0,0,1,4.212,4.678l3.094,9.525a7.786,7.786,0,0,1-5,9.823" transform="translate(14.044 29.211)" fill="#d2e1f1"/>
        <path id="Trazado_258841" data-name="Trazado 258841" d="M130.029,168.192l-3.43,1.118-3.225,1.044,2.834,8.667a4.5,4.5,0,0,1-2.89,5.667l-5.927,1.938a4.492,4.492,0,0,1-5.666-2.888l-2.833-8.668-1.361.447-5.406,1.752a7.713,7.713,0,0,1-5.741-.354c5.89-3.15,22.758-13.532,31.332-32.749a7.827,7.827,0,0,1,4.212,4.678l3.094,9.525a7.786,7.786,0,0,1-5,9.823" transform="translate(15.065 29.319)" fill="#b0c0d2"/>
        <g id="Grupo_167600" data-name="Grupo 167600" transform="translate(418.836 182.766)" opacity="0.3" style="mix-blend-mode: multiply;isolation: isolate">
          <g id="Grupo_167599" data-name="Grupo 167599">
            <g id="Grupo_167598" data-name="Grupo 167598" clip-path="url(#clip-path)">
              <path id="Trazado_258842" data-name="Trazado 258842" d="M422.552,171.23a34.142,34.142,0,0,1-58.6,23.844c-.606-.622-1.2-1.26-1.736-1.932l3.963-3.357,1.049-.868,7.943-6.7,26.285-22.157,7.943-6.7,1.048-.885,3.964-3.341a33.932,33.932,0,0,1,8.139,22.092" transform="translate(-362.219 -149.138)" fill="#727997"/>
            </g>
          </g>
        </g>
        <path id="Trazado_258843" data-name="Trazado 258843" d="M378.3,273.017c-11.209,27.531-52.2,45.907-65.442,51.213a7.244,7.244,0,0,1-7.519-1.336c-6.115-5.534-19.449-18.36-29.885-33.837-9.416-13.984-16.5-30.147-13.773-45.081A30.454,30.454,0,0,1,298.7,220.118c15.091,3.69,25.1,17.692,22.645,33.222h.036l.7-2.9a29.236,29.236,0,0,1,26.3-20.783,40.709,40.709,0,0,1,14.547,1.406c16.8,5.041,23.524,21.925,15.372,41.953" transform="translate(40.81 47.836)" fill="#d62b54"/>
        <path id="Trazado_258844" data-name="Trazado 258844" d="M376.359,271.421c-11.209,27.531-52.2,45.907-65.442,51.213A7.244,7.244,0,0,1,303.4,321.3c-6.115-5.534-19.449-18.36-29.885-33.837,18.851-.21,58.855-7.185,87.475-57.994,16.8,5.042,23.524,21.925,15.372,41.953" transform="translate(42.752 49.432)" fill="#bf1b4a"/>
        <path id="Trazado_258845" data-name="Trazado 258845" d="M312.838,303.564a2.174,2.174,0,0,1-.383-.033,2.094,2.094,0,0,1-1.743-2.028L309.5,252.78l-17.483,25.269-16.844-1.678a1.69,1.69,0,1,1,.334-3.363l14.863,1.479,18.56-26.826a2.114,2.114,0,0,1,3.852,1.147l1.161,46.44,12.216-30.6a2.114,2.114,0,0,1,4.074.66l1.462,24.706,6.065-10.833,19.339,2.322a1.69,1.69,0,1,1-.4,3.357L339.6,282.812l-7.073,12.635a2.113,2.113,0,0,1-3.955-.911l-1.383-23.355-12.4,31.053a2.089,2.089,0,0,1-1.951,1.331m-1.188-2.587v0Zm20.294-6.643v0Z" transform="translate(42.772 52.133)" fill="#fff"/>
        <g id="Grupo_167608" data-name="Grupo 167608" transform="translate(107.839 208.261)">
          <g id="Grupo_167607" data-name="Grupo 167607" clip-path="url(#clip-path-2)">
            <path id="Trazado_258847" data-name="Trazado 258847" d="M.316,87.33c.382-1.841,1.7-2.559,3.394-2.7,1.219-.1,2.451-.015,3.678-.013A124.282,124.282,0,0,0,13.2,116.195a122.169,122.169,0,0,0,15.952,32.61c-1.725,1.637-3.225,3.345-1.869,5.95l-.079.421-5.647.077-.7-.37a6.255,6.255,0,0,0-.513-1.294A113.055,113.055,0,0,1,7.686,128.529a125.784,125.784,0,0,1-6.637-27.023C.745,99.158.352,96.82,0,94.477V90.591q.158-1.63.316-3.261" transform="translate(0 -44.664)" fill="#394848"/>
            <path id="Trazado_258848" data-name="Trazado 258848" d="M0,105.544c.352,2.343.745,4.68,1.049,7.029A125.818,125.818,0,0,0,7.686,139.6a113.056,113.056,0,0,0,12.648,25.059,6.233,6.233,0,0,1,.513,1.294l-7.43-.657c-1.631-3.494-3.469-6.908-4.856-10.5a132.842,132.842,0,0,1-8.2-38.112A6.233,6.233,0,0,0,0,115.436v-9.892" transform="translate(0 -55.73)" fill="#415b5a"/>
            <path id="Trazado_258849" data-name="Trazado 258849" d="M.316,90.4Q.158,92.029,0,93.66V90.481A.9.9,0,0,1,.316,90.4" transform="translate(0 -47.733)" fill="#415b5a"/>
            <path id="Trazado_258850" data-name="Trazado 258850" d="M68.315,37.862a27.191,27.191,0,0,1,.866-17.58,8.662,8.662,0,0,1,5.2-5.363,9.843,9.843,0,0,0,.927.4A26.011,26.011,0,0,1,88.071,23.99a26.162,26.162,0,0,1,5.721,21.731c-.624,3.51-1.372,7.063-4.4,9.514-.467.379-.909.788-1.362,1.183l.071.461c2.258.154,4.516.427,6.775.434a8.308,8.308,0,0,0,7.805-5.08A23.738,23.738,0,0,0,105.1,41c-.062-2.15-.447-4.291-.687-6.436.056-.02.113-.035.166-.06,5.057-2.311,10.12-.816,15.178-.014,2.317.368,4.629.778,6.939,1.187a9.105,9.105,0,0,1,7,5.558c.852,1.867,1.665,3.752,2.489,5.632a19.35,19.35,0,0,0,7.69,8.943c7.249,4.455,14.537,8.847,21.808,13.264q-1.791,5.065-3.579,10.132c-.949,1.624-1.82,3.3-2.859,4.862-4.055,6.106-9.607,10.2-16.837,11.569a57.86,57.86,0,0,1-11.215.945c-8.175-.076-16.348-.721-24.519-.667A31.829,31.829,0,0,0,86.225,103c-2.1,1.711-4.14,3.485-6.207,5.23a8.761,8.761,0,0,1-1.547-.991c-2.842-2.792-5.635-5.634-8.47-8.435-2.028-2-3.749-1.993-5.779-.026q-2.33,2.258-4.657,4.521A104.176,104.176,0,0,1,45.412,72.544,106.628,106.628,0,0,1,41.2,47.95c2.985.019,5.983.211,8.953.007,2.771-.191,5.514-.8,8.27-1.229.015,3.1-.008,6.2.053,9.3.055,2.8.2,5.6.307,8.393-.1,2.8-.248,5.59-.273,8.386a7.334,7.334,0,0,0,7.279,7.478c3.878.063,7.766.168,11.634-.04a6.742,6.742,0,0,0,6.208-3.937c1.761-3.871,1-7.895.721-11.89a21.589,21.589,0,0,0,.278-2.43q.038-8.2.009-16.4a7.511,7.511,0,0,0-7.683-7.677c-2.88-.024-5.76-.034-8.64-.05M119.684,56.63c-3.591-.7-8.262,3.21-8.793,6.84a2.837,2.837,0,0,0,1.766,3.371,2.867,2.867,0,0,0,3.419-2c.68-2.127,1.6-2.867,3.615-2.91,1.875-.04,2.876,1.016,3.473,2.67.689,1.907,2.2,2.722,3.795,2.124,1.387-.52,1.965-2.286,1.295-4.084-1.439-3.862-4.713-6.279-8.569-6.012" transform="translate(-21.754 -7.878)" fill="#3f5959"/>
            <path id="Trazado_258851" data-name="Trazado 258851" d="M247.573,213.514c-2.155,2.119-5.061,1.924-7.714,2.464-6.467,1.317-13.064,2.156-19.4,3.94-9.012,2.537-16.529,7.807-22.755,14.763A97.734,97.734,0,0,0,191.7,242.9a20.982,20.982,0,0,0-2.726-1.483c-4.6-1.705-9.223-3.337-13.838-5a4.748,4.748,0,0,1,.55-1.279c3.062-3.6,6.052-7.266,9.272-10.719,3.475-3.725,7.815-6.331,12.282-8.715,7.907-4.219,16.6-5.482,25.288-6.81,4.761-.728,9.681-.985,13.534-4.6,2.291-2.151,4.854-4.012,7.294-6q.157.023.316.034c2.911,4.647,3.9,9.787,3.9,15.183" transform="translate(-92.477 -104.706)" fill="#fde6c8"/>
            <path id="Trazado_258852" data-name="Trazado 258852" d="M43.3,234.225l5.647-.077.367.04L61.1,245.809l11.528,11.373.351.369-.017-.012c2,2.048,3.983,4.118,6.011,6.139,1.814,1.808,3.509,1.787,5.365.043,1.1-1.034,2.232-2.036,3.349-3.053l6.826,3.294a12.162,12.162,0,0,0,1.667.93q9.943,3.7,19.9,7.357c-.836,4.227-1.705,8.448-2.5,12.682-.553,2.951-2.349,4.217-5.3,3.368-4.255-1.222-8.464-2.6-12.693-3.912a21.385,21.385,0,0,1,.482-3.638c.784-2.565-.967-6-3.712-7.177-2.855-1.225-5.66-2.568-8.475-3.885-1.212-.567-2.517-1.838-3.554-1.635-1.167.229-2.088,1.751-3.1,2.726-1.873,1.8-3.846,1.808-5.714-.057q-14.353-14.333-28.686-28.687c-2.185-2.189-2.15-3.805-.089-6.07.374-.411.386-1.151.565-1.739" transform="translate(-21.746 -123.636)" fill="#fde6c8"/>
            <path id="Trazado_258853" data-name="Trazado 258853" d="M27.71,81.583a106.653,106.653,0,0,0,4.213,24.593,104.167,104.167,0,0,0,14.153,30.757l-8.663,8.718a122.154,122.154,0,0,1-15.951-32.61,124.262,124.262,0,0,1-5.808-31.573,3.91,3.91,0,0,1,4.46-2.837,28.385,28.385,0,0,0,3.156.033,4.031,4.031,0,0,1,4.44,2.919" transform="translate(-8.266 -41.51)" fill="#ffb500"/>
            <path id="Trazado_258855" data-name="Trazado 258855" d="M141.536,33.629c.239,2.145.625,4.286.687,6.436a23.731,23.731,0,0,1-2.412,11.226,8.306,8.306,0,0,1-7.8,5.08c-2.259-.008-4.517-.28-6.776-.434l-.071-.46c.454-.4.895-.8,1.362-1.183,3.023-2.451,3.77-6,4.395-9.514A26.162,26.162,0,0,0,125.2,23.051a26.012,26.012,0,0,0-12.761-8.674,9.609,9.609,0,0,1-.927-.4c3.133-1.356,6.332-.831,9.44-.09,10.243,2.442,16.879,8.856,20.2,18.787.109.324.257.635.387.952" transform="translate(-58.878 -6.938)" fill="#384848"/>
            <path id="Trazado_258857" data-name="Trazado 258857" d="M324.248,185.9c0-5.4-.988-10.535-3.9-15.183a11.449,11.449,0,0,0,6.006-10.592c1.3-.394,2.383-.985,2.5-2.543a2.993,2.993,0,0,0-1.968-3.006,4.23,4.23,0,0,1-.55-.411l-.675-8.161c3.012,1.813,6.067,3.56,9.025,5.457a9.151,9.151,0,0,1,4.386,8.138c0,3.581.018,7.163-.009,10.744a8.027,8.027,0,0,1-2.789,6.423c-3.913,3.165-8.009,6.1-12.03,9.134" transform="translate(-169.152 -77.096)" fill="#fa946d"/>
            <path id="Trazado_258858" data-name="Trazado 258858" d="M78.051,90.225c-.106-2.8-.252-5.594-.307-8.393-.061-3.1-.039-6.2-.053-9.3.238-5.022,1.989-7.581,5.994-8.558a16.474,16.474,0,0,1,2.964-.191c4.189,1.678,6.171,4.681,5.983,9.28-.178,4.344-.163,8.7,0,13.05.155,4.184-1.465,7.848-6.362,9.277-3.931.2-6.445-1.381-8.217-5.161" transform="translate(-41.023 -33.677)" fill="#fbc06c"/>
            <path id="Trazado_258859" data-name="Trazado 258859" d="M36.561,233.161c-.179.588-.191,1.328-.565,1.739-2.062,2.265-2.1,3.881.089,6.07q14.331,14.355,28.686,28.687c1.868,1.865,3.841,1.86,5.714.057,1.013-.975,1.933-2.5,3.1-2.726,1.036-.2,2.342,1.068,3.554,1.635,2.815,1.317,5.62,2.66,8.475,3.885,2.745,1.177,4.5,4.612,3.712,7.177a21.384,21.384,0,0,0-.482,3.638c-3.445-1.311-6.964-2.457-10.32-3.967a103.671,103.671,0,0,1-19.1-10.871c-3.577-2.635-6.989-5.519-10.292-8.494a87.354,87.354,0,0,1-15.949-19.1c-1.743-2.825-3.183-5.835-4.761-8.762l7.43.657.7.371" transform="translate(-15.01 -122.572)" fill="#fef1e2"/>
            <path id="Trazado_258860" data-name="Trazado 258860" d="M95.864,95.255c4.9-1.429,6.517-5.093,6.362-9.277-.161-4.345-.176-8.706,0-13.05.188-4.6-1.794-7.6-5.983-9.28l.935-.117c2.88.016,5.76.026,8.64.05a7.511,7.511,0,0,1,7.683,7.677q.025,8.2-.009,16.4a21.609,21.609,0,0,1-.278,2.43c-1.187,3.056-3.407,5-6.654,5.2-3.552.22-7.131,0-10.7-.036" transform="translate(-50.618 -33.546)" fill="#faa52f"/>
            <path id="Trazado_258861" data-name="Trazado 258861" d="M313.526,137.381q.338,4.081.676,8.161c-.523-.258-1.043-.524-1.571-.772a2.674,2.674,0,0,0-3.674,1,2.523,2.523,0,0,0,.879,3.544c1.383.853,2.914,1.469,4.379,2.188a11.448,11.448,0,0,1-6.005,10.591c-.106-.007-.211-.019-.316-.034-1.4-1.8-2.735-3.658-4.223-5.384-2.784-3.23-5.364-6.558-5.894-10.967-.236-1.958-.284-3.938-.418-5.908q1.789-5.067,3.579-10.132l12.588,7.712" transform="translate(-157.013 -68.468)" fill="#faab8d"/>
            <path id="Trazado_258862" data-name="Trazado 258862" d="M175.731,295.263q-9.953-3.672-19.9-7.357a12.156,12.156,0,0,1-1.667-.93,9.133,9.133,0,0,1,1.008-1.571c2-2.064,4.068-4.067,6.076-6.126a10.478,10.478,0,0,0,1.056-1.547l1.76.636c4.615,1.659,9.24,3.291,13.838,5a20.961,20.961,0,0,1,2.726,1.483c1.16,3.288-.185,6.238-1.564,9.02-.4.815-2.182.949-3.331,1.4" transform="translate(-81.401 -146.649)" fill="#fdc94a"/>
            <path id="Trazado_258866" data-name="Trazado 258866" d="M59.077,204.188l8.663-8.718q2.328-2.26,4.657-4.521c2.03-1.967,3.751-1.978,5.779.026,2.834,2.8,5.627,5.642,8.47,8.435a8.7,8.7,0,0,0,1.547.991,12.174,12.174,0,0,0,1.17,1.665q5.95,6.06,11.948,12.074c-.327,1.083-.339,2.462-1.033,3.2-3.128,3.313-6.45,6.443-9.7,9.639-3.042-.393-4.056.622-3.707,3.708-1.459,1.879-2.928,3.742-5.73,3.265l.017.012-.351-.368L69.279,222.22,57.5,210.6l-.288-.46c-1.355-2.6.145-4.312,1.869-5.95M76.336,199.8a13.863,13.863,0,0,0-2.258,2.125c-.756,1.124-.083,2.132.749,2.966q6.723,6.742,13.468,13.462c1.385,1.373,2.642,1.4,3.857.231s1.181-2.661-.166-4.018q-6.645-6.7-13.351-13.329a13.57,13.57,0,0,0-2.3-1.436m9.785,23.858a2.661,2.661,0,1,0-5.32-.177,2.631,2.631,0,0,0,2.585,2.735,2.555,2.555,0,0,0,2.735-2.558" transform="translate(-29.93 -100.047)" fill="#d2e1f1"/>
            <path id="Trazado_258867" data-name="Trazado 258867" d="M57.706,233.257l.288.46-.367-.04.079-.42" transform="translate(-30.428 -123.165)" fill="#415b5a"/>
            <path id="Trazado_258868" data-name="Trazado 258868" d="M136.565,193.9q-5.979-6.031-11.948-12.074a12.147,12.147,0,0,1-1.17-1.665c2.067-1.745,4.111-3.519,6.207-5.23a31.825,31.825,0,0,1,20.446-7.082c8.171-.054,16.344.591,24.519.667a57.823,57.823,0,0,0,11.215-.946c7.231-1.367,12.783-5.462,16.837-11.568,1.038-1.564,1.911-3.238,2.859-4.862.134,1.97.182,3.949.418,5.907.531,4.41,3.11,7.737,5.894,10.967,1.488,1.726,2.82,3.586,4.223,5.384-2.441,1.992-5,3.853-7.294,6-3.852,3.617-8.773,3.874-13.533,4.6-8.69,1.329-17.381,2.591-25.288,6.81-4.467,2.384-8.808,4.989-12.283,8.715-3.22,3.452-6.209,7.121-9.272,10.718a4.75,4.75,0,0,0-.55,1.279l-1.76-.636-6.066-2.953c.851-.95,1.688-1.915,2.559-2.848a3.557,3.557,0,0,0,.1-5.158c-1.989-2.056-4.069-4.025-6.11-6.031" transform="translate(-65.183 -79.804)" fill="#fef1e2"/>
            <path id="Trazado_258869" data-name="Trazado 258869" d="M86.366,124.968c3.567.031,7.147.256,10.7.036,3.247-.2,5.467-2.145,6.654-5.2.277,3.994,1.04,8.019-.722,11.889a6.742,6.742,0,0,1-6.207,3.937c-3.868.209-7.756.1-11.634.04a7.334,7.334,0,0,1-7.279-7.478c.025-2.8.177-5.59.273-8.385,1.772,3.78,4.286,5.359,8.217,5.161" transform="translate(-41.12 -63.259)" fill="#384848"/>
            <path id="Trazado_258870" data-name="Trazado 258870" d="M197.6,103.2c3.857-.267,7.131,2.15,8.569,6.012.67,1.8.092,3.564-1.295,4.084-1.6.6-3.106-.217-3.795-2.124-.6-1.654-1.6-2.71-3.473-2.67-2.014.043-2.935.783-3.615,2.91a2.867,2.867,0,0,1-3.419,2,2.837,2.837,0,0,1-1.766-3.371c.531-3.63,5.2-7.537,8.793-6.84" transform="translate(-99.672 -54.451)" fill="#384848"/>
            <path id="Trazado_258871" data-name="Trazado 258871" d="M128.674,241.736c2.041,2.006,4.12,3.975,6.11,6.031a3.558,3.558,0,0,1-.1,5.158c-.871.933-1.707,1.9-2.558,2.848l-8.9,8.9c-1.117,1.017-2.248,2.019-3.349,3.053-1.856,1.744-3.551,1.765-5.365-.043-2.028-2.021-4.009-4.091-6.011-6.139,2.8.477,4.27-1.386,5.73-3.265.87,1,1.8,1.846,3.289,1.362,2.289-.747,2.486-3.121.418-5.07,3.252-3.2,6.574-6.326,9.7-9.639.694-.735.707-2.114,1.033-3.2" transform="translate(-57.292 -127.642)" fill="#b0c0d2"/>
            <path id="Trazado_258872" data-name="Trazado 258872" d="M139.7,280.379l8.9-8.9,6.066,2.952a10.517,10.517,0,0,1-1.056,1.547c-2.007,2.06-4.073,4.063-6.076,6.126a9.158,9.158,0,0,0-1.008,1.571l-6.826-3.294" transform="translate(-73.764 -143.347)" fill="#ffb500"/>
            <path id="Trazado_258873" data-name="Trazado 258873" d="M107.795,282.952l.351.368-.351-.368" transform="translate(-56.918 -149.405)" fill="#90bac3"/>
            <path id="Trazado_258874" data-name="Trazado 258874" d="M326.758,168.018c-1.466-.719-3-1.335-4.379-2.188a2.523,2.523,0,0,1-.879-3.544,2.674,2.674,0,0,1,3.674-1c.528.248,1.047.514,1.571.772a4.229,4.229,0,0,0,.55.411,2.992,2.992,0,0,1,1.968,3.006c-.122,1.559-1.209,2.15-2.5,2.544" transform="translate(-169.555 -84.984)" fill="#445b5a"/>
            <path id="Trazado_258875" data-name="Trazado 258875" d="M95.428,211.357a13.532,13.532,0,0,1,2.3,1.437q6.716,6.623,13.352,13.329c1.347,1.357,1.371,2.855.166,4.019s-2.473,1.142-3.857-.231q-6.761-6.7-13.468-13.462c-.832-.834-1.5-1.843-.749-2.966a13.883,13.883,0,0,1,2.258-2.125" transform="translate(-49.022 -111.602)" fill="#32a7fa"/>
            <path id="Trazado_258876" data-name="Trazado 258876" d="M113.1,258.8a2.555,2.555,0,0,1-2.735,2.558,2.631,2.631,0,0,1-2.585-2.735,2.661,2.661,0,1,1,5.32.177" transform="translate(-56.911 -135.182)" fill="#a3314f"/>
            <path id="Trazado_258877" data-name="Trazado 258877" d="M124.275,268.842c2.068,1.948,1.871,4.323-.418,5.069-1.487.485-2.419-.361-3.289-1.361-.349-3.087.665-4.1,3.707-3.708" transform="translate(-63.628 -141.912)" fill="#ced371"/>
          </g>
        </g>
      </g>
    </g>
  </g>
</svg>
