<svg xmlns="http://www.w3.org/2000/svg" width="117.748" height="117.74" viewBox="0 0 117.748 117.74">
  <g id="Grupo_167523" data-name="Grupo 167523" transform="translate(-11.919 -12.705)">
    <g id="Grupo_167524" data-name="Grupo 167524" transform="translate(11.919 12.705)">
      <path id="Trazado_258285" data-name="Trazado 258285" d="M80.651,175.614V183.4c.339.019.689.055,1.039.055,3.556,0,7.112-.023,10.668.01a9.831,9.831,0,0,1,9.784,8.7c.26,1.967-.206,2.71-2.11,3.206Q78.023,201.1,56.007,206.8a7.356,7.356,0,0,1-1.811.2q-10.667.02-21.335.009H31.54c0,.671.027,1.272-.005,1.87a1.928,1.928,0,0,1-1.99,2.039q-7.847.042-15.694,0c-1.283-.009-1.923-.849-1.927-2.323q-.013-6.5,0-13,0-8.706,0-17.411c0-1.936.629-2.565,2.559-2.567,4.782,0,9.564.022,14.346-.017a2.373,2.373,0,0,1,2.616,1.615,15.945,15.945,0,0,1,7.673-3.38,15.714,15.714,0,0,1,11.769,3.031,3.689,3.689,0,0,0,1.965.681c3.923.063,7.847.021,11.77.034a8.008,8.008,0,0,1,7.651,5.113,1.421,1.421,0,0,0,.976.735c1.091.1,2.195.035,3.366.035v-7.847c-2,0-4.032-.066-6.055.013a18.234,18.234,0,0,1-12.8-3.948,17.332,17.332,0,0,1-6.571-13.407c-.043-1.388-.035-2.78,0-4.168a1.851,1.851,0,0,1,1.867-2.011c4.083.012,8.183-.112,12.245.211,4.542.361,8.224,2.667,11.306,6.22v-8.418c-1.139,0-2.307,0-3.476,0a13.984,13.984,0,0,1-14.095-15.8c.11-1.02.685-1.811,1.677-1.8a62.823,62.823,0,0,1,9.274.383c3.711.58,6.5,2.885,8.624,6.133.256-.327.472-.595.679-.869a13.572,13.572,0,0,1,11-5.695c1.961-.049,3.924-.029,5.885,0a1.912,1.912,0,0,1,2.08,1.811c.559,7.089-2.893,12.263-8.212,14.674a17.679,17.679,0,0,1-7.917,1.168c-.448-.01-.9,0-1.511,0v8.5a17.34,17.34,0,0,1,8.954-5.835,21.763,21.763,0,0,1,4.583-.671c3.185-.1,6.375-.039,9.563-.03,1.688,0,2.389.7,2.407,2.363.035,3.308.085,6.6-1.149,9.78A17.719,17.719,0,0,1,88.616,175.61c-2.613.024-5.227,0-7.965,0M51.2,189.349h1.334c4.046,0,8.093.009,12.139,0a3.918,3.918,0,1,0,.107-7.829q-6.376-.069-12.752.005a4.249,4.249,0,0,1-3.089-1.126,11.556,11.556,0,0,0-16.728,1.728A3.377,3.377,0,0,0,31.571,184c-.047,6.008-.028,12.017-.028,18.025v1.023c.281.016.475.036.67.036q11.036,0,22.072-.007a4.87,4.87,0,0,0,1.2-.181q18.231-4.724,36.458-9.463c2.038-.53,4.069-1.088,6.107-1.635a5.841,5.841,0,0,0-5.768-4.4c-3.188-.02-6.376,0-9.564,0H72.594c-2.221,4.719-4.079,5.886-9.283,5.886H51.2ZM15.936,206.9H27.481V179.6H15.936ZM76.6,171.854c.617-7.763-3.627-13.9-10.628-15.464a31.262,31.262,0,0,0-5.714-.384c-1.695-.057-3.393-.012-5.071-.012-.608,7.585,3.621,13.877,10.649,15.254,3.471.68,7.124.431,10.764.605m4.07-.4c3.465,0,6.892.387,10.2-.079,7.335-1.033,12.225-8.165,11.17-15.38-2.3,0-4.623,0-6.941,0-9,0-15.068,6.53-14.428,15.459m-4.029-25.282a9.785,9.785,0,0,0-5.465-8.8c-2.616-1.309-5.384-.968-8.131-.971a9.67,9.67,0,0,0,6.043,9.06c2.438,1,4.963.665,7.554.712m4.057-.062c8.309.663,14.254-3.608,13.523-9.637-7.9-.948-13.879,3.285-13.523,9.637" transform="translate(-11.919 -93.199)" fill="#020202"/>
      <path id="Trazado_258286" data-name="Trazado 258286" d="M125.415,40.181c-6.631,0-13.21.029-19.789-.009a9.8,9.8,0,0,1-9.828-9.3c-.044-1.569.353-2.1,1.9-2.5q22.058-5.757,44.12-11.5a7.817,7.817,0,0,1,1.93-.229c7.515-.015,15.03-.01,22.692-.01,0-.639-.019-1.236,0-1.831a1.931,1.931,0,0,1,2.061-2.082q7.724-.035,15.448,0a1.933,1.933,0,0,1,2.1,2.166q.018,15.509,0,31.019a1.936,1.936,0,0,1-2.153,2.116c-5.068.019-10.135,0-15.2.013a2.045,2.045,0,0,1-2.029-1.237,49.6,49.6,0,0,1-6.484,2.7,14.94,14.94,0,0,1-13.171-2.79,3.23,3.23,0,0,0-1.745-.613c-3.677-.055-7.358-.1-11.033-.009-4.321.108-7.27-1.72-8.815-5.906M146.774,34.3h-1.281c-4.045,0-8.09-.036-12.134.03a5.3,5.3,0,0,0-2.421.661,3.665,3.665,0,0,0-1.65,4.13,3.889,3.889,0,0,0,3.838,3.011c4.331.036,8.662.044,12.992,0a3.978,3.978,0,0,1,2.858,1.081,11.549,11.549,0,0,0,16.808-1.722,3.371,3.371,0,0,0,.625-1.876c.047-5.72.028-11.44.028-17.159V20.64a3.5,3.5,0,0,0-.454-.076q-11.153,0-22.307,0a4.876,4.876,0,0,0-1.2.195q-17.866,4.641-35.73,9.293-3.409.887-6.824,1.772c.808,2.625,2.8,4.37,5.277,4.394,6.737.065,13.475.022,20.208.022.091-.186.174-.327.232-.478a7.8,7.8,0,0,1,7.773-5.4c1.8-.006,3.6,0,5.393,0h7.968Zm23.717,9.72h11.583V16.7H170.491Z" transform="translate(-68.313 -12.705)" fill="#020101"/>
      <path id="Trazado_258287" data-name="Trazado 258287" d="M91.456,282.015v3.925h12.116c5.2,0,7.062-1.167,9.283-5.886h10.122c3.188,0,6.377-.015,9.565,0a5.841,5.841,0,0,1,5.768,4.4c-2.038.547-4.069,1.1-6.107,1.635q-18.227,4.739-36.458,9.463a4.889,4.889,0,0,1-1.2.181q-11.036.016-22.072.006c-.194,0-.388-.02-.669-.036v-1.023c0-6.009-.019-12.017.028-18.025a3.379,3.379,0,0,1,.635-1.875,11.556,11.556,0,0,1,16.728-1.728,4.249,4.249,0,0,0,3.089,1.126q6.375-.073,12.752,0a3.918,3.918,0,1,1-.107,7.829c-4.046.012-8.093,0-12.139,0H91.456" transform="translate(-52.18 -185.865)" fill="#fddfb1"/>
      <path id="Trazado_258288" data-name="Trazado 258288" d="M24.177,276.4H35.722v27.3H24.177Zm7.7,3.95H28.11v3.773h3.77Z" transform="translate(-20.16 -189.996)" fill="#ffb500"/>
      <path id="Trazado_258289" data-name="Trazado 258289" d="M165.254,220.178c-3.64-.175-7.293.074-10.764-.606-7.028-1.377-11.257-7.669-10.649-15.254,1.678,0,3.376-.046,5.071.012a31.2,31.2,0,0,1,5.714.384c7,1.565,11.246,7.7,10.628,15.464" transform="translate(-100.577 -141.523)" fill="#7ec24e"/>
      <path id="Trazado_258290" data-name="Trazado 258290" d="M221.637,219.811c-.64-8.928,5.426-15.454,14.428-15.459,2.319,0,4.637,0,6.941,0,1.054,7.215-3.835,14.347-11.17,15.38-3.307.466-6.734.079-10.2.079" transform="translate(-152.89 -141.557)" fill="#7ec24e"/>
      <path id="Trazado_258291" data-name="Trazado 258291" d="M181.507,154.244c-2.591-.047-5.116.288-7.553-.712a9.67,9.67,0,0,1-6.043-9.06c2.747,0,5.515-.338,8.132.971a9.785,9.785,0,0,1,5.465,8.8" transform="translate(-116.79 -101.272)" fill="#7dc14e"/>
      <path id="Trazado_258292" data-name="Trazado 258292" d="M221.786,154.138c-.357-6.352,5.624-10.585,13.523-9.637.732,6.029-5.214,10.3-13.523,9.637" transform="translate(-153.011 -101.228)" fill="#7dc14e"/>
      <path id="Trazado_258293" data-name="Trazado 258293" d="M155.245,50.416V46.491h-7.968c-1.8,0-3.6,0-5.393,0a7.8,7.8,0,0,0-7.773,5.4c-.058.151-.141.293-.232.478-6.732,0-13.471.043-20.208-.022-2.476-.024-4.469-1.769-5.277-4.394q3.416-.887,6.824-1.772,17.865-4.648,35.73-9.293a4.892,4.892,0,0,1,1.2-.195q11.154-.017,22.308,0a3.432,3.432,0,0,1,.454.076v1.806c0,5.72.019,11.44-.028,17.159a3.373,3.373,0,0,1-.625,1.876,11.55,11.55,0,0,1-16.809,1.723,3.978,3.978,0,0,0-2.858-1.081c-4.33.048-8.661.04-12.992,0a3.889,3.889,0,0,1-3.838-3.011,3.665,3.665,0,0,1,1.65-4.13,5.3,5.3,0,0,1,2.421-.661c4.044-.066,8.089-.03,12.134-.03Z" transform="translate(-76.783 -28.826)" fill="#fddfb1"/>
      <path id="Trazado_258294" data-name="Trazado 258294" d="M323.764,24.885h11.583V52.2H323.764ZM327.616,48.3H331.4V44.536h-3.787Z" transform="translate(-221.586 -20.894)" fill="#ffb500"/>
      <rect id="Rect치ngulo_53019" data-name="Rect치ngulo 53019" width="3.77" height="3.773" transform="translate(7.95 90.35)" fill="#010101"/>
      <rect id="Rect치ngulo_53020" data-name="Rect치ngulo 53020" width="3.787" height="3.765" transform="translate(106.031 23.642)"/>
    </g>
  </g>
</svg>
