<svg xmlns="http://www.w3.org/2000/svg" xmlns:xlink="http://www.w3.org/1999/xlink" width="111" height="109" viewBox="0 0 111 109">
  <defs>
    <clipPath id="clip-path">
      <rect id="Rectángulo_53021" data-name="Rectángulo 53021" width="111" height="109" fill="none"/>
    </clipPath>
  </defs>
  <g id="Grupo_167526" data-name="Grupo 167526" transform="translate(-0.229 0.104)">
    <g id="Grupo_167525" data-name="Grupo 167525" transform="translate(0.229 -0.104)" clip-path="url(#clip-path)">
      <path id="Trazado_258296" data-name="Trazado 258296" d="M0,31.063a2.729,2.729,0,0,1,2.457-.926c1.238.1,2.539.243,3.38-1.013a.789.789,0,0,1,.266-.179c1.854-1.086,6.377-.571,7.939.9.146.137.34.327.508.324,2.234-.044,4.468-.1,6.7-.193.6-.024.85-.353.994-.99.561-2.48,2.055-3.778,5.4-4.847a17.684,17.684,0,0,1,.631-8.263c1.176-3.722,3.625-5.739,7.108-5.786a17.478,17.478,0,0,1,6.879,1.261,17.806,17.806,0,0,1,10.053,9.88c.082.194.17.385.291.657,3.416-1.324,6.658.28,9.985.541a27.409,27.409,0,0,1,2.882.479,7.038,7.038,0,0,1,5.353,4.2c.492,1.062.992,2.122,1.453,3.2a10.468,10.468,0,0,0,4.491,5.026,7.985,7.985,0,0,0,.926.548,2.484,2.484,0,0,1,1.767,3.066c-.735.131-1.638.6-2.178.335-2.17-1.045-4.423-2.162-5.778-4.192a67.838,67.838,0,0,1-3.68-6.709A4.183,4.183,0,0,0,64.695,26c-2.805-.482-5.617-.938-8.44-1.3a12.337,12.337,0,0,0-2.527.134c-.185,2.393-.29,4.5-.531,6.593-.148,1.291-.77,1.695-2.149,1.7a1.959,1.959,0,0,1-1.033-2.415,12.983,12.983,0,0,0,.334-2.725,14.352,14.352,0,0,0-4.64-10.724,14.055,14.055,0,0,0-8.582-3.834c-.65-.023-1.3-.06-1.95-.066A3.243,3.243,0,0,0,32.107,15.2a13.27,13.27,0,0,0-1.2,8.365c.043.263.556.614.875.64,1.006.083,2.023.027,3.036.032a6.154,6.154,0,0,1,6.438,6.292c.013,2.022.014,4.043.021,6.065q0,.215,0,.432c-.006.46-.048.922-.013,1.379a7.673,7.673,0,0,1-1.753,6.043,6.84,6.84,0,0,1-5.042,1.768,50.787,50.787,0,0,0-5.195,0,6.9,6.9,0,0,1-5.6-1.952A6.456,6.456,0,0,1,22.1,39.653c.082-1.806.022-3.618.014-5.427,0-.331-.051-.663-.065-.833h-7.1A65.888,65.888,0,0,0,24.675,62.22c.586-.594,1.045-1.093,1.541-1.554a3.8,3.8,0,0,1,5.431.032c1.213,1.168,2.4,2.358,3.612,3.533.476.463.969.911,1.457,1.368.517-.412.967-.716,1.352-1.086,4.418-4.254,9.905-5.756,15.9-5.944,1.311-.041,1.8.4,2.072,1.673a1.781,1.781,0,0,1-1.961,1.571c-1.3.055-2.594.173-3.88.343a18.34,18.34,0,0,0-11.131,5.877c.449.414.858.813,1.292,1.186a1.765,1.765,0,0,1,.411,2.467c-1.169.769-1.762.727-2.75-.239-2.794-2.73-5.591-5.456-8.358-8.211-.53-.527-.875-.542-1.411-.009q-4.228,4.208-8.516,8.358c-.45.437-.527.753-.041,1.226q7.322,7.113,14.618,14.253c.98.982,1.97,1.956,2.937,2.951.431.444.777.358,1.18-.039q4.31-4.246,8.642-8.472c.408-.4.482-.736.032-1.156-1.015-.948-2.008-1.918-3.009-2.88-.943-1.183-.95-1.655-.042-2.743a1.875,1.875,0,0,1,2.425.482c.791.828,1.617,1.625,2.453,2.41.875.821,1.825,1.678,1.752,2.93a18.031,18.031,0,0,1-.821,3.286l2.229.9c2.666.952,5.342,1.876,7.991,2.871.8.3,1.163.079,1.644-.567A33.333,33.333,0,0,1,83.859,73.628c2.99-.49,5.982-.969,8.968-1.479.446-.076,1.046-.026,1.021-.8a10.451,10.451,0,0,0-2.156-6.743c-.308-.432-.6-.876-.927-1.295-1.966-2.527-4.518-4.671-5.282-8.089-.241.258-.364.379-.475.511a17.652,17.652,0,0,1-9.648,5.907c-4.386,1.044-8.828.752-13.262.451a1.552,1.552,0,0,1-1.532-1.626c.282-1.179.724-1.528,1.945-1.525,2.848.006,5.705.154,8.543-.013a16.283,16.283,0,0,0,10.689-4.521c2.748-2.631,3.867-5.949,4.808-9.482-.811-.488-1.679-.989-2.525-1.524a1.667,1.667,0,0,1-.816-2.417,1.825,1.825,0,0,1,2.6-.279q8.307,4.991,16.636,9.949a7.2,7.2,0,0,1,3.709,6.545q.015,2.925,0,5.851A7.221,7.221,0,0,1,103.1,69.1c-2.129,1.586-4.2,3.255-6.419,4.712a11.142,11.142,0,0,1-3.734,1.53c-4.4.932-8.934,1.4-13.248,2.62a28.383,28.383,0,0,0-15.864,11.7c-.155.224-.379.527-.332.742.4,1.811-.38,3.442-.932,5.049a4.872,4.872,0,0,1-1.95,2.108,1.76,1.76,0,0,0-.969,1.24c-.4,2.48-.843,4.954-1.229,7.437-.2,1.272-.762,1.94-1.748,1.908q-1.42-.046-1.581-1.907c.464-2.952.928-5.9,1.362-8.665L41.418,91.535a4.6,4.6,0,0,1-4.284,2.02l-.054-.007a13.624,13.624,0,0,1-2.31-1.483c-5.519-5.348-10.988-10.743-16.489-16.109a2.172,2.172,0,0,0-1.146-.643c-1.144-.118-2.3-.1-3.456-.138l-3.246-.353a2.576,2.576,0,0,1-.726-.143c-.626-.33-1.43-.574-1.787-1.1-.488-.715.013-1.463.606-2.04l4.5.263,2.821.211a8.215,8.215,0,0,1,.748-1.66,1.039,1.039,0,0,0-.028-1.42A67.256,67.256,0,0,1,9.2,54.674,72.6,72.6,0,0,1,5.195,39.75c-.31-2.085-.616-4.17-.937-6.349H1.528L0,32.341V31.063m49.525,56.2c-.67-.329-1.327-.688-2.017-.971a.9.9,0,0,0-.764.071c-.921.769-1.8,1.587-2.863,2.543l2.8,1.3c3.255,1.247,6.483,2.564,9.771,3.72,3.074,1.081,3.084,1,3.8-2.087.133-.577.022-.816-.552-1.014-3.4-1.168-6.784-2.373-10.174-3.565M96.669,51.015l-7.048-4.3a10.179,10.179,0,0,0,.6,10.9C91.585,59.3,93,60.958,94.386,62.627A15.078,15.078,0,0,1,97.037,69.6a50.04,50.04,0,0,0,4.5-3.476,4.527,4.527,0,0,0,1.286-2.677,61.72,61.72,0,0,0,.037-6.791,3.554,3.554,0,0,0-1.75-3.02c-1.462-.9-2.96-1.749-4.443-2.62M31.7,42.986c1.118.013,2.237.069,3.353.028a2.849,2.849,0,0,0,2.905-2.84q.087-4.938,0-9.878a2.881,2.881,0,0,0-3.008-2.857c-1.082-.023-2.165.018-3.247.031-1.154-.011-2.309-.06-3.462-.025a2.781,2.781,0,0,0-2.859,2.744q-.081,5.042,0,10.086A2.744,2.744,0,0,0,28.133,43c1.187.054,2.378-.008,3.568-.018M19.474,67.452c.6-.641,1.073-1.177,1.579-1.681,1.234-1.228,1.225-1.213.344-2.65A68.114,68.114,0,0,1,11.734,33.87c-.217-2.172-.151-2.178-2.378-2.207-1.853-.024-1.87-.022-1.709,1.758A74.741,74.741,0,0,0,12.5,54.156a67.948,67.948,0,0,0,6.972,13.3" transform="translate(-0.158 -7.08)" fill="#030302"/>
      <path id="Trazado_258297" data-name="Trazado 258297" d="M87.634,69.8c1.38,0,2-.405,2.149-1.7.241-2.092.346-4.2.531-6.593a12.34,12.34,0,0,1,2.527-.134c2.823.363,5.635.82,8.44,1.3a4.183,4.183,0,0,1,3.134,2.371,67.9,67.9,0,0,0,3.68,6.709c1.355,2.03,3.608,3.147,5.778,4.192.54.26,1.442-.2,2.178-.335l3.748,2.048a1.667,1.667,0,0,0,.816,2.417c.846.535,1.714,1.037,2.525,1.524-.941,3.532-2.06,6.851-4.808,9.482a16.282,16.282,0,0,1-10.689,4.521c-2.838.167-5.694.019-8.543.013-1.221,0-1.663.346-1.945,1.525l-4.531-.225c-.275-1.276-.761-1.714-2.072-1.673-5.992.189-11.479,1.691-15.9,5.944-.384.37-.835.674-1.352,1.086-.489-.458-.981-.905-1.457-1.368-1.207-1.175-2.4-2.365-3.612-3.533a3.8,3.8,0,0,0-5.431-.033c-.5.461-.955.96-1.541,1.554a65.885,65.885,0,0,1-9.723-28.828h7.1c.014.171.064.5.065.833.008,1.809.067,3.621-.014,5.427a6.455,6.455,0,0,0,1.569,4.618c0,.745-.017,1.491.007,2.235a4.374,4.374,0,0,0,3.845,4.328,55.843,55.843,0,0,0,7.458.2,4.4,4.4,0,0,0,4.456-3.5,18.294,18.294,0,0,0,.072-3.075,7.672,7.672,0,0,0,1.753-6.043c-.035-.457.007-.919.013-1.379,1.174.139,2.344.341,3.523.4A5.822,5.822,0,0,0,87.634,69.8m15.195,8.252c-.007-.106-.006-.213-.021-.318-.334-2.3-2.938-4.306-5.509-4.235-2.589.072-5.072,2.187-5.28,4.512-.018.2-.017.5.106.6a3.985,3.985,0,0,0,1.46,1.03c.845.192,1.409-.34,1.658-1.169a2.21,2.21,0,0,1,2.18-1.753,2.1,2.1,0,0,1,2.185,1.708,1.923,1.923,0,0,0,.171.39,1.552,1.552,0,0,0,1.911.82,1.427,1.427,0,0,0,1.14-1.59" transform="translate(-36.743 -43.756)" fill="#3f5858"/>
      <path id="Trazado_258298" data-name="Trazado 258298" d="M248.821,285.007c-3.9-5.659-3.559-10.538.776-14.18a10.237,10.237,0,0,1,14.672,1.788c3.914-4.31,8.478-5.885,13.79-2.593,3.893,2.413,4.977,6.386,3.6,12.145.587,0,1.145-.029,1.7.006a1.576,1.576,0,0,1,.071,3.152,21.841,21.841,0,0,1-3.035.013,2.318,2.318,0,0,0-1.965.829q-5.262,5.369-10.581,10.684c-2.259,2.267-4.857,2.277-7.108.026-2.633-2.633-5.264-5.269-7.856-7.94a2.153,2.153,0,0,0-1.774-.752c-1.481.053-2.965.028-4.448.011-1.144-.013-1.881-.678-1.856-1.63a1.653,1.653,0,0,1,1.825-1.558c.707-.017,1.415,0,2.188,0m12.665,7.943c.511.547,1.006,1.11,1.536,1.638.977.975,1.551.973,2.538-.018q4.321-4.337,8.625-8.69c.112-.113.2-.251.4-.517-1.687,0-3.2.054-4.7-.019-.985-.048-1.618.154-1.911,1.19a16.584,16.584,0,0,1-1.03,2.335c-.67,1.454-1.368,1.707-2.814,1.025l-1.963-5.489c-1.422,1.851-1.932,4.729-5.421,3.664l.071.363,4.67,4.517m10.666-10.856c1.729.025,3.457.069,5.185.053a1.065,1.065,0,0,0,.75-.459,6.362,6.362,0,0,0,.154-6.851,6.04,6.04,0,0,0-6.08-3.234,5.781,5.781,0,0,0-4.045,1.777c-.86.811-1.653,1.691-2.506,2.51a1.665,1.665,0,0,1-2.646-.01c-.878-.845-1.685-1.765-2.6-2.566a6.2,6.2,0,0,0-6.771-1.138,6.322,6.322,0,0,0-4.255,5.562,6.986,6.986,0,0,0,2.078,5.187c1.316,1.55,2.777,2.49,4.906,2.088.279-.053.6.066.861-.024a2.246,2.246,0,0,0,1.091-.611c.947-1.382,1.819-2.814,2.7-4.238.481-.778.951-1.556,2.071-1.391,1.065.157,1.295.993,1.53,1.836.289,1.033.612,2.058.92,3.086.552-1.577,1.8-1.54,3.087-1.515,1.19.023,2.382-.038,3.574-.062" transform="translate(-173.942 -191.815)" fill="#040302"/>
      <path id="Trazado_258299" data-name="Trazado 258299" d="M5.268,92.054H8c.322,2.178.628,4.264.938,6.349a72.59,72.59,0,0,0,4.009,14.924,67.256,67.256,0,0,0,7.359,14.26,1.039,1.039,0,0,1,.028,1.42,8.213,8.213,0,0,0-.748,1.66l-2.821-.211c-.864-1.51-1.754-3.005-2.588-4.53a67.331,67.331,0,0,1-6.409-16.069c-.881-3.549-1.389-7.187-2.084-10.782-.044-.227-.264-.421-.4-.63q-.005-3.2-.01-6.39" transform="translate(-3.898 -65.733)" fill="#374747"/>
      <path id="Trazado_258300" data-name="Trazado 258300" d="M35.963,237.664l3.246.353c-.637,1.4-.575,2.055.351,2.964q8.861,8.7,17.735,17.386a2.242,2.242,0,0,0,3.356,0c.67-.642,1.308-1.317,1.96-1.978l.054.007c.115.126.206.3.35.371,1.936.934,3.854,1.911,5.83,2.759,1.673.718,3.159,1.593,3.3,3.549a17.212,17.212,0,0,1-.368,3.237c-1.69-.585-3.418-1.081-5.062-1.771A66.572,66.572,0,0,1,51.642,255.9a56.7,56.7,0,0,1-10.213-10.008c-1.739-2.24-3.253-4.649-4.849-7a9.948,9.948,0,0,1-.617-1.23" transform="translate(-25.687 -169.922)" fill="#fef1e2"/>
      <path id="Trazado_258301" data-name="Trazado 258301" d="M137.1,308.355a17.212,17.212,0,0,0,.367-3.237c-.136-1.955-1.622-2.83-3.295-3.549-1.975-.848-3.893-1.825-5.83-2.759-.144-.069-.235-.245-.35-.371a4.6,4.6,0,0,0,4.284-2.02l15.039,6.032-1.362,8.665c-2.506-.711-5.016-1.409-7.516-2.142a9.615,9.615,0,0,1-1.338-.619" transform="translate(-91.02 -211.964)" fill="#fbe5c7"/>
      <path id="Trazado_258302" data-name="Trazado 258302" d="M5.21,114.518c.138.209.358.4.4.63.7,3.594,1.2,7.233,2.084,10.782A67.333,67.333,0,0,0,14.106,142c.834,1.525,1.724,3.021,2.588,4.53l-4.5-.263c-.765-1.9-1.574-3.794-2.287-5.717a79.031,79.031,0,0,1-4.738-25.5,5.136,5.136,0,0,1,.037-.528" transform="translate(-3.829 -81.807)" fill="#415a5a"/>
      <path id="Trazado_258303" data-name="Trazado 258303" d="M151.622,173.793l4.531.225a1.551,1.551,0,0,0,1.532,1.626c4.434.3,8.876.593,13.262-.451a17.651,17.651,0,0,0,9.648-5.907c.111-.132.234-.253.475-.511.764,3.418,3.316,5.562,5.281,8.089.326.419.619.863.927,1.295a24.291,24.291,0,0,1-2.112,1.769,19.62,19.62,0,0,1-4.468,2.688,34.566,34.566,0,0,1-6.554,1.155,39.171,39.171,0,0,0-15.146,4.6,34.382,34.382,0,0,0-9.013,7.51c-.722.845-1.541,1.61-2.315,2.412l-2.229-.9a18.034,18.034,0,0,0,.821-3.286c.074-1.252-.876-2.109-1.751-2.93-.836-.784-1.662-1.582-2.453-2.41a1.875,1.875,0,0,0-2.424-.482l-3.281-3.039a1.765,1.765,0,0,0-.411-2.466c-.434-.373-.844-.773-1.292-1.187a18.341,18.341,0,0,1,11.131-5.877c1.286-.171,2.584-.289,3.88-.343a1.781,1.781,0,0,0,1.961-1.571" transform="translate(-95.744 -120.63)" fill="#fdf0e1"/>
      <path id="Trazado_258304" data-name="Trazado 258304" d="M179.533,221.894c.774-.8,1.593-1.567,2.315-2.413a34.366,34.366,0,0,1,9.013-7.51,39.172,39.172,0,0,1,15.145-4.6,34.553,34.553,0,0,0,6.554-1.155,19.616,19.616,0,0,0,4.468-2.688,24.28,24.28,0,0,0,2.112-1.769,10.451,10.451,0,0,1,2.156,6.743c.025.771-.576.721-1.021.8-2.986.511-5.978.988-8.968,1.479A33.335,33.335,0,0,0,189.168,224.2c-.481.646-.848.866-1.644.567-2.649-.995-5.325-1.92-7.991-2.871" transform="translate(-127.605 -144.235)" fill="#fce5c7"/>
      <path id="Trazado_258305" data-name="Trazado 258305" d="M88.139,204.379l3.281,3.039c-.908,1.088-.9,1.56.042,2.743a2.57,2.57,0,0,1-.373.854c-1.769,1.739-3.567,3.449-5.357,5.167-1.878-.453-2.813.471-2.3,2.277l-1.749,1.3q-7.305-7.131-14.617-14.253c-.487-.473-.409-.789.04-1.226q4.28-4.158,8.516-8.358c.536-.534.882-.519,1.411.009,2.767,2.755,5.564,5.481,8.358,8.211.988.966,1.581,1.007,2.75.239m-11.188-4.418a6.712,6.712,0,0,0-1.331,1.2c-.44.7-.105,1.357.452,1.9q4.027,3.948,8.056,7.894a1.641,1.641,0,0,0,2.485.173,1.579,1.579,0,0,0-.191-2.435q-4.012-3.963-8.064-7.886a7.981,7.981,0,0,0-1.408-.846M81.278,215.7a1.6,1.6,0,1,0-.009-3.193,1.57,1.57,0,0,0-1.578,1.541,1.6,1.6,0,0,0,1.587,1.652" transform="translate(-47.529 -139.771)" fill="#a7d0d5"/>
      <path id="Trazado_258306" data-name="Trazado 258306" d="M116.388,44.839c-.006-2.022-.008-4.043-.021-6.065a6.154,6.154,0,0,0-6.438-6.293c-1.013,0-2.031.051-3.036-.032-.319-.026-.832-.378-.875-.64a13.27,13.27,0,0,1,1.2-8.365,3.243,3.243,0,0,1,3.071-1.841c.65.006,1.3.043,1.95.066a3.52,3.52,0,0,0,.645.662,14.88,14.88,0,0,1,5.515,5.7,15.166,15.166,0,0,1,.421,14.928,2.954,2.954,0,0,1-2.436,1.88" transform="translate(-75.273 -15.322)" fill="#3f5858"/>
      <path id="Trazado_258307" data-name="Trazado 258307" d="M38.032,121.723a67.948,67.948,0,0,1-6.972-13.3,74.741,74.741,0,0,1-4.856-20.734c-.16-1.78-.143-1.782,1.709-1.758,2.227.028,2.161.035,2.378,2.207a68.114,68.114,0,0,0,9.663,29.251c.881,1.436.889,1.422-.344,2.65-.506.5-.979,1.04-1.579,1.681" transform="translate(-18.716 -61.351)" fill="#a3314f"/>
      <path id="Trazado_258308" data-name="Trazado 258308" d="M69.521,257.277c-.652.66-1.29,1.336-1.96,1.978a2.242,2.242,0,0,1-3.356,0q-8.877-8.684-17.735-17.386c-.926-.909-.988-1.559-.351-2.964,1.153.036,2.311.02,3.456.138a2.166,2.166,0,0,1,1.146.643c5.5,5.365,10.971,10.761,16.489,16.108a13.614,13.614,0,0,0,2.31,1.483" transform="translate(-32.599 -170.81)" fill="#fce5c7"/>
      <path id="Trazado_258309" data-name="Trazado 258309" d="M132.12,45.005a2.955,2.955,0,0,0,2.436-1.88,15.166,15.166,0,0,0-.421-14.928,14.879,14.879,0,0,0-5.515-5.7,3.521,3.521,0,0,1-.645-.662,14.055,14.055,0,0,1,8.582,3.834,14.352,14.352,0,0,1,4.64,10.724,12.981,12.981,0,0,1-.334,2.725,1.96,1.96,0,0,0,1.033,2.415,5.822,5.822,0,0,1-6.252,4.306c-1.178-.062-2.349-.264-3.523-.4q0-.216,0-.432" transform="translate(-91.005 -15.488)" fill="#374747"/>
      <path id="Trazado_258310" data-name="Trazado 258310" d="M93.71,86.623c-1.189.01-2.382.073-3.568.018a2.744,2.744,0,0,1-2.751-2.73q-.076-5.042,0-10.086a2.781,2.781,0,0,1,2.86-2.744c1.153-.035,2.308.014,3.462.025a7.159,7.159,0,0,1,1.08,4.145c-.01,2.412,0,4.825,0,7.237a6.772,6.772,0,0,1-1.078,4.135" transform="translate(-62.168 -50.717)" fill="#fbc06c"/>
      <path id="Trazado_258311" data-name="Trazado 258311" d="M327.621,153.973c1.483.871,2.981,1.718,4.443,2.62a3.554,3.554,0,0,1,1.75,3.02,61.79,61.79,0,0,1-.037,6.791,4.525,4.525,0,0,1-1.286,2.677,50.012,50.012,0,0,1-4.5,3.476,15.082,15.082,0,0,0-2.65-6.971,12.462,12.462,0,0,0,1.864-2.374,12.5,12.5,0,0,0,.6-2.965,1.693,1.693,0,0,0,1.5-1.46,1.719,1.719,0,0,0-1.138-1.757,7.268,7.268,0,0,1-.616-.412q.037-1.323.074-2.645" transform="translate(-231.109 -110.038)" fill="#f7926b"/>
      <path id="Trazado_258312" data-name="Trazado 258312" d="M312.961,149.435a12.511,12.511,0,0,1-.6,2.965,12.453,12.453,0,0,1-1.864,2.374c-1.391-1.67-2.8-3.324-4.168-5.013a10.179,10.179,0,0,1-.6-10.9l7.048,4.3q-.037,1.323-.074,2.645a8.106,8.106,0,0,0-1.078-.458,1.547,1.547,0,0,0-1.916.78,1.338,1.338,0,0,0,.394,1.889,26.78,26.78,0,0,0,2.851,1.417" transform="translate(-216.273 -99.227)" fill="#f8a98b"/>
      <path id="Trazado_258313" data-name="Trazado 258313" d="M109.268,86.622a6.772,6.772,0,0,0,1.078-4.135c.008-2.412-.005-4.825,0-7.237a7.159,7.159,0,0,0-1.08-4.145c1.082-.013,2.165-.054,3.247-.031a2.881,2.881,0,0,1,3.008,2.857q.09,4.938,0,9.878a2.849,2.849,0,0,1-2.905,2.84c-1.116.041-2.235-.015-3.353-.028" transform="translate(-77.725 -50.716)" fill="#f9a42f"/>
      <path id="Trazado_258314" data-name="Trazado 258314" d="M97.407,130.445a18.3,18.3,0,0,1-.072,3.075,4.4,4.4,0,0,1-4.456,3.5,55.792,55.792,0,0,1-7.458-.2,4.374,4.374,0,0,1-3.845-4.328c-.024-.744-.006-1.49-.007-2.235a6.9,6.9,0,0,0,5.6,1.952,50.867,50.867,0,0,1,5.195,0,6.837,6.837,0,0,0,5.041-1.768" transform="translate(-58.058 -93.074)" fill="#374747"/>
      <path id="Trazado_258315" data-name="Trazado 258315" d="M122.313,252.993c1.789-1.718,3.588-3.429,5.357-5.167a2.571,2.571,0,0,0,.373-.854c1,.961,1.995,1.931,3.009,2.88.45.42.376.758-.032,1.156q-4.331,4.226-8.642,8.472c-.4.4-.749.483-1.18.039-.967-.995-1.957-1.968-2.937-2.951l1.749-1.3c.961.849,1.86.957,2.561.307.735-.682.643-1.609-.259-2.583" transform="translate(-84.109 -176.583)" fill="#8eb7c1"/>
      <path id="Trazado_258316" data-name="Trazado 258316" d="M163.75,281.391c3.39,1.192,6.775,2.4,10.174,3.565.574.2.685.437.552,1.014-.714,3.088-.724,3.167-3.8,2.087-3.288-1.156-6.516-2.473-9.771-3.72l2.843-2.946" transform="translate(-114.383 -201.211)" fill="#a3314f"/>
      <path id="Trazado_258317" data-name="Trazado 258317" d="M156.9,278.817l-2.843,2.946-2.8-1.3c1.064-.956,1.942-1.775,2.863-2.543a.9.9,0,0,1,.764-.071c.69.283,1.347.641,2.017.971" transform="translate(-107.529 -198.637)" fill="#b55a72"/>
      <path id="Trazado_258318" data-name="Trazado 258318" d="M201.861,108.633a1.428,1.428,0,0,1-1.14,1.588,1.552,1.552,0,0,1-1.911-.82,1.917,1.917,0,0,1-.171-.39,2.1,2.1,0,0,0-2.185-1.708,2.21,2.21,0,0,0-2.18,1.753c-.249.829-.813,1.361-1.658,1.169a3.987,3.987,0,0,1-1.46-1.03c-.123-.106-.124-.4-.106-.6.209-2.325,2.691-4.441,5.28-4.512,2.57-.071,5.175,1.93,5.509,4.235.015.1.015.212.023.319" transform="translate(-135.775 -74.335)" fill="#010202"/>
      <path id="Trazado_258319" data-name="Trazado 258319" d="M283.187,290.508c-1.192.024-2.384.085-3.574.062-1.285-.025-2.535-.062-3.087,1.515-.308-1.028-.632-2.053-.92-3.086-.236-.843-.465-1.679-1.53-1.836-1.12-.165-1.589.613-2.071,1.391-.88,1.425-1.753,2.856-2.7,4.238a2.246,2.246,0,0,1-1.091.611c-.256.091-.582-.028-.861.024-2.129.4-3.59-.538-4.906-2.088a6.986,6.986,0,0,1-2.078-5.187,6.322,6.322,0,0,1,4.255-5.562,6.2,6.2,0,0,1,6.771,1.138c.917.8,1.724,1.721,2.6,2.566a1.665,1.665,0,0,0,2.646.01c.853-.819,1.646-1.7,2.506-2.51a5.781,5.781,0,0,1,4.045-1.777c2.322,3.5,2.516,7-.009,10.491" transform="translate(-184.977 -200.228)" fill="#b55a72"/>
      <path id="Trazado_258320" data-name="Trazado 258320" d="M339.063,290.444c2.525-3.495,2.331-6.992.009-10.491a6.04,6.04,0,0,1,6.08,3.234,6.362,6.362,0,0,1-.153,6.851,1.064,1.064,0,0,1-.75.459c-1.728.016-3.456-.028-5.185-.053" transform="translate(-240.853 -200.165)" fill="#a3314f"/>
      <path id="Trazado_258321" data-name="Trazado 258321" d="M304.941,332.856c1.446.682,2.144.429,2.814-1.025a16.544,16.544,0,0,0,1.03-2.336c.293-1.037.925-1.238,1.911-1.19,1.505.073,3.017.019,4.7.019-.2.266-.29.4-.4.517q-4.309,4.348-8.625,8.69c-.987.991-1.56.993-2.538.018-.53-.529-1.025-1.091-1.536-1.638.348-.389.7-.774,1.042-1.169.538-.625,1.068-1.256,1.6-1.885" transform="translate(-214.755 -234.775)" fill="#a3314f"/>
      <path id="Trazado_258322" data-name="Trazado 258322" d="M293.34,330.512c-.533.629-1.063,1.261-1.6,1.885-.34.4-.694.78-1.042,1.169l-4.67-4.517-.071-.363c3.49,1.066,4-1.812,5.421-3.663l1.962,5.489" transform="translate(-203.153 -232.431)" fill="#b55a72"/>
      <path id="Trazado_258323" data-name="Trazado 258323" d="M98.207,211.114a8,8,0,0,1,1.408.846q4.058,3.917,8.064,7.886a1.579,1.579,0,0,1,.191,2.435,1.642,1.642,0,0,1-2.485-.173q-4.041-3.934-8.056-7.894c-.557-.546-.892-1.206-.452-1.9a6.72,6.72,0,0,1,1.331-1.2" transform="translate(-68.785 -150.925)" fill="#020303"/>
      <path id="Trazado_258324" data-name="Trazado 258324" d="M112.987,258.423a1.6,1.6,0,0,1-1.587-1.652,1.57,1.57,0,0,1,1.578-1.541,1.6,1.6,0,1,1,.009,3.193" transform="translate(-79.238 -182.491)" fill="#060707"/>
      <path id="Trazado_258325" data-name="Trazado 258325" d="M126.255,267.852c.9.974.994,1.9.259,2.583-.7.65-1.6.542-2.561-.307-.511-1.805.424-2.73,2.3-2.277" transform="translate(-88.052 -191.442)" fill="#060707"/>
      <path id="Trazado_258326" data-name="Trazado 258326" d="M325.33,165.553a26.785,26.785,0,0,1-2.851-1.417,1.338,1.338,0,0,1-.394-1.889,1.547,1.547,0,0,1,1.916-.78,8.093,8.093,0,0,1,1.078.458,7.262,7.262,0,0,0,.616.412,1.719,1.719,0,0,1,1.138,1.757,1.693,1.693,0,0,1-1.5,1.46" transform="translate(-228.641 -115.344)" fill="#050303"/>
    </g>
  </g>
</svg>
