<svg xmlns="http://www.w3.org/2000/svg" width="73.045" height="73.055" viewBox="0 0 73.045 73.055">
  <g id="Grupo_167861" data-name="Grupo 167861" transform="translate(0 -0.569)">
    <g id="Grupo_167257" data-name="Grupo 167257" transform="translate(0 0.569)">
      <path id="Trazado_256980" data-name="Trazado 256980" d="M0,28.126c.29-.362.51-.858.886-1.055a7.739,7.739,0,0,1,1.86-.541,4,4,0,0,1,.83-.009A17.74,17.74,0,0,1,19.947,10.078a8.3,8.3,0,0,1,.279-.968A2.146,2.146,0,0,1,22.12,7.7c.686-.054,1.377-.034,2.066-.035,1.875,0,2.561.547,2.982,2.4a17.647,17.647,0,0,1,7.573,2.309,19.978,19.978,0,0,1,13.518-11.2A19.377,19.377,0,0,1,62.413,2.952a19.988,19.988,0,0,1,9.34,24.688A20.037,20.037,0,0,1,44.776,38.866v.778c0,1.949.028,3.9-.007,5.847a18.108,18.108,0,0,0,1.8,7.976,5.825,5.825,0,0,1-2.9,7.8,17.944,17.944,0,0,1-2.846.75c.093.584.21,1.3.319,2.016.295,1.949-.091,3.593-2.014,4.58-.146.075-.223.372-.247.576a14.659,14.659,0,0,1-.182,1.9,3.626,3.626,0,0,1-2.757,2.533H10.984c-.183-.092-.363-.189-.548-.274a3.449,3.449,0,0,1-2.177-3.217c-.012-.356.027-.715-.016-1.066a.7.7,0,0,0-.278-.48,3.681,3.681,0,0,1-2.038-4.08c.105-.878.245-1.752.371-2.644-.146-.013-.239-.024-.332-.029A5.914,5.914,0,0,1,.192,57.421,1.951,1.951,0,0,0,0,57.08V54.8c.355-.837.716-1.671,1.064-2.511A14.6,14.6,0,0,0,2.3,46.848c.048-4.34.038-8.681.05-13.022a1,1,0,0,0-.042-.2C1.137,33.369,1.137,33.369,0,31.977V28.126M53.019,2.968A17.657,17.657,0,1,0,70.668,20.648,17.664,17.664,0,0,0,53.019,2.968M9.421,33.6v.652c0,3.256-.006,6.513,0,9.769A10.62,10.62,0,0,0,20.169,54.785c2.211.008,4.422,0,6.633,0a10.587,10.587,0,0,0,10.881-10.83c.01-3.233,0-6.465,0-9.7,0-.209-.018-.417-.029-.659Zm-4.712,0v.835c0,3.47-.046,6.941.013,10.411a20.477,20.477,0,0,1-2,9.519,3.406,3.406,0,0,0,.013,3.1,3.65,3.65,0,0,0,3.334,2.055,1.729,1.729,0,0,0,1.815-.945,20.4,20.4,0,0,1,2.465-2.923,13.979,13.979,0,0,1,1.528-1.251c-.807-.911-1.634-1.734-2.333-2.655a13.114,13.114,0,0,1-2.505-8.226q.008-4.564,0-9.127c0-.252-.022-.5-.036-.789ZM40.07,35.955v.78c0,2.469.018,4.939-.006,7.408a12.616,12.616,0,0,1-2.73,7.921c-.642.811-1.395,1.533-2.108,2.308a.609.609,0,0,0,.122.157,12.972,12.972,0,0,1,4.309,4.657.593.593,0,0,0,.418.3,9.94,9.94,0,0,0,2.447-.293,3.545,3.545,0,0,0,1.772-5.1,18.988,18.988,0,0,1-1.908-8.67q.011-3.633-.007-7.265a1.006,1.006,0,0,0-.2-.7c-.641-.512-1.333-.959-2.106-1.5m-20.1-23.489c-8.749.647-13.962,8.39-13.9,14.016h4.52v-.811c0-2.02-.013-4.039,0-6.059A2.348,2.348,0,0,1,13.082,17.1q1.069-.022,2.139,0a2.344,2.344,0,0,1,2.455,2.471c.014,1.164,0,2.329,0,3.493v3.424h2.3ZM36.007,31.209c-.345-.643-.674-1.168-.914-1.73a.923.923,0,0,0-1.008-.638q-15.463.029-30.926.014H2.4v2.353ZM33.288,17.1c.171-.711.294-1.34.479-1.95.118-.388.057-.623-.325-.788a29.46,29.46,0,0,0-2.733-1.185c-1.153-.363-2.356-.565-3.572-.844V26.464h2.308V25.7c0-2-.009-3.992,0-5.989a2.367,2.367,0,0,1,2.6-2.617c.4-.005.8,0,1.244,0m-8.615-7.041H22.425V26.488h2.249Zm9.538,46.551v9.937c1.216,0,2.377.03,3.535-.011a1.071,1.071,0,0,0,1.114-1.147,10.562,10.562,0,0,0-4.649-8.779m-21.3,9.931V56.685a10.386,10.386,0,0,0-4.654,8.694,1.091,1.091,0,0,0,1.107,1.149c1.16.036,2.322.01,3.547.01m10.65-5.076,4.946-4.337H18.6l4.962,4.337M13.018,26.48h2.245V19.468H13.018Zm2.319,40.008h7.008V64.246H15.338Zm16.438-2.238H24.767v2.257h7.009ZM22.359,68.97H15.348v2.242h7.011Zm2.419,2.242h6.98V68.943h-6.98Zm-4.392-9.4-5.028-4.392v4.392ZM31.761,61.8V57.416L26.756,61.8Zm1.892-35.31-.841-7.012h-.968v7.012Zm2.807,42.457H34.194v2.238c1.94.327,2.5-.229,2.265-2.238m-23.513-.03H10.652c-.226,2.042.4,2.638,2.295,2.259Z" transform="translate(0 -0.569)" fill="#030302"/>
      <path id="Trazado_256983" data-name="Trazado 256983" d="M203.205,13.156A17.657,17.657,0,1,1,185.537,30.82a17.648,17.648,0,0,1,17.669-17.664M198.5,26.083c-1.586,0-3.081-.02-4.576,0a3.527,3.527,0,0,0-3.669,3.692q-.01,1.034,0,2.067a3.486,3.486,0,0,0,3.679,3.659c1.141.011,2.282,0,3.423,0H198.5c0,1.693-.034,3.26.009,4.825a3.446,3.446,0,0,0,3.479,3.416c.832.013,1.664.016,2.5,0a3.427,3.427,0,0,0,3.262-2.513,7.152,7.152,0,0,0,.168-1.692c.023-1.322.007-2.645.007-4.034h.786c1.331,0,2.663.024,3.993-.009a3.429,3.429,0,0,0,3.423-3.321,27.021,27.021,0,0,0-.009-2.85,3.406,3.406,0,0,0-2.543-3.089,6.5,6.5,0,0,0-1.483-.15c-1.37-.019-2.74-.007-4.051-.007-.07-.106-.093-.125-.094-.144-.009-1.473,0-2.946-.028-4.419a3.527,3.527,0,0,0-3.636-3.656c-.641-.017-1.283-.007-1.925,0A3.526,3.526,0,0,0,198.5,21.7c-.006,1.422,0,2.845,0,4.38" transform="translate(-150.186 -10.758)" fill="#ffb500"/>
      <path id="Trazado_256984" data-name="Trazado 256984" d="M49.433,173.929H77.667c.011.242.029.45.029.658,0,3.233.009,6.465,0,9.7a10.587,10.587,0,0,1-10.881,10.83c-2.211,0-4.422.007-6.633,0A10.62,10.62,0,0,1,49.435,184.35c-.008-3.256,0-6.513,0-9.769v-.652m6.818,11.792c.434,4.079,3.374,6.935,7.167,7.012,3.943.08,6.886-2.667,7.487-7.012Zm11.967-4.75c.414-1.611,1.235-2.386,2.462-2.359s2.045.835,2.361,2.32h2.332a4.672,4.672,0,0,0-2.765-4.215,4.461,4.461,0,0,0-4.878.576,4.306,4.306,0,0,0-1.757,3.679Zm-7.041,0a4.653,4.653,0,0,0-5.161-4.673c-2.347.175-4.423,2.512-4.119,4.668h2.182c.41-1.585,1.209-2.355,2.431-2.352s2.017.777,2.427,2.357Z" transform="translate(-40.013 -140.899)" fill="#edceb2"/>
      <path id="Trazado_256985" data-name="Trazado 256985" d="M14.707,173.915H17c.014.285.036.537.036.789q0,4.564,0,9.127a13.115,13.115,0,0,0,2.505,8.226c.7.921,1.526,1.745,2.333,2.655a13.918,13.918,0,0,0-1.528,1.251,20.381,20.381,0,0,0-2.465,2.924,1.729,1.729,0,0,1-1.815.945,3.65,3.65,0,0,1-3.334-2.055,3.406,3.406,0,0,1-.013-3.1,20.477,20.477,0,0,0,2-9.519c-.059-3.469-.013-6.94-.013-10.41Z" transform="translate(-9.999 -140.888)" fill="#636b76"/>
      <path id="Trazado_256986" data-name="Trazado 256986" d="M189.732,186.291c.773.541,1.465.989,2.106,1.5a1,1,0,0,1,.2.7q.021,3.633.007,7.266a18.989,18.989,0,0,0,1.908,8.67,3.545,3.545,0,0,1-1.772,5.1,9.93,9.93,0,0,1-2.447.294.594.594,0,0,1-.418-.3,12.97,12.97,0,0,0-4.309-4.657.614.614,0,0,1-.122-.157c.713-.775,1.467-1.5,2.108-2.308a12.615,12.615,0,0,0,2.73-7.921c.023-2.469.005-4.939.006-7.408v-.779" transform="translate(-149.661 -150.906)" fill="#646c77"/>
      <path id="Trazado_256987" data-name="Trazado 256987" d="M45.765,63.007V77.03h-2.3V73.606c0-1.164.011-2.329,0-3.493a2.343,2.343,0,0,0-2.454-2.471q-1.069-.025-2.139,0a2.348,2.348,0,0,0-2.487,2.513c-.017,2.02,0,4.039,0,6.059v.811h-4.52c-.059-5.627,5.155-13.369,13.9-14.016" transform="translate(-25.79 -51.111)" fill="#fbe6a4"/>
      <path id="Trazado_256988" data-name="Trazado 256988" d="M46.2,151.322H12.6v-2.353h.759q15.463,0,30.926-.014a.923.923,0,0,1,1.008.638c.239.563.569,1.087.914,1.73" transform="translate(-10.197 -120.682)" fill="#f4d06c"/>
      <path id="Trazado_256989" data-name="Trazado 256989" d="M148.579,67.056c-.442,0-.843,0-1.244,0a2.367,2.367,0,0,0-2.6,2.617c-.012,2,0,3.993,0,5.989v.762h-2.308V62.289c1.216.28,2.42.482,3.572.844a29.483,29.483,0,0,1,2.734,1.185c.382.164.443.4.325.788-.186.61-.308,1.24-.479,1.95" transform="translate(-115.29 -50.53)" fill="#fce7a5"/>
      <rect id="Rectángulo_52860" data-name="Rectángulo 52860" width="2.249" height="16.433" transform="translate(22.425 9.485)" fill="#fad56f"/>
      <path id="Trazado_256990" data-name="Trazado 256990" d="M179.562,294.681a10.562,10.562,0,0,1,4.649,8.779,1.071,1.071,0,0,1-1.114,1.147c-1.158.041-2.318.011-3.535.011Z" transform="translate(-145.35 -238.644)" fill="#afd77b"/>
      <path id="Trazado_256991" data-name="Trazado 256991" d="M47.966,304.944c-1.225,0-2.386.026-3.547-.01a1.091,1.091,0,0,1-1.107-1.149,10.386,10.386,0,0,1,4.654-8.693Z" transform="translate(-35.051 -238.977)" fill="#b1d97d"/>
      <path id="Trazado_256992" data-name="Trazado 256992" d="M102.6,301.734,97.637,297.4h9.908l-4.946,4.337" transform="translate(-79.034 -240.843)" fill="#e7c8ad"/>
      <rect id="Rectángulo_52861" data-name="Rectángulo 52861" width="2.245" height="7.012" transform="translate(13.018 18.898)" fill="#f9d46f"/>
      <rect id="Rectángulo_52862" data-name="Rectángulo 52862" width="7.008" height="2.243" transform="translate(15.338 63.676)" fill="#9ed167"/>
      <rect id="Rectángulo_52863" data-name="Rectángulo 52863" width="7.009" height="2.257" transform="translate(24.767 63.681)" fill="#9ed167"/>
      <rect id="Rectángulo_52864" data-name="Rectángulo 52864" width="7.011" height="2.242" transform="translate(15.348 68.4)" fill="#b2da7d"/>
      <rect id="Rectángulo_52865" data-name="Rectángulo 52865" width="6.98" height="2.269" transform="translate(24.777 68.373)" fill="#b2da7d"/>
      <path id="Trazado_256993" data-name="Trazado 256993" d="M85.628,303.325H80.6v-4.391l5.028,4.391" transform="translate(-65.243 -242.087)" fill="#aed67b"/>
      <path id="Trazado_256994" data-name="Trazado 256994" d="M145.434,303.314h-5l5-4.383Z" transform="translate(-113.673 -242.084)" fill="#b1d97d"/>
      <path id="Trazado_256995" data-name="Trazado 256995" d="M168.94,106.818h-1.809V99.806h.968l.841,7.012" transform="translate(-135.288 -80.899)" fill="#f5d16d"/>
      <path id="Trazado_256996" data-name="Trazado 256996" d="M181.735,359.45c.235,2.01-.325,2.565-2.265,2.238V359.45Z" transform="translate(-145.276 -291.073)" fill="#e7c8ad"/>
      <path id="Trazado_256997" data-name="Trazado 256997" d="M58.011,359.292v2.259c-1.9.379-2.521-.217-2.295-2.259h2.295Z" transform="translate(-45.065 -290.945)" fill="#e9caaf"/>
      <path id="Trazado_256998" data-name="Trazado 256998" d="M218.508,46.044c0-1.535-.005-2.957,0-4.38a3.526,3.526,0,0,1,3.86-3.843c.642,0,1.284-.014,1.925,0a3.527,3.527,0,0,1,3.636,3.656c.028,1.473.019,2.946.028,4.419,0,.019.023.038.093.144,1.311,0,2.681-.013,4.051.007a6.489,6.489,0,0,1,1.483.15,3.405,3.405,0,0,1,2.543,3.089,27.021,27.021,0,0,1,.009,2.85,3.429,3.429,0,0,1-3.423,3.321c-1.33.034-2.662.008-3.993.009h-.786c0,1.389.015,2.711-.007,4.034a7.133,7.133,0,0,1-.168,1.692,3.427,3.427,0,0,1-3.262,2.513c-.831.019-1.664.016-2.5,0a3.446,3.446,0,0,1-3.479-3.416c-.043-1.565-.009-3.132-.009-4.825h-1.149c-1.141,0-2.282.009-3.422,0a3.485,3.485,0,0,1-3.679-3.659q-.01-1.034,0-2.067a3.527,3.527,0,0,1,3.669-3.692c1.494-.025,2.989,0,4.576,0m2.34,2.379h-.759c-2.021,0-4.042,0-6.062,0-1,0-1.415.42-1.43,1.437-.008.57,0,1.141,0,1.711.007,1.147.408,1.557,1.538,1.56,1.545,0,3.091,0,4.636,0h2.078c0,2.31,0,4.541,0,6.772,0,1.041.428,1.463,1.476,1.479.5.008,1,0,1.5,0,1.4,0,1.733-.335,1.733-1.713,0-2.157,0-4.314,0-6.539h.605c2.092,0,4.184.008,6.276,0a1.216,1.216,0,0,0,1.374-1.356c.012-.713.021-1.427,0-2.139a1.16,1.16,0,0,0-1.215-1.209c-.285-.013-.57,0-.856,0h-6.18v-.757c0-2.044.005-4.088,0-6.132a1.2,1.2,0,0,0-1.35-1.365c-.689-.011-1.379-.016-2.068,0a1.2,1.2,0,0,0-1.287,1.3c-.009.237,0,.475,0,.713v6.243" transform="translate(-170.198 -30.719)" fill="#030202"/>
      <path id="Trazado_256999" data-name="Trazado 256999" d="M85.228,235.82H99.882c-.6,4.345-3.543,7.092-7.487,7.012-3.793-.077-6.733-2.933-7.167-7.012m11.455,2.361H88.427a4.692,4.692,0,0,0,3.951,2.307,4.747,4.747,0,0,0,4.305-2.307" transform="translate(-68.99 -190.998)" fill="#020201"/>
      <path id="Trazado_257000" data-name="Trazado 257000" d="M138.492,190.8h-2.245A4.306,4.306,0,0,1,138,187.126a4.462,4.462,0,0,1,4.878-.576,4.673,4.673,0,0,1,2.765,4.215h-2.332c-.317-1.484-1.142-2.293-2.362-2.32s-2.047.748-2.462,2.359" transform="translate(-110.287 -150.733)" fill="#050403"/>
      <path id="Trazado_257001" data-name="Trazado 257001" d="M71.529,190.955h-2.24c-.41-1.579-1.212-2.353-2.427-2.357s-2.02.767-2.431,2.352H62.249c-.3-2.156,1.772-4.493,4.119-4.668a4.653,4.653,0,0,1,5.161,4.673" transform="translate(-50.365 -150.887)" fill="#050404"/>
      <path id="Trazado_257002" data-name="Trazado 257002" d="M230.762,58.383V52.14c0-.238-.007-.476,0-.713a1.2,1.2,0,0,1,1.287-1.3c.689-.018,1.379-.013,2.068,0a1.2,1.2,0,0,1,1.35,1.365c.008,2.044,0,4.088,0,6.132v.757h6.18c.285,0,.571-.009.856,0a1.16,1.16,0,0,1,1.215,1.209c.025.712.016,1.426,0,2.139a1.216,1.216,0,0,1-1.374,1.356c-2.092.011-4.184,0-6.276,0h-.605c0,2.225,0,4.382,0,6.539,0,1.378-.338,1.712-1.733,1.713-.5,0-1,.006-1.5,0-1.048-.016-1.474-.437-1.476-1.479-.005-2.231,0-4.461,0-6.772h-2.078c-1.545,0-3.09,0-4.636,0-1.13,0-1.531-.413-1.538-1.56,0-.57-.007-1.141,0-1.711.015-1.017.425-1.434,1.43-1.437,2.021-.006,4.041,0,6.062,0h.759" transform="translate(-180.112 -40.678)" fill="#fff"/>
      <path id="Trazado_257003" data-name="Trazado 257003" d="M110.274,248.213a4.747,4.747,0,0,1-4.305,2.307,4.692,4.692,0,0,1-3.951-2.307Z" transform="translate(-82.581 -201.03)" fill="#f47c69"/>
    </g>
  </g>
</svg>
