<svg xmlns="http://www.w3.org/2000/svg" width="79.667" height="71.867" viewBox="0 0 79.667 71.867">
  <g id="Grupo_167862" data-name="Grupo 167862" transform="translate(-1.508 -20.549)">
    <g id="Grupo_167263" data-name="Grupo 167263" transform="translate(1.508 20.549)">
      <path id="Trazado_257022" data-name="Trazado 257022" d="M34.134,62.766h4.731q2.98,0,5.96,0c.354,0,.677.021.673-.5-.017-2.406-.012-4.811-.019-7.217a.422.422,0,0,0-.059-.163,6.667,6.667,0,0,1-2.118.8c-.949.011-1.074-.888-1.074-1.774H40.807c-1.934,0-3.868,0-5.8,0-1.048,0-1.5-.434-1.5-1.459q-.016-2.549,0-5.1c.006-1.022.457-1.462,1.5-1.466,2.376-.009,4.752,0,7.094,0,.067-.081.129-.122.126-.158-.134-1.59,1.238-2.12,2.446-1.155,1.426,1.139,2.968,2.136,4.485,3.156a2.262,2.262,0,0,0,1.139.374c1.588.041,3.177.017,4.859.017,0-.84,0-1.616,0-2.392a4.442,4.442,0,0,1,4.62-4.657q3.568-.015,7.136,0A4.389,4.389,0,0,1,71.5,45.417c.048.858.008,1.722.008,2.7h6.7c2.115,0,2.965.838,2.965,2.923q0,10.787,0,21.573c0,2-.87,2.88-2.856,2.881q-11.409,0-22.819,0h-1c0,1.1-.054,2.112.01,3.121.248,3.918-1.466,6.91-4.356,9.351a24.319,24.319,0,0,1-8.1,4.338,2.188,2.188,0,0,1-1.3.029,22.115,22.115,0,0,1-9.818-5.907,9.915,9.915,0,0,1-2.776-7.113c.032-1.247.005-2.5.005-3.806-2.3,0-4.517,0-6.732,0q-9.173-.006-18.347-.011c-.67,0-.924-.33-.922-.976.009-4.419-.035-8.839.021-13.257a5.039,5.039,0,0,1,5.269-5.144c1.87.058,3.34-.9,4.954-1.51.539-.2.314-.5-.078-.764a30.189,30.189,0,0,1-3.106-2.228,11.209,11.209,0,0,1-3.238-5.1.859.859,0,0,0-.781-.691,4.315,4.315,0,0,1-2.621-7.158,1.606,1.606,0,0,0,.3-.915c.027-2.17-.006-4.341.025-6.511.072-5.105,4.431-9.975,9.5-10.43a45.52,45.52,0,0,1,11.094.155A8.349,8.349,0,0,1,27.6,22.829a8.668,8.668,0,0,0,6.367,2.125,2.784,2.784,0,0,1,.548.017,1.021,1.021,0,0,1,.887,1.473,6.611,6.611,0,0,1-.522,1.137,11.01,11.01,0,0,0-1.573,7.11,11.827,11.827,0,0,1,0,1.646,4.361,4.361,0,0,0,.81,2.951,4.187,4.187,0,0,1-2.639,6.445,1.468,1.468,0,0,0-1.259,1.087A12.406,12.406,0,0,1,24.2,53.753a3.26,3.26,0,0,0-.586.535,4.282,4.282,0,0,0,.648.465c.542.257,1.116.445,1.653.711a6.5,6.5,0,0,0,3.017.639,5.1,5.1,0,0,1,5.2,5.14c.008.466,0,.933,0,1.522m45.783-.439v-.9q0-5.176,0-10.351c0-1.4-.3-1.7-1.7-1.7H51.194a1.651,1.651,0,0,1-.96,1.939c-.983.642-1.917,1.361-2.9,2a1.13,1.13,0,0,0-.559,1.094c.026,2.326.011,4.653.011,6.979v.925H60.564c.216-1.419-.567-3.37,1.824-3.508,1.011-.058,2.127-.346,3.046.349,1.081.817.486,2.092.733,3.177ZM6.546,36.261c0,.5-.021.865,0,1.224.048.675-.2.992-.924,1.038A3.043,3.043,0,0,0,5.8,44.605c.769-.005,1.037.3,1.22.986a10.723,10.723,0,0,0,3.1,5.174A11.626,11.626,0,0,0,29.348,45.48,1.017,1.017,0,0,1,30.5,44.61a3.005,3.005,0,0,0,3.054-2.938,2.97,2.97,0,0,0-2.894-3.155.84.84,0,0,1-.9-1c.017-.645,0-1.29,0-2.079-2.185,1.085-4.4.806-6.575.815-5.2.022-10.4.007-15.594.007Zm27.487-9.916c-.318-.034-.47-.062-.622-.064a9.983,9.983,0,0,1-6.57-2.457,7.478,7.478,0,0,0-4.36-1.754c-2.442-.155-4.9-.193-7.343-.159a15.3,15.3,0,0,0-3.922.48A9.477,9.477,0,0,0,5.061,27.75a14.175,14.175,0,0,0-.913,6.2c0,.728.155.98.936.977,7.234-.03,14.469-.009,21.7-.025a4.608,4.608,0,0,0,4.048-2.12,48.653,48.653,0,0,0,2.33-4.5c.3-.6.547-1.217.869-1.94M54.5,74.15a1.655,1.655,0,0,0,.317.086q11.88.006,23.761,0c.973,0,1.335-.427,1.337-1.434q.008-4.236,0-8.473c0-.2-.026-.4-.041-.628H66.1c0,.627.018,1.2,0,1.771a1.686,1.686,0,0,1-1.787,1.762c-.627.013-1.255.01-1.882,0a1.649,1.649,0,0,1-1.812-1.793c-.011-.587,0-1.174,0-1.74H54.236c.092.86.243,1.675.253,2.49.032,2.639.012,5.278.012,7.957M41.4,64.073q-5.174,0-10.347,0c-1.271,0-1.626.354-1.627,1.621,0,4.444.056,8.889-.021,13.332a9.323,9.323,0,0,0,2.873,6.954,21.381,21.381,0,0,0,8.7,5.1A1.641,1.641,0,0,0,41.948,91a22.255,22.255,0,0,0,7.681-4.278c2.079-1.839,3.575-4.055,3.605-6.946.049-4.731.016-9.463.013-14.194,0-1.114-.4-1.51-1.5-1.511q-5.174,0-10.348,0M3.471,74.1a1.176,1.176,0,0,0,.274.083c3.447.006,6.895,0,10.342.02.544,0,.547-.311.592-.7.34-2.929.7-5.854,1.039-8.783.113-.99.162-1.987.241-3-1.584.034-1.582.032-2.728-.89-1.1-.884-2.269-1.692-3.284-2.663a3.477,3.477,0,0,0-3.482-.7c-1.94.441-3.025,1.978-3.033,4.2-.014,3.919,0,7.839,0,11.758,0,.229.027.458.04.676m29.4-11.3c0-.582.008-1.073,0-1.563A3.862,3.862,0,0,0,29.609,57.4a3.484,3.484,0,0,0-3.249.8c-1.066,1.029-2.328,1.85-3.464,2.81a2.286,2.286,0,0,1-2.532.532c.263,4.323.952,8.446,1.378,12.655h6.43v-.985c0-2.612-.008-5.224,0-7.836A2.417,2.417,0,0,1,30.708,62.8c.7-.012,1.395,0,2.168,0m10.7-8.359L50.009,49.9l-6.44-4.515c-.027.254-.048.374-.052.5-.031,1.221-.076,1.265-1.3,1.265q-3.291,0-6.582,0c-.276,0-.552.022-.879.037,0,1.7,0,3.315,0,4.931,0,.151.025.3.042.5.268.016.5.041.723.041,2.063,0,4.127-.012,6.19.005,1.591.013,1.773-.353,1.867,1.784M20.413,74.13c-.04-.63-.049-1.121-.106-1.607-.3-2.6-.625-5.2-.933-7.8-.22-1.856-.216-1.857-1.975-1.7-.046,0-.088.05-.18.106-.061.424-.134.883-.191,1.343q-.292,2.353-.575,4.707c-.175,1.441-.365,2.881-.5,4.325-.018.194.229.589.363.594,1.351.045,2.7.027,4.1.027M63.254,43.852c1.227,0,2.455,0,3.682,0a1.675,1.675,0,0,1,1.846,1.835c0,.575.035,1.152-.009,1.724s.224.694.737.691c.487,0,.727-.115.692-.657a13.749,13.749,0,0,1,0-1.8A3.135,3.135,0,0,0,66.965,42.3c-2.4-.055-4.805-.038-7.207-.005A3.192,3.192,0,0,0,56.44,45.11a14.672,14.672,0,0,0-.034,2.581c.017.611.525.361.839.387s.721.109.716-.443q-.011-1.1,0-2.195a1.445,1.445,0,0,1,1.61-1.587c1.227-.008,2.455,0,3.682,0m-4.068,4.2h8.331c0-.819-.007-1.574,0-2.329.005-.414-.15-.632-.593-.631-2.4.006-4.8-.007-7.2.026a.728.728,0,0,0-.512.491c-.057.8-.024,1.606-.024,2.442m2.678,14.94v.863c0,2.2,0,2.178,2.22,2.141.595-.01.777-.241.763-.8-.025-.993,0-1.987-.009-2.98-.036-2.548.417-2.148-2.279-2.192-.5-.008-.715.182-.7.693.023.757.006,1.516.005,2.274M17.181,58.2c-1.219-.814-2.4-1.612-3.6-2.392a.632.632,0,0,0-.493-.08c-.89.346-1.767.725-2.789,1.152,1.551,1.232,2.982,2.389,4.448,3.5.131.1.576-.021.727-.18.59-.622,1.121-1.3,1.707-2m8.846-1.319c-1-.424-1.876-.806-2.764-1.163a.537.537,0,0,0-.425.055c-1.22.79-2.429,1.6-3.69,2.43.574.672,1.115,1.269,1.612,1.9a.677.677,0,0,0,1.122.11c1.335-1.084,2.68-2.155,4.145-3.331M21.714,55l-.065-.2a15.354,15.354,0,0,1-7.255-.055c1.181.882,2.389,1.687,3.606,2.479a.393.393,0,0,0,.349-.011c1.127-.73,2.245-1.473,3.365-2.213M18.2,59.025A7.467,7.467,0,0,0,17.17,60.3a1.875,1.875,0,0,0-.072,1.13c.032.146.444.242.7.3a1.742,1.742,0,0,0,.7,0c.247-.049.656-.134.686-.271a2.183,2.183,0,0,0-.019-1.228,5.867,5.867,0,0,0-.956-1.206m13.855-25.39-.187-.1a5.223,5.223,0,0,0-.929,1.376,5.787,5.787,0,0,0,.044,1.7c.025.7.29.87,1.1.643,0-1.076,0-2.167,0-3.257,0-.119-.016-.238-.025-.358M4.239,37.447c.442-.168,1.158.005.99-.78-.033-.153-.421-.344-.625-.324-.816.081-.274.705-.364,1.1" transform="translate(-1.508 -20.549)"/>
      <path id="Trazado_257023" data-name="Trazado 257023" d="M250.71,171.064H236.96c-.248-1.084.347-2.36-.733-3.177-.92-.695-2.035-.407-3.046-.349-2.392.138-1.608,2.089-1.824,3.508H217.579v-.925c0-2.326.014-4.653-.011-6.979a1.13,1.13,0,0,1,.559-1.094c.984-.642,1.917-1.361,2.9-2a1.652,1.652,0,0,0,.96-1.939h27.027c1.395,0,1.7.3,1.7,1.7q0,5.176,0,10.352Z" transform="translate(-172.301 -129.286)" fill="#e8a87d"/>
      <path id="Trazado_257024" data-name="Trazado 257024" d="M11.258,92.443H12.3c5.2,0,10.4.015,15.594-.007,2.176-.009,4.389.27,6.575-.815,0,.788.013,1.434,0,2.079a.84.84,0,0,0,.9,1,2.97,2.97,0,0,1,2.894,3.155,3.005,3.005,0,0,1-3.054,2.938,1.017,1.017,0,0,0-1.147.869,11.626,11.626,0,0,1-19.224,5.284,10.727,10.727,0,0,1-3.1-5.174c-.183-.682-.451-.991-1.22-.986a3.043,3.043,0,0,1-.175-6.081c.723-.046.971-.363.923-1.038-.026-.36,0-.723,0-1.224m6.866,5.5-.041,0A8.423,8.423,0,0,0,18.078,97a1.589,1.589,0,0,0-1.612-1.49,1.56,1.56,0,0,0-1.473,1.616c-.017.547-.023,1.1,0,1.642a1.476,1.476,0,0,0,1.361,1.454,1.448,1.448,0,0,0,1.659-1.2,8.678,8.678,0,0,0,.108-1.084m9.575-.05h0c0,.287-.014.574,0,.86a1.489,1.489,0,0,0,1.348,1.469A1.391,1.391,0,0,0,30.7,99.037a8.674,8.674,0,0,0,0-2.324,1.46,1.46,0,0,0-1.592-1.2A1.551,1.551,0,0,0,27.7,96.951c-.026.311,0,.625,0,.938m-4.733,7.179a3.38,3.38,0,0,0,2.522-.925c.205-.2.156-.659.224-1-.32,0-.717-.113-.948.032a3.04,3.04,0,0,1-3.768,0,1.011,1.011,0,0,0-.933,0c-.387.323-.141.7.189.978a3.9,3.9,0,0,0,2.715.917" transform="translate(-6.219 -76.731)" fill="#f6cdce"/>
      <path id="Trazado_257025" data-name="Trazado 257025" d="M43.994,31.444c-.322.723-.571,1.344-.869,1.94a48.632,48.632,0,0,1-2.33,4.5A4.608,4.608,0,0,1,36.747,40c-7.234.016-14.469-.005-21.7.025-.781,0-.939-.248-.936-.977a14.174,14.174,0,0,1,.913-6.2,9.477,9.477,0,0,1,6.155-5.358,15.309,15.309,0,0,1,3.922-.48c2.447-.034,4.9,0,7.343.16A7.477,7.477,0,0,1,36.8,28.924a9.983,9.983,0,0,0,6.57,2.457c.152,0,.3.03.622.063" transform="translate(-11.468 -25.648)" fill="#12263f"/>
      <path id="Trazado_257026" data-name="Trazado 257026" d="M253.446,236.964c0-2.679.02-5.319-.012-7.957-.01-.816-.162-1.63-.253-2.49h6.375c0,.566-.009,1.153,0,1.74a1.649,1.649,0,0,0,1.813,1.793c.627.009,1.255.012,1.882,0a1.686,1.686,0,0,0,1.787-1.762c.021-.571,0-1.144,0-1.771H278.82c.015.225.041.426.041.628q0,4.236,0,8.473c0,1.007-.364,1.432-1.337,1.434q-11.881.017-23.761,0a1.674,1.674,0,0,1-.317-.086" transform="translate(-200.453 -183.363)" fill="#e7a87d"/>
      <path id="Trazado_257027" data-name="Trazado 257027" d="M146.645,228.289q5.174,0,10.348,0c1.1,0,1.5.4,1.5,1.511,0,4.731.037,9.463-.013,14.194-.03,2.891-1.526,5.107-3.605,6.946a22.255,22.255,0,0,1-7.681,4.278,1.64,1.64,0,0,1-.971.072,21.375,21.375,0,0,1-8.7-5.1,9.323,9.323,0,0,1-2.873-6.954c.078-4.443.02-8.888.021-13.332,0-1.267.356-1.62,1.627-1.621q5.174,0,10.347,0m-.06,2.554q-3.959,0-7.917,0c-1.058,0-1.308.242-1.309,1.276q-.005,5.686,0,11.371a6.426,6.426,0,0,0,1.835,4.522,18.32,18.32,0,0,0,6.941,4.419,1.292,1.292,0,0,0,.963-.023,50.521,50.521,0,0,0,5.43-3.072,7.417,7.417,0,0,0,3.312-6.705c-.137-3.471-.031-6.952-.033-10.429,0-1.14-.224-1.359-1.383-1.36q-3.92,0-7.839,0" transform="translate(-106.754 -184.765)" fill="#ced371"/>
      <path id="Trazado_257028" data-name="Trazado 257028" d="M10.7,212.768c-.014-.218-.04-.446-.04-.675,0-3.92-.012-7.839,0-11.758.008-2.218,1.093-3.756,3.033-4.2a3.479,3.479,0,0,1,3.482.7c1.015.971,2.186,1.779,3.284,2.663,1.145.922,1.144.924,2.728.89-.079,1.01-.128,2.007-.241,3-.335,2.929-.7,5.855-1.039,8.783-.045.389-.048.7-.592.7-3.447-.02-6.895-.014-10.342-.02a1.194,1.194,0,0,1-.274-.084" transform="translate(-8.741 -159.217)" fill="#dde8fa"/>
      <path id="Trazado_257029" data-name="Trazado 257029" d="M104.023,201.506c-.773,0-1.471-.01-2.168,0a2.416,2.416,0,0,0-2.532,2.575c-.011,2.612,0,5.224,0,7.836v.985H92.89c-.426-4.209-1.115-8.332-1.378-12.655a2.286,2.286,0,0,0,2.532-.532c1.136-.96,2.4-1.782,3.463-2.81a3.484,3.484,0,0,1,3.249-.8,3.862,3.862,0,0,1,3.265,3.833c.009.49,0,.981,0,1.563" transform="translate(-72.655 -159.259)" fill="#dee9fb"/>
      <path id="Trazado_257030" data-name="Trazado 257030" d="M169.013,148.129c-.094-2.137-.275-1.771-1.867-1.784-2.063-.017-4.127,0-6.19-.005-.228,0-.455-.025-.723-.041-.017-.194-.042-.345-.042-.5,0-1.616,0-3.233,0-4.932.327-.014.6-.036.879-.037q3.291,0,6.582,0c1.228,0,1.273-.045,1.3-1.265,0-.121.025-.241.052-.5l6.44,4.515-6.433,4.541" transform="translate(-126.944 -114.241)" fill="#a3c8fe"/>
      <path id="Trazado_257031" data-name="Trazado 257031" d="M74.9,234.166c-1.4,0-2.749.018-4.1-.027-.134,0-.382-.4-.364-.594.137-1.445.327-2.884.5-4.326q.286-2.354.575-4.707c.057-.461.13-.919.191-1.343.092-.056.134-.1.18-.106,1.759-.159,1.755-.158,1.975,1.7.308,2.6.629,5.2.933,7.8.057.486.066.978.106,1.607" transform="translate(-55.997 -180.584)" fill="#a3314f"/>
      <path id="Trazado_257032" data-name="Trazado 257032" d="M270.235,125.778c-1.227,0-2.455-.006-3.682,0a1.445,1.445,0,0,0-1.609,1.587q-.013,1.1,0,2.194c.006.552-.4.47-.716.443s-.822.223-.839-.387a14.672,14.672,0,0,1,.034-2.581,3.192,3.192,0,0,1,3.318-2.817c2.4-.033,4.806-.05,7.207.005a3.134,3.134,0,0,1,3.236,3.346,13.748,13.748,0,0,0,0,1.8c.035.541-.206.654-.692.657-.513,0-.781-.107-.737-.691s.012-1.149.009-1.724a1.675,1.675,0,0,0-1.846-1.835c-1.227,0-2.455,0-3.682,0" transform="translate(-208.489 -102.474)" fill="#fff4d9"/>
      <path id="Trazado_257034" data-name="Trazado 257034" d="M289.571,211.922c0-.758.017-1.517-.006-2.274-.016-.511.2-.7.7-.693,2.7.044,2.244-.357,2.279,2.192.014.993-.016,1.987.009,2.98.014.557-.168.788-.763.8-2.221.038-2.22.056-2.22-2.141q0-.431,0-.863" transform="translate(-229.214 -169.482)" fill="#fbe792"/>
      <path id="Trazado_257035" data-name="Trazado 257035" d="M50.354,190.856c-.586.7-1.117,1.377-1.707,2-.151.159-.6.279-.727.18-1.466-1.111-2.9-2.268-4.448-3.5,1.022-.427,1.9-.806,2.789-1.152a.633.633,0,0,1,.493.08c1.2.78,2.381,1.579,3.6,2.392" transform="translate(-34.68 -153.203)" fill="#dce7fa"/>
      <path id="Trazado_257036" data-name="Trazado 257036" d="M92.583,189.5c-1.466,1.176-2.81,2.248-4.145,3.331a.678.678,0,0,1-1.122-.11c-.5-.631-1.038-1.228-1.612-1.9,1.261-.834,2.471-1.639,3.69-2.43a.538.538,0,0,1,.425-.055c.888.358,1.766.739,2.764,1.163" transform="translate(-68.064 -153.164)" fill="#dce7fa"/>
      <path id="Trazado_257037" data-name="Trazado 257037" d="M70.335,184.015c-1.12.74-2.238,1.483-3.365,2.212a.394.394,0,0,1-.349.011c-1.217-.792-2.426-1.6-3.606-2.479a15.351,15.351,0,0,0,7.255.055l.065.2" transform="translate(-50.129 -149.565)" fill="#efc9ce"/>
      <path id="Trazado_257038" data-name="Trazado 257038" d="M76.823,204.2a5.868,5.868,0,0,1,.956,1.206,2.183,2.183,0,0,1,.02,1.228c-.03.137-.438.221-.686.271a1.742,1.742,0,0,1-.7,0c-.253-.056-.664-.151-.7-.3a1.876,1.876,0,0,1,.072-1.13,7.5,7.5,0,0,1,1.031-1.276" transform="translate(-60.129 -165.722)" fill="#a3314f"/>
      <path id="Trazado_257039" data-name="Trazado 257039" d="M142.883,82.635c.009.119.025.238.025.358,0,1.091,0,2.182,0,3.257-.808.227-1.073.056-1.1-.643a5.788,5.788,0,0,1-.044-1.7,5.229,5.229,0,0,1,.929-1.376l.187.1" transform="translate(-112.334 -69.549)" fill="#12263f"/>
      <path id="Trazado_257040" data-name="Trazado 257040" d="M14.191,97.034c.09-.4-.452-1.023.364-1.1.2-.02.593.172.625.324.168.785-.547.611-.99.78" transform="translate(-11.459 -80.136)" fill="#12263f"/>
      <path id="Trazado_257041" data-name="Trazado 257041" d="M46.456,112.6a8.715,8.715,0,0,1-.107,1.083,1.448,1.448,0,0,1-1.659,1.2,1.476,1.476,0,0,1-1.362-1.454c-.027-.546-.021-1.095,0-1.642A1.56,1.56,0,0,1,44.8,110.17a1.59,1.59,0,0,1,1.612,1.49,8.474,8.474,0,0,1,.005.937l.041,0" transform="translate(-34.551 -91.392)"/>
      <path id="Trazado_257042" data-name="Trazado 257042" d="M103.992,112.547c0-.313-.022-.627,0-.938a1.551,1.551,0,0,1,1.406-1.438,1.46,1.46,0,0,1,1.592,1.2,8.674,8.674,0,0,1,0,2.324,1.39,1.39,0,0,1-1.657,1.18,1.489,1.489,0,0,1-1.347-1.469c-.017-.286,0-.573,0-.86Z" transform="translate(-82.513 -91.39)"/>
      <path id="Trazado_257043" data-name="Trazado 257043" d="M69.737,148.222a3.9,3.9,0,0,1-2.715-.917c-.33-.283-.576-.655-.189-.978a1.011,1.011,0,0,1,.933,0,3.04,3.04,0,0,0,3.768,0c.232-.146.628-.028.948-.033-.067.34-.018.8-.224,1a3.38,3.38,0,0,1-2.522.925" transform="translate(-52.991 -119.885)"/>
      <path id="Trazado_257044" data-name="Trazado 257044" d="M156.8,240.477q3.92,0,7.839,0c1.159,0,1.382.219,1.383,1.359,0,3.477-.1,6.957.033,10.429a7.417,7.417,0,0,1-3.312,6.705,50.555,50.555,0,0,1-5.431,3.072,1.291,1.291,0,0,1-.962.023,18.322,18.322,0,0,1-6.942-4.419,6.428,6.428,0,0,1-1.835-4.522q0-5.686,0-11.371c0-1.034.25-1.275,1.309-1.276q3.959-.005,7.917,0m-7.895,1.369v.916c0,3.448.042,6.9-.019,10.344a5.122,5.122,0,0,0,1.532,3.8,16.748,16.748,0,0,0,6.03,3.831.971.971,0,0,0,.663.025,17.047,17.047,0,0,0,6.038-3.823,5.194,5.194,0,0,0,1.56-3.87c-.065-3.447-.02-6.9-.02-10.344v-.88Z" transform="translate(-116.971 -194.399)"/>
      <path id="Trazado_257045" data-name="Trazado 257045" d="M153.866,247.012H169.65v.88c0,3.448-.044,6.9.02,10.344a5.193,5.193,0,0,1-1.56,3.87,17.051,17.051,0,0,1-6.038,3.823.972.972,0,0,1-.663-.025,16.746,16.746,0,0,1-6.03-3.831,5.123,5.123,0,0,1-1.532-3.8c.061-3.447.019-6.9.019-10.344Zm5.517,9.014c-.41-.68-.764-1.284-1.134-1.877a1.73,1.73,0,1,0-2.951,1.769c.666,1.152,1.357,2.29,2.047,3.427a1.785,1.785,0,0,0,3.051.43q2.4-2.19,4.8-4.381c.963-.882,1.935-1.754,2.869-2.665a1.7,1.7,0,0,0,.277-2.024,1.634,1.634,0,0,0-1.861-.824,2.867,2.867,0,0,0-1.053.633c-2,1.8-3.976,3.617-6.05,5.511" transform="translate(-121.929 -199.566)" fill="#ffb500"/>
      <path id="Trazado_257046" data-name="Trazado 257046" d="M163.619,266.626c2.074-1.894,4.052-3.714,6.05-5.511a2.867,2.867,0,0,1,1.053-.633,1.634,1.634,0,0,1,1.861.824,1.7,1.7,0,0,1-.277,2.024c-.935.911-1.907,1.783-2.869,2.665q-2.4,2.2-4.8,4.381a1.785,1.785,0,0,1-3.051-.43c-.69-1.138-1.381-2.276-2.047-3.427a1.73,1.73,0,1,1,2.951-1.769c.37.594.724,1.2,1.134,1.877" transform="translate(-126.166 -210.165)"/>
    </g>
  </g>
</svg>
