<svg id="Grupo_166586" data-name="Grupo 166586" xmlns="http://www.w3.org/2000/svg" xmlns:xlink="http://www.w3.org/1999/xlink" width="608.5" height="606.916" viewBox="0 0 608.5 606.916">
  <defs>
    <clipPath id="clip-path">
      <rect id="Rectángulo_52430" data-name="Rectángulo 52430" width="608.5" height="606.916" fill="none"/>
    </clipPath>
    <clipPath id="clip-path-4">
      <rect id="Rectángulo_52402" data-name="Rectángulo 52402" width="27.719" height="33.773" fill="none"/>
    </clipPath>
    <clipPath id="clip-path-7">
      <rect id="Rectángulo_52407" data-name="Rectángulo 52407" width="17.683" height="15.05" fill="none"/>
    </clipPath>
    <clipPath id="clip-path-8">
      <rect id="Rectángulo_52408" data-name="Rectángulo 52408" width="17.299" height="27.346" fill="none"/>
    </clipPath>
    <clipPath id="clip-path-11">
      <rect id="Rectángulo_52411" data-name="Rectángulo 52411" width="12.55" height="19.958" fill="none"/>
    </clipPath>
    <clipPath id="clip-path-13">
      <rect id="Rectángulo_52413" data-name="Rectángulo 52413" width="12.549" height="19.958" fill="none"/>
    </clipPath>
    <clipPath id="clip-path-17">
      <rect id="Rectángulo_52421" data-name="Rectángulo 52421" width="76.095" height="38.353" fill="none"/>
    </clipPath>
    <clipPath id="clip-path-18">
      <rect id="Rectángulo_52422" data-name="Rectángulo 52422" width="53.471" height="65.512" fill="none"/>
    </clipPath>
    <clipPath id="clip-path-19">
      <rect id="Rectángulo_52423" data-name="Rectángulo 52423" width="8.006" height="37.807" fill="none"/>
    </clipPath>
    <clipPath id="clip-path-20">
      <rect id="Rectángulo_52424" data-name="Rectángulo 52424" width="75.079" height="82.356" fill="none"/>
    </clipPath>
    <clipPath id="clip-path-21">
      <rect id="Rectángulo_52425" data-name="Rectángulo 52425" width="75.255" height="27.988" fill="none"/>
    </clipPath>
    <clipPath id="clip-path-22">
      <rect id="Rectángulo_52426" data-name="Rectángulo 52426" width="78.203" height="6.598" fill="none"/>
    </clipPath>
  </defs>
  <g id="Grupo_166585" data-name="Grupo 166585" clip-path="url(#clip-path)">
    <path id="Trazado_255075" data-name="Trazado 255075" d="M472.826,12.522V122.347H315.089L309.407,13.29Z" transform="translate(110.301 4.464)" fill="#e0e0e0"/>
    <rect id="Rectángulo_52353" data-name="Rectángulo 52353" width="157.737" height="108.824" transform="translate(419.708 17.755)" fill="#fff"/>
    <path id="Trazado_255076" data-name="Trazado 255076" d="M468.089,122.858H308.856V12.537H468.089Zm-157.738-1.5H466.592V14.033H310.351Z" transform="translate(110.104 4.469)" fill="#e0e0e0"/>
    <rect id="Rectángulo_52354" data-name="Rectángulo 52354" width="123.57" height="81.783" transform="translate(436.79 31.277)" fill="#fff"/>
    <g id="Grupo_166528" data-name="Grupo 166528">
      <g id="Grupo_166527" data-name="Grupo 166527" clip-path="url(#clip-path)">
        <path id="Trazado_255077" data-name="Trazado 255077" d="M445.672,23.15s-.213.014-.609.022l-1.757.02-6.787.043-25.465.1-88.951.175.357-.357c.009,24.988.02,52.674.033,81.773v.01l-.389-.389,123.568.08-.311.309c.069-24.888.125-45.293.163-59.5.035-7.1.061-12.651.08-16.454q.022-2.82.034-4.324c.012-.979.034-1.5.034-1.5s.022.476.034,1.435q.012,1.483.034,4.266c.019,3.787.045,9.312.08,16.385.038,14.255.095,34.728.163,59.7v.311h-.312l-123.568.08h-.391v-.4c.012-29.1.023-56.785.033-81.773v-.358h.358l89.187.176,25.383.1,6.715.043,1.717.02c.383.008.567.022.567.022" transform="translate(114.688 8.125)" fill="#e0e0e0"/>
        <path id="Trazado_255078" data-name="Trazado 255078" d="M309.408,12.865a13.376,13.376,0,0,1,2.712,1.758c1.614,1.165,3.812,2.817,6.184,4.715s4.46,3.7,5.929,5.042a12.715,12.715,0,0,1,2.259,2.313c-.147.164-3.939-2.964-8.675-6.747s-8.547-6.9-8.409-7.081" transform="translate(110.3 4.584)" fill="#e0e0e0"/>
        <path id="Trazado_255079" data-name="Trazado 255079" d="M430.181,13.091c.133.168-3.582,3.333-8.3,7.066s-8.65,6.624-8.783,6.454,3.581-3.332,8.3-7.066,8.65-6.622,8.783-6.454" transform="translate(147.264 4.664)" fill="#e0e0e0"/>
        <path id="Trazado_255080" data-name="Trazado 255080" d="M430.22,97.071,412.633,82.817" transform="translate(147.1 29.523)" fill="#fff"/>
        <path id="Trazado_255081" data-name="Trazado 255081" d="M412.634,82.819c.134-.167,4.181,2.888,9.038,6.824s8.683,7.263,8.549,7.43-4.183-2.888-9.04-6.825-8.683-7.263-8.547-7.429" transform="translate(147.099 29.522)" fill="#e0e0e0"/>
        <path id="Trazado_255082" data-name="Trazado 255082" d="M309.408,96.831c-.133-.168,3.544-3.3,8.212-6.991s8.564-6.551,8.7-6.382-3.543,3.3-8.214,6.993-8.564,6.549-8.7,6.381" transform="translate(110.3 29.749)" fill="#e0e0e0"/>
        <rect id="Rectángulo_52355" data-name="Rectángulo 52355" width="77.751" height="27.385" transform="translate(461.881 56.756)" fill="#e0e0e0"/>
        <rect id="Rectángulo_52356" data-name="Rectángulo 52356" width="139.85" height="405.926" transform="translate(468.65 199.635)" fill="#e0e0e0"/>
        <rect id="Rectángulo_52357" data-name="Rectángulo 52357" width="153.118" height="405.926" transform="translate(393.586 199.635)" fill="#f5f5f5"/>
        <path id="Trazado_255083" data-name="Trazado 255083" d="M330.058,377.993h40.905a2.919,2.919,0,0,0,2.919-2.919v-2.428H327.14v2.43a2.918,2.918,0,0,0,2.918,2.918" transform="translate(116.622 132.845)" fill="#e0e0e0"/>
        <path id="Trazado_255084" data-name="Trazado 255084" d="M295.213,372.708s-.022.486-.033,1.465q-.012,1.51-.034,4.353c-.018,3.865-.045,9.51-.077,16.747-.039,14.584-.094,35.559-.161,61.243v.305h.307c37,.024,84.638.053,136.455.085h.463v-.391c-.011-29.658-.02-57.944-.03-83.683v-.362h-.361l-98.445.087-28.1.072-7.444.037-1.906.02c-.425.007-.631.02-.631.02s.235.015.674.022l1.945.023,7.518.052,28.184.123,98.206.266-.361-.361c-.009,25.739-.019,54.025-.03,83.683l.391-.391h-.072l-136.455.086.305.305c-.068-25.6-.123-46.515-.161-61.053-.033-7.267-.06-12.935-.077-16.816q-.022-2.879-.034-4.41c-.011-1-.033-1.529-.033-1.529" transform="translate(105.131 132.782)" fill="#e0e0e0"/>
        <rect id="Rectángulo_52358" data-name="Rectángulo 52358" width="40.631" height="10.977" transform="translate(445.598 525.963)" fill="#e0e0e0"/>
        <path id="Trazado_255085" data-name="Trazado 255085" d="M331.425,305.986h40.9a2.919,2.919,0,0,0,2.919-2.918v-2.429H328.507v2.429a2.918,2.918,0,0,0,2.918,2.918" transform="translate(117.11 107.175)" fill="#e0e0e0"/>
        <path id="Trazado_255086" data-name="Trazado 255086" d="M295.493,300.7s-.022.486-.033,1.464q-.012,1.51-.034,4.354c-.018,3.865-.045,9.51-.077,16.747-.039,14.584-.094,35.559-.161,61.243v.305h.307l136.455.085h.462v-.391c-.011-29.658-.02-57.944-.03-83.683v-.362h-.361c-40.117.037-74.283.066-98.445.087l-28.1.073-7.444.037-1.906.02c-.425.007-.631.02-.631.02s.235.015.674.022l1.947.023,7.516.052,28.184.123,98.206.266-.361-.361c-.009,25.739-.019,54.025-.03,83.683l.391-.391h-.072l-136.455.085.305.305c-.068-25.6-.122-46.515-.161-61.053-.033-7.268-.06-12.935-.077-16.816q-.022-2.879-.034-4.41c-.011-1-.033-1.529-.033-1.529" transform="translate(105.231 107.113)" fill="#e0e0e0"/>
        <rect id="Rectángulo_52359" data-name="Rectángulo 52359" width="40.631" height="10.977" transform="translate(448.671 427.639)" fill="#e0e0e0"/>
        <path id="Trazado_255087" data-name="Trazado 255087" d="M330.111,160.677h40.9a2.918,2.918,0,0,0,2.918-2.918V155.33H327.193v2.429a2.918,2.918,0,0,0,2.918,2.918" transform="translate(116.641 55.374)" fill="#e0e0e0"/>
        <path id="Trazado_255088" data-name="Trazado 255088" d="M295.267,155.392s-.022.486-.033,1.464q-.012,1.51-.034,4.354c-.018,3.865-.045,9.51-.077,16.747-.039,14.584-.094,35.559-.161,61.243v.305h.307c37,.022,84.638.052,136.455.084h.463V239.2c-.011-29.658-.02-57.944-.03-83.683v-.362h-.361l-98.445.087-28.1.072c-3.235.018-5.731.03-7.444.038l-1.906.019c-.425.007-.631.022-.631.022s.235.015.674.022l1.947.023,7.516.052,28.184.123,98.206.266-.361-.361c-.009,25.739-.019,54.025-.03,83.683l.391-.391h-.072l-136.455.085.305.305c-.068-25.6-.122-46.515-.161-61.053-.033-7.268-.06-12.935-.077-16.816q-.022-2.879-.034-4.41c-.011-1-.033-1.529-.033-1.529" transform="translate(105.15 55.311)" fill="#e0e0e0"/>
        <rect id="Rectángulo_52360" data-name="Rectángulo 52360" width="40.631" height="10.977" transform="translate(447.617 228.554)" fill="#e0e0e0"/>
        <path id="Trazado_255089" data-name="Trazado 255089" d="M330.111,233.293h40.9a2.918,2.918,0,0,0,2.918-2.918v-2.429H327.193v2.428a2.918,2.918,0,0,0,2.918,2.919" transform="translate(116.641 81.261)" fill="#e0e0e0"/>
        <path id="Trazado_255090" data-name="Trazado 255090" d="M295.267,228.008s-.022.486-.033,1.464q-.012,1.512-.034,4.354c-.018,3.865-.045,9.51-.077,16.747-.039,14.584-.094,35.559-.161,61.243v.305h.307c37,.022,84.638.052,136.455.084h.463v-.391c-.011-29.658-.02-57.944-.03-83.683v-.362h-.361l-98.445.085-28.1.073-7.444.037c-.823.01-1.456.015-1.906.019-.425.008-.631.022-.631.022s.235.015.674.022l1.947.023,7.516.053c6.571.027,16.126.069,28.184.122,24.1.065,58.187.159,98.206.266l-.361-.361c-.009,25.739-.019,54.025-.03,83.683l.391-.391h-.072l-136.455.085.305.305c-.068-25.6-.122-46.515-.161-61.053-.033-7.268-.06-12.934-.077-16.816-.015-1.918-.026-3.391-.034-4.409-.011-1-.033-1.53-.033-1.53" transform="translate(105.15 81.198)" fill="#e0e0e0"/>
        <rect id="Rectángulo_52361" data-name="Rectángulo 52361" width="40.631" height="10.977" transform="translate(447.617 327.058)" fill="#e0e0e0"/>
        <rect id="Rectángulo_52362" data-name="Rectángulo 52362" width="146.62" height="131.175" transform="translate(31.67 14.247)" fill="#fafafa"/>
        <path id="Trazado_255091" data-name="Trazado 255091" d="M170.071,141.781s-.026-.841-.039-2.435c-.008-1.61-.02-3.962-.038-7.028-.019-6.158-.049-15.161-.085-26.628-.042-22.919-.1-55.669-.171-95.085l.334.332L23.462,11h-.011l.391-.392c-.016,47.724-.033,92.631-.046,131.175l-.345-.345,106.045.174,29.912.091,7.916.041,2.042.019c.46.007.705.02.705.02s-.218.014-.666.019l-2,.02-7.85.041-29.832.091-106.267.174h-.346v-.346c-.014-38.545-.028-83.451-.046-131.175v-.392h.4l146.61.06h.331v.332c-.071,39.5-.13,72.325-.171,95.295-.037,11.435-.066,20.412-.084,26.553-.018,3.037-.031,5.37-.041,6.964-.012,1.571-.035,2.363-.035,2.363" transform="translate(8.22 3.641)" fill="#e0e0e0"/>
        <path id="Trazado_255092" data-name="Trazado 255092" d="M73.851,27.788c0,.216-7.717.392-17.236.392S39.379,28,39.379,27.788s7.716-.392,17.237-.392,17.236.176,17.236.392" transform="translate(14.038 9.766)" fill="#e0e0e0"/>
        <path id="Trazado_255093" data-name="Trazado 255093" d="M135.479,35.048c0,.217-21.2.392-47.35.392s-47.354-.175-47.354-.392,21.2-.392,47.354-.392,47.35.176,47.35.392" transform="translate(14.536 12.355)" fill="#e0e0e0"/>
        <rect id="Rectángulo_52363" data-name="Rectángulo 52363" width="6.177" height="6.177" transform="translate(53.67 64.086)" fill="#e0e0e0"/>
        <rect id="Rectángulo_52364" data-name="Rectángulo 52364" width="6.177" height="6.177" transform="translate(68.876 64.086)" fill="#e0e0e0"/>
        <rect id="Rectángulo_52365" data-name="Rectángulo 52365" width="6.177" height="6.177" transform="translate(84.362 63.807)" fill="#e0e0e0"/>
        <rect id="Rectángulo_52366" data-name="Rectángulo 52366" width="6.177" height="6.177" transform="translate(99.286 64.086)" fill="#e0e0e0"/>
        <rect id="Rectángulo_52367" data-name="Rectángulo 52367" width="6.177" height="6.177" transform="translate(114.491 64.086)" fill="#e0e0e0"/>
        <rect id="Rectángulo_52368" data-name="Rectángulo 52368" width="6.177" height="6.177" transform="translate(129.695 64.086)" fill="#e0e0e0"/>
        <rect id="Rectángulo_52369" data-name="Rectángulo 52369" width="6.177" height="6.177" transform="translate(144.9 64.086)" fill="#ebebeb"/>
        <rect id="Rectángulo_52370" data-name="Rectángulo 52370" width="6.177" height="6.177" transform="translate(53.67 77.218)" fill="#ebebeb"/>
        <rect id="Rectángulo_52371" data-name="Rectángulo 52371" width="6.177" height="6.177" transform="translate(68.876 77.218)" fill="#e0e0e0"/>
        <rect id="Rectángulo_52372" data-name="Rectángulo 52372" width="6.177" height="6.177" transform="translate(84.081 77.218)" fill="#ebebeb"/>
        <rect id="Rectángulo_52373" data-name="Rectángulo 52373" width="6.177" height="6.177" transform="translate(99.286 77.218)" fill="#e0e0e0"/>
        <rect id="Rectángulo_52374" data-name="Rectángulo 52374" width="6.177" height="6.177" transform="translate(114.491 77.218)" fill="#e0e0e0"/>
        <rect id="Rectángulo_52375" data-name="Rectángulo 52375" width="6.177" height="6.177" transform="translate(129.976 76.939)" fill="#e0e0e0"/>
        <rect id="Rectángulo_52376" data-name="Rectángulo 52376" width="6.177" height="6.177" transform="translate(144.9 77.218)" fill="#e0e0e0"/>
        <rect id="Rectángulo_52377" data-name="Rectángulo 52377" width="6.177" height="6.177" transform="translate(53.67 90.35)" fill="#e0e0e0"/>
        <rect id="Rectángulo_52378" data-name="Rectángulo 52378" width="6.177" height="6.177" transform="translate(69.155 90.071)" fill="#e0e0e0"/>
        <rect id="Rectángulo_52379" data-name="Rectángulo 52379" width="6.177" height="6.177" transform="translate(84.081 90.35)" fill="#e0e0e0"/>
        <rect id="Rectángulo_52380" data-name="Rectángulo 52380" width="6.177" height="6.177" transform="translate(99.286 90.35)" fill="#ebebeb"/>
        <rect id="Rectángulo_52381" data-name="Rectángulo 52381" width="6.177" height="6.177" transform="translate(114.491 90.35)" fill="#e0e0e0"/>
        <rect id="Rectángulo_52382" data-name="Rectángulo 52382" width="6.177" height="6.177" transform="translate(129.695 90.35)" fill="#e0e0e0"/>
        <rect id="Rectángulo_52383" data-name="Rectángulo 52383" width="6.177" height="6.177" transform="translate(144.9 90.35)" fill="#e0e0e0"/>
        <rect id="Rectángulo_52384" data-name="Rectángulo 52384" width="6.177" height="6.177" transform="translate(53.67 103.483)" fill="#e0e0e0"/>
        <rect id="Rectángulo_52385" data-name="Rectángulo 52385" width="6.177" height="6.177" transform="translate(68.876 103.483)" fill="#e0e0e0"/>
        <rect id="Rectángulo_52386" data-name="Rectángulo 52386" width="6.177" height="6.177" transform="translate(84.081 103.483)" fill="#e0e0e0"/>
        <rect id="Rectángulo_52387" data-name="Rectángulo 52387" width="6.177" height="6.177" transform="translate(99.566 103.203)" fill="#e0e0e0"/>
        <rect id="Rectángulo_52388" data-name="Rectángulo 52388" width="6.177" height="6.177" transform="translate(114.491 103.483)" fill="#e0e0e0"/>
        <rect id="Rectángulo_52389" data-name="Rectángulo 52389" width="6.177" height="6.177" transform="translate(129.695 103.483)" fill="#ebebeb"/>
        <rect id="Rectángulo_52390" data-name="Rectángulo 52390" width="6.177" height="6.177" transform="translate(144.9 103.483)" fill="#e0e0e0"/>
        <rect id="Rectángulo_52391" data-name="Rectángulo 52391" width="6.177" height="6.177" transform="translate(53.67 116.615)" fill="#e0e0e0"/>
        <rect id="Rectángulo_52392" data-name="Rectángulo 52392" width="6.177" height="6.177" transform="translate(68.876 116.615)" fill="#ebebeb"/>
        <rect id="Rectángulo_52393" data-name="Rectángulo 52393" width="6.177" height="6.177" transform="translate(84.081 116.615)" fill="#e0e0e0"/>
        <rect id="Rectángulo_52394" data-name="Rectángulo 52394" width="6.177" height="6.177" transform="translate(99.286 116.615)" fill="#e0e0e0"/>
        <rect id="Rectángulo_52395" data-name="Rectángulo 52395" width="6.177" height="6.177" transform="translate(114.491 116.615)" fill="#e0e0e0"/>
        <rect id="Rectángulo_52396" data-name="Rectángulo 52396" width="6.177" height="6.177" transform="translate(129.976 116.335)" fill="#e0e0e0"/>
        <rect id="Rectángulo_52397" data-name="Rectángulo 52397" width="6.177" height="6.177" transform="translate(144.9 116.615)" fill="#e0e0e0"/>
        <rect id="Rectángulo_52398" data-name="Rectángulo 52398" width="54.032" height="36.419" transform="translate(250.971 228.626) rotate(-20.625)" fill="#ebebeb"/>
        <path id="Trazado_255094" data-name="Trazado 255094" d="M235.817,154.768a3.7,3.7,0,0,1-.3.632c-.239.445-.552,1.03-.944,1.763l-3.553,6.446-11.909,21.233-.1.175-.193-.062c-.145-.046-.3-.1-.461-.151l-23.447-7.683c-2.954-.994-5.362-1.8-7.086-2.382l-1.919-.671a3.585,3.585,0,0,1-.659-.267,4.053,4.053,0,0,1,.689.174l1.948.583c1.736.544,4.16,1.3,7.135,2.234l23.49,7.548c.159.05.317.1.463.149l-.289.114c4.7-8.258,8.938-15.714,12.036-21.163,1.538-2.656,2.79-4.82,3.688-6.369.425-.715.765-1.286,1.023-1.719a3.93,3.93,0,0,1,.385-.585" transform="translate(66.039 55.173)" fill="#e0e0e0"/>
        <path id="Trazado_255095" data-name="Trazado 255095" d="M194.706,201.049c-.128-.045,1.917-6.149,4.565-13.631s4.9-13.513,5.029-13.469-1.915,6.148-4.566,13.633-4.9,13.512-5.027,13.467" transform="translate(69.409 62.011)" fill="#e0e0e0"/>
        <path id="Trazado_255096" data-name="Trazado 255096" d="M214.051,168.972c.071-.115,5.574,3.108,12.29,7.2s12.108,7.5,12.038,7.619-5.572-3.108-12.293-7.2-12.105-7.5-12.035-7.619" transform="translate(76.307 60.236)" fill="#e0e0e0"/>
        <path id="Trazado_255097" data-name="Trazado 255097" d="M273.671,76.754a16.938,16.938,0,0,1,4.137-1.8l.852-4.1,6.921-.121,1,4.063a16.9,16.9,0,0,1,4.2,1.652l3.5-2.292,4.98,4.807-2.168,3.574a16.92,16.92,0,0,1,1.8,4.139l4.1.853.122,6.919-4.063,1a16.9,16.9,0,0,1-1.652,4.2l2.292,3.5-4.807,4.978-3.574-2.168a16.974,16.974,0,0,1-4.139,1.8l-.853,4.1-6.919.121-1-4.063a16.9,16.9,0,0,1-4.2-1.652l-3.5,2.292-4.98-4.807,2.168-3.574a16.976,16.976,0,0,1-1.8-4.139l-4.1-.852-.121-6.921,4.063-1a16.952,16.952,0,0,1,1.651-4.2l-2.291-3.5,4.806-4.98Zm3.688,9.219a7.424,7.424,0,1,0,10.5-.184,7.423,7.423,0,0,0-10.5.184" transform="translate(93.352 25.218)" fill="#e0e0e0"/>
        <path id="Trazado_255098" data-name="Trazado 255098" d="M273.869,82.6a5.613,5.613,0,0,1,1.382-1.213,7.4,7.4,0,0,1,4.844-1.146,7.5,7.5,0,0,1,3.292,1.171,7.594,7.594,0,0,1,2.661,3,7.611,7.611,0,0,1,.718,4.369,7.577,7.577,0,0,1-6.267,6.492,7.605,7.605,0,0,1-4.394-.563,7.605,7.605,0,0,1-3.091-2.556,7.472,7.472,0,0,1-1.283-3.249,7.388,7.388,0,0,1,.974-4.881,5.609,5.609,0,0,1,1.164-1.424c.041.034-.448.487-1.02,1.507a7.4,7.4,0,0,0-.821,4.752,7.252,7.252,0,0,0,4.238,5.492,7.244,7.244,0,0,0,4.163.51,7.191,7.191,0,0,0,5.924-6.137,7.227,7.227,0,0,0-.656-4.141,7.254,7.254,0,0,0-5.636-4.042,7.406,7.406,0,0,0-4.722.986c-1,.608-1.434,1.112-1.469,1.073" transform="translate(96.842 28.59)" fill="#e0e0e0"/>
        <path id="Trazado_255099" data-name="Trazado 255099" d="M273.71,76.788a1.711,1.711,0,0,1-.231-.122l-.686-.4L270.1,74.678l.084-.011L265.4,79.674l.014-.134,2.306,3.488.042.062-.037.068a16.911,16.911,0,0,0-1.625,4.17l-.02.083-.083.02-4.06,1.008.115-.151c.043,2.179.09,4.491.137,6.919l-.133-.161,4.1.845.1.022.03.1a16.868,16.868,0,0,0,1.785,4.093l.058.094-.058.1-2.162,3.578-.03-.235,4.985,4.8-.247-.023,3.5-2.3.1-.066.107.06a16.9,16.9,0,0,0,4.149,1.629l.121.028.03.122c.312,1.272.654,2.66,1,4.063l-.206-.16,6.919-.123-.2.168c.27-1.294.56-2.69.852-4.1l.026-.126.125-.035a16.791,16.791,0,0,0,4.082-1.774h0l.111-.066.11.066,3.574,2.168-.263.034,4.809-4.978-.024.262q-1.158-1.766-2.291-3.5l-.069-.106.061-.11a16.759,16.759,0,0,0,1.635-4.145l.03-.122.122-.03,4.063-.993-.155.2q-.057-3.542-.114-6.919l.156.189-4.1-.857-.113-.024-.031-.111a16.851,16.851,0,0,0-1.773-4.1l-.057-.095.057-.095c.746-1.225,1.469-2.412,2.174-3.572l.028.218L294.2,74.312l.2.019-3.5,2.283-.079.052-.08-.045a16.867,16.867,0,0,0-4.158-1.65l-.083-.02-.02-.083L285.5,70.8l.125.095-6.921.091.092-.076c-.351,1.635-.639,2.975-.879,4.091l-.008.041-.041.011a17.582,17.582,0,0,0-3.163,1.217l-.745.389a1.733,1.733,0,0,1-.248.126,2.128,2.128,0,0,1,.231-.157c.159-.1.4-.243.73-.421a16.453,16.453,0,0,1,3.159-1.286l-.049.052c.227-1.119.5-2.463.826-4.1l.015-.075h.077l6.919-.152.1,0,.026.1c.311,1.255.642,2.584,1.009,4.059l-.1-.1a17.079,17.079,0,0,1,4.24,1.654l-.159.005,3.492-2.3.109-.072.095.091c1.576,1.517,3.232,3.11,4.988,4.8l.1.1-.073.121q-1.052,1.744-2.162,3.578v-.19a17.118,17.118,0,0,1,1.823,4.182l-.144-.136,4.1.848.152.031,0,.157q.061,3.376.128,6.919l0,.161-.159.039-4.061,1,.151-.151a17.129,17.129,0,0,1-1.67,4.251l-.007-.216q1.135,1.73,2.294,3.5l.092.141-.117.121-4.806,4.981-.118.122-.145-.088-3.576-2.168h.22l0,0a17.2,17.2,0,0,1-4.186,1.818l.151-.161c-.293,1.407-.585,2.8-.853,4.1l-.035.165-.168,0-6.921.118-.166,0-.041-.161c-.342-1.4-.681-2.792-.993-4.064l.151.151a17.2,17.2,0,0,1-4.247-1.675l.209-.007-3.5,2.288-.133.087-.113-.11-4.974-4.813-.108-.106.079-.129c.757-1.244,1.5-2.465,2.173-3.572v.19a17.193,17.193,0,0,1-1.811-4.186l.134.123c-1.431-.3-2.827-.593-4.094-.86l-.132-.027,0-.134c-.037-2.428-.072-4.74-.106-6.919v-.121l.118-.03,4.065-.983-.1.1a17.089,17.089,0,0,1,1.678-4.225l0,.129-2.278-3.507-.047-.073.06-.061,4.836-4.951.038-.039.046.028L272.8,76.2c.288.183.51.326.677.43a2.247,2.247,0,0,1,.229.157" transform="translate(93.312 25.184)" fill="#e0e0e0"/>
        <path id="Trazado_255100" data-name="Trazado 255100" d="M24.7,450.18c-2.477-2.124-8-8.854-3.741-16.682,1.563-2.869,4.879-4.289,7.883-5.553s6.158-2.363,8.644-4.476c4.685-3.987,5.978-10.611,9.09-15.929,3.57-6.106,10.236-10.68,17.278-10.36,8.064.368,14.79,6.953,17.838,14.463S84.841,427.49,84.9,435.6c.035,4.483-.164,9.539-3.458,12.567-3.034,2.793-7.6,2.827-11.719,2.7L25.66,449.514" transform="translate(6.912 141.585)" fill="#f5f5f5"/>
        <path id="Trazado_255101" data-name="Trazado 255101" d="M115.9,346.911H0L20.878,471.395a13.9,13.9,0,0,0,9.894,11.083c.133.042.271.072.406.111.346.088.678.2,1.032.266a14.49,14.49,0,0,0,2.358.271c.005.039.012.08.018.119l.566-.089H86.807a14.5,14.5,0,0,0,2.838-.284,13.953,13.953,0,0,0,11.724-12.166l10.065-85.771.453-3.41h-.053l3.985-33.968Zm-21.864,79.4H82.138l1.2-36.127H97.118Zm4.24-36.127H109.66l-4.239,36.127H95.186ZM64.295,466.366l-.723-31.386H80.7l-1.043,31.386ZM45.777,434.98H62.42l.723,31.386H48.216Zm1.286,31.386H33.111c-1.325-8.474-3.051-19.487-4.919-31.386H44.624ZM45.1,426.316,42.3,390.189H61.388l.833,36.127Zm18.267,0-.832-36.127H82.187l-1.2,36.127ZM62.34,381.525l-.77-33.458H83.586l-1.111,33.458Zm-1.152,0H41.624l-2.6-33.458H60.418Zm-20.718,0h-20.7c-.733-4.62-1.428-8.995-2.056-12.93-2.16-13.527-2.971-18.614-3.421-20.528H37.871Zm.673,8.664,2.808,36.127H26.831c-.575-3.665-1.158-7.374-1.742-11.084-1.343-8.528-2.686-17.055-3.949-25.044ZM25.668,426.316H14.483L8.424,390.189H19.976c1.765,11.165,3.722,23.592,5.692,36.127m1.361,8.664c1.705,10.861,3.383,21.571,4.919,31.386H21.2L15.937,434.98Zm53.779,31.386,1.043-31.386H93.291L90.61,466.366Zm2.819-84.842,1.111-33.458h15.979l-2.858,33.458ZM13.2,348.067c.458,2.419,2.575,15.585,5.408,33.458H6.971L1.359,348.067Zm87.526,118.3H91.764l2.682-31.386H104.4Zm9.954-84.842H99.013l2.858-33.458H114.6Z" transform="translate(0 123.67)" fill="#e0e0e0"/>
      </g>
    </g>
    <g id="Grupo_166533" data-name="Grupo 166533">
      <g id="Grupo_166532" data-name="Grupo 166532" clip-path="url(#clip-path)">
        <path id="Trazado_255102" data-name="Trazado 255102" d="M347.864,232.758s16.023-18.441,22.069-36.883,3.174-16.324,3.174-16.324-8.162,17.914-14.36,26.567-17.232,21.35-17.232,21.35Z" transform="translate(121.747 63.982)" fill="#455a64"/>
        <path id="Trazado_255103" data-name="Trazado 255103" d="M345.929,181.775a.934.934,0,0,1,1.738.594c-.977,6.477-3.089,21.678-3.006,31.537.108,12.808,0,17.759,0,17.759h-6.67s1.184-26.476,2.691-34.548a55.425,55.425,0,0,1,5.25-15.342" transform="translate(120.49 64.631)" fill="#455a64"/>
        <path id="Trazado_255104" data-name="Trazado 255104" d="M344.319,230.114a70.653,70.653,0,0,1-5.49-19.911c-.548-4.715.431-11.087,1.888-19.589a52.68,52.68,0,0,0,.844-9.425,1.591,1.591,0,0,0-2.988-.746,42.315,42.315,0,0,0-3.725,9.418c-1.614,8.394-3.444,12.592-2.046,20.556s6.565,20.235,6.565,20.235Z" transform="translate(118.464 64.031)" fill="#455a64"/>
        <path id="Trazado_255105" data-name="Trazado 255105" d="M343.331,233.334s-17.592-37.807-18.812-43.415-5.365-18.534-5.852-17.8-1.219,7.56,1.951,15.364,16.707,47.005,16.707,47.005h6.007" transform="translate(113.446 61.347)" fill="#455a64"/>
        <path id="Trazado_255106" data-name="Trazado 255106" d="M342.582,228.877a3.53,3.53,0,0,0,.494-.339c.312-.236.785-.568,1.362-1.04a62.318,62.318,0,0,0,4.729-4.174,79.281,79.281,0,0,0,12.762-16.381,107.247,107.247,0,0,0,8.713-18.872c.884-2.511,1.53-4.566,1.949-5.994.214-.712.362-1.271.467-1.648a3.322,3.322,0,0,0,.136-.583,3.771,3.771,0,0,0-.208.562l-.534,1.626c-.461,1.413-1.145,3.454-2.059,5.948a114.115,114.115,0,0,1-8.786,18.77,82.807,82.807,0,0,1-12.626,16.384c-1.883,1.871-3.494,3.3-4.634,4.25-.562.487-1.02.838-1.317,1.093a3.483,3.483,0,0,0-.446.4" transform="translate(122.127 64.113)" fill="#263238"/>
        <path id="Trazado_255107" data-name="Trazado 255107" d="M341.167,210a6.323,6.323,0,0,0,.157-1.11c.084-.783.193-1.8.324-3.03.279-2.557.714-6.085,1.335-9.959s1.317-7.362,1.854-9.878c.26-1.207.476-2.21.643-2.979a6.618,6.618,0,0,0,.2-1.1,6.244,6.244,0,0,0-.341,1.068c-.2.693-.457,1.7-.76,2.956-.6,2.505-1.34,5.992-1.966,9.877s-1.017,7.425-1.229,9.993c-.106,1.285-.175,2.325-.2,3.045a6.386,6.386,0,0,0-.012,1.12" transform="translate(121.617 64.858)" fill="#263238"/>
        <path id="Trazado_255108" data-name="Trazado 255108" d="M339.255,180.006a2.816,2.816,0,0,0-.208.48l-.528,1.4c-.232.61-.5,1.361-.754,2.252s-.6,1.888-.856,3.026c-.138.568-.285,1.161-.435,1.778s-.252,1.274-.387,1.947c-.288,1.342-.465,2.8-.678,4.324a64.559,64.559,0,0,0,.716,19.985c.322,1.508.6,2.948.986,4.266.182.661.334,1.306.525,1.914l.562,1.742c.336,1.118.746,2.09,1.07,2.958s.638,1.6.914,2.191q.389.846.627,1.362a2.636,2.636,0,0,0,.242.465,2.929,2.929,0,0,0-.174-.5c-.141-.351-.328-.813-.56-1.388-.255-.6-.555-1.335-.852-2.208s-.7-1.848-1.013-2.965c-.172-.556-.35-1.138-.537-1.742s-.327-1.251-.5-1.911c-.368-1.314-.636-2.75-.948-4.251a66.824,66.824,0,0,1-.712-19.881c.2-1.521.368-2.971.64-4.31.128-.67.225-1.323.365-1.941s.279-1.209.41-1.776c.237-1.138.558-2.139.8-3.03s.482-1.648.692-2.264c.191-.59.343-1.063.46-1.426a2.724,2.724,0,0,0,.137-.506" transform="translate(119.409 64.17)" fill="#263238"/>
        <path id="Trazado_255109" data-name="Trazado 255109" d="M318.7,172.669a.57.57,0,0,0,.014.17c.022.134.047.3.079.492.077.43.175,1.069.346,1.881.34,1.626.906,3.968,1.786,6.807s2.078,6.171,3.5,9.828,3.07,7.648,4.631,11.894c1.586,4.238,2.808,8.372,3.956,12.126s2.216,7.13,3.26,9.913a63.536,63.536,0,0,0,2.778,6.464c.359.749.685,1.308.893,1.693l.247.433a.589.589,0,0,0,.095.141.554.554,0,0,0-.061-.159c-.058-.122-.128-.271-.213-.45-.187-.395-.49-.964-.829-1.721-.708-1.5-1.662-3.7-2.66-6.491s-2.059-6.16-3.178-9.921-2.344-7.908-3.934-12.157c-1.565-4.255-3.226-8.239-4.661-11.89s-2.665-6.96-3.572-9.782-1.514-5.145-1.9-6.758c-.194-.806-.315-1.439-.416-1.864q-.067-.291-.114-.484a.648.648,0,0,0-.052-.164" transform="translate(113.613 61.555)" fill="#263238"/>
        <path id="Trazado_255110" data-name="Trazado 255110" d="M365.965,166.628a1.514,1.514,0,0,1,2.493,1.545,43.31,43.31,0,0,1-2.21,5.684c-2.419,5.14-9.524,23.581-12.849,33.709s-8.011,29.022-8.011,29.022l-7.1-1.152s6.5-31.045,12.845-42.23c5.1-8.988,10.2-21.977,14.833-26.578" transform="translate(120.596 59.245)" fill="#455a64"/>
        <path id="Trazado_255111" data-name="Trazado 255111" d="M349.591,201.362a4.411,4.411,0,0,0-.366.851c-.21.558-.5,1.371-.818,2.385-.654,2.027-1.454,4.855-2.261,8s-1.474,6.005-1.941,8.079l-.534,2.461a4.336,4.336,0,0,0-.146.914,4.538,4.538,0,0,0,.289-.88c.174-.647.391-1.462.65-2.432.544-2.136,1.257-4.943,2.047-8.049.806-3.139,1.564-5.974,2.151-8.014.281-.963.516-1.772.7-2.415a4.433,4.433,0,0,0,.228-.9" transform="translate(122.461 71.784)" fill="#263238"/>
        <path id="Trazado_255112" data-name="Trazado 255112" d="M340.893,235.929a.711.711,0,0,0,.041-.19c.02-.146.048-.331.08-.559.075-.491.141-1.219.29-2.15.262-1.865.727-4.554,1.489-7.834a112.333,112.333,0,0,1,3.323-11.344c1.457-4.208,3.284-8.753,5.354-13.458,4.178-9.4,8.352-17.735,11.095-23.9,1.386-3.075,2.459-5.586,3.166-7.335.361-.871.618-1.557.8-2.02.08-.216.145-.389.2-.529a.822.822,0,0,0,.056-.186.711.711,0,0,0-.092.171c-.061.137-.137.305-.231.515L365.6,169.1c-.747,1.731-1.857,4.223-3.273,7.282-2.8,6.13-7.01,14.444-11.2,23.857-2.074,4.711-3.9,9.272-5.338,13.5a106.713,106.713,0,0,0-3.256,11.4,79.322,79.322,0,0,0-1.374,7.873c-.129.935-.172,1.667-.221,2.161-.018.229-.033.415-.045.564a.743.743,0,0,0,0,.193" transform="translate(121.524 59.329)" fill="#263238"/>
        <path id="Trazado_255113" data-name="Trazado 255113" d="M338.288,225.08a7.456,7.456,0,0,0,.239-1.194c.142-.833.328-1.934.553-3.264.49-2.752,1.237-6.541,2.311-10.666s2.261-7.8,3.182-10.44l1.111-3.119a7.781,7.781,0,0,0,.378-1.157,7.465,7.465,0,0,0-.514,1.1c-.307.722-.734,1.772-1.225,3.083a103.092,103.092,0,0,0-3.3,10.434,108.312,108.312,0,0,0-2.21,10.718c-.2,1.385-.357,2.508-.435,3.287a7.538,7.538,0,0,0-.095,1.214" transform="translate(120.594 69.602)" fill="#263238"/>
        <rect id="Rectángulo_52400" data-name="Rectángulo 52400" width="27.719" height="33.773" transform="translate(444.308 293.661)" fill="#ff725e"/>
        <g id="Grupo_166531" data-name="Grupo 166531" transform="translate(444.308 293.661)" opacity="0.3">
          <g id="Grupo_166530" data-name="Grupo 166530">
            <g id="Grupo_166529" data-name="Grupo 166529" clip-path="url(#clip-path-4)">
              <rect id="Rectángulo_52401" data-name="Rectángulo 52401" width="27.719" height="33.773" transform="translate(0 0)"/>
            </g>
          </g>
        </g>
        <rect id="Rectángulo_52403" data-name="Rectángulo 52403" width="24.592" height="33.773" transform="translate(453.149 293.661)" fill="#ff725e"/>
      </g>
    </g>
    <rect id="Rectángulo_52405" data-name="Rectángulo 52405" width="54.032" height="36.42" transform="matrix(0.952, -0.305, 0.305, 0.952, 171.496, 31.94)" fill="#a3314f"/>
    <g id="Grupo_166535" data-name="Grupo 166535">
      <g id="Grupo_166534" data-name="Grupo 166534" clip-path="url(#clip-path)">
        <path id="Trazado_255114" data-name="Trazado 255114" d="M178.106,11.669a3.808,3.808,0,0,1-.331.616c-.26.431-.6,1-1.031,1.713l-3.871,6.262c-3.336,5.3-7.9,12.565-12.959,20.609l-.106.17-.189-.072-.454-.174-23.031-8.85-6.96-2.733-1.883-.766a3.9,3.9,0,0,1-.644-.3,3.809,3.809,0,0,1,.68.206l1.915.68c1.706.631,4.091,1.51,7.016,2.588,5.95,2.248,14.089,5.32,23.082,8.715l.454.174-.294.1,13.081-20.53c1.67-2.576,3.029-4.676,4-6.179l1.108-1.664a3.752,3.752,0,0,1,.414-.563" transform="translate(45.148 4.16)" fill="#263238"/>
        <path id="Trazado_255115" data-name="Trazado 255115" d="M134.834,56.371c-.125-.052,2.222-6.046,5.243-13.386s5.571-13.25,5.7-13.2-2.222,6.043-5.243,13.386-5.571,13.25-5.7,13.2" transform="translate(48.065 10.618)" fill="#263238"/>
        <path id="Trazado_255116" data-name="Trazado 255116" d="M155.405,25.43c.076-.113,5.411,3.383,11.914,7.807s11.716,8.1,11.64,8.214-5.411-3.383-11.915-7.808-11.715-8.1-11.639-8.212" transform="translate(55.4 9.065)" fill="#263238"/>
      </g>
    </g>
    <g id="Grupo_166543" data-name="Grupo 166543">
      <g id="Grupo_166542" data-name="Grupo 166542" clip-path="url(#clip-path)">
        <path id="Trazado_255117" data-name="Trazado 255117" d="M342.868,87.675l-38.3-16.226a5.2,5.2,0,0,1-2.762-6.822l22.459-53.014a5.2,5.2,0,0,1,6.822-2.762l24.291,10.29,10.593,27.345L349.691,84.913a5.205,5.205,0,0,1-6.823,2.762" transform="translate(107.443 3.008)" fill="#a3314f"/>
        <path id="Trazado_255118" data-name="Trazado 255118" d="M342.951,16.328l-6.321,14.92a4.842,4.842,0,0,0,2.569,6.346l14.345,6.08Z" transform="translate(119.868 5.821)" fill="#ff725e"/>
        <g id="Grupo_166538" data-name="Grupo 166538" transform="translate(455.729 38.462)" opacity="0.2">
          <g id="Grupo_166537" data-name="Grupo 166537">
            <g id="Grupo_166536" data-name="Grupo 166536" clip-path="url(#clip-path-7)">
              <path id="Trazado_255119" data-name="Trazado 255119" d="M336.372,28.354a5.382,5.382,0,0,0,1.894,6.473,4.721,4.721,0,0,0,.427.307c1.731,1.129,13.134,8.546,13.253,8.262l1.7-4.008L339.3,33.309s-3.53-1.64-2.926-4.955" transform="translate(-335.962 -28.354)"/>
            </g>
          </g>
        </g>
        <g id="Grupo_166541" data-name="Grupo 166541" transform="translate(456.113 22.149)" opacity="0.3">
          <g id="Grupo_166540" data-name="Grupo 166540">
            <g id="Grupo_166539" data-name="Grupo 166539" clip-path="url(#clip-path-8)">
              <path id="Trazado_255120" data-name="Trazado 255120" d="M342.951,16.328l-6.321,14.92a4.842,4.842,0,0,0,2.569,6.346l14.345,6.08Z" transform="translate(-336.245 -16.328)" fill="#fff"/>
            </g>
          </g>
        </g>
        <path id="Trazado_255121" data-name="Trazado 255121" d="M339.009,27.853c-.081.191-4.114-1.333-9.007-3.406s-8.794-3.909-8.713-4.1,4.113,1.333,9.007,3.406,8.794,3.909,8.713,4.1" transform="translate(114.536 7.247)" fill="#fafafa"/>
        <path id="Trazado_255122" data-name="Trazado 255122" d="M347.819,38.917c-.081.193-6.677-2.419-14.729-5.829s-14.516-6.333-14.436-6.525,6.675,2.419,14.73,5.829,14.516,6.333,14.434,6.525" transform="translate(113.597 9.466)" fill="#fafafa"/>
        <path id="Trazado_255123" data-name="Trazado 255123" d="M348.245,45.224c-.081.191-7.264-2.668-16.042-6.386s-15.83-6.89-15.749-7.081,7.263,2.667,16.043,6.386,15.829,6.89,15.748,7.081" transform="translate(112.813 11.318)" fill="#fafafa"/>
        <path id="Trazado_255124" data-name="Trazado 255124" d="M346.169,50.123c-.081.193-7.264-2.668-16.042-6.386s-15.829-6.89-15.749-7.081,7.263,2.667,16.043,6.386,15.829,6.89,15.747,7.081" transform="translate(112.073 13.064)" fill="#fafafa"/>
        <path id="Trazado_255125" data-name="Trazado 255125" d="M344.094,55.023c-.081.191-7.264-2.668-16.042-6.386s-15.83-6.89-15.749-7.081,7.263,2.667,16.043,6.386,15.829,6.89,15.747,7.081" transform="translate(111.333 14.811)" fill="#fafafa"/>
        <path id="Trazado_255126" data-name="Trazado 255126" d="M342.018,59.922c-.081.191-7.264-2.668-16.042-6.386s-15.829-6.89-15.749-7.081,7.263,2.667,16.043,6.386,15.829,6.89,15.747,7.081" transform="translate(110.593 16.557)" fill="#fafafa"/>
      </g>
    </g>
    <g id="Grupo_166545" data-name="Grupo 166545">
      <g id="Grupo_166544" data-name="Grupo 166544" clip-path="url(#clip-path)">
        <path id="Trazado_255127" data-name="Trazado 255127" d="M301,51.111A50.659,50.659,0,1,1,250.337.451,50.659,50.659,0,0,1,301,51.111" transform="translate(71.183 0.161)" fill="#fff"/>
        <path id="Trazado_255128" data-name="Trazado 255128" d="M301.089,51.187s-.038-.278-.077-.819c-.037-.568-.09-1.366-.157-2.405q-.047-.8-.106-1.77c-.069-.648-.208-1.351-.321-2.115a37.056,37.056,0,0,0-1.055-5.227,48.338,48.338,0,0,0-5.613-13.433,50.622,50.622,0,0,0-34.033-23.7,46.813,46.813,0,0,0-6.369-.735c-1.085-.038-2.18-.144-3.281-.126l-3.333.172c-.558.039-1.123.035-1.682.11l-1.678.259c-1.12.184-2.26.316-3.387.549a53.31,53.31,0,0,0-6.712,1.971A52.479,52.479,0,0,0,226.72,6.8c-1.063.577-2.082,1.248-3.134,1.872-.515.33-1.065.61-1.556.983l-1.481,1.11a56.8,56.8,0,0,0-5.708,4.851,57.063,57.063,0,0,0-4.929,5.833l-1.157,1.548-1.013,1.656-1.012,1.666a12.586,12.586,0,0,0-.937,1.716q-.851,1.766-1.708,3.549-.68,1.856-1.365,3.726a53.687,53.687,0,0,0-2.6,15.871,53.782,53.782,0,0,0,2.592,15.879q.686,1.87,1.365,3.726.859,1.782,1.709,3.55a12.347,12.347,0,0,0,.936,1.716l1.012,1.667,1.013,1.656,1.157,1.549a56.935,56.935,0,0,0,4.931,5.833,56.34,56.34,0,0,0,5.709,4.854l1.481,1.11c.49.373,1.04.654,1.556.983,1.051.625,2.071,1.3,3.134,1.873a52.5,52.5,0,0,0,6.564,2.885A53.169,53.169,0,0,0,240,100.431c1.126.233,2.267.365,3.387.551l1.678.258c.559.075,1.125.071,1.682.11l3.333.172c1.1.018,2.2-.088,3.283-.126a46.812,46.812,0,0,0,6.369-.735A50.628,50.628,0,0,0,293.76,76.953a48.287,48.287,0,0,0,5.612-13.433,36.635,36.635,0,0,0,1.055-5.224c.114-.765.254-1.468.321-2.116.039-.648.075-1.24.107-1.77.066-1.038.119-1.835.156-2.4.039-.541.077-.819.077-.819s.011.278-.005.821c-.02.57-.049,1.37-.087,2.412q-.033.8-.072,1.778c-.058.651-.186,1.358-.29,2.127a36.234,36.234,0,0,1-1,5.263,48.039,48.039,0,0,1-5.54,13.568,50.92,50.92,0,0,1-34.264,24.08,47.416,47.416,0,0,1-6.441.764c-1.1.041-2.206.149-3.322.136l-3.374-.167c-.564-.037-1.137-.034-1.7-.106l-1.7-.258c-1.134-.186-2.288-.316-3.431-.551a53.757,53.757,0,0,1-6.8-1.982,52.906,52.906,0,0,1-6.656-2.912c-1.077-.582-2.112-1.26-3.178-1.892-.522-.334-1.08-.617-1.578-.994l-1.5-1.122a57.189,57.189,0,0,1-5.791-4.912,57.54,57.54,0,0,1-5.005-5.908l-1.173-1.569-1.03-1.678L206.121,76.4a12.78,12.78,0,0,1-.951-1.74q-.865-1.791-1.735-3.6-.69-1.882-1.386-3.779a54.408,54.408,0,0,1-2.632-16.1,54.373,54.373,0,0,1,2.636-16.093q.7-1.9,1.386-3.778.871-1.8,1.734-3.6a12.773,12.773,0,0,1,.952-1.739l1.027-1.689,1.028-1.678,1.175-1.568a57.512,57.512,0,0,1,5-5.906,57.306,57.306,0,0,1,5.789-4.91l1.5-1.122c.5-.376,1.055-.661,1.578-.994,1.066-.631,2.1-1.309,3.178-1.891A52.778,52.778,0,0,1,233.062,3.3a53.739,53.739,0,0,1,6.8-1.982c1.142-.235,2.3-.365,3.431-.551L245,.512c.566-.073,1.137-.069,1.7-.107L250.07.238c1.116-.014,2.223.095,3.322.136a47.2,47.2,0,0,1,6.441.764A50.914,50.914,0,0,1,294.1,25.215a48.048,48.048,0,0,1,5.54,13.569,36.077,36.077,0,0,1,1,5.263c.1.769.232,1.476.29,2.127q.039.979.072,1.78c.038,1.04.066,1.842.087,2.412.016.543.005.821.005.821" transform="translate(71.09 0.085)" fill="#263238"/>
        <path id="Trazado_255129" data-name="Trazado 255129" d="M261.828,43.152a12.705,12.705,0,0,1-2.044.585l-5.653,1.35c-4.788,1.114-11.438,2.611-18.862,4.242l-.429.095V47.508c0-7.938.039-15.124.1-20.326.046-2.508.084-4.584.113-6.158a13.863,13.863,0,0,1,.137-2.259,13.937,13.937,0,0,1,.138,2.259c.028,1.575.066,3.65.111,6.158.064,5.2.1,12.387.1,20.326,0,.506,0,1.008,0,1.476l-.427-.345c7.425-1.621,14.093-3.039,18.909-4.029l5.7-1.134a12.509,12.509,0,0,1,2.1-.324" transform="translate(83.719 6.69)" fill="#263238"/>
        <path id="Trazado_255130" data-name="Trazado 255130" d="M283.817,72.157a3.885,3.885,0,0,1,.224-.822c.155-.534.456-1.3.738-2.314a61.111,61.111,0,0,0,1.979-8.688,59.886,59.886,0,0,0-2.676-28.943,59.9,59.9,0,0,0-16.26-24.1,61.28,61.28,0,0,0-7.033-5.471C259.926,1.212,259.21.813,258.752.5a3.922,3.922,0,0,1-.695-.5,3.874,3.874,0,0,1,.765.372c.484.277,1.225.64,2.115,1.215a53.842,53.842,0,0,1,7.215,5.327,57.666,57.666,0,0,1,19.1,53.5,53.72,53.72,0,0,1-2.21,8.692c-.324,1.009-.667,1.759-.867,2.279a3.84,3.84,0,0,1-.357.773" transform="translate(91.995 0)" fill="#263238"/>
        <path id="Trazado_255131" data-name="Trazado 255131" d="M287.232,43.639c-.114,0-.18-2.018-.594-5.244a61.468,61.468,0,0,0-8.162-23.838c-1.655-2.8-2.842-4.436-2.751-4.5a5.2,5.2,0,0,1,.944,1.069c.567.719,1.344,1.795,2.233,3.173a53.731,53.731,0,0,1,8.233,24.045c.146,1.633.19,2.96.187,3.875a5.359,5.359,0,0,1-.09,1.423" transform="translate(98.292 3.583)" fill="#263238"/>
        <path id="Trazado_255132" data-name="Trazado 255132" d="M201.939,16.164a3.794,3.794,0,0,1-.351.777c-.239.5-.657,1.209-1.1,2.168a61.254,61.254,0,0,0-3.334,8.262,59.885,59.885,0,0,0-1.957,29,59.853,59.853,0,0,0,12.222,26.376,60.989,60.989,0,0,0,6.073,6.519c.756.738,1.4,1.247,1.8,1.631a4.1,4.1,0,0,1,.606.6,3.6,3.6,0,0,1-.7-.488c-.433-.349-1.107-.826-1.894-1.536a53.718,53.718,0,0,1-6.276-6.407A58.624,58.624,0,0,1,194.5,56.5a58.629,58.629,0,0,1,2.177-29.287,53.8,53.8,0,0,1,3.565-8.233c.48-.943.939-1.632,1.218-2.112a3.953,3.953,0,0,1,.475-.707" transform="translate(69.004 5.762)" fill="#263238"/>
        <path id="Trazado_255133" data-name="Trazado 255133" d="M189.976,33.175c.113.015-.142,2.021-.247,5.271A61.439,61.439,0,0,0,194,63.278c1.188,3.028,2.1,4.832,2,4.885a5.331,5.331,0,0,1-.762-1.206c-.445-.8-1.04-1.986-1.7-3.488a53.759,53.759,0,0,1-4.305-25.048c.115-1.636.284-2.952.431-3.857a5.3,5.3,0,0,1,.315-1.39" transform="translate(67.414 11.827)" fill="#263238"/>
        <path id="Trazado_255134" data-name="Trazado 255134" d="M268.848,44.16c-1.911-.392-3.458-.724-3.454-.743s1.556.281,3.469.673,3.456.724,3.452.743-1.557-.282-3.467-.673" transform="translate(94.61 15.477)" fill="#263238"/>
        <path id="Trazado_255135" data-name="Trazado 255135" d="M265.114,53.856c-1.681-.99-3.036-1.807-3.026-1.823s1.38.773,3.062,1.763,3.034,1.807,3.025,1.823-1.381-.773-3.06-1.763" transform="translate(93.432 18.549)" fill="#263238"/>
        <path id="Trazado_255136" data-name="Trazado 255136" d="M258.425,61.8c-1.267-1.484-2.283-2.7-2.269-2.708s1.053,1.18,2.321,2.664,2.282,2.7,2.268,2.708-1.053-1.182-2.32-2.664" transform="translate(91.317 21.067)" fill="#263238"/>
        <path id="Trazado_255137" data-name="Trazado 255137" d="M249.528,67.157c-.72-1.814-1.29-3.288-1.272-3.295s.614,1.457,1.335,3.271,1.289,3.288,1.272,3.295-.614-1.458-1.335-3.271" transform="translate(88.5 22.766)" fill="#263238"/>
        <path id="Trazado_255138" data-name="Trazado 255138" d="M239.372,69.335c-.09-1.949-.146-3.53-.129-3.531s.106,1.579.2,3.528.148,3.53.129,3.53-.106-1.579-.2-3.527" transform="translate(85.287 23.458)" fill="#263238"/>
        <path id="Trazado_255139" data-name="Trazado 255139" d="M229.569,68.088c.545-1.873,1-3.387,1.021-3.382s-.408,1.527-.954,3.4-1,3.386-1.02,3.38.408-1.529.952-3.4" transform="translate(81.5 23.067)" fill="#263238"/>
        <path id="Trazado_255140" data-name="Trazado 255140" d="M220.763,63.567c1.127-1.593,2.052-2.876,2.067-2.865s-.884,1.31-2.012,2.9-2.051,2.874-2.066,2.864.884-1.31,2.01-2.9" transform="translate(77.983 21.64)" fill="#263238"/>
        <path id="Trazado_255141" data-name="Trazado 255141" d="M213.828,56.247c1.582-1.141,2.873-2.054,2.884-2.04s-1.263.954-2.845,2.094-2.873,2.056-2.884,2.04,1.263-.954,2.845-2.094" transform="translate(75.213 19.324)" fill="#263238"/>
        <path id="Trazado_255142" data-name="Trazado 255142" d="M209.489,46.937c1.867-.568,3.384-1.015,3.389-1s-1.5.492-3.37,1.061-3.383,1.015-3.387,1,1.5-.492,3.368-1.061" transform="translate(73.48 16.377)" fill="#263238"/>
        <path id="Trazado_255143" data-name="Trazado 255143" d="M208.24,36.7c1.949.072,3.53.146,3.53.164s-1.582-.024-3.532-.1-3.528-.146-3.528-.165,1.582.026,3.531.1" transform="translate(72.977 13.047)" fill="#263238"/>
        <path id="Trazado_255144" data-name="Trazado 255144" d="M210.207,27.111c1.823.7,3.294,1.278,3.287,1.3s-1.489-.533-3.311-1.23-3.294-1.276-3.287-1.294,1.491.532,3.311,1.229" transform="translate(73.756 9.227)" fill="#263238"/>
        <path id="Trazado_255145" data-name="Trazado 255145" d="M215.176,18.691c1.495,1.255,2.7,2.283,2.685,2.3s-1.233-.99-2.728-2.245-2.7-2.282-2.683-2.3,1.233.992,2.727,2.245" transform="translate(75.736 5.863)" fill="#263238"/>
        <path id="Trazado_255146" data-name="Trazado 255146" d="M222.611,12.344c1.008,1.67,1.814,3.032,1.8,3.041s-.846-1.336-1.854-3.007-1.812-3.03-1.8-3.04.846,1.336,1.854,3.006" transform="translate(78.698 3.329)" fill="#263238"/>
        <path id="Trazado_255147" data-name="Trazado 255147" d="M231.7,8.742c.412,1.907.733,3.456.714,3.46s-.366-1.54-.779-3.447S230.9,5.3,230.919,5.3s.366,1.538.779,3.444" transform="translate(82.32 1.889)" fill="#263238"/>
        <path id="Trazado_255148" data-name="Trazado 255148" d="M241.688,8.3c-.232,1.937-.435,3.505-.454,3.5s.155-1.575.387-3.512.435-3.505.454-3.5-.155,1.575-.387,3.511" transform="translate(85.997 1.707)" fill="#263238"/>
        <path id="Trazado_255149" data-name="Trazado 255149" d="M251.665,11.042c-.846,1.758-1.545,3.177-1.563,3.169s.654-1.441,1.5-3.2,1.545-3.177,1.561-3.167-.654,1.439-1.5,3.2" transform="translate(89.159 2.797)" fill="#263238"/>
        <path id="Trazado_255150" data-name="Trazado 255150" d="M260.148,16.689c-1.373,1.386-2.5,2.5-2.51,2.486s1.088-1.148,2.462-2.534,2.5-2.5,2.508-2.485-1.088,1.148-2.461,2.533" transform="translate(91.845 5.046)" fill="#263238"/>
        <path id="Trazado_255151" data-name="Trazado 255151" d="M266.22,24.619c-1.747.868-3.17,1.559-3.178,1.542s1.4-.734,3.148-1.6,3.169-1.559,3.177-1.542-1.4.734-3.147,1.6" transform="translate(93.772 8.205)" fill="#263238"/>
        <path id="Trazado_255152" data-name="Trazado 255152" d="M269.241,33.97c-1.934.254-3.505.444-3.507.425s1.563-.237,3.5-.491,3.5-.444,3.505-.425-1.564.237-3.5.491" transform="translate(94.732 11.935)" fill="#263238"/>
        <path id="Trazado_255153" data-name="Trazado 255153" d="M288.729,30.394c.175.087-1.125,3.044-2.9,6.6l-.079.159-.275.549-.336-.513c-2.139-3.261-3.726-5.96-3.566-6.066s2.01,2.421,4.156,5.678l-.61.037c.024-.05.052-.1.079-.159,1.776-3.561,3.357-6.377,3.532-6.29" transform="translate(100.374 10.834)" fill="#263238"/>
      </g>
    </g>
    <g id="Grupo_166562" data-name="Grupo 166562">
      <g id="Grupo_166561" data-name="Grupo 166561" clip-path="url(#clip-path)">
        <path id="Trazado_255154" data-name="Trazado 255154" d="M349.408,114.848H189.981a14.123,14.123,0,0,0,0,28.246h74.562l16.7,15.912V143.094h68.166a14.123,14.123,0,0,0,0-28.246" transform="translate(62.692 40.942)" fill="#fafafa"/>
        <path id="Trazado_255155" data-name="Trazado 255155" d="M349.5,114.938s.176-.008.524,0a10.188,10.188,0,0,1,1.546.117,13.881,13.881,0,0,1,5.651,2.074,14.208,14.208,0,0,1,3.87,20.293,14.425,14.425,0,0,1-6.083,4.862,15.578,15.578,0,0,1-4.093,1.039c-1.451.11-2.893.068-4.38.081l-19.205.034-46,.054.311-.309c0,4.981.008,10.384.012,15.912v.753l-.547-.52-16.709-15.9.233.094-63.413.015H190.156a14.475,14.475,0,0,1-11.073-23.877,14.344,14.344,0,0,1,9.163-4.938c1.766-.2,3.462-.1,5.163-.125l5.075,0,19.748.012,68.318.076,46.058.113,12.522.065,3.257.035c.734.012,1.11.037,1.11.037s-.376.024-1.11.037l-3.257.034-12.522.066-46.058.113-68.318.076-19.748.012h-5.075c-1.694.022-3.429-.064-5.077.125a13.772,13.772,0,0,0-7.812,23.568,13.815,13.815,0,0,0,9.637,3.862h11.062l63.413.015h.136l.1.094,16.69,15.921-.547.235c.005-5.528.009-10.931.014-15.912v-.311h.309l46,.056,19.205.034c1.481-.005,2.949.039,4.338-.06a15.167,15.167,0,0,0,3.98-.992,14.009,14.009,0,0,0-3.3-26.758c-1.346-.21-2.059-.171-2.056-.216" transform="translate(62.604 40.852)" fill="#263238"/>
        <path id="Trazado_255156" data-name="Trazado 255156" d="M258.652,137.861H188.821a9.979,9.979,0,0,1,0-19.958h69.831a9.979,9.979,0,1,1,0,19.958" transform="translate(63.756 42.031)" fill="#a3314f"/>
        <path id="Trazado_255161" data-name="Trazado 255161" d="M292.777,129.3h-2.02l-.511,2.592h-1.462l.526-2.592h-5.861l.2-1.054,6.705-6.9h1.7l-6.42,6.66h3.979l.468-2.291h1.4l-.452,2.291h2Z" transform="translate(101.047 43.259)" fill="#263238"/>
        <path id="Trazado_255162" data-name="Trazado 255162" d="M294.608,122.656l-.875,2.893h1.026c2.7,0,3.918,1.115,3.918,2.817,0,2.185-1.792,3.646-4.49,3.646a4.952,4.952,0,0,1-3.692-1.325l.8-1.161a3.968,3.968,0,0,0,3,1.146c1.822,0,2.878-.8,2.878-2.141,0-1.039-.754-1.673-2.683-1.673h-2.562l1.643-5.514h5.952l-.255,1.31Z" transform="translate(103.558 43.259)" fill="#263238"/>
        <path id="Trazado_255163" data-name="Trazado 255163" d="M297.828,124.726c0-1.838,1.1-3.436,2.879-3.436a2.043,2.043,0,0,1,2.124,2.291c0,1.838-1.085,3.435-2.878,3.435a2.043,2.043,0,0,1-2.124-2.29m9.357-3.36h1.206l-9.221,10.548h-1.236Zm-5.332,2.29c0-.994-.468-1.522-1.222-1.522-1.22,0-1.823,1.371-1.823,2.518,0,.993.467,1.521,1.221,1.521,1.221,0,1.824-1.37,1.824-2.516m1.671,6.058c0-1.838,1.085-3.436,2.878-3.436a2.039,2.039,0,0,1,2.109,2.29c0,1.839-1.069,3.437-2.878,3.437a2.033,2.033,0,0,1-2.109-2.291m4.008-1.07c0-.994-.468-1.522-1.221-1.522-1.2,0-1.823,1.371-1.823,2.516,0,.994.482,1.522,1.221,1.522,1.221,0,1.823-1.371,1.823-2.516" transform="translate(106.173 43.239)" fill="#263238"/>
        <g id="Grupo_166548" data-name="Grupo 166548" transform="translate(248.812 159.934)" opacity="0.3">
          <g id="Grupo_166547" data-name="Grupo 166547">
            <g id="Grupo_166546" data-name="Grupo 166546" clip-path="url(#clip-path-11)">
              <path id="Trazado_255164" data-name="Trazado 255164" d="M189.891,117.9l-6.468,19.958h6.468l6.083-19.958Z" transform="translate(-183.423 -117.903)" fill="#fff"/>
            </g>
          </g>
        </g>
        <g id="Grupo_166551" data-name="Grupo 166551" transform="translate(264.79 159.934)" opacity="0.3">
          <g id="Grupo_166550" data-name="Grupo 166550">
            <g id="Grupo_166549" data-name="Grupo 166549" clip-path="url(#clip-path-11)">
              <path id="Trazado_255165" data-name="Trazado 255165" d="M201.67,117.9,195.2,137.861h6.468l6.082-19.958Z" transform="translate(-195.202 -117.903)" fill="#fff"/>
            </g>
          </g>
        </g>
        <g id="Grupo_166554" data-name="Grupo 166554" transform="translate(280.768 159.934)" opacity="0.3">
          <g id="Grupo_166553" data-name="Grupo 166553">
            <g id="Grupo_166552" data-name="Grupo 166552" clip-path="url(#clip-path-13)">
              <path id="Trazado_255166" data-name="Trazado 255166" d="M213.448,117.9l-6.468,19.958h6.468l6.082-19.958Z" transform="translate(-206.981 -117.903)" fill="#fff"/>
            </g>
          </g>
        </g>
        <g id="Grupo_166557" data-name="Grupo 166557" transform="translate(296.745 159.934)" opacity="0.3">
          <g id="Grupo_166556" data-name="Grupo 166556">
            <g id="Grupo_166555" data-name="Grupo 166555" clip-path="url(#clip-path-11)">
              <path id="Trazado_255167" data-name="Trazado 255167" d="M225.227,117.9l-6.468,19.958h6.468l6.082-19.958Z" transform="translate(-218.759 -117.903)" fill="#fff"/>
            </g>
          </g>
        </g>
        <g id="Grupo_166560" data-name="Grupo 166560" transform="translate(312.723 159.934)" opacity="0.3">
          <g id="Grupo_166559" data-name="Grupo 166559">
            <g id="Grupo_166558" data-name="Grupo 166558" clip-path="url(#clip-path-11)">
              <path id="Trazado_255168" data-name="Trazado 255168" d="M237.006,117.9l-6.468,19.958h6.468l6.082-19.958Z" transform="translate(-230.538 -117.903)" fill="#fff"/>
            </g>
          </g>
        </g>
      </g>
    </g>
    <g id="Grupo_166582" data-name="Grupo 166582">
      <g id="Grupo_166581" data-name="Grupo 166581" clip-path="url(#clip-path)">
        <path id="Trazado_255169" data-name="Trazado 255169" d="M56.8,326.424S91.15,341.9,126.93,341.9c33.135,0,68.2-16.681,68.2-16.681Z" transform="translate(20.248 115.939)" fill="#e0e0e0"/>
        <rect id="Rectángulo_52417" data-name="Rectángulo 52417" width="14.19" height="148.632" transform="translate(136.733 442.653)" fill="#e0e0e0"/>
        <rect id="Rectángulo_52418" data-name="Rectángulo 52418" width="125.943" height="8.714" transform="translate(80.856 582.571)" fill="#e0e0e0"/>
        <path id="Trazado_255170" data-name="Trazado 255170" d="M76.021,440.521a9.611,9.611,0,1,1-9.612-9.612,9.612,9.612,0,0,1,9.612,9.612" transform="translate(20.248 153.615)" fill="#263238"/>
        <path id="Trazado_255171" data-name="Trazado 255171" d="M117.276,440.521a9.611,9.611,0,1,1-9.612-9.612,9.612,9.612,0,0,1,9.612,9.612" transform="translate(34.955 153.615)" fill="#263238"/>
        <path id="Trazado_255172" data-name="Trazado 255172" d="M165.065,440.521a9.611,9.611,0,1,1-9.612-9.612,9.612,9.612,0,0,1,9.612,9.612" transform="translate(51.991 153.615)" fill="#263238"/>
        <rect id="Rectángulo_52419" data-name="Rectángulo 52419" width="19.301" height="7.987" transform="translate(127.876 496.149)" fill="#e0e0e0"/>
        <rect id="Rectángulo_52420" data-name="Rectángulo 52420" width="7.029" height="19.17" transform="translate(124.362 490.557)" fill="#e0e0e0"/>
        <path id="Trazado_255173" data-name="Trazado 255173" d="M116.043,366.654H42.719V175.077a15.746,15.746,0,0,1,15.745-15.746h57.579Z" transform="translate(15.229 56.8)" fill="#455a64"/>
        <path id="Trazado_255174" data-name="Trazado 255174" d="M54.78,362.655c-.2,0-.354-44.985-.354-100.464,0-55.5.157-100.473.354-100.473s.351,44.974.351,100.473c0,55.479-.157,100.464-.351,100.464" transform="translate(19.402 57.651)" fill="#263238"/>
        <path id="Trazado_255175" data-name="Trazado 255175" d="M224.232,334.4H53.511a10.792,10.792,0,0,1-10.792-10.792V311.855H224.232Z" transform="translate(15.229 111.173)" fill="#455a64"/>
        <path id="Trazado_255176" data-name="Trazado 255176" d="M120.641,107.689l-7.861,75.006c-1.338,12.755-.695,31.765,19.569,32.959,17.659-.289,23.824-16.412,25.058-28.317.586-5.646,1.087-10.354,1.184-10.931,0,0,19.283.2,22.643-18.549,1.624-9.063,3.447-28,4.9-45.155a35.486,35.486,0,0,0-29.55-37.98l-1.812-.3c-19.742-2.112-32.565,13.475-34.129,33.269" transform="translate(40.053 26.461)" fill="#ffbe9d"/>
        <path id="Trazado_255177" data-name="Trazado 255177" d="M152.555,152.524s-11.962-1.276-23.265-11.306c0,0,3.686,14.721,22.718,16.149Z" transform="translate(46.091 50.343)" fill="#eb996e"/>
        <path id="Trazado_255178" data-name="Trazado 255178" d="M145.435,107.133c-.411.35-2.431-1.609-5.591-1.987-3.15-.423-5.667.959-5.962.521-.148-.2.308-.86,1.407-1.491a7.988,7.988,0,0,1,4.833-.9,7.67,7.67,0,0,1,4.391,2.074c.879.882,1.122,1.632.922,1.784" transform="translate(47.718 36.794)" fill="#263238"/>
        <path id="Trazado_255179" data-name="Trazado 255179" d="M143.508,112.178a2.577,2.577,0,0,1-2.876,2.154,2.462,2.462,0,0,1-2.236-2.725,2.576,2.576,0,0,1,2.872-2.155,2.465,2.465,0,0,1,2.24,2.727" transform="translate(49.33 39.012)" fill="#263238"/>
        <path id="Trazado_255180" data-name="Trazado 255180" d="M146.742,129.265c.014-.167,1.861-.178,4.832-.066.75.047,1.472.018,1.679-.465a3.8,3.8,0,0,0-.128-2.268q-.6-2.851-1.247-5.978c-1.7-8.5-2.8-15.438-2.454-15.5s2,6.77,3.7,15.269q.6,3.14,1.15,6a4.338,4.338,0,0,1-.1,2.959,1.875,1.875,0,0,1-1.39.876,5.067,5.067,0,0,1-1.282-.035c-2.954-.33-4.772-.619-4.756-.784" transform="translate(52.312 37.426)" fill="#263238"/>
        <path id="Trazado_255181" data-name="Trazado 255181" d="M145.316,98c-.37.674-2.857-.088-5.908-.213-3.048-.189-5.608.316-5.9-.392-.125-.338.407-.941,1.5-1.473a9.633,9.633,0,0,1,4.561-.84,9.512,9.512,0,0,1,4.433,1.3c1.021.639,1.48,1.294,1.316,1.616" transform="translate(47.589 33.893)" fill="#263238"/>
        <path id="Trazado_255182" data-name="Trazado 255182" d="M167.023,104.416c-.385.543-2.8-.321-5.784-.69-2.982-.423-5.507-.214-5.769-.842-.111-.3.43-.766,1.515-1.125a10.5,10.5,0,0,1,4.5-.323,10.839,10.839,0,0,1,4.3,1.491c.981.632,1.409,1.229,1.237,1.489" transform="translate(55.418 36.124)" fill="#263238"/>
        <path id="Trazado_255183" data-name="Trazado 255183" d="M121.609,109.723c-.3-.191-12.278-5.967-14,6.948s11.6,11.986,11.669,11.62,2.336-18.568,2.336-18.568" transform="translate(38.305 38.598)" fill="#ffbe9d"/>
        <path id="Trazado_255184" data-name="Trazado 255184" d="M115.1,121.809c-.053-.049-.248.128-.651.251a2.277,2.277,0,0,1-1.687-.19c-1.3-.684-2.155-3-1.907-5.341a7.474,7.474,0,0,1,1.062-3.136,2.62,2.62,0,0,1,1.924-1.5,1.158,1.158,0,0,1,1.245.795c.123.384.007.631.075.662.03.037.3-.179.271-.727a1.446,1.446,0,0,0-.4-.876,1.711,1.711,0,0,0-1.2-.5,3.189,3.189,0,0,0-2.618,1.687,7.734,7.734,0,0,0-1.262,3.5c-.266,2.614.743,5.228,2.537,6.017a2.434,2.434,0,0,0,2.1-.066c.442-.266.549-.547.509-.575" transform="translate(39.183 39.658)" fill="#eb996e"/>
        <path id="Trazado_255185" data-name="Trazado 255185" d="M145.488,131.652c.172-.315-2.3-1.309-3.863-3.857a14.623,14.623,0,0,1-1.483-3.553c-.292-.975-.524-1.593-.667-1.563s-.161.67-.047,1.713a9.618,9.618,0,0,0,1.318,3.946,7.792,7.792,0,0,0,3.078,2.842c.952.492,1.62.579,1.664.471" transform="translate(49.679 43.734)" fill="#263238"/>
        <path id="Trazado_255186" data-name="Trazado 255186" d="M106.906,102.225c3.124-4.323,4.257-9.722,6.2-14.688s5.278-9.989,10.445-11.31l.109.06c4.658-1.392,10.2-.907,13.6,2.552,1.536-6.654,7.934-11.445,14.672-12.564s17.191.883,23.265,4.006c4.695,2.412,9.038,6.868,14.224,13.306a63.9,63.9,0,0,1,5.875,8.627l4.09,18.189-5.754,8.809c-.351.6-.712,1.2-1.137,1.795v-.043l-6.218,19.11c.212-5.349,2.307-23.827,2.519-29.175a29.813,29.813,0,0,1-20.252-11.723c-2.61-3.488-4.523-7.733-8.234-10.016-4.784-2.942-10.927-1.689-16.378-.34l.243-.182a23.836,23.836,0,0,0-7.811,4.609,74.085,74.085,0,0,1-6.076,30.935c-.636,1.464-2.275,4.448-3.809,4.885-3.015.856-3.526-2.18-5.133-3.918-1.183-1.278-3.083-1.6-5.175-1.792a116.7,116.7,0,0,1-2.318-13.782,11.872,11.872,0,0,1-5.475-.14l2.043-3.852a6.207,6.207,0,0,1-2.425.838,2.119,2.119,0,0,1-2.12-1.165c-.4-1.04.374-2.124,1.028-3.029" transform="translate(37.705 23.514)" fill="#263238"/>
        <path id="Trazado_255187" data-name="Trazado 255187" d="M141.265,77.459a16.248,16.248,0,0,0-2.056,1.56,13.607,13.607,0,0,0-3.482,6.011,23.941,23.941,0,0,0-.926,4.76c-.168,1.742-.2,3.619-.248,5.6a50.272,50.272,0,0,1-.43,6.214,21.92,21.92,0,0,1-.728,3.233,6.852,6.852,0,0,1-1.628,3.049,2.868,2.868,0,0,1-2.751.651,4.272,4.272,0,0,1-2.276-1.578,9.841,9.841,0,0,1-1.378-4.977l.392.084a15.878,15.878,0,0,1-2.666,3.749,5.654,5.654,0,0,1-3.863,1.664,3.647,3.647,0,0,1-1.918-.521,3.16,3.16,0,0,1-1.2-1.427,3.248,3.248,0,0,1-.247-1.713,2.358,2.358,0,0,1,.742-1.415l.184.2a12.249,12.249,0,0,1-4.343,2.674,11.1,11.1,0,0,1-1.3.372,2.025,2.025,0,0,1-.461.071,2.213,2.213,0,0,1,.444-.142c.292-.09.726-.22,1.271-.435a12.662,12.662,0,0,0,4.205-2.731l.184.2a2.434,2.434,0,0,0-.384,2.8,2.842,2.842,0,0,0,1.091,1.266,3.318,3.318,0,0,0,1.74.45,5.3,5.3,0,0,0,3.591-1.588,15.686,15.686,0,0,0,2.572-3.672l.328-.582.065.666a9.529,9.529,0,0,0,1.31,4.755,3.845,3.845,0,0,0,2.037,1.412,2.42,2.42,0,0,0,2.339-.551,6.469,6.469,0,0,0,1.506-2.855,21.628,21.628,0,0,0,.72-3.165,50.956,50.956,0,0,0,.45-6.161c.06-1.975.106-3.861.292-5.621a23.8,23.8,0,0,1,.993-4.818,13.443,13.443,0,0,1,3.664-6.043,7.732,7.732,0,0,1,2.174-1.432" transform="translate(39.454 27.613)" fill="#455a64"/>
        <path id="Trazado_255188" data-name="Trazado 255188" d="M189.812,103.794c0,.007-.052.045-.164.115l-.5.3a6.337,6.337,0,0,1-.849.44,10.149,10.149,0,0,1-1.206.5,16.845,16.845,0,0,1-8.228.709,21.521,21.521,0,0,1-11.023-5.267,37.241,37.241,0,0,1-8.762-12.206c-1.165-2.416-2.069-4.867-3.105-7.149a25.152,25.152,0,0,0-3.694-6.146,12.966,12.966,0,0,0-5.144-3.81,9.284,9.284,0,0,0-2.843-.6,10.251,10.251,0,0,0-2.678.262,11,11,0,0,0-6.55,4.582,13.146,13.146,0,0,0-1.237,2.744.639.639,0,0,1,.034-.2c.038-.155.085-.342.142-.571a9.487,9.487,0,0,1,.914-2.069,10.823,10.823,0,0,1,2.382-2.675,11.113,11.113,0,0,1,4.242-2.119,10.378,10.378,0,0,1,2.765-.3,9.549,9.549,0,0,1,2.96.593,13.3,13.3,0,0,1,5.324,3.888,25.391,25.391,0,0,1,3.779,6.234c1.05,2.3,1.955,4.744,3.109,7.138a37.277,37.277,0,0,0,8.631,12.088,21.371,21.371,0,0,0,10.8,5.265,17.1,17.1,0,0,0,8.123-.562,26.9,26.9,0,0,0,2.779-1.192" transform="translate(47.707 25.075)" fill="#455a64"/>
        <path id="Trazado_255189" data-name="Trazado 255189" d="M166.639,109.978c-.411.347-2.432-1.612-5.591-1.989-3.15-.423-5.667.959-5.962.521-.148-.2.308-.86,1.407-1.489a7.966,7.966,0,0,1,4.832-.9,7.661,7.661,0,0,1,4.391,2.073c.88.882,1.123,1.632.924,1.785" transform="translate(55.277 37.808)" fill="#263238"/>
        <path id="Trazado_255190" data-name="Trazado 255190" d="M162.965,113.989a2.574,2.574,0,0,1-2.874,2.154,2.463,2.463,0,0,1-2.236-2.725,2.575,2.575,0,0,1,2.872-2.155,2.463,2.463,0,0,1,2.238,2.727" transform="translate(56.267 39.658)" fill="#263238"/>
        <path id="Trazado_255191" data-name="Trazado 255191" d="M171.543,83.6c1.385,2.291,3.654,4.485,6.331,4.479a20.007,20.007,0,0,0,2.9-.532c.865.658.316,3.8-.412,4.607a17.067,17.067,0,0,1-2.2,1.845c2.93,2,5.844,1.47,9.281.606a16.328,16.328,0,0,1-11.008,12c-1.742.529-3.808.7-5.224-.446-1.248-1.007-1.624-2.722-1.865-4.306a71.5,71.5,0,0,1-.5-17.607Z" transform="translate(60.078 29.803)" fill="#263238"/>
        <path id="Trazado_255192" data-name="Trazado 255192" d="M146.429,162.521s11.933,4.854,18.739,21.376c4.778,11.607,31.331,48.26,31.331,48.26l70.623,15.681,2.412,22.525-112.955-.931-15.7-49.984Z" transform="translate(50.222 57.937)" fill="#a3314f"/>
        <path id="Trazado_255193" data-name="Trazado 255193" d="M128.848,149.981l-12.539,5.265c-11.6,4.867-26.439,16.057-31.41,27.609-11.955,27.789-22.77,63.6-26.926,95.26-4.189,31.915,4.156,79.146,4.156,79.146l105.988-60.566-6.194-4.335,20.084-109.273-3.744-13.228,2.5-11.184s-28.12-11.3-48.607-19.382Z" transform="translate(20.248 49.656)" fill="#a3314f"/>
        <g id="Grupo_166565" data-name="Grupo 166565" transform="translate(76.966 336.982)" opacity="0.3">
          <g id="Grupo_166564" data-name="Grupo 166564">
            <g id="Grupo_166563" data-name="Grupo 166563" clip-path="url(#clip-path-17)">
              <path id="Trazado_255194" data-name="Trazado 255194" d="M118.744,286.776q.59-8.186,1.179-16.37a7.191,7.191,0,0,1-4.589,1.966,48.046,48.046,0,0,0,7-8.429l-4.825,2.073a14.255,14.255,0,0,0,4.107-4.885c-2.588-2.028-6.24-1.69-9.512-1.359-16.761,1.7-33.665.572-50.475-.553a11.533,11.533,0,0,1-4.817-1.422s-.343-4.613.406-6.328,1.907-1.226,3.671-1.854a19.438,19.438,0,0,1,5.526-.852c20.472-1.078,40.977.609,61.407,2.294a6.388,6.388,0,0,1,3.589,1.04c1.668,1.359,1.529,3.9,1.238,6.035l-3.117,22.932" transform="translate(-56.739 -248.422)"/>
            </g>
          </g>
        </g>
        <path id="Trazado_255195" data-name="Trazado 255195" d="M153.5,168.337a5.65,5.65,0,0,1-.1,1.026c-.108.734-.251,1.7-.43,2.916-.387,2.531-.992,6.187-1.795,10.695-1.591,9.017-4,21.435-6.854,35.11s-5.589,26.027-7.613,34.955c-1.017,4.4-1.846,7.994-2.439,10.563-.29,1.191-.524,2.143-.7,2.864a5.759,5.759,0,0,1-.29.989,5.482,5.482,0,0,1,.152-1.02c.144-.727.332-1.689.57-2.892.54-2.58,1.294-6.186,2.219-10.611,1.91-9.021,4.523-21.358,7.411-34.993,2.854-13.669,5.338-26.066,7.054-35.056.84-4.44,1.525-8.059,2.016-10.65q.348-1.8.559-2.895a5.55,5.55,0,0,1,.243-1" transform="translate(47.511 60.011)" fill="#263238"/>
        <path id="Trazado_255196" data-name="Trazado 255196" d="M77.515,293.453a4.348,4.348,0,0,1,.631-.644l1.9-1.747c.825-.76,1.849-1.671,3.079-2.683s2.594-2.21,4.19-3.422c3.135-2.5,7-5.313,11.409-8.261,4.436-2.907,9.43-5.928,14.837-8.8,5.425-2.842,10.739-5.259,15.643-7.28,4.924-1.976,9.426-3.58,13.261-4.754,1.9-.632,3.66-1.089,5.19-1.526s2.861-.775,3.953-1.027l2.515-.582a4.343,4.343,0,0,1,.887-.157,4.278,4.278,0,0,1-.853.294l-2.478.711c-1.081.293-2.4.661-3.913,1.141s-3.26.96-5.148,1.621c-3.8,1.233-8.273,2.88-13.165,4.882-4.874,2.046-10.157,4.472-15.562,7.3-5.387,2.861-10.37,5.853-14.809,8.721-4.414,2.906-8.3,5.666-11.461,8.11-1.612,1.184-3,2.347-4.244,3.333s-2.3,1.86-3.151,2.585l-1.986,1.645a4.377,4.377,0,0,1-.724.539" transform="translate(27.633 90.036)" fill="#263238"/>
        <path id="Trazado_255197" data-name="Trazado 255197" d="M129.814,253.219c.094.171-10.216,5.964-23.021,12.938s-23.268,12.491-23.361,12.32,10.213-5.963,23.024-12.94,23.265-12.489,23.359-12.318" transform="translate(29.742 90.269)" fill="#263238"/>
        <g id="Grupo_166568" data-name="Grupo 166568" transform="translate(122.31 259.76)" opacity="0.3">
          <g id="Grupo_166567" data-name="Grupo 166567">
            <g id="Grupo_166566" data-name="Grupo 166566" clip-path="url(#clip-path-18)">
              <path id="Trazado_255198" data-name="Trazado 255198" d="M90.166,191.494c6.58,28.433,26.689,53.915,53.472,65.512a634.143,634.143,0,0,1-53.472-65.512" transform="translate(-90.167 -191.494)"/>
            </g>
          </g>
        </g>
        <g id="Grupo_166571" data-name="Grupo 166571" transform="translate(192.445 238.114)" opacity="0.3">
          <g id="Grupo_166570" data-name="Grupo 166570">
            <g id="Grupo_166569" data-name="Grupo 166569" clip-path="url(#clip-path-19)">
              <path id="Trazado_255199" data-name="Trazado 255199" d="M148.749,175.536c2.594,12.039.667,27.074-5.373,37.808l-1.506-3.124c2.131-9.04,5.187-25.1,6.879-34.684" transform="translate(-141.87 -175.537)"/>
            </g>
          </g>
        </g>
        <path id="Trazado_255200" data-name="Trazado 255200" d="M202.879,390.341l-12.7,38.235s34.6,25.753,32.937,33.048l-75.019-21.97,17.35-60.387Z" transform="translate(52.794 135.205)" fill="#455a64"/>
        <g id="Grupo_166574" data-name="Grupo 166574" transform="translate(200.885 514.474)" opacity="0.3">
          <g id="Grupo_166573" data-name="Grupo 166573">
            <g id="Grupo_166572" data-name="Grupo 166572" clip-path="url(#clip-path-20)">
              <path id="Trazado_255201" data-name="Trazado 255201" d="M202.879,390.341l-12.7,38.235s34.6,25.753,32.937,33.048l-75.019-21.97,17.35-60.387Z" transform="translate(-148.092 -379.269)"/>
            </g>
          </g>
        </g>
        <path id="Trazado_255202" data-name="Trazado 255202" d="M163.543,408.221A3.191,3.191,0,0,0,160.4,411.1a3.066,3.066,0,0,0,2.823,3.139c1.567.057,3.394-1.5,3.311-3.063s-1.763-3.261-3.3-2.94" transform="translate(57.18 145.517)" fill="#e0e0e0"/>
        <g id="Grupo_166577" data-name="Grupo 166577" transform="translate(200.885 568.843)" opacity="0.6">
          <g id="Grupo_166576" data-name="Grupo 166576">
            <g id="Grupo_166575" data-name="Grupo 166575" clip-path="url(#clip-path-21)">
              <path id="Trazado_255203" data-name="Trazado 255203" d="M148.092,425.368l1.987-6.019,71.186,23.315s2.912,2.431,1.846,4.673Z" transform="translate(-148.092 -419.349)" fill="#fff"/>
            </g>
          </g>
        </g>
        <path id="Trazado_255204" data-name="Trazado 255204" d="M182.21,415.836c-.119.364-2-.008-4.147.643-2.165.593-3.558,1.909-3.854,1.664-.316-.17.871-2.2,3.485-2.942,2.607-.764,4.693.322,4.516.635" transform="translate(62.086 147.92)" fill="#263238"/>
        <path id="Trazado_255205" data-name="Trazado 255205" d="M186.9,419.793c-.02.38-1.789.537-3.488,1.723-1.732,1.135-2.537,2.718-2.9,2.6-.362-.042.012-2.263,2.153-3.7,2.126-1.451,4.324-.974,4.231-.623" transform="translate(64.31 149.522)" fill="#263238"/>
        <path id="Trazado_255206" data-name="Trazado 255206" d="M186.5,429.059c-.355-.019-.33-2,1.2-3.729s3.475-2.028,3.54-1.678c.118.362-1.309,1.114-2.542,2.553-1.266,1.411-1.823,2.925-2.2,2.854" transform="translate(66.42 150.981)" fill="#263238"/>
        <path id="Trazado_255207" data-name="Trazado 255207" d="M183.6,409.638c-.251.289-1.784-.708-3.9-1.175-2.1-.509-3.916-.285-4.015-.655-.134-.327,1.835-1.222,4.315-.639,2.484.564,3.861,2.234,3.6,2.469" transform="translate(62.628 145.083)" fill="#263238"/>
        <path id="Trazado_255208" data-name="Trazado 255208" d="M214.87,400.075l-1.582,40.259s40.39,15.129,40.821,22.6l-78.169-.265-.109-62.83Z" transform="translate(62.682 142.538)" fill="#455a64"/>
        <path id="Trazado_255209" data-name="Trazado 255209" d="M186.235,427.168a3.191,3.191,0,0,0-2.219,3.635,3.067,3.067,0,0,0,3.584,2.231c1.521-.381,2.845-2.381,2.33-3.862s-2.6-2.644-3.985-1.909" transform="translate(65.576 152.235)" fill="#e0e0e0"/>
        <g id="Grupo_166580" data-name="Grupo 166580" transform="translate(238.622 598.873)" opacity="0.6">
          <g id="Grupo_166579" data-name="Grupo 166579">
            <g id="Grupo_166578" data-name="Grupo 166578" clip-path="url(#clip-path-22)">
              <path id="Trazado_255210" data-name="Trazado 255210" d="M175.911,447.82l.236-6.333,74.861,2.622s3.475,1.526,3.074,3.976Z" transform="translate(-175.911 -441.487)" fill="#fff"/>
            </g>
          </g>
        </g>
        <path id="Trazado_255211" data-name="Trazado 255211" d="M206.255,429.5c-.014.383-1.924.548-3.8,1.769-1.914,1.172-2.888,2.823-3.239,2.67-.351-.075.225-2.355,2.53-3.793,2.292-1.46,4.6-1,4.514-.646" transform="translate(70.983 152.984)" fill="#263238"/>
        <path id="Trazado_255212" data-name="Trazado 255212" d="M211.781,431.963c.087.37-1.569,1.013-2.872,2.623-1.348,1.572-1.682,3.317-2.062,3.3-.359.058-.616-2.178,1.042-4.15,1.639-1.985,3.885-2.137,3.892-1.773" transform="translate(73.644 153.935)" fill="#263238"/>
        <path id="Trazado_255213" data-name="Trazado 255213" d="M213.942,440.9c-.347.08-.872-1.829.115-3.916s2.775-2.912,2.935-2.594c.214.313-.948,1.432-1.732,3.158-.825,1.706-.939,3.315-1.319,3.352" transform="translate(76.107 154.831)" fill="#263238"/>
        <path id="Trazado_255214" data-name="Trazado 255214" d="M206.031,422.972c-.163.347-1.911-.186-4.069-.046-2.161.1-3.842.814-4.04.486-.221-.277,1.423-1.683,3.968-1.812,2.542-.148,4.329,1.073,4.141,1.373" transform="translate(70.55 150.292)" fill="#263238"/>
        <path id="Trazado_255215" data-name="Trazado 255215" d="M152.553,254.68s93.694,24.356,105.323,40.571c9.83,13.709-41.754,153.792-41.754,153.792l-40.7-3.508,17.542-117.18L88,294.988l15.86-40.308Z" transform="translate(31.369 90.791)" fill="#263238"/>
        <path id="Trazado_255216" data-name="Trazado 255216" d="M168.983,275.247s95.778,23.275,105.462,39.81c4.52,7.718,1.556,33.054-.132,45.014-1.137,8.058-18.073,120.806-18.073,120.806h-41.4l.9-127.347-99.516-20.062s-53.42,4.069-55.5-18.714l22.294-30.216,52.629-26.013Z" transform="translate(21.649 92.161)" fill="#263238"/>
        <path id="Trazado_255217" data-name="Trazado 255217" d="M146.387,268.7s.475.111,1.39.362l4.064,1.133,15.619,4.368c6.781,1.9,15.081,4.216,24.672,7.071,9.58,2.885,20.464,6.289,32.249,10.753q8.851,3.308,18.284,7.535l4.75,2.153a46.673,46.673,0,0,1,4.666,2.592,30.637,30.637,0,0,1,4.352,3.279,15.754,15.754,0,0,1,3.486,4.354c3.233,14.677,1.274,30.719-1.119,47.119-1.047,8.261-2.392,16.686-3.658,25.308q-1.933,12.929-3.943,26.378c-2.682,17.918-5.459,36.469-8.3,55.468q-.808,5.394-1.609,10.734l-.045.3h-.3l-41.4-.007h-.35l0-.349c.373-48.272.709-91.977.983-127.346l.216.265-70.7-14.373-19.3-3.965-5.026-1.053c-1.133-.241-1.709-.385-1.709-.385s.587.091,1.725.307l5.041.978L129.75,335.5l70.744,14.141.217.043v.222c-.229,35.371-.513,79.077-.826,127.347l-.347-.349,41.4-.007-.349.3q.8-5.337,1.607-10.733c2.849-19,5.629-37.549,8.317-55.464q2.016-13.437,3.96-26.376c1.275-8.619,2.626-17.044,3.683-25.3q.836-6.186,1.65-12.214a107.748,107.748,0,0,0,1.046-11.92q.214-5.9-.012-11.629c-.077-1.907-.189-3.8-.351-5.666-.2-1.873-.224-3.759-1.093-5.34a15.186,15.186,0,0,0-3.349-4.19,30.19,30.19,0,0,0-4.269-3.227,46.176,46.176,0,0,0-4.6-2.569q-2.389-1.089-4.729-2.156-9.4-4.226-18.241-7.565c-11.758-4.489-22.624-7.922-32.187-10.842-9.574-2.889-17.864-5.243-24.633-7.185l-15.583-4.5-4.044-1.2c-.91-.274-1.371-.431-1.371-.431" transform="translate(36.951 95.787)" fill="#455a64"/>
        <path id="Trazado_255218" data-name="Trazado 255218" d="M235.438,228.871c.609-.913,8.521-10.043,10.653-10.043s4.566,2.435,4.566,2.435,2.739-1.218,4.565-.609,10.349,7.914,10.349,10.653v4.566a11.86,11.86,0,0,1,0,3.652c-.3,2.131-5.479,5.783-5.479,5.783H230.885S225.3,241.545,226,238s9.436-9.131,9.436-9.131" transform="translate(80.546 78.01)" fill="#ffbe9d"/>
        <path id="Trazado_255219" data-name="Trazado 255219" d="M245.431,220.624a11.845,11.845,0,0,1,1.823,1.036l4.829,3.044a14.806,14.806,0,0,1,1.6,1.092,4.209,4.209,0,0,1,1.181,1.823,8.86,8.86,0,0,1,.265,2.25q.059,1.131.121,2.325c.156,3.2.324,6.688.5,10.353q.039.838.075,1.66l.014.289-.281.069-1.788.442-.045.011h-.046a3.8,3.8,0,0,1-2.29-.861,6.352,6.352,0,0,1-1.474-1.769,15.492,15.492,0,0,1-1.531-3.93,35.1,35.1,0,0,1-1.007-7.02l.16.22-5.106-2.014a11.245,11.245,0,0,1-1.83-.823,11.079,11.079,0,0,1,1.924.571L247.7,231.2l.148.052.012.168a37.091,37.091,0,0,0,1.125,6.877,15.237,15.237,0,0,0,1.5,3.747,4.014,4.014,0,0,0,3.2,2.276l-.091.009,1.788-.446-.267.358c-.026-.548-.05-1.1-.076-1.66-.159-3.667-.309-7.16-.446-10.357q-.047-1.19-.091-2.325a8.609,8.609,0,0,0-.2-2.1,3.667,3.667,0,0,0-.992-1.6,15.616,15.616,0,0,0-1.5-1.076l-4.706-3.232a11.829,11.829,0,0,1-1.673-1.266" transform="translate(85.771 78.649)" fill="#eb996e"/>
        <path id="Trazado_255220" data-name="Trazado 255220" d="M229.586,240.467a9.64,9.64,0,0,1,1.955-.263l5.323-.427.035,0,.047.011c1.73.4,3.77.8,6.013,1.088a34.645,34.645,0,0,0,3.509.278c1.175.028,2.505-.041,3.211-.914a2.809,2.809,0,0,0,.506-1.786c.015-.667-.1-1.327-.115-2.056a2.509,2.509,0,0,0-.8-1.494,6.119,6.119,0,0,0-1.446-1.085,11.027,11.027,0,0,0-6.262-1.108,4.894,4.894,0,0,1-4.14-1.658,2.206,2.206,0,0,1-.547-1.563,4.939,4.939,0,0,0,.761,1.392,4.721,4.721,0,0,0,3.918,1.329,11.225,11.225,0,0,1,6.586,1.038,6.7,6.7,0,0,1,1.613,1.184,3.094,3.094,0,0,1,1.007,1.961c.018.625.137,1.333.126,2.067a3.473,3.473,0,0,1-.657,2.218,3.135,3.135,0,0,1-1.835,1.046,8.048,8.048,0,0,1-1.945.123,33.46,33.46,0,0,1-3.578-.317,52.868,52.868,0,0,1-6.061-1.225l.083.008-5.336.191a9.636,9.636,0,0,1-1.972-.035" transform="translate(81.845 81.809)" fill="#eb996e"/>
        <path id="Trazado_255221" data-name="Trazado 255221" d="M251.54,240.229c-.156-.1,1.047-2.379,2.351-5.3s2.505-5.242,2.694-5.151c.163.079-.73,2.512-2.052,5.446s-2.823,5.117-2.992,5" transform="translate(89.667 81.914)" fill="#eb996e"/>
        <path id="Trazado_255222" data-name="Trazado 255222" d="M205.535,268.092l105.379,1.4,33.931-95.143a3.99,3.99,0,1,0-7.47-2.8l-33.429,90.093-98.43.977a2.74,2.74,0,0,0,.019,5.48" transform="translate(72.297 60.226)" fill="#263238"/>
        <path id="Trazado_255223" data-name="Trazado 255223" d="M89.188,202.706s51.484,70.082,59.536,70.082h75.217V244.294l-56.886-13.417s-28.013-57.966-34.207-65.4-22.77-17.417-35.156-6.268-8.505,43.5-8.505,43.5" transform="translate(31.589 54.979)" fill="#a3314f"/>
        <path id="Trazado_255224" data-name="Trazado 255224" d="M188.337,229.912l12.321-.989s.269-4.573,2.96-6.187,2.421-5.111,4.036-4.843a6.982,6.982,0,0,0,2.69-.015l10.222-8.593,8.608-5.65,6.725-1.344s4.036,1.076,0,4.841l-4.3,2.421-3.766,3.767,8.607-4.225a2.923,2.923,0,0,1,2.541-.02c1.976.935,5.639,2.739,6.607,3.707a1.862,1.862,0,0,1,0,2.69l3.766,3.228s.807,4.3-3.5,3.228l-3.5-.807-4.574,4.574s15.6-3.228,16.679-2.691,2.421,2.96,0,5.113-11.837,1.614-13.988,3.766-16.381,15.145-19.878,15.952-32.2,7.817-32.2,7.817Z" transform="translate(67.14 72.115)" fill="#ffbe9d"/>
        <path id="Trazado_255225" data-name="Trazado 255225" d="M237.243,215.785a18.074,18.074,0,0,1-2.117-1.5c-.644-.471-1.413-1.03-2.282-1.622-.434-.3-.9-.6-1.377-.891a3.13,3.13,0,0,0-1.443-.591,8.819,8.819,0,0,0-3.006,1.248c-.926.5-1.748.978-2.436,1.382a11.914,11.914,0,0,1-2.278,1.252,8.078,8.078,0,0,1,2.008-1.673c.661-.463,1.465-.989,2.386-1.527.463-.271.945-.544,1.466-.817a4.408,4.408,0,0,1,1.835-.571,1.6,1.6,0,0,1,.562.066,4.361,4.361,0,0,1,.471.19c.281.142.544.294.795.449.5.315.962.633,1.392.951.863.632,1.607,1.237,2.218,1.763,1.226,1.043,1.891,1.818,1.807,1.891" transform="translate(79.248 75.031)" fill="#eb996e"/>
        <path id="Trazado_255226" data-name="Trazado 255226" d="M206.913,213.031c.121.165-1.164,1.27-2.651,2.709s-2.717,2.633-2.869,2.492c-.133-.123.859-1.514,2.378-3s3.034-2.352,3.142-2.2" transform="translate(71.791 75.937)" fill="#eb996e"/>
        <path id="Trazado_255227" data-name="Trazado 255227" d="M132.7,162.521a34.3,34.3,0,0,1,2.979,4.339c1.781,2.941,4.285,7.326,7.3,13.018,6.064,11.371,14.41,27.843,24.19,47.911l-.2-.159L223.87,241l.267.062v.275c0,9.167,0,18.725.007,28.494v.354h-3.768l-63.929-.028-7.273-.007a5.658,5.658,0,0,1-.945-.042,3.483,3.483,0,0,1-.922-.309,10.344,10.344,0,0,1-1.572-.941,30.547,30.547,0,0,1-2.74-2.259,131.926,131.926,0,0,1-9.379-9.8c-5.772-6.571-10.893-12.9-15.528-18.71-9.244-11.639-16.475-21.249-21.446-27.908-2.454-3.327-4.364-5.92-5.677-7.7l-1.453-2.02c-.324-.458-.473-.7-.473-.7s.189.217.532.661l1.508,1.979,5.783,7.621c5.038,6.606,12.328,16.169,21.616,27.762,4.657,5.784,9.8,12.093,15.577,18.634a132.149,132.149,0,0,0,9.357,9.732,29.926,29.926,0,0,0,2.687,2.206,9.753,9.753,0,0,0,1.472.88,2.956,2.956,0,0,0,1.6.29l7.273-.008,63.929-.027h3.414l-.353.353c0-9.769,0-19.327.007-28.494l.267.336-56.874-13.467-.137-.033-.061-.126c-9.721-20.088-17.99-36.6-23.96-48.009-2.972-5.712-5.427-10.119-7.155-13.086-.893-1.465-1.549-2.607-2.081-3.313-.5-.727-.746-1.118-.746-1.118" transform="translate(31.741 57.937)" fill="#263238"/>
        <path id="Trazado_255228" data-name="Trazado 255228" d="M124,159.879c-.047.122-1.761-.574-4.645-1.228a36.906,36.906,0,0,0-5.123-.776,36.422,36.422,0,0,0-12.567,1.187,37.157,37.157,0,0,0-4.887,1.72c-2.712,1.183-4.263,2.187-4.333,2.075a4.6,4.6,0,0,1,1.036-.787,23.872,23.872,0,0,1,3.089-1.743,32.219,32.219,0,0,1,4.917-1.892,33.838,33.838,0,0,1,12.8-1.209,32.192,32.192,0,0,1,5.186.939,23.938,23.938,0,0,1,3.36,1.134,4.622,4.622,0,0,1,1.165.579" transform="translate(32.955 55.997)" fill="#263238"/>
        <path id="Trazado_255229" data-name="Trazado 255229" d="M138.816,223.4c-.164-.065,1.164-3.294,3.835-6.624,2.653-3.348,5.5-5.361,5.6-5.216.137.164-2.458,2.381-5.052,5.655-2.613,3.257-4.2,6.282-4.387,6.184" transform="translate(49.482 75.416)" fill="#263238"/>
        <path id="Trazado_255230" data-name="Trazado 255230" d="M137.536,214.857c-.117-.136,1.877-1.831,4.879-2.895,3-1.084,5.615-1.038,5.609-.859.018.212-2.486.477-5.37,1.525-2.892,1.02-5,2.4-5.118,2.229" transform="translate(49.029 75.221)" fill="#263238"/>
        <path id="Trazado_255231" data-name="Trazado 255231" d="M219.4,327.364c-1.095-2.265-3.728-3.264-6.122-4.036-47.381-15.277-98.221-22.6-147.2-13.7-5.891,1.069-11.972,2.477-16.65,6.215s-7.493,10.461-4.991,15.9l10.056,3.22a641.228,641.228,0,0,1,150.866,1.069c3.37.423,6.928.851,10.05-.483s5.469-5.126,3.994-8.185" transform="translate(15.506 109.006)" fill="#455a64"/>
        <path id="Trazado_255232" data-name="Trazado 255232" d="M163.835,311.533a1.038,1.038,0,0,1-.316-.016l-.917-.119-3.511-.525c-3.044-.484-7.447-1.19-12.921-1.814a307.985,307.985,0,0,0-42.947-2.048c-4.2.083-8.3.284-12.249.609-3.956.3-7.752.517-11.405.848a7.721,7.721,0,0,1-1.415-.029,7.058,7.058,0,0,0-1.285-.058,15.786,15.786,0,0,0-2.543.385q-2.531.527-4.913,1.026c-3.157.7-6.066,1.483-8.675,2.343a49.9,49.9,0,0,0-11.757,5.475c-1.289.832-2.254,1.541-2.887,2.044l-.733.56a1.047,1.047,0,0,1-.266.172c-.008-.008.065-.084.218-.228.187-.167.414-.368.69-.616a29.079,29.079,0,0,1,2.824-2.164,47.745,47.745,0,0,1,11.75-5.718,89.653,89.653,0,0,1,8.7-2.442l4.915-1.061a16.5,16.5,0,0,1,2.644-.414,7.685,7.685,0,0,1,1.39.054,6.877,6.877,0,0,0,1.3.019c3.606-.345,7.448-.581,11.4-.89,3.957-.335,8.064-.543,12.276-.624a286.2,286.2,0,0,1,43.024,2.26c5.475.688,9.873,1.468,12.9,2.037q2.2.413,3.492.658c.362.073.659.136.9.187a1.055,1.055,0,0,1,.3.087" transform="translate(16.076 109.167)" fill="#263238"/>
        <path id="Trazado_255233" data-name="Trazado 255233" d="M45.668,257.178l80.756,2.817a2.01,2.01,0,0,1,1.918,2.294l-11.624,96.856h18.2l9.4-106.62a6.255,6.255,0,0,0-5.985-7.012l-94.831-3.4Z" transform="translate(15.506 86.31)" fill="#455a64"/>
      </g>
    </g>
    <path id="Trazado_255234" data-name="Trazado 255234" d="M352.189,248.015v2.805l27.868,266.327h13L364.845,248.015Z" transform="translate(125.552 88.415)" fill="#455a64"/>
    <path id="Trazado_255235" data-name="Trazado 255235" d="M160.14,248.014H172.8v2.865L146.818,517.057h-13Z" transform="translate(47.706 88.415)" fill="#455a64"/>
    <g id="Grupo_166584" data-name="Grupo 166584">
      <g id="Grupo_166583" data-name="Grupo 166583" clip-path="url(#clip-path)">
        <path id="Trazado_255236" data-name="Trazado 255236" d="M160.242,248.04s-.03.483-.111,1.4-.209,2.288-.372,4.064c-.338,3.577-.834,8.828-1.473,15.594-1.3,13.543-3.18,33.136-5.509,57.412-4.71,48.515-11.236,115.73-18.5,190.6l-.351-.388h13l-.351.319C158.889,392,169.324,286.078,172.79,250.894v.011c0-1.327.007-2.115.009-2.865l.1.1-9.552-.057c-1.034-.011-1.8-.019-2.329-.023s-.775-.02-.775-.02.237-.012.742-.02c.521,0,1.283-.012,2.307-.023l9.607-.056h.1v.1c0,.75.005,1.538.01,2.865v.011c-3.4,35.189-13.645,141.131-25.737,266.2l-.031.319H133.533l.038-.388c7.389-74.958,14.022-142.253,18.81-190.822,2.416-24.235,4.367-43.794,5.715-57.314.681-6.728,1.209-11.949,1.569-15.507q.275-2.631.418-4.014c.1-.9.159-1.35.159-1.35" transform="translate(47.603 88.388)" fill="#263238"/>
        <rect id="Rectángulo_52428" data-name="Rectángulo 52428" width="362.203" height="11.466" transform="translate(177.394 327.769)" fill="#455a64"/>
        <path id="Trazado_255237" data-name="Trazado 255237" d="M454.112,250.176c0,.2-72.191.353-161.224.353-89.063,0-161.239-.157-161.239-.353s72.176-.353,161.239-.353c89.033,0,161.224.157,161.224.353" transform="translate(46.931 89.059)" fill="#263238"/>
      </g>
    </g>
  </g>
</svg>
