<svg id="Grupo_236286" data-name="Grupo 236286" xmlns="http://www.w3.org/2000/svg" xmlns:xlink="http://www.w3.org/1999/xlink" width="400" height="290.479" viewBox="0 0 400 290.479">
  <defs>
    <clipPath id="clip-path">
      <rect id="Rectángulo_53267" data-name="Rectángulo 53267" width="12.487" height="2.088" fill="none"/>
    </clipPath>
    <clipPath id="clip-path-2">
      <rect id="Rectángulo_53268" data-name="Rectángulo 53268" width="44.487" height="2.088" fill="none"/>
    </clipPath>
    <clipPath id="clip-path-3">
      <rect id="Rectángulo_53269" data-name="Rectángulo 53269" width="38.887" height="2.088" fill="none"/>
    </clipPath>
    <clipPath id="clip-path-4">
      <rect id="Rectángulo_53270" data-name="Rectángulo 53270" width="12.488" height="2.088" fill="none"/>
    </clipPath>
    <clipPath id="clip-path-5">
      <rect id="Rectángulo_53271" data-name="Rectángulo 53271" width="44.488" height="2.088" fill="none"/>
    </clipPath>
    <clipPath id="clip-path-6">
      <rect id="Rectángulo_53272" data-name="Rectángulo 53272" width="38.888" height="2.088" fill="none"/>
    </clipPath>
    <clipPath id="clip-path-10">
      <rect id="Rectángulo_53278" data-name="Rectángulo 53278" width="277.12" height="125.52" fill="none"/>
    </clipPath>
    <clipPath id="clip-path-11">
      <rect id="Rectángulo_53279" data-name="Rectángulo 53279" width="28.792" height="125.52" fill="none"/>
    </clipPath>
    <clipPath id="clip-path-16">
      <rect id="Rectángulo_53289" data-name="Rectángulo 53289" width="277.12" height="11.527" fill="none"/>
    </clipPath>
    <clipPath id="clip-path-17">
      <rect id="Rectángulo_53290" data-name="Rectángulo 53290" width="260.413" height="3.648" fill="none"/>
    </clipPath>
    <clipPath id="clip-path-18">
      <rect id="Rectángulo_53291" data-name="Rectángulo 53291" width="20.392" height="8.55" fill="none"/>
    </clipPath>
    <clipPath id="clip-path-19">
      <rect id="Rectángulo_53292" data-name="Rectángulo 53292" width="112.196" height="15.199" fill="#a3314f"/>
    </clipPath>
    <clipPath id="clip-path-20">
      <rect id="Rectángulo_53293" data-name="Rectángulo 53293" width="12.487" height="2.089" fill="none"/>
    </clipPath>
    <clipPath id="clip-path-21">
      <rect id="Rectángulo_53294" data-name="Rectángulo 53294" width="44.487" height="2.089" fill="none"/>
    </clipPath>
    <clipPath id="clip-path-22">
      <rect id="Rectángulo_53295" data-name="Rectángulo 53295" width="38.887" height="2.089" fill="none"/>
    </clipPath>
    <clipPath id="clip-path-26">
      <rect id="Rectángulo_53300" data-name="Rectángulo 53300" width="36.298" height="52.412" fill="#e77a97"/>
    </clipPath>
    <clipPath id="clip-path-27">
      <rect id="Rectángulo_53301" data-name="Rectángulo 53301" width="29.75" height="37.029" fill="#b55a72"/>
    </clipPath>
    <clipPath id="clip-path-28">
      <rect id="Rectángulo_53303" data-name="Rectángulo 53303" width="112.713" height="30.549" fill="#b55a72"/>
    </clipPath>
    <clipPath id="clip-path-29">
      <rect id="Rectángulo_53304" data-name="Rectángulo 53304" width="12.382" height="3.572" fill="none"/>
    </clipPath>
    <clipPath id="clip-path-30">
      <rect id="Rectángulo_53305" data-name="Rectángulo 53305" width="44.054" height="8.138" fill="none"/>
    </clipPath>
    <clipPath id="clip-path-31">
      <rect id="Rectángulo_53306" data-name="Rectángulo 53306" width="38.511" height="7.34" fill="none"/>
    </clipPath>
    <clipPath id="clip-path-32">
      <rect id="Rectángulo_53307" data-name="Rectángulo 53307" width="7.987" height="12.084" fill="none"/>
    </clipPath>
    <clipPath id="clip-path-33">
      <rect id="Rectángulo_53308" data-name="Rectángulo 53308" width="7.098" height="10.263" fill="none"/>
    </clipPath>
    <clipPath id="clip-path-34">
      <rect id="Rectángulo_53309" data-name="Rectángulo 53309" width="47.384" height="137.342" fill="none"/>
    </clipPath>
    <clipPath id="clip-path-35">
      <rect id="Rectángulo_53310" data-name="Rectángulo 53310" width="17.847" height="33.756" fill="#a3314f"/>
    </clipPath>
    <clipPath id="clip-path-36">
      <rect id="Rectángulo_53311" data-name="Rectángulo 53311" width="11.279" height="26.058" fill="none"/>
    </clipPath>
    <clipPath id="clip-path-37">
      <rect id="Rectángulo_53312" data-name="Rectángulo 53312" width="8.501" height="3.031" fill="none"/>
    </clipPath>
    <clipPath id="clip-path-38">
      <rect id="Rectángulo_53313" data-name="Rectángulo 53313" width="12.059" height="45.053" fill="none"/>
    </clipPath>
    <clipPath id="clip-path-39">
      <rect id="Rectángulo_53314" data-name="Rectángulo 53314" width="37.384" height="7.272" fill="#b55a72"/>
    </clipPath>
    <clipPath id="clip-path-40">
      <rect id="Rectángulo_53315" data-name="Rectángulo 53315" width="17.494" height="7.254" fill="#a3314f"/>
    </clipPath>
    <clipPath id="clip-path-41">
      <rect id="Rectángulo_53316" data-name="Rectángulo 53316" width="7.669" height="8.118" fill="#b55a72"/>
    </clipPath>
    <clipPath id="clip-path-42">
      <rect id="Rectángulo_53317" data-name="Rectángulo 53317" width="44.82" height="69.723" fill="#a3314f"/>
    </clipPath>
    <clipPath id="clip-path-43">
      <rect id="Rectángulo_53318" data-name="Rectángulo 53318" width="5.348" height="12.862" fill="none"/>
    </clipPath>
    <clipPath id="clip-path-44">
      <rect id="Rectángulo_53319" data-name="Rectángulo 53319" width="52.124" height="23.641" fill="#a3314f"/>
    </clipPath>
    <clipPath id="clip-path-45">
      <rect id="Rectángulo_53321" data-name="Rectángulo 53321" width="7.176" height="8.061" fill="none"/>
    </clipPath>
    <clipPath id="clip-path-46">
      <rect id="Rectángulo_53322" data-name="Rectángulo 53322" width="6.131" height="7.527" fill="none"/>
    </clipPath>
    <clipPath id="clip-path-47">
      <rect id="Rectángulo_53323" data-name="Rectángulo 53323" width="48.858" height="126.211" fill="none"/>
    </clipPath>
    <clipPath id="clip-path-48">
      <rect id="Rectángulo_53324" data-name="Rectángulo 53324" width="5.138" height="40.685" fill="none"/>
    </clipPath>
    <clipPath id="clip-path-49">
      <rect id="Rectángulo_53325" data-name="Rectángulo 53325" width="24.375" height="17.815" fill="#a3314f"/>
    </clipPath>
    <clipPath id="clip-path-50">
      <rect id="Rectángulo_53326" data-name="Rectángulo 53326" width="24.375" height="17.814" fill="none"/>
    </clipPath>
    <clipPath id="clip-path-51">
      <rect id="Rectángulo_53327" data-name="Rectángulo 53327" width="3.78" height="3.816" fill="none"/>
    </clipPath>
    <clipPath id="clip-path-52">
      <rect id="Rectángulo_53328" data-name="Rectángulo 53328" width="36.53" height="67.586" fill="none"/>
    </clipPath>
    <clipPath id="clip-path-53">
      <rect id="Rectángulo_53329" data-name="Rectángulo 53329" width="7.076" height="4.3" fill="none"/>
    </clipPath>
  </defs>
  <g id="Grupo_236287" data-name="Grupo 236287">
    <rect id="Rectángulo_53260" data-name="Rectángulo 53260" width="400" height="0.2" transform="translate(0 261.957)" fill="#ebebeb"/>
    <rect id="Rectángulo_53261" data-name="Rectángulo 53261" width="26.498" height="0.2" transform="translate(333.423 274.834)" fill="#ebebeb"/>
    <rect id="Rectángulo_53262" data-name="Rectángulo 53262" width="6.954" height="0.2" transform="translate(258.022 277.004)" fill="#ebebeb"/>
    <rect id="Rectángulo_53263" data-name="Rectángulo 53263" width="15.354" height="0.2" transform="translate(317.269 267.405)" fill="#ebebeb"/>
    <rect id="Rectángulo_53264" data-name="Rectángulo 53264" width="34.554" height="0.2" transform="translate(41.967 268.749)" fill="#ebebeb"/>
    <rect id="Rectángulo_53265" data-name="Rectángulo 53265" width="5.066" height="0.2" transform="translate(83.645 268.749)" fill="#ebebeb"/>
    <rect id="Rectángulo_53266" data-name="Rectángulo 53266" width="74.941" height="0.199" transform="translate(105.177 272.127)" fill="#ebebeb"/>
    <g id="Grupo_236142" data-name="Grupo 236142" transform="translate(30.566)">
      <g id="Grupo_236291" data-name="Grupo 236291">
        <path id="Trazado_259107" data-name="Trazado 259107" d="M197.253,226.278H42.773a4.571,4.571,0,0,1-4.566-4.566V4.566A4.572,4.572,0,0,1,42.773,0H197.253a4.572,4.572,0,0,1,4.566,4.566V221.711a4.571,4.571,0,0,1-4.566,4.566M42.773.2a4.371,4.371,0,0,0-4.366,4.366V221.711a4.371,4.371,0,0,0,4.366,4.366H197.253a4.371,4.371,0,0,0,4.366-4.366V4.566A4.371,4.371,0,0,0,197.253.2Z" transform="translate(-38.207)" fill="#ebebeb"/>
        <path id="Trazado_259108" data-name="Trazado 259108" d="M413.55,226.278H259.071a4.571,4.571,0,0,1-4.566-4.566V4.566A4.571,4.571,0,0,1,259.071,0H413.55a4.572,4.572,0,0,1,4.566,4.566V221.711a4.571,4.571,0,0,1-4.566,4.566M259.071.2a4.371,4.371,0,0,0-4.366,4.366V221.711a4.371,4.371,0,0,0,4.366,4.366H413.55a4.371,4.371,0,0,0,4.366-4.366V4.566A4.371,4.371,0,0,0,413.55.2Z" transform="translate(-81.467)" fill="#ebebeb"/>
        <path id="Trazado_259109" data-name="Trazado 259109" d="M419.012,323.778H310.626a1.9,1.9,0,0,1-1.9-1.9v-11.39a1.9,1.9,0,0,1,1.9-1.9H419.012a1.9,1.9,0,0,1,1.9,1.9v11.39a1.9,1.9,0,0,1-1.9,1.9" transform="translate(-92.31 -61.716)" fill="#e0e0e0"/>
        <g id="Grupo_236116" data-name="Grupo 236116" transform="translate(219.022 248.87)" style="isolation: isolate">
          <g id="Grupo_236115" data-name="Grupo 236115">
            <g id="Grupo_236114" data-name="Grupo 236114" clip-path="url(#clip-path)">
              <path id="Trazado_259110" data-name="Trazado 259110" d="M323.428,313.176h-10.4a1.044,1.044,0,1,1,0-2.088h10.4a1.044,1.044,0,1,1,0,2.088" transform="translate(-311.985 -311.087)" fill="#fafafa"/>
            </g>
          </g>
        </g>
        <g id="Grupo_236119" data-name="Grupo 236119" transform="translate(219.022 252.993)" style="isolation: isolate">
          <g id="Grupo_236118" data-name="Grupo 236118">
            <g id="Grupo_236117" data-name="Grupo 236117" clip-path="url(#clip-path-2)">
              <path id="Trazado_259111" data-name="Trazado 259111" d="M355.428,318.329h-42.4a1.044,1.044,0,1,1,0-2.088h42.4a1.044,1.044,0,1,1,0,2.088" transform="translate(-311.985 -316.241)" fill="#fafafa"/>
            </g>
          </g>
        </g>
        <g id="Grupo_236122" data-name="Grupo 236122" transform="translate(219.022 256.993)" style="isolation: isolate">
          <g id="Grupo_236121" data-name="Grupo 236121">
            <g id="Grupo_236120" data-name="Grupo 236120" clip-path="url(#clip-path-3)">
              <path id="Trazado_259112" data-name="Trazado 259112" d="M349.828,323.329h-36.8a1.044,1.044,0,0,1,0-2.088h36.8a1.044,1.044,0,0,1,0,2.088" transform="translate(-311.985 -321.241)" fill="#fafafa"/>
            </g>
          </g>
        </g>
        <path id="Trazado_259113" data-name="Trazado 259113" d="M406.118,281.459H297.732a1.9,1.9,0,0,1-1.9-1.9v-11.39a1.9,1.9,0,0,1,1.9-1.9H406.118a1.9,1.9,0,0,1,1.9,1.9v11.39a1.9,1.9,0,0,1-1.9,1.9" transform="translate(-89.731 -53.252)" fill="#e0e0e0"/>
        <g id="Grupo_236125" data-name="Grupo 236125" transform="translate(208.707 215.015)" style="isolation: isolate">
          <g id="Grupo_236124" data-name="Grupo 236124">
            <g id="Grupo_236123" data-name="Grupo 236123" clip-path="url(#clip-path-4)">
              <path id="Trazado_259114" data-name="Trazado 259114" d="M310.535,270.857h-10.4a1.044,1.044,0,1,1,0-2.088h10.4a1.044,1.044,0,0,1,0,2.088" transform="translate(-299.091 -268.769)" fill="#fafafa"/>
            </g>
          </g>
        </g>
        <g id="Grupo_236128" data-name="Grupo 236128" transform="translate(208.707 219.138)" style="isolation: isolate">
          <g id="Grupo_236127" data-name="Grupo 236127">
            <g id="Grupo_236126" data-name="Grupo 236126" clip-path="url(#clip-path-5)">
              <path id="Trazado_259115" data-name="Trazado 259115" d="M342.535,276.011h-42.4a1.044,1.044,0,1,1,0-2.088h42.4a1.044,1.044,0,1,1,0,2.088" transform="translate(-299.091 -273.923)" fill="#fafafa"/>
            </g>
          </g>
        </g>
        <g id="Grupo_236131" data-name="Grupo 236131" transform="translate(208.707 223.138)" style="isolation: isolate">
          <g id="Grupo_236130" data-name="Grupo 236130">
            <g id="Grupo_236129" data-name="Grupo 236129" clip-path="url(#clip-path-6)">
              <path id="Trazado_259116" data-name="Trazado 259116" d="M336.935,281.011h-36.8a1.044,1.044,0,1,1,0-2.088h36.8a1.044,1.044,0,1,1,0,2.088" transform="translate(-299.091 -278.923)" fill="#fafafa"/>
            </g>
          </g>
        </g>
        <path id="Trazado_259117" data-name="Trazado 259117" d="M396.93,302.8H288.544a1.9,1.9,0,0,1-1.9-1.9V289.5a1.9,1.9,0,0,1,1.9-1.9H396.93a1.9,1.9,0,0,1,1.9,1.9v11.39a1.9,1.9,0,0,1-1.9,1.9" transform="translate(-87.893 -57.52)" fill="#ebebeb"/>
        <g id="Grupo_236134" data-name="Grupo 236134" transform="translate(201.357 232.086)" style="isolation: isolate">
          <g id="Grupo_236133" data-name="Grupo 236133">
            <g id="Grupo_236132" data-name="Grupo 236132" clip-path="url(#clip-path-4)">
              <path id="Trazado_259118" data-name="Trazado 259118" d="M301.346,292.2h-10.4a1.044,1.044,0,0,1,0-2.088h10.4a1.044,1.044,0,1,1,0,2.088" transform="translate(-289.903 -290.107)" fill="#fafafa"/>
            </g>
          </g>
        </g>
        <g id="Grupo_236137" data-name="Grupo 236137" transform="translate(201.357 236.209)" style="isolation: isolate">
          <g id="Grupo_236136" data-name="Grupo 236136">
            <g id="Grupo_236135" data-name="Grupo 236135" clip-path="url(#clip-path-5)">
              <path id="Trazado_259119" data-name="Trazado 259119" d="M333.346,297.349h-42.4a1.044,1.044,0,0,1,0-2.088h42.4a1.044,1.044,0,0,1,0,2.088" transform="translate(-289.903 -295.261)" fill="#fafafa"/>
            </g>
          </g>
        </g>
        <g id="Grupo_236140" data-name="Grupo 236140" transform="translate(201.357 240.209)" style="isolation: isolate">
          <g id="Grupo_236139" data-name="Grupo 236139">
            <g id="Grupo_236138" data-name="Grupo 236138" clip-path="url(#clip-path-6)">
              <path id="Trazado_259120" data-name="Trazado 259120" d="M327.746,302.349h-36.8a1.044,1.044,0,0,1,0-2.088h36.8a1.044,1.044,0,1,1,0,2.088" transform="translate(-289.903 -300.261)" fill="#fafafa"/>
            </g>
          </g>
        </g>
        <path id="Trazado_259121" data-name="Trazado 259121" d="M59.23,217.823l-17.99,87.9H126Z" transform="translate(-38.814 -43.565)" fill="#e0e0e0"/>
        <path id="Trazado_259122" data-name="Trazado 259122" d="M186.917,305.721H78.338l-14.611-87.9H172.305Z" transform="translate(-43.311 -43.565)" fill="#f5f5f5"/>
        <path id="Trazado_259123" data-name="Trazado 259123" d="M92.938,254.007H75.752L73.5,240.579H90.685Z" transform="translate(-45.265 -48.116)" fill="#ebebeb"/>
        <path id="Trazado_259124" data-name="Trazado 259124" d="M118.5,253.666H101.318l-2.253-13.428H116.25Z" transform="translate(-50.379 -48.048)" fill="#ebebeb"/>
        <path id="Trazado_259125" data-name="Trazado 259125" d="M144.069,253.325H126.883L124.63,239.9h17.186Z" transform="translate(-55.492 -47.979)" fill="#ebebeb"/>
        <path id="Trazado_259126" data-name="Trazado 259126" d="M169.634,252.985H152.449L150.2,239.557h17.186Z" transform="translate(-60.605 -47.911)" fill="#ebebeb"/>
        <path id="Trazado_259127" data-name="Trazado 259127" d="M195.2,252.644H178.015l-2.253-13.428h17.186Z" transform="translate(-65.718 -47.843)" fill="#ebebeb"/>
        <path id="Trazado_259128" data-name="Trazado 259128" d="M96.409,274.7H79.224l-2.253-13.428H94.157Z" transform="translate(-45.96 -52.254)" fill="#ebebeb"/>
        <path id="Trazado_259129" data-name="Trazado 259129" d="M121.975,274.358H104.789l-2.253-13.428h17.186Z" transform="translate(-51.073 -52.186)" fill="#ebebeb"/>
        <path id="Trazado_259130" data-name="Trazado 259130" d="M147.541,274.018H130.355L128.1,260.59h17.186Z" transform="translate(-56.186 -52.118)" fill="#ebebeb"/>
        <path id="Trazado_259131" data-name="Trazado 259131" d="M173.106,273.677H155.921l-2.253-13.428h17.186Z" transform="translate(-61.299 -52.05)" fill="#ebebeb"/>
        <path id="Trazado_259132" data-name="Trazado 259132" d="M198.672,273.336H181.486l-2.253-13.428h17.186Z" transform="translate(-66.412 -51.982)" fill="#ebebeb"/>
        <path id="Trazado_259133" data-name="Trazado 259133" d="M99.881,295.391H82.7l-2.253-13.428H97.628Z" transform="translate(-46.654 -56.393)" fill="#ebebeb"/>
        <path id="Trazado_259134" data-name="Trazado 259134" d="M125.447,295.051H108.261l-2.253-13.428h17.186Z" transform="translate(-51.767 -56.325)" fill="#ebebeb"/>
        <path id="Trazado_259135" data-name="Trazado 259135" d="M151.012,294.71H133.827l-2.253-13.428H148.76Z" transform="translate(-56.88 -56.256)" fill="#ebebeb"/>
        <path id="Trazado_259136" data-name="Trazado 259136" d="M176.578,294.369H159.393l-2.253-13.428h17.186Z" transform="translate(-61.994 -56.188)" fill="#ebebeb"/>
        <path id="Trazado_259137" data-name="Trazado 259137" d="M202.144,294.029H184.958L182.705,280.6h17.186Z" transform="translate(-67.107 -56.12)" fill="#ebebeb"/>
        <path id="Trazado_259138" data-name="Trazado 259138" d="M103.353,316.084H86.167l-2.253-13.428H101.1Z" transform="translate(-47.349 -60.531)" fill="#ebebeb"/>
        <path id="Trazado_259139" data-name="Trazado 259139" d="M128.919,315.743H111.733l-2.253-13.428h17.186Z" transform="translate(-52.462 -60.463)" fill="#ebebeb"/>
        <path id="Trazado_259140" data-name="Trazado 259140" d="M154.484,315.4H137.3l-2.253-13.428h17.186Z" transform="translate(-57.575 -60.395)" fill="#ebebeb"/>
        <path id="Trazado_259141" data-name="Trazado 259141" d="M180.05,315.062H162.864l-2.253-13.428H177.8Z" transform="translate(-62.688 -60.327)" fill="#ebebeb"/>
        <path id="Trazado_259142" data-name="Trazado 259142" d="M205.615,314.721H188.43l-2.253-13.428h17.186Z" transform="translate(-67.801 -60.259)" fill="#ebebeb"/>
        <path id="Trazado_259143" data-name="Trazado 259143" d="M174.218,229.221H65.64l-1.912-11.4H172.305Z" transform="translate(-43.311 -43.565)" fill="#e6e6e6"/>
        <path id="Trazado_259144" data-name="Trazado 259144" d="M279.921,211.151l-1.4-1.3a2.157,2.157,0,0,0-1.882-.55l-7.707,1.545a1.893,1.893,0,0,0-1.422,1.213l-.613,1.706a1.889,1.889,0,0,1-1.422,1.213l-4.6.922a1.9,1.9,0,0,0-1.468,2.377l6.65,25.439a2.183,2.183,0,0,0,2.5,1.581l36.449-7.309a1.9,1.9,0,0,0,1.469-2.377l-6.65-25.439a2.181,2.181,0,0,0-2.5-1.58L281.8,211.7a2.157,2.157,0,0,1-1.882-.55" transform="translate(-82.434 -41.71)" fill="#ebebeb"/>
        <path id="Trazado_259145" data-name="Trazado 259145" d="M303.079,210.738l-33.394,6.7a2.859,2.859,0,0,0-2.244,3.051l2.462,22.69a2.3,2.3,0,0,0,2.8,2.04l33.393-6.7a2.859,2.859,0,0,0,2.245-3.051l-2.462-22.69a2.3,2.3,0,0,0-2.8-2.04" transform="translate(-84.051 -42.138)" fill="#f5f5f5"/>
        <path id="Trazado_259146" data-name="Trazado 259146" d="M423.586,137.435l-.809-1.732a2.161,2.161,0,0,0-1.538-1.216l-7.724-1.458a1.893,1.893,0,0,0-1.773.591l-1.208,1.351a1.888,1.888,0,0,1-1.773.591l-4.609-.87a1.9,1.9,0,0,0-2.253,1.653l-3.375,26.077a2.183,2.183,0,0,0,1.727,2.4l36.53,6.894a1.9,1.9,0,0,0,2.252-1.653l3.376-26.077a2.182,2.182,0,0,0-1.727-2.4l-15.558-2.936a2.161,2.161,0,0,1-1.538-1.216" transform="translate(-110.267 -26.599)" fill="#ebebeb"/>
        <path id="Trazado_259147" data-name="Trazado 259147" d="M444.457,146.078l-33.467-6.316a2.86,2.86,0,0,0-3.225,1.987l-6.228,21.958a2.3,2.3,0,0,0,1.828,2.94l33.467,6.316a2.86,2.86,0,0,0,3.225-1.987l6.228-21.958a2.3,2.3,0,0,0-1.828-2.94" transform="translate(-110.854 -27.943)" fill="#f5f5f5"/>
        <path id="Trazado_259148" data-name="Trazado 259148" d="M69.905,67.823,69.1,66.091a2.158,2.158,0,0,0-1.538-1.215l-7.724-1.458a1.892,1.892,0,0,0-1.773.591L56.853,65.36a1.888,1.888,0,0,1-1.773.591l-4.609-.87a1.9,1.9,0,0,0-2.252,1.653L44.844,92.81a2.182,2.182,0,0,0,1.727,2.4l36.53,6.894a1.9,1.9,0,0,0,2.252-1.653l3.376-26.077A2.182,2.182,0,0,0,87,71.975L71.444,69.039a2.159,2.159,0,0,1-1.538-1.216" transform="translate(-39.531 -12.677)" fill="#ebebeb"/>
        <path id="Trazado_259149" data-name="Trazado 259149" d="M90.776,76.465,57.309,70.149a2.86,2.86,0,0,0-3.225,1.987L47.857,94.094a2.3,2.3,0,0,0,1.827,2.94l33.467,6.316a2.861,2.861,0,0,0,3.226-1.987L92.6,79.405a2.3,2.3,0,0,0-1.828-2.94" transform="translate(-40.118 -14.021)" fill="#f5f5f5"/>
        <path id="Trazado_259150" data-name="Trazado 259150" d="M213.559,104.037l-1.864-2.311a3.352,3.352,0,0,0-2.773-1.261l-12.191.675a2.935,2.935,0,0,0-2.454,1.55l-1.319,2.488a2.935,2.935,0,0,1-2.453,1.55l-7.275.4a2.949,2.949,0,0,0-2.782,3.331l4.61,40.582a3.39,3.39,0,0,0,3.5,2.982l57.658-3.192A2.949,2.949,0,0,0,249,147.5l-4.61-40.583a3.39,3.39,0,0,0-3.5-2.982L216.332,105.3a3.354,3.354,0,0,1-2.773-1.261" transform="translate(-66.651 -20.092)" fill="#ebebeb"/>
        <path id="Trazado_259151" data-name="Trazado 259151" d="M248.932,109.256l-52.823,2.925a4.443,4.443,0,0,0-4.125,4.2l-1.223,35.432a3.576,3.576,0,0,0,3.85,3.754l52.823-2.925a4.444,4.444,0,0,0,4.125-4.2l1.223-35.432a3.576,3.576,0,0,0-3.85-3.754" transform="translate(-68.717 -21.85)" fill="#f5f5f5"/>
        <path id="Trazado_259152" data-name="Trazado 259152" d="M242.068,13.691l-1.45-1.246a2.161,2.161,0,0,0-1.9-.475l-7.639,1.85a1.889,1.889,0,0,0-1.372,1.268l-.545,1.729a1.889,1.889,0,0,1-1.373,1.268l-4.558,1.1a1.9,1.9,0,0,0-1.373,2.434l7.655,25.154a2.182,2.182,0,0,0,2.563,1.48l36.13-8.75a1.9,1.9,0,0,0,1.373-2.433l-7.655-25.155a2.182,2.182,0,0,0-2.563-1.48L243.97,14.166a2.159,2.159,0,0,1-1.9-.475" transform="translate(-74.919 -2.076)" fill="#ebebeb"/>
        <path id="Trazado_259153" data-name="Trazado 259153" d="M265.193,12.381l-33.1,8.017a2.859,2.859,0,0,0-2.122,3.138l3.361,22.575a2.3,2.3,0,0,0,2.875,1.927l33.1-8.017a2.861,2.861,0,0,0,2.122-3.138l-3.361-22.574a2.3,2.3,0,0,0-2.876-1.928" transform="translate(-76.554 -2.462)" fill="#f5f5f5"/>
      </g>
    </g>
    <g id="Grupo_236194" data-name="Grupo 236194" transform="translate(59.504 21.83)">
      <g id="Grupo_236289" data-name="Grupo 236289">
        <path id="Trazado_259155" data-name="Trazado 259155" d="M351.5,31.336V168.848a4.053,4.053,0,0,1-4.048,4.048H78.428a4.053,4.053,0,0,1-4.048-4.048V31.336a4.048,4.048,0,0,1,4.048-4.048H347.452a4.048,4.048,0,0,1,4.048,4.048" transform="translate(-74.38 -27.288)" fill="#a3314f"/>
        <g id="Grupo_236147" data-name="Grupo 236147" transform="translate(0 20.088)" opacity="0.7" style="isolation: isolate">
          <g id="Grupo_236146" data-name="Grupo 236146">
            <g id="Grupo_236145" data-name="Grupo 236145" clip-path="url(#clip-path-10)">
              <path id="Trazado_259156" data-name="Trazado 259156" d="M351.5,52.4V173.87a4.053,4.053,0,0,1-4.048,4.048H78.428a4.053,4.053,0,0,1-4.048-4.048V52.4Z" transform="translate(-74.38 -52.398)" fill="#fff"/>
            </g>
          </g>
        </g>
        <g id="Grupo_236150" data-name="Grupo 236150" transform="translate(0 20.088)" opacity="0.1" style="isolation: isolate">
          <g id="Grupo_236149" data-name="Grupo 236149">
            <g id="Grupo_236148" data-name="Grupo 236148" clip-path="url(#clip-path-11)">
              <path id="Trazado_259157" data-name="Trazado 259157" d="M103.172,52.4v125.52H78.428a4.053,4.053,0,0,1-4.048-4.048V52.4Z" transform="translate(-74.38 -52.398)"/>
            </g>
          </g>
        </g>
        <g id="Grupo_236153" data-name="Grupo 236153" transform="translate(54.752 20.088)" opacity="0.1" style="isolation: isolate">
          <g id="Grupo_236152" data-name="Grupo 236152">
            <g id="Grupo_236151" data-name="Grupo 236151" clip-path="url(#clip-path-11)">
              <rect id="Rectángulo_53280" data-name="Rectángulo 53280" width="28.792" height="125.52" transform="translate(0)"/>
            </g>
          </g>
        </g>
        <g id="Grupo_236156" data-name="Grupo 236156" transform="translate(109.504 20.088)" opacity="0.1" style="isolation: isolate">
          <g id="Grupo_236155" data-name="Grupo 236155">
            <g id="Grupo_236154" data-name="Grupo 236154" clip-path="url(#clip-path-11)">
              <rect id="Rectángulo_53282" data-name="Rectángulo 53282" width="28.792" height="125.52"/>
            </g>
          </g>
        </g>
        <g id="Grupo_236159" data-name="Grupo 236159" transform="translate(164.256 20.088)" opacity="0.1" style="isolation: isolate">
          <g id="Grupo_236158" data-name="Grupo 236158">
            <g id="Grupo_236157" data-name="Grupo 236157" clip-path="url(#clip-path-11)">
              <rect id="Rectángulo_53284" data-name="Rectángulo 53284" width="28.792" height="125.52"/>
            </g>
          </g>
        </g>
        <g id="Grupo_236162" data-name="Grupo 236162" transform="translate(219.008 20.088)" opacity="0.1" style="isolation: isolate">
          <g id="Grupo_236161" data-name="Grupo 236161">
            <g id="Grupo_236160" data-name="Grupo 236160" clip-path="url(#clip-path-11)">
              <rect id="Rectángulo_53286" data-name="Rectángulo 53286" width="28.792" height="125.52"/>
            </g>
          </g>
        </g>
        <g id="Grupo_236165" data-name="Grupo 236165" transform="translate(0 20.088)" opacity="0.7" style="isolation: isolate">
          <g id="Grupo_236164" data-name="Grupo 236164">
            <g id="Grupo_236163" data-name="Grupo 236163" clip-path="url(#clip-path-16)">
              <rect id="Rectángulo_53288" data-name="Rectángulo 53288" width="277.12" height="11.527" transform="translate(0)" fill="#fff"/>
            </g>
          </g>
        </g>
        <g id="Grupo_236168" data-name="Grupo 236168" transform="translate(8.537 23.823)" opacity="0.3" style="isolation: isolate">
          <g id="Grupo_236167" data-name="Grupo 236167">
            <g id="Grupo_236166" data-name="Grupo 236166" clip-path="url(#clip-path-17)">
              <path id="Trazado_259158" data-name="Trazado 259158" d="M87.257,57.128h.564l-.558,3.56h-.511l-.306-1.959-.286,1.959h-.514l-.6-3.56h.562l.282,1.906.258-1.906h.562l.281,1.9Z" transform="translate(-85.051 -57.079)"/>
              <path id="Trazado_259159" data-name="Trazado 259159" d="M89.078,60.687V57.124h1.528v.54h-.991v.971h.725v.54h-.725v.971h.991v.54Z" transform="translate(-85.857 -57.079)"/>
              <path id="Trazado_259160" data-name="Trazado 259160" d="M91.45,60.687V57.124h1.528v.54h-.991v.971h.725v.54h-.725v.971h.991v.54Z" transform="translate(-86.331 -57.079)"/>
              <path id="Trazado_259161" data-name="Trazado 259161" d="M94.359,59.557v1.13h-.537V57.124h.537v1.27l.656-1.27h.573l-.735,1.454.862,2.11h-.631l-.564-1.446Z" transform="translate(-86.805 -57.078)"/>
              <path id="Trazado_259162" data-name="Trazado 259162" d="M97.569,60.686V57.945h-.458V57.57a.794.794,0,0,0,.368-.146.711.711,0,0,0,.251-.3h.375v3.562Z" transform="translate(-87.463 -57.078)"/>
              <path id="Trazado_259163" data-name="Trazado 259163" d="M121.325,57.128h.563l-.557,3.56h-.511l-.306-1.959-.286,1.959h-.514l-.6-3.56h.562l.282,1.906.258-1.906h.562l.281,1.9Z" transform="translate(-91.865 -57.079)"/>
              <path id="Trazado_259164" data-name="Trazado 259164" d="M123.146,60.687V57.124h1.528v.54h-.991v.971h.725v.54h-.725v.971h.991v.54Z" transform="translate(-92.67 -57.079)"/>
              <path id="Trazado_259165" data-name="Trazado 259165" d="M125.518,60.687V57.124h1.528v.54h-.991v.971h.725v.54h-.725v.971h.991v.54Z" transform="translate(-93.145 -57.079)"/>
              <path id="Trazado_259166" data-name="Trazado 259166" d="M128.427,59.557v1.13h-.537V57.124h.537v1.27l.656-1.27h.573l-.735,1.454.862,2.11h-.631l-.564-1.446Z" transform="translate(-93.619 -57.078)"/>
              <path id="Trazado_259167" data-name="Trazado 259167" d="M131.187,58.13a1.031,1.031,0,0,1,.273-.773.835.835,0,0,1,.619-.236.8.8,0,0,1,.6.264.872.872,0,0,1,.249.617,1.606,1.606,0,0,1-.162.7,5.148,5.148,0,0,1-.412.645q-.088.125-.261.39l-.1.145c-.062.094-.11.17-.142.224a.185.185,0,0,0-.022.051h1.054v.526h-1.708v-.492a1.2,1.2,0,0,1,.118-.2c.036-.054.077-.115.122-.182l.14-.2c.081-.111.209-.29.384-.536a3.568,3.568,0,0,0,.37-.628,1.08,1.08,0,0,0,.1-.429.428.428,0,0,0-.09-.275.317.317,0,0,0-.256-.119.331.331,0,0,0-.318.258.6.6,0,0,0-.031.2v.137h-.528Z" transform="translate(-94.277 -57.078)"/>
              <path id="Trazado_259168" data-name="Trazado 259168" d="M155.869,57.128h.564l-.558,3.56h-.511l-.306-1.959-.286,1.959h-.514l-.6-3.56h.562l.282,1.906.258-1.906h.562l.281,1.9Z" transform="translate(-98.774 -57.079)"/>
              <path id="Trazado_259169" data-name="Trazado 259169" d="M157.69,60.687V57.124h1.528v.54h-.991v.971h.725v.54h-.725v.971h.991v.54Z" transform="translate(-99.579 -57.079)"/>
              <path id="Trazado_259170" data-name="Trazado 259170" d="M160.062,60.687V57.124h1.528v.54H160.6v.971h.725v.54H160.6v.971h.991v.54Z" transform="translate(-100.053 -57.079)"/>
              <path id="Trazado_259171" data-name="Trazado 259171" d="M162.971,59.557v1.13h-.537V57.124h.537v1.27l.656-1.27h.573l-.735,1.454.862,2.11H163.7l-.564-1.446Z" transform="translate(-100.528 -57.078)"/>
              <path id="Trazado_259172" data-name="Trazado 259172" d="M166.558,60.164c.246,0,.369-.114.369-.343v-.21c0-.365-.19-.547-.574-.547V58.6a.57.57,0,0,0,.458-.173.641.641,0,0,0,.136-.438v-.082q0-.349-.306-.35a.272.272,0,0,0-.25.13.5.5,0,0,0-.059.257v.093h-.526v-.082A.953.953,0,0,1,166,57.34a.747.747,0,0,1,.617-.273.769.769,0,0,1,.6.256.83.83,0,0,1,.2.574v.15a.878.878,0,0,1-.2.574.824.824,0,0,1-.2.173.889.889,0,0,1,.369.406.762.762,0,0,1,.069.338v.281a.849.849,0,0,1-.27.648.874.874,0,0,1-.622.245.849.849,0,0,1-.85-.85v-.088l.511-.04.011.125a.342.342,0,0,0,.1.219.292.292,0,0,0,.217.085" transform="translate(-101.186 -57.067)"/>
              <path id="Trazado_259173" data-name="Trazado 259173" d="M190.354,57.128h.564l-.558,3.56h-.511l-.306-1.959-.286,1.959h-.514l-.6-3.56h.562l.282,1.906.258-1.906h.562l.281,1.9Z" transform="translate(-105.671 -57.079)"/>
              <path id="Trazado_259174" data-name="Trazado 259174" d="M192.175,60.687V57.124H193.7v.54h-.991v.971h.725v.54h-.725v.971h.991v.54Z" transform="translate(-106.476 -57.079)"/>
              <path id="Trazado_259175" data-name="Trazado 259175" d="M194.547,60.687V57.124h1.528v.54h-.991v.971h.725v.54h-.725v.971h.991v.54Z" transform="translate(-106.95 -57.079)"/>
              <path id="Trazado_259176" data-name="Trazado 259176" d="M197.456,59.557v1.13h-.537V57.124h.537v1.27l.656-1.27h.573l-.735,1.454.862,2.11h-.631l-.564-1.446Z" transform="translate(-107.425 -57.078)"/>
              <path id="Trazado_259177" data-name="Trazado 259177" d="M200.208,59.376l.949-2.255h.537v2.255h.343v.54h-.343v.767h-.537v-.767h-.949Zm.949,0V58.263l-.443,1.113Z" transform="translate(-108.083 -57.078)"/>
              <path id="Trazado_259178" data-name="Trazado 259178" d="M225,57.128h.564L225,60.688h-.511l-.306-1.959-.286,1.959h-.514l-.6-3.56h.562l.282,1.906.258-1.906h.562l.281,1.9Z" transform="translate(-112.599 -57.079)"/>
              <path id="Trazado_259179" data-name="Trazado 259179" d="M226.819,60.687V57.124h1.528v.54h-.991v.971h.725v.54h-.725v.971h.991v.54Z" transform="translate(-113.405 -57.079)"/>
              <path id="Trazado_259180" data-name="Trazado 259180" d="M229.191,60.687V57.124h1.528v.54h-.991v.971h.725v.54h-.725v.971h.991v.54Z" transform="translate(-113.879 -57.079)"/>
              <path id="Trazado_259181" data-name="Trazado 259181" d="M232.1,59.557v1.13h-.537V57.124h.537v1.27l.656-1.27h.573l-.735,1.454.862,2.11h-.631l-.564-1.446Z" transform="translate(-114.354 -57.078)"/>
              <path id="Trazado_259182" data-name="Trazado 259182" d="M235.442,57.661v.764a.52.52,0,0,1,.225-.176.482.482,0,0,1,.18-.031.585.585,0,0,1,.521.247,1.061,1.061,0,0,1,.146.6v.766a.882.882,0,0,1-.25.648.807.807,0,0,1-.6.245.758.758,0,0,1-.585-.256.85.85,0,0,1-.224-.6v-.085l.514-.04.012.122a.315.315,0,0,0,.173.284.212.212,0,0,0,.1.022c.219,0,.33-.114.33-.344v-.872a.332.332,0,0,0-.114-.258.22.22,0,0,0-.151-.048.231.231,0,0,0-.211.11.4.4,0,0,0-.058.2v.1h-.537V57.121h1.571v.54Z" transform="translate(-115.011 -57.078)"/>
              <path id="Trazado_259183" data-name="Trazado 259183" d="M259.564,57.128h.564l-.558,3.56h-.511l-.306-1.959-.286,1.959h-.514l-.6-3.56h.562l.282,1.906.258-1.906h.562l.281,1.9Z" transform="translate(-119.513 -57.079)"/>
              <path id="Trazado_259184" data-name="Trazado 259184" d="M261.385,60.687V57.124h1.528v.54h-.991v.971h.725v.54h-.725v.971h.991v.54Z" transform="translate(-120.318 -57.079)"/>
              <path id="Trazado_259185" data-name="Trazado 259185" d="M263.757,60.687V57.124h1.528v.54h-.991v.971h.725v.54h-.725v.971h.991v.54Z" transform="translate(-120.792 -57.079)"/>
              <path id="Trazado_259186" data-name="Trazado 259186" d="M266.666,59.557v1.13h-.537V57.124h.537v1.27l.656-1.27h.573l-.735,1.454.862,2.11h-.631l-.564-1.446Z" transform="translate(-121.267 -57.078)"/>
              <path id="Trazado_259187" data-name="Trazado 259187" d="M270.477,58v-.089a.345.345,0,0,0-.07-.219.263.263,0,0,0-.4,0,.345.345,0,0,0-.07.219v.711a.6.6,0,0,1,.406-.165.611.611,0,0,1,.531.246,1.009,1.009,0,0,1,.156.6v.61h0a.843.843,0,0,1-.246.571.8.8,0,0,1-1.146-.023.849.849,0,0,1-.225-.6V57.92a.9.9,0,0,1,.126-.472.8.8,0,0,1,.683-.38.758.758,0,0,1,.586.255.85.85,0,0,1,.224.6V58Zm-.534,1.858a.342.342,0,0,0,.066.216.26.26,0,0,0,.4,0,.334.334,0,0,0,.069-.216V59.2a.328.328,0,0,0-.114-.255.216.216,0,0,0-.151-.049A.236.236,0,0,0,270,59a.376.376,0,0,0-.057.2Z" transform="translate(-121.924 -57.067)"/>
              <path id="Trazado_259188" data-name="Trazado 259188" d="M294.107,57.128h.564l-.558,3.56H293.6l-.306-1.959-.286,1.959H292.5l-.6-3.56h.562l.282,1.906L293,57.128h.562l.281,1.9Z" transform="translate(-126.421 -57.079)"/>
              <path id="Trazado_259189" data-name="Trazado 259189" d="M295.928,60.687V57.124h1.528v.54h-.991v.971h.725v.54h-.725v.971h.991v.54Z" transform="translate(-127.227 -57.079)"/>
              <path id="Trazado_259190" data-name="Trazado 259190" d="M298.3,60.687V57.124h1.528v.54h-.991v.971h.725v.54h-.725v.971h.991v.54Z" transform="translate(-127.701 -57.079)"/>
              <path id="Trazado_259191" data-name="Trazado 259191" d="M301.209,59.557v1.13h-.537V57.124h.537v1.27l.656-1.27h.573l-.735,1.454.862,2.11h-.631l-.564-1.446Z" transform="translate(-128.175 -57.078)"/>
              <path id="Trazado_259192" data-name="Trazado 259192" d="M305.574,57.121v.54l-.753,3.022h-.527l.753-3.022H303.96v-.54Z" transform="translate(-128.833 -57.078)"/>
              <path id="Trazado_259193" data-name="Trazado 259193" d="M328.565,57.127h.564l-.558,3.56h-.511l-.306-1.958-.286,1.958h-.514l-.6-3.56h.562l.282,1.906.258-1.906h.562l.281,1.9Z" transform="translate(-133.313 -57.079)"/>
              <path id="Trazado_259194" data-name="Trazado 259194" d="M330.386,60.686V57.124h1.528v.54h-.991v.971h.725v.54h-.725v.971h.991v.54Z" transform="translate(-134.118 -57.078)"/>
              <path id="Trazado_259195" data-name="Trazado 259195" d="M332.758,60.686V57.124h1.528v.54h-.991v.971h.725v.54h-.725v.971h.991v.54Z" transform="translate(-134.593 -57.078)"/>
              <path id="Trazado_259196" data-name="Trazado 259196" d="M335.667,59.557v1.13h-.537V57.123h.537v1.27l.656-1.27h.573l-.735,1.454.862,2.11h-.631l-.564-1.447Z" transform="translate(-135.067 -57.078)"/>
              <path id="Trazado_259197" data-name="Trazado 259197" d="M340.163,59.862a.813.813,0,0,1-.25.6.825.825,0,0,1-.6.247h-.042a.848.848,0,0,1-.849-.85v-.324a.846.846,0,0,1,.438-.745.742.742,0,0,1-.335-.369.818.818,0,0,1-.06-.335V57.9a.827.827,0,0,1,.2-.574.768.768,0,0,1,.6-.255h.042a.77.77,0,0,1,.606.255.831.831,0,0,1,.2.574v.194a.789.789,0,0,1-.2.551.7.7,0,0,1-.2.153.9.9,0,0,1,.37.406.764.764,0,0,1,.068.338Zm-.52-1.82c0-.243-.081-.4-.23-.458a.3.3,0,0,0-.122-.023.332.332,0,0,0-.227.077.339.339,0,0,0-.1.16.765.765,0,0,0-.023.245.677.677,0,0,0,.074.334.349.349,0,0,0,.559-.008.61.61,0,0,0,.071-.326m-.017,1.567a.51.51,0,0,0-.145-.426.315.315,0,0,0-.19-.051.286.286,0,0,0-.29.182.8.8,0,0,0-.046.3v.17a.384.384,0,0,0,.108.284.319.319,0,0,0,.531-.119.4.4,0,0,0,.031-.165Z" transform="translate(-135.725 -57.067)"/>
              <path id="Trazado_259198" data-name="Trazado 259198" d="M363.182,57.127h.564l-.558,3.56h-.511l-.306-1.958-.286,1.958h-.514l-.6-3.56h.562l.282,1.906.258-1.906h.562l.281,1.9Z" transform="translate(-140.236 -57.079)"/>
              <path id="Trazado_259199" data-name="Trazado 259199" d="M365,60.686V57.124h1.528v.54h-.991v.971h.725v.54h-.725v.971h.991v.54Z" transform="translate(-141.042 -57.078)"/>
              <path id="Trazado_259200" data-name="Trazado 259200" d="M367.375,60.686V57.124H368.9v.54h-.991v.971h.725v.54h-.725v.971h.991v.54Z" transform="translate(-141.516 -57.078)"/>
              <path id="Trazado_259201" data-name="Trazado 259201" d="M370.284,59.557v1.13h-.537V57.123h.537v1.27l.656-1.27h.573l-.735,1.454.862,2.11h-.631l-.564-1.447Z" transform="translate(-141.99 -57.078)"/>
              <path id="Trazado_259202" data-name="Trazado 259202" d="M373.845,57.067a.758.758,0,0,1,.586.255.85.85,0,0,1,.225.6v1.943a.846.846,0,0,1-.232.6.8.8,0,0,1-1.163-.006.851.851,0,0,1-.224-.6v-.077h.557v.088a.348.348,0,0,0,.069.219.24.24,0,0,0,.2.088.237.237,0,0,0,.2-.088.344.344,0,0,0,.07-.219v-.713a.6.6,0,0,1-.406.167.606.606,0,0,1-.528-.247,1.011,1.011,0,0,1-.156-.6v-.61h0a.865.865,0,0,1,.141-.445.781.781,0,0,1,.35-.294.791.791,0,0,1,.315-.062m.282.858a.346.346,0,0,0-.07-.22.234.234,0,0,0-.2-.09.237.237,0,0,0-.2.09.351.351,0,0,0-.069.22v.659a.332.332,0,0,0,.114.258.211.211,0,0,0,.15.049.245.245,0,0,0,.255-.217.493.493,0,0,0,.014-.1Z" transform="translate(-142.648 -57.067)"/>
              <path id="Trazado_259203" data-name="Trazado 259203" d="M396.755,57.128h.563l-.557,3.56h-.511l-.306-1.959-.286,1.959h-.514l-.6-3.56h.562l.282,1.906.258-1.906h.562l.281,1.9Z" transform="translate(-146.951 -57.079)"/>
              <path id="Trazado_259204" data-name="Trazado 259204" d="M398.575,60.687V57.124H400.1v.54h-.991v.971h.725v.54h-.725v.971h.991v.54Z" transform="translate(-147.756 -57.079)"/>
              <path id="Trazado_259205" data-name="Trazado 259205" d="M400.947,60.687V57.124h1.528v.54h-.991v.971h.725v.54h-.725v.971h.991v.54Z" transform="translate(-148.231 -57.079)"/>
              <path id="Trazado_259206" data-name="Trazado 259206" d="M403.856,59.557v1.13h-.537V57.124h.537v1.27l.656-1.27h.573l-.735,1.454.862,2.11h-.631l-.564-1.446Z" transform="translate(-148.705 -57.078)"/>
              <path id="Trazado_259207" data-name="Trazado 259207" d="M407.066,60.686V57.945h-.458V57.57a.794.794,0,0,0,.368-.146.712.712,0,0,0,.251-.3h.375v3.562Z" transform="translate(-149.363 -57.078)"/>
              <path id="Trazado_259208" data-name="Trazado 259208" d="M410.142,59.862a.849.849,0,0,1-.85.85.848.848,0,0,1-.852-.85V57.919a.851.851,0,1,1,1.7,0Zm-.557-1.954a.311.311,0,0,0-.31-.31.292.292,0,0,0-.218.091.3.3,0,0,0-.09.218v1.946a.3.3,0,0,0,.09.218.292.292,0,0,0,.218.091.311.311,0,0,0,.31-.31Z" transform="translate(-149.729 -57.067)"/>
            </g>
          </g>
        </g>
        <g id="Grupo_236171" data-name="Grupo 236171" transform="translate(7.247 6.37)" opacity="0.4">
          <g id="Grupo_236170" data-name="Grupo 236170">
            <g id="Grupo_236169" data-name="Grupo 236169" clip-path="url(#clip-path-18)">
              <path id="Trazado_259209" data-name="Trazado 259209" d="M85.164,40.221l-1.725-4.97h1.418l.955,3.069.947-3.069h1.425l-1.732,4.97V43.8H85.164Z" transform="translate(-83.439 -35.25)" fill="#fff"/>
              <path id="Trazado_259210" data-name="Trazado 259210" d="M90.658,43.8V35.25h3.668v1.3h-2.38v2.332h1.739v1.3H91.946V42.5h2.38v1.3Z" transform="translate(-84.883 -35.25)" fill="#fff"/>
              <path id="Trazado_259211" data-name="Trazado 259211" d="M98.005,41.838,97.692,43.8H96.35L97.8,35.259h1.773l1.431,8.543H99.652l-.3-1.964Zm.677-4.622L98.2,40.584h.955Z" transform="translate(-86.021 -35.252)" fill="#fff"/>
              <path id="Trazado_259212" data-name="Trazado 259212" d="M105.558,35.259a1.964,1.964,0,0,1,1.582.593,2.154,2.154,0,0,1,.443,1.446v1.241a2,2,0,0,1-.689,1.534l.954,3.73h-1.393l-.782-3.218h-.859V43.8h-1.288V35.259Zm.77,2.059a.654.654,0,0,0-.736-.743h-.778v2.734h.778a.707.707,0,0,0,.522-.218.722.722,0,0,0,.214-.525Z" transform="translate(-87.457 -35.252)" fill="#fff"/>
            </g>
          </g>
        </g>
        <path id="Trazado_259213" data-name="Trazado 259213" d="M222.95,123.935H114.564a1.9,1.9,0,0,1-1.9-1.9v-11.39a1.9,1.9,0,0,1,1.9-1.9H222.95a1.9,1.9,0,0,1,1.9,1.9v11.39a1.9,1.9,0,0,1-1.9,1.9" transform="translate(-82.036 -43.578)" fill="#b55a72"/>
        <g id="Grupo_236174" data-name="Grupo 236174" transform="translate(30.623 65.158)" opacity="0.2" style="isolation: isolate">
          <g id="Grupo_236173" data-name="Grupo 236173">
            <g id="Grupo_236172" data-name="Grupo 236172" clip-path="url(#clip-path-19)">
              <path id="Trazado_259214" data-name="Trazado 259214" d="M222.95,123.935H114.564a1.9,1.9,0,0,1-1.9-1.9v-11.39a1.9,1.9,0,0,1,1.9-1.9H222.95a1.9,1.9,0,0,1,1.9,1.9v11.39a1.9,1.9,0,0,1-1.9,1.9" transform="translate(-112.659 -108.736)" fill="#a3314f"/>
            </g>
          </g>
        </g>
        <g id="Grupo_236177" data-name="Grupo 236177" transform="translate(33.234 67.165)" opacity="0.7" style="isolation: isolate">
          <g id="Grupo_236176" data-name="Grupo 236176">
            <g id="Grupo_236175" data-name="Grupo 236175" clip-path="url(#clip-path-20)">
              <path id="Trazado_259215" data-name="Trazado 259215" d="M127.366,113.333h-10.4a1.044,1.044,0,1,1,0-2.088h10.4a1.044,1.044,0,0,1,0,2.088" transform="translate(-115.923 -111.244)" fill="#fff"/>
            </g>
          </g>
        </g>
        <g id="Grupo_236180" data-name="Grupo 236180" transform="translate(33.234 71.288)" opacity="0.7" style="isolation: isolate">
          <g id="Grupo_236179" data-name="Grupo 236179">
            <g id="Grupo_236178" data-name="Grupo 236178" clip-path="url(#clip-path-21)">
              <path id="Trazado_259216" data-name="Trazado 259216" d="M159.366,118.487h-42.4a1.044,1.044,0,1,1,0-2.088h42.4a1.044,1.044,0,0,1,0,2.088" transform="translate(-115.923 -116.398)" fill="#fff"/>
            </g>
          </g>
        </g>
        <g id="Grupo_236183" data-name="Grupo 236183" transform="translate(33.234 75.288)" opacity="0.7" style="isolation: isolate">
          <g id="Grupo_236182" data-name="Grupo 236182">
            <g id="Grupo_236181" data-name="Grupo 236181" clip-path="url(#clip-path-22)">
              <path id="Trazado_259217" data-name="Trazado 259217" d="M153.766,123.487h-36.8a1.044,1.044,0,1,1,0-2.088h36.8a1.044,1.044,0,0,1,0,2.088" transform="translate(-115.923 -121.398)" fill="#fff"/>
            </g>
          </g>
        </g>
        <path id="Trazado_259218" data-name="Trazado 259218" d="M311.1,146.21H202.715a1.9,1.9,0,0,1-1.9-1.9v-11.39a1.9,1.9,0,0,1,1.9-1.9H311.1a1.9,1.9,0,0,1,1.9,1.9v11.39a1.9,1.9,0,0,1-1.9,1.9" transform="translate(-99.666 -48.033)" fill="#fff"/>
        <g id="Grupo_236186" data-name="Grupo 236186" transform="translate(103.755 84.985)" opacity="0.3" style="isolation: isolate">
          <g id="Grupo_236185" data-name="Grupo 236185">
            <g id="Grupo_236184" data-name="Grupo 236184" clip-path="url(#clip-path-20)">
              <path id="Trazado_259219" data-name="Trazado 259219" d="M215.517,135.608h-10.4a1.044,1.044,0,0,1,0-2.088h10.4a1.044,1.044,0,0,1,0,2.088" transform="translate(-204.074 -133.519)"/>
            </g>
          </g>
        </g>
        <g id="Grupo_236189" data-name="Grupo 236189" transform="translate(103.755 89.108)" opacity="0.3" style="isolation: isolate">
          <g id="Grupo_236188" data-name="Grupo 236188">
            <g id="Grupo_236187" data-name="Grupo 236187" clip-path="url(#clip-path-2)">
              <path id="Trazado_259220" data-name="Trazado 259220" d="M247.517,140.762h-42.4a1.044,1.044,0,0,1,0-2.088h42.4a1.044,1.044,0,1,1,0,2.088" transform="translate(-204.074 -138.673)"/>
            </g>
          </g>
        </g>
        <g id="Grupo_236192" data-name="Grupo 236192" transform="translate(103.755 93.108)" opacity="0.3" style="isolation: isolate">
          <g id="Grupo_236191" data-name="Grupo 236191">
            <g id="Grupo_236190" data-name="Grupo 236190" clip-path="url(#clip-path-3)">
              <path id="Trazado_259221" data-name="Trazado 259221" d="M241.917,145.762h-36.8a1.044,1.044,0,0,1,0-2.088h36.8a1.044,1.044,0,0,1,0,2.088" transform="translate(-204.074 -143.673)"/>
            </g>
          </g>
        </g>
      </g>
    </g>
    <g id="Grupo_236202" data-name="Grupo 236202" transform="translate(175.652 233.037)">
      <g id="Grupo_236292" data-name="Grupo 236292">
        <path id="Trazado_259222" data-name="Trazado 259222" d="M249.729,327.577c-5.7-4.387-5.908-11.226,0-15.024S258.8,294.2,258.8,294.2H222.5s3.165,14.558,9.073,18.356,5.7,10.637,0,15.024S222.5,346.61,222.5,346.61h36.3s-3.376-14.646-9.073-19.033" transform="translate(-220.153 -291.876)" fill="#e77a97"/>
        <g id="Grupo_236197" data-name="Grupo 236197" transform="translate(2.35 2.321)" opacity="0.7" style="isolation: isolate">
          <g id="Grupo_236196" data-name="Grupo 236196">
            <g id="Grupo_236195" data-name="Grupo 236195" clip-path="url(#clip-path-26)">
              <path id="Trazado_259223" data-name="Trazado 259223" d="M249.729,327.577c-5.7-4.387-5.908-11.226,0-15.024S258.8,294.2,258.8,294.2H222.5s3.165,14.558,9.073,18.356,5.7,10.637,0,15.024S222.5,346.61,222.5,346.61h36.3s-3.376-14.646-9.073-19.033" transform="translate(-222.503 -294.197)" fill="#e77a97"/>
            </g>
          </g>
        </g>
        <path id="Trazado_259224" data-name="Trazado 259224" d="M258.243,295.938H221.886a2.321,2.321,0,0,1,0-4.642h36.358a2.321,2.321,0,0,1,0,4.642" transform="translate(-219.565 -291.296)" fill="#a3314f"/>
        <path id="Trazado_259225" data-name="Trazado 259225" d="M258.243,361.938H221.886a2.321,2.321,0,1,1,0-4.642h36.358a2.321,2.321,0,0,1,0,4.642" transform="translate(-219.565 -304.496)" fill="#a3314f"/>
        <path id="Trazado_259226" data-name="Trazado 259226" d="M225.813,347.05h29.75s-8.2-4.557-13.082-6.084V329.53a20.471,20.471,0,0,1,5.793-14.172,25.1,25.1,0,0,0,3.28-4.282l-21.521-1.055a33.452,33.452,0,0,0,3.762,4.769,20.076,20.076,0,0,1,5.522,13.89v11.876c-4.88.656-13.5,6.494-13.5,6.494" transform="translate(-220.815 -295.041)" fill="#b55a72"/>
        <g id="Grupo_236200" data-name="Grupo 236200" transform="translate(4.998 14.98)" opacity="0.4" style="isolation: isolate">
          <g id="Grupo_236199" data-name="Grupo 236199">
            <g id="Grupo_236198" data-name="Grupo 236198" clip-path="url(#clip-path-27)">
              <path id="Trazado_259227" data-name="Trazado 259227" d="M225.813,347.05h29.75s-8.2-4.557-13.082-6.084V329.53a20.471,20.471,0,0,1,5.793-14.172,25.1,25.1,0,0,0,3.28-4.282l-21.521-1.055a33.452,33.452,0,0,0,3.762,4.769,20.076,20.076,0,0,1,5.522,13.89v11.876c-4.88.656-13.5,6.494-13.5,6.494" transform="translate(-225.813 -310.021)" fill="#b55a72"/>
            </g>
          </g>
        </g>
      </g>
    </g>
    <g id="Grupo_236255" data-name="Grupo 236255" transform="translate(203.546 48.777)">
      <g id="Grupo_236288" data-name="Grupo 236288">
        <path id="Trazado_259228" data-name="Trazado 259228" d="M363.342,108.313,256.066,92.847a1.9,1.9,0,0,1-1.614-2.157l1.625-11.274a1.906,1.906,0,0,1,2.158-1.614L365.511,93.269a1.9,1.9,0,0,1,1.614,2.158L365.5,106.7a1.9,1.9,0,0,1-2.158,1.614" transform="translate(-254.432 -64.334)" fill="#b55a72"/>
        <g id="Grupo_236205" data-name="Grupo 236205" transform="translate(0 13.45)" opacity="0.1" style="isolation: isolate">
          <g id="Grupo_236204" data-name="Grupo 236204">
            <g id="Grupo_236203" data-name="Grupo 236203" clip-path="url(#clip-path-28)">
              <path id="Trazado_259229" data-name="Trazado 259229" d="M363.342,108.313,256.066,92.847a1.9,1.9,0,0,1-1.614-2.157l1.625-11.274a1.906,1.906,0,0,1,2.158-1.614L365.511,93.269a1.9,1.9,0,0,1,1.614,2.158L365.5,106.7a1.9,1.9,0,0,1-2.158,1.614" transform="translate(-254.432 -77.784)" fill="#b55a72"/>
            </g>
          </g>
        </g>
        <g id="Grupo_236208" data-name="Grupo 236208" transform="translate(4.054 15.696)" opacity="0.7" style="isolation: isolate">
          <g id="Grupo_236207" data-name="Grupo 236207">
            <g id="Grupo_236206" data-name="Grupo 236206" clip-path="url(#clip-path-29)">
              <path id="Trazado_259230" data-name="Trazado 259230" d="M270.689,84.153,260.4,82.669a1.044,1.044,0,1,1,.3-2.066l10.293,1.483a1.044,1.044,0,0,1-.3,2.067" transform="translate(-259.5 -80.591)" fill="#fff"/>
            </g>
          </g>
        </g>
        <g id="Grupo_236211" data-name="Grupo 236211" transform="translate(3.466 19.777)" opacity="0.7" style="isolation: isolate">
          <g id="Grupo_236210" data-name="Grupo 236210">
            <g id="Grupo_236209" data-name="Grupo 236209" clip-path="url(#clip-path-30)">
              <path id="Trazado_259231" data-name="Trazado 259231" d="M301.626,93.819l-41.966-6.05a1.044,1.044,0,1,1,.3-2.067l41.965,6.05a1.044,1.044,0,1,1-.3,2.067" transform="translate(-258.765 -85.692)" fill="#fff"/>
            </g>
          </g>
        </g>
        <g id="Grupo_236214" data-name="Grupo 236214" transform="translate(2.896 23.735)" opacity="0.7" style="isolation: isolate">
          <g id="Grupo_236213" data-name="Grupo 236213">
            <g id="Grupo_236212" data-name="Grupo 236212" clip-path="url(#clip-path-31)">
              <path id="Trazado_259232" data-name="Trazado 259232" d="M295.37,97.969l-36.423-5.251a1.044,1.044,0,1,1,.3-2.066l36.422,5.25a1.044,1.044,0,0,1-.3,2.067" transform="translate(-258.052 -90.64)" fill="#fff"/>
            </g>
          </g>
        </g>
        <path id="Trazado_259233" data-name="Trazado 259233" d="M358.271,351.4l-6.936.727-.35-4.02-.95-10.938,6.936-.736,1.052,12.084Z" transform="translate(-273.553 -116.063)" fill="#e4897b"/>
        <path id="Trazado_259234" data-name="Trazado 259234" d="M401.785,350.188h-6.722l-.06-1.522-.009-.188-.342-9.75-.009-.2-.137-3.737h6.73Z" transform="translate(-282.447 -115.736)" fill="#e4897b"/>
        <g id="Grupo_236217" data-name="Grupo 236217" transform="translate(76.483 220.366)" opacity="0.2" style="isolation: isolate">
          <g id="Grupo_236216" data-name="Grupo 236216">
            <g id="Grupo_236215" data-name="Grupo 236215" clip-path="url(#clip-path-32)">
              <path id="Trazado_259235" data-name="Trazado 259235" d="M356.971,336.429l1.052,12.084-7.038-.41-.95-10.938Z" transform="translate(-350.036 -336.429)"/>
            </g>
          </g>
        </g>
        <g id="Grupo_236220" data-name="Grupo 236220" transform="translate(112.197 223.334)" opacity="0.2" style="isolation: isolate">
          <g id="Grupo_236219" data-name="Grupo 236219">
            <g id="Grupo_236218" data-name="Grupo 236218" clip-path="url(#clip-path-33)">
              <path id="Trazado_259236" data-name="Trazado 259236" d="M401.776,350.4h-.009l-6.73-.855h-.009l-.35-9.407h.009l6.739.538.342,9.429Z" transform="translate(-394.678 -340.139)"/>
            </g>
          </g>
        </g>
        <path id="Trazado_259237" data-name="Trazado 259237" d="M390.916,353.53h8.167a.589.589,0,0,1,.573.462l1.326,5.986a.993.993,0,0,1-.983,1.2c-2.642-.042-4.567-.206-7.885-.206-2.044,0-8.21.214-11.033.214s-3.19-2.788-2.035-3.045c5.182-1.129,9.082-2.694,10.742-4.182a1.622,1.622,0,0,1,1.129-.428" transform="translate(-279.232 -119.483)" fill="#263238"/>
        <path id="Trazado_259238" data-name="Trazado 259238" d="M347.62,353.263h8.167a.589.589,0,0,1,.573.462l1.326,5.986a.992.992,0,0,1-.765,1.176,1,1,0,0,1-.218.022c-2.642-.042-4.566-.2-7.885-.2-2.044,0-8.21.214-11.033.214s-3.19-2.788-2.035-3.045c5.182-1.129,9.082-2.694,10.742-4.182a1.623,1.623,0,0,1,1.129-.428" transform="translate(-270.573 -119.43)" fill="#263238"/>
        <path id="Trazado_259239" data-name="Trazado 259239" d="M348.482,315.638h9.861s-.8-73.418,9.86-102.086c.753,9.476,1.6,19.309,2.429,27.5.522,5.071,1.035,7.028,1.522,10.346,3.1,21.381,10.938,65.094,10.938,65.094h9.741s-1.154-41.507-2.309-62.52c-1.274-22.809-1.822-70.546-1.873-74.822h-35.68c-3.4,17.959-12.1,78.332-4.49,136.486" transform="translate(-272.635 -84.607)" fill="#263238"/>
        <g id="Grupo_236223" data-name="Grupo 236223" transform="translate(72.814 94.544)" opacity="0.2" style="isolation: isolate">
          <g id="Grupo_236222" data-name="Grupo 236222">
            <g id="Grupo_236221" data-name="Grupo 236221" clip-path="url(#clip-path-34)">
              <path id="Trazado_259240" data-name="Trazado 259240" d="M348.482,315.638h9.861s-.8-73.418,9.86-102.086c.753,9.476,1.6,19.309,2.429,27.5.522,5.071,1.035,7.028,1.522,10.346,3.1,21.381,10.938,65.094,10.938,65.094h9.741s-1.154-41.507-2.309-62.52c-1.274-22.809-1.822-70.546-1.873-74.822h-35.68c-3.4,17.959-12.1,78.332-4.49,136.486" transform="translate(-345.449 -179.151)" fill="#fff"/>
            </g>
          </g>
        </g>
        <path id="Trazado_259241" data-name="Trazado 259241" d="M403.413,108.385c4.937,3.169,16.321,27.138,11.7,31.939-8.046,8.367-16.77-14.919-16.77-14.919Z" transform="translate(-283.215 -70.454)" fill="#a3314f"/>
        <g id="Grupo_236226" data-name="Grupo 236226" transform="translate(115.134 37.928)" opacity="0.3" style="isolation: isolate">
          <g id="Grupo_236225" data-name="Grupo 236225">
            <g id="Grupo_236224" data-name="Grupo 236224" clip-path="url(#clip-path-35)">
              <path id="Trazado_259242" data-name="Trazado 259242" d="M415.12,140.327c-1.873,1.95-3.789,2.181-5.618,1.386C403.481,139.1,398.35,125.4,398.35,125.4l2.9-9.75,2.163-7.27c4.935,3.165,16.318,27.136,11.708,31.942" transform="translate(-398.35 -108.385)" fill="#a3314f"/>
            </g>
          </g>
        </g>
        <g id="Grupo_236229" data-name="Grupo 236229" transform="translate(115.134 45.201)" opacity="0.2" style="isolation: isolate">
          <g id="Grupo_236228" data-name="Grupo 236228">
            <g id="Grupo_236227" data-name="Grupo 236227" clip-path="url(#clip-path-36)">
              <path id="Trazado_259243" data-name="Trazado 259243" d="M409.5,143.53c-6.021-2.617-11.152-16.309-11.152-16.309l2.9-9.75s9.587,11.442,8.253,26.058" transform="translate(-398.35 -117.472)"/>
            </g>
          </g>
        </g>
        <path id="Trazado_259244" data-name="Trazado 259244" d="M370.9,83.131a9.609,9.609,0,0,0,.29.951,9.466,9.466,0,0,0,4.544,5.184,8.424,8.424,0,0,0,10.064-1.6c3.369-3.4,3.278-7.33,3.658-13.978a9.119,9.119,0,0,0-12.582-9.094c-6.522,2.66-7.416,12.553-5.974,18.539" transform="translate(-277.607 -61.555)" fill="#e4897b"/>
        <g id="Grupo_236232" data-name="Grupo 236232" transform="translate(96.909 25.675)" opacity="0.2" style="isolation: isolate">
          <g id="Grupo_236231" data-name="Grupo 236231">
            <g id="Grupo_236230" data-name="Grupo 236230" clip-path="url(#clip-path-37)">
              <path id="Trazado_259245" data-name="Trazado 259245" d="M375.568,94.348a9.259,9.259,0,0,0,1.217.752,8.472,8.472,0,0,0,7.284.322,9.942,9.942,0,0,0-1.188-2.257,13.128,13.128,0,0,0-7.313,1.182" transform="translate(-375.568 -93.065)"/>
            </g>
          </g>
        </g>
        <path id="Trazado_259246" data-name="Trazado 259246" d="M388.444,101.128c-3.275,2.976-11.3,1.876-11.3,1.876s-5.009-1.371-3.957-2.937c2.95-.487,4.378-1.864,4.969-3.626a8.58,8.58,0,0,0,.3-3.37,17.832,17.832,0,0,0-.248-1.882l9.921-7.346c-1.3,4.85-2.891,13.769.316,17.284" transform="translate(-278.154 -65.546)" fill="#e4897b"/>
        <path id="Trazado_259247" data-name="Trazado 259247" d="M374.508,76.492l-1.434.542.717-2.932s-2.1-3.158,0-5.977c0,0-5.794-1.759-2.522-4.819,1.218-1.138,2.73,0,6.724-1.742,2.169-.946,8.952-1.019,9.29,1.742,0,0,4.886-.03,5.413,8.315a16.648,16.648,0,0,1-5.174,13.15s-5.9,1.4-8.764-.971-4.25-7.309-4.25-7.309" transform="translate(-277.599 -60.971)" fill="#263238"/>
        <path id="Trazado_259248" data-name="Trazado 259248" d="M379.219,79.881a4.314,4.314,0,0,1-2.214,2.954c-1.354.574-2.243-1.334-2.047-3.333.185-1.771,1.1-4.266,2.552-3.937s2.181,2.527,1.709,4.315" transform="translate(-278.532 -63.884)" fill="#e4897b"/>
        <g id="Grupo_236235" data-name="Grupo 236235" transform="translate(95.567 111.375)" opacity="0.2" style="isolation: isolate">
          <g id="Grupo_236234" data-name="Grupo 236234">
            <g id="Grupo_236233" data-name="Grupo 236233" clip-path="url(#clip-path-38)">
              <path id="Trazado_259249" data-name="Trazado 259249" d="M373.891,217.722c.753,9.476,1.6,19.328,2.429,27.521,1.214-11.827,2.7-20.26,2.7-20.26s1.394-1.146,5.226-7.261,0-17.532,0-17.532c.12,10.6-10.357,17.532-10.357,17.532" transform="translate(-373.891 -200.19)"/>
            </g>
          </g>
        </g>
        <path id="Trazado_259250" data-name="Trazado 259250" d="M347.858,346.286l.481,2.779h11.653V346.5Z" transform="translate(-273.117 -118.034)" fill="#a3314f"/>
        <path id="Trazado_259251" data-name="Trazado 259251" d="M391.1,347.622l1.118,2.566h9.77l.642-2.566Z" transform="translate(-281.767 -118.301)" fill="#a3314f"/>
        <path id="Trazado_259252" data-name="Trazado 259252" d="M390.506,185.957V191.2l-37.384-2.622v-4.65Z" transform="translate(-274.17 -85.563)" fill="#b55a72"/>
        <g id="Grupo_236238" data-name="Grupo 236238" transform="translate(78.952 98.367)" opacity="0.2" style="isolation: isolate">
          <g id="Grupo_236237" data-name="Grupo 236237">
            <g id="Grupo_236236" data-name="Grupo 236236" clip-path="url(#clip-path-39)">
              <path id="Trazado_259253" data-name="Trazado 259253" d="M390.506,185.957V191.2l-37.384-2.622v-4.65Z" transform="translate(-353.122 -183.93)" fill="#b55a72"/>
            </g>
          </g>
        </g>
        <path id="Trazado_259254" data-name="Trazado 259254" d="M374.931,102.684s4.1-3.59,11.227-1.826,6.23,6.766,6.23,6.766Z" transform="translate(-278.532 -68.851)" fill="#b55a72"/>
        <path id="Trazado_259255" data-name="Trazado 259255" d="M305.7,105.815l-6.2-4.294a15.734,15.734,0,0,0-3.046-2.806c-1.353-.79-9.7-2.143-10.15-1.579s-.451,4.782.451,5.774,8.007,2.007,8.346,2.007a13.725,13.725,0,0,0,1.508-.25l6.161,4.978Z" transform="translate(-260.746 -68.177)" fill="#e4897b"/>
        <path id="Trazado_259256" data-name="Trazado 259256" d="M307.717,106.339l-3.834-3.165-3.834,3.9,3.834,4.223Z" transform="translate(-263.555 -69.412)" fill="#b55a72"/>
        <g id="Grupo_236241" data-name="Grupo 236241" transform="translate(96.399 31.519)" opacity="0.2" style="isolation: isolate">
          <g id="Grupo_236240" data-name="Grupo 236240">
            <g id="Grupo_236239" data-name="Grupo 236239" clip-path="url(#clip-path-40)">
              <path id="Trazado_259257" data-name="Trazado 259257" d="M374.931,102.684s4.1-3.59,11.227-1.826,6.23,6.766,6.23,6.766Z" transform="translate(-374.931 -100.37)" fill="#a3314f"/>
            </g>
          </g>
        </g>
        <g id="Grupo_236244" data-name="Grupo 236244" transform="translate(36.493 33.762)" opacity="0.2" style="isolation: isolate">
          <g id="Grupo_236243" data-name="Grupo 236243">
            <g id="Grupo_236242" data-name="Grupo 236242" clip-path="url(#clip-path-41)">
              <path id="Trazado_259258" data-name="Trazado 259258" d="M307.717,106.339l-3.834-3.165-3.834,3.9,3.834,4.223Z" transform="translate(-300.048 -103.174)" fill="#b55a72"/>
            </g>
          </g>
        </g>
        <path id="Trazado_259259" data-name="Trazado 259259" d="M350.841,165a3.537,3.537,0,0,0,3.361,3.789l35.081,1.71a1.979,1.979,0,0,0,2.087-1.967c.222-21.354,7.534-57.8,2.54-61.664-5.166-3.994-30.506-6.089-30.506-6.089a85.643,85.643,0,0,0-3.1,8.56c-.111.368-.23.736-.333,1.112-1.454,4.806-2.678,9.989-3.729,15.24-.078.35-.146.71-.214,1.061A336.531,336.531,0,0,0,350.841,165" transform="translate(-273.712 -68.932)" fill="#a3314f"/>
        <g id="Grupo_236247" data-name="Grupo 236247" transform="translate(77.238 31.836)" opacity="0.3" style="isolation: isolate">
          <g id="Grupo_236246" data-name="Grupo 236246">
            <g id="Grupo_236245" data-name="Grupo 236245" clip-path="url(#clip-path-42)">
              <path id="Trazado_259260" data-name="Trazado 259260" d="M391.368,168.528a1.979,1.979,0,0,1-2.086,1.967l-35.082-1.71A3.537,3.537,0,0,1,350.84,165a336.4,336.4,0,0,1,5.183-38.249c.068-.35.137-.71.214-1.06q.512-2.579,1.094-5.123c.778-3.481,1.659-6.884,2.634-10.117.1-.376.222-.744.334-1.112.119-.385.239-.77.359-1.146.846-2.626,1.762-5.123,2.745-7.415,0,0,25.34,2.1,30.506,6.09,4.994,3.866-2.318,40.31-2.54,61.664" transform="translate(-350.83 -100.774)" fill="#a3314f"/>
            </g>
          </g>
        </g>
        <g id="Grupo_236250" data-name="Grupo 236250" transform="translate(83.619 38.769)" opacity="0.2" style="isolation: isolate">
          <g id="Grupo_236249" data-name="Grupo 236249">
            <g id="Grupo_236248" data-name="Grupo 236248" clip-path="url(#clip-path-43)">
              <path id="Trazado_259261" data-name="Trazado 259261" d="M358.956,122.3c.778-3.481,1.659-6.885,2.634-10.117.1-.377.222-.745.334-1.112.119-.385.239-.77.359-1.146l2-.487s.642,7.766-5.328,12.862" transform="translate(-358.956 -109.433)"/>
            </g>
          </g>
        </g>
        <path id="Trazado_259262" data-name="Trazado 259262" d="M353.8,100.772c4.248-.358-4.717,14.21-4.717,14.21s-20.062,9.25-26.153,9.423c-4.78.136-15.118-9.145-19.344-13.144a2.46,2.46,0,0,1,0-3.567l2.377-2.272a2.463,2.463,0,0,1,3.032-.294c3.545,2.272,11.829,7.435,13.939,7.462,2.706.034,24.3-11.263,30.87-11.817" transform="translate(-264.11 -68.93)" fill="#a3314f"/>
        <g id="Grupo_236253" data-name="Grupo 236253" transform="translate(38.71 31.836)" opacity="0.3" style="isolation: isolate">
          <g id="Grupo_236252" data-name="Grupo 236252">
            <g id="Grupo_236251" data-name="Grupo 236251" clip-path="url(#clip-path-44)">
              <path id="Trazado_259263" data-name="Trazado 259263" d="M353.8,100.772c4.248-.358-4.717,14.21-4.717,14.21s-20.062,9.25-26.153,9.423c-4.78.136-15.118-9.145-19.344-13.144a2.46,2.46,0,0,1,0-3.567l2.377-2.272a2.463,2.463,0,0,1,3.032-.294c3.545,2.272,11.829,7.435,13.939,7.462,2.706.034,24.3-11.263,30.87-11.817" transform="translate(-302.82 -100.766)" fill="#a3314f"/>
            </g>
          </g>
        </g>
      </g>
    </g>
    <g id="Grupo_236284" data-name="Grupo 236284" transform="translate(39.686 78.784)">
      <g id="Grupo_236290" data-name="Grupo 236290">
        <path id="Trazado_259264" data-name="Trazado 259264" d="M80.752,101.744s2.319-4.528,10.216-2.918,11.017,6.71,10.414,12.865-2.539,9.67-1.282,12.6c.627,1.459,4.314.4,4.314.4s-1.724,2.113-7.906,2.963c-6.561.9-15.534,2.674-19.328-2.461s3.572-23.446,3.572-23.446" transform="translate(-54.905 -98.479)" fill="#263238"/>
        <path id="Trazado_259265" data-name="Trazado 259265" d="M137.045,350.728l-4.814.85-1.974-6.562-1.8-6.024,5.55-1.938,1.611,7.239Z" transform="translate(-65.377 -146.194)" fill="#e4897b"/>
        <g id="Grupo_236258" data-name="Grupo 236258" transform="translate(63.091 190.891)" opacity="0.2" style="isolation: isolate">
          <g id="Grupo_236257" data-name="Grupo 236257">
            <g id="Grupo_236256" data-name="Grupo 236256" clip-path="url(#clip-path-45)">
              <path id="Trazado_259266" data-name="Trazado 259266" d="M135.647,344.449l-5.363.706-1.813-6.09,5.544-1.971Z" transform="translate(-128.471 -337.094)"/>
            </g>
          </g>
        </g>
        <path id="Trazado_259267" data-name="Trazado 259267" d="M97.419,353.387H92.531l-.8-6.884L91,340.219l5.8-.963.328,7.478Z" transform="translate(-57.886 -146.635)" fill="#e4897b"/>
        <g id="Grupo_236261" data-name="Grupo 236261" transform="translate(33.116 192.635)" opacity="0.2" style="isolation: isolate">
          <g id="Grupo_236260" data-name="Grupo 236260">
            <g id="Grupo_236259" data-name="Grupo 236259" clip-path="url(#clip-path-46)">
              <path id="Trazado_259268" data-name="Trazado 259268" d="M97.133,346.8l-5.4-.238L91,340.25l5.8-.978Z" transform="translate(-91.003 -339.273)"/>
            </g>
          </g>
        </g>
        <path id="Trazado_259269" data-name="Trazado 259269" d="M125.794,310.371l-7.913,1.394c-7.985-19.894-13.665-44.5-17.676-58.281-2.16-7.436-3.962-14.048-5.256-19.916l.242,21.658v56.786h-7.8C67.846,218.911,81.7,189.694,81.7,189.694l23.384-3.893a106.48,106.48,0,0,1,1.959,13.138L108.1,206.7l9.142,47.215Z" transform="translate(-55.073 -115.944)" fill="#263238"/>
        <g id="Grupo_236264" data-name="Grupo 236264" transform="translate(21.863 69.857)" opacity="0.2" style="isolation: isolate">
          <g id="Grupo_236263" data-name="Grupo 236263">
            <g id="Grupo_236262" data-name="Grupo 236262" clip-path="url(#clip-path-47)">
              <path id="Trazado_259270" data-name="Trazado 259270" d="M125.794,310.371l-7.913,1.394c-7.985-19.894-13.665-44.5-17.676-58.281-2.16-7.436-3.962-14.048-5.256-19.916l.242,21.658v56.786h-7.8C67.846,218.911,81.7,189.694,81.7,189.694l23.384-3.893a106.48,106.48,0,0,1,1.959,13.138L108.1,206.7l9.142,47.215Z" transform="translate(-76.936 -185.801)"/>
            </g>
          </g>
        </g>
        <path id="Trazado_259271" data-name="Trazado 259271" d="M168.944,131.22l10.127-4.538s.989-1.861,1.908-2.138,6.68-.218,7.147.422-.2,5.063-1.353,5.488-6.12-.341-6.562-.6l-11.551,6.5Z" transform="translate(-73.418 -103.661)" fill="#eec1bb"/>
        <g id="Grupo_236267" data-name="Grupo 236267" transform="translate(39.994 96.856)" opacity="0.2" style="isolation: isolate">
          <g id="Grupo_236266" data-name="Grupo 236266">
            <g id="Grupo_236265" data-name="Grupo 236265" clip-path="url(#clip-path-48)">
              <path id="Trazado_259272" data-name="Trazado 259272" d="M104.738,260.235c-2.161-7.436-3.844-14.048-5.138-19.916a183.321,183.321,0,0,1,1.51-20.768s3.425,26.788,3.627,40.684" transform="translate(-99.6 -219.55)"/>
            </g>
          </g>
        </g>
        <path id="Trazado_259273" data-name="Trazado 259273" d="M69.76,235.516l-19.086,3.942a.79.79,0,0,0-.594,1.007L53.9,252.759a.789.789,0,0,0,.9.541l18.978-3.646a.789.789,0,0,0,.608-1l-3.71-12.59a.789.789,0,0,0-.917-.55" transform="translate(-49.695 -125.883)" fill="#a3314f"/>
        <g id="Grupo_236270" data-name="Grupo 236270" transform="translate(0.351 109.616)" opacity="0.6">
          <g id="Grupo_236269" data-name="Grupo 236269">
            <g id="Grupo_236268" data-name="Grupo 236268" clip-path="url(#clip-path-49)">
              <path id="Trazado_259274" data-name="Trazado 259274" d="M69.76,235.516l-19.086,3.942a.79.79,0,0,0-.594,1.007L53.9,252.759a.789.789,0,0,0,.9.541l18.978-3.646a.789.789,0,0,0,.608-1l-3.71-12.59a.789.789,0,0,0-.917-.55" transform="translate(-50.045 -235.499)" fill="#a3314f"/>
            </g>
          </g>
        </g>
        <path id="Trazado_259275" data-name="Trazado 259275" d="M69.322,236.1l-19.085,3.942a.79.79,0,0,0-.594,1.007l3.818,12.294a.789.789,0,0,0,.9.541l18.978-3.646a.789.789,0,0,0,.608-1l-3.71-12.59a.789.789,0,0,0-.917-.55" transform="translate(-49.607 -126.001)" fill="#a3314f"/>
        <g id="Grupo_236273" data-name="Grupo 236273" transform="translate(0 110.086)" opacity="0.7">
          <g id="Grupo_236272" data-name="Grupo 236272">
            <g id="Grupo_236271" data-name="Grupo 236271" clip-path="url(#clip-path-50)">
              <path id="Trazado_259276" data-name="Trazado 259276" d="M69.322,236.1l-19.085,3.942a.79.79,0,0,0-.594,1.007l3.818,12.294a.789.789,0,0,0,.9.541l18.978-3.646a.789.789,0,0,0,.608-1l-3.71-12.59a.789.789,0,0,0-.917-.55" transform="translate(-49.607 -236.087)" fill="#fff"/>
            </g>
          </g>
        </g>
        <g id="Grupo_236276" data-name="Grupo 236276" transform="translate(10.275 117.01)" opacity="0.2" style="isolation: isolate">
          <g id="Grupo_236275" data-name="Grupo 236275">
            <g id="Grupo_236274" data-name="Grupo 236274" clip-path="url(#clip-path-51)">
              <path id="Trazado_259277" data-name="Trazado 259277" d="M64.775,248.512a1.908,1.908,0,1,1,1.445-2.278.281.281,0,0,1,.01.073,1.9,1.9,0,0,0-1.157,2.114,1.717,1.717,0,0,1-.3.092" transform="translate(-62.451 -244.742)"/>
            </g>
          </g>
        </g>
        <path id="Trazado_259278" data-name="Trazado 259278" d="M61.238,219.175l2.734,10.756s1.665,1.293,1.78,2.246-.93,6.619-1.642,6.969-4.953-1.07-5.174-2.274,1.386-5.97,1.715-6.362l-4.424-12.5Z" transform="translate(-50.931 -122.386)" fill="#eec1bb"/>
        <path id="Trazado_259279" data-name="Trazado 259279" d="M104.893,174.937c.954-16.8.527-26.037.094-30.654-.477-4.921-1.235-5.1-1.235-5.1s-5.334-.52-9.973-.484a75.942,75.942,0,0,0-10.71,1.127,70.712,70.712,0,0,0-9.9,2.392c.542,1.546,1.034,3.014,1.489,4.394.607,1.821,1.149,3.512,1.64,5.087.918,2.948,1.634,5.5,2.2,7.782A84.818,84.818,0,0,1,81.039,177s-5.87,15.338-7.014,26.594c0,0,15.708,3.3,21.9,2.59a53,53,0,0,0,13.776-3.926Z" transform="translate(-54.32 -106.523)" fill="#263238"/>
        <g id="Grupo_236279" data-name="Grupo 236279" transform="translate(18.849 32.172)" opacity="0.1" style="isolation: isolate">
          <g id="Grupo_236278" data-name="Grupo 236278">
            <g id="Grupo_236277" data-name="Grupo 236277" clip-path="url(#clip-path-52)">
              <path id="Trazado_259280" data-name="Trazado 259280" d="M104.893,174.937c.954-16.8.527-26.037.094-30.654-.477-4.921-1.235-5.1-1.235-5.1s-5.334-.52-9.973-.484a75.942,75.942,0,0,0-10.71,1.127,70.712,70.712,0,0,0-9.9,2.392c.542,1.546,1.034,3.014,1.489,4.394.607,1.821,1.149,3.512,1.64,5.087.918,2.948,1.634,5.5,2.2,7.782A84.818,84.818,0,0,1,81.039,177s-5.87,15.338-7.014,26.594c0,0,15.708,3.3,21.9,2.59a53,53,0,0,0,13.776-3.926Z" transform="translate(-73.169 -138.694)" fill="#fff"/>
            </g>
          </g>
        </g>
        <path id="Trazado_259281" data-name="Trazado 259281" d="M96.255,137.817a5.124,5.124,0,0,0-.726-.311c-.55-.434-1.218-1.481-1.186-4.026a20.716,20.716,0,0,1,.276-2.978l-7.076-1.322s2.413,4.762.4,8.3c-.693.309-1.106.743-1.03,1.32.529,4.089,9.318,8.041,9.318,8.041s4.293-6.678.025-9.022" transform="translate(-57.067 -104.62)" fill="#eec1bb"/>
        <g id="Grupo_236282" data-name="Grupo 236282" transform="translate(30.477 24.56)" opacity="0.2" style="isolation: isolate">
          <g id="Grupo_236281" data-name="Grupo 236281">
            <g id="Grupo_236280" data-name="Grupo 236280" clip-path="url(#clip-path-53)">
              <path id="Trazado_259282" data-name="Trazado 259282" d="M94.779,130.5a20.843,20.843,0,0,0-.276,2.979,7.874,7.874,0,0,1-6.8-4.3Z" transform="translate(-87.703 -129.18)"/>
            </g>
          </g>
        </g>
        <path id="Trazado_259283" data-name="Trazado 259283" d="M89.817,106.095c6.15-.337,8.311,2.847,9.109,9.162,1,7.89-.451,13.614-8.234,12.343-10.57-1.726-11.089-20.946-.874-21.5" transform="translate(-56.176 -99.998)" fill="#eec1bb"/>
        <path id="Trazado_259284" data-name="Trazado 259284" d="M98.051,117.395a13,13,0,0,0,1.93,2.453,1.693,1.693,0,0,1-1.583.785Z" transform="translate(-59.296 -102.263)" fill="#d4827d"/>
        <path id="Trazado_259285" data-name="Trazado 259285" d="M93,116.807c.039.5-.2.935-.538.962s-.641-.362-.681-.866.2-.935.538-.962.642.362.681.866" transform="translate(-58.042 -101.971)" fill="#263238"/>
        <path id="Trazado_259286" data-name="Trazado 259286" d="M92.286,115.857l1.064-.517s-.474.966-1.064.517" transform="translate(-58.143 -101.852)" fill="#263238"/>
        <path id="Trazado_259287" data-name="Trazado 259287" d="M100.835,116.062c.039.5-.2.935-.538.962s-.641-.362-.681-.866.2-.934.538-.961.642.361.681.866" transform="translate(-59.608 -101.823)" fill="#263238"/>
        <path id="Trazado_259288" data-name="Trazado 259288" d="M100.117,115.112l1.064-.516s-.474.966-1.064.516" transform="translate(-59.709 -101.703)" fill="#263238"/>
        <path id="Trazado_259289" data-name="Trazado 259289" d="M92.288,111.718a3.206,3.206,0,0,0-2.617,1.076" transform="translate(-57.62 -101.126)" fill="none" stroke="#263238" stroke-linecap="round" stroke-linejoin="round" stroke-width="0.686"/>
        <path id="Trazado_259290" data-name="Trazado 259290" d="M98.513,111.056a2.876,2.876,0,0,1,2.479.371" transform="translate(-59.388 -100.969)" fill="none" stroke="#263238" stroke-linecap="round" stroke-linejoin="round" stroke-width="0.686"/>
        <path id="Trazado_259291" data-name="Trazado 259291" d="M83.214,116.239s2.6-5.211,1.95-9.089c0,0,11.917-5.646,13.2,6.692,0,0,.589-11.051-10-10.717-10.569.334-9.694,15.8-3.982,20.11,0,0-2.771-3.739-1.166-7" transform="translate(-55.727 -99.407)" fill="#263238"/>
        <path id="Trazado_259292" data-name="Trazado 259292" d="M84.19,120.487a2.7,2.7,0,0,0-3.04-2.306c-1.894.312-2.589,4.275,2.2,4.956.688.1,1.035-.588.836-2.65" transform="translate(-55.628 -102.412)" fill="#eec1bb"/>
        <path id="Trazado_259293" data-name="Trazado 259293" d="M92.481,124.185a4.952,4.952,0,0,0,3.53,1.431" transform="translate(-58.182 -103.621)" fill="none" stroke="#263238" stroke-linecap="round" stroke-linejoin="round" stroke-width="0.686"/>
        <path id="Trazado_259294" data-name="Trazado 259294" d="M85.538,104.916s1.147,4.4-4.962,9.753-2.737,13.49.483,14.359c0,0-5.63-.731-8.255-4.078-3.8-4.841.96-7.674,1.564-12.139s-1.41-7.484,1.811-10.7,10.325-2.048,9.358,2.809" transform="translate(-53.955 -98.844)" fill="#263238"/>
        <path id="Trazado_259295" data-name="Trazado 259295" d="M87.169,105.2s3.055,7.7-8.114,12" transform="translate(-55.497 -99.824)" fill="none" stroke="#263238" stroke-linecap="round" stroke-linejoin="round" stroke-width="0.5"/>
        <path id="Trazado_259296" data-name="Trazado 259296" d="M79.638,140.931s9.12,14.775,9.076,26.983-12.531,22.218-12.531,22.218L78.8,175.9l-5.631-33.233Z" transform="translate(-54.32 -106.97)" fill="#a3314f"/>
        <path id="Trazado_259297" data-name="Trazado 259297" d="M107.2,138.694s-1.978,21.546-.62,28.773,8.151,21.29,8.151,21.29l-2.415-15.186s1.742-21.474-1.561-34.391Z" transform="translate(-60.906 -106.522)" fill="#a3314f"/>
        <path id="Trazado_259298" data-name="Trazado 259298" d="M111.915,137.209s21.64,2.808,24.783,2.808,27.294-11.179,27.294-11.179l3.126,3.492s-20.635,15.449-28.485,16.7-26.718,1.05-26.718,1.05Z" transform="translate(-62.069 -104.551)" fill="#a3314f"/>
        <path id="Trazado_259299" data-name="Trazado 259299" d="M68.83,143.1c-4.273.981-17.354,34.66-17.354,39.658s5.233,29.953,5.233,29.953l6.515-1.526S59.8,185,61.01,182.753s12.2-26,12.2-26a59.847,59.847,0,0,0-1.368-8.855c-1.047-4.226-3.014-4.8-3.014-4.8" transform="translate(-49.981 -107.403)" fill="#a3314f"/>
        <path id="Trazado_259300" data-name="Trazado 259300" d="M131.047,351.151c.022-.569,7.006-.018,7.006-.018s4.236,4.438,8.4,5.483,1.791,3.518-2.878,3.448l-11.55-.172c-3.318-.05-1.2-2.845-.976-8.741" transform="translate(-65.721 -148.962)" fill="#263238"/>
        <path id="Trazado_259301" data-name="Trazado 259301" d="M143.328,352.61a10.844,10.844,0,0,1-2.373-.871.176.176,0,0,1-.054-.039.194.194,0,0,1-.037-.059h0a.18.18,0,0,1-.011-.046h0a.2.2,0,0,1,.01-.082c.028-.075.639-1.694,1.592-2.073a1.077,1.077,0,0,1,.9.038c.316.156.468.356.45.6-.026.367-.53.728-1.1,1.023a2.879,2.879,0,0,1,1.565.194.75.75,0,0,1,.367.478.672.672,0,0,1-.181.743,1.461,1.461,0,0,1-1.13.1m-1.731-.978c1.024.452,2.3.856,2.632.59.029-.023.118-.094.051-.369a.386.386,0,0,0-.2-.247,4.565,4.565,0,0,0-2.487.026m1.4-1.9a.7.7,0,0,0-.4.043,3.09,3.09,0,0,0-1.222,1.485c1.042-.378,2.05-.906,2.073-1.221.007-.1-.15-.191-.246-.237a.781.781,0,0,0-.2-.07" transform="translate(-67.856 -148.655)" fill="#a3314f"/>
        <path id="Trazado_259302" data-name="Trazado 259302" d="M90.811,352.119c.014-.569,7-.123,7-.123s4.3,4.375,8.479,5.358,1.844,3.49-2.826,3.49H91.917c-3.318,0-1.244-2.826-1.106-8.726" transform="translate(-57.695 -149.149)" fill="#263238"/>
        <path id="Trazado_259303" data-name="Trazado 259303" d="M103.607,353.451a8.764,8.764,0,0,1-2.9-.886.175.175,0,0,1-.062-.047.249.249,0,0,1-.025-.039.184.184,0,0,1-.007-.142c.025-.069.612-1.7,1.56-2.1a1.072,1.072,0,0,1,.9.025c.318.151.473.348.459.588-.021.367-.519.736-1.087,1.039a2.859,2.859,0,0,1,1.568.171.748.748,0,0,1,.373.474.67.67,0,0,1-.169.745.967.967,0,0,1-.617.168m-2.258-1c1.03.436,2.311.822,2.641.551.029-.024.116-.1.046-.37a.39.39,0,0,0-.2-.244,4.57,4.57,0,0,0-2.487.063m1.251-1.926a.74.74,0,0,0-.283.059,3.09,3.09,0,0,0-1.2,1.5c1.036-.393,2.037-.938,2.054-1.252.006-.1-.154-.188-.25-.233a.745.745,0,0,0-.322-.078" transform="translate(-59.807 -148.814)" fill="#a3314f"/>
      </g>
    </g>
  </g>
</svg>
