<svg xmlns="http://www.w3.org/2000/svg" width="252.395" height="247.728" viewBox="0 0 252.395 247.728">
  <g id="Grupo_165329" data-name="Grupo 165329" transform="translate(0 -4.284)">
    <g id="Grupo_165330" data-name="Grupo 165330" transform="translate(0 4.284)">
      <path id="Trazado_236638" data-name="Trazado 236638" d="M252.395,30.186c-.711,1.783-1.29,3.634-2.155,5.339-6.22,12.258-19.875,16.145-31.664,9.066-.281-.169-.577-.312-1.033-.556L184.6,76.307,195.288,86.2c.788-8.837,5.318-15.782,14.145-19.323a20.417,20.417,0,0,1,16.962.583c12.049,5.846,16.242,19.509,9.554,31.2-5.339,9.334-19.912,15.672-33.492,5.129-2.393,4.088-4.3,8.532-7.257,12.118a121.82,121.82,0,0,1-13.715,13.957c-2.879,2.526-7.7,1.77-10.7-.812a42.344,42.344,0,0,1-3.307-3.583c-.912.855-1.621,1.494-2.3,2.161q-25.134,24.646-50.265,49.3c-4.653,4.562-8.976,4.811-14.24.953a3.263,3.263,0,0,0-2.4-.5q-11.447,2.826-22.837,5.88a6.443,6.443,0,0,0-2.529,1.789q-32.739,32.362-65.44,64.762c-3,2.974-4.735,2.932-7.467-.148v-2.952c.932-.893,1.878-1.773,2.8-2.681Q35.169,211.991,67.5,179.907a10.044,10.044,0,0,0,2.423-4.079c2.067-6.89,3.927-13.842,5.906-20.759a3.884,3.884,0,0,0-.474-3.6c-2.812-4.26-2.1-8.765,1.81-12.607q25.212-24.754,50.449-49.481c.7-.682,1.431-1.322,2.236-2.062-.907-.956-1.634-1.709-2.346-2.476-4.192-4.513-4.079-9.743.141-14.221,6.164-6.542,12.8-12.429,21.14-16.12,1.246-.551,2.395-1.321,3.6-2-10.825-14.86-2.5-30.049,8.16-34.68,10.995-4.776,24.806.82,29.042,12.269a21.329,21.329,0,0,1-2.408,20.377c-4.249,6.158-10.356,9.349-18.419,9.515l11.3,10.427,32.358-31.716a23.454,23.454,0,0,1-3.851-13.29c.2-10.061,8.568-19.492,18.236-20.871A22.01,22.01,0,0,1,251.4,19.9c.282.981.659,1.935.992,2.9ZM81.241,163.507c-1.1,3.693-2.2,7.386-3.424,11.517l11.408-3.119,4.8-1.125-11.9-11.026c-.261,1.107-.573,2.43-.885,3.753m49.276-66.455a2.1,2.1,0,0,0-.411.251q-23.91,23.438-47.832,46.862c-1.829,1.786-1.146,3.139.261,4.58q11.092,11.361,22.2,22.709c2.269,2.312,2.876,2.281,5.236-.033q17.405-17.063,34.8-34.135c4.208-4.136,8.364-8.325,12.543-12.49l4.787-4.469L135.248,92.774l-4.731,4.278m9.33-28.59c-2.224,2.385-4.255,4.626-6.357,6.8-2.157,2.232-2.214,2.844-.081,5.037q7.719,7.939,15.463,15.853,12.794,13.127,25.58,26.264c1.022,1.051,2.239,2.2,3.552.928,2.624-2.534,5-5.326,7.5-8.036L139.847,68.462M190.4,109.731c1.924-3.3,3.727-6.235,5.321-9.276a2.652,2.652,0,0,0-.3-2.432q-18.645-19.3-37.459-38.445a2.434,2.434,0,0,0-2.224-.367c-3.141,1.586-6.188,3.356-9.513,5.2L190.4,109.731m40.24-69A14.572,14.572,0,0,0,244.979,25.77c-.26-7.9-6.977-14.387-14.685-14.192a14.577,14.577,0,0,0,.342,29.152m1.086,46.744a14.519,14.519,0,1,0-29.036-.27,14.519,14.519,0,1,0,29.036.27M154.7,37.945a14.6,14.6,0,0,0,14.384,14.686A14.611,14.611,0,1,0,154.7,37.945" transform="translate(0 -4.284)" fill="#040304"/>
      <path id="Trazado_236639" data-name="Trazado 236639" d="M207.87,182.579c-4.18,4.165-8.336,8.354-12.544,12.49q-17.383,17.086-34.8,34.135c-2.359,2.313-2.967,2.344-5.235.033q-11.122-11.334-22.2-22.709c-1.407-1.441-2.09-2.8-.261-4.58q23.959-23.388,47.832-46.863a2.146,2.146,0,0,1,.411-.251c4.865,4.92,9.772,9.8,14.582,14.77,4.13,4.27,8.15,8.646,12.218,12.975" transform="translate(-50.554 -62.065)" fill="#d7dbe9"/>
      <path id="Trazado_236640" data-name="Trazado 236640" d="M221.965,108.436l45.657,46.846c-2.5,2.71-4.876,5.5-7.5,8.036-1.314,1.268-2.531.122-3.552-.929q-12.78-13.14-25.58-26.263-7.729-7.93-15.463-15.854c-2.133-2.193-2.076-2.8.082-5.037,2.1-2.174,4.133-4.416,6.357-6.8" transform="translate(-82.117 -44.257)" fill="#d6dae8"/>
      <path id="Trazado_236641" data-name="Trazado 236641" d="M281.471,143.863,237.3,98.542c3.324-1.843,6.372-3.612,9.514-5.2a2.432,2.432,0,0,1,2.224.367q18.809,19.145,37.459,38.445a2.652,2.652,0,0,1,.3,2.433c-1.594,3.04-3.4,5.972-5.321,9.276" transform="translate(-91.075 -38.415)" fill="#d16264"/>
      <path id="Trazado_236645" data-name="Trazado 236645" d="M238.609,179.914c-4.068-4.329-8.088-8.706-12.218-12.975-4.809-4.972-9.717-9.851-14.582-14.77l4.732-4.278L243.4,175.445l-4.787,4.469" transform="translate(-81.293 -59.4)" fill="#c6cbdd"/>
      <path id="Trazado_236646" data-name="Trazado 236646" d="M137.694,271.078,126.286,274.2c1.228-4.131,2.326-7.824,3.424-11.517,2.571,2.328,5.16,4.635,7.685,7.01.285.267.208.916.3,1.388" transform="translate(-48.469 -103.457)" fill="#d3d7e5"/>
      <path id="Trazado_236647" data-name="Trazado 236647" d="M139.827,268.741c-.091-.472-.015-1.121-.3-1.388-2.525-2.375-5.114-4.682-7.685-7.01.312-1.323.624-2.646.885-3.753l11.9,11.026-4.8,1.125" transform="translate(-50.601 -101.119)" fill="#c5cadb"/>
    </g>
  </g>
</svg>
