<svg id="Grupo_166883" data-name="Grupo 166883" xmlns="http://www.w3.org/2000/svg" width="283.605" height="283.605" viewBox="0 0 283.605 283.605">
  <g id="Grupo_165336" data-name="Grupo 165336">
    <path id="Trazado_236678" data-name="Trazado 236678" d="M404,90.766q-45.643,54.5-91.291,108.995c-3.487,4.162-7.037,8.271-10.558,12.4q-7.97-13.731-15.933-27.466-8.2-14.225-16.326-28.493l.06-.646a25.267,25.267,0,0,1,2.246-3.016q49.918-49.978,99.9-99.9c2.007-2,4.262-3.761,6.4-5.632.554.833,1.154,1.64,1.655,2.5q11.091,19.12,22.168,38.249c.5.853,1.117,1.632,1.681,2.446Z" transform="translate(-120.394 -20.973)" fill="#3c4047"/>
    <path id="Trazado_236679" data-name="Trazado 236679" d="M332.517,26.042c-2.14,1.872-4.395,3.628-6.4,5.632q-49.985,49.912-99.9,99.9a25.264,25.264,0,0,0-2.246,3.016c-4.259-2.335-8.561-4.594-12.768-7.019q-22.22-12.81-44.386-25.713Q181.5,89.466,196.191,77.084q46-38.559,92.036-77.084h.554c.814.564,1.593,1.188,2.446,1.683q19.457,11.3,38.923,22.589a24.731,24.731,0,0,1,2.367,1.77" transform="translate(-74.415)" fill="#50545b"/>
    <path id="Trazado_236681" data-name="Trazado 236681" d="M95.2,440.361q-14,14.09-28,28.181c-.319.321-.609.669-.912,1H65.73a22.772,22.772,0,0,0-1.627-2.064q-10.511-10.648-21.059-21.261a29.988,29.988,0,0,1,2.321-3.029c4.246-4.321,8.57-8.566,12.83-12.874,4.382-4.431,8.721-8.905,13.08-13.361l1.1-.126q8.008,8.17,16.009,16.343c2.3,2.365,4.545,4.79,6.815,7.188" transform="translate(-19.201 -185.941)" fill="#010101"/>
    <path id="Trazado_236682" data-name="Trazado 236682" d="M52.073,398.22c-4.358,4.455-8.7,8.929-13.08,13.36-4.26,4.308-8.583,8.553-12.83,12.874a29.933,29.933,0,0,0-2.321,3.03Q12.967,416.7,2.082,405.925A23.3,23.3,0,0,0,0,404.28v-.554q13.483-13.43,26.969-26.858c.712-.708,1.477-1.363,2.217-2.042a7.655,7.655,0,0,1,1.124.785Q40.7,385.965,51.042,396.359a7.8,7.8,0,0,1,1.031,1.861" transform="translate(0 -167.204)" fill="#292c32"/>
    <path id="Trazado_236684" data-name="Trazado 236684" d="M136.207,183.88q22.189,12.864,44.387,25.713c4.206,2.424,8.509,4.684,12.767,7.019l-.06.646a22.311,22.311,0,0,0-3.79,2.5q-31.48,31.366-62.88,62.81c-.777.776-1.642,1.464-2.465,2.192a4.324,4.324,0,0,1-1.009-.89c-4.205-7.239-8.324-14.529-12.6-21.723a60.249,60.249,0,0,0-4.322-5.683,9.215,9.215,0,0,0-.55-2.73c-2.411-4.336-4.939-8.607-7.486-13,3.816-3.814,7.48-7.58,11.277-11.207a2.711,2.711,0,0,0,.758-3.353c-1.69-4.768-3.328-9.559-4.815-14.394a3.173,3.173,0,0,1,.62-2.754c10-8.442,20.1-16.781,30.17-25.143" transform="translate(-43.804 -82.026)" fill="#292c32"/>
    <path id="Trazado_236685" data-name="Trazado 236685" d="M85.932,314.92a60.24,60.24,0,0,1,4.322,5.683c4.278,7.194,8.4,14.484,12.6,21.722a4.321,4.321,0,0,0,1.009.89q.007.548.014,1.1a12.059,12.059,0,0,0-2.252,1.421Q89.772,357.5,78,369.357a11.728,11.728,0,0,0-1.32,2.012l-1.1.127a7.811,7.811,0,0,0-1.031-1.861q-10.33-10.408-20.731-20.746a7.651,7.651,0,0,0-1.124-.785L85.932,314.92" transform="translate(-23.504 -140.48)" fill="#3c4047"/>
    <path id="Trazado_236686" data-name="Trazado 236686" d="M145.093,312.738q-.007-.548-.014-1.1c.824-.728,1.689-1.415,2.465-2.191q31.434-31.411,62.88-62.811a22.317,22.317,0,0,1,3.791-2.5q8.159,14.249,16.326,28.494,7.929,13.755,15.933,27.467c-8.407,10.123-16.794,20.262-25.275,30.324a2.906,2.906,0,0,1-2.525.517q-7.228-2.252-14.36-4.808a2.885,2.885,0,0,0-3.569.825c-3.6,3.8-7.334,7.475-11.04,11.22-4.529-2.626-8.8-5.153-13.132-7.566a9.258,9.258,0,0,0-2.707-.559,9.211,9.211,0,0,0-1.833-2.085q-6.576-3.962-13.27-7.729c-4.528-2.551-9.111-5-13.67-7.5" transform="translate(-64.717 -108.906)"/>
    <path id="Trazado_236687" data-name="Trazado 236687" d="M123.2,367.983c4.559,2.5,9.142,4.948,13.67,7.5q6.689,3.769,13.27,7.729a9.211,9.211,0,0,1,1.833,2.085c-2.546,2.646-5.05,5.334-7.648,7.928q-12.723,12.7-25.5,25.348c-2.269-2.4-4.511-4.823-6.815-7.188Q104.027,403.189,96,395.04a11.685,11.685,0,0,1,1.319-2.013Q109.1,381.18,120.948,369.4a12.064,12.064,0,0,1,2.251-1.421" transform="translate(-42.824 -164.151)" fill="#292c32"/>
  </g>
</svg>
