<svg xmlns="http://www.w3.org/2000/svg" width="286" height="287.117" viewBox="0 0 286 287.117">
  <g id="Grupo_166882" data-name="Grupo 166882" transform="translate(0 -0.551)">
    <g id="Grupo_165339" data-name="Grupo 165339">
      <path id="Trazado_236688" data-name="Trazado 236688" d="M0,100.59V96.1a21.1,21.1,0,0,1,3.174-2.987A81.8,81.8,0,0,1,29.793,82.083c4.287-.872,8.675-1.237,13.141-1.848C39.552,78.287,36.28,76.39,33,74.515,21.227,67.8,16.959,57.284,17.623,44.186c.689-13.6,4.55-26.39,9.58-38.9C28.5,2.064,30.529.58,33.181.808c2.786.239,4.664,2.237,5.29,5.632.964,5.227,1.652,10.523,2.958,15.663a201.287,201.287,0,0,0,6.413,21.35c.732,1.948,3.786,3.258,6.041,4.253.78.345,2.47-1.012,3.565-1.832a23.148,23.148,0,0,1,12.011-4.769c13.714-1.2,27.416-2.623,41.152-3.478,34.553-2.15,69.019-.7,103.408,3.106,6.05.671,11.663,2.194,16.191,6.6a2.584,2.584,0,0,0,2.2.416c3.056-1.018,5.81-2.418,6.746-5.974.589-2.242,1.658-4.366,2.165-6.621,2.14-9.544,4.178-19.111,6.193-28.683.714-3.394,2.486-5.4,5.275-5.659,2.652-.247,4.705,1.239,6,4.446,5.119,12.68,9.112,25.66,9.592,39.457.277,7.975-.817,15.734-6.149,22.126-4.189,5.022-9.794,8.24-15.457,11.306-1.238.669-2.489,1.312-3.735,1.967,14,.625,26.571,5.1,38.308,12.144,1.788,1.072,3.115,2.92,4.656,4.408v3.925a11.223,11.223,0,0,0-1.033,2.131,82.329,82.329,0,0,1-10.342,24.3c-8.986,14.2-21.372,22.016-38.686,20.246-2.368-.242-4.729-.554-7.2-.846-.114.683-.2,1.129-.261,1.579-1.9,15.105-4.568,30.1-9.329,44.546-5.5,16.688-11.807,33.111-17.9,49.6-1.216,3.289-2.558,6.768-4.75,9.4-2.634,3.159-2.906,6-2.016,9.821,1.866,8.016-.217,15.082-6.263,20.892-3.176,3.052-7.17,4.288-11.147,5.645H107.809a15.426,15.426,0,0,0-2.119-1.083,20.872,20.872,0,0,1-14.067-14.657c-1.311-4.419-.695-8.842.264-13.274a6.99,6.99,0,0,0-.346-4.321c-1.973-3.871-4.634-7.412-6.389-11.367-2.713-6.114-4.832-12.491-7.315-18.712-8.2-20.553-14.69-41.6-18.375-63.468-.814-4.832-1.506-9.685-2.268-14.614-.693.063-1.149.086-1.6.152-.735.107-1.464.251-2.2.365-12.084,1.867-23.12-.288-32.539-8.587C12.663,131.115,7.737,121.777,3.9,111.765c-1.412-3.682-2.607-7.447-3.9-11.175m129.151-1.559c4.023-1.412,8.221-2.458,12.035-4.305,10.192-4.936,20.279-10.1,30.291-15.4,7.311-3.868,14.218-.562,15.177,7.541.112.95.286,1.893.567,3.727l12.4-13.413-.354-1.164c-4.361-.643-8.718-1.817-13.082-1.842-28.745-.167-57.493-.074-86.239-.1a34.013,34.013,0,0,0-17.783,4.912c-8.009,4.789-13.158,11.8-15.822,20.839a3.739,3.739,0,0,0,1.036.2c2.56-.456,5.13-.867,7.666-1.431a202.886,202.886,0,0,0,40.583-13.692c3.92-1.8,7.712-1.946,11.226.983s4.089,6.914,1.832,12.739q.02.337.039.674l.427-.276m79.5-13.751-1.18-.446a87.3,87.3,0,0,1-20.625,19.529c-2.155,1.5-4.335,2.622-6.98,1.335-2.748-1.337-3.236-3.822-3.384-6.563-.158-2.915-.5-5.82-.795-9.008-1.307.679-2.2,1.15-3.1,1.61-7.112,3.648-14.175,7.4-21.37,10.87-1.956.944-2.7,1.863-2.692,4.106.094,25.609.061,51.219.058,76.829a23.688,23.688,0,0,1-.059,2.8,5.541,5.541,0,0,1-11.062-.075,25.637,25.637,0,0,1-.051-2.8q0-36.032-.008-72.063c0-.964-.082-1.929-.112-2.573-6.112,1.3-11.992,2.583-17.883,3.809-2.651.551-5.03.079-6.69-2.3-1.692-2.421-1.027-4.746.336-7.064,1.126-1.915,2.15-3.892,3.517-6.385-4.437,1.727-8.132,3.218-11.867,4.6-3.783,1.4-7.6,2.706-11.425,4.058,25.262,37.765,30.848,78.958,23.186,122.766h53.164c-.077-.551-.119-.993-.2-1.428-4.682-24.863-4.347-49.6,2-74.152,6.363-24.629,17.531-46.52,36.486-63.948.716-.659.516-2.322.744-3.517M189.972,240.24c-.077.126.166-.153.282-.478,6.459-18.052,13.478-35.926,19.215-54.207,7.675-24.459,9.392-49.995,11.483-75.388a29.418,29.418,0,0,0-2.938-15.04c-.922.748-1.651,1.3-2.336,1.9a90.555,90.555,0,0,0-18.906,23.038c-19.942,34.721-23.442,71.763-15.079,110.4a4.924,4.924,0,0,0,1.179,2.1c2.343,2.6,4.755,5.147,7.1,7.666M65.6,111.864c1.241,45.256,12.283,87.9,30.841,128.429,1.091-1.481,2.035-3.653,3.683-4.827,3.812-2.713,4.783-6.593,5.447-10.766.249-1.565.579-3.116.833-4.68a157.614,157.614,0,0,0-2.551-64.184c-4.092-16.353-10.768-31.529-20.972-45.018-.622-.822-1.883-1.854-2.684-1.73-4.943.767-9.839,1.837-14.6,2.776m77.463-64.432c-15.518.743-31.046,1.328-46.55,2.29-8.811.546-17.6,1.6-26.371,2.632A11.266,11.266,0,0,0,60.095,62.416,11.114,11.114,0,0,0,66.848,74.13a4.019,4.019,0,0,0,3.376-.468,47.3,47.3,0,0,1,30.663-10.826q42.163.1,84.327.006a45.531,45.531,0,0,1,30.334,10.814,3.185,3.185,0,0,0,3.988.414,11.485,11.485,0,0,0,6.3-12.033c-.835-5.324-4.652-9.049-10.356-9.745a702.236,702.236,0,0,0-72.411-4.86M148.7,276.682c8.391,0,16.562.055,24.732-.017,6.79-.06,11.333-4.931,10.322-11.662a170.456,170.456,0,0,0-4.052-18.557,9.45,9.45,0,0,0-9.288-6.773c-18.328-.047-36.657-.072-54.985.022-4.31.023-7.783,2.29-8.947,6.385a149.053,149.053,0,0,0-4.3,19.915c-.795,5.652,3.708,10.3,9.416,10.641,2.04.123,4.092.045,6.139.046,6.482,0,12.964,0,19.505,0V264.859c-3.03,0-5.9.074-8.765-.018-4.108-.131-6.182-2.2-6.281-6.249-.08-3.267-.047-6.539.006-9.807a7.134,7.134,0,0,1,.459-2.733A5.2,5.2,0,0,1,128,242.759c2.515.167,4.468,1.485,4.948,4.132.392,2.156.441,4.374.646,6.6h19.15a47.144,47.144,0,0,1,.036-5.384c.4-3.383,2.732-5.515,5.638-5.416,3.1.107,5.268,2.435,5.372,5.965.094,3.174.066,6.352.017,9.527-.069,4.541-2.144,6.593-6.722,6.668-2.759.046-5.521.008-8.386.008Zm83.636-169.714c13.234-3.885,25.716-.708,38.166,4.08,1.032-2.974,1.857-5.638,2.889-8.219.633-1.583.178-2.315-1.267-3.029-6.691-3.308-13.538-6.177-20.942-7.381-7.311-1.189-14.418-.843-20.783,3.38.649,3.741,1.265,7.291,1.938,11.169M55.6,95.448c-15.775-7.8-29.587-1.384-43.732,5.379l3.477,9.74c6.682-1.718,12.816-3.552,19.063-4.828,6.427-1.311,12.9-.576,19.235,1.143.662-3.868,1.271-7.425,1.956-11.434M21.037,121.061A28.652,28.652,0,0,0,56.052,134.73c-.424-4.378-.749-8.832-1.363-13.244a3.9,3.9,0,0,0-1.978-2.776,43.886,43.886,0,0,0-9.952-2.257c-7.552-.5-14.657,1.722-21.722,4.608m243.933-.166c-3.385-1.084-6.664-2.326-10.041-3.176-6.869-1.728-13.783-2.173-20.56.459-1.124.436-2.813,1.282-2.936,2.129-.708,4.847-1.022,9.753-1.463,14.565,16.309,4.223,27.677-1.356,35-13.978M31.278,29.507c-2.031,6.111-3.178,14.945-2.146,21.333A24.65,24.65,0,0,0,32.4,59.587c2.188,3.563,12.848,9.82,16.861,10.773V58.342a3.991,3.991,0,0,0-.519-.388c-.5-.244-1.006-.482-1.52-.7-4.849-2.024-8.579-5.2-10.293-10.337-1.912-5.727-3.73-11.485-5.648-17.413m223.135.079c-.853,3.2-1.663,6.414-2.567,9.6-2.347,8.284-5.481,15.969-14.715,18.845-.142.044-.234.256-.381.426V71.041c4.4-2.678,8.931-5.331,13.355-8.149,4.615-2.941,6.45-7.482,6.934-12.757a52.393,52.393,0,0,0-2.627-20.549" transform="translate(0 -0.234)" fill="#030202"/>
      <path id="Trazado_236692" data-name="Trazado 236692" d="M248.97,120.906c-.227,1.2-.027,2.858-.744,3.517-18.955,17.428-30.122,39.318-36.485,63.948-6.342,24.549-6.677,49.289-2,74.152.082.435.124.877.2,1.428H156.782c7.662-43.808,2.077-85-23.185-122.766,3.821-1.352,7.642-2.653,11.425-4.058,3.734-1.386,7.43-2.877,11.866-4.6-1.367,2.493-2.391,4.47-3.517,6.385-1.362,2.318-2.027,4.643-.335,7.064,1.66,2.375,4.039,2.847,6.69,2.3,5.891-1.226,11.771-2.5,17.883-3.809.029.644.112,1.608.112,2.573q.01,36.032.007,72.062a25.647,25.647,0,0,0,.052,2.8,5.541,5.541,0,0,0,11.062.075,23.688,23.688,0,0,0,.059-2.8c0-25.61.036-51.22-.058-76.829-.008-2.244.735-3.163,2.691-4.106,7.2-3.473,14.259-7.223,21.371-10.87.9-.461,1.795-.931,3.1-1.61.29,3.188.637,6.093.8,9.008.148,2.741.636,5.226,3.384,6.563,2.646,1.287,4.826.162,6.98-1.335A87.3,87.3,0,0,0,247.79,120.46l1.18.446M183.243,246.259a5.514,5.514,0,1,0-5.513-5.453,5.5,5.5,0,0,0,5.513,5.453" transform="translate(-40.314 -35.859)" fill="#f5af40"/>
      <path id="Trazado_236693" data-name="Trazado 236693" d="M266.663,280.229c-2.345-2.519-4.759-5.062-7.1-7.666a4.9,4.9,0,0,1-1.179-2.1c-8.363-38.64-4.863-75.682,15.079-110.4a90.542,90.542,0,0,1,18.907-23.037c.684-.6,1.414-1.154,2.336-1.9a29.411,29.411,0,0,1,2.937,15.04c-2.091,25.393-3.807,50.929-11.482,75.388-5.736,18.28-12.757,36.154-19.214,54.206-.117.325-.36.6-.282.479M284.008,190.4c.127-4.305-1.47-6.6-4.178-7.179a5.191,5.191,0,0,0-6.355,3.635c-1.217,5.145-2.2,10.365-2.9,15.605-.394,2.93,1.755,5.189,4.592,5.7a5.236,5.236,0,0,0,5.967-3.852c1.209-4.958,2.081-10,2.873-13.913" transform="translate(-76.69 -40.222)" fill="#fbd6b0"/>
      <path id="Trazado_236694" data-name="Trazado 236694" d="M93.953,157.765c4.758-.938,9.654-2.009,14.6-2.776.8-.124,2.062.908,2.684,1.73,10.2,13.489,16.88,28.664,20.972,45.018a157.614,157.614,0,0,1,2.551,64.184c-.254,1.563-.584,3.115-.833,4.68-.664,4.173-1.635,8.053-5.447,10.766-1.649,1.174-2.593,3.346-3.683,4.827-18.559-40.525-29.6-83.174-30.841-128.429m26.588,49.479c-.791-4.014-1.637-9.06-2.818-14.025a5.429,5.429,0,0,0-10.659,2.03c.692,4.963,1.649,9.9,2.784,14.782a5.247,5.247,0,0,0,6.1,4.02c2.852-.566,4.588-2.75,4.59-6.807" transform="translate(-28.351 -46.135)" fill="#fbd6b0"/>
      <path id="Trazado_236695" data-name="Trazado 236695" d="M169,67.2a702.42,702.42,0,0,1,72.411,4.86c5.7.7,9.522,4.421,10.356,9.745a11.485,11.485,0,0,1-6.295,12.033,3.186,3.186,0,0,1-3.988-.413,45.53,45.53,0,0,0-30.335-10.815q-42.164.073-84.327,0A47.294,47.294,0,0,0,96.155,93.434a4.014,4.014,0,0,1-3.376.468,11.114,11.114,0,0,1-6.753-11.714A11.266,11.266,0,0,1,96.074,72.124c8.774-1.027,17.559-2.085,26.371-2.632,15.5-.961,31.032-1.547,46.55-2.29" transform="translate(-25.93 -20.005)" fill="#f2ae40"/>
      <path id="Trazado_236696" data-name="Trazado 236696" d="M192.824,377.921V366.1c2.866,0,5.626.037,8.386-.008,4.578-.076,6.653-2.127,6.722-6.668.048-3.175.076-6.354-.017-9.527-.1-3.531-2.273-5.859-5.372-5.965-2.906-.1-5.238,2.032-5.638,5.415a47.158,47.158,0,0,0-.036,5.385H177.719c-.2-2.228-.254-4.446-.645-6.6-.481-2.646-2.434-3.965-4.949-4.132a5.2,5.2,0,0,0-5.336,3.295,7.118,7.118,0,0,0-.46,2.733c-.052,3.268-.086,6.539-.006,9.806.1,4.053,2.174,6.119,6.281,6.25,2.865.091,5.735.018,8.765.018v11.824c-6.54,0-13.023,0-19.505,0-2.047,0-4.1.077-6.139-.046-5.707-.345-10.21-4.989-9.416-10.641a149.065,149.065,0,0,1,4.3-19.915c1.164-4.1,4.637-6.362,8.947-6.385,18.328-.094,36.657-.07,54.985-.022a9.451,9.451,0,0,1,9.288,6.774,170.438,170.438,0,0,1,4.052,18.557c1.01,6.731-3.532,11.6-10.322,11.663-8.17.072-16.342.017-24.732.017" transform="translate(-44.122 -101.472)" fill="#ea6536"/>
      <path id="Trazado_236697" data-name="Trazado 236697" d="M157.353,129.7c2.261-5.824,1.693-9.8-1.828-12.738s-7.306-2.78-11.226-.983a202.856,202.856,0,0,1-40.583,13.692c-2.536.565-5.107.975-7.666,1.431a3.735,3.735,0,0,1-1.037-.2c2.665-9.041,7.814-16.05,15.823-20.839a34.012,34.012,0,0,1,17.783-4.913c28.746.022,57.493-.07,86.238.1,4.364.025,8.722,1.2,13.082,1.842l.354,1.164-12.4,13.414c-.281-1.834-.455-2.778-.568-3.728-.958-8.1-7.866-11.408-15.176-7.541-10.012,5.3-20.1,10.461-30.291,15.4-3.814,1.847-8.012,2.893-12.035,4.3l-.469-.4" transform="translate(-28.671 -31.299)" fill="#ea6536"/>
      <path id="Trazado_236698" data-name="Trazado 236698" d="M331.91,145.557c-.673-3.878-1.289-7.428-1.938-11.168,6.365-4.224,13.473-4.57,20.783-3.381,7.4,1.205,14.251,4.073,20.942,7.381,1.446.715,1.9,1.446,1.267,3.03-1.033,2.58-1.857,5.245-2.889,8.218-12.45-4.788-24.932-7.966-38.166-4.08" transform="translate(-99.571 -38.822)" fill="#e86436"/>
      <path id="Trazado_236699" data-name="Trazado 236699" d="M60.736,134.057c-.686,4.009-1.295,7.565-1.956,11.434-6.34-1.718-12.809-2.454-19.236-1.142-6.246,1.275-12.38,3.11-19.062,4.827L17,139.436c14.144-6.763,27.957-13.178,43.732-5.378" transform="translate(-5.131 -38.842)" fill="#e86436"/>
      <path id="Trazado_236700" data-name="Trazado 236700" d="M30.129,170.059c7.066-2.886,14.171-5.1,21.722-4.608a43.871,43.871,0,0,1,9.951,2.257,3.905,3.905,0,0,1,1.979,2.776c.614,4.413.938,8.867,1.363,13.244a28.652,28.652,0,0,1-35.016-13.669" transform="translate(-9.092 -49.232)" fill="#fad5af"/>
      <path id="Trazado_236701" data-name="Trazado 236701" d="M364.356,169.863c-7.325,12.622-18.693,18.2-35,13.978.441-4.813.755-9.718,1.463-14.565.124-.848,1.812-1.693,2.936-2.13,6.778-2.632,13.691-2.187,20.56-.459,3.378.85,6.656,2.091,10.042,3.176" transform="translate(-99.385 -49.202)" fill="#fad5af"/>
      <path id="Trazado_236702" data-name="Trazado 236702" d="M43.7,41.681c1.918,5.928,3.736,11.687,5.648,17.413,1.714,5.135,5.444,8.313,10.293,10.337.514.215,1.019.452,1.519.7a3.879,3.879,0,0,1,.52.388V82.535c-4.014-.953-14.674-7.211-16.861-10.773a24.65,24.65,0,0,1-3.266-8.747c-1.032-6.388.115-15.222,2.146-21.333" transform="translate(-12.423 -12.408)" fill="#e7e8e9"/>
      <path id="Trazado_236703" data-name="Trazado 236703" d="M356.728,41.794a52.393,52.393,0,0,1,2.628,20.549c-.485,5.275-2.32,9.816-6.934,12.757-4.424,2.818-8.952,5.471-13.355,8.149V70.666c.147-.171.238-.382.38-.426,9.234-2.877,12.368-10.561,14.715-18.845.9-3.186,1.714-6.4,2.567-9.6" transform="translate(-102.316 -12.441)" fill="#e7e8e9"/>
      <path id="Trazado_236704" data-name="Trazado 236704" d="M184.764,140.5l-.426.276c-.013-.225-.027-.449-.041-.675l.467.4" transform="translate(-55.613 -41.708)" fill="#ea6536"/>
      <path id="Trazado_236705" data-name="Trazado 236705" d="M202.315,294.907a5.514,5.514,0,1,1,5.651-5.586,5.523,5.523,0,0,1-5.651,5.586" transform="translate(-59.386 -84.507)" fill="#060402"/>
      <path id="Trazado_236706" data-name="Trazado 236706" d="M291.089,210.729c-.792,3.913-1.665,8.954-2.873,13.913a5.236,5.236,0,0,1-5.966,3.852c-2.838-.514-4.986-2.773-4.592-5.7.7-5.24,1.682-10.46,2.9-15.605a5.191,5.191,0,0,1,6.355-3.635c2.708.58,4.3,2.874,4.178,7.179" transform="translate(-83.771 -60.554)" fill="#040302"/>
      <path id="Trazado_236707" data-name="Trazado 236707" d="M126.179,221.666c0,4.057-1.737,6.241-4.59,6.807a5.247,5.247,0,0,1-6.1-4.02c-1.135-4.88-2.092-9.819-2.784-14.782a5.429,5.429,0,0,1,10.659-2.03c1.181,4.965,2.027,10.011,2.818,14.025" transform="translate(-33.989 -60.557)" fill="#040302"/>
    </g>
  </g>
</svg>
