<svg xmlns="http://www.w3.org/2000/svg" width="284.6" height="180.001" viewBox="0 0 284.6 180.001">
  <g id="Grupo_166881" data-name="Grupo 166881" transform="translate(0 -75.708)">
    <g id="Grupo_165345" data-name="Grupo 165345" transform="translate(0 75.708)">
      <path id="Trazado_236726" data-name="Trazado 236726" d="M0,168.456a7.475,7.475,0,0,1,5.636-2.863c9.721-.522,17.175-4.966,21.576-13.7,4.889-9.707,9.411-19.6,14.085-29.414a3.353,3.353,0,0,0,.175-.722c-3.561-1.379-7.166-2.508-10.534-4.127-10.761-5.172-15.349-14.388-16.406-25.765-.188-2.021-.245-4.062-.232-6.093.024-3.581,1.548-5.2,5.25-5.3,4.348-.126,8.706.063,13.055-.054,8.036-.217,15.941.3,23.168,4.245,3.218,1.755,6.23,3.884,9.546,5.975,7.029-5.514,14.964-10.106,24.009-12.086a97.635,97.635,0,0,1,19.978-2.657c36.02-.254,72.042-.186,108.063-.1,29.837.072,54.576,17.931,63.983,46.152,1.274,3.822,1.8,7.891,2.7,11.84a9.371,9.371,0,0,0,.553,1.392v17.753a4.529,4.529,0,0,0-.548,1.092c-1.706,8.734-3.512,17.451-5.031,26.217a94.686,94.686,0,0,0-1.775,15.236c-.067,8,3.411,15.036,7.354,21.809v2.219c-7.544,10.461-15.208,20.838-22.561,31.432-2.365,3.407-4.97,5.09-9.175,4.737-3.678-.309-7.4-.026-11.105-.073-8.431-.106-12.859-7.326-8.962-14.769,4.015-7.669,8.2-15.249,12.412-23.044a88.728,88.728,0,0,0-19.272-14.271,2.187,2.187,0,0,0-1.917.326c-10.7,8.677-23.327,12.953-36.557,15.6-27.311,5.47-54.071,3.942-79.99-6.943-4.024-1.691-4.629-1.375-5.488,2.954C99.666,227.117,97.4,238.8,95.1,250.47c-.793,4.033-2.076,5.109-6.192,5.124q-8.333.029-16.666,0c-4.378-.022-5.838-1.517-5.85-6.137-.033-12.476-.012-24.951-.013-37.427,0-4.452.006-4.507-4.37-5.126-18.678-2.645-37.354-5.3-56.047-7.829A8.472,8.472,0,0,1,0,195.64ZM250.73,95.705c-.5-.394-.965-.83-1.494-1.176a57.582,57.582,0,0,0-32.272-9.317c-35.922.038-71.843-.008-107.764.047a60.914,60.914,0,0,0-10.776.778c-21.679,3.951-37.058,16.189-46.567,35.892q-7.7,15.944-15.152,32c-3.209,6.9-7.728,12.67-14.486,16.256-3.931,2.085-8.268,3.409-12.575,5.136v14.5c.595.1,1.037.184,1.483.247,17.757,2.54,35.509,5.123,53.278,7.578a15.714,15.714,0,0,1,8.837,4.149c2.2,2.963,2.731,6.34,2.708,9.941-.067,10.447-.024,20.895-.024,31.342v2.9H86.246c.156-.57.313-1,.39-1.449q2.786-15.96,5.556-31.922c1.542-8.869,8.942-12.975,17.334-9.666,3.779,1.49,7.531,3.1,11.412,4.268,25.394,7.637,50.779,6.846,76.033-.619a60.032,60.032,0,0,0,19.154-9.273c-3.006-4.295-6.189-8.264-8.713-12.612a30.158,30.158,0,0,1-3.822-14.57h9.256a12.265,12.265,0,0,1,.408,1.463c1.512,10.508,6.957,18.267,16.251,23.414a101.711,101.711,0,0,1,24.2,18.878c2.49,2.6,2.725,3.915.952,7.137-1.958,3.559-3.992,7.077-5.985,10.616-2.656,4.716-5.3,9.437-8.141,14.487,4.363,0,8.316.058,12.264-.058a2.982,2.982,0,0,0,1.886-1.261q9.281-12.8,18.414-25.7a3.678,3.678,0,0,0,.254-2.886c-.921-2.7-2.28-5.251-3.152-7.962-3.541-11.012-2.717-21.989.16-33.033,1.639-6.292,2.647-12.748,3.97-19.28-11.63,1.168-18.113-4.7-18.147-15.853a74.889,74.889,0,0,0-.215-8.3c-.315-2.74-2.147-4.012-4.83-3.893-2.588.115-4.19,1.674-4.37,4.421-.106,1.615-.019,3.242-.019,4.858h-9.658c.177-2.8,0-5.513.575-8.061,1.6-7.146,7.7-11.232,15.36-10.618,6.757.543,11.957,5.814,12.521,12.988.268,3.4.054,6.838.147,10.256.085,3.143,1.949,5.032,4.762,4.985,2.788-.046,4.74-2.009,4.63-5.149-.673-19.211-8.507-34.675-24.35-45.886M24.013,90.118c.006,8.464,4.12,17.986,15.768,20.725,5.99,1.408,5.855,1.668,9.434-3.17,2.549-3.446,5.3-6.746,7.937-10.09-8.429-8.446-17.495-8.041-33.139-7.465" transform="translate(0 -75.708)" fill="#030303"/>
      <path id="Trazado_236728" data-name="Trazado 236728" d="M77.478,205.97a15.718,15.718,0,0,0-8.837-4.149c-17.769-2.455-35.521-5.037-53.279-7.578-.445-.063-.887-.147-1.482-.247V179.5c4.307-1.728,8.644-3.051,12.575-5.136C33.213,170.774,37.732,165,40.941,158.1q7.467-16.053,15.151-32c9.51-19.7,24.889-31.94,46.568-35.892a60.906,60.906,0,0,1,10.775-.778c35.922-.054,71.843-.009,107.764-.047A57.588,57.588,0,0,1,253.472,98.7c.529.345,1,.782,1.494,1.176a135.613,135.613,0,0,1-27.466,38.19c-4.39,4.323-9.112,8.332-13.873,12.253-16.095,13.257-34.269,23.136-53.282,31.383a328.426,328.426,0,0,1-59.915,19.47c-7.631,1.686-15.3,3.2-22.952,4.8m5.113-76.753c9.761-9.937,18.367-21.22,33.8-21.141V98.358c-9.089.3-17.364,2.714-24.071,8.476-6.432,5.527-12.191,11.839-18.19,17.861-4.228,4.245-3.932,7,1.042,10.449,11.483,7.961,24.034,9.418,37.313,5.876a39.588,39.588,0,0,0,16.479-8.7l-6.526-6.6c-12.371,9.052-25.631,10.338-39.847,3.5M65.763,160.561H56.6v9.218h9.168Z" transform="translate(-4.236 -79.882)" fill="#f4a8a1"/>
      <path id="Trazado_236729" data-name="Trazado 236729" d="M105.411,210.578c7.652-1.594,15.321-3.11,22.952-4.8a328.371,328.371,0,0,0,59.915-19.469c19.013-8.248,37.187-18.127,53.282-31.383,4.761-3.922,9.483-7.929,13.873-12.253a135.62,135.62,0,0,0,27.466-38.19c15.843,11.212,23.677,26.676,24.349,45.886.11,3.139-1.842,5.1-4.63,5.149-2.813.047-4.677-1.843-4.762-4.986-.092-3.418.121-6.854-.147-10.256-.564-7.174-5.765-12.446-12.522-12.988-7.656-.614-13.76,3.471-15.359,10.617-.57,2.549-.4,5.264-.576,8.062h9.658c0-1.616-.086-3.244.019-4.859.18-2.747,1.782-4.306,4.37-4.42,2.683-.119,4.516,1.153,4.83,3.893a74.707,74.707,0,0,1,.215,8.3c.033,11.154,6.517,17.022,18.147,15.853-1.323,6.532-2.33,12.988-3.97,19.28-2.877,11.044-3.7,22.022-.16,33.034.872,2.711,2.23,5.263,3.151,7.961a3.676,3.676,0,0,1-.254,2.886q-9.1,12.926-18.414,25.7a2.987,2.987,0,0,1-1.886,1.262c-3.947.117-7.9.058-12.264.058,2.838-5.051,5.486-9.771,8.141-14.487,1.993-3.54,4.027-7.058,5.985-10.617,1.773-3.222,1.538-4.538-.952-7.137a101.712,101.712,0,0,0-24.2-18.877c-9.294-5.148-14.739-12.907-16.251-23.414a12.361,12.361,0,0,0-.408-1.463h-9.257a30.175,30.175,0,0,0,3.822,14.57c2.524,4.349,5.708,8.317,8.713,12.612a60.023,60.023,0,0,1-19.153,9.274c-25.253,7.464-50.639,8.255-76.033.618-3.881-1.167-7.634-2.777-11.412-4.268-8.393-3.309-15.793.8-17.334,9.666q-2.775,15.962-5.556,31.922c-.078.447-.235.88-.39,1.449H108.1v-2.9c0-10.447-.043-20.9.024-31.342.023-3.6-.511-6.978-2.708-9.942" transform="translate(-32.169 -84.491)" fill="#ee9f9b"/>
      <path id="Trazado_236730" data-name="Trazado 236730" d="M34.56,96.33c15.644-.576,24.71-.982,33.139,7.465-2.642,3.344-5.388,6.645-7.937,10.09-3.578,4.837-3.444,4.578-9.434,3.17C38.68,114.316,34.566,104.795,34.56,96.33" transform="translate(-10.547 -81.921)" fill="#e18480"/>
      <path id="Trazado_236731" data-name="Trazado 236731" d="M107.758,133.157c14.216,6.838,27.477,5.551,39.847-3.5l6.526,6.6a39.589,39.589,0,0,1-16.478,8.7c-13.28,3.541-25.831,2.084-37.314-5.877-4.974-3.448-5.27-6.2-1.042-10.449,6-6.022,11.758-12.335,18.19-17.862,6.706-5.762,14.982-8.174,24.071-8.475v9.718c-15.432-.079-24.038,11.2-33.8,21.141" transform="translate(-29.403 -83.823)" fill="#040302"/>
      <rect id="Rectángulo_51268" data-name="Rectángulo 51268" width="9.168" height="9.218" transform="translate(52.36 80.679)"/>
    </g>
  </g>
</svg>
