<svg xmlns="http://www.w3.org/2000/svg" width="181.512" height="182.017" viewBox="0 0 181.512 182.017">
  <g id="Grupo_165362" data-name="Grupo 165362" transform="translate(-2.165 -0.751)">
    <g id="Grupo_165363" data-name="Grupo 165363" transform="translate(2.165 0.751)">
      <path id="Trazado_236790" data-name="Trazado 236790" d="M392.477,1.04c13.788.049,25.048,5.452,33.662,16.176A39.62,39.62,0,0,1,434.5,36.43c.024.157.177.295.27.441V50.022c-.109.123-.292.233-.318.372a33.891,33.891,0,0,1-5.973,13.655c-3.27,4.556-6.831,8.906-10.031,13.508-4.659,6.7-5.888,14.019-3.243,21.848,1.5,4.446,4.385,8.047,7.2,11.69,3.715,4.8,7.737,9.423,9.988,15.175.929,2.372,1.591,4.849,2.375,7.277v12.8c-.148.678-.281,1.359-.445,2.032-4.269,17.445-14.736,28.917-32.324,33.5-1.617.422-3.266.719-4.9,1.074h-4.62q0-5.3,0-10.608c.294-.036.586-.09.88-.106a31.474,31.474,0,0,0,21.287-9.181,32.508,32.508,0,0,0,9.732-23.435c.09-6.208-2.444-11.574-6.174-16.431-3.026-3.94-6.258-7.753-8.952-11.911-7.768-11.989-8.525-24.5-1.362-36.966,2.9-5.042,6.754-9.542,10.277-14.211,4.355-5.771,6.805-12.037,6.026-19.43-1.078-10.229-5.785-18.206-14.331-23.893-5.16-3.434-10.967-4.8-17.079-5.108a1.711,1.711,0,0,1-.3-.053q0-5.29-.008-10.58" transform="translate(-253.253 -0.937)" fill="#fcbf02"/>
      <path id="Trazado_236791" data-name="Trazado 236791" d="M315.418,172.342V182.95H310.8c-1.928-.447-3.877-.818-5.781-1.352-17.165-4.819-27.521-16.185-31.372-33.394-2.548-11.382.051-21.81,7.2-31.073,2.854-3.7,5.781-7.349,8.468-11.167a23.748,23.748,0,0,0,4.081-19.856,13.882,13.882,0,0,0-.6-1.637,25.309,25.309,0,0,0-5.537-9.975q-3.223-4.227-6.446-8.454c-8.53-11.148-10.013-23.38-5.676-36.535a43.8,43.8,0,0,1,11.339-17.531,46.069,46.069,0,0,1,14.64-8.625,45.057,45.057,0,0,1,14.306-2.316q0,5.291.007,10.581A31.42,31.42,0,0,0,301.2,15a29.412,29.412,0,0,0-14.947,15.44c-4.219,9.772-4.137,19.319,2.369,28.22C292.043,63.33,295.6,67.9,299.1,72.512l4.557,9.91c.081.583.129,1.173.248,1.749,1.814,8.756.744,17.136-3.971,24.748-2.915,4.706-6.581,8.938-9.707,13.522a44.327,44.327,0,0,0-5.287,9.153c-4.124,11.088.711,25.879,10.5,33.588a32.888,32.888,0,0,0,19.976,7.161" transform="translate(-176.194 -0.933)" fill="#fed302"/>
      <path id="Trazado_236794" data-name="Trazado 236794" d="M127.084,3.17a46.068,46.068,0,0,0-14.641,8.625c-2.273.258-4.641.191-6.8.828-11.522,3.4-19.607,10.258-21.733,22.665-.908,5.3-1.245,10.7-2.288,15.969-2.545,12.848-9.832,21.906-22.212,26.6-6.323,2.4-13.044,2.727-19.654,3.593-4.665.611-9.23,1.528-13.246,4.139-12.274,7.977-17.263,25.165-10.919,38.456,1.679,3.519,4.275,6.6,6.45,9.882-.444.538-.858,1.1-1.338,1.607-1.945,2.035-3.912,4.051-5.87,6.074C-1.341,126.04-2.1,99.851,12.987,83.2c6.49-7.161,14.542-10.882,23.984-12.079,5.215-.661,10.477-1.215,15.587-2.389,10.721-2.464,16.843-9.551,18.772-20.24.954-5.29,1.38-10.674,2.293-15.972,2.053-11.9,8.878-20.474,19.237-26.25a40.519,40.519,0,0,1,34.224-3.1" transform="translate(-2.165 -0.751)" fill="#fe7918"/>
      <path id="Trazado_236795" data-name="Trazado 236795" d="M37.675,274.281c1.958-2.023,3.924-4.038,5.87-6.074.48-.5.894-1.069,1.338-1.607.377.279.778.529,1.126.84,9.775,8.708,20.986,11.037,33.23,6.688,10.049-3.569,16.895-10.4,18.6-21.43.858-5.537,1.452-11.119,2.472-16.625a34.319,34.319,0,0,1,14.146-22.107c6.443-4.692,13.9-6.228,21.608-6.98a25.3,25.3,0,0,1,5.536,9.975c-3.727.582-7.479,1.042-11.178,1.769-10.948,2.151-18.122,9.683-19.848,20.771-.871,5.594-1.433,11.242-2.48,16.8-2.322,12.334-9.911,20.609-20.847,26.1a41.92,41.92,0,0,1-22.28,4.529,41.319,41.319,0,0,1-27.3-12.653" transform="translate(-25.009 -133.423)" fill="#fe4c02"/>
      <path id="Trazado_236797" data-name="Trazado 236797" d="M367.15,30.754l1.5,1.722q-1.226,1.138-2.451,2.275-2.635,2.451-5.267,4.9l-8.3-5.574a31.42,31.42,0,0,1,14.221-3.38,1.746,1.746,0,0,0,.3.052" transform="translate(-227.621 -20.019)" fill="#fe7917"/>
      <path id="Trazado_236800" data-name="Trazado 236800" d="M346.73,94.8c7.522-1.795,12.618-6.683,16.278-13.165A31.172,31.172,0,0,0,359.3,45.422c-.729-.848-1.442-1.711-2.163-2.566l5.267-4.9q1.224-1.139,2.452-2.275a40.744,40.744,0,0,1,12.018,20.829,41.957,41.957,0,0,1-17.435,44.458c-2.463,1.631-5.42,2.515-8.15,3.744L346.73,94.8" transform="translate(-223.825 -23.219)" fill="#fe4c02"/>
    </g>
  </g>
</svg>
