<svg xmlns="http://www.w3.org/2000/svg" width="190" height="157.348" viewBox="0 0 190 157.348">
  <g id="Grupo_165365" data-name="Grupo 165365" transform="translate(0 -44.104)">
    <g id="Grupo_165366" data-name="Grupo 165366" transform="translate(0 44.104)">
      <path id="Trazado_236803" data-name="Trazado 236803" d="M172.231,134.554c1.936-.481,3.177.319,3.984,2.07,2.962,6.421,5.993,12.812,8.886,19.264a5.515,5.515,0,0,1,.271,3.206c-1.007,4.692-2.164,9.352-3.289,14.019a4.571,4.571,0,0,1-.723,2.065c-1.47,1.5-.7,2.815.006,4.281,2.91,6.064,5.761,12.157,8.633,18.239v1.855c-2.171,2.767-4.279,2.5-5.794-.75q-4.215-9.049-8.383-18.121a2.147,2.147,0,0,0-2.146-1.565,7.029,7.029,0,0,1-2.766-.923c-4.093-2.014-8.138-4.126-12.245-6.109a6.492,6.492,0,0,1-3.219-3.36q-11.6-25.083-23.3-50.121c-.256-.55-.533-1.091-.809-1.654l-3.185,1.681a12.22,12.22,0,0,1,.885,10.341,11.927,11.927,0,0,1-6.937,7.147c.407,2.391,1.144,4.655,1.113,6.91a11.867,11.867,0,0,1-15.352,11.221c-9.015-2.938-17.871-6.366-26.785-9.611-9.957-3.625-19.973-7.106-29.814-11.024-3.305-1.316-6.145-3.794-9.214-5.713-2.6-1.624-5.067-3.582-7.865-4.732-6.491-2.669-13.14-4.956-19.746-7.339a2.1,2.1,0,0,0-1.794.154c-3.524,3.567-10.878,1.187-12.235-3.1A2.048,2.048,0,0,0,0,112.347v-3.711a14.2,14.2,0,0,0,.8-1.566C7.657,88.339,14.565,69.627,21.32,50.86c2.467-6.854,9.674-6.217,13.146-2.2a5.327,5.327,0,0,1,1.347,2.768,2.292,2.292,0,0,0,2.042,2.342,21.962,21.962,0,0,1,3.128,1.116,19.861,19.861,0,0,0,13.4.592c8.367-2.326,16.74-4.67,25.2-6.6,4.364-1,8.923-1.162,13.4-1.62a2.792,2.792,0,0,1,3.243,2.371C95.9,52,95.3,52.588,92.766,52.868c-3.433.38-6.938.409-10.29,1.145-6.794,1.492-13.509,3.344-20.249,5.077-2.982.767-5.93,1.67-8.922,2.4-5.183,1.254-10.153.12-15.057-1.528l-3.761-1.53L15.572,110.246c.608.237,1.111.442,1.621.63q9.45,3.492,18.9,6.984a33.753,33.753,0,0,1,9.629,5.762,29.713,29.713,0,0,0,7.458,4.662c7.937,3.21,16,6.111,24.039,9.066,10.237,3.763,20.5,7.465,30.749,11.182,3.786,1.373,6.618.573,8.608-2.388,2.408-3.922.877-8.308-3.568-9.987-4.653-1.757-9.348-3.4-14.013-5.129-2.507-.928-3-2.045-2.119-4.542a3.467,3.467,0,0,1,4.065-.694c4.723,1.766,9.455,3.508,14.213,5.177a6.27,6.27,0,0,0,7.661-2.3c2.834-3.809,1.253-8.543-3.534-10.358-4.611-1.748-9.249-3.427-13.9-5.075a3.218,3.218,0,0,1-2.472-3.6c1.363-2.143,2.155-2.424,4.611-1.54,4.692,1.688,9.361,3.44,14.066,5.091a6.267,6.267,0,0,0,7.676-2.267c2.857-3.761,1.3-8.563-3.444-10.369-4.54-1.726-9.132-3.318-13.694-4.988-2.312-.846-2.731-1.508-2.645-3.981,1.09-1.753,2.558-2.036,4.441-1.321,4.022,1.53,8.08,2.966,12.123,4.44q12.736,4.645,25.476,9.281c3.469,1.254,5.985.587,8.064-2.017a14.619,14.619,0,0,0,1.409-3.68c.323-3.321-1.556-5.629-5.371-7.021q-21.972-8.018-43.937-16.056a9.275,9.275,0,0,1-3.728-2.223c-2.195-2.493-.987-6.134,2.389-7.446,4.02-1.563,8.109-2.948,12.153-4.449a29.669,29.669,0,0,0,4.238-1.811,5.139,5.139,0,0,0,2.325-5.752c-.7-2.154-3.291-4.023-5.331-3.814q-8.021.818-16.038,1.667c-2.356.25-3.142-.2-4.111-2.468.27-2.036,1.438-2.912,3.483-3.092,5.477-.484,10.938-1.141,16.411-1.676,5.194-.507,10.878,4.314,11.28,9.608a2.808,2.808,0,0,0,1.346,2.382c2.241,1.557,4.03,6.322,3.022,8.578-.686,1.538-2,2.793-3.262,4.469l5.046,10.845c2.266-1.041,4.426-2.047,6.6-3.029,3.807-1.724,6.85-.7,8.518,3.084a57.491,57.491,0,0,1,1.909,6.078,12.717,12.717,0,0,1,7.5,6.457,12.156,12.156,0,0,1-1.933,13.462,1.894,1.894,0,0,0-.372,2.529c2.348,4.888,4.544,9.85,6.9,14.732.884,1.831.772,3.291-.839,4.572-2.507.356-3.146.031-4.21-2.2-.925-1.939-1.831-3.886-2.739-5.834-1.419-3.042-2.832-6.086-4.3-9.237l-10.993,5.186-8.2,3.762,2.373,5.02c3.408-1.346,4.83-1.212,5.658.465.782,1.584.085,2.657-3.215,4.852l2.3,4.915c3.623-1.281,4.859-1.149,5.687.526.785,1.59.156,2.555-3.211,4.833l2.3,4.9c3.61-1.263,4.842-1.2,5.6.433,1.41,3.059-1.378,3.673-3.149,4.89l2.367,5.009c3.283-1.348,4.664-1.335,5.471.214,1.613,3.1-1.179,3.824-3.057,5.044l2.144,4.533,7.773-3.734,11.369-5.166c-.344-.776-.606-1.391-.888-2-2.366-5.089-4.749-10.171-7.1-15.267-.962-2.084-.721-2.985,1.059-4.5M131.358,76.379l2.139.956c-1.008-2.2-1.774-3.97-2.666-5.678-.122-.234-.877-.137-1.339-.193l-3.273,1.386a2.376,2.376,0,0,0,0,.552c.871,2.437,3.289,2.212,5.134,2.977m11.889,31.572c-1.947.884-3.9,1.757-5.839,2.654-2.546,1.177-2.585,1.372-.76,3.882l7.343-3.622,4.36-1.853c-1.776-.456-3.172-2.359-5.1-1.062m34.65,58.358.974-3.736L165.013,169c3.13,1.582,5.952,3.073,8.834,4.437,1.248.591,2.331-.177,2.753-1.726q.649-2.7,1.3-5.4M30.154,52.186c-2.247-1.521-2.884-1.35-3.749,1.021q-4.026,11.039-8.047,22.08Q12.145,92.324,5.91,109.352c-.428,1.164-.47,2.042.885,2.505,1.115.381,2.222.745,2.512-.983.043-.045.107-.082.126-.134Q19.832,82.316,30.2,53.88a4.793,4.793,0,0,0-.045-1.694m87.7,18.372,16.051-7.353c-.138-.4-.2-.628-.3-.844-.172-.38-.366-.751-.592-1.211-4.174,4.931-10.555,5.286-15.887,7.91l.726,1.5" transform="translate(0 -44.104)" fill="#030303"/>
      <path id="Trazado_236804" data-name="Trazado 236804" d="M76.968,68.1c4.9,1.647,9.874,2.782,15.057,1.527,2.992-.724,5.94-1.628,8.922-2.395,6.74-1.733,13.455-3.585,20.249-5.077,3.352-.736,6.858-.764,10.29-1.144,2.531-.28,3.135-.871,3.462-3.239l7.355-.721c.969,2.264,1.755,2.718,4.111,2.468q8.017-.851,16.038-1.667c2.04-.208,4.629,1.661,5.33,3.814a5.139,5.139,0,0,1-2.325,5.752,29.672,29.672,0,0,1-4.238,1.811c-4.044,1.5-8.133,2.887-12.153,4.449-3.375,1.312-4.583,4.953-2.389,7.446a9.273,9.273,0,0,0,3.728,2.223q21.947,8.087,43.937,16.056c3.814,1.392,5.694,3.7,5.371,7.021a14.63,14.63,0,0,1-1.409,3.679q-9.116-3.324-18.231-6.65-12.5-4.582-24.989-9.186c-1.331-.489-2.66-.984-4-1.441a3.8,3.8,0,0,0-4.341,1.624c-.995,1.732-.448,3.709,1.459,5.271-.086,2.473.333,3.135,2.645,3.982,4.562,1.67,9.154,3.261,13.694,4.988,4.749,1.806,6.3,6.608,3.444,10.369q-5.832-2.076-11.664-4.154c-3.6-1.29-7.166-2.659-10.788-3.871a3.662,3.662,0,0,0-4.481,1.258,3.489,3.489,0,0,0,.078,4.308,6.363,6.363,0,0,1,.5,1.176,3.219,3.219,0,0,0,2.472,3.6c4.648,1.647,9.286,3.326,13.9,5.075,4.787,1.815,6.369,6.549,3.534,10.358a2.811,2.811,0,0,1-.733-.065c-6.64-2.426-13.283-4.848-19.909-7.312-1.734-.645-3.443-.794-4.823.54s-1.061,3.021-.474,4.652c-.88,2.5-.388,3.614,2.119,4.542,4.664,1.727,9.359,3.372,14.013,5.129,4.445,1.679,5.976,6.064,3.568,9.987a18.578,18.578,0,0,1-2.51-.549q-22.926-8.356-45.837-16.754c-5.332-1.947-10.593-3.911-14.822-8.014a20.2,20.2,0,0,0-6.342-4.019c-6.729-2.746-13.569-5.221-20.385-7.75-3.3-1.226-4.62-4.079-3.36-7.366,1.279-3.337,2.476-6.706,3.706-10.062,2.692-7.348,5.413-14.685,8.056-22.051,1.14-3.177,2.116-6.413,3.166-9.622" transform="translate(-38.721 -52.246)" fill="#fbdead"/>
      <path id="Trazado_236805" data-name="Trazado 236805" d="M421.265,247.31c-1.781,1.514-2.021,2.415-1.059,4.5,2.351,5.1,4.733,10.178,7.1,15.267.282.606.544,1.221.888,2l-11.369,5.166c-2.186-4.753-4.353-9.516-6.564-14.257-3.773-8.092-7.6-16.159-11.345-24.263-1.079-2.333-1.962-4.757-2.935-7.139l10.993-5.186c1.466,3.151,2.879,6.2,4.3,9.238.908,1.947,1.814,3.895,2.739,5.834,1.064,2.231,1.7,2.555,4.21,2.2l3.044,6.647" transform="translate(-249.035 -156.859)" fill="#62a0fa"/>
      <path id="Trazado_236806" data-name="Trazado 236806" d="M64.637,84.231c-1.05,3.209-2.026,6.446-3.166,9.622-2.643,7.365-5.364,14.7-8.056,22.051-1.229,3.356-2.427,6.725-3.706,10.062-1.26,3.287.056,6.14,3.36,7.366,6.816,2.528,13.656,5,20.385,7.75A20.2,20.2,0,0,1,79.8,145.1c4.229,4.1,9.49,6.067,14.822,8.014q22.92,8.372,45.837,16.754a18.573,18.573,0,0,0,2.51.549c-1.99,2.962-4.822,3.761-8.608,2.388-10.253-3.717-20.512-7.419-30.749-11.182-8.039-2.955-16.1-5.856-24.039-9.066a29.718,29.718,0,0,1-7.458-4.662,33.749,33.749,0,0,0-9.629-5.762q-9.444-3.508-18.9-6.984c-.51-.188-1.013-.393-1.621-.63L60.876,82.7l3.761,1.53" transform="translate(-26.39 -68.378)" fill="#f9cf93"/>
      <path id="Trazado_236807" data-name="Trazado 236807" d="M382.09,237.367c.973,2.382,1.856,4.806,2.935,7.139,3.747,8.1,7.573,16.171,11.345,24.264,2.211,4.741,4.377,9.5,6.564,14.257l-7.774,3.734-2.143-4.533c1.879-1.219,4.671-1.946,3.057-5.044-.806-1.549-2.188-1.562-5.471-.214l-2.367-5.008c1.771-1.216,4.559-1.83,3.148-4.89-.755-1.638-1.988-1.7-5.6-.433l-2.3-4.9c3.367-2.278,4-3.243,3.21-4.833-.827-1.675-2.064-1.808-5.687-.527l-2.3-4.914c3.3-2.2,4-3.268,3.215-4.852-.828-1.677-2.25-1.811-5.658-.465l-2.372-5.021,8.2-3.761" transform="translate(-235.144 -165.648)" fill="#4086fb"/>
      <path id="Trazado_236808" data-name="Trazado 236808" d="M291.724,160.055c-1.907-1.562-2.454-3.539-1.459-5.271a3.8,3.8,0,0,1,4.341-1.624c1.342.457,2.671.953,4,1.442q12.495,4.592,24.989,9.186,9.111,3.34,18.231,6.65c-2.079,2.6-4.6,3.271-8.064,2.017q-12.749-4.61-25.476-9.281c-4.043-1.474-8.1-2.911-12.123-4.44-1.883-.716-3.35-.433-4.44,1.32" transform="translate(-182.243 -112.579)" fill="#f9cf93"/>
      <path id="Trazado_236809" data-name="Trazado 236809" d="M18.874,122.9c-.289,1.727-1.4,1.364-2.512.983-1.355-.463-1.313-1.342-.886-2.506q6.255-17.021,12.448-34.065,4.027-11.039,8.047-22.08c.865-2.372,1.5-2.542,3.749-1.021a4.808,4.808,0,0,0-.731,1.025c-1.049,2.823-2.046,5.665-3.081,8.494q-3.96,10.824-7.935,21.642c-3.056,8.373-6.111,16.747-9.1,25.143a7.237,7.237,0,0,0,0,2.384" transform="translate(-9.567 -56.134)" fill="#edb273"/>
      <path id="Trazado_236810" data-name="Trazado 236810" d="M275.137,208.793a6.358,6.358,0,0,0-.5-1.177,3.489,3.489,0,0,1-.078-4.308,3.661,3.661,0,0,1,4.481-1.258c3.622,1.212,7.192,2.581,10.788,3.871q5.827,2.09,11.665,4.154a6.267,6.267,0,0,1-7.676,2.268c-4.7-1.651-9.374-3.4-14.066-5.091-2.456-.884-3.249-.6-4.611,1.54" transform="translate(-172.226 -143.262)" fill="#f8cf93"/>
      <path id="Trazado_236811" data-name="Trazado 236811" d="M260.212,256.492c-.588-1.631-.894-3.33.474-4.652s3.089-1.185,4.823-.54c6.626,2.464,13.268,4.885,19.909,7.312a2.829,2.829,0,0,0,.733.065,6.271,6.271,0,0,1-7.661,2.3c-4.757-1.67-9.49-3.411-14.213-5.177a3.467,3.467,0,0,0-4.065.694" transform="translate(-163.336 -174.11)" fill="#f9cf93"/>
      <path id="Trazado_236812" data-name="Trazado 236812" d="M24.883,124.571a7.237,7.237,0,0,1,0-2.384c2.991-8.4,6.047-16.77,9.1-25.143Q37.934,86.217,41.917,75.4c1.035-2.828,2.032-5.671,3.081-8.494a4.808,4.808,0,0,1,.731-1.025,4.784,4.784,0,0,1,.044,1.694Q35.425,96.019,25.009,124.438c-.019.053-.083.09-.126.134" transform="translate(-15.576 -57.801)" fill="#ecb876"/>
      <path id="Trazado_236813" data-name="Trazado 236813" d="M456.253,372.488c-.422,1.548-1.505,2.316-2.753,1.725-2.882-1.364-5.7-2.854-8.834-4.437l13.858-6.428-.974,3.736c-.359-.078-.784-.319-1.064-.205a25.591,25.591,0,0,0-2.953,1.442,1.554,1.554,0,0,0-.082,2.882,22.055,22.055,0,0,0,2.8,1.286" transform="translate(-279.653 -244.879)" fill="#2375d9"/>
      <path id="Trazado_236814" data-name="Trazado 236814" d="M373.417,219.071l-7.343,3.621c-1.826-2.51-1.787-2.706.76-3.882,1.941-.9,3.892-1.77,5.839-2.654l.744,2.914" transform="translate(-229.425 -152.309)" fill="#2375d8"/>
      <path id="Trazado_236815" data-name="Trazado 236815" d="M316.362,99.448l-.726-1.5c5.332-2.624,11.712-2.979,15.887-7.91.226.46.419.831.592,1.211.1.217.161.449.3.844l-16.051,7.353" transform="translate(-198.505 -72.993)" fill="#b9c5e0"/>
      <path id="Trazado_236816" data-name="Trazado 236816" d="M469.561,378.42a22.051,22.051,0,0,1-2.8-1.286,1.554,1.554,0,0,1,.082-2.882,25.6,25.6,0,0,1,2.953-1.442c.28-.114.705.127,1.064.205l-1.3,5.4" transform="translate(-292.962 -250.811)" fill="#3f86fb"/>
      <path id="Trazado_236817" data-name="Trazado 236817" d="M345.245,122.747c-1.845-.764-4.263-.539-5.134-2.977a2.371,2.371,0,0,1,0-.551l3.273-1.386,1.866,4.914" transform="translate(-213.886 -90.473)" fill="#c5d0ea"/>
      <path id="Trazado_236818" data-name="Trazado 236818" d="M386.758,218.316l-.744-2.914c1.932-1.3,3.328.606,5.1,1.061l-4.36,1.853" transform="translate(-242.767 -151.554)" fill="#3e82f4"/>
      <path id="Trazado_236819" data-name="Trazado 236819" d="M350.813,122.747l-1.866-4.914c.462.056,1.217-.041,1.339.192.893,1.709,1.658,3.483,2.666,5.678l-2.139-.956" transform="translate(-219.455 -90.473)" fill="#cfd6e8"/>
    </g>
  </g>
</svg>
