<svg xmlns="http://www.w3.org/2000/svg" width="272.488" height="272" viewBox="0 0 272.488 272">
  <g id="Grupo_166885" data-name="Grupo 166885" transform="translate(0 -0.687)">
    <g id="Grupo_165348" data-name="Grupo 165348" transform="translate(0 0.687)">
      <path id="Trazado_236734" data-name="Trazado 236734" d="M272.488,52.243c-2.62,5.593-7.253,6.809-13.05,6.763-23.839-.19-47.68-.049-71.52-.131-2.234-.008-3.163.547-3.687,2.836-4.307,18.839-8.783,37.64-13.14,56.469a6.2,6.2,0,0,0,.253,3.308q9.6,26.623,19.325,53.2c2.6,7.087,8.954,10.121,16.223,7.78a39.274,39.274,0,0,1,19.117-1.607c3.5.615,4.663,2.2,4.149,5.694-1.218,2.191-3.115,2.677-5.436,2.216a29.43,29.43,0,0,0-14.936,1.16c-11.994,3.85-22.472-1.239-26.789-13.065q-26.331-72.117-52.629-144.245c-2.495-6.838-5-13.671-7.806-21.339-1.851,2.116-3.354,3.743-4.754,5.454-2.108,2.574-4.143,5.208-6.21,7.817-2.66,4.918-2.542,9.987-.693,15.089,4.507,12.436,9.074,24.85,13.6,37.278,1.2,3.3.729,4.622-2.171,6.378-2.736.459-4.339-.8-5.24-3.307-2.237-6.217-4.643-12.376-6.728-18.642-.664-2-1.6-2.469-3.558-2.466-31.258.057-62.516-.048-93.774.119C7.24,59.036,2.618,57.827,0,52.243V31c2.6-5.422,7.042-6.741,12.8-6.7,28.981.2,57.963.062,86.944.145,2.24.006,3.271-.573,4.321-2.666a38.186,38.186,0,0,1,5.869-8.407c3.385-3.729,7.158-7.11,10.789-10.615,3.429-3.309,6.307-2.614,7.972,1.919,2.158,5.877,4.37,11.736,6.381,17.663.569,1.675,1.385,2.1,3.042,2.086q14.49-.106,28.981,0a2.487,2.487,0,0,0,2.812-2.024c2.115-6.078,4.353-12.115,6.63-18.135,1.478-3.908,4.842-4.473,7.509-1.3a32.706,32.706,0,0,1,6.984,14.1c.531,2.384.816,4.821,1.227,7.32,8.923,0,17.688-.018,26.454.009,3.3.011,4.182.755,4.994,3.923-.786,3.257-1.788,4.045-5.446,4.054-9.905.023-19.811,0-29.716.011q-21.621.032-43.241.092H138.78c1.678,4.629,3.3,9.076,4.9,13.527,2.02,5.605,2.015,5.607,8.075,4.82,12.317.043,24.634.112,36.951.122,24.109.02,48.218-.012,72.327.034,2.274,0,3.7-.236,3.53-3.122-.241-4.144-.177-8.317-.016-12.468.089-2.325-.68-3.09-3.02-3.051-7.266.122-14.536.06-21.8.038-3.615-.011-4.466-.66-5.568-4.034.588-2.909,2.386-4.028,5.323-3.986,7.085.1,14.181.251,21.255-.037,5.734-.233,9.658,1.849,11.757,7.213ZM168.337,94.287c2.81-11.7,5.62-23.4,8.451-35.187h-7.553c-4.045-.429-4.045-.429-5.412,3.31-2.119,5.8-4.3,11.573-6.3,17.411a6.187,6.187,0,0,0,0,3.741c2,5.838,4.18,11.613,6.3,17.41q.794,2.175,1.581,4.352l.546-.076q1.2-5.481,2.392-10.961m-73.089-61.8c-1.947-.037-3.894-.1-5.841-.1-26.059-.007-52.117.027-78.175-.054-2.562-.008-3.427.743-3.3,3.316.2,3.882.05,7.782.053,11.675,0,3.615,0,3.624,3.728,3.625q42.676,0,85.354,0c.793,0,1.587-.083,2.38-.127h7.035c-1.108-3.079-2.322-5.979-3.184-8.979-.866-3.017-1.383-6.134-2.083-9.347Zm57.264,37.565,4-11.005h-8l4,11.005M182.108,14.36l-.852.116-3.522,9.749h6.653l-2.279-9.864" transform="translate(0 -0.687)" fill="#050505"/>
      <path id="Trazado_236737" data-name="Trazado 236737" d="M238.289,310.492c-1.56-.439-3.119-.883-4.682-1.314-12.74-3.514-21.654-11.32-26.214-23.743q-17.639-48.054-35.128-96.161c-.647-1.768-1.589-3.43-2.393-5.142l-.829.007a43.894,43.894,0,0,0-2.292,4.588q-17.479,47.83-34.883,95.687c-5.221,14.336-15.2,23.041-30.384,25.6-.189.032-.337.316-.5.483H90.869c-2.412-.711-4.844-1.357-7.232-2.144a36.371,36.371,0,0,1-23.267-47.243c2.147-6.071,4.333-12.13,6.606-18.155a37.645,37.645,0,0,1,47.153-22.72c8.451,2.712,14.306-.141,17.37-8.507q8.873-24.229,17.663-48.489a6,6,0,0,0,.02-3.729Q145.241,148.27,141,137.139c-.954-2.508-.564-4.453,1.543-6.076,3.808-.579,4.821.006,6.161,3.672,4.451,12.175,8.922,24.342,13.289,36.547.6,1.681,1.3,2.552,3.222,2.8,7.261.935,11.941,4.978,14.444,11.926q14.033,38.951,28.323,77.81c2.88,7.86,5.328,15.973,9.123,23.384,7.4,14.448,27.082,19.624,39.99,11.162,11.585-5.463,17.991-20.829,13.871-33.879a201.268,201.268,0,0,0-7.057-19.345,47.479,47.479,0,0,0-6.484-10.163c-1.651-2.1-2.177-3.913-.9-6.221,2.935-1.879,4.518-1.894,6.7.688,2.375,2.817,5.044,5.675,6.409,9,3.608,8.781,7.388,17.624,9.643,26.8,5.174,21.05-10.346,42.263-31.97,44.741a3.447,3.447,0,0,0-1.03.513Zm-79.75-123.08c.839-1.921,1.679-3.843,2.624-6-4.277-.732-5.727-4.167-6.983-7.829-5.183,13.546-10.015,26.889-14.926,40.2a34.873,34.873,0,0,1-3.022,6.447c-4.16,6.639-13.695,11.313-24.628,7.669-15.345-5.114-30.9,2.392-36.9,17.4-2.523,6.3-4.813,12.708-7.028,19.128a26.391,26.391,0,0,0-.478,16.407c2.909,12.185,14.374,21.136,27.67,21.6,13.516.475,24.615-7.316,29.505-20.728q11.424-31.332,22.827-62.671c3.821-10.526,7.564-21.08,11.342-31.621" transform="translate(-16.893 -38.491)" fill="#040404"/>
      <path id="Trazado_236738" data-name="Trazado 236738" d="M285.04,270.327c-12.908,8.462-32.593,3.286-39.99-11.162-3.794-7.411-6.242-15.523-9.123-23.384q-14.244-38.874-28.322-77.81c-2.5-6.948-7.183-10.991-14.444-11.926-1.926-.248-2.621-1.118-3.222-2.8-4.368-12.2-8.839-24.372-13.289-36.547-1.34-3.665-2.352-4.251-6.161-3.672q-1.659-4.978-3.32-9.957c2.9-1.757,3.374-3.074,2.171-6.378-4.526-12.429-9.094-24.843-13.6-37.279-1.849-5.1-1.968-10.171.693-15.089.208.27.6.545.6.812-.109,6.037,2.722,11.282,4.667,16.718,6.507,18.186,13.244,36.291,19.89,54.427,4.005,10.932,8.045,21.852,11.97,32.813.776,2.167,2.122,2.916,4.3,3.184,5.658.693,10.2,2.828,12.253,8.864,3.315,9.77,6.992,19.418,10.536,29.109,8.208,22.45,16.571,44.844,24.592,67.36,4.994,14.02,17.82,23.4,32.425,23.147,2.461-.043,4.918-.282,7.376-.431" transform="translate(-44.833 -10.455)" fill="#dbeaf0"/>
      <path id="Trazado_236739" data-name="Trazado 236739" d="M285.876,264.9c-2.459.149-4.915.388-7.376.431-14.606.254-27.431-9.126-32.426-23.146-8.021-22.516-16.383-44.911-24.591-67.36-3.544-9.693-7.221-19.34-10.536-29.11-2.048-6.036-6.6-8.172-12.253-8.864-2.18-.267-3.526-1.017-4.3-3.184-3.926-10.961-7.965-21.88-11.971-32.812-6.645-18.138-13.382-36.242-19.889-54.427-1.946-5.437-4.776-10.682-4.667-16.719,0-.267-.388-.541-.6-.812,2.066-2.609,4.1-5.242,6.21-7.817,1.4-1.71,2.9-3.338,4.753-5.453,2.806,7.667,5.312,14.5,7.806,21.338q26.314,72.123,52.629,144.246c4.318,11.825,14.8,16.913,26.79,13.065a29.421,29.421,0,0,1,14.936-1.16c2.32.46,4.218-.025,5.436-2.216l9.473,4.4c-1.272,2.308-.747,4.118.9,6.22a47.5,47.5,0,0,1,6.484,10.164,201.2,201.2,0,0,1,7.057,19.345c4.119,13.049-2.287,28.415-13.871,33.878m-16.157-5.3c13.871,0,24-10.386,21.656-22.219a103.775,103.775,0,0,0-9.685-26.666c-4.2-8.2-15.045-10.86-23.76-7.508-8.874,3.414-14.869,12.61-12.623,21.7a132.291,132.291,0,0,0,9.065,25.01,17.3,17.3,0,0,0,15.347,9.68M200.6,123.708a3.863,3.863,0,0,0-3.792-3.957,4.016,4.016,0,0,0-4.166,3.911,4.137,4.137,0,0,0,4.12,4.021,4.008,4.008,0,0,0,3.838-3.974" transform="translate(-45.67 -5.024)" fill="#eff8fc"/>
      <path id="Trazado_236740" data-name="Trazado 236740" d="M283.171,39.622l10.445.021c1.1,3.375,1.953,4.023,5.568,4.034,7.268.022,14.538.084,21.8-.037,2.34-.04,3.109.725,3.019,3.05-.16,4.152-.225,8.325.017,12.468.168,2.887-1.256,3.127-3.53,3.123-24.11-.046-48.218-.015-72.328-.035-12.317-.01-24.633-.079-36.95-.122l-6.45-18.347q21.621-.047,43.242-.091c9.905-.015,19.811.012,29.716-.011,3.658-.009,4.659-.8,5.446-4.054" transform="translate(-59.463 -11.993)" fill="#fd989f"/>
      <path id="Trazado_236741" data-name="Trazado 236741" d="M102.695,63.762c-.793.044-1.587.127-2.381.127q-42.676.011-85.354,0c-3.724,0-3.725-.009-3.727-3.625,0-3.893.146-7.792-.053-11.675-.131-2.572.733-3.324,3.3-3.316,26.058.081,52.116.047,78.174.054,1.947,0,3.894.068,5.841.1.969,4.6,1.912,9.21,2.924,13.8.336,1.528.848,3.017,1.279,4.524" transform="translate(-3.243 -13.636)" fill="#fd989f"/>
      <path id="Trazado_236742" data-name="Trazado 236742" d="M235.955,83h7.553c-2.831,11.789-5.642,23.488-8.452,35.187-1.6-3.66-3.442-7.239-4.7-11.014a11.466,11.466,0,0,1-.262-6.4c1.329-4.651,3.261-9.128,4.874-13.7a39.456,39.456,0,0,0,.986-4.07" transform="translate(-66.72 -24.591)" fill="#dcebf1"/>
      <path id="Trazado_236743" data-name="Trazado 236743" d="M233.581,82.926a39.457,39.457,0,0,1-.986,4.07c-1.613,4.574-3.545,9.051-4.874,13.7a11.466,11.466,0,0,0,.262,6.4c1.257,3.774,3.1,7.354,4.7,11.014q-1.2,5.481-2.391,10.961l-.546.076q-.79-2.176-1.58-4.352c-2.117-5.8-4.3-11.572-6.3-17.41a6.182,6.182,0,0,1,0-3.741c2-5.838,4.18-11.613,6.3-17.411,1.367-3.739,1.367-3.739,5.413-3.31" transform="translate(-64.345 -24.514)" fill="#cbdde3"/>
      <path id="Trazado_236744" data-name="Trazado 236744" d="M138.431,63.827c-.431-1.506-.943-3-1.279-4.524-1.011-4.593-1.954-9.2-2.924-13.8H140.2c.7,3.213,1.217,6.33,2.083,9.347.862,3,2.076,5.9,3.183,8.979Z" transform="translate(-38.979 -13.701)" fill="#d77177"/>
      <path id="Trazado_236745" data-name="Trazado 236745" d="M202.1,45.479l6.45,18.348c-6.061.787-6.055.785-8.075-4.82-1.6-4.453-3.222-8.9-4.9-13.528Z" transform="translate(-56.793 -13.694)" fill="#d06e74"/>
      <path id="Trazado_236746" data-name="Trazado 236746" d="M213.289,93.936l-4-11.005h8l-4,11.005" transform="translate(-60.775 -24.57)" fill="#f6f6f6"/>
      <path id="Trazado_236747" data-name="Trazado 236747" d="M254.843,19.955l2.279,9.864H250.47l3.522-9.749.852-.116" transform="translate(-72.735 -6.282)" fill="#becfd5"/>
      <path id="Trazado_236748" data-name="Trazado 236748" d="M162.232,210.012c-3.779,10.541-7.522,21.1-11.342,31.621q-11.379,31.348-22.827,62.67c-4.89,13.412-15.99,21.2-29.505,20.728-13.3-.466-24.761-9.418-27.67-21.6.363-1.472.614-2.983,1.108-4.41,2.88-8.314,5.685-16.658,8.784-24.892a28.246,28.246,0,0,1,9.133-12.474c10.159-7.889,21.355-9.837,33.648-5.624a16.165,16.165,0,0,0,20.449-10.049c4.134-11.432,8.4-22.819,12.646-34.209,1.348-3.612,2.222-3.842,5.575-1.759M96.166,265.1a14.132,14.132,0,0,0-5.919,8.636c-2.391-.41-4.272.32-5.15,2.664-1.7,4.543-3.5,9.067-4.878,13.713a20.251,20.251,0,0,0,37.953,13.832,192.437,192.437,0,0,0,7.371-20.4c2.249-7.592.079-14.433-5.626-19.85-5.641-5.355-12.452-6.807-19.946-4.634-3.638,1.054-4.345,2.294-3.8,6.042" transform="translate(-20.586 -61.09)" fill="#dceaf0"/>
      <path id="Trazado_236749" data-name="Trazado 236749" d="M161.789,204.891c-3.354-2.083-4.228-1.853-5.575,1.759-4.251,11.39-8.512,22.777-12.646,34.209a16.164,16.164,0,0,1-20.449,10.049c-12.293-4.214-23.488-2.266-33.648,5.624a28.253,28.253,0,0,0-9.133,12.474c-3.1,8.234-5.9,16.577-8.783,24.892-.495,1.427-.745,2.938-1.108,4.411a26.391,26.391,0,0,1,.478-16.407c2.215-6.421,4.505-12.823,7.028-19.128,6-15,21.559-22.51,36.9-17.4,10.934,3.644,20.468-1.03,24.628-7.669a34.872,34.872,0,0,0,3.022-6.447c4.91-13.314,9.743-26.656,14.926-40.2,1.257,3.662,2.706,7.1,6.983,7.829-.945,2.161-1.785,4.083-2.624,6" transform="translate(-20.142 -55.97)" fill="#cbdee4"/>
      <path id="Trazado_236750" data-name="Trazado 236750" d="M305.554,335.779a17.306,17.306,0,0,1-15.347-9.68,132.256,132.256,0,0,1-9.065-25.01c-2.246-9.093,3.749-18.289,12.623-21.7,8.715-3.353,19.56-.693,23.76,7.507a103.77,103.77,0,0,1,9.685,26.667c2.347,11.833-7.785,22.223-21.656,22.219m.632-7.972c9.532-.023,15.452-7.98,12.847-15.95-2-6.109-4.23-12.148-6.585-18.13a12.3,12.3,0,0,0-23.186,8.148c2.043,6.278,4.3,12.5,6.824,18.6a11.238,11.238,0,0,0,10.1,7.328" transform="translate(-81.504 -81.209)" fill="#040404"/>
      <path id="Trazado_236751" data-name="Trazado 236751" d="M215.075,166.32a4.008,4.008,0,0,1-3.838,3.974,4.137,4.137,0,0,1-4.12-4.021,4.016,4.016,0,0,1,4.166-3.911,3.863,3.863,0,0,1,3.792,3.957" transform="translate(-60.146 -47.636)" fill="#070707"/>
      <path id="Trazado_236752" data-name="Trazado 236752" d="M99.647,285.311c-.54-3.747.167-4.987,3.8-6.042,7.493-2.172,14.3-.721,19.946,4.634,5.706,5.417,7.875,12.258,5.626,19.85a192.441,192.441,0,0,1-7.371,20.4A20.251,20.251,0,0,1,83.7,310.324c1.375-4.646,3.175-9.17,4.878-13.713.878-2.344,2.759-3.074,5.15-2.664,2.776,1.941,3.18,3.114,2.056,6.254-1.367,3.818-2.853,7.594-4.148,11.435a12.31,12.31,0,0,0,23.145,8.395c2.225-5.755,4.294-11.572,6.318-17.4a12.269,12.269,0,0,0-15.383-15.686c-2.531.827-4.475.505-6.069-1.634" transform="translate(-24.067 -81.304)" fill="#040505"/>
    </g>
  </g>
</svg>
