<svg xmlns="http://www.w3.org/2000/svg" xmlns:xlink="http://www.w3.org/1999/xlink" width="220" height="220" viewBox="0 0 220 220"><defs><filter id="a" x="0" y="0" width="220" height="220" filterUnits="userSpaceOnUse"><feOffset dy="6" input="SourceAlpha"/><feGaussianBlur stdDeviation="5" result="b"/><feFlood flood-opacity="0.329"/><feComposite operator="in" in2="b"/><feComposite in="SourceGraphic"/></filter></defs><g transform="translate(-479.667 -3700)"><g transform="matrix(1, 0, 0, 1, 479.67, 3700)" filter="url(#a)"><circle cx="95" cy="95" r="95" transform="translate(15 9)" fill="#ffb500"/></g><g transform="translate(532.749 3746.714)"><g transform="translate(0 0.659)"><path d="M0,104.4c1.06-3.163,3.638-5.128,5.85-7.373,2.887-2.929,5.809-5.823,8.72-8.729,1.113-1.111,1.521-1.164,2.882-.415a1.986,1.986,0,0,1-.5,2.743c-.8.694-1.558,1.433-2.14,1.97l4.419,4.782,1.629,1.741c3.6-3.525,7.2-6.892,10.609-10.445C33,87.083,32.605,84.458,31,82.9a4.351,4.351,0,0,0-6.048-.247c-.661.582-1.251,1.243-1.883,1.858-.962.936-1.565.979-2.715.213a1.742,1.742,0,0,1,.36-2.544A27.312,27.312,0,0,1,24.622,79c2.2-1.252,4.469-.994,7.463.365l2.684-2.735c-.61-.726-1.283-1.493-1.918-2.287A44.363,44.363,0,0,1,22.834,43.358a45.24,45.24,0,0,1,82.9-22.42c.884,1.337.872,1.709-.1,2.935-1.331.421-1.792.248-2.649-1.035A41.676,41.676,0,0,0,89.847,10.134,36.609,36.609,0,0,0,78.286,5.36c-.54-.1-1.09-.17-1.618-.318a34.829,34.829,0,0,0-15.2-.522A42.074,42.074,0,0,0,26.139,43.7a40.366,40.366,0,0,0,2.846,17.5A41.64,41.64,0,0,0,45.224,81.043a40.879,40.879,0,0,0,19.307,6.608,38.723,38.723,0,0,0,13.757-1.2,8.043,8.043,0,0,0,.854-.146A42.08,42.08,0,0,0,105.1,65.358a40.9,40.9,0,0,0,4.657-22.668,41.385,41.385,0,0,0-2.525-11.458c-.544-1.424-1.024-2.709.058-4.047.162.056.337.182.486.158a1.727,1.727,0,0,1,2.041,1.261,43.763,43.763,0,0,1,3.189,12.571,43.947,43.947,0,0,1-6.1,27.749C99.741,80.75,89.321,88.116,75.661,90.441c-14.213,2.42-26.819-1.35-37.734-10.768-.218-.188-.445-.367-.7-.573l-2.574,2.726a21.446,21.446,0,0,1,.929,3.151,7.6,7.6,0,0,1-2.3,6.739q-9.937,9.925-19.87,19.853a10.3,10.3,0,0,1-4.347,2.345H6.194a4.1,4.1,0,0,0-.632-.335A7.787,7.787,0,0,1,.33,108.356a4.379,4.379,0,0,0-.33-.636V104.4m14.362-2.412,1.763,1.842,2.388-2.192-1.877-1.914L12.143,95.5l-2,2.006,4.218,4.49m-9.82,7.12a4.206,4.206,0,0,0,5.77.665,33.532,33.532,0,0,0,3.385-3.683l-1.765-1.669L7.29,100.048c-.308.373-.686.875-1.11,1.332-.6.649-1.279,1.229-1.846,1.9a4.342,4.342,0,0,0,.208,5.827" transform="translate(0 -0.659)" fill="#030303"/><path d="M264.982,16.57a36.6,36.6,0,0,1,11.561,4.774,41.681,41.681,0,0,1,13.143,12.705c.857,1.283,1.318,1.456,2.649,1.035l1.652,3.311c-1.081,1.338-.6,2.623-.058,4.046A41.386,41.386,0,0,1,296.454,53.9,41.85,41.85,0,0,1,275.573,93.43a41.433,41.433,0,0,1-9.735,4.084,8.058,8.058,0,0,1-.854.146c.075-.119.123-.3.23-.348a42.158,42.158,0,0,0,11.746-7.386,35.5,35.5,0,0,0,2.642-2.967c.287-.283.56-.584.865-.848a36.679,36.679,0,0,0,8.652-11.032,38.078,38.078,0,0,0,4.009-23.372,39.231,39.231,0,0,0-5.827-15.67,47.712,47.712,0,0,0-7.7-8.754,4.18,4.18,0,0,0-.564-1.008c-.75-.749-1.553-1.445-2.345-2.152A40.964,40.964,0,0,0,265.7,17.16a3.387,3.387,0,0,1-.718-.59" transform="translate(-186.696 -11.869)" fill="#2c373c"/><path d="M54.554,290.287,50.136,285.5c.581-.538,1.341-1.276,2.139-1.97a1.986,1.986,0,0,0,.5-2.743l2.9-3.161c1.15.765,1.753.722,2.715-.213.632-.615,1.223-1.276,1.883-1.858a4.351,4.351,0,0,1,6.048.247,7.51,7.51,0,0,1-2.277,4.852c-2.653,2.586-5.255,5.225-7.867,7.853-.564.568-1.082,1.182-1.621,1.775" transform="translate(-35.324 -193.565)" fill="#a9c0ca"/><path d="M155.071,83.551a35.275,35.275,0,0,1-2.642,2.968,42.149,42.149,0,0,1-11.746,7.386c-.107.046-.155.229-.23.348a38.724,38.724,0,0,1-13.757,1.2,40.881,40.881,0,0,1-19.307-6.608A41.644,41.644,0,0,1,91.15,69.005,40.371,40.371,0,0,1,88.3,51.5a42.074,42.074,0,0,1,35.333-39.182,34.83,34.83,0,0,1,15.2.523c.527.148,1.078.214,1.618.318a3.4,3.4,0,0,0,.718.59,40.962,40.962,0,0,1,10.993,6.962c.792.706,1.595,1.4,2.345,2.152a4.189,4.189,0,0,1,.563,1.007,42.635,42.635,0,0,0-9.589-5.833A38.78,38.78,0,0,0,99.754,29.651c-7.388,9.434-9.818,20.116-7.636,31.881a2.1,2.1,0,0,0,2.094,1.993l1.141,3.614a2.094,2.094,0,0,0-.607,2.556,38.831,38.831,0,0,0,6.8,10.279,38.439,38.439,0,0,0,26.042,12.49,36.083,36.083,0,0,0,19.671-3.946c2.722-1.429,5.214-3.3,7.811-4.967" transform="translate(-62.166 -8.462)" fill="#495359"/><path d="M65.091,293.51c.539-.593,1.057-1.207,1.621-1.775,2.612-2.628,5.214-5.267,7.867-7.853a7.51,7.51,0,0,0,2.277-4.852c1.609,1.557,2,4.182.472,5.776-3.405,3.553-7,6.92-10.609,10.445l-1.629-1.741" transform="translate(-45.861 -196.788)" fill="#859fa7"/><path d="M12.435,346.13a4.342,4.342,0,0,1-.208-5.827c.567-.675,1.246-1.255,1.846-1.9.424-.458.8-.959,1.11-1.332l4.642,4.376c-.706.738-1.42,1.468-2.117,2.215a6.853,6.853,0,0,1-5.273,2.472" transform="translate(-7.893 -237.679)" fill="#a7bfc9"/><path d="M15.373,356.567a6.853,6.853,0,0,0,5.273-2.472c.7-.747,1.411-1.477,2.117-2.215l1.765,1.669a33.534,33.534,0,0,1-3.385,3.683,4.206,4.206,0,0,1-5.77-.665" transform="translate(-10.831 -248.115)" fill="#849da5"/><path d="M38.553,328.155l-4.218-4.49,2-2.006,4.493,4.232-2.274,2.263" transform="translate(-24.191 -226.823)" fill="#49545a"/><path d="M48.612,338.248l2.274-2.263,1.877,1.914-2.388,2.192-1.763-1.842" transform="translate(-34.25 -236.916)" fill="#2d383c"/><path d="M101.638,70.988A2.094,2.094,0,0,1,99.543,69c-2.182-11.765.248-22.448,7.637-31.881A38.779,38.779,0,0,1,152.909,25.5a42.621,42.621,0,0,1,9.588,5.833,47.727,47.727,0,0,1,7.7,8.755,39.233,39.233,0,0,1,5.827,15.67,38.081,38.081,0,0,1-4.009,23.373,36.69,36.69,0,0,1-8.652,11.032c-.3.264-.578.565-.865.848-2.6,1.668-5.088,3.537-7.81,4.966a36.086,36.086,0,0,1-19.671,3.946,38.438,38.438,0,0,1-26.042-12.489,38.832,38.832,0,0,1-6.8-10.279,2.094,2.094,0,0,1,.606-2.556c1.649-.076,1.919.1,2.632,1.579a35,35,0,0,0,21.331,18.774,33.238,33.238,0,0,0,18.28.873l.714-.182.023.026c.324-.058.655-.092.973-.177A35.372,35.372,0,0,0,172.91,58.03C171.7,45.367,165.244,36,154.182,29.815a27.43,27.43,0,0,0-9.2-3.28,1.249,1.249,0,0,0-.294-.143A34.938,34.938,0,0,0,118.942,31a35.34,35.34,0,0,0-16.125,37.265,2.173,2.173,0,0,1-1.179,2.724" transform="translate(-69.592 -15.925)" fill="#010202"/><path d="M151.852,103.815a33.238,33.238,0,0,1-18.28-.873A35,35,0,0,1,112.24,84.167c-.712-1.476-.982-1.655-2.632-1.579l-1.14-3.613a2.173,2.173,0,0,0,1.179-2.724,35.339,35.339,0,0,1,16.125-37.265,34.936,34.936,0,0,1,25.75-4.608,1.263,1.263,0,0,1,.294.143,1.622,1.622,0,0,0,.34.269,37.052,37.052,0,0,1,22.484,40.5,37.127,37.127,0,0,1-21.058,27.625,5.978,5.978,0,0,0-.994.741l-.023-.027-.713.182m10.464-20.751a8.965,8.965,0,0,0-2.653-6.7,30.58,30.58,0,0,1-6.485-9.375,9.135,9.135,0,0,0-8.765-5.46,9.31,9.31,0,0,0-8.89,5.806,28.192,28.192,0,0,1-5.63,8.382c-3.472,3.415-4.276,8.02-2.1,11.993a10.384,10.384,0,0,0,11.4,5.047,22.423,22.423,0,0,1,10.592.038,10.177,10.177,0,0,0,12.539-9.734M142.388,52.434a8.894,8.894,0,0,0-2.983-6.856,4.529,4.529,0,0,0-6.784.847c-2.517,3.33-1.829,9.2,1.391,11.875A4.531,4.531,0,0,0,141,57.342a8.13,8.13,0,0,0,1.384-4.908m4.085.09a8.08,8.08,0,0,0,1.44,4.9,4.522,4.522,0,0,0,6.839.992c3.353-2.67,4.048-8.773,1.38-12.122a4.49,4.49,0,0,0-6.718-.651,8.855,8.855,0,0,0-2.941,6.883m16.151,18.887a15.93,15.93,0,0,0,2.31-.65,8.728,8.728,0,0,0,4.777-7.975,5.3,5.3,0,0,0-2.833-4.792,5.237,5.237,0,0,0-5.628.571,8.484,8.484,0,0,0-3.767,7.127,5.328,5.328,0,0,0,5.141,5.718m-31.27-5.3c.029-3.76-2.155-7.122-5.1-8.257a4.972,4.972,0,0,0-6.922,3.732,8.219,8.219,0,0,0,3.355,8.431,5.175,5.175,0,0,0,5.788.773,5.1,5.1,0,0,0,2.877-4.679" transform="translate(-76.422 -23.91)" fill="#f3f9ff"/><path d="M255.966,105.712a5.978,5.978,0,0,1,.994-.741,37.128,37.128,0,0,0,21.058-27.625,37.191,37.191,0,0,0-22.484-40.5,1.622,1.622,0,0,1-.34-.269,27.431,27.431,0,0,1,9.2,3.28c11.062,6.189,17.518,15.552,18.727,28.215a35.373,35.373,0,0,1-26.179,37.467c-.317.085-.648.119-.973.176" transform="translate(-179.799 -25.963)" fill="#dee4f0"/><path d="M255.313,270.682l.714-.182-.714.182" transform="translate(-179.883 -190.778)" fill="#2cdada"/><path d="M205.519,149.531a10.176,10.176,0,0,1-12.539,9.734,22.424,22.424,0,0,0-10.592-.038,10.384,10.384,0,0,1-11.4-5.047c-2.173-3.972-1.368-8.578,2.1-11.993a28.192,28.192,0,0,0,5.63-8.382,9.311,9.311,0,0,1,8.89-5.806,9.135,9.135,0,0,1,8.765,5.461,30.579,30.579,0,0,0,6.485,9.375,8.965,8.965,0,0,1,2.652,6.7M193.328,155.9a14.283,14.283,0,0,0,3.132.147,6.371,6.371,0,0,0,5.461-4.668,6.27,6.27,0,0,0-1.989-6.79,16.13,16.13,0,0,1-1.162-1.175,32.679,32.679,0,0,1-5.278-8.351,6.081,6.081,0,0,0-5.093-3.7,6.254,6.254,0,0,0-6.661,3.845,31.323,31.323,0,0,1-6.474,9.525,6.467,6.467,0,0,0,2.893,11.116,6.871,6.871,0,0,0,3.263.173,25.331,25.331,0,0,1,11.908-.118" transform="translate(-119.626 -90.378)" fill="#030302"/><path d="M196.347,78.1a8.124,8.124,0,0,1-1.383,4.908,4.531,4.531,0,0,1-6.992.958c-3.22-2.675-3.908-8.546-1.391-11.876a4.529,4.529,0,0,1,6.784-.847,8.892,8.892,0,0,1,2.982,6.856m-3.079.17a7.051,7.051,0,0,0-1.921-4.376,1.263,1.263,0,0,0-2.079.151c-1.521,1.89-1,5.991.931,7.453.727.551,1.459.542,1.881-.231a24.5,24.5,0,0,0,1.188-3" transform="translate(-130.382 -49.577)" fill="#030303"/><path d="M237.1,78.191a8.856,8.856,0,0,1,2.941-6.883,4.49,4.49,0,0,1,6.718.652c2.668,3.349,1.973,9.453-1.38,12.122a4.522,4.522,0,0,1-6.839-.993,8.079,8.079,0,0,1-1.44-4.9m8.034-1.62a15.415,15.415,0,0,0-.967-2.478c-.487-.867-1.272-.865-2.046-.2a6.168,6.168,0,0,0-.976,7.124c.711,1.081,1.53,1.171,2.427.217,1.089-1.157,1.468-2.6,1.562-4.661" transform="translate(-167.054 -49.578)" fill="#030303"/><path d="M279.51,128.074a5.328,5.328,0,0,1-5.141-5.718,8.485,8.485,0,0,1,3.767-7.127,5.237,5.237,0,0,1,5.628-.571,5.3,5.3,0,0,1,2.833,4.792,8.728,8.728,0,0,1-4.777,7.975,15.933,15.933,0,0,1-2.31.65m-1.839-5.394a4.87,4.87,0,0,0,1.08,1.748c.779.589,1.71.086,2.412-.491a4.992,4.992,0,0,0,2-4.842,1.7,1.7,0,0,0-2.762-1.333c-1.725.94-2.528,2.486-2.729,4.918" transform="translate(-193.309 -80.573)" fill="#030303"/><path d="M156.846,122.851a5.1,5.1,0,0,1-2.877,4.679,5.174,5.174,0,0,1-5.788-.773,8.218,8.218,0,0,1-3.356-8.431,4.972,4.972,0,0,1,6.922-3.732c2.944,1.134,5.128,4.5,5.1,8.257m-3.077-.278-.269-.172a5.218,5.218,0,0,0-2.826-4.644,1.688,1.688,0,0,0-2.592,1.266,5.009,5.009,0,0,0,2.148,5.071,2.852,2.852,0,0,0,2.218.4c.607-.277.895-1.251,1.322-1.92" transform="translate(-101.915 -80.654)" fill="#020302"/><path d="M201.3,163.828a25.331,25.331,0,0,0-11.908.118,6.871,6.871,0,0,1-3.263-.173,6.467,6.467,0,0,1-2.893-11.116,31.321,31.321,0,0,0,6.474-9.525,6.253,6.253,0,0,1,6.662-3.845,17.892,17.892,0,0,1,1.562,2.894,32.588,32.588,0,0,0,8.035,12.756,3.453,3.453,0,0,1,.632,4.347,8.988,8.988,0,0,1-5.3,4.544m-7.353-9.2c0,.8-.019,1.486,0,2.174a1.6,1.6,0,0,0,1.59,1.744,1.645,1.645,0,0,0,1.716-1.749c.031-.688.006-1.379.006-2.172.811,0,1.5.035,2.193-.008a1.663,1.663,0,1,0-.023-3.318c-.686-.04-1.376-.007-2.174-.007,0-.853.039-1.584-.009-2.309a1.615,1.615,0,0,0-1.727-1.616,1.578,1.578,0,0,0-1.567,1.649c-.033.725-.007,1.453-.007,2.28-.826,0-1.523-.035-2.215.008a1.662,1.662,0,1,0,.016,3.318c.689.041,1.383.008,2.2.008" transform="translate(-127.597 -98.307)" fill="#a3314f"/><path d="M237.712,163.909a8.987,8.987,0,0,0,5.3-4.544,3.453,3.453,0,0,0-.632-4.347,32.592,32.592,0,0,1-8.035-12.756,17.886,17.886,0,0,0-1.562-2.894,6.081,6.081,0,0,1,5.092,3.7,32.68,32.68,0,0,0,5.278,8.351,16.133,16.133,0,0,0,1.162,1.175,6.27,6.27,0,0,1,1.989,6.79,6.371,6.371,0,0,1-5.461,4.668,14.283,14.283,0,0,1-3.132-.147" transform="translate(-164.01 -98.388)" fill="#b55a72"/><path d="M201.2,86.215a24.507,24.507,0,0,1-1.188,3c-.422.773-1.154.782-1.881.231-1.931-1.462-2.452-5.563-.931-7.453a1.263,1.263,0,0,1,2.079-.151,7.051,7.051,0,0,1,1.921,4.376" transform="translate(-138.318 -57.522)" fill="#a3314f"/><path d="M253.063,84.5c-.094,2.066-.473,3.5-1.562,4.661-.9.954-1.717.864-2.427-.217a6.168,6.168,0,0,1,.976-7.124c.774-.662,1.559-.664,2.046.2a15.417,15.417,0,0,1,.967,2.478" transform="translate(-174.979 -57.507)" fill="#a3314f"/><path d="M285.546,130.647c.2-2.432,1-3.978,2.729-4.918a1.7,1.7,0,0,1,2.762,1.333,4.992,4.992,0,0,1-2,4.842c-.7.577-1.633,1.08-2.412.491a4.87,4.87,0,0,1-1.08-1.748" transform="translate(-201.184 -88.539)" fill="#a3314f"/><path d="M161.694,130.5c-.428.669-.716,1.644-1.322,1.92a2.852,2.852,0,0,1-2.218-.4,5.008,5.008,0,0,1-2.148-5.071,1.688,1.688,0,0,1,2.592-1.266,5.218,5.218,0,0,1,2.826,4.644l.269.172" transform="translate(-109.84 -88.582)" fill="#a3314f"/><path d="M215.11,173.981c-.814,0-1.508.034-2.2-.008a1.662,1.662,0,1,1-.016-3.318c.692-.043,1.389-.008,2.215-.008,0-.827-.026-1.555.007-2.28a1.578,1.578,0,0,1,1.567-1.649,1.615,1.615,0,0,1,1.727,1.616c.048.725.009,1.456.009,2.309.8,0,1.488-.032,2.174.007a1.663,1.663,0,1,1,.023,3.318c-.688.043-1.382.008-2.193.008,0,.793.025,1.484-.006,2.172A1.645,1.645,0,0,1,216.7,177.9a1.6,1.6,0,0,1-1.59-1.744c-.024-.689,0-1.379,0-2.174" transform="translate(-148.761 -117.658)" fill="#050201"/></g></g></g></svg>