<svg id="Grupo_143886" data-name="Grupo 143886" xmlns="http://www.w3.org/2000/svg" xmlns:xlink="http://www.w3.org/1999/xlink" width="302.74" height="220.535" viewBox="0 0 302.74 220.535">
  <defs>
    <clipPath id="clip-path">
      <rect id="Rectángulo_37674" data-name="Rectángulo 37674" width="302.74" height="220.535" fill="none"/>
    </clipPath>
    <clipPath id="clip-path-2">
      <rect id="Rectángulo_37634" data-name="Rectángulo 37634" width="22.318" height="113.54" transform="translate(4.68 35.808)" fill="none"/>
    </clipPath>
    <clipPath id="clip-path-3">
      <rect id="Rectángulo_37638" data-name="Rectángulo 37638" width="22.318" height="113.54" transform="translate(53.161 7.148)" fill="none"/>
    </clipPath>
    <clipPath id="clip-path-4">
      <rect id="Rectángulo_37639" data-name="Rectángulo 37639" width="28.214" height="143.557" transform="translate(23.325 3.089)" fill="none"/>
    </clipPath>
    <clipPath id="clip-path-5">
      <rect id="Rectángulo_37647" data-name="Rectángulo 37647" width="100.417" height="51.962" transform="translate(139.049 37.146)" fill="none"/>
    </clipPath>
    <clipPath id="clip-path-6">
      <rect id="Rectángulo_37656" data-name="Rectángulo 37656" width="20.176" height="47.543" transform="translate(222.828 115.496)" fill="none"/>
    </clipPath>
    <clipPath id="clip-path-7">
      <rect id="Rectángulo_37661" data-name="Rectángulo 37661" width="3.527" height="46.62" transform="translate(186.288 113.456)" fill="none"/>
    </clipPath>
    <clipPath id="clip-path-8">
      <rect id="Rectángulo_37662" data-name="Rectángulo 37662" width="40.837" height="44.58" transform="translate(167.958 115.496)" fill="none"/>
    </clipPath>
    <clipPath id="clip-path-9">
      <rect id="Rectángulo_37672" data-name="Rectángulo 37672" width="107.282" height="68.42" transform="translate(135.616 94.619)" fill="none"/>
    </clipPath>
    <clipPath id="clip-path-10">
      <rect id="Rectángulo_37673" data-name="Rectángulo 37673" width="124.343" height="121.513" transform="translate(51.319 36.782)" fill="none"/>
    </clipPath>
  </defs>
  <g id="Grupo_166783" data-name="Grupo 166783">
    <g id="Grupo_143884" data-name="Grupo 143884">
      <g id="Grupo_143883" data-name="Grupo 143883" clip-path="url(#clip-path)">
        <path id="Trazado_156538" data-name="Trazado 156538" d="M246.083,212.455H54.677a6.7,6.7,0,0,1-6.7-6.7V175.852a6.7,6.7,0,0,1,6.7-6.7H246.083a6.7,6.7,0,0,1,6.7,6.7v29.907a6.7,6.7,0,0,1-6.7,6.7" fill="#fff"/>
        <path id="Trazado_156550" data-name="Trazado 156550" d="M289.867,173.252H5.817A5.816,5.816,0,0,1,0,167.436v-3.912a5.817,5.817,0,0,1,5.817-5.817h284.05a5.816,5.816,0,0,1,5.816,5.817v3.912a5.816,5.816,0,0,1-5.816,5.816" fill="#86a916"/>
        <path id="Trazado_156551" data-name="Trazado 156551" d="M184.325,163.221l7.624.393v-.393Z" fill="#6f7500"/>
        <path id="Trazado_156552" data-name="Trazado 156552" d="M219.324,161.243h35.27v3.067h-35.27l-4.269-1.089Z" fill="#6f7500"/>
        <path id="Trazado_156553" data-name="Trazado 156553" d="M67.162,160.882H26.514l-6.277-3.174H67.263Z" fill="#6f7500"/>
        <path id="Trazado_156554" data-name="Trazado 156554" d="M49.555,149.348H4.679l10.269-34.406H10.741l8.211-29.5H14.69L20.569,64.17h-2.7L27,35.808,36.366,64.17H33.629l5.915,21.272H35.337l8.156,29.5H39.415Z" fill="#6e871a"/>
        <path id="Trazado_156555" data-name="Trazado 156555" d="M14.946,114.936,4.685,149.35H49.553L39.415,114.936Z" fill="#5e5900"/>
        <path id="Trazado_156556" data-name="Trazado 156556" d="M18.951,85.433l-8.213,29.5H43.5l-8.168-29.5Z" fill="#5e6a00"/>
        <path id="Trazado_156557" data-name="Trazado 156557" d="M20.572,64.175H33.622l5.923,21.258H14.692Z" fill="#607b03"/>
        <g id="Grupo_143858" data-name="Grupo 143858" style="mix-blend-mode: multiply;isolation: isolate">
          <g id="Grupo_143857" data-name="Grupo 143857">
            <g id="Grupo_143856" data-name="Grupo 143856" clip-path="url(#clip-path-2)">
              <path id="Trazado_156558" data-name="Trazado 156558" d="M27,35.808v113.54H4.68l10.268-34.406H10.742l8.211-29.5H14.691L20.569,64.17h-2.7Z" fill="#e2dddb"/>
            </g>
          </g>
        </g>
        <rect id="Rectángulo_37635" data-name="Rectángulo 37635" width="12.042" height="9.214" transform="translate(19.211 149.35)" fill="#54100b"/>
        <rect id="Rectángulo_37636" data-name="Rectángulo 37636" width="15.225" height="11.649" transform="translate(41.69 146.646)" fill="#7c3620"/>
        <path id="Trazado_156559" data-name="Trazado 156559" d="M275.78,172.62v4.268a6.338,6.338,0,0,1-6.34,6.34H29.79a6.349,6.349,0,0,1-6.352-6.34v-4.306a6.351,6.351,0,0,1,6.352-6.314H269.44a6.341,6.341,0,0,1,6.34,6.352" fill="#c25b25"/>
        <path id="Trazado_156560" data-name="Trazado 156560" d="M132.182,170.492H110.466a1,1,0,1,1,0-2h21.716a1,1,0,1,1,0,2" fill="#d36825"/>
        <path id="Trazado_156561" data-name="Trazado 156561" d="M81.257,179.476H59.541a1,1,0,1,1,0-1.995H81.257a1,1,0,1,1,0,1.995" fill="#d36825"/>
        <path id="Trazado_156562" data-name="Trazado 156562" d="M209.392,179.229H191.436a1,1,0,0,1,0-2h17.956a1,1,0,1,1,0,2" fill="#d36825"/>
        <path id="Trazado_156563" data-name="Trazado 156563" d="M177.214,171.393H155.5a1,1,0,1,1,0-2h21.716a1,1,0,1,1,0,2" fill="#d36825"/>
        <path id="Trazado_156564" data-name="Trazado 156564" d="M242.183,181H220.467a1,1,0,1,1,0-1.995h21.716a1,1,0,1,1,0,1.995" fill="#d36825"/>
        <path id="Trazado_156565" data-name="Trazado 156565" d="M144.038,174.923h-9.861a1,1,0,0,1,0-2h9.861a1,1,0,1,1,0,2" fill="#d36825"/>
        <path id="Trazado_156566" data-name="Trazado 156566" d="M196.879,174.241h-9.861a1,1,0,0,1,0-1.995h9.861a1,1,0,1,1,0,1.995" fill="#d36825"/>
        <path id="Trazado_156567" data-name="Trazado 156567" d="M41.585,181H31.724a1,1,0,0,1,0-1.995h9.861a1,1,0,1,1,0,1.995" fill="#d36825"/>
        <path id="Trazado_156568" data-name="Trazado 156568" d="M121.81,176.236h-9.861a1,1,0,0,1,0-1.995h9.861a1,1,0,1,1,0,1.995" fill="#d36825"/>
        <path id="Trazado_156569" data-name="Trazado 156569" d="M269.232,181h-9.861a1,1,0,0,1,0-1.995h9.861a1,1,0,1,1,0,1.995" fill="#d36825"/>
        <path id="Trazado_156570" data-name="Trazado 156570" d="M181.706,180.473H167.113a1,1,0,0,1,0-2h14.593a1,1,0,1,1,0,2" fill="#d36825"/>
        <path id="Trazado_156571" data-name="Trazado 156571" d="M136.7,180.473H122.105a1,1,0,1,1,0-2H136.7a1,1,0,1,1,0,2" fill="#d36825"/>
        <path id="Trazado_156572" data-name="Trazado 156572" d="M102.977,172.052H88.384a1,1,0,1,1,0-1.995h14.593a1,1,0,1,1,0,1.995" fill="#d36825"/>
        <path id="Trazado_156573" data-name="Trazado 156573" d="M260.154,174.241H245.561a1,1,0,1,1,0-1.995h14.593a1,1,0,0,1,0,1.995" fill="#d36825"/>
        <path id="Trazado_156574" data-name="Trazado 156574" d="M232.093,176.236h-5.624a1,1,0,0,1,0-1.995h5.624a1,1,0,1,1,0,1.995" fill="#d36825"/>
        <path id="Trazado_156575" data-name="Trazado 156575" d="M166.561,176.236h-5.624a1,1,0,0,1,0-1.995h5.624a1,1,0,1,1,0,1.995" fill="#d36825"/>
        <path id="Trazado_156576" data-name="Trazado 156576" d="M98.976,180.473H93.352a1,1,0,0,1,0-2h5.624a1,1,0,1,1,0,2" fill="#d36825"/>
        <path id="Trazado_156577" data-name="Trazado 156577" d="M152.421,179.229H146.8a1,1,0,0,1,0-2h5.624a1,1,0,1,1,0,2" fill="#d36825"/>
        <path id="Trazado_156578" data-name="Trazado 156578" d="M275.785,168.485h-90.8l-1.234,1.342h92.035Z" fill="#9f6532"/>
        <rect id="Rectángulo_37637" data-name="Rectángulo 37637" width="68.468" height="1.343" transform="translate(23.438 172.582)" fill="#9f6532"/>
        <path id="Trazado_156579" data-name="Trazado 156579" d="M20.774,190.358H2.669A2.669,2.669,0,0,1,0,187.69V185.9a2.669,2.669,0,0,1,2.669-2.668H20.774a2.668,2.668,0,0,1,2.668,2.668v1.795a2.668,2.668,0,0,1-2.668,2.668" fill="#91c02c"/>
        <path id="Trazado_156580" data-name="Trazado 156580" d="M300.072,183.227H286.631a2.669,2.669,0,0,1-2.669-2.668v-1.795a2.669,2.669,0,0,1,2.669-2.668h13.441a2.668,2.668,0,0,1,2.668,2.668v1.795a2.668,2.668,0,0,1-2.668,2.668" fill="#7b9700"/>
        <path id="Trazado_156581" data-name="Trazado 156581" d="M187.694,194.366H146.977a2.834,2.834,0,0,1-2.834-2.834v-1.906a2.834,2.834,0,0,1,2.834-2.834h40.717a2.834,2.834,0,0,1,2.834,2.834v1.906a2.834,2.834,0,0,1-2.834,2.834" fill="#ace543"/>
        <path id="Trazado_156582" data-name="Trazado 156582" d="M87.893,86.281h4.085l-8.168-29.5h4.215L82.1,35.519h2.747L75.48,7.148,66.347,35.519h2.7L63.17,56.777h4.259l-8.213,29.5h4.209L53.164,120.7H67.69v9.214H79.732V120.7h18.3Z" fill="#6e871a"/>
        <path id="Trazado_156583" data-name="Trazado 156583" d="M69.05,35.52H82.1l5.923,21.258H63.17Z" fill="#5e7900"/>
        <g id="Grupo_143861" data-name="Grupo 143861" style="mix-blend-mode: multiply;isolation: isolate">
          <g id="Grupo_143860" data-name="Grupo 143860">
            <g id="Grupo_143859" data-name="Grupo 143859" clip-path="url(#clip-path-3)">
              <path id="Trazado_156584" data-name="Trazado 156584" d="M75.479,7.148v113.54H53.161L63.429,86.282H59.223l8.211-29.5H63.172L69.05,35.51h-2.7Z" fill="#e2dddb"/>
            </g>
          </g>
        </g>
        <path id="Trazado_156585" data-name="Trazado 156585" d="M80.051,146.646,67.233,103.137H72.4l-10.327-37.3H67.4L59.911,38.959h3.472L51.539,3.089,39.993,38.959h3.418L35.976,65.835h5.385l-10.384,37.3H36.3L23.325,146.646Z" fill="#65af37"/>
        <path id="Trazado_156586" data-name="Trazado 156586" d="M36.3,103.137,23.325,146.646H80.05L67.233,103.137Z" fill="#3b7700"/>
        <path id="Trazado_156587" data-name="Trazado 156587" d="M41.361,65.836l-10.384,37.3H72.4l-10.327-37.3Z" fill="#3b8b00"/>
        <path id="Trazado_156588" data-name="Trazado 156588" d="M43.41,38.959,35.976,65.836H67.4L59.911,38.959Z" fill="#4aa114"/>
        <g id="Grupo_143864" data-name="Grupo 143864" style="mix-blend-mode: multiply;isolation: isolate">
          <g id="Grupo_143863" data-name="Grupo 143863">
            <g id="Grupo_143862" data-name="Grupo 143862" clip-path="url(#clip-path-4)">
              <path id="Trazado_156589" data-name="Trazado 156589" d="M51.539,3.089V146.646H23.325l12.981-43.5H30.988l10.38-37.3H35.98l7.431-26.9H40Z" fill="#e2dddb"/>
            </g>
          </g>
        </g>
        <rect id="Rectángulo_37640" data-name="Rectángulo 37640" width="102.174" height="67.873" transform="translate(51.687 90.422)" fill="#ea463a"/>
        <rect id="Rectángulo_37641" data-name="Rectángulo 37641" width="6.923" height="63.607" transform="translate(53.753 94.619)" fill="#d4291e"/>
        <rect id="Rectángulo_37642" data-name="Rectángulo 37642" width="6.923" height="63.607" transform="translate(68.316 94.619)" fill="#d4291e"/>
        <rect id="Rectángulo_37643" data-name="Rectángulo 37643" width="6.923" height="63.607" transform="translate(82.879 94.619)" fill="#d4291e"/>
        <rect id="Rectángulo_37644" data-name="Rectángulo 37644" width="6.923" height="63.607" transform="translate(97.442 94.619)" fill="#d4291e"/>
        <rect id="Rectángulo_37645" data-name="Rectángulo 37645" width="6.923" height="63.607" transform="translate(112.004 94.619)" fill="#d4291e"/>
        <rect id="Rectángulo_37646" data-name="Rectángulo 37646" width="6.923" height="63.607" transform="translate(126.567 94.619)" fill="#d4291e"/>
        <path id="Trazado_156590" data-name="Trazado 156590" d="M185.615,36.782l-31.76,57.844H45.238L56.425,57.392,61.789,50.1l4.9-6.65,4.9-6.668Z" fill="#6a463a"/>
        <path id="Trazado_156591" data-name="Trazado 156591" d="M84.873,36.782,80.3,43.441H70.953l4.9-6.659Z" fill="#7e6056"/>
        <path id="Trazado_156592" data-name="Trazado 156592" d="M102.768,36.782,98.2,43.441H88.848l4.9-6.659Z" fill="#7e6056"/>
        <path id="Trazado_156593" data-name="Trazado 156593" d="M88.848,43.441,84.275,50.1H74.928l4.9-6.659Z" fill="#7d5648"/>
        <path id="Trazado_156594" data-name="Trazado 156594" d="M74.928,50.1,69.9,57.37H60.555L65.91,50.1Z" fill="#734f42"/>
        <path id="Trazado_156595" data-name="Trazado 156595" d="M93.293,50.1l-5.026,7.27H78.92l5.355-7.27Z" fill="#734f42"/>
        <path id="Trazado_156596" data-name="Trazado 156596" d="M111.658,50.1l-5.026,7.27H97.285l5.355-7.27Z" fill="#734f42"/>
        <path id="Trazado_156597" data-name="Trazado 156597" d="M130.023,50.1,125,57.37H115.65L121,50.1Z" fill="#734f42"/>
        <path id="Trazado_156598" data-name="Trazado 156598" d="M148.388,50.1l-5.026,7.27h-9.347l5.355-7.27Z" fill="#734f42"/>
        <path id="Trazado_156599" data-name="Trazado 156599" d="M107.213,43.441,102.64,50.1H93.293l4.9-6.659Z" fill="#7d5648"/>
        <path id="Trazado_156600" data-name="Trazado 156600" d="M125.578,43.441,121,50.1h-9.347l4.9-6.659Z" fill="#7d5648"/>
        <path id="Trazado_156601" data-name="Trazado 156601" d="M143.18,43.441,138.43,50.1h-9.346l4.9-6.659Z" fill="#7d5648"/>
        <path id="Trazado_156602" data-name="Trazado 156602" d="M161.545,43.441,156.972,50.1h-9.347l4.9-6.659Z" fill="#7d5648"/>
        <path id="Trazado_156603" data-name="Trazado 156603" d="M70.955,43.45,66.381,50.1H61.789l4.9-6.65Z" fill="#7d5648"/>
        <path id="Trazado_156604" data-name="Trazado 156604" d="M120.663,36.782l-4.574,6.659h-9.346l4.9-6.659Z" fill="#7e6056"/>
        <path id="Trazado_156605" data-name="Trazado 156605" d="M138.559,36.782l-4.573,6.659h-9.347l4.9-6.659Z" fill="#7e6056"/>
        <path id="Trazado_156606" data-name="Trazado 156606" d="M157.1,36.782l-4.574,6.659H143.18l4.9-6.659Z" fill="#7e6056"/>
        <path id="Trazado_156607" data-name="Trazado 156607" d="M175.641,36.782l-4.573,6.659h-9.347l4.9-6.659Z" fill="#7e6056"/>
        <path id="Trazado_156608" data-name="Trazado 156608" d="M148.032,57.392,130.324,94.626H45.238L46.8,89.464l2.388-7.954,2.369-7.9,2.37-7.9,2.5-8.321Z" fill="#5e382c"/>
        <path id="Trazado_156609" data-name="Trazado 156609" d="M78.921,57.37l-1.832,8.466H67.4l2.5-8.466Z" fill="#633f34"/>
        <path id="Trazado_156610" data-name="Trazado 156610" d="M67.4,65.836l-1.848,7.836H56.367l2.005-7.958Z" fill="#633f34"/>
        <path id="Trazado_156611" data-name="Trazado 156611" d="M56.37,73.667,54.519,81.51H49.188l2.369-7.9Z" fill="#633f34"/>
        <path id="Trazado_156612" data-name="Trazado 156612" d="M74.578,73.671,72.73,81.507H63.546l2.005-7.958Z" fill="#633f34"/>
        <path id="Trazado_156613" data-name="Trazado 156613" d="M63.546,81.507,61.7,89.468H52.514l2.005-7.958Z" fill="#633f34"/>
        <path id="Trazado_156614" data-name="Trazado 156614" d="M52.513,89.465l-1.194,5.162h-6.08L46.8,89.465Z" fill="#633f34"/>
        <path id="Trazado_156615" data-name="Trazado 156615" d="M70.716,89.465l-1.194,5.162H60.393l1.3-5.162Z" fill="#633f34"/>
        <path id="Trazado_156616" data-name="Trazado 156616" d="M88.939,89.465l-1.194,5.162H78.6l1.3-5.162Z" fill="#633f34"/>
        <path id="Trazado_156617" data-name="Trazado 156617" d="M107.142,89.465l-1.194,5.162h-9.13l1.305-5.162Z" fill="#633f34"/>
        <path id="Trazado_156618" data-name="Trazado 156618" d="M125.364,89.465l-1.194,5.162h-9.148l1.305-5.162Z" fill="#633f34"/>
        <path id="Trazado_156619" data-name="Trazado 156619" d="M81.757,81.507l-1.848,7.961H70.725L72.73,81.51Z" fill="#633f34"/>
        <path id="Trazado_156620" data-name="Trazado 156620" d="M99.969,81.507l-1.848,7.961H88.937l2.005-7.958Z" fill="#633f34"/>
        <path id="Trazado_156621" data-name="Trazado 156621" d="M118.18,81.507l-1.848,7.961h-9.184l2.005-7.958Z" fill="#633f34"/>
        <path id="Trazado_156622" data-name="Trazado 156622" d="M136.392,81.507l-1.848,7.961H125.36l2.005-7.958Z" fill="#633f34"/>
        <path id="Trazado_156623" data-name="Trazado 156623" d="M92.612,73.671l-1.848,7.836H81.58l2.005-7.958Z" fill="#633f34"/>
        <path id="Trazado_156624" data-name="Trazado 156624" d="M111.053,73.549l-1.882,7.958H99.987l2-7.958Z" fill="#633f34"/>
        <path id="Trazado_156625" data-name="Trazado 156625" d="M129.427,73.671l-1.848,7.836h-9.184l2.005-7.958Z" fill="#633f34"/>
        <path id="Trazado_156626" data-name="Trazado 156626" d="M147.834,73.671l-1.848,7.836H136.8l1.886-7.836Z" fill="#633f34"/>
        <path id="Trazado_156627" data-name="Trazado 156627" d="M86.107,65.836l-2.182,7.836H74.578l2.511-7.836Z" fill="#633f34"/>
        <path id="Trazado_156628" data-name="Trazado 156628" d="M104.328,65.836l-2.369,7.836H92.613l2.7-7.836Z" fill="#633f34"/>
        <path id="Trazado_156629" data-name="Trazado 156629" d="M122.494,65.836,120.4,73.55h-9.346l2.422-7.714Z" fill="#633f34"/>
        <path id="Trazado_156630" data-name="Trazado 156630" d="M140.859,65.836l-2.17,7.836h-9.347l2.5-7.836Z" fill="#633f34"/>
        <path id="Trazado_156631" data-name="Trazado 156631" d="M60.558,57.392l-2.186,8.321H53.927l2.5-8.321Z" fill="#633f34"/>
        <path id="Trazado_156632" data-name="Trazado 156632" d="M97.628,57.37l-2.319,8.466h-9.2l2.5-8.466Z" fill="#633f34"/>
        <path id="Trazado_156633" data-name="Trazado 156633" d="M115.65,57.37,113.475,65.7h-9.346l2.5-8.334Z" fill="#633f34"/>
        <path id="Trazado_156634" data-name="Trazado 156634" d="M134.015,57.37,131.84,65.7h-9.346L125,57.37Z" fill="#633f34"/>
        <path id="Trazado_156635" data-name="Trazado 156635" d="M152.39,57.37,150.2,65.836h-9.346l2.513-8.466Z" fill="#633f34"/>
        <path id="Trazado_156636" data-name="Trazado 156636" d="M225.018,45.9,189.257,31.186,153.5,45.9,130.325,94.619H248.19Z" fill="#ede6bc"/>
        <path id="Trazado_156637" data-name="Trazado 156637" d="M153.5,46.823,189.257,32.1l35.762,14.718,22.734,47.8h.437L225.019,45.9,189.257,31.187,153.5,45.9,130.325,94.619h.437Z" fill="#fcfbf4"/>
        <path id="Trazado_156638" data-name="Trazado 156638" d="M239.473,89.116H139.049l6.87-14.438L154.608,56.4l2.957-6.208,3.95-1.617,8.688-3.582,6.925-2.847,8.67-3.582,3.454-1.414,3.472,1.432,8.67,3.564,6.925,2.847,8.67,3.564,3.968,1.635,2.957,6.208L232.6,74.678Z" fill="#eb564b"/>
        <path id="Trazado_156639" data-name="Trazado 156639" d="M145.919,74.677V89.115h-6.87Z" fill="#db4439"/>
        <path id="Trazado_156640" data-name="Trazado 156640" d="M161.515,48.575V89.116h-6.907V56.4l2.957-6.209Z" fill="#db4439"/>
        <path id="Trazado_156641" data-name="Trazado 156641" d="M177.129,42.146v46.97H170.2V44.993Z" fill="#db4439"/>
        <path id="Trazado_156642" data-name="Trazado 156642" d="M192.724,38.582V89.116H185.8V38.564l3.453-1.415Z" fill="#db4439"/>
        <path id="Trazado_156643" data-name="Trazado 156643" d="M208.319,44.993V89.116h-6.925V42.146Z" fill="#db4439"/>
        <path id="Trazado_156644" data-name="Trazado 156644" d="M223.915,56.4V89.116H216.99V48.556l3.968,1.635Z" fill="#db4439"/>
        <path id="Trazado_156645" data-name="Trazado 156645" d="M239.473,89.116H232.6V74.678Z" fill="#db4439"/>
        <g id="Grupo_143867" data-name="Grupo 143867" style="mix-blend-mode: multiply;isolation: isolate">
          <g id="Grupo_143866" data-name="Grupo 143866">
            <g id="Grupo_143865" data-name="Grupo 143865" clip-path="url(#clip-path-5)">
              <path id="Trazado_156646" data-name="Trazado 156646" d="M155.8,54.018l31.7-13.046,31.7,13.046,16.691,35.09h3.584L220.956,50.191l-31.7-13.046-31.7,13.046L139.048,89.108h.056Z" fill="#e2bbbe"/>
            </g>
          </g>
        </g>
        <path id="Trazado_156647" data-name="Trazado 156647" d="M163.075,79.658h52.364l-1.177-13.319L207.5,57.4h-36.49l-6.533,8.3Z" fill="#472f21"/>
        <rect id="Rectángulo_37648" data-name="Rectángulo 37648" width="107.282" height="68.42" transform="translate(135.616 94.619)" fill="#eb4b40"/>
        <rect id="Rectángulo_37649" data-name="Rectángulo 37649" width="6.923" height="68.42" transform="translate(139.001 94.619)" fill="#e62e22"/>
        <rect id="Rectángulo_37650" data-name="Rectángulo 37650" width="6.923" height="68.42" transform="translate(154.6 94.619)" fill="#e62e22"/>
        <rect id="Rectángulo_37651" data-name="Rectángulo 37651" width="6.923" height="68.42" transform="translate(170.199 94.619)" fill="#e62e22"/>
        <rect id="Rectángulo_37652" data-name="Rectángulo 37652" width="6.924" height="68.42" transform="translate(185.797 94.619)" fill="#e62e22"/>
        <rect id="Rectángulo_37653" data-name="Rectángulo 37653" width="6.923" height="68.42" transform="translate(201.397 94.619)" fill="#e62e22"/>
        <rect id="Rectángulo_37654" data-name="Rectángulo 37654" width="6.923" height="68.42" transform="translate(216.996 94.619)" fill="#e62e22"/>
        <rect id="Rectángulo_37655" data-name="Rectángulo 37655" width="6.924" height="68.42" transform="translate(232.594 94.619)" fill="#e62e22"/>
        <g id="Grupo_143870" data-name="Grupo 143870" style="mix-blend-mode: multiply;isolation: isolate">
          <g id="Grupo_143869" data-name="Grupo 143869">
            <g id="Grupo_143868" data-name="Grupo 143868" clip-path="url(#clip-path-6)">
              <path id="Trazado_156648" data-name="Trazado 156648" d="M242.9,120.227s-2.318-2.474-2.849-2.232,1.424-2.5,1.424-2.5l-3.261,3.066a34.87,34.87,0,0,0-7.3,6.257c-3.109,3.674-4.869,6.235-4.869,6.235l3.291-1.893s-3.31,2.353-4.363,9.185-2.142,24.693-2.142,24.693h15.46L243,123.288Z" fill="#d09094"/>
            </g>
          </g>
        </g>
        <path id="Trazado_156649" data-name="Trazado 156649" d="M265.5,128.722a24.424,24.424,0,0,0-8.741-9.229h4.136l-6.818-1.456c-.542-.254-1.009-.452-1.391-.6l2.23-3.562-3.268,3.193-.018-.005a25.687,25.687,0,0,0-11.823,7.748l.01-.043-4.668,4.721,2.387-1.108a17.514,17.514,0,0,0-1.494,4.615c-1.449,8.292-2.057,30.62-2.057,30.62h34.985s3.465-21.843-3.47-34.892" fill="#febb0a"/>
        <path id="Trazado_156650" data-name="Trazado 156650" d="M267.726,154.427l.554,9.65,1.894-1.515,1.545,1.749.525-10.4Z" fill="#e4d499"/>
        <path id="Trazado_156651" data-name="Trazado 156651" d="M287.54,156.091l.408,7.811,1.312-1.166,1.428,1.574.32-9.093Z" fill="#e4d499"/>
        <path id="Trazado_156652" data-name="Trazado 156652" d="M286.39,155.916h-8.505a3.309,3.309,0,0,0,1.081,3.03l-.278.182a.3.3,0,1,0,.329.5l.515-.338a3.99,3.99,0,0,0,.724.27l-.3.566a.3.3,0,1,0,.529.282l.386-.726c.16.023.328.041.506.053v.955a.3.3,0,0,0,.6,0v-.929a7.667,7.667,0,0,0,.878-.055l.2.649a.3.3,0,1,0,.574-.176l-.177-.576a4.711,4.711,0,0,0,.868-.276l.459.3a.3.3,0,1,0,.329-.5l-.188-.123a3.484,3.484,0,0,0,1.474-3.089" fill="#deab9f"/>
        <path id="Trazado_156653" data-name="Trazado 156653" d="M292.043,150.479s.389-8.729-4.858-8.534-16.594-.551-18.5,0-2.992,2.3-3.187,6.338-.5,7.734,2.08,8.433,21.27,2.269,23.062-.3a12.375,12.375,0,0,0,1.4-5.935" fill="#e4d499"/>
        <path id="Trazado_156654" data-name="Trazado 156654" d="M295.4,153.545l-.619-.1a16.074,16.074,0,0,0-.7-3.993c-.735-3.055-2.944-2.808-3.034-2.8l-.085-.622c.028,0,2.856-.352,3.729,3.272.808,3.353.717,4.159.7,4.239" fill="#e4d499"/>
        <path id="Trazado_156655" data-name="Trazado 156655" d="M273.157,141.945s.622-5.946-4.547-6.218-12.047-1.127-13.407,3.537-2.565,8.627,2.332,9.249a97.163,97.163,0,0,0,12.435.855c2.332-.078,2.915-2.41,3.187-7.423" fill="#ece1b8"/>
        <path id="Trazado_156656" data-name="Trazado 156656" d="M257.806,142.956s7.112.039,7.733,2.371,1.244,7.189-2.526,6.956-8.182.2-10.1-2.41c-1.143-1.554-.816-6.761,1.594-6.917a16.5,16.5,0,0,1,3.3,0" fill="#deab9f"/>
        <path id="Trazado_156657" data-name="Trazado 156657" d="M269,141.4c-.2-.769-.523-1.229-.975-1.368-.853-.261-1.9.66-1.915.669l-.209-.234c.049-.043,1.2-1.047,2.216-.735a1.987,1.987,0,0,1,1.187,1.591Z" fill="#815c42"/>
        <path id="Trazado_156658" data-name="Trazado 156658" d="M258.389,140.619l-.31-.045c.007-.052.193-1.273,1.078-1.622.62-.243,1.4.011,2.323.756l-.2.244c-.828-.669-1.506-.9-2.011-.708-.714.28-.881,1.364-.883,1.375" fill="#815c42"/>
        <path id="Trazado_156659" data-name="Trazado 156659" d="M255.451,145.73c-.113.5.075.973.421,1.051s.717-.267.83-.77-.075-.973-.421-1.05-.717.266-.83.769" fill="#c8725e"/>
        <path id="Trazado_156660" data-name="Trazado 156660" d="M259.182,146.205c-.113.5.075.973.421,1.051s.717-.267.83-.77-.075-.973-.421-1.05-.717.266-.83.769" fill="#c8725e"/>
        <path id="Trazado_156661" data-name="Trazado 156661" d="M260.068,151.736a18.149,18.149,0,0,1-2.2-.153c-3.1-.383-3.954-1.492-3.989-1.539l.253-.187c.007.01.829,1.051,3.774,1.414,2.549.315,4.227.13,4.993-.547a1.684,1.684,0,0,0,.539-1.345h.313a1.983,1.983,0,0,1-.644,1.58,4.582,4.582,0,0,1-3.036.777" fill="#c8725e"/>
        <path id="Trazado_156662" data-name="Trazado 156662" d="M256.735,151.233a25.275,25.275,0,0,0-7.479,1.749l-3.73,1.555,3.342-1.157s2.943-.889,3.279-1.089,5.061-.964,5.061-.964Z" fill="#ffe85c"/>
        <path id="Trazado_156663" data-name="Trazado 156663" d="M260.874,135.872a3.791,3.791,0,0,0-2.33-1.932c-1.748-.544-4.231-1.555-3.126-3.5l1.106-1.943A7.01,7.01,0,0,0,254,132.327c-.315,2.157.307,2.8,1.744,3.16a4.921,4.921,0,0,1,2.017.886,8.158,8.158,0,0,0,3.111-.5" fill="#cdc96e"/>
        <path id="Trazado_156664" data-name="Trazado 156664" d="M272.846,129.16s1.244,5.246-2.759,4.726c-2.481-.323-3.625.505-3.944,1.148a1.682,1.682,0,0,0-.267.906,13.417,13.417,0,0,0,2.472.546c.544.062,1.342-.6,1.342-.6s2.746.362,3.731-.7c1.821-1.962-.575-6.023-.575-6.023" fill="#cdc96e"/>
        <path id="Trazado_156665" data-name="Trazado 156665" d="M246.619,154.081a2.256,2.256,0,0,1-1.676,0l-.777-.38s1.933-.464,2.453.38" fill="#ffe85c"/>
        <path id="Trazado_156666" data-name="Trazado 156666" d="M247.215,153.833a1.5,1.5,0,0,0-.6.9,1.786,1.786,0,0,0,0,1.185s.866-1.193.6-2.083" fill="#ffe85c"/>
        <path id="Trazado_156667" data-name="Trazado 156667" d="M245.789,154.427s.222.142-.264.745a2.458,2.458,0,0,1-1.36.744s.586-1.317,1.624-1.489" fill="#ffe85c"/>
        <path id="Trazado_156668" data-name="Trazado 156668" d="M252.782,151.854a6.743,6.743,0,0,1-3.263.616,12.974,12.974,0,0,1-2.625-1.238,9.411,9.411,0,0,0,2.159.826,11.4,11.4,0,0,0,3.729-.2" fill="#ffe85c"/>
        <path id="Trazado_156669" data-name="Trazado 156669" d="M269.834,136.893s2.778-1.154,5.309,4.026c.873,1.789-.335,2.041-.8,2.313a.856.856,0,0,1-.874,0s-1.225-1.266-3.634-6.339" fill="#f3eed1"/>
        <path id="Trazado_156670" data-name="Trazado 156670" d="M259.594,157.121s-.233-2.767,1.593-3.288a2.712,2.712,0,0,1,3.556,2.763l-.194,1.963-3.711.552-1.079-.3Z" fill="#febb0a"/>
        <path id="Trazado_156671" data-name="Trazado 156671" d="M265.617,159.111s.155-.9-2.235-1.174-4.2.425-4.586,1.174,5.072,1.757,6.821,0" fill="#fe9500"/>
        <path id="Trazado_156672" data-name="Trazado 156672" d="M264.755,159.3s.116-.469-1.671-.61-3.139.22-3.429.61,3.792.914,5.1,0" fill="#cc6000"/>
        <path id="Trazado_156673" data-name="Trazado 156673" d="M262.1,159.3a2.162,2.162,0,0,0-.707,1.512c-.025.954.915.979,1,.776s.371-2.25-.3-2.288" fill="#ede6bc"/>
        <path id="Trazado_156674" data-name="Trazado 156674" d="M261.1,154.007s-.015-.036-.034-.1c-.082-.253-.246-.933.33-1.027a.759.759,0,0,1,.807,1.027c-.141.4-1.1.1-1.1.1" fill="#ede6bc"/>
        <path id="Trazado_156675" data-name="Trazado 156675" d="M263.606,154.821c-.227-.343-1.324-.94-.923.372.228.749.529,1.284,1.172.96.28-.141.212-.636-.249-1.332" fill="#ffe85c"/>
        <path id="Trazado_156676" data-name="Trazado 156676" d="M261.914,153.72a12.763,12.763,0,0,0,6.968-4.341c2.526-3.431,1.982-3.955,1.982-3.955l-2.837,3.477s-3.894,3.615-6.067,4.12-4.752-3.926-4.752-3.926,1.217,4.78,4.706,4.625" fill="#ec4f36"/>
        <path id="Trazado_156677" data-name="Trazado 156677" d="M277.811,149.892s-4.255-.454-5.13,0a2.982,2.982,0,0,0-1.69,2.281c.058.8-.758,2.677,1.69,3.019s3.44-.668,5.13-.338,3.789.428,3.876,0,.962-3.548-.845-4.057-3.031-.9-3.031-.9" fill="#815c42"/>
        <path id="Trazado_156678" data-name="Trazado 156678" d="M283.027,142.886a2.342,2.342,0,0,0-1.837,2.063,3.566,3.566,0,0,0,1.371,3.388c.466.234,4.751-.932,5.61,0s3.7-.937,3.56-1.546-.661-3.209-1.825-3.9-6.879,0-6.879,0" fill="#815c42"/>
        <rect id="Rectángulo_37657" data-name="Rectángulo 37657" width="48.897" height="52.546" transform="translate(164.809 110.493)" fill="#ede6bc"/>
        <rect id="Rectángulo_37658" data-name="Rectángulo 37658" width="48.897" height="0.645" transform="translate(164.809 110.493)" fill="#f1eccc"/>
        <rect id="Rectángulo_37659" data-name="Rectángulo 37659" width="42.603" height="46.62" transform="translate(167.957 113.456)" fill="#ea463a"/>
        <g id="Grupo_143873" data-name="Grupo 143873" style="mix-blend-mode: multiply;isolation: isolate">
          <g id="Grupo_143872" data-name="Grupo 143872">
            <g id="Grupo_143871" data-name="Grupo 143871" clip-path="url(#clip-path-7)">
              <rect id="Rectángulo_37660" data-name="Rectángulo 37660" width="3.527" height="46.62" transform="translate(186.288 113.456)" fill="#e2bbbe"/>
            </g>
          </g>
        </g>
        <g id="Grupo_143876" data-name="Grupo 143876" style="mix-blend-mode: multiply;isolation: isolate">
          <g id="Grupo_143875" data-name="Grupo 143875">
            <g id="Grupo_143874" data-name="Grupo 143874" clip-path="url(#clip-path-8)">
              <path id="Trazado_156679" data-name="Trazado 156679" d="M208.795,156.4v3.681h-3.809l-37.028-36.941V115.5Z" fill="#e2bbbe"/>
            </g>
          </g>
        </g>
        <rect id="Rectángulo_37663" data-name="Rectángulo 37663" width="34.058" height="6.933" transform="translate(63.973 107.026)" fill="#6a463a"/>
        <rect id="Rectángulo_37664" data-name="Rectángulo 37664" width="25.057" height="6.933" transform="translate(110.559 107.026)" fill="#6a463a"/>
        <path id="Trazado_156680" data-name="Trazado 156680" d="M124.723,163.221l-43.745-3.242h43.745Z" fill="#6f7500"/>
        <path id="Trazado_156681" data-name="Trazado 156681" d="M210.56,155.511v4.565h-2.923l-39.68-39.68v-6.941h.548Z" fill="#ede6bc"/>
        <path id="Trazado_156682" data-name="Trazado 156682" d="M210.56,113.456v6.937l-39.683,39.683h-2.92v-4.568l42.052-42.052Z" fill="#ede6bc"/>
        <rect id="Rectángulo_37665" data-name="Rectángulo 37665" width="3.527" height="46.62" transform="translate(187.494 113.456)" fill="#ede6bc"/>
        <path id="Trazado_156683" data-name="Trazado 156683" d="M34.613,159.932l-3.346-9.05-3.346,9.05V173.9h6.692Z" fill="#ede6bc"/>
        <path id="Trazado_156684" data-name="Trazado 156684" d="M91.9,159.932l-3.346-9.05-3.346,9.05V173.9H91.9Z" fill="#ede6bc"/>
        <path id="Trazado_156685" data-name="Trazado 156685" d="M88.556,150.882l2.352,9.18V173.9H91.9V159.932Z" fill="#f3eed1"/>
        <rect id="Rectángulo_37666" data-name="Rectángulo 37666" width="50.598" height="1.995" transform="translate(34.613 168.708)" fill="#d7c769"/>
        <rect id="Rectángulo_37667" data-name="Rectángulo 37667" width="50.598" height="1.995" transform="translate(34.613 159.953)" fill="#d7c769"/>
        <path id="Trazado_156686" data-name="Trazado 156686" d="M46.071,159.932l-3.346-9.05-3.346,9.05V173.9h6.692Z" fill="#ede6bc"/>
        <path id="Trazado_156687" data-name="Trazado 156687" d="M57.529,159.932l-3.346-9.05-3.346,9.05V173.9h6.692Z" fill="#ede6bc"/>
        <path id="Trazado_156688" data-name="Trazado 156688" d="M68.987,159.932l-3.346-9.05-3.346,9.05V173.9h6.692Z" fill="#ede6bc"/>
        <path id="Trazado_156689" data-name="Trazado 156689" d="M80.445,159.932l-3.346-9.05-3.346,9.05V173.9h6.692Z" fill="#ede6bc"/>
        <path id="Trazado_156690" data-name="Trazado 156690" d="M193.242,160.488l-2.484-6.718-2.483,6.718v9.34h4.967Z" fill="#ede6bc"/>
        <path id="Trazado_156691" data-name="Trazado 156691" d="M235.768,160.488l-2.484-6.718-2.483,6.718v9.34h4.967Z" fill="#ede6bc"/>
        <rect id="Rectángulo_37668" data-name="Rectángulo 37668" width="37.559" height="1.481" transform="translate(193.242 165.971)" fill="#d7c769"/>
        <rect id="Rectángulo_37669" data-name="Rectángulo 37669" width="37.559" height="1.481" transform="translate(193.242 160.503)" fill="#d7c769"/>
        <path id="Trazado_156692" data-name="Trazado 156692" d="M235.768,160.488l-2.484-6.718-2.483,6.718v9.34h4.967Z" fill="#ede6bc"/>
        <path id="Trazado_156693" data-name="Trazado 156693" d="M278.295,160.488l-2.484-6.718-2.483,6.718v9.34h4.967Z" fill="#ede6bc"/>
        <rect id="Rectángulo_37670" data-name="Rectángulo 37670" width="37.559" height="1.481" transform="translate(235.768 165.971)" fill="#d7c769"/>
        <rect id="Rectángulo_37671" data-name="Rectángulo 37671" width="37.559" height="1.481" transform="translate(235.768 160.503)" fill="#d7c769"/>
        <path id="Trazado_156694" data-name="Trazado 156694" d="M201.747,160.488l-2.484-6.718-2.483,6.718v9.34h4.967Z" fill="#ede6bc"/>
        <path id="Trazado_156695" data-name="Trazado 156695" d="M210.253,160.488l-2.484-6.718-2.483,6.718v9.34h4.967Z" fill="#ede6bc"/>
        <path id="Trazado_156696" data-name="Trazado 156696" d="M218.758,160.488l-2.484-6.718-2.483,6.718v9.34h4.967Z" fill="#ede6bc"/>
        <path id="Trazado_156697" data-name="Trazado 156697" d="M227.263,160.488l-2.484-6.718-2.483,6.718v9.34h4.967Z" fill="#ede6bc"/>
        <path id="Trazado_156698" data-name="Trazado 156698" d="M244.274,160.488l-2.484-6.718-2.483,6.718v9.34h4.967Z" fill="#ede6bc"/>
        <path id="Trazado_156699" data-name="Trazado 156699" d="M252.779,160.488l-2.484-6.718-2.483,6.718v9.34h4.967Z" fill="#ede6bc"/>
        <path id="Trazado_156700" data-name="Trazado 156700" d="M261.284,160.488,258.8,153.77l-2.483,6.718v9.34h4.967Z" fill="#ede6bc"/>
        <path id="Trazado_156701" data-name="Trazado 156701" d="M269.789,160.488l-2.484-6.718-2.483,6.718v9.34h4.967Z" fill="#ede6bc"/>
        <g id="Grupo_143879" data-name="Grupo 143879" style="mix-blend-mode: multiply;isolation: isolate">
          <g id="Grupo_143878" data-name="Grupo 143878">
            <g id="Grupo_143877" data-name="Grupo 143877" clip-path="url(#clip-path-9)">
              <path id="Trazado_156702" data-name="Trazado 156702" d="M135.616,94.619v68.42h33.828L242.9,94.619Z" fill="#d09094"/>
            </g>
          </g>
        </g>
        <path id="Trazado_156703" data-name="Trazado 156703" d="M87.387,160.882a.352.352,0,1,1-.352-.352.353.353,0,0,1,.352.352" fill="#bab89e"/>
        <path id="Trazado_156704" data-name="Trazado 156704" d="M90.039,160.882a.352.352,0,1,1-.352-.352.353.353,0,0,1,.352.352" fill="#bab89e"/>
        <path id="Trazado_156705" data-name="Trazado 156705" d="M87.387,169.705a.352.352,0,1,1-.352-.352.353.353,0,0,1,.352.352" fill="#bab89e"/>
        <path id="Trazado_156706" data-name="Trazado 156706" d="M90.039,169.705a.352.352,0,1,1-.352-.352.353.353,0,0,1,.352.352" fill="#bab89e"/>
        <path id="Trazado_156707" data-name="Trazado 156707" d="M190.091,160.9a.242.242,0,1,1-.241-.241.241.241,0,0,1,.241.241" fill="#bab89e"/>
        <path id="Trazado_156708" data-name="Trazado 156708" d="M191.909,160.9a.242.242,0,1,1-.241-.241.241.241,0,0,1,.241.241" fill="#bab89e"/>
        <path id="Trazado_156709" data-name="Trazado 156709" d="M190.091,166.95a.242.242,0,1,1-.241-.241.241.241,0,0,1,.241.241" fill="#bab89e"/>
        <path id="Trazado_156710" data-name="Trazado 156710" d="M191.909,166.95a.242.242,0,1,1-.241-.241.241.241,0,0,1,.241.241" fill="#bab89e"/>
        <path id="Trazado_156711" data-name="Trazado 156711" d="M198.6,160.9a.241.241,0,1,1-.241-.241.241.241,0,0,1,.241.241" fill="#bab89e"/>
        <path id="Trazado_156712" data-name="Trazado 156712" d="M200.414,160.9a.242.242,0,1,1-.241-.241.241.241,0,0,1,.241.241" fill="#bab89e"/>
        <path id="Trazado_156713" data-name="Trazado 156713" d="M198.6,166.95a.241.241,0,1,1-.241-.241.241.241,0,0,1,.241.241" fill="#bab89e"/>
        <path id="Trazado_156714" data-name="Trazado 156714" d="M200.414,166.95a.242.242,0,1,1-.241-.241.241.241,0,0,1,.241.241" fill="#bab89e"/>
        <path id="Trazado_156715" data-name="Trazado 156715" d="M207.1,160.9a.242.242,0,1,1-.241-.241.241.241,0,0,1,.241.241" fill="#bab89e"/>
        <path id="Trazado_156716" data-name="Trazado 156716" d="M208.919,160.9a.242.242,0,1,1-.241-.241.241.241,0,0,1,.241.241" fill="#bab89e"/>
        <path id="Trazado_156717" data-name="Trazado 156717" d="M207.1,166.95a.242.242,0,1,1-.241-.241.241.241,0,0,1,.241.241" fill="#bab89e"/>
        <path id="Trazado_156718" data-name="Trazado 156718" d="M208.919,166.95a.242.242,0,1,1-.241-.241.241.241,0,0,1,.241.241" fill="#bab89e"/>
        <path id="Trazado_156719" data-name="Trazado 156719" d="M215.782,160.9a.242.242,0,1,1-.241-.241.241.241,0,0,1,.241.241" fill="#bab89e"/>
        <path id="Trazado_156720" data-name="Trazado 156720" d="M217.6,160.9a.242.242,0,1,1-.241-.241.241.241,0,0,1,.241.241" fill="#bab89e"/>
        <path id="Trazado_156721" data-name="Trazado 156721" d="M215.782,166.95a.242.242,0,1,1-.241-.241.241.241,0,0,1,.241.241" fill="#bab89e"/>
        <path id="Trazado_156722" data-name="Trazado 156722" d="M217.6,166.95a.242.242,0,1,1-.241-.241.241.241,0,0,1,.241.241" fill="#bab89e"/>
        <path id="Trazado_156723" data-name="Trazado 156723" d="M224.112,160.9a.242.242,0,1,1-.241-.241.241.241,0,0,1,.241.241" fill="#bab89e"/>
        <path id="Trazado_156724" data-name="Trazado 156724" d="M225.93,160.9a.241.241,0,1,1-.241-.241.241.241,0,0,1,.241.241" fill="#bab89e"/>
        <path id="Trazado_156725" data-name="Trazado 156725" d="M224.112,166.95a.242.242,0,1,1-.241-.241.241.241,0,0,1,.241.241" fill="#bab89e"/>
        <path id="Trazado_156726" data-name="Trazado 156726" d="M225.93,166.95a.241.241,0,1,1-.241-.241.241.241,0,0,1,.241.241" fill="#bab89e"/>
        <path id="Trazado_156727" data-name="Trazado 156727" d="M232.617,160.9a.242.242,0,1,1-.241-.241.241.241,0,0,1,.241.241" fill="#bab89e"/>
        <path id="Trazado_156728" data-name="Trazado 156728" d="M234.435,160.9a.242.242,0,1,1-.241-.241.241.241,0,0,1,.241.241" fill="#bab89e"/>
        <path id="Trazado_156729" data-name="Trazado 156729" d="M232.617,166.95a.242.242,0,1,1-.241-.241.241.241,0,0,1,.241.241" fill="#bab89e"/>
        <path id="Trazado_156730" data-name="Trazado 156730" d="M234.435,166.95a.242.242,0,1,1-.241-.241.241.241,0,0,1,.241.241" fill="#bab89e"/>
        <path id="Trazado_156731" data-name="Trazado 156731" d="M241.122,160.9a.241.241,0,1,1-.241-.241.241.241,0,0,1,.241.241" fill="#bab89e"/>
        <path id="Trazado_156732" data-name="Trazado 156732" d="M242.94,160.9a.242.242,0,1,1-.241-.241.241.241,0,0,1,.241.241" fill="#bab89e"/>
        <path id="Trazado_156733" data-name="Trazado 156733" d="M241.122,166.95a.241.241,0,1,1-.241-.241.241.241,0,0,1,.241.241" fill="#bab89e"/>
        <path id="Trazado_156734" data-name="Trazado 156734" d="M242.94,166.95a.242.242,0,1,1-.241-.241.241.241,0,0,1,.241.241" fill="#bab89e"/>
        <path id="Trazado_156735" data-name="Trazado 156735" d="M249.628,160.9a.242.242,0,1,1-.242-.241.241.241,0,0,1,.242.241" fill="#bab89e"/>
        <path id="Trazado_156736" data-name="Trazado 156736" d="M251.445,160.9a.242.242,0,1,1-.241-.241.241.241,0,0,1,.241.241" fill="#bab89e"/>
        <path id="Trazado_156737" data-name="Trazado 156737" d="M249.628,166.95a.242.242,0,1,1-.242-.241.241.241,0,0,1,.242.241" fill="#bab89e"/>
        <path id="Trazado_156738" data-name="Trazado 156738" d="M251.445,166.95a.242.242,0,1,1-.241-.241.241.241,0,0,1,.241.241" fill="#bab89e"/>
        <path id="Trazado_156739" data-name="Trazado 156739" d="M258.133,160.9a.242.242,0,1,1-.241-.241.241.241,0,0,1,.241.241" fill="#bab89e"/>
        <path id="Trazado_156740" data-name="Trazado 156740" d="M259.951,160.9a.242.242,0,1,1-.241-.241.241.241,0,0,1,.241.241" fill="#bab89e"/>
        <path id="Trazado_156741" data-name="Trazado 156741" d="M258.133,166.95a.242.242,0,1,1-.241-.241.241.241,0,0,1,.241.241" fill="#bab89e"/>
        <path id="Trazado_156742" data-name="Trazado 156742" d="M259.951,166.95a.242.242,0,1,1-.241-.241.241.241,0,0,1,.241.241" fill="#bab89e"/>
        <path id="Trazado_156743" data-name="Trazado 156743" d="M266.638,160.9a.242.242,0,1,1-.241-.241.241.241,0,0,1,.241.241" fill="#bab89e"/>
        <path id="Trazado_156744" data-name="Trazado 156744" d="M268.456,160.9a.242.242,0,1,1-.241-.241.241.241,0,0,1,.241.241" fill="#bab89e"/>
        <path id="Trazado_156745" data-name="Trazado 156745" d="M266.638,166.95a.242.242,0,1,1-.241-.241.241.241,0,0,1,.241.241" fill="#bab89e"/>
        <path id="Trazado_156746" data-name="Trazado 156746" d="M268.456,166.95a.242.242,0,1,1-.241-.241.241.241,0,0,1,.241.241" fill="#bab89e"/>
        <path id="Trazado_156747" data-name="Trazado 156747" d="M275.143,160.9a.242.242,0,1,1-.241-.241.241.241,0,0,1,.241.241" fill="#bab89e"/>
        <path id="Trazado_156748" data-name="Trazado 156748" d="M276.961,160.9a.242.242,0,1,1-.241-.241.241.241,0,0,1,.241.241" fill="#bab89e"/>
        <path id="Trazado_156749" data-name="Trazado 156749" d="M275.143,166.95a.242.242,0,1,1-.241-.241.241.241,0,0,1,.241.241" fill="#bab89e"/>
        <path id="Trazado_156750" data-name="Trazado 156750" d="M276.961,166.95a.242.242,0,1,1-.241-.241.241.241,0,0,1,.241.241" fill="#bab89e"/>
        <path id="Trazado_156751" data-name="Trazado 156751" d="M76.124,160.882a.352.352,0,1,1-.352-.352.353.353,0,0,1,.352.352" fill="#bab89e"/>
        <path id="Trazado_156752" data-name="Trazado 156752" d="M78.777,160.882a.352.352,0,1,1-.352-.352.353.353,0,0,1,.352.352" fill="#bab89e"/>
        <path id="Trazado_156753" data-name="Trazado 156753" d="M76.124,169.705a.352.352,0,1,1-.352-.352.353.353,0,0,1,.352.352" fill="#bab89e"/>
        <path id="Trazado_156754" data-name="Trazado 156754" d="M78.777,169.705a.352.352,0,1,1-.352-.352.353.353,0,0,1,.352.352" fill="#bab89e"/>
        <path id="Trazado_156755" data-name="Trazado 156755" d="M64.862,160.882a.352.352,0,1,1-.352-.352.353.353,0,0,1,.352.352" fill="#bab89e"/>
        <path id="Trazado_156756" data-name="Trazado 156756" d="M67.515,160.882a.352.352,0,1,1-.352-.352.353.353,0,0,1,.352.352" fill="#bab89e"/>
        <path id="Trazado_156757" data-name="Trazado 156757" d="M64.862,169.705a.352.352,0,1,1-.352-.352.353.353,0,0,1,.352.352" fill="#bab89e"/>
        <path id="Trazado_156758" data-name="Trazado 156758" d="M67.515,169.705a.352.352,0,1,1-.352-.352.353.353,0,0,1,.352.352" fill="#bab89e"/>
        <path id="Trazado_156759" data-name="Trazado 156759" d="M53.248,160.882a.352.352,0,1,1-.352-.352.353.353,0,0,1,.352.352" fill="#bab89e"/>
        <path id="Trazado_156760" data-name="Trazado 156760" d="M55.9,160.882a.352.352,0,1,1-.352-.352.353.353,0,0,1,.352.352" fill="#bab89e"/>
        <path id="Trazado_156761" data-name="Trazado 156761" d="M53.248,169.705a.352.352,0,1,1-.352-.352.353.353,0,0,1,.352.352" fill="#bab89e"/>
        <path id="Trazado_156762" data-name="Trazado 156762" d="M55.9,169.705a.352.352,0,1,1-.352-.352.353.353,0,0,1,.352.352" fill="#bab89e"/>
        <path id="Trazado_156763" data-name="Trazado 156763" d="M41.751,160.882a.352.352,0,1,1-.352-.352.353.353,0,0,1,.352.352" fill="#bab89e"/>
        <path id="Trazado_156764" data-name="Trazado 156764" d="M44.4,160.882a.352.352,0,1,1-.352-.352.353.353,0,0,1,.352.352" fill="#bab89e"/>
        <path id="Trazado_156765" data-name="Trazado 156765" d="M41.751,169.705a.352.352,0,1,1-.352-.352.353.353,0,0,1,.352.352" fill="#bab89e"/>
        <path id="Trazado_156766" data-name="Trazado 156766" d="M44.4,169.705a.352.352,0,1,1-.352-.352.353.353,0,0,1,.352.352" fill="#bab89e"/>
        <path id="Trazado_156767" data-name="Trazado 156767" d="M30.293,160.882a.352.352,0,1,1-.352-.352.353.353,0,0,1,.352.352" fill="#bab89e"/>
        <path id="Trazado_156768" data-name="Trazado 156768" d="M32.945,160.882a.352.352,0,1,1-.352-.352.353.353,0,0,1,.352.352" fill="#bab89e"/>
        <path id="Trazado_156769" data-name="Trazado 156769" d="M30.293,169.705a.352.352,0,1,1-.352-.352.353.353,0,0,1,.352.352" fill="#bab89e"/>
        <path id="Trazado_156770" data-name="Trazado 156770" d="M32.945,169.705a.352.352,0,1,1-.352-.352.353.353,0,0,1,.352.352" fill="#bab89e"/>
        <path id="Trazado_156771" data-name="Trazado 156771" d="M139.049,89.108l-.642,1.077H240.24l-.774-1.077Z" fill="#fcfbf4"/>
        <g id="Grupo_143882" data-name="Grupo 143882" style="mix-blend-mode: multiply;isolation: isolate">
          <g id="Grupo_143881" data-name="Grupo 143881">
            <g id="Grupo_143880" data-name="Grupo 143880" clip-path="url(#clip-path-10)">
              <path id="Trazado_156772" data-name="Trazado 156772" d="M175.662,36.782H144.738L107.518,65.7,90,94.619l0,.008H51.318v9.833H86.24l-.981,2.566L71.606,158.3h64.01V94.619h-5.292L153.5,45.9Z" fill="#b7575d"/>
            </g>
          </g>
        </g>
      </g>
    </g>
  </g>
</svg>
