<svg xmlns="http://www.w3.org/2000/svg" width="151.715" height="151.69" viewBox="0 0 151.715 151.69">
  <g id="Grupo_167587" data-name="Grupo 167587" transform="translate(-5.952 -6.725)">
    <g id="Grupo_167588" data-name="Grupo 167588" transform="translate(5.952 6.726)">
      <path id="Trazado_258704" data-name="Trazado 258704" d="M69.629,148.578c-.514,5.8-4.4,9.723-9.567,9.835-5.427.118-9.313-3.586-10.16-9.727H35.437c-.918,6.244-4.824,9.911-10.312,9.723-5.1-.175-8.956-4.128-9.41-9.777-.791,0-1.6.014-2.4,0a7.33,7.33,0,0,1-7.341-7.41c-.034-3.159-.025-6.32,0-9.48a7.335,7.335,0,0,1,7.642-7.571c.656-.006,1.312,0,2.068,0,.026-.5.069-.94.069-1.38,0-5.1.016-10.194,0-15.29a7.474,7.474,0,0,1,4.061-7,1.847,1.847,0,0,0,.8-1.342c.04-20.947.034-41.895.034-62.965H15.883a10.617,10.617,0,0,1-.125-1.109c-.007-5.3-.028-10.6,0-15.9a12.19,12.19,0,0,1,12.5-12.443q58.485-.023,116.97,0A12.176,12.176,0,0,1,157.647,19.1c.039,5.6.008,11.2.008,16.925h-4.83V138.784H113.709v4.9h4.712v4.9ZM40.262,99.7H48c4.556,0,6.707,1.45,8.384,5.646q3.533,8.841,7.076,17.678a8.464,8.464,0,0,0,.8,1.278l.47-.2V75.331H79.435v9.761h34.249v48.766H133.1V70.423H40.262ZM25.638,36.138V99.592h9.777V45.942H138.086v87.929h9.7V36.138ZM133.15,50.858H40.312v14.5H133.15Zm-68.5,78.294a4.839,4.839,0,0,0-.578-.085q-25.227-.006-50.455,0a2.452,2.452,0,0,0-2.749,2.735c-.03,2.293-.008,4.587-.008,6.88,0,4.932.213,5.163,5.184,5.022a2.345,2.345,0,0,0,1.58-.8c4.2-5.384,11.62-5.456,15.707-.05a2.037,2.037,0,0,0,1.892.892c4.944-.025,9.887-.038,14.83.01a2.135,2.135,0,0,0,2-.985,8.638,8.638,0,0,1,6.675-3.811,34.292,34.292,0,0,1,5.918.73ZM58.6,124.129c-2.431-6.084-4.793-12.022-7.181-17.948a2.666,2.666,0,0,0-2.841-1.6c-8.3.025-16.6.008-24.9.016-2.183,0-3.032.863-3.037,3.062-.01,4.175,0,8.35,0,12.525v3.945Zm93.53-107.652c-1.062-3.2-3.644-4.853-7.413-4.853q-58,0-116,0c-.407,0-.816-.01-1.222.016-2.922.191-5.632,2.317-6.136,4.837ZM103.859,99.6H84.179V89.991H79.454v24.287h29.153V89.991h-4.748ZM79.468,119.337v24.285h29.179V119.364h-4.87v9.579H84.2v-9.606ZM74.382,80.223H69.668V143.7h4.714ZM35.263,21.514h-14.5v9.6h14.5ZM50.074,31.1h14.5V21.481h-14.5Zm43.854-9.612H79.454v9.66H93.928Zm29.4.014h-14.5v9.634h14.5Zm29.372.014H138.2v9.606h14.5ZM30.432,148.652a4.893,4.893,0,1,0-4.99,4.875,4.934,4.934,0,0,0,4.99-4.875m29.429-4.912a4.894,4.894,0,1,0,4.823,4.887,4.923,4.923,0,0,0-4.823-4.887M40.311,31.088h4.682V21.443H40.311Zm34.058-9.559H69.653v9.59h4.716Zm24.681,9.592h4.694V21.476H99.051Zm29.356-.051h4.7v-9.59h-4.7ZM89.222,94.7h9.59V90h-9.59Zm0,29.359h9.59v-4.7h-9.59Z" transform="translate(-5.952 -6.726)"/>
      <path id="Trazado_258705" data-name="Trazado 258705" d="M89.931,191.909V162.631h92.837v63.436H163.353V177.3H129.1v-9.761H114.389v48.77l-.47.2a8.5,8.5,0,0,1-.8-1.278q-3.558-8.831-7.076-17.678c-1.677-4.2-3.828-5.644-8.384-5.646H89.931" transform="translate(-55.62 -98.934)" fill="#dee4f0"/>
      <path id="Trazado_258706" data-name="Trazado 258706" d="M54.135,78.715H176.279v97.733h-9.7V88.519H63.912v53.65H54.135Z" transform="translate(-34.449 -49.302)" fill="#ced371"/>
      <path id="Trazado_258707" data-name="Trazado 258707" d="M182.891,129.245H90.053v-14.5h92.837Zm-58.626-4.881h4.765v-4.741h-4.765Zm9.783-.025h4.743v-4.689h-4.743Zm14.542-4.7h-4.714V124.4h4.714Z" transform="translate(-55.692 -70.611)" fill="#dbdf9a"/>
      <path id="Trazado_258708" data-name="Trazado 258708" d="M71.742,306.244v10.545a34.26,34.26,0,0,0-5.918-.73,8.638,8.638,0,0,0-6.675,3.811,2.135,2.135,0,0,1-2,.985c-4.943-.048-9.887-.035-14.83-.01a2.036,2.036,0,0,1-1.892-.892c-4.087-5.406-11.508-5.334-15.707.05a2.345,2.345,0,0,1-1.58.8c-4.971.14-5.184-.091-5.184-5.022,0-2.294-.023-4.587.008-6.88a2.452,2.452,0,0,1,2.749-2.735q25.227-.018,50.455,0a4.865,4.865,0,0,1,.578.085" transform="translate(-13.044 -183.819)" fill="#a3314f"/>
      <path id="Trazado_258709" data-name="Trazado 258709" d="M79.873,265.785H41.914v-3.944c0-4.175-.007-8.35,0-12.525.005-2.2.854-3.059,3.037-3.062,8.3-.008,16.6.009,24.9-.016a2.664,2.664,0,0,1,2.84,1.6c2.388,5.927,4.75,11.864,7.182,17.948" transform="translate(-27.22 -148.382)" fill="#d2e1f1"/>
      <path id="Trazado_258710" data-name="Trazado 258710" d="M174.442,23.566H43.669c.5-2.52,3.213-4.645,6.136-4.837.406-.027.815-.016,1.222-.016q58,0,116,0c3.769,0,6.351,1.655,7.413,4.853" transform="translate(-28.259 -13.814)" fill="#ce9d75"/>
      <path id="Trazado_258711" data-name="Trazado 258711" d="M210.262,220.133v-9.608h4.748v24.287H185.856V210.525h4.725v9.608Z" transform="translate(-112.354 -127.26)" fill="#d29f6c"/>
      <path id="Trazado_258712" data-name="Trazado 258712" d="M185.891,282.354h4.736v9.606H210.2v-9.579h4.87v24.258H185.891Z" transform="translate(-112.375 -169.742)" fill="#d29f6c"/>
      <rect id="Rectángulo_53055" data-name="Rectángulo 53055" width="4.714" height="63.475" transform="translate(63.717 73.498)" fill="#e8e8e8"/>
      <rect id="Rectángulo_53056" data-name="Rectángulo 53056" width="14.499" height="9.604" transform="translate(14.813 14.789)" fill="#ce9d76"/>
      <rect id="Rectángulo_53057" data-name="Rectángulo 53057" width="14.499" height="9.616" transform="translate(44.122 14.756)" fill="#ce9d76"/>
      <rect id="Rectángulo_53058" data-name="Rectángulo 53058" width="14.474" height="9.66" transform="translate(73.502 14.76)" fill="#ce9d76"/>
      <rect id="Rectángulo_53059" data-name="Rectángulo 53059" width="14.5" height="9.634" transform="translate(102.875 14.774)" fill="#ce9d76"/>
      <rect id="Rectángulo_53060" data-name="Rectángulo 53060" width="14.499" height="9.606" transform="translate(132.249 14.788)" fill="#ce9d76"/>
      <path id="Trazado_258713" data-name="Trazado 258713" d="M51.7,346.992a4.893,4.893,0,1,1-4.8-4.912,4.936,4.936,0,0,1,4.8,4.912" transform="translate(-27.223 -205.066)" fill="#939ba6"/>
      <path id="Trazado_258714" data-name="Trazado 258714" d="M130.715,342.08a4.894,4.894,0,1,1-4.962,4.745,4.935,4.935,0,0,1,4.962-4.745" transform="translate(-76.806 -205.066)" fill="#939ba6"/>
      <rect id="Rectángulo_53061" data-name="Rectángulo 53061" width="4.682" height="9.644" transform="translate(34.36 14.718)" fill="#b17946"/>
      <rect id="Rectángulo_53062" data-name="Rectángulo 53062" width="4.716" height="9.59" transform="translate(63.702 14.803)" fill="#b17946"/>
      <rect id="Rectángulo_53063" data-name="Rectángulo 53063" width="4.694" height="9.644" transform="translate(93.099 14.751)" fill="#b17946"/>
      <rect id="Rectángulo_53064" data-name="Rectángulo 53064" width="4.699" height="9.59" transform="translate(122.455 14.753)" fill="#b17946"/>
      <rect id="Rectángulo_53065" data-name="Rectángulo 53065" width="9.59" height="4.703" transform="translate(83.271 83.271)" fill="#b17946"/>
      <rect id="Rectángulo_53066" data-name="Rectángulo 53066" width="9.59" height="4.703" transform="translate(83.271 112.63)" fill="#b17946"/>
      <rect id="Rectángulo_53067" data-name="Rectángulo 53067" width="4.765" height="4.741" transform="translate(68.572 49.013)"/>
      <rect id="Rectángulo_53068" data-name="Rectángulo 53068" width="4.743" height="4.689" transform="translate(78.355 49.038)"/>
      <rect id="Rectángulo_53069" data-name="Rectángulo 53069" width="4.714" height="4.765" transform="translate(88.182 49.026)"/>
    </g>
  </g>
</svg>
