<svg xmlns="http://www.w3.org/2000/svg" width="105" height="104.501" viewBox="0 0 105 104.501">
  <g id="Grupo_236294" data-name="Grupo 236294" transform="translate(-5.988 -7.832)">
    <g id="Grupo_236295" data-name="Grupo 236295" transform="translate(5.988 7.832)">
      <path id="Trazado_259305" data-name="Trazado 259305" d="M12.418,61.608a.963.963,0,0,0-.189-.082c-4.707-.2-6.238-1.808-6.238-6.533,0-1.694-.007-3.387,0-5.081a5.084,5.084,0,0,1,5.3-5.336c.458,0,.916,0,1.54,0A21.9,21.9,0,0,1,9.95,27.823a21.513,21.513,0,0,1,9.869-13.808A21.966,21.966,0,0,1,46.1,16.337c6.726,5.994,10.393,17.326,3.867,28.3,1.495,0,2.885.041,4.268-.036.264-.015.557-.467.745-.773Q62.154,32.12,69.305,20.4c1.537-2.515,3.209-2.927,5.729-1.417.873.523,1.745,1.048,2.687,1.615L79,18.937c-.091-.1-.124-.165-.177-.189-2.642-1.168-3.6-3.732-1.223-6.449.833-.953,1.516-2.036,2.309-3.026a3.3,3.3,0,0,1,4.517-.912q8.687,5.015,17.33,10.107a3.3,3.3,0,0,1,.97,4.947c-.916,1.295-1.882,2.554-2.85,3.811a3.429,3.429,0,0,1-4.846.964c-.24-.134-.482-.265-.81-.445L93.166,29.85c1.21.73,2.361,1.408,3.495,2.112a3.367,3.367,0,0,1,1.189,5c-.622,1.019-1.272,2.022-1.938,3.076a12.506,12.506,0,0,1,4.189,5.5,2.232,2.232,0,0,0,.629.7c8.152,7.525,11.432,16.834,9.888,27.761a36.211,36.211,0,0,1-27.923,30.549c-2.349.555-4.779.764-7.261,1.146,0,.987.016,2.076,0,3.164a3.362,3.362,0,0,1-3.482,3.468q-28.261.014-56.522-.012a9.475,9.475,0,0,1-9.285-11.123Q9.218,81.929,12.3,62.676c.055-.347.078-.7.118-1.067m40.413,27a2.012,2.012,0,0,0,.016-.309Q51.117,77.4,49.372,66.492a1.118,1.118,0,0,0-.413-.677,3.656,3.656,0,0,1-1.593-4.243H15.894l-.511,3.341h7.5v3.4H14.819l-1.076,6.76H29.648v3.392H13.2c-.363,2.275-.715,4.482-1.083,6.788H24.566v3.4H11.556c-.682,4.31-1.339,8.522-2.016,12.73-.691,4.3,2.016,7.542,6.338,7.55q7.3.014,14.6,0c.3,0,.6-.032.914-.051,0-1.054,0-2.006,0-2.958a3.432,3.432,0,0,1,3.721-3.762c2.255-.007,4.509,0,6.81,0l.835-3.386c-2.674,0-5.243.013-7.813,0A3.379,3.379,0,0,1,31.4,95.265c-.013-.846,0-1.693,0-2.54,0-2.873,1.24-4.113,4.113-4.113H52.831M12.768,32.651a18.63,18.63,0,1,0,18.723-18.56,18.662,18.662,0,0,0-18.723,18.56M72.556,70.745c-1.048,1.741-2.032,3.405-3.044,5.052a3.384,3.384,0,0,1-5.235,1.058c-.858-.618-1.657-1.321-2.54-1.9-2.687-1.755-3.746-3.4-1.342-6.943.8-1.178,1.473-2.44,2.228-3.7l-2.272-1.456C59.4,64.431,58.6,66.006,57.56,67.4a5.87,5.87,0,0,1-2.3,1.675,5.431,5.431,0,0,1-2.032.048c1.032,6.435,2.077,12.952,3.125,19.486H70.972c2.912,0,3.759.609,4.613,3.4,1.23-.181,2.5-.282,3.722-.56A22.823,22.823,0,0,0,97.379,70.883,16.042,16.042,0,0,0,94.78,60a12.351,12.351,0,0,1-5.7,1.511,12.515,12.515,0,0,1-5.816-1.451l-2.815,4.454c1.422,1.926,1.453,3.04.18,4.96-.389.587-.768,1.182-1.182,1.751a3.343,3.343,0,0,1-4.663.939c-.722-.435-1.422-.906-2.23-1.424M55.987,48.7,77.593,62.68l2.93-4.649c-4.392-4.913-4.072-10.56-1.812-14.222,3.311-5.366,8.187-6.965,14.222-5.412l2.154-3.429L72.616,21.49,55.987,48.7m8.9,53.4c3.947,0,7.825.068,11.7-.032a22.452,22.452,0,0,0,4.908-.7c14.028-3.568,22.654-12.461,25.573-26.621a26.619,26.619,0,0,0-4.613-21.582c-.479-.67-1.026-1.291-1.7-2.138a11.53,11.53,0,0,1-2.718,6.216,1,1,0,0,0-.073,1.443,17.2,17.2,0,0,1,2.824,8.854c.287,11.142-4.487,19.469-14.232,24.88a25.135,25.135,0,0,1-11,2.928c-.633,2.616-1.662,3.421-4.31,3.422H64.068l.821,3.327M49.583,48.044a3.8,3.8,0,0,0-3.545,1.011,21.472,21.472,0,0,1-28,1.009,8.182,8.182,0,0,0-6.548-2.1c-.035,0-.071,0-.106,0-1.379.027-1.992.629-2,2.012-.013,1.9,0,3.809,0,5.713,0,1.947.486,2.435,2.429,2.435,11.992,0,23.984-.029,35.975.039a2.214,2.214,0,0,0,2.553-1.814c-1.4-.856-2.977-1.679-3.032-3.67-.052-1.9,1.487-3.04,2.277-4.637m39.484-6.854a8.467,8.467,0,1,0,8.382,8.577,8.49,8.49,0,0,0-8.382-8.577M34.831,95.315H71.962v-3.26H34.831Zm0,13.569H71.982v-3.261H34.831Zm65.208-87.514L82.662,11.235,79.628,15.28,97,25.41l3.04-4.041M50.7,52.558l25.943,16.79,1.5-2.27L52.2,50.292l-1.5,2.267m9.881,46.279H46.249l-.793,3.282H61.375l-.792-3.282m1.844-27.6,4.055,3.036L69.7,68.894,65.478,66.16l-3.052,5.076m-7.8-5.429L57.5,61l-4.228-2.736-2.7,4.509,4.045,3.037M80.666,22.359l9.572,5.747L91.291,26l-9.3-5.416-1.327,1.773" transform="translate(-5.988 -7.832)" fill="#020202"/>
      <path id="Trazado_259306" data-name="Trazado 259306" d="M61.589,225.246H44.267c-2.873,0-4.112,1.24-4.113,4.113,0,.847-.011,1.693,0,2.54a3.379,3.379,0,0,0,3.551,3.507c2.569.017,5.139,0,7.813,0l-.835,3.386c-2.3,0-4.555-.005-6.809,0a3.432,3.432,0,0,0-3.721,3.762c0,.952,0,1.9,0,2.958-.313.018-.614.05-.914.05q-7.3,0-14.6,0c-4.322-.008-7.029-3.252-6.338-7.55.677-4.208,1.334-8.419,2.015-12.73H33.325v-3.4H20.871l1.083-6.788H38.407V211.7H22.5l1.076-6.76h8.064v-3.4h-7.5l.511-3.341H56.125a3.656,3.656,0,0,0,1.593,4.242,1.118,1.118,0,0,1,.413.678q1.755,10.9,3.474,21.811a2,2,0,0,1-.015.309M35.107,204.867h3.3V201.59h-3.3Z" transform="translate(-14.747 -144.465)" fill="#fdc94a"/>
      <path id="Trazado_259307" data-name="Trazado 259307" d="M30,48.565a18.63,18.63,0,1,1,18.586,18.7A18.655,18.655,0,0,1,30,48.565M45.174,59.721,61.75,41.3l-2.521-2.26-13.9,15.437-5.534-6.9L37.154,49.7l8.019,10.023" transform="translate(-23.225 -23.746)" fill="#a3314f"/>
      <path id="Trazado_259309" data-name="Trazado 259309" d="M183.109,83.428l16.629-27.213,22.471,13.48-2.154,3.429c-6.036-1.553-10.911.046-14.222,5.412-2.26,3.662-2.58,9.309,1.812,14.222l-2.93,4.649L183.109,83.428" transform="translate(-133.11 -42.557)" fill="#a9b1bb"/>
      <path id="Trazado_259310" data-name="Trazado 259310" d="M212.557,211.939l-.822-3.327h7.173c2.648,0,3.677-.806,4.31-3.422a25.135,25.135,0,0,0,11-2.928c9.745-5.411,14.519-13.738,14.232-24.88a17.2,17.2,0,0,0-2.824-8.854,1,1,0,0,1,.073-1.443,11.529,11.529,0,0,0,2.717-6.216c.678.847,1.225,1.468,1.7,2.138a26.618,26.618,0,0,1,4.613,21.583c-2.919,14.16-11.544,23.053-25.573,26.621a22.452,22.452,0,0,1-4.908.7c-3.874.1-7.752.032-11.7.032" transform="translate(-153.656 -117.668)" fill="#cacfd6"/>
      <path id="Trazado_259311" data-name="Trazado 259311" d="M58.2,149.917c-.79,1.6-2.33,2.736-2.277,4.637.055,1.99,1.63,2.813,3.032,3.67a2.214,2.214,0,0,1-2.553,1.814C44.406,159.969,32.414,160,20.422,160c-1.943,0-2.428-.488-2.429-2.435,0-1.9-.01-3.809,0-5.714.01-1.383.623-1.985,2-2.012.035,0,.071,0,.106,0a8.182,8.182,0,0,1,6.548,2.1,21.472,21.472,0,0,0,28-1.009,3.8,3.8,0,0,1,3.545-1.011" transform="translate(-14.601 -109.705)" fill="#ffb500"/>
      <path id="Trazado_259312" data-name="Trazado 259312" d="M278.556,126.005a8.467,8.467,0,1,1-8.55,8.408,8.49,8.49,0,0,1,8.55-8.408m4.994,8.481a5.078,5.078,0,1,0-5.041,5.065,5.1,5.1,0,0,0,5.041-5.065" transform="translate(-195.477 -92.647)" fill="#ffb500"/>
      <rect id="Rectángulo_53330" data-name="Rectángulo 53330" width="37.132" height="3.26" transform="translate(28.843 84.223)" fill="#959ea9"/>
      <rect id="Rectángulo_53331" data-name="Rectángulo 53331" width="37.151" height="3.261" transform="translate(28.843 97.791)" fill="#959ea9"/>
      <path id="Trazado_259313" data-name="Trazado 259313" d="M287.27,30.022l-3.04,4.041-17.371-10.13,3.033-4.045L287.27,30.022" transform="translate(-193.219 -16.485)" fill="#949ca7"/>
      <path id="Trazado_259314" data-name="Trazado 259314" d="M164.384,160.513l1.5-2.267,25.946,16.787-1.5,2.27-25.943-16.79" transform="translate(-119.671 -115.786)" fill="#c7ccd4"/>
      <path id="Trazado_259315" data-name="Trazado 259315" d="M160.93,330.219l.792,3.282H145.8l.793-3.282Z" transform="translate(-106.335 -239.214)" fill="#a9b1bc"/>
      <path id="Trazado_259316" data-name="Trazado 259316" d="M205.922,219.537l3.052-5.076,4.224,2.734-3.221,5.378-4.055-3.036" transform="translate(-149.484 -156.133)" fill="#a6aeb9"/>
      <path id="Trazado_259317" data-name="Trazado 259317" d="M167.991,194.024l-4.045-3.037,2.7-4.509,4.228,2.736-2.882,4.81" transform="translate(-119.357 -136.049)" fill="#a6aeb9"/>
      <path id="Trazado_259318" data-name="Trazado 259318" d="M270.537,54.785l1.327-1.773,9.3,5.416-1.052,2.1-9.572-5.747" transform="translate(-195.859 -40.258)" fill="#c6cbd3"/>
      <rect id="Rectángulo_53332" data-name="Rectángulo 53332" width="3.3" height="3.278" transform="translate(20.361 57.124)"/>
      <path id="Trazado_259319" data-name="Trazado 259319" d="M63.351,82.693,55.332,72.67l2.638-2.123,5.534,6.9,13.9-15.437,2.521,2.26L63.351,82.693" transform="translate(-41.403 -46.717)" fill="#040202"/>
      <path id="Trazado_259320" data-name="Trazado 259320" d="M292.165,143.1a5.078,5.078,0,1,1-5.01-5.092,5.1,5.1,0,0,1,5.01,5.092m-5.086,1.677a1.692,1.692,0,1,0-1.683-1.672,1.708,1.708,0,0,0,1.683,1.672" transform="translate(-204.092 -101.261)" fill="#030201"/>
      <path id="Trazado_259321" data-name="Trazado 259321" d="M295.693,153.387a1.692,1.692,0,1,1,1.7-1.658,1.7,1.7,0,0,1-1.7,1.658" transform="translate(-212.705 -109.87)" fill="#c2c6ce"/>
    </g>
  </g>
</svg>
