<svg xmlns="http://www.w3.org/2000/svg" width="71.195" height="71.145" viewBox="0 0 71.195 71.145">
  <g id="Grupo_167863" data-name="Grupo 167863" transform="translate(-5.976 -6.947)">
    <g id="Grupo_167260" data-name="Grupo 167260" transform="translate(5.976 6.947)">
      <path id="Trazado_257005" data-name="Trazado 257005" d="M75.148,33.165,68.984,39.33l-2.247-1.348a1.213,1.213,0,0,0-1.806.712A3.066,3.066,0,0,0,65.7,42.33a8.945,8.945,0,0,1-1.2,13.092c-.157.127-.305.266-.476.416C74.3,60.287,77.475,65.665,77.15,78.058c-.2.011-.4.032-.605.032q-29.957,0-59.913,0a2.333,2.333,0,0,1-2.615-2.6c0-.67-.015-1.34,0-2.009a2.275,2.275,0,0,1,2.292-2.271c1.5-.021,3.007,0,4.552,0V66.642c-.195-.01-.4-.03-.608-.03-2.774,0-5.549,0-8.323,0A5.737,5.737,0,0,1,5.98,60.638q-.008-13.525,0-27.051a5.737,5.737,0,0,1,6.053-6.013q14.925,0,29.849,0H42.7V19.8l2.7-.687a1.159,1.159,0,0,0,.708-1.753c-.465-.775-.935-1.547-1.384-2.288l6.159-6.168c.754.457,1.54.941,2.334,1.413a1.168,1.168,0,0,0,1.708-.71c.22-.877.438-1.755.666-2.665h8.7c.225.906.445,1.806.672,2.705a1.187,1.187,0,0,0,1.673.686c.8-.475,1.592-.959,2.355-1.419l6.161,6.163c-.447.737-.929,1.524-1.4,2.316a1.177,1.177,0,0,0,.7,1.714c.877.221,1.755.437,2.67.665v8.7c-.9.222-1.8.443-2.694.67a1.18,1.18,0,0,0-.694,1.668c.474.8.959,1.591,1.416,2.347M31.262,57.4v-16h6.9V57.37h2.284V36.793h6.876V57.383h2.239V34.509H12.918V57.371h9.158V45.978h6.866V57.4Zm18.9-29.861q-1.773-8.842,4.869-12.5A10.329,10.329,0,0,1,69.241,28.623a10.325,10.325,0,0,1-12.718,5.241v5.5a9.494,9.494,0,0,1,5.8.363c.193-.792.413-1.477.517-2.178a1.577,1.577,0,0,1,1.424-1.56,2.779,2.779,0,0,0,1.109-.48,1.442,1.442,0,0,1,1.916.106,12.93,12.93,0,0,0,1.354.829l3.624-3.6a12.782,12.782,0,0,0-.84-1.369,1.465,1.465,0,0,1-.114-1.92,5.179,5.179,0,0,0,.647-1.582,1,1,0,0,1,.914-.821c.668-.133,1.325-.319,1.967-.478V21.587a6.652,6.652,0,0,0-1.2-.3,1.877,1.877,0,0,1-1.929-1.671,14.449,14.449,0,0,0-.615-1.443,1.173,1.173,0,0,1,.035-.817c.344-.674.761-1.311,1.124-1.919l-3.6-3.62c-.628.377-1.267.792-1.938,1.145a1.042,1.042,0,0,1-.755.049c-.805-.292-1.6-.618-2.373-.988a1.158,1.158,0,0,1-.541-.625c-.23-.715-.383-1.455-.56-2.159H57.4a7.049,7.049,0,0,0-.3,1.209,1.874,1.874,0,0,1-1.68,1.923,4.554,4.554,0,0,0-1.366.611.808.808,0,0,1-.969-.047c-.614-.4-1.253-.764-1.807-1.1l-3.63,3.624c.361.6.778,1.239,1.13,1.911a1.045,1.045,0,0,1,.044.758c-.292.805-.622,1.6-.986,2.374a1.059,1.059,0,0,1-.569.508c-.723.23-1.468.391-2.209.58V27.54ZM51.9,42.054c.66-.525,1.228-1.031,1.853-1.453a.9.9,0,0,0,.452-.864c-.019-2.009-.007-4.018-.009-6.027,0-2.471-1.384-3.84-3.877-3.84H12.151c-2.495,0-3.875,1.368-3.875,3.841q0,11.481,0,22.961v.721h2.3v-.8q0-10.942,0-21.885a2.32,2.32,0,0,1,2.534-2.539q18.117,0,36.235,0A2.32,2.32,0,0,1,51.9,34.749c0,2.413,0,4.827,0,7.3m-5.538,17.7H8.326c-.454,3.042,1.578,4.624,4.066,4.59,7.409-.1,14.82-.036,22.231-.036,2.582,0,5.163.008,7.745-.013a1.014,1.014,0,0,0,.707-.294c1.126-1.412,2.217-2.852,3.292-4.248M58.7,55.126a6.887,6.887,0,1,0-6.8-6.978,6.907,6.907,0,0,0,6.8,6.978m9.256-30.971c0-.215.013-.431,0-.645a6.184,6.184,0,0,0-.1-.637,7.7,7.7,0,0,0-5.694-6.44,7.535,7.535,0,0,0-8.286,2.474A7.624,7.624,0,0,0,52.637,27.4a1.816,1.816,0,0,0,.737.8,6.543,6.543,0,0,1,2.5,2.5,1.882,1.882,0,0,0,.8.737,8,8,0,0,0,11.288-7.279M49.01,60.854A16.19,16.19,0,0,0,42.785,75.76h3.388V66.652h2.309v9.089h6C53.3,73.665,52.173,71.647,51,69.656a1.257,1.257,0,0,1-.063-1.422c.75-1.38.755-1.436-.392-2.479a3.253,3.253,0,0,1-1.093-2.223c-.088-.876-.282-1.741-.441-2.677m16.942,6c.258.525.5,1.068.788,1.583a.854.854,0,0,1-.016.974c-.98,1.665-1.927,3.35-2.884,5.029-.243.426-.479.855-.73,1.3h6.054V66.666h2.284v9.094h3.361c.643-5.738-2.559-13.34-6.235-14.833-.017.1-.039.189-.049.283-.244,2.145-.554,4.259-2.572,5.647M23.231,71.17H40.482l1.177-4.523H23.231ZM54.718,57.981l4,14.389.159-.013,3.991-14.373a15.372,15.372,0,0,0-8.148,0M16.343,75.747H40.367V73.535H16.343ZM42.761,57.379h2.212v-18.3H42.761ZM35.786,43.7H33.578V57.4h2.208ZM65.029,58.778,60.374,75.532c.243-.225.366-.3.428-.4,1.143-1.986,2.287-3.972,3.4-5.974a.943.943,0,0,0-.043-.7c-.29-.7-.971-1.451-.851-2.052.13-.651.977-1.17,1.539-1.719a2.819,2.819,0,0,0,1.107-1.911,20.072,20.072,0,0,1,.318-2.123c.217-1.39.217-1.39-1.086-1.88a.7.7,0,0,0-.157.012m-8.06,16.585.172-.074L52.55,58.747c-1.455.5-1.455.5-1.238,1.891.015.094.012.192.033.285.313,1.4.153,2.973,1.581,3.966.555.386,1.277.936,1.356,1.492.084.592-.5,1.279-.8,1.924a.351.351,0,0,1-.028.066.78.78,0,0,0,.006.97c1.072,1.833,2.114,3.683,3.17,5.525.1.173.223.331.336.5M24.39,57.38H26.6V48.263H24.39Zm29.229-1.507L51.95,54.419V56.45l1.669-.577" transform="translate(-5.976 -6.947)" fill="#010101"/>
      <path id="Trazado_257006" data-name="Trazado 257006" d="M60.525,173.594H58.2V162.171H51.339v11.393H42.181V150.7H78.826v22.873H76.587V152.987H69.711v20.577H67.427V157.592h-6.9ZM44.46,159.81H55.875v-2.235H44.46Zm.014-4.609h2.2v-2.228h-2.2Zm4.564,0h2.233V153H49.038Zm6.847-2.2H53.66v2.2h2.225Z" transform="translate(-35.239 -123.141)" fill="#dee4f0"/>
      <path id="Trazado_257007" data-name="Trazado 257007" d="M214.9,37.183h-5.1V31.231c.741-.189,1.486-.35,2.209-.58a1.059,1.059,0,0,0,.569-.508c.364-.775.694-1.569.986-2.374a1.048,1.048,0,0,0-.044-.758c-.353-.672-.769-1.31-1.13-1.911l3.63-3.624c.554.333,1.193.7,1.807,1.1a.808.808,0,0,0,.969.047,4.552,4.552,0,0,1,1.366-.611,1.874,1.874,0,0,0,1.68-1.923,7.067,7.067,0,0,1,.3-1.209h5.083c.177.7.33,1.444.56,2.159a1.159,1.159,0,0,0,.541.625c.772.37,1.568.7,2.373.988a1.043,1.043,0,0,0,.755-.049c.671-.353,1.31-.768,1.938-1.145l3.6,3.62c-.363.608-.78,1.244-1.124,1.919a1.174,1.174,0,0,0-.035.817,14.451,14.451,0,0,1,.615,1.443,1.877,1.877,0,0,0,1.929,1.671,6.651,6.651,0,0,1,1.2.3v5.086c-.642.159-1.3.345-1.967.478a1,1,0,0,0-.914.821,5.175,5.175,0,0,1-.646,1.582,1.465,1.465,0,0,0,.114,1.92,12.781,12.781,0,0,1,.84,1.369l-3.624,3.6a12.912,12.912,0,0,1-1.354-.829,1.442,1.442,0,0,0-1.916-.106,2.779,2.779,0,0,1-1.109.48,1.577,1.577,0,0,0-1.424,1.56c-.1.7-.324,1.386-.517,2.178a9.493,9.493,0,0,0-5.8-.363v-5.5a10.325,10.325,0,0,0,12.718-5.241A10.329,10.329,0,0,0,219.77,24.688q-6.629,3.645-4.869,12.5" transform="translate(-170.719 -16.59)" fill="#ffb500"/>
      <path id="Trazado_257008" data-name="Trazado 257008" d="M61.594,138.688c0-2.478,0-4.892,0-7.3A2.32,2.32,0,0,0,59.03,128.8q-18.117,0-36.235,0a2.32,2.32,0,0,0-2.533,2.539q0,10.942,0,21.885v.8h-2.3v-.721q0-11.481,0-22.961c0-2.473,1.381-3.841,3.875-3.841H60.013c2.493,0,3.875,1.369,3.877,3.84,0,2.009-.01,4.018.009,6.027a.9.9,0,0,1-.452.864c-.625.422-1.193.928-1.853,1.453" transform="translate(-15.666 -103.581)" fill="#e5e8ec"/>
      <path id="Trazado_257009" data-name="Trazado 257009" d="M56,282.4c-1.074,1.4-2.166,2.836-3.292,4.248a1.013,1.013,0,0,1-.707.294c-2.581.021-5.163.013-7.745.013-7.41,0-14.822-.064-22.231.036-2.488.033-4.52-1.548-4.066-4.59Z" transform="translate(-15.611 -229.583)" fill="#cbd0d8"/>
      <path id="Trazado_257010" data-name="Trazado 257010" d="M252.327,200.169a6.887,6.887,0,1,1,6.977-6.8,6.91,6.91,0,0,1-6.977,6.8" transform="translate(-199.6 -151.989)" fill="#eeceb2"/>
      <path id="Trazado_257011" data-name="Trazado 257011" d="M261.473,62.592a8,8,0,0,1-11.288,7.279,1.885,1.885,0,0,1-.8-.737,6.543,6.543,0,0,0-2.5-2.5,1.815,1.815,0,0,1-.737-.8,7.623,7.623,0,0,1,1.242-8.493,7.535,7.535,0,0,1,8.286-2.474,7.7,7.7,0,0,1,5.694,6.44,6.19,6.19,0,0,1,.1.637c.016.214,0,.43,0,.645m-13.757-.022a5.739,5.739,0,1,0,5.752-5.744,5.757,5.757,0,0,0-5.752,5.744" transform="translate(-199.491 -45.383)" fill="#fdc94a"/>
      <path id="Trazado_257012" data-name="Trazado 257012" d="M203.8,288.109c.159.936.353,1.8.441,2.677a3.253,3.253,0,0,0,1.093,2.223c1.146,1.043,1.142,1.1.392,2.479a1.257,1.257,0,0,0,.063,1.422c1.175,1.991,2.3,4.009,3.487,6.084h-6v-9.089h-2.309v9.108h-3.388a16.19,16.19,0,0,1,6.225-14.906" transform="translate(-160.77 -234.202)" fill="#b2db7e"/>
      <path id="Trazado_257013" data-name="Trazado 257013" d="M306.8,294.414c2.018-1.388,2.328-3.5,2.572-5.647.011-.094.032-.188.049-.283,3.676,1.493,6.879,9.1,6.235,14.833H312.3v-9.094h-2.284V303.3h-6.053c.251-.448.487-.878.73-1.3.957-1.679,1.9-3.364,2.885-5.029a.854.854,0,0,0,.016-.974c-.291-.514-.53-1.058-.788-1.583" transform="translate(-246.829 -234.505)" fill="#b2db7e"/>
      <path id="Trazado_257014" data-name="Trazado 257014" d="M95.971,322.844v-4.523H114.4l-1.176,4.523Z" transform="translate(-78.716 -258.621)" fill="#727997"/>
      <path id="Trazado_257015" data-name="Trazado 257015" d="M260.193,270.811a15.374,15.374,0,0,1,8.148,0l-3.991,14.374-.159.013-4-14.389" transform="translate(-211.452 -219.777)" fill="#c9ced6"/>
      <rect id="Rectángulo_52866" data-name="Rectángulo 52866" width="24.024" height="2.212" transform="translate(10.367 66.588)" fill="#727997"/>
      <rect id="Rectángulo_52867" data-name="Rectángulo 52867" width="2.212" height="18.302" transform="translate(36.785 32.13)" fill="#b3dc7f"/>
      <rect id="Rectángulo_52868" data-name="Rectángulo 52868" width="2.208" height="13.707" transform="translate(27.602 36.748)" fill="#b3dc7f"/>
      <path id="Trazado_257016" data-name="Trazado 257016" d="M294.35,277.218a.7.7,0,0,1,.157-.012c1.3.491,1.3.491,1.086,1.881a20.117,20.117,0,0,0-.318,2.123,2.82,2.82,0,0,1-1.107,1.911c-.561.549-1.408,1.068-1.539,1.719-.12.6.561,1.351.851,2.052a.944.944,0,0,1,.043.7c-1.113,2-2.258,3.988-3.4,5.974-.061.107-.185.178-.428.4l4.655-16.754" transform="translate(-235.297 -225.387)" fill="#9bcd65"/>
      <path id="Trazado_257017" data-name="Trazado 257017" d="M247.651,293.736c-.113-.165-.237-.324-.336-.5-1.056-1.842-2.1-3.692-3.169-5.525a.78.78,0,0,1-.006-.97.349.349,0,0,0,.028-.066c.294-.646.881-1.333.8-1.924-.079-.556-.8-1.106-1.357-1.492-1.428-.994-1.267-2.562-1.58-3.966-.021-.093-.018-.19-.033-.285-.217-1.39-.217-1.39,1.238-1.891l4.591,16.541-.172.074" transform="translate(-196.659 -225.32)" fill="#9bcd65"/>
      <rect id="Rectángulo_52869" data-name="Rectángulo 52869" width="2.214" height="9.118" transform="translate(18.414 41.316)" fill="#b3dc7f"/>
      <path id="Trazado_257018" data-name="Trazado 257018" d="M247.429,256l-1.669.577v-2.032L247.429,256" transform="translate(-199.786 -207.071)" fill="#f6f6f6"/>
      <rect id="Rectángulo_52870" data-name="Rectángulo 52870" width="11.415" height="2.235" transform="translate(9.221 34.435)"/>
      <rect id="Rectángulo_52871" data-name="Rectángulo 52871" width="2.202" height="2.228" transform="translate(9.234 29.833)"/>
      <rect id="Rectángulo_52872" data-name="Rectángulo 52872" width="2.233" height="2.208" transform="translate(13.799 29.856)"/>
      <rect id="Rectángulo_52873" data-name="Rectángulo 52873" width="2.225" height="2.2" transform="translate(18.421 29.86)"/>
      <path id="Trazado_257019" data-name="Trazado 257019" d="M257.5,72.371a5.739,5.739,0,1,1,5.762,5.735,5.754,5.754,0,0,1-5.762-5.735m5.742,3.438a3.442,3.442,0,1,0-3.445-3.476,3.459,3.459,0,0,0,3.445,3.476" transform="translate(-209.278 -55.184)" fill="#040403"/>
      <path id="Trazado_257020" data-name="Trazado 257020" d="M272.928,85.492a3.442,3.442,0,1,1,3.44-3.41,3.459,3.459,0,0,1-3.44,3.41" transform="translate(-218.961 -64.868)" fill="#fcfcfc"/>
    </g>
  </g>
</svg>
