<svg xmlns="http://www.w3.org/2000/svg" xmlns:xlink="http://www.w3.org/1999/xlink" width="220" height="220" viewBox="0 0 220 220"><defs><filter id="a" x="0" y="0" width="220" height="220" filterUnits="userSpaceOnUse"><feOffset dy="6" input="SourceAlpha"/><feGaussianBlur stdDeviation="5" result="b"/><feFlood flood-opacity="0.329"/><feComposite operator="in" in2="b"/><feComposite in="SourceGraphic"/></filter></defs><g transform="translate(-899.667 -3700)"><g transform="matrix(1, 0, 0, 1, 899.67, 3700)" filter="url(#a)"><circle cx="95" cy="95" r="95" transform="translate(15 9)" fill="#ffb500"/></g><g transform="translate(936.085 3725.072)"><g transform="translate(25.915 26.518)"><path d="M98.948,101.156c.22.387.4.718.6,1.047,3.32,5.716,6.664,11.418,9.956,17.151,2.5,4.349.958,9.474-3.443,11.318a9.16,9.16,0,0,1-3.448.632q-34.31.054-68.619.013c-6.562-.01-10.117-6.3-6.832-11.992,4.541-7.873,9.13-15.719,13.7-23.576.256-.44.5-.885.714-1.258C27.5,82.634,22.243,67.961,28.764,50.5,34.1,36.212,45.181,28.254,60.382,26.7A37.3,37.3,0,0,1,98.438,50.2c11.32-2.065,20.809,1.045,27.5,10.551,6.05,8.6,6.625,18.052,1.506,27.227-6.154,11.031-16.029,14.98-28.5,13.182M45.578,87.568c.264-.441.529-.876.785-1.315q7.427-12.767,14.843-25.538a9.133,9.133,0,0,1,3.655-3.752,1.468,1.468,0,0,0,.607-.882,3.631,3.631,0,0,1,7.2.743,1.743,1.743,0,0,0,.331.9c.887,1.191,1.909,2.292,2.7,3.541,1.361,2.145,2.587,4.375,3.952,6.71.5-1.22.983-2.247,1.337-3.317A2.325,2.325,0,0,0,81,63.173a3.589,3.589,0,0,1,3.445-5.053,1.637,1.637,0,0,0,.983-.142c1.915-1.616,3.791-3.277,5.714-4.957A29.709,29.709,0,1,0,45.578,87.568m22.771,42.106q16.918,0,33.836-.009a9.369,9.369,0,0,0,2.458-.229c4.012-1.108,5.613-5.523,3.4-9.332q-9.285-16-18.59-31.983Q81.674,74.735,73.9,61.344a6.52,6.52,0,0,0-3.752-3.23c-2.965-.908-5.714.3-7.448,3.285Q50.79,81.886,38.888,102.378q-5.137,8.84-10.283,17.674a6.168,6.168,0,0,0-.477,6.087,6.08,6.08,0,0,0,6.03,3.546c11.4-.027,22.794-.012,34.191-.011M129.1,75.617c-.121-1.254-.186-2.517-.371-3.762a24.356,24.356,0,0,0-47.594-2.621,2.219,2.219,0,0,0,.155,1.521Q89.227,84.52,97.258,98.232a2.392,2.392,0,0,0,1.324.994A24.472,24.472,0,0,0,129.1,75.617M42.5,92.782c.57-.97,1.069-1.892,1.639-2.767.478-.734.192-1.16-.369-1.7a50.539,50.539,0,0,1-4.881-4.947,30.417,30.417,0,0,1-6.441-24.151,30.363,30.363,0,0,1,10.71-19.146A30.363,30.363,0,0,1,68.2,32.86,30.346,30.346,0,0,1,89.642,46.542c1.22,1.816,2.189,3.8,3.284,5.726l3.714-1.584A35.689,35.689,0,1,0,42.5,92.782m28.531-36.3a1.935,1.935,0,0,0-1.866-1.737A1.764,1.764,0,0,0,67.2,56.122l3.828.363" transform="translate(-25.915 -26.518)" fill="#070404"/><path d="M62.522,104.111a29.49,29.49,0,0,1-10.8-31.388,29.713,29.713,0,0,1,56.363-3.157c-1.924,1.68-3.8,3.341-5.714,4.957a1.637,1.637,0,0,1-.983.142,3.589,3.589,0,0,0-3.445,5.053,2.323,2.323,0,0,1-.008,1.487c-.353,1.07-.835,2.1-1.337,3.317-1.365-2.335-2.591-4.566-3.952-6.71-.793-1.249-1.814-2.35-2.7-3.541a1.742,1.742,0,0,1-.331-.9,3.631,3.631,0,0,0-7.2-.743,1.468,1.468,0,0,1-.607.882,9.135,9.135,0,0,0-3.655,3.752q-7.4,12.781-14.843,25.538c-.256.44-.521.874-.785,1.315m1.885-20.869a5.041,5.041,0,1,0-4.989-5.073,5,5,0,0,0,4.989,5.073m8.181-18.8a3.648,3.648,0,0,0,.086-7.3,3.648,3.648,0,1,0-.086,7.3m13.466-4.015-.274-.667c-.439-.122-.946-.449-1.306-.33a6.246,6.246,0,0,0-3.934,3.656c-.133.321.207.84.329,1.267.37-.2.915-.3,1.081-.607a5.92,5.92,0,0,1,3.059-2.817c.358-.144.7-.333,1.045-.5m7.834,11.234c.5-.4.823-.538.938-.776a6.222,6.222,0,0,1,3.244-3.092c.267-.116.344-.667.509-1.017-.355-.15-.774-.506-1.054-.419a6.313,6.313,0,0,0-4.117,3.895c-.117.3.255.791.479,1.409M74.494,76.889l-.286-.092c-.112-1.279-.183-2.565-.369-3.833a1.059,1.059,0,0,0-.763-.686c-.259-.012-.784.428-.769.638a40.346,40.346,0,0,0,.54,4.277c.039.215.635.5.921.449s.487-.486.727-.752M62.728,67.525a3.545,3.545,0,0,0-.367-.714c-.547-.6-2.333-1.087-2.628-.687-.175.237-.27.863-.179.914a16.09,16.09,0,0,0,2.476,1.122c.14.049.456-.406.7-.634m-.855,25.014a4.746,4.746,0,0,0,.722-1.19c.089-.463-1.562-1.575-2.283-1.45-.323.056-.567.561-.847.862l2.408,1.778" transform="translate(-42.86 -43.061)" fill="#d2e1f1"/><path d="M71.846,197.388c-11.4,0-22.794-.016-34.191.011a6.08,6.08,0,0,1-6.03-3.546,6.168,6.168,0,0,1,.477-6.087q5.163-8.824,10.283-17.674Q54.291,149.6,66.2,129.114c1.734-2.983,4.483-4.194,7.448-3.285a6.52,6.52,0,0,1,3.752,3.23q7.76,13.4,15.554,26.776,9.3,15.991,18.59,31.983c2.211,3.809.61,8.224-3.4,9.332a9.368,9.368,0,0,1-2.458.229q-16.918.021-33.836.01m-.076-5.779q16.151,0,32.3-.021a10.832,10.832,0,0,0,2.191-.458,11.842,11.842,0,0,0-.73-2.009Q89.283,161.1,73,133.109c-.96-1.652-1.391-1.651-2.372.017-.06.1-.124.2-.183.3q-16.306,28.053-32.6,56.114a6.978,6.978,0,0,0-.472,1.613,6.5,6.5,0,0,0,1.62.434q16.387.038,32.775.019" transform="translate(-29.412 -94.233)" fill="#a3314f"/><path d="M248.416,129.058A24.472,24.472,0,0,1,217.9,152.667a2.391,2.391,0,0,1-1.324-.994q-8.032-13.711-15.968-27.477a2.217,2.217,0,0,1-.155-1.521,24.356,24.356,0,0,1,47.594,2.621c.186,1.245.25,2.507.371,3.762M221.685,123.4c-1.625-2.816-3.346-5.732-4.994-8.689-.552-.991-1.088-1.163-2.051-.522a17.545,17.545,0,0,0-8.172,13.935c-.116,1.509.062,1.7,1.606,1.7,3.346,0,6.693,0,9.807,0l2.362,4.03c-1.622,2.811-3.318,5.741-5,8.676-.666,1.158-.606,1.4.6,2.009a17.172,17.172,0,0,0,15.485.392c2.174-.973,2.179-1.052,1.02-3.06q-1.329-2.3-2.66-4.6c-.7-1.217-1.4-2.436-1.969-3.43a22.287,22.287,0,0,0,1.76-3.142c.261-.709.538-.893,1.23-.886,3.154.031,6.309-.012,9.463.027,1.04.013,1.409-.4,1.348-1.411a17.49,17.49,0,0,0-7.65-13.865c-1.7-1.209-1.812-1.164-2.835.609l-4.749,8.226Z" transform="translate(-145.231 -79.959)" fill="#fcdf00"/><path d="M46.6,96.434a35.7,35.7,0,1,1,54.141-42.1L97.031,55.92c-1.1-1.926-2.064-3.91-3.284-5.726A30.344,30.344,0,0,0,72.305,36.512a30.362,30.362,0,0,0-25.042,7.213,30.361,30.361,0,0,0-10.71,19.147,30.415,30.415,0,0,0,6.441,24.151,50.5,50.5,0,0,0,4.881,4.947c.561.537.847.964.369,1.7-.57.875-1.069,1.8-1.639,2.767" transform="translate(-30.021 -30.17)" fill="#333"/><path d="M160.352,117.549l-3.828-.363a1.764,1.764,0,0,1,1.962-1.374,1.935,1.935,0,0,1,1.866,1.737" transform="translate(-115.236 -87.582)" fill="#ced371"/><path d="M83.284,131.814a5.041,5.041,0,1,1,5.091-4.964,5.01,5.01,0,0,1-5.091,4.964m3.452-5.054a3.393,3.393,0,1,0-3.342,3.434,3.406,3.406,0,0,0,3.342-3.434" transform="translate(-61.737 -91.634)" fill="#060809"/><path d="M112.11,78.357a3.649,3.649,0,1,1,3.669-3.609,3.726,3.726,0,0,1-3.669,3.609m.031-5.646a2,2,0,0,0-.034,3.993,2,2,0,1,0,.034-3.993" transform="translate(-82.383 -56.979)" fill="#050809"/><path d="M150.56,79.23c-.348.168-.688.357-1.045.5a5.923,5.923,0,0,0-3.059,2.817c-.166.308-.711.41-1.081.607-.122-.427-.462-.946-.329-1.267a6.247,6.247,0,0,1,3.934-3.656c.36-.119.867.209,1.306.33l.274.667" transform="translate(-107.366 -61.867)" fill="#04080a"/><path d="M186.253,105.476c-.224-.618-.6-1.11-.479-1.409a6.313,6.313,0,0,1,4.117-3.895c.28-.088.7.268,1.054.419-.165.35-.242.9-.509,1.017a6.223,6.223,0,0,0-3.244,3.093c-.116.238-.44.374-.938.775" transform="translate(-135.225 -76.88)" fill="#030708"/><path d="M121.254,123.551c-.24.266-.449.7-.727.752s-.881-.234-.92-.449a40.355,40.355,0,0,1-.54-4.276c-.015-.211.51-.65.769-.638a1.059,1.059,0,0,1,.763.686c.187,1.268.257,2.554.369,3.833Z" transform="translate(-89.62 -89.723)" fill="#04090a"/><path d="M81.82,100.559c-.242.229-.558.683-.7.634a16.09,16.09,0,0,1-2.476-1.122c-.091-.05,0-.677.179-.914.3-.4,2.082.083,2.629.687a3.553,3.553,0,0,1,.367.714" transform="translate(-61.953 -76.095)" fill="#050a0c"/><path d="M80.848,177.305l-2.408-1.778c.28-.3.524-.806.847-.862.721-.125,2.372.986,2.283,1.45a4.746,4.746,0,0,1-.722,1.19" transform="translate(-61.836 -127.827)" fill="#04090b"/><path d="M85.5,205.324q-16.387,0-32.775-.019a6.486,6.486,0,0,1-1.62-.434,6.983,6.983,0,0,1,.472-1.613q16.278-28.068,32.6-56.114c.059-.1.123-.2.183-.3.982-1.669,1.412-1.67,2.372-.017q16.273,28,32.534,56.014a11.869,11.869,0,0,1,.73,2.009,10.856,10.856,0,0,1-2.191.458q-16.15.045-32.3.021m-32.245-1.711h64.579L85.54,148.05,53.253,203.613" transform="translate(-43.141 -107.947)" fill="#070304"/><path d="M234.786,143.047h4.594l4.749-8.227c1.023-1.773,1.136-1.818,2.835-.609a17.489,17.489,0,0,1,7.65,13.865c.06,1.014-.308,1.424-1.348,1.411-3.154-.039-6.309,0-9.463-.027-.692-.007-.969.177-1.23.886a22.309,22.309,0,0,1-1.76,3.141c.57.994,1.267,2.214,1.969,3.43q1.327,2.3,2.66,4.6c1.16,2.008,1.154,2.087-1.019,3.06a17.173,17.173,0,0,1-15.485-.392c-1.2-.61-1.261-.851-.6-2.009,1.686-2.935,3.382-5.865,5-8.676l-2.363-4.029c-3.114,0-6.46,0-9.807,0-1.545,0-1.722-.193-1.607-1.7a17.545,17.545,0,0,1,8.172-13.934c.962-.641,1.5-.469,2.051.522,1.648,2.957,3.369,5.873,4.994,8.689m-5.015,20.006c2.022.511,3.845,1.134,5.718,1.407a14.774,14.774,0,0,0,7.942-1.231c.567-.239.795-.535.412-1.174-1.212-2.026-2.454-4.042-3.52-6.144-.677-1.337-1.38-1.979-2.948-1.377-.542.208-1.294-.17-1.955-.212a.959.959,0,0,0-.758.259c-1.593,2.706-3.148,5.435-4.892,8.472m15.884-27.59c-1.4,2.44-2.729,4.851-4.163,7.2-.551.9-.841,1.546.112,2.4.519.464.663,1.324,1.09,1.925a1.735,1.735,0,0,0,1.089.753c2.046.074,4.1.035,6.144.035h2.762c.621-3.824-3.163-10.414-7.033-12.307m-24.205,12.3c3.124,0,6.184.011,9.243-.021a1.01,1.01,0,0,0,.7-.48c.629-1.1,1.2-2.237,1.882-3.515-.7-1.209-1.513-2.638-2.339-4.062s-1.644-2.816-2.46-4.213c-3.95,2.073-7.469,8.208-7.021,12.292m15.449,4.965a4.122,4.122,0,0,0,4.331-4.024,4.421,4.421,0,0,0-4.11-4.244,4.3,4.3,0,0,0-4.166,4.152,4,4,0,0,0,3.945,4.116" transform="translate(-158.333 -99.602)" fill="#050401"/><path d="M90.317,130.367a3.393,3.393,0,1,1-6.785-.009,3.393,3.393,0,0,1,6.785.009" transform="translate(-65.318 -95.24)" fill="#ced371"/><path d="M115.724,76.284a2,2,0,1,1-.034,3.993,2,2,0,0,1,.034-3.993" transform="translate(-85.965 -60.552)" fill="#ced371"/><path d="M57.9,208.944,90.19,153.382l32.292,55.562Zm32.3-37.97c-1.458,0-2.917.01-4.375,0-.957-.009-1.34.4-1.247,1.385q1.051,11.18,2.043,22.365c.079.891.433,1.271,1.323,1.254q2.246-.042,4.493,0c.882.017,1.265-.354,1.344-1.244q.987-11.186,2.035-22.366c.092-.981-.283-1.4-1.24-1.393-1.458.01-2.917,0-4.375,0m-3.536,31.1c0,.788.025,1.577-.007,2.363-.032.806.346,1.163,1.122,1.163q2.422,0,4.844,0c.786,0,1.131-.408,1.124-1.185-.014-1.576-.01-3.151,0-4.727,0-.778-.336-1.154-1.142-1.142q-2.422.034-4.844,0c-.822-.01-1.125.387-1.1,1.165s.006,1.576.006,2.363" transform="translate(-47.791 -113.278)" fill="#e4e4e4"/><path d="M251.9,208.318c1.744-3.037,3.3-5.766,4.892-8.472a.96.96,0,0,1,.758-.259c.661.042,1.413.42,1.955.212,1.567-.6,2.27.04,2.948,1.377,1.066,2.1,2.307,4.119,3.52,6.145.382.639.155.934-.412,1.174a14.781,14.781,0,0,1-7.942,1.231c-1.874-.273-3.7-.9-5.719-1.407" transform="translate(-180.465 -144.867)" fill="#333"/><path d="M292.039,139.96c3.87,1.894,7.654,8.483,7.033,12.308H296.31c-2.048,0-4.1.039-6.144-.035a1.735,1.735,0,0,1-1.088-.753c-.427-.6-.571-1.461-1.09-1.925-.953-.852-.663-1.5-.112-2.4,1.434-2.345,2.761-4.756,4.164-7.2" transform="translate(-204.717 -104.099)" fill="#333"/><path d="M225.5,152.291c-.449-4.083,3.071-10.218,7.021-12.291.816,1.4,1.643,2.8,2.46,4.213s1.643,2.852,2.338,4.062c-.677,1.279-1.252,2.412-1.882,3.516a1.011,1.011,0,0,1-.7.48c-3.059.032-6.119.021-9.243.021" transform="translate(-162.378 -104.127)" fill="#333"/><path d="M265.914,176.7a4,4,0,0,1-3.945-4.116,4.3,4.3,0,0,1,4.166-4.152,4.421,4.421,0,0,1,4.11,4.244,4.122,4.122,0,0,1-4.331,4.024" transform="translate(-187.348 -123.57)" fill="#333"/><path d="M147.9,209.025c1.458,0,2.917.008,4.375,0,.958-.007,1.332.413,1.24,1.393q-1.046,11.18-2.035,22.366c-.079.891-.462,1.261-1.344,1.245q-2.246-.042-4.493,0c-.889.016-1.244-.363-1.322-1.255q-.986-11.186-2.043-22.365c-.092-.983.29-1.394,1.247-1.385,1.458.014,2.917,0,4.375,0m-3.914,1.7c.659,7.286,1.307,14.436,1.954,21.584h3.909c.645-7.2,1.287-14.356,1.934-21.584Z" transform="translate(-105.481 -151.329)" fill="#0a0607"/><path d="M148.883,299.776c0-.788.019-1.577-.005-2.364s.278-1.175,1.1-1.165q2.422.03,4.844,0c.806-.011,1.147.364,1.142,1.142-.008,1.576-.012,3.151,0,4.727.007.777-.339,1.184-1.124,1.186q-2.422,0-4.844,0c-.776,0-1.154-.357-1.122-1.163.032-.787.007-1.576.007-2.363m1.717,1.811h3.646v-3.629H150.6Z" transform="translate(-110.005 -210.981)" fill="#090607"/><path d="M147.706,214.413h7.8c-.648,7.229-1.289,14.383-1.934,21.584H149.66c-.647-7.148-1.294-14.3-1.954-21.584" transform="translate(-109.206 -155.016)" fill="#a3314f"/><rect width="3.646" height="3.629" transform="translate(40.596 86.978)" fill="#a3314f"/></g></g></g></svg>