<svg xmlns="http://www.w3.org/2000/svg" width="157.861" height="157.888" viewBox="0 0 157.861 157.888">
  <g id="Grupo_167584" data-name="Grupo 167584" transform="translate(-5.856 -6.62)">
    <g id="Grupo_167585" data-name="Grupo 167585" transform="translate(5.856 6.62)">
      <path id="Trazado_258686" data-name="Trazado 258686" d="M157.612,92.489c-.847,1.641-1.83,3.4-2.647,5.224a5.365,5.365,0,0,0-.056,2.014c0,.045.065.088.075.138.75,3.871,3.311,5.672,7.023,6.2a10.08,10.08,0,0,1,1.666.541V125.6c-1.936.637-3.842,1.266-5.75,1.889-.2.066-.424.073-.615.156-.907.4-2.9,5.864-2.448,6.745.935,1.833,1.885,3.659,2.753,5.337l-13.557,13.548c-1.142-.582-2.546-1.3-3.949-2.013-.47-.241-.933-.5-1.406-.734-1.106-.548-6.412,1.613-6.809,2.783-.34,1-.642,2.013-.968,3.019s-.662,2-1,3.027H110.96c-.637-1.939-1.235-3.949-1.977-5.9a3.87,3.87,0,0,0-1.288-1.359c-.271-.218-.735-.188-1.025-.393-2.6-1.835-4.961-1.264-7.5.325-2.52,1.578-2.621,1.413-4.739-.7L83.121,140.013c.884-1.721,1.7-3.436,2.635-5.079a3.437,3.437,0,0,0,.133-2.761c-.821-3.827-3.354-5.4-6.887-5.978a10.993,10.993,0,0,1-1.8-.627V106.623l4.281-1.382c.6-.2,1.209-.385,1.807-.6,1.064-.376,3.279-5.678,2.784-6.7-.44-.9-.92-1.785-1.48-2.863a43.9,43.9,0,0,1-25.129,17.208c-.55,4.218.7,8.478-1.047,12.685C61.5,127,62,130.152,61.923,133.67c-.127,6.1.017,12.2-.056,18.3a12.7,12.7,0,0,1-24.959,3.113,15.9,15.9,0,0,1-.458-3.926c-.046-6.1.057-12.2-.051-18.3-.057-3.24.749-5.961,3.5-7.864-1.752-4.143-.488-8.446-1.027-12.622-21.119-4.819-35.819-26.043-32.565-48.3a43.638,43.638,0,0,1,45.4-37.1c0-4.232-.028-8.459.009-12.684a7.574,7.574,0,0,1,6.114-7.491,9.9,9.9,0,0,1,2.052-.163q47.8-.011,95.609,0c5.065,0,8.222,3.166,8.223,8.245q.01,27.367,0,54.734c0,5.168-3.149,8.305-8.323,8.31q-10.977.01-21.954,0h-1.721c0,1.371.828,1.787,1.85,2.429,3.3,2.073,6.2,1.388,9.094-.7a9.068,9.068,0,0,1,1.389-.71l13.564,13.552M107.694,11.715q-23.7,0-47.391,0c-2.717,0-3.5.782-3.5,3.486q0,27.041,0,54.081c0,2.786.769,3.538,3.613,3.538h94.624c2.82,0,3.586-.761,3.586-3.567q0-26.961,0-53.922c0-2.889-.744-3.615-3.7-3.615H107.694M51.7,42.513C38.893,40.83,23.092,50.15,21.3,67.567A27.9,27.9,0,0,0,47.246,98.2c16.086,1.115,26.863-11.061,28.535-20.29-5.468,0-10.923.026-16.379-.009a7.588,7.588,0,0,1-7.556-6.233,11.5,11.5,0,0,1-.136-2.214C51.7,60.5,51.7,51.548,51.7,42.513m30.549,67.822v8.689c0,2.877-.041,3.059,2.691,3.676,2.426.549,3.933,1.644,4.285,4.2a5.325,5.325,0,0,0,.909,2.352c2.205,2.991,1.962,5.851-.232,8.693-.546.708-.425,1.25.247,1.894,2.22,2.127,4.388,4.31,6.524,6.521a1.3,1.3,0,0,0,1.9.328,28.563,28.563,0,0,1,3.668-1.883,2.516,2.516,0,0,1,1.713.014q3.91,1.508,7.751,3.193a2.693,2.693,0,0,1,1.329,1.3c.635,1.613,1.1,3.294,1.639,4.984H123.2c3.033,0,3.176.035,3.88-2.846.555-2.269,1.534-3.77,4.006-4.085a5.553,5.553,0,0,0,2.5-.951c2.992-2.2,5.848-2,8.692.224.7.548,1.245.44,1.893-.238,2.125-2.221,4.306-4.391,6.52-6.524a1.3,1.3,0,0,0,.319-1.9,28.553,28.553,0,0,1-1.875-3.671,2.522,2.522,0,0,1,.011-1.714c1.007-2.607,2.06-5.2,3.2-7.749a2.924,2.924,0,0,1,1.441-1.376c1.558-.628,3.189-1.074,4.83-1.6v-8.837c0-2.747.037-2.914-2.689-3.525-2.418-.541-3.95-1.626-4.286-4.194a4.838,4.838,0,0,0-.837-2.211c-2.33-3.084-1.983-6.021.186-9.009a1.656,1.656,0,0,0-.206-1.564q-3.284-3.459-6.745-6.747a1.786,1.786,0,0,0-1.565-.246c-1.271.51-2.431,1.3-3.706,1.8a3.019,3.019,0,0,1-1.988-.025c-2.515-.952-4.969-2.068-7.484-3.018a2.127,2.127,0,0,1-1.559-1.522c-.45-1.621-1.017-3.211-1.547-4.849h-8.679c-2.876,0-3.056-.041-3.675,2.693-.55,2.424-1.637,3.937-4.2,4.283a5.275,5.275,0,0,0-2.351.911c-2.991,2.215-5.849,1.948-8.691-.235-.707-.543-1.253-.42-1.895.248q-3.193,3.328-6.523,6.523a1.3,1.3,0,0,0-.318,1.9A28.314,28.314,0,0,1,91.741,97.9a2.522,2.522,0,0,1-.013,1.713c-1.007,2.607-2.061,5.2-3.2,7.748a2.923,2.923,0,0,1-1.44,1.376c-1.512.612-3.1,1.038-4.83,1.594m-30.6-78.079C32.9,30.636,12.843,44.7,11.091,67.471a38.04,38.04,0,0,0,35.95,40.915c22.54,1.216,37.2-16.223,39.27-30.432H81.4a33.116,33.116,0,0,1-65.282-9.45,31.786,31.786,0,0,1,8.835-20.741c7.211-7.663,16.2-11.025,26.7-10.557Zm5.141,109.707c0-3.339.012-6.679,0-10.019-.011-2.185-.916-3.091-3.091-3.1-2.968-.017-5.936-.011-8.9,0-2.4.008-3.266.863-3.269,3.245-.008,6.467-.02,12.935,0,19.4a7.634,7.634,0,1,0,15.26.02c.024-3.18,0-6.361,0-9.542M44.073,113.411c0,2.606-.04,5.19.015,7.773a2.438,2.438,0,0,0,2.493,2.537c1.741.065,3.488.056,5.229,0a2.207,2.207,0,0,0,2.334-1.981c.158-2.814.051-5.642.051-8.326ZM109.174,78h-17.4l-1.985,7.24c.152-.03.284-.015.342-.074,1.582-1.561,3.26-3.039,4.7-4.723,1.183-1.384,2.251-1.773,3.776-.615,2.679,2.035,5.491,2.591,8.454.553a.4.4,0,0,1,.145-.064A2.144,2.144,0,0,0,109.174,78" transform="translate(-5.856 -6.62)" fill="#020202"/>
      <path id="Trazado_258687" data-name="Trazado 258687" d="M176.606,18.606h47.232c2.951,0,3.7.727,3.7,3.615q0,26.961,0,53.921c0,2.806-.765,3.567-3.586,3.567q-47.312,0-94.624,0c-2.844,0-3.613-.751-3.613-3.538q0-27.04,0-54.08c0-2.7.788-3.485,3.5-3.486q23.7,0,47.392,0m23.611,26.315c5.983,5.9,13.151,4.918,17.547,1.355A12.718,12.718,0,0,0,205.313,24.5c-6.376,2.364-9.235,8.243-7.71,16.043l-11.14,6.5c-4.481-3.727-9.045-3.988-13.795-.663L160.758,37.7a30,30,0,0,0,.559-3.348,10.165,10.165,0,0,0-18.994-5.516A10.006,10.006,0,0,0,144.3,41.305a1.61,1.61,0,0,1,.49,2.141q-2.856,7.23-5.6,14.5a1.913,1.913,0,0,1-1.819,1.506,7.551,7.551,0,0,0-6.542,6.779,7.643,7.643,0,0,0,13.837,5.155,7.414,7.414,0,0,0-.529-9.378,1.609,1.609,0,0,1-.32-1.955c1.507-3.782,2.947-7.591,4.411-11.39l1.538-3.99,8.364-2.584,11.545,8.41c-1.47,4.609-.571,8.51,2.994,11.525a9.4,9.4,0,0,0,10.984,1.313c4.791-2.477,6.4-6.639,5.369-11.884l11.2-6.535m-3.189,19.421h25.318V59.436H197.028Zm.082,10.209h4.9V69.593h-4.9ZM212.192,69.6h-4.954v4.955h4.954Zm10.182,0h-4.954v4.955h4.954Z" transform="translate(-74.768 -13.511)" fill="#e2e2e2"/>
      <path id="Trazado_258688" data-name="Trazado 258688" d="M72.4,90.806c0,9.035,0,17.99.006,26.944a11.5,11.5,0,0,0,.136,2.214A7.588,7.588,0,0,0,80.1,126.2c5.456.035,10.911.009,16.379.009-1.672,9.23-12.449,21.405-28.535,20.29A27.9,27.9,0,0,1,42,115.859c1.791-17.417,17.592-26.736,30.4-25.053m-25.391,27.8c-.106,14.373,12.977,23.6,22.737,22.649v-4.851a18.007,18.007,0,0,1-17.759-17.8Z" transform="translate(-26.552 -54.913)" fill="#68d4f2"/>
      <path id="Trazado_258689" data-name="Trazado 258689" d="M185.6,206.779c1.731-.556,3.318-.982,4.83-1.594a2.926,2.926,0,0,0,1.441-1.376c1.144-2.55,2.2-5.142,3.2-7.749a2.522,2.522,0,0,0,.013-1.713,28.393,28.393,0,0,0-1.876-3.671,1.3,1.3,0,0,1,.318-1.9q3.321-3.2,6.523-6.522c.642-.669,1.188-.792,1.895-.248,2.842,2.182,5.7,2.449,8.691.234a5.275,5.275,0,0,1,2.351-.911c2.563-.346,3.65-1.859,4.2-4.283.62-2.734.8-2.693,3.675-2.693h8.679c.53,1.638,1.1,3.227,1.547,4.849a2.129,2.129,0,0,0,1.559,1.522c2.516.95,4.969,2.066,7.485,3.017a3.016,3.016,0,0,0,1.988.025c1.275-.5,2.435-1.286,3.706-1.8a1.785,1.785,0,0,1,1.564.246q3.457,3.287,6.746,6.747a1.657,1.657,0,0,1,.206,1.564c-2.169,2.988-2.516,5.925-.186,9.009a4.833,4.833,0,0,1,.838,2.211c.336,2.568,1.868,3.652,4.286,4.194,2.727.611,2.689.779,2.689,3.525v8.838c-1.64.53-3.272.976-4.83,1.6a2.92,2.92,0,0,0-1.441,1.376c-1.144,2.55-2.2,5.142-3.2,7.749a2.522,2.522,0,0,0-.011,1.714,28.575,28.575,0,0,0,1.875,3.671,1.3,1.3,0,0,1-.32,1.9c-2.214,2.134-4.395,4.3-6.52,6.525-.648.677-1.193.785-1.893.238-2.844-2.224-5.7-2.421-8.692-.224a5.563,5.563,0,0,1-2.5.951c-2.472.314-3.451,1.815-4.006,4.085-.7,2.881-.848,2.846-3.88,2.846h-8.524c-.541-1.69-1-3.371-1.639-4.984a2.694,2.694,0,0,0-1.329-1.3q-3.834-1.693-7.751-3.193a2.518,2.518,0,0,0-1.713-.014,28.533,28.533,0,0,0-3.668,1.883,1.3,1.3,0,0,1-1.9-.328c-2.137-2.211-4.3-4.394-6.524-6.521-.672-.644-.793-1.186-.247-1.894,2.194-2.843,2.438-5.7.232-8.694a5.321,5.321,0,0,1-.909-2.352c-.353-2.557-1.859-3.652-4.286-4.2-2.731-.618-2.69-.8-2.69-3.677v-8.688m38.2-22.239a28.008,28.008,0,1,0,27.992,28.018A28.044,28.044,0,0,0,223.8,184.541" transform="translate(-109.205 -103.064)" fill="#ffb500"/>
      <path id="Trazado_258690" data-name="Trazado 258690" d="M58.581,66.765v4.951c-10.5-.468-19.485,2.894-26.7,10.557a31.787,31.787,0,0,0-8.835,20.741,33.117,33.117,0,0,0,65.282,9.45h4.907c-2.073,14.209-16.73,31.647-39.27,30.432a38.041,38.041,0,0,1-35.95-40.916C19.77,79.2,39.832,65.145,58.581,66.765" transform="translate(-12.783 -41.129)" fill="#e2e5e9"/>
      <path id="Trazado_258691" data-name="Trazado 258691" d="M105.036,307.287c0,3.181.019,6.361,0,9.542a7.634,7.634,0,1,1-15.26-.02c-.023-6.467-.011-12.935,0-19.4,0-2.382.871-3.238,3.269-3.245,2.968-.009,5.936-.015,8.9,0,2.175.012,3.08.919,3.091,3.1.017,3.339,0,6.679,0,10.019" transform="translate(-54.097 -171.944)" fill="#ced371"/>
      <path id="Trazado_258692" data-name="Trazado 258692" d="M95.754,257.875h10.122c0,2.684.107,5.512-.051,8.326a2.207,2.207,0,0,1-2.333,1.981c-1.742.059-3.488.068-5.23,0a2.438,2.438,0,0,1-2.493-2.537c-.055-2.582-.015-5.167-.015-7.773" transform="translate(-57.537 -151.084)" fill="#cacfd6"/>
      <path id="Trazado_258693" data-name="Trazado 258693" d="M222.714,174.555a2.144,2.144,0,0,1-1.972,2.316.4.4,0,0,0-.145.064c-2.963,2.038-5.775,1.482-8.454-.553-1.525-1.158-2.593-.769-3.776.615-1.438,1.684-3.117,3.162-4.7,4.723-.059.059-.19.044-.342.074l1.985-7.24Z" transform="translate(-119.396 -103.178)" fill="#f9f9f9"/>
      <path id="Trazado_258694" data-name="Trazado 258694" d="M207.092,51.806l-11.2,6.535c1.035,5.244-.578,9.406-5.369,11.884a9.4,9.4,0,0,1-10.984-1.313c-3.565-3.015-4.464-6.916-2.994-11.524L165,48.977l-8.364,2.584-1.538,3.99c-1.464,3.8-2.9,7.608-4.411,11.39a1.609,1.609,0,0,0,.32,1.955,7.414,7.414,0,0,1,.529,9.377,7.629,7.629,0,1,1-7.3-11.934,1.913,1.913,0,0,0,1.819-1.507q2.752-7.269,5.6-14.5a1.612,1.612,0,0,0-.49-2.142A10,10,0,0,1,149.2,35.719a10.165,10.165,0,0,1,18.994,5.516,29.918,29.918,0,0,1-.559,3.348l11.91,8.677c4.75-3.325,9.313-3.064,13.795.663l11.14-6.5c-1.524-7.8,1.334-13.68,7.71-16.043a12.718,12.718,0,0,1,12.452,21.779c-4.4,3.562-11.565,4.547-17.547-1.355m17.131-8.448a7.633,7.633,0,1,0-7.6,7.59,7.678,7.678,0,0,0,7.6-7.59m-66.241-7.682a5.091,5.091,0,1,0,5.147,4.993,5.115,5.115,0,0,0-5.147-4.993M191.13,61.168a5.09,5.09,0,1,0-5.084,5.057,5.133,5.133,0,0,0,5.084-5.057M147.851,73.861a2.541,2.541,0,1,0-2.5,2.546,2.562,2.562,0,0,0,2.5-2.546" transform="translate(-81.643 -20.396)" fill="#030302"/>
      <rect id="Rectángulo_53051" data-name="Rectángulo 53051" width="25.318" height="4.907" transform="translate(122.26 45.924)"/>
      <rect id="Rectángulo_53052" data-name="Rectángulo 53052" width="4.901" height="4.958" transform="translate(122.342 56.082)"/>
      <rect id="Rectángulo_53053" data-name="Rectángulo 53053" width="4.954" height="4.955" transform="translate(132.47 56.085)"/>
      <rect id="Rectángulo_53054" data-name="Rectángulo 53054" width="4.954" height="4.955" transform="translate(142.653 56.085)"/>
      <path id="Trazado_258695" data-name="Trazado 258695" d="M53.986,156.488h4.978a18.007,18.007,0,0,0,17.759,17.8v4.851c-9.76.956-22.843-8.275-22.737-22.649" transform="translate(-33.529 -92.79)" fill="#020304"/>
      <path id="Trazado_258696" data-name="Trazado 258696" d="M237.572,198.317a28.008,28.008,0,1,1-28.014,27.994,28.046,28.046,0,0,1,28.014-27.994m-22.92,27.976a22.909,22.909,0,1,0,22.977-22.881,22.956,22.956,0,0,0-22.977,22.881" transform="translate(-122.979 -116.84)" fill="#040403"/>
      <path id="Trazado_258697" data-name="Trazado 258697" d="M320.663,50.252a7.633,7.633,0,1,1-7.508-7.68,7.679,7.679,0,0,1,7.508,7.68" transform="translate(-178.083 -27.291)" fill="#a3314f"/>
      <path id="Trazado_258698" data-name="Trazado 258698" d="M178.658,42.569a5.091,5.091,0,1,1-5.031,5.106,5.134,5.134,0,0,1,5.031-5.106" transform="translate(-102.319 -27.289)" fill="#a3314f"/>
      <path id="Trazado_258699" data-name="Trazado 258699" d="M249.686,95.616a5.09,5.09,0,1,1-5.016-5.124,5.139,5.139,0,0,1,5.016,5.124" transform="translate(-140.199 -54.844)" fill="#a3314f"/>
      <path id="Trazado_258700" data-name="Trazado 258700" d="M154.755,128.98a2.541,2.541,0,1,1-2.506-2.536,2.566,2.566,0,0,1,2.506,2.536" transform="translate(-88.547 -75.515)" fill="#a3314f"/>
      <path id="Trazado_258701" data-name="Trazado 258701" d="M221.543,233.185A22.909,22.909,0,1,1,244.46,256.13a22.948,22.948,0,0,1-22.917-22.945m35.738.088c-1,7.85-5.071,11.923-12.83,12.758v4.976c11.118-.084,18.168-9.673,17.68-17.734Z" transform="translate(-129.87 -123.732)" fill="#fdfdfd"/>
      <path id="Trazado_258702" data-name="Trazado 258702" d="M288.269,264.345h4.85c.488,8.061-6.562,17.65-17.68,17.734V277.1c7.76-.835,11.835-4.907,12.83-12.758" transform="translate(-160.858 -154.804)" fill="#040404"/>
    </g>
  </g>
</svg>
