<svg id="Grupo_166999" data-name="Grupo 166999" xmlns="http://www.w3.org/2000/svg" xmlns:xlink="http://www.w3.org/1999/xlink" width="484.987" height="312.799" viewBox="0 0 484.987 312.799">
  <defs>
    <clipPath id="clip-path">
      <rect id="Rectángulo_52747" data-name="Rectángulo 52747" width="484.987" height="312.799" fill="none"/>
    </clipPath>
    <clipPath id="clip-path-4">
      <rect id="Rectángulo_52749" data-name="Rectángulo 52749" width="35.257" height="3.716" fill="none"/>
    </clipPath>
    <clipPath id="clip-path-5">
      <rect id="Rectángulo_52750" data-name="Rectángulo 52750" width="35.257" height="3.351" fill="none"/>
    </clipPath>
    <clipPath id="clip-path-6">
      <rect id="Rectángulo_52751" data-name="Rectángulo 52751" width="40.982" height="4.319" fill="none"/>
    </clipPath>
    <clipPath id="clip-path-7">
      <rect id="Rectángulo_52752" data-name="Rectángulo 52752" width="40.982" height="3.895" fill="#a3314f"/>
    </clipPath>
    <clipPath id="clip-path-8">
      <rect id="Rectángulo_52753" data-name="Rectángulo 52753" width="38.217" height="4.028" fill="#a3314f"/>
    </clipPath>
    <clipPath id="clip-path-9">
      <rect id="Rectángulo_52754" data-name="Rectángulo 52754" width="38.217" height="3.632" fill="#a3314f"/>
    </clipPath>
    <clipPath id="clip-path-11">
      <rect id="Rectángulo_52760" data-name="Rectángulo 52760" width="55.263" height="61.79" fill="#a3314f"/>
    </clipPath>
    <clipPath id="clip-path-13">
      <rect id="Rectángulo_52763" data-name="Rectángulo 52763" width="1.943" height="1.935" fill="none"/>
    </clipPath>
    <clipPath id="clip-path-14">
      <rect id="Rectángulo_52764" data-name="Rectángulo 52764" width="24.912" height="2.358" fill="none"/>
    </clipPath>
    <clipPath id="clip-path-15">
      <rect id="Rectángulo_52765" data-name="Rectángulo 52765" width="12.162" height="15.188" fill="none"/>
    </clipPath>
    <clipPath id="clip-path-16">
      <rect id="Rectángulo_52766" data-name="Rectángulo 52766" width="1.936" height="1.914" fill="none"/>
    </clipPath>
    <clipPath id="clip-path-17">
      <rect id="Rectángulo_52767" data-name="Rectángulo 52767" width="57.753" height="13.025" fill="none"/>
    </clipPath>
  </defs>
  <g id="Grupo_167000" data-name="Grupo 167000">
    <rect id="Rectángulo_52739" data-name="Rectángulo 52739" width="52.049" height="54.257" transform="translate(418.51 17.044)" fill="#e0e0e0"/>
    <rect id="Rectángulo_52740" data-name="Rectángulo 52740" width="52.049" height="54.257" transform="translate(414.985 17.044)" fill="#fafafa"/>
    <path id="Trazado_256303" data-name="Trazado 256303" d="M653.172,78.954H601.091V24.665h52.081Zm-52.049-.032h52.017V24.7H601.123Z" transform="translate(-186.123 -7.637)" fill="#e0e0e0"/>
    <rect id="Rectángulo_52741" data-name="Rectángulo 52741" width="38.055" height="39.669" transform="translate(421.982 24.338)" fill="#fff"/>
    <g id="Grupo_166951" data-name="Grupo 166951">
      <g id="Grupo_166950" data-name="Grupo 166950" clip-path="url(#clip-path)">
        <path id="Trazado_256304" data-name="Trazado 256304" d="M608.134,93.1a6.329,6.329,0,0,1-.94,1.091c-.608.641-1.462,1.51-2.419,2.453s-1.837,1.783-2.486,2.38a6.028,6.028,0,0,1-1.1.916,6.086,6.086,0,0,1,.934-1.087c.608-.641,1.464-1.512,2.424-2.457s1.843-1.788,2.491-2.385a5.893,5.893,0,0,1,1.1-.911" transform="translate(-186.152 -28.826)" fill="#e0e0e0"/>
        <path id="Trazado_256305" data-name="Trazado 256305" d="M666.373,92.956a6.219,6.219,0,0,1,1.092.939c.641.608,1.509,1.462,2.452,2.419s1.783,1.838,2.38,2.487a6.037,6.037,0,0,1,.916,1.1,6.091,6.091,0,0,1-1.087-.934c-.641-.608-1.511-1.464-2.457-2.425s-1.788-1.842-2.385-2.491a6.006,6.006,0,0,1-.911-1.095" transform="translate(-206.336 -28.783)" fill="#e0e0e0"/>
        <path id="Trazado_256306" data-name="Trazado 256306" d="M666.222,32.338a6.212,6.212,0,0,1,.939-1.092c.608-.641,1.462-1.509,2.42-2.452s1.837-1.783,2.486-2.38a6.04,6.04,0,0,1,1.1-.916,6.09,6.09,0,0,1-.934,1.087c-.608.641-1.464,1.511-2.425,2.457s-1.842,1.788-2.491,2.385a5.944,5.944,0,0,1-1.095.911" transform="translate(-206.289 -7.895)" fill="#e0e0e0"/>
        <path id="Trazado_256307" data-name="Trazado 256307" d="M608.03,32.432a6.194,6.194,0,0,1-1.091-.939c-.641-.608-1.51-1.462-2.453-2.419s-1.783-1.838-2.38-2.486a6.055,6.055,0,0,1-.916-1.1,6.088,6.088,0,0,1,1.087.934c.641.608,1.511,1.464,2.457,2.425s1.788,1.842,2.385,2.491a5.907,5.907,0,0,1,.911,1.095" transform="translate(-186.153 -7.892)" fill="#e0e0e0"/>
        <path id="Trazado_256308" data-name="Trazado 256308" d="M649.125,74.848a1.825,1.825,0,0,1-.008-.193c0-.135,0-.318-.008-.554,0-.5-.01-1.213-.017-2.142-.009-1.879-.022-4.614-.038-8.085-.019-6.948-.044-16.846-.075-28.7l.147.146-37.948.022h0l.168-.168c-.009,14.56-.017,28.182-.023,39.669l-.145-.144,27.479.074,7.718.037,2.043.017.527.008a1.66,1.66,0,0,1,.184.008,1.193,1.193,0,0,1-.168.008l-.512.008-2.014.017-7.686.038-27.571.074h-.145v-.145c-.007-11.488-.015-25.109-.024-39.669V35.01h.173l37.948.021h.147v.147c-.031,11.89-.057,21.82-.075,28.791-.017,3.457-.03,6.18-.039,8.052q-.011,1.375-.017,2.113c0,.229-.006.407-.008.538a1.325,1.325,0,0,1-.008.176" transform="translate(-189.192 -10.841)" fill="#e0e0e0"/>
        <rect id="Rectángulo_52742" data-name="Rectángulo 52742" width="12.698" height="12.698" transform="translate(434.66 37.823)" fill="#ebebeb"/>
        <path id="Trazado_256309" data-name="Trazado 256309" d="M480.609,260.38s-.074-.126-.2-.381l-.558-1.134-2.115-4.376c-1.827-3.819-4.463-9.325-7.718-16.124l-25.339-53.253-.014-.03h.324l-25.351,53.234c-3.256,6.794-5.892,12.3-7.72,16.113L409.8,258.8l-.558,1.134c-.128.254-.2.38-.2.38s.052-.137.168-.4.3-.652.526-1.149l2.054-4.4,7.616-16.162,25.257-53.279.162-.342.162.342.015.03,25.244,53.3c3.211,6.82,5.811,12.343,7.615,16.173.887,1.9,1.578,3.386,2.054,4.405l.525,1.149c.117.26.168.4.168.4" transform="translate(-126.656 -57.155)" fill="#e0e0e0"/>
        <path id="Trazado_256310" data-name="Trazado 256310" d="M442.217,269.08a.976.976,0,0,1,.017-.22c.021-.163.048-.373.084-.638.084-.583.2-1.4.356-2.447.323-2.148.785-5.214,1.354-8.993l4.452-29.671c1.737-11.591,3.343-22.078,4.557-29.661.616-3.772,1.117-6.832,1.468-8.975l.422-2.436c.049-.262.088-.471.119-.632a.95.95,0,0,1,.052-.213.969.969,0,0,1-.017.219l-.084.638c-.085.583-.2,1.4-.356,2.447-.324,2.147-.785,5.214-1.354,8.992l-4.453,29.676c-1.736,11.587-3.343,22.074-4.556,29.656-.617,3.771-1.117,6.832-1.468,8.975l-.423,2.437c-.049.262-.088.471-.119.632a.967.967,0,0,1-.052.213" transform="translate(-136.928 -57.343)" fill="#e0e0e0"/>
        <path id="Trazado_256311" data-name="Trazado 256311" d="M595.814,143.645c-3.013-1.58-4.308,5.723-1.313,7.292.032.017.047.02.052.016.035.037.075.08.131.137a4.2,4.2,0,0,1,.853.964c.688,1.259.6,2.558-.312,3.123-2.144,1.326-5.208.507-7.349-.5-3.749-1.76-8.656-6.685-12.541-9.919-12.094-10.065-24.564-21.6-38.675-22.646-3.16-.235-6.828-.146-9.918,1.483a17.358,17.358,0,0,0-7.534-1.544c-7.515-.193-14.948,3.019-21.79,7.554-10.739,7.116-20.432,17.532-31.139,24.682a12.141,12.141,0,0,1-2.287.98,8.932,8.932,0,0,1-4.815.268c-1.2-.341-2.146-1.01-1.444-3.027a3.423,3.423,0,0,1,.831-1.2,2.4,2.4,0,0,1,.472-.4c2.941-1.609,1.656-8.846-1.35-7.27-5.992,3.14-7.04,16.25-.284,19.025,5.4,2.218,10.52-1.018,15.2-4.75,6.293-5.019,12.462-10.4,18.758-15.409,7.059-5.619,14.35-10.772,22.32-12.405,3.51-.719,7.677-1.095,11.227.521a2.244,2.244,0,0,0,3.682.012,17.166,17.166,0,0,1,8.584-.917c7.974.754,15.469,5.4,22.52,10.863,6.474,5.013,12.79,10.481,19.191,15.7,4.687,3.825,9.1,7.462,14.612,6.955,3.856-.356,7.521-3.3,7.4-9.965-.084-4.579-2.358-8.208-5.079-9.634" transform="translate(-140.19 -37.782)" fill="#ebebeb"/>
        <path id="Trazado_256312" data-name="Trazado 256312" d="M494.526,418V412.8s14.29-1.731,19.306-14.947c.32.755,22.279-9.985,23.259-23.916h8.361V418Z" transform="translate(-153.126 -115.788)" fill="#f5f5f5"/>
        <path id="Trazado_256313" data-name="Trazado 256313" d="M616.971,418V412.8s-14.29-1.731-19.306-14.947c-.32.755-22.279-9.985-23.259-23.916h-8.361V418Z" transform="translate(-175.271 -115.788)" fill="#f5f5f5"/>
        <path id="Trazado_256314" data-name="Trazado 256314" d="M572.122,377.737l-17.52,1.948a4.28,4.28,0,0,0,1.525,3.583,8.622,8.622,0,0,0,3.539,1.712,12.041,12.041,0,0,0,8.26-.333,7.153,7.153,0,0,0,4.2-6.91" transform="translate(-171.72 -116.963)" fill="#ebebeb"/>
        <path id="Trazado_256315" data-name="Trazado 256315" d="M573,363.881a11.27,11.27,0,1,1-11.263-11.658A11.466,11.466,0,0,1,573,363.881" transform="translate(-170.451 -109.063)" fill="#f5f5f5"/>
        <path id="Trazado_256316" data-name="Trazado 256316" d="M558.988,286.584l-17.4-23.343,12.832-18.11-4.132-6.574,4.262-121.409h4.439Z" transform="translate(-167.698 -36.274)" fill="#f5f5f5"/>
        <path id="Trazado_256317" data-name="Trazado 256317" d="M566.793,286.584l17.4-23.343-12.832-18.11,4.132-6.574-4.261-121.409h-4.44Z" transform="translate(-175.502 -36.274)" fill="#f5f5f5"/>
        <path id="Trazado_256318" data-name="Trazado 256318" d="M571.85,101.143a9.176,9.176,0,1,1-9.171-9.492,9.335,9.335,0,0,1,9.171,9.492" transform="translate(-171.389 -28.379)" fill="#f5f5f5"/>
        <path id="Trazado_256319" data-name="Trazado 256319" d="M571.769,101.078a18.277,18.277,0,0,0-.346-2.264,9.5,9.5,0,0,0-3.294-5.134,8.93,8.93,0,0,0-3.838-1.774,8.789,8.789,0,0,0-4.8.431,8.293,8.293,0,0,0-2.287,1.3,8.783,8.783,0,0,0-1.885,1.994,9.39,9.39,0,0,0-1.257,2.551,9.592,9.592,0,0,0,0,5.792,9.422,9.422,0,0,0,1.257,2.552,8.786,8.786,0,0,0,1.885,2,8.306,8.306,0,0,0,2.288,1.3,8.792,8.792,0,0,0,4.806.431,8.939,8.939,0,0,0,3.838-1.774,9.506,9.506,0,0,0,3.294-5.134,18.277,18.277,0,0,0,.346-2.264,3.672,3.672,0,0,1,.007.6,4.433,4.433,0,0,1-.052.723,7.038,7.038,0,0,1-.165.977,9.181,9.181,0,0,1-.963,2.538,9.348,9.348,0,0,1-2.308,2.761,9,9,0,0,1-8.921,1.455,8.605,8.605,0,0,1-2.38-1.339,9.089,9.089,0,0,1-1.963-2.064,9.728,9.728,0,0,1-1.31-2.645,9.908,9.908,0,0,1,0-6.008,9.712,9.712,0,0,1,1.31-2.645,9.069,9.069,0,0,1,1.963-2.063,8.572,8.572,0,0,1,2.38-1.338,9,9,0,0,1,8.92,1.455,9.349,9.349,0,0,1,2.309,2.76,9.176,9.176,0,0,1,.963,2.539,7.021,7.021,0,0,1,.165.977,4.433,4.433,0,0,1,.052.723,3.672,3.672,0,0,1-.007.6" transform="translate(-171.309 -28.314)" fill="#e0e0e0"/>
        <path id="Trazado_256320" data-name="Trazado 256320" d="M409.043,294.282l17.341,17.949h35.941l18.284-17.884Z" transform="translate(-126.656 -91.122)" fill="#ebebeb"/>
        <path id="Trazado_256321" data-name="Trazado 256321" d="M554.19,293.012h17.4l-4.131,6.574h-9.138Z" transform="translate(-171.6 -90.729)" fill="#ebebeb"/>
        <path id="Trazado_256322" data-name="Trazado 256322" d="M571.247,292.96a1.317,1.317,0,0,1,.449-.055v.109c-1.09.072-4.423.125-8.359.125-2.433,0-4.635-.02-6.229-.052-.8-.017-1.441-.036-1.887-.057a2.593,2.593,0,0,1-.691-.07,2.59,2.59,0,0,1,.691-.07c.446-.022,1.091-.041,1.887-.057,1.594-.032,3.8-.052,6.229-.052,3.936,0,7.269.052,8.359.125v.109a1.342,1.342,0,0,1-.449-.055" transform="translate(-171.705 -90.657)" fill="#e0e0e0"/>
        <path id="Trazado_256323" data-name="Trazado 256323" d="M569.035,302.249c0-.019.077-.037.242-.055v.109c-.586.073-2.378.125-4.494.125a31.345,31.345,0,0,1-4.736-.18,31.352,31.352,0,0,1,4.736-.179c2.116,0,3.907.052,4.494.125v.109c-.164-.017-.242-.036-.242-.055" transform="translate(-173.414 -93.533)" fill="#e0e0e0"/>
        <path id="Trazado_256324" data-name="Trazado 256324" d="M541.587,328.768l12.835,17.191a14,14,0,0,1,9.151,0l12.815-17.191Z" transform="translate(-167.698 -101.8)" fill="#ebebeb"/>
        <path id="Trazado_256325" data-name="Trazado 256325" d="M576.4,328.763c0,.1-7.784.18-17.384.18s-17.385-.08-17.385-.18,7.782-.179,17.385-.179,17.384.08,17.384.179" transform="translate(-167.712 -101.743)" fill="#e0e0e0"/>
        <path id="Trazado_256326" data-name="Trazado 256326" d="M569.515,353.262a20.337,20.337,0,0,0-4.752-.587c-2.652.07-4.748.71-4.777.587a4.748,4.748,0,0,1,1.35-.468,15.308,15.308,0,0,1,3.419-.478,11.614,11.614,0,0,1,3.432.408,3.977,3.977,0,0,1,1.327.538" transform="translate(-173.395 -109.09)" fill="#e0e0e0"/>
        <path id="Trazado_256327" data-name="Trazado 256327" d="M572.876,376.742a3.649,3.649,0,0,1-.372.831,10.73,10.73,0,0,1-1.438,2.028,11.59,11.59,0,0,1-2.862,2.335,10.8,10.8,0,0,1-8.79,1.021,11.406,11.406,0,0,1-3.312-1.636,10.5,10.5,0,0,1-1.846-1.665,3.6,3.6,0,0,1-.543-.732,18.146,18.146,0,0,0,2.533,2.188,11.519,11.519,0,0,0,7.63,1.919,11.715,11.715,0,0,0,7-3.6,18.829,18.829,0,0,0,2-2.687" transform="translate(-171.452 -116.654)" fill="#e0e0e0"/>
        <path id="Trazado_256328" data-name="Trazado 256328" d="M584.224,408.361c0,.1-13.787.179-30.791.179s-30.793-.08-30.793-.179,13.784-.18,30.793-.18,30.791.08,30.791.18" transform="translate(-161.831 -126.39)" fill="#e0e0e0"/>
        <path id="Trazado_256329" data-name="Trazado 256329" d="M594.449,430.176c0,.1-22.455.18-50.147.18s-50.152-.08-50.152-.18S516.6,430,544.3,430s50.147.08,50.147.179" transform="translate(-153.009 -133.145)" fill="#e0e0e0"/>
        <path id="Trazado_256330" data-name="Trazado 256330" d="M476.573,303.624c0,.1-13.08.18-29.212.18s-29.215-.08-29.215-.18,13.077-.179,29.215-.179,29.212.08,29.212.179" transform="translate(-129.476 -93.959)" fill="#e0e0e0"/>
        <path id="Trazado_256331" data-name="Trazado 256331" d="M460.717,182.653h-.928a.923.923,0,0,1-.923-.924v-8.112a.923.923,0,0,1,.923-.923h.928a.923.923,0,0,1,.924.923v8.112a.924.924,0,0,1-.924.924" transform="translate(-142.084 -53.473)" fill="#e0e0e0"/>
        <path id="Trazado_256332" data-name="Trazado 256332" d="M670.416,259.842s-.074-.126-.2-.381l-.558-1.134-2.115-4.376c-1.827-3.819-4.463-9.325-7.718-16.124l-25.34-53.253-.014-.03h.324l-25.351,53.234c-3.256,6.794-5.891,12.3-7.72,16.113l-2.115,4.373-.558,1.134c-.128.254-.2.38-.2.38s.052-.137.168-.4.3-.652.526-1.149l2.054-4.4,7.616-16.162,25.257-53.279.162-.342.162.342.015.03,25.244,53.3,7.614,16.173c.888,1.9,1.579,3.386,2.055,4.405l.525,1.149c.117.26.168.4.168.4" transform="translate(-185.428 -56.989)" fill="#e0e0e0"/>
        <path id="Trazado_256333" data-name="Trazado 256333" d="M632.023,268.542a.979.979,0,0,1,.017-.22c.021-.163.048-.373.084-.638.084-.583.2-1.4.355-2.447.323-2.148.785-5.214,1.354-8.993l4.452-29.671c1.737-11.591,3.343-22.078,4.557-29.661.617-3.772,1.117-6.832,1.468-8.975.18-1.04.322-1.856.422-2.436.05-.262.089-.471.119-.632a.975.975,0,0,1,.053-.213,1.035,1.035,0,0,1-.017.22c-.021.163-.049.373-.084.637-.085.583-.2,1.4-.355,2.447-.324,2.147-.786,5.213-1.354,8.992l-4.453,29.676c-1.736,11.587-3.343,22.074-4.556,29.656-.617,3.771-1.117,6.832-1.468,8.975-.18,1.04-.322,1.856-.422,2.437-.049.262-.088.471-.119.632a1.014,1.014,0,0,1-.052.213" transform="translate(-195.7 -57.177)" fill="#e0e0e0"/>
        <path id="Trazado_256334" data-name="Trazado 256334" d="M598.849,293.744l17.341,17.949h35.941l18.284-17.884Z" transform="translate(-185.428 -90.955)" fill="#ebebeb"/>
        <path id="Trazado_256335" data-name="Trazado 256335" d="M666.379,303.086c0,.1-13.08.18-29.212.18s-29.215-.081-29.215-.18,13.077-.179,29.215-.179,29.212.08,29.212.179" transform="translate(-188.247 -93.792)" fill="#e0e0e0"/>
        <path id="Trazado_256336" data-name="Trazado 256336" d="M650.524,182.115H649.6a.924.924,0,0,1-.923-.924v-8.112a.923.923,0,0,1,.923-.923h.928a.923.923,0,0,1,.924.923v8.112a.924.924,0,0,1-.924.924" transform="translate(-200.856 -53.307)" fill="#e0e0e0"/>
        <rect id="Rectángulo_52743" data-name="Rectángulo 52743" width="69.892" height="101.306" transform="translate(40.74 4.628)" fill="#e0e0e0"/>
        <rect id="Rectángulo_52744" data-name="Rectángulo 52744" width="69.892" height="101.306" transform="translate(37.239 4.628)" fill="#f5f5f5"/>
        <rect id="Rectángulo_52745" data-name="Rectángulo 52745" width="52.525" height="79.362" transform="translate(45.922 15.601)" fill="#fff"/>
        <path id="Trazado_256337" data-name="Trazado 256337" d="M118.959,101.874s-.007-.134-.01-.388-.006-.636-.01-1.125c0-1-.012-2.458-.021-4.353-.011-3.8-.027-9.347-.047-16.348-.021-13.994-.051-33.811-.086-57.147l.175.175L66.44,22.7h-.006l.191-.19c-.014,29.939-.028,57.542-.039,79.362l-.152-.151,38.231.079,10.562.039,2.772.017c.628.006.959.017.959.017s-.309.011-.926.017l-2.745.017-10.528.039-38.326.08h-.151v-.152c-.011-21.819-.024-49.423-.039-79.362v-.19h.2l52.519.015h.175v.175c-.035,23.383-.064,43.239-.086,57.262-.02,6.984-.036,12.514-.047,16.308-.009,1.881-.016,3.329-.021,4.318q-.007.721-.01,1.105c0,.247-.01.368-.01.368" transform="translate(-20.512 -6.912)" fill="#e0e0e0"/>
        <path id="Trazado_256338" data-name="Trazado 256338" d="M151.2,6.7a12.087,12.087,0,0,1-1.246,1.81c-.812,1.085-1.964,2.563-3.279,4.159s-2.545,3.011-3.455,4.016a12.15,12.15,0,0,1-1.537,1.57,13.019,13.019,0,0,1,1.334-1.745l3.365-4.083,3.362-4.084A13.078,13.078,0,0,1,151.2,6.7" transform="translate(-43.869 -2.075)" fill="#e0e0e0"/>
        <path id="Trazado_256339" data-name="Trazado 256339" d="M142.99,137.185a65.058,65.058,0,0,0,9.161,11.457" transform="translate(-44.276 -42.478)" fill="#fff"/>
        <path id="Trazado_256340" data-name="Trazado 256340" d="M152.151,148.642a10.423,10.423,0,0,1-1.6-1.453,51.215,51.215,0,0,1-6.5-8.126,10.4,10.4,0,0,1-1.066-1.878,14.469,14.469,0,0,1,1.288,1.727c.77,1.082,1.854,2.561,3.117,4.143s2.469,2.961,3.354,3.951a14.481,14.481,0,0,1,1.4,1.637" transform="translate(-44.275 -42.478)" fill="#e0e0e0"/>
        <path id="Trazado_256341" data-name="Trazado 256341" d="M53.926,148.266l9.155-11.295" transform="translate(-16.698 -42.412)" fill="#fff"/>
        <path id="Trazado_256342" data-name="Trazado 256342" d="M63.08,136.97a69.763,69.763,0,0,1-4.429,5.767,69.624,69.624,0,0,1-4.726,5.528,69.777,69.777,0,0,1,4.43-5.767,69.522,69.522,0,0,1,4.725-5.528" transform="translate(-16.697 -42.411)" fill="#e0e0e0"/>
        <path id="Trazado_256343" data-name="Trazado 256343" d="M53.94,6.7a63.327,63.327,0,0,1,4.443,5.312,63.259,63.259,0,0,1,4.146,5.548,63.058,63.058,0,0,1-4.444-5.312A63.141,63.141,0,0,1,53.94,6.7" transform="translate(-16.701 -2.075)" fill="#e0e0e0"/>
        <rect id="Rectángulo_52746" data-name="Rectángulo 52746" width="17.588" height="49.936" transform="translate(64.495 31.714)" fill="#e0e0e0"/>
        <path id="Trazado_256344" data-name="Trazado 256344" d="M19.391,336.32A23.877,23.877,0,0,0,9.175,332.8a6.806,6.806,0,0,0-4.832.888.994.994,0,0,0-.5.882,1.078,1.078,0,0,0,.472.6,14.606,14.606,0,0,0,15.073,1.142" transform="translate(-1.188 -103.026)" fill="#e0e0e0"/>
        <path id="Trazado_256345" data-name="Trazado 256345" d="M21.117,330.329a49.79,49.79,0,0,1-6.6-5.805,16.689,16.689,0,0,1-4.137-7.65,3.086,3.086,0,0,1,.327-2.56c5.259,4.107,9.391,9.42,10.408,16.015" transform="translate(-3.177 -97.325)" fill="#e0e0e0"/>
        <path id="Trazado_256346" data-name="Trazado 256346" d="M26.138,330.783a23.856,23.856,0,0,1,.122-8.663,11.713,11.713,0,0,1,4.614-7.148c.909,2.124.518,4.572-.122,6.791a33,33,0,0,1-4.575,9.633" transform="translate(-7.989 -97.528)" fill="#e0e0e0"/>
        <path id="Trazado_256347" data-name="Trazado 256347" d="M27.98,351.255a15.1,15.1,0,0,0-8.192,4.146,15.5,15.5,0,0,0-4.686,8.044c3.07-.189,5.675-2.354,7.564-4.781s3.2-5.091,5.272-7.361" transform="translate(-4.676 -108.763)" fill="#e0e0e0"/>
        <path id="Trazado_256348" data-name="Trazado 256348" d="M34.746,344.824a20.2,20.2,0,0,1,2.333-19.113,24.333,24.333,0,0,1-2.333,19.113" transform="translate(-10.323 -100.854)" fill="#e0e0e0"/>
        <path id="Trazado_256349" data-name="Trazado 256349" d="M38.884,365.133a14.609,14.609,0,0,0-13.97,8.042c-.173.346-.326.786-.094,1.095a1.036,1.036,0,0,0,.926.273c2.753-.178,5.194-1.835,7.207-3.721s3.767-4.066,5.992-5.7" transform="translate(-7.649 -113.052)" fill="#e0e0e0"/>
        <path id="Trazado_256350" data-name="Trazado 256350" d="M44.406,355.824a26.015,26.015,0,0,1-.26-14.534c.512-1.871,1.372-3.84,3.1-4.718a.611.611,0,0,1,.474-.084.627.627,0,0,1,.3.348,8.75,8.75,0,0,1,.732,4.17,26.144,26.144,0,0,1-.654,4.221c-.545,2.58-.835,5.352-2.249,7.577a15.278,15.278,0,0,0-.9,1.664c-.268.565-.27.764-.516,1.214" transform="translate(-13.388 -104.184)" fill="#e0e0e0"/>
        <path id="Trazado_256351" data-name="Trazado 256351" d="M70.825,361.216a18.74,18.74,0,0,1,3.284-15.408c.236-.307.549-.636.934-.6.59.055.743.84.716,1.432a27.837,27.837,0,0,1-4.934,14.576" transform="translate(-21.775 -106.89)" fill="#e0e0e0"/>
        <path id="Trazado_256352" data-name="Trazado 256352" d="M73.4,367.618a22.414,22.414,0,0,0,18.392-3.74,14.891,14.891,0,0,0-9.956-1.222,14.2,14.2,0,0,0-8.435,4.962" transform="translate(-22.729 -112.18)" fill="#e0e0e0"/>
        <path id="Trazado_256353" data-name="Trazado 256353" d="M75.391,360.777a21.255,21.255,0,0,1,16.692-9.652,10.28,10.28,0,0,1-5.46,6.036,30.284,30.284,0,0,1-8.012,2.344c-1.066.207-2.529.435-3.22,1.272" transform="translate(-23.344 -108.723)" fill="#e0e0e0"/>
        <path id="Trazado_256354" data-name="Trazado 256354" d="M70.472,332.6a48.492,48.492,0,0,0,2.135-9.775,16.278,16.278,0,0,0-1.947-9.67,21.288,21.288,0,0,0-.285,19.781" transform="translate(-21.079 -96.966)" fill="#e0e0e0"/>
        <path id="Trazado_256355" data-name="Trazado 256355" d="M87.3,327.479c3.777-6.865,11.483-12.348,19.281-13.117-3.008,7.49-11.211,13.278-19.281,13.117" transform="translate(-27.032 -97.339)" fill="#e0e0e0"/>
        <path id="Trazado_256356" data-name="Trazado 256356" d="M83.857,334.8c5.633.858,10.433,4.456,15.7,6.637a7.034,7.034,0,0,0,3.548.679,2.778,2.778,0,0,0,1.739-4.914,7.6,7.6,0,0,0-2.577-1.564,28.647,28.647,0,0,0-17.922-1" transform="translate(-25.966 -103.321)" fill="#e0e0e0"/>
        <path id="Trazado_256357" data-name="Trazado 256357" d="M79.136,340.911c1.275.365,1.711,1.025,2.721,1.885a29.354,29.354,0,0,0,11.9,6.115c.455.113,1.051.158,1.276-.253.2-.359-.052-.793-.308-1.113a16.383,16.383,0,0,0-7.187-4.879c-2.747-1.023-5.127-2.256-8.406-1.992" transform="translate(-24.504 -105.476)" fill="#e0e0e0"/>
        <path id="Trazado_256358" data-name="Trazado 256358" d="M73.807,306.195a22.526,22.526,0,0,0,17.27,5.876,1.179,1.179,0,0,0,.786-.282c.435-.472-.086-1.2-.593-1.6-5.078-3.959-11.228-5.6-17.463-4" transform="translate(-22.854 -94.622)" fill="#e0e0e0"/>
        <path id="Trazado_256359" data-name="Trazado 256359" d="M80.125,302.052a24.071,24.071,0,0,1,21.55-3.556,17.107,17.107,0,0,1-10.269,4.509,32.5,32.5,0,0,1-11.281-.953" transform="translate(-24.81 -92.076)" fill="#e0e0e0"/>
        <path id="Trazado_256360" data-name="Trazado 256360" d="M76.308,281.437c-.5-5.068-.175-9.069-.527-14.161-.028-.407-.115-.9-.5-1.042-.53-.2-.971.447-1.145.988a16.231,16.231,0,0,0,2.161,14.1" transform="translate(-22.727 -82.425)" fill="#e0e0e0"/>
        <path id="Trazado_256361" data-name="Trazado 256361" d="M77.086,281.938a29.8,29.8,0,0,0,8.4-8.159c1.658-2.269,3.056-4.987,2.679-7.772a8.036,8.036,0,0,0-6.056,3.007,16.9,16.9,0,0,0-3.087,6.211c-.672,2.231-1.143,4.522-1.932,6.713" transform="translate(-23.869 -82.366)" fill="#e0e0e0"/>
        <path id="Trazado_256362" data-name="Trazado 256362" d="M88.985,280.072a67.7,67.7,0,0,0,20.66-12.182c-2.468-.995-5.294-.4-7.761.6a24.472,24.472,0,0,0-13.007,11.53" transform="translate(-27.52 -82.791)" fill="#e0e0e0"/>
        <path id="Trazado_256363" data-name="Trazado 256363" d="M80.445,290.42a42.014,42.014,0,0,0,11.472.056,48.655,48.655,0,0,0,10.71-3.559,1.254,1.254,0,0,0,.728-.552.836.836,0,0,0-.261-.916,2.2,2.2,0,0,0-.913-.428,19.83,19.83,0,0,0-11.574.691,53.758,53.758,0,0,0-10.161,4.708" transform="translate(-24.909 -88.076)" fill="#e0e0e0"/>
        <path id="Trazado_256364" data-name="Trazado 256364" d="M48.043,299.186a20.293,20.293,0,0,1-.185-16.8c1.582,2.411,1.776,5.481,1.486,8.351s-1.163,5.822-1.219,8.705" transform="translate(-14.284 -87.44)" fill="#e0e0e0"/>
        <path id="Trazado_256365" data-name="Trazado 256365" d="M26.035,299.123a23.424,23.424,0,0,0-17.407,7.415,16.263,16.263,0,0,0,9.532-1.767,48.479,48.479,0,0,0,8.168-5.467" transform="translate(-2.672 -92.62)" fill="#e0e0e0"/>
        <path id="Trazado_256366" data-name="Trazado 256366" d="M16.375,295.6c-3.178-.258-6.236-.651-9.292.285A11.146,11.146,0,0,0,0,301.892a16.8,16.8,0,0,0,8.712-1.645,50.115,50.115,0,0,0,7.663-4.645" transform="translate(0 -91.436)" fill="#e0e0e0"/>
        <path id="Trazado_256367" data-name="Trazado 256367" d="M30.351,293.706c-2.859-1.874-5.795-3.781-9.124-4.557s-7.187-.2-9.508,2.306c2.7,1.582,5.965,1.768,9.089,1.766s6.955-.038,9.9,1" transform="translate(-3.628 -89.433)" fill="#e0e0e0"/>
        <path id="Trazado_256368" data-name="Trazado 256368" d="M36.244,287.15c-4.888-4.8-6.741-13.422-4.775-19.984a30.449,30.449,0,0,1,4.775,19.984" transform="translate(-9.505 -82.725)" fill="#e0e0e0"/>
        <path id="Trazado_256369" data-name="Trazado 256369" d="M58.2,269.34c.922-2.143,1.571-4.393,2.4-6.574a18.887,18.887,0,0,1,3.418-6.061,9,9,0,0,1,6.054-3.138A24.383,24.383,0,0,1,58.32,269.374" transform="translate(-18.021 -78.515)" fill="#e0e0e0"/>
        <path id="Trazado_256370" data-name="Trazado 256370" d="M49.007,276.654c-1.526-2.1-3.288-4.95-5.356-6.518a8.962,8.962,0,0,0-7.287-1.914,16.972,16.972,0,0,0,12.644,8.431" transform="translate(-11.259 -82.996)" fill="#e0e0e0"/>
        <path id="Trazado_256371" data-name="Trazado 256371" d="M54.222,269.6a36.278,36.278,0,0,1-2.411-7.809,12.181,12.181,0,0,1,1.223-7.94c2.683,5.072,3.547,10.516,1.325,15.806" transform="translate(-15.988 -78.604)" fill="#e0e0e0"/>
        <path id="Trazado_256372" data-name="Trazado 256372" d="M58.237,249.033C59.756,244,64.36,240.3,69.331,238.6a4.14,4.14,0,0,1,1.945-.292,1.688,1.688,0,0,1,1.433,1.2c.182.855-.525,1.622-1.189,2.19a37.772,37.772,0,0,1-13.283,7.334" transform="translate(-18.033 -73.782)" fill="#e0e0e0"/>
        <path id="Trazado_256373" data-name="Trazado 256373" d="M58.281,240.317a36.02,36.02,0,0,1,1.45-9.6,12.137,12.137,0,0,1,6.043-7.3c.5,3.274-.942,6.531-2.684,9.349s-3.842,5.477-4.888,8.62" transform="translate(-18.022 -69.179)" fill="#e0e0e0"/>
        <path id="Trazado_256374" data-name="Trazado 256374" d="M53.972,243.224c-1.256-3.664-1.386-8.319-3.58-11.511-1.534-2.231-3.99-3.751-5.312-6.115a9.3,9.3,0,0,0,.309,6.942,20.07,20.07,0,0,0,4.059,5.811c1.623,1.734,3.013,3.039,4.523,4.873" transform="translate(-13.793 -69.854)" fill="#e0e0e0"/>
        <path id="Trazado_256375" data-name="Trazado 256375" d="M58.152,358.468c-.1,0-.182-24.444-.189-54.591s.067-54.6.164-54.6.182,24.439.189,54.6-.067,54.591-.164,54.591" transform="translate(-17.948 -77.188)" fill="#e0e0e0"/>
        <path id="Trazado_256376" data-name="Trazado 256376" d="M79.585,301.374a5.247,5.247,0,0,1-.919.345l-2.529.853c-2.133.726-5.062,1.778-8.242,3.082-3.148,1.35-6.117,2.447-7.809,3.912a5.727,5.727,0,0,0-1.568,2.076c-.243.574-.286.925-.318.918-.012,0-.008-.089.01-.256a3.86,3.86,0,0,1,.179-.712,5.523,5.523,0,0,1,1.531-2.213,13.721,13.721,0,0,1,3.388-2.1c1.355-.633,2.857-1.293,4.452-1.948,3.189-1.307,6.142-2.325,8.3-2.992,1.078-.336,1.957-.584,2.567-.748a5.235,5.235,0,0,1,.959-.213" transform="translate(-18.019 -93.317)" fill="#e0e0e0"/>
        <path id="Trazado_256377" data-name="Trazado 256377" d="M87.34,276.463a1.5,1.5,0,0,1-.258.275l-.784.737-2.929,2.661-9.746,8.678c-3.8,3.387-7.092,6.623-9.371,9.059-1.14,1.216-2.039,2.224-2.652,2.928l-.708.808a1.485,1.485,0,0,1-.264.269,1.51,1.51,0,0,1,.209-.313c.148-.2.364-.489.658-.852.582-.732,1.454-1.768,2.574-3.009a123.729,123.729,0,0,1,9.319-9.153c3.818-3.379,7.292-6.413,9.817-8.6l3-2.576.828-.687a1.532,1.532,0,0,1,.3-.222" transform="translate(-18.773 -85.604)" fill="#e0e0e0"/>
        <path id="Trazado_256378" data-name="Trazado 256378" d="M73.5,295.544c-.1-.044.7-1.88,1.487-4.2s1.176-4.279,1.276-4.262a14.316,14.316,0,0,1-.942,4.376,28.551,28.551,0,0,1-1.184,2.937,4.585,4.585,0,0,1-.638,1.149" transform="translate(-22.756 -88.892)" fill="#e0e0e0"/>
        <path id="Trazado_256379" data-name="Trazado 256379" d="M51.914,312.766a4.356,4.356,0,0,1-.586-.681l-1.5-1.926c-1.261-1.631-3.006-3.881-4.96-6.345s-3.753-4.673-5.055-6.272l-1.535-1.9a4.375,4.375,0,0,1-.53-.725,4.352,4.352,0,0,1,.634.636c.391.424.946,1.049,1.621,1.828,1.352,1.56,3.182,3.747,5.14,6.213s3.672,4.745,4.884,6.415c.605.835,1.088,1.517,1.412,1.994a4.391,4.391,0,0,1,.476.762" transform="translate(-11.687 -91.318)" fill="#e0e0e0"/>
        <path id="Trazado_256380" data-name="Trazado 256380" d="M50.395,308.748a8.6,8.6,0,0,1-1.962-3.673,10.489,10.489,0,0,1-.445-3.7l.156.013c-.07.283-.121.432-.148.427s-.03-.162-.006-.453l.156.012a16.853,16.853,0,0,0,.626,3.6,27.439,27.439,0,0,0,1.624,3.774" transform="translate(-14.852 -93.313)" fill="#e0e0e0"/>
        <path id="Trazado_256381" data-name="Trazado 256381" d="M37.981,300.371a6.336,6.336,0,0,0-1.37-.8,9.168,9.168,0,0,0-3.8-.3,23.417,23.417,0,0,0-3.83.619,11.523,11.523,0,0,1-1.576.378,5.475,5.475,0,0,1,1.508-.619,17.515,17.515,0,0,1,3.871-.73,8.3,8.3,0,0,1,3.924.423,2.428,2.428,0,0,1,1.276,1.027" transform="translate(-8.484 -92.542)" fill="#e0e0e0"/>
        <path id="Trazado_256382" data-name="Trazado 256382" d="M33.982,297.366c-.027.055-.8-.32-2.1-.764a21.111,21.111,0,0,0-10.577-.806c-1.354.242-2.173.5-2.191.437a2,2,0,0,1,.556-.237,13.1,13.1,0,0,1,1.585-.445,18.664,18.664,0,0,1,10.712.817,13.062,13.062,0,0,1,1.5.68,1.981,1.981,0,0,1,.514.319" transform="translate(-5.919 -91.381)" fill="#e0e0e0"/>
        <path id="Trazado_256383" data-name="Trazado 256383" d="M56.977,282.273a43.377,43.377,0,0,1-1.531-5.317,43.362,43.362,0,0,1-1.188-5.4,43.512,43.512,0,0,1,1.531,5.318,43.459,43.459,0,0,1,1.188,5.4" transform="translate(-16.797 -84.084)" fill="#e0e0e0"/>
        <path id="Trazado_256384" data-name="Trazado 256384" d="M56.461,284.5a25.585,25.585,0,0,0-1.7-3.183,14.032,14.032,0,0,0-2.5-2.577,2.333,2.333,0,0,1,.964.5,7.773,7.773,0,0,1,1.822,1.877,7.057,7.057,0,0,1,1.408,3.386" transform="translate(-16.184 -86.306)" fill="#e0e0e0"/>
        <path id="Trazado_256385" data-name="Trazado 256385" d="M48.193,372.562c-.038.006-.11-.587-.385-1.626a23.2,23.2,0,0,0-1.634-4.232,58.554,58.554,0,0,0-8.667-12.21c-1.934-2.211-3.812-4.3-5.406-6.293a44.262,44.262,0,0,1-3.865-5.575,26.8,26.8,0,0,1-1.951-4.137c-.179-.51-.311-.908-.383-1.183a2,2,0,0,1-.1-.423c.032-.01.209.56.612,1.556a30.251,30.251,0,0,0,2.039,4.061,46.661,46.661,0,0,0,3.9,5.5c1.6,1.976,3.479,4.05,5.418,6.265A55.5,55.5,0,0,1,46.4,366.6a21.139,21.139,0,0,1,1.542,4.308,11.923,11.923,0,0,1,.216,1.226,2.035,2.035,0,0,1,.036.433" transform="translate(-7.988 -104.313)" fill="#e0e0e0"/>
        <path id="Trazado_256386" data-name="Trazado 256386" d="M77.539,356.982a8.773,8.773,0,0,1-1.011.568,22.046,22.046,0,0,0-2.624,1.734,30.153,30.153,0,0,0-3.446,3.143c-1.21,1.278-2.456,2.761-3.727,4.352-2.543,3.189-4.92,6.012-6.344,8.266-.723,1.118-1.248,2.06-1.593,2.721a8.739,8.739,0,0,1-.557,1.019.982.982,0,0,1,.094-.287c.075-.182.177-.455.34-.793a25.728,25.728,0,0,1,1.5-2.793,90.893,90.893,0,0,1,6.28-8.354c1.274-1.593,2.535-3.08,3.767-4.355a27.982,27.982,0,0,1,3.532-3.118,18.427,18.427,0,0,1,2.71-1.657c.336-.168.609-.271.79-.349a.97.97,0,0,1,.286-.1" transform="translate(-18.032 -110.536)" fill="#e0e0e0"/>
        <path id="Trazado_256387" data-name="Trazado 256387" d="M80.761,367.217a14.731,14.731,0,0,1-2.139.311,28.2,28.2,0,0,0-5.071,1,15.23,15.23,0,0,0-4.54,2.382c-1.047.809-1.54,1.478-1.589,1.439a1.645,1.645,0,0,1,.317-.492,8.041,8.041,0,0,1,1.114-1.141,13.745,13.745,0,0,1,4.59-2.525,22.9,22.9,0,0,1,5.155-.911,11.829,11.829,0,0,1,2.163-.062" transform="translate(-20.876 -113.698)" fill="#e0e0e0"/>
        <path id="Trazado_256388" data-name="Trazado 256388" d="M68.323,370.287c-.112-.064.852-1.535,1.6-3.515.7-2,.866-3.75.991-3.73a3.383,3.383,0,0,1-.035,1.147,12.317,12.317,0,0,1-.624,2.7,13.1,13.1,0,0,1-1.24,2.479,3.458,3.458,0,0,1-.692.915" transform="translate(-21.153 -112.413)" fill="#e0e0e0"/>
        <path id="Trazado_256389" data-name="Trazado 256389" d="M83.794,329.477a1.63,1.63,0,0,1-.342.182l-1,.457c-.44.188-.975.428-1.577.746s-1.309.632-2.043,1.074l-1.167.663c-.4.233-.8.509-1.23.775-.86.521-1.722,1.164-2.641,1.82a45.314,45.314,0,0,0-10.171,10.525c-.624.942-1.236,1.825-1.729,2.7-.252.435-.514.844-.733,1.256l-.623,1.189c-.416.748-.712,1.464-1,2.079s-.518,1.154-.691,1.6l-.422,1.02a1.6,1.6,0,0,1-.171.348,1.6,1.6,0,0,1,.1-.372l.36-1.046c.155-.455.358-1.007.639-1.63s.557-1.352.961-2.112l.606-1.206c.214-.418.472-.834.72-1.274.485-.89,1.092-1.785,1.713-2.739a43.658,43.658,0,0,1,10.246-10.6c.931-.654,1.805-1.291,2.678-1.806.432-.263.838-.535,1.249-.763l1.185-.648c.746-.429,1.463-.737,2.078-1.032s1.158-.524,1.607-.694l1.033-.4a1.589,1.589,0,0,1,.369-.115" transform="translate(-18.035 -102.019)" fill="#e0e0e0"/>
        <path id="Trazado_256390" data-name="Trazado 256390" d="M73.122,343.159a2.457,2.457,0,0,1,.84-1.251,5.3,5.3,0,0,1,3.385-1.3,9.246,9.246,0,0,1,3.562.7,5.072,5.072,0,0,1,1.346.654,8.22,8.22,0,0,1-1.428-.418,10.748,10.748,0,0,0-3.468-.579,5.511,5.511,0,0,0-3.233,1.135,10.022,10.022,0,0,0-1,1.062" transform="translate(-22.641 -105.466)" fill="#e0e0e0"/>
        <path id="Trazado_256391" data-name="Trazado 256391" d="M69.814,344.85a9.034,9.034,0,0,0,.746-6.391,2.074,2.074,0,0,1,.4.911,6.466,6.466,0,0,1-.547,4.685c-.3.54-.562.819-.6.795" transform="translate(-21.615 -104.801)" fill="#e0e0e0"/>
        <path id="Trazado_256392" data-name="Trazado 256392" d="M33.782,393.639c.527,9.342,3.342,18.842,7.672,28.448H60.283c4.129-9.51,6.75-19,7.216-28.448Z" transform="translate(-10.46 -121.887)" fill="#e0e0e0"/>
        <path id="Trazado_256393" data-name="Trazado 256393" d="M65.781,415.456c0,.1-6.2.177-13.845.177s-13.847-.079-13.847-.177,6.2-.177,13.847-.177,13.845.079,13.845.177" transform="translate(-11.794 -128.587)" fill="#fafafa"/>
        <path id="Trazado_256394" data-name="Trazado 256394" d="M65.947,420.358c0,.1-5.812.177-12.979.177s-12.981-.079-12.981-.177,5.811-.177,12.981-.177,12.979.079,12.979.177" transform="translate(-12.382 -130.105)" fill="#fafafa"/>
        <path id="Trazado_256395" data-name="Trazado 256395" d="M45.255,402.523a53.3,53.3,0,0,1,0,8.674,53.3,53.3,0,0,1,0-8.674" transform="translate(-13.958 -124.638)" fill="#fafafa"/>
        <path id="Trazado_256396" data-name="Trazado 256396" d="M59.869,402.523a57.162,57.162,0,0,1,0,8.983,57.162,57.162,0,0,1,0-8.983" transform="translate(-18.483 -124.638)" fill="#fafafa"/>
        <path id="Trazado_256397" data-name="Trazado 256397" d="M73.587,402.413a59.455,59.455,0,0,1,0,9.162,59.458,59.458,0,0,1,0-9.162" transform="translate(-22.731 -124.604)" fill="#fafafa"/>
        <path id="Trazado_256398" data-name="Trazado 256398" d="M67.187,402.444c0,.1-7.272.177-16.239.177s-16.241-.079-16.241-.177,7.27-.177,16.241-.177,16.239.079,16.239.177" transform="translate(-10.747 -124.558)" fill="#fafafa"/>
      </g>
    </g>
    <g id="Grupo_166953" data-name="Grupo 166953">
      <g id="Grupo_166952" data-name="Grupo 166952" clip-path="url(#clip-path)">
        <path id="Trazado_256399" data-name="Trazado 256399" d="M484.575,437.675c0,.1-107.108.18-239.2.18-132.141,0-239.227-.08-239.227-.18s107.086-.179,239.227-.179c132.095,0,239.2.08,239.2.179" transform="translate(-1.903 -135.467)" fill="#263238"/>
      </g>
    </g>
    <g id="Grupo_166973" data-name="Grupo 166973">
      <g id="Grupo_166972" data-name="Grupo 166972" clip-path="url(#clip-path)">
        <path id="Trazado_256400" data-name="Trazado 256400" d="M93.343,372.777h110.91v-30.5H93.343a15.249,15.249,0,1,0,0,30.5" transform="translate(-24.181 -105.983)" fill="#455a64"/>
        <path id="Trazado_256401" data-name="Trazado 256401" d="M94.712,371.092h111.06V347.66H94.712a11.716,11.716,0,1,0,0,23.432" transform="translate(-25.699 -107.65)" fill="#f5f5f5"/>
        <path id="Trazado_256402" data-name="Trazado 256402" d="M285.3,347.66a12.257,12.257,0,0,0-5.442,10.353c0,7.174,4.576,13.079,4.576,13.079H247.95s-4.817-3.041-4.34-11.716a11.706,11.706,0,0,1,3.815-8.4c3.231-2.714,8.07-3.32,8.07-3.32Z" transform="translate(-75.421 -107.65)" fill="#e0e0e0"/>
        <path id="Trazado_256403" data-name="Trazado 256403" d="M260.84,345.994h33.4a1.858,1.858,0,1,0,0-3.716h-33.4Z" transform="translate(-80.767 -105.983)" fill="#455a64"/>
        <path id="Trazado_256404" data-name="Trazado 256404" d="M260.84,384.953h33.582a1.676,1.676,0,1,0,0-3.351H260.84Z" transform="translate(-80.767 -118.16)" fill="#455a64"/>
        <path id="Trazado_256405" data-name="Trazado 256405" d="M258.413,376.758c0-.1,5.729-.18,12.794-.18s12.8.08,12.8.18-5.728.179-12.8.179-12.794-.08-12.794-.179" transform="translate(-80.015 -116.604)" fill="#263238"/>
        <path id="Trazado_256406" data-name="Trazado 256406" d="M253,367.741c0-.1,6.255-.18,13.97-.18s13.972.08,13.972.18-6.255.179-13.972.179-13.97-.08-13.97-.179" transform="translate(-78.34 -113.812)" fill="#263238"/>
        <path id="Trazado_256407" data-name="Trazado 256407" d="M250,363.733c0-.1,5.171-.18,11.55-.18s11.551.08,11.551.18-5.171.18-11.551.18-11.55-.08-11.55-.18" transform="translate(-77.409 -112.571)" fill="#263238"/>
        <path id="Trazado_256408" data-name="Trazado 256408" d="M252.6,356.92c0-.1,6.317-.179,14.109-.179s14.11.08,14.11.179-6.316.18-14.11.18-14.109-.08-14.109-.18" transform="translate(-78.216 -110.462)" fill="#263238"/>
        <path id="Trazado_256409" data-name="Trazado 256409" d="M263.221,350.909c0-.1,4.955-.179,11.066-.179s11.066.08,11.066.179-4.954.18-11.066.18-11.066-.08-11.066-.18" transform="translate(-81.504 -108.6)" fill="#263238"/>
        <path id="Trazado_256410" data-name="Trazado 256410" d="M104.729,355.117c0-.1,21.058-.18,47.029-.18s47.033.08,47.033.18-21.053.18-47.033.18-47.029-.08-47.029-.18" transform="translate(-32.428 -109.903)" fill="#263238"/>
        <path id="Trazado_256411" data-name="Trazado 256411" d="M95.111,359.326c0-.1,21.151-.18,47.236-.18s47.241.08,47.241.18-21.147.179-47.241.179-47.236-.08-47.236-.179" transform="translate(-29.45 -111.206)" fill="#263238"/>
        <path id="Trazado_256412" data-name="Trazado 256412" d="M87.7,364.134c0-.1,22.979-.18,51.317-.18s51.321.08,51.321.18-22.973.179-51.321.179-51.317-.08-51.317-.179" transform="translate(-27.155 -112.695)" fill="#263238"/>
        <path id="Trazado_256413" data-name="Trazado 256413" d="M97.716,368.742c0-.1,21.43-.18,47.859-.18s47.863.08,47.863.18-21.425.18-47.863.18-47.859-.08-47.859-.18" transform="translate(-30.257 -114.122)" fill="#263238"/>
        <path id="Trazado_256414" data-name="Trazado 256414" d="M100.922,374.553c0-.1,20.408-.18,45.577-.18s45.581.08,45.581.18-20.4.18-45.581.18-45.577-.08-45.577-.18" transform="translate(-31.25 -115.922)" fill="#263238"/>
        <g id="Grupo_166956" data-name="Grupo 166956" transform="translate(180.073 236.295)" opacity="0.3">
          <g id="Grupo_166955" data-name="Grupo 166955">
            <g id="Grupo_166954" data-name="Grupo 166954" clip-path="url(#clip-path-4)">
              <path id="Trazado_256415" data-name="Trazado 256415" d="M260.84,345.994h33.4a1.858,1.858,0,1,0,0-3.716h-33.4Z" transform="translate(-260.84 -342.278)"/>
            </g>
          </g>
        </g>
        <g id="Grupo_166959" data-name="Grupo 166959" transform="translate(180.073 263.442)" opacity="0.3">
          <g id="Grupo_166958" data-name="Grupo 166958">
            <g id="Grupo_166957" data-name="Grupo 166957" clip-path="url(#clip-path-5)">
              <path id="Trazado_256416" data-name="Trazado 256416" d="M260.84,384.953h33.582a1.676,1.676,0,1,0,0-3.351H260.84Z" transform="translate(-260.84 -381.602)"/>
            </g>
          </g>
        </g>
        <path id="Trazado_256417" data-name="Trazado 256417" d="M230.855,421.856H101.937v-35.45H230.855a17.725,17.725,0,0,1,0,35.45" transform="translate(-31.564 -119.647)" fill="#a3314f"/>
        <path id="Trazado_256418" data-name="Trazado 256418" d="M231.029,419.9H101.937V392.662H231.029a13.618,13.618,0,1,1,0,27.236" transform="translate(-31.564 -121.584)" fill="#f5f5f5"/>
        <path id="Trazado_256419" data-name="Trazado 256419" d="M51.75,392.662A14.248,14.248,0,0,1,58.075,404.7c0,8.338-5.319,15.2-5.319,15.2H95.165s5.6-3.534,5.045-13.618a13.6,13.6,0,0,0-4.434-9.759c-3.756-3.155-9.38-3.859-9.38-3.859Z" transform="translate(-16.024 -121.584)" fill="#e0e0e0"/>
        <path id="Trazado_256420" data-name="Trazado 256420" d="M83.555,390.725H44.732a2.159,2.159,0,1,1,0-4.319H83.555Z" transform="translate(-13.182 -119.647)" fill="#ff725e"/>
        <path id="Trazado_256421" data-name="Trazado 256421" d="M83.555,436.009H44.521a1.947,1.947,0,1,1,0-3.895H83.555Z" transform="translate(-13.182 -133.8)" fill="#ff725e"/>
        <path id="Trazado_256422" data-name="Trazado 256422" d="M91.416,426.5c0,.1-6.659.18-14.872.18s-14.874-.08-14.874-.18,6.658-.18,14.874-.18,14.872.08,14.872.18" transform="translate(-19.096 -132.005)" fill="#263238"/>
        <path id="Trazado_256423" data-name="Trazado 256423" d="M96.479,416.016c0,.1-7.272.179-16.239.179S64,416.115,64,416.016s7.269-.18,16.24-.18,16.239.08,16.239.18" transform="translate(-19.817 -128.76)" fill="#263238"/>
        <path id="Trazado_256424" data-name="Trazado 256424" d="M102.5,411.357c0,.1-6.012.18-13.425.18s-13.426-.08-13.426-.18,6.01-.18,13.426-.18,13.425.08,13.425.18" transform="translate(-23.423 -127.318)" fill="#263238"/>
        <path id="Trazado_256425" data-name="Trazado 256425" d="M96.8,403.439c0,.1-7.343.18-16.4.18s-16.4-.08-16.4-.18,7.341-.179,16.4-.179,16.4.08,16.4.179" transform="translate(-19.817 -124.866)" fill="#263238"/>
        <path id="Trazado_256426" data-name="Trazado 256426" d="M87.63,396.452c0,.1-5.76.18-12.862.18s-12.863-.08-12.863-.18,5.758-.179,12.863-.179,12.862.08,12.862.179" transform="translate(-19.168 -122.702)" fill="#263238"/>
        <path id="Trazado_256427" data-name="Trazado 256427" d="M234.355,401.344c0,.1-24.477.179-54.665.179s-54.67-.08-54.67-.179,24.473-.18,54.67-.18,54.665.08,54.665.18" transform="translate(-38.711 -124.217)" fill="#263238"/>
        <path id="Trazado_256428" data-name="Trazado 256428" d="M245.318,406.234c0,.1-24.585.18-54.906.18s-54.911-.08-54.911-.18,24.58-.18,54.911-.18,54.906.08,54.906.18" transform="translate(-41.957 -125.731)" fill="#263238"/>
        <path id="Trazado_256429" data-name="Trazado 256429" d="M249.681,411.823c0,.1-26.709.18-59.649.18s-59.655-.08-59.655-.18,26.7-.179,59.655-.179,59.649.08,59.649.179" transform="translate(-40.37 -127.462)" fill="#263238"/>
        <path id="Trazado_256430" data-name="Trazado 256430" d="M241.642,417.18c0,.1-24.91.18-55.629.18s-55.635-.08-55.635-.18,24.9-.18,55.635-.18,55.629.08,55.629.18" transform="translate(-40.37 -129.121)" fill="#263238"/>
        <path id="Trazado_256431" data-name="Trazado 256431" d="M240.294,423.935c0,.1-23.721.179-52.977.179s-52.982-.08-52.982-.179,23.717-.18,52.982-.18,52.977.08,52.977.18" transform="translate(-41.596 -131.212)" fill="#263238"/>
        <g id="Grupo_166962" data-name="Grupo 166962" transform="translate(29.391 266.759)" opacity="0.3">
          <g id="Grupo_166961" data-name="Grupo 166961">
            <g id="Grupo_166960" data-name="Grupo 166960" clip-path="url(#clip-path-6)">
              <path id="Trazado_256432" data-name="Trazado 256432" d="M83.555,390.725H44.732a2.159,2.159,0,1,1,0-4.319H83.555Z" transform="translate(-42.573 -386.406)"/>
            </g>
          </g>
        </g>
        <g id="Grupo_166965" data-name="Grupo 166965" transform="translate(29.391 298.314)" opacity="0.3">
          <g id="Grupo_166964" data-name="Grupo 166964">
            <g id="Grupo_166963" data-name="Grupo 166963" clip-path="url(#clip-path-7)">
              <path id="Trazado_256433" data-name="Trazado 256433" d="M83.555,436.009H44.521a1.947,1.947,0,1,1,0-3.895H83.555Z" transform="translate(-42.573 -432.114)" fill="#a3314f"/>
            </g>
          </g>
        </g>
        <path id="Trazado_256434" data-name="Trazado 256434" d="M301.458,327.895H181.239V294.837H301.458a16.529,16.529,0,1,1,0,33.058" transform="translate(-56.119 -91.294)" fill="#a3314f"/>
        <path id="Trazado_256435" data-name="Trazado 256435" d="M301.621,326.068H181.24v-25.4H301.621a12.7,12.7,0,0,1,0,25.4" transform="translate(-56.119 -93.1)" fill="#f5f5f5"/>
        <path id="Trazado_256436" data-name="Trazado 256436" d="M134.44,300.67a13.287,13.287,0,0,1,5.9,11.222c0,7.776-4.96,14.176-4.96,14.176h39.547s5.222-3.3,4.7-12.7a12.686,12.686,0,0,0-4.135-9.1c-3.5-2.942-8.747-3.6-8.747-3.6Z" transform="translate(-41.628 -93.1)" fill="#e0e0e0"/>
        <path id="Trazado_256437" data-name="Trazado 256437" d="M164.1,298.864H127.9a2.014,2.014,0,1,1,0-4.028h36.2Z" transform="translate(-38.978 -91.293)" fill="#ff725e"/>
        <path id="Trazado_256438" data-name="Trazado 256438" d="M164.1,341.093H127.7a1.816,1.816,0,1,1,0-3.632h36.4Z" transform="translate(-38.978 -104.492)" fill="#ff725e"/>
        <path id="Trazado_256439" data-name="Trazado 256439" d="M171.429,332.216c0,.1-6.21.18-13.869.18s-13.869-.08-13.869-.18,6.208-.18,13.869-.18,13.869.08,13.869.18" transform="translate(-44.493 -102.812)" fill="#263238"/>
        <path id="Trazado_256440" data-name="Trazado 256440" d="M176.149,322.443c0,.1-6.781.179-15.143.179s-15.144-.08-15.144-.179,6.779-.18,15.144-.18,15.143.08,15.143.18" transform="translate(-45.165 -99.786)" fill="#263238"/>
        <path id="Trazado_256441" data-name="Trazado 256441" d="M181.761,318.1c0,.1-5.606.18-12.519.18s-12.52-.08-12.52-.18,5.6-.179,12.52-.179,12.519.08,12.519.179" transform="translate(-48.528 -98.441)" fill="#263238"/>
        <path id="Trazado_256442" data-name="Trazado 256442" d="M176.45,310.715c0,.1-6.848.179-15.293.179s-15.294-.08-15.294-.179,6.846-.18,15.294-.18,15.293.08,15.293.18" transform="translate(-45.165 -96.154)" fill="#263238"/>
        <path id="Trazado_256443" data-name="Trazado 256443" d="M167.9,304.2c0,.1-5.371.18-11.994.18s-12-.08-12-.18,5.37-.18,12-.18,11.994.08,11.994.18" transform="translate(-44.56 -94.137)" fill="#263238"/>
        <path id="Trazado_256444" data-name="Trazado 256444" d="M304.722,308.76c0,.1-22.825.18-50.976.18s-50.98-.08-50.98-.18,22.82-.18,50.98-.18,50.976.08,50.976.18" transform="translate(-62.785 -95.549)" fill="#263238"/>
        <path id="Trazado_256445" data-name="Trazado 256445" d="M314.945,313.32c0,.1-22.926.18-51.2.18s-51.206-.08-51.206-.18,22.921-.18,51.206-.18,51.2.08,51.2.18" transform="translate(-65.811 -96.961)" fill="#263238"/>
        <path id="Trazado_256446" data-name="Trazado 256446" d="M319.014,318.534c0,.1-24.907.179-55.624.179s-55.629-.08-55.629-.179,24.9-.18,55.629-.18,55.624.08,55.624.18" transform="translate(-64.331 -98.576)" fill="#263238"/>
        <path id="Trazado_256447" data-name="Trazado 256447" d="M311.517,323.529c0,.1-23.228.179-51.876.179s-51.88-.08-51.88-.179,23.224-.18,51.88-.18,51.876.08,51.876.18" transform="translate(-64.331 -100.122)" fill="#263238"/>
        <path id="Trazado_256448" data-name="Trazado 256448" d="M310.261,329.827c0,.1-22.12.18-49.4.18s-49.407-.08-49.407-.18,22.116-.179,49.407-.179,49.4.08,49.4.179" transform="translate(-65.475 -102.073)" fill="#263238"/>
        <g id="Grupo_166968" data-name="Grupo 166968" transform="translate(86.904 203.543)" opacity="0.3">
          <g id="Grupo_166967" data-name="Grupo 166967">
            <g id="Grupo_166966" data-name="Grupo 166966" clip-path="url(#clip-path-8)">
              <path id="Trazado_256449" data-name="Trazado 256449" d="M164.1,298.864H127.9a2.014,2.014,0,1,1,0-4.028h36.2Z" transform="translate(-125.882 -294.836)" fill="#a3314f"/>
            </g>
          </g>
        </g>
        <g id="Grupo_166971" data-name="Grupo 166971" transform="translate(86.904 232.969)" opacity="0.3">
          <g id="Grupo_166970" data-name="Grupo 166970">
            <g id="Grupo_166969" data-name="Grupo 166969" clip-path="url(#clip-path-9)">
              <path id="Trazado_256450" data-name="Trazado 256450" d="M164.1,341.093H127.7a1.816,1.816,0,1,1,0-3.632h36.4Z" transform="translate(-125.882 -337.46)" fill="#a3314f"/>
            </g>
          </g>
        </g>
      </g>
    </g>
    <g id="Grupo_166975" data-name="Grupo 166975">
      <g id="Grupo_166974" data-name="Grupo 166974">
        <path id="Trazado_256451" data-name="Trazado 256451" d="M517.667.52s21.193-1.7,23.563,49.269H472.936l3.379-38.194Z" transform="translate(-146.44 -0.159)" fill="#e0e0e0"/>
        <path id="Trazado_256452" data-name="Trazado 256452" d="M436.273,181.433c-3.493-30.489-9.77-60.4-12.217-91.066S412.756,15,434.785.439c0,0-164.876-.19-172.441-.19-33.874,0-46.021,45.24-40.117,90.118,4,30.424,8.724,60.577,12.217,91.066s4.057,62.541-4.567,91.219c-4.333,14.408-13.015,29.164-24.611,29.634H412.038s15.187-14.736,19.668-29.634c8.624-28.678,8.06-60.73,4.567-91.219" transform="translate(-63.559 -0.077)" fill="#fff"/>
        <path id="Trazado_256453" data-name="Trazado 256453" d="M436.271,181.356s.091.741.254,2.2.414,3.622.674,6.478c.539,5.707,1.257,14.165,1.478,25.146.078,5.49.039,11.609-.333,18.311a192.5,192.5,0,0,1-2.477,21.737c-.322,1.941-.757,3.9-1.141,5.9-.429,1.992-.938,4-1.415,6.054q-.424,1.523-.855,3.07l-.433,1.554-.217.781-.264.773c-.36,1.028-.681,2.081-1.144,3.087l-.65,1.534c-.225.509-.489,1-.733,1.508a76,76,0,0,1-7.342,11.735,105.606,105.606,0,0,1-9.556,11.073l-.033.033h-.049l-206.771.05-.006-.337a14.9,14.9,0,0,0,5-1.136,18.957,18.957,0,0,0,4.442-2.667,33.382,33.382,0,0,0,6.95-7.845,60.231,60.231,0,0,0,4.994-9.41,77.215,77.215,0,0,0,3.546-10.18,178.1,178.1,0,0,0,6.347-43.684,318.1,318.1,0,0,0-2.266-45.687c-1.761-15.39-3.872-30.95-6.072-46.666-2.165-15.528-4.4-30.88-6.344-46.078-.489-3.8-.779-7.615-1.008-11.416-.19-3.8-.267-7.6-.2-11.383a129.93,129.93,0,0,1,2.286-22.39,83.327,83.327,0,0,1,6.866-21.05c3.3-6.536,7.787-12.571,13.764-16.71a31.767,31.767,0,0,1,9.74-4.567l2.621-.586c.877-.168,1.769-.245,2.652-.371l.663-.084L259.908.1l1.334-.056C262.133-.005,263.016,0,263.9,0l20.983.026,149.9.2h.457l-.38.253a25.826,25.826,0,0,0-7.323,7.489,37,37,0,0,0-4.254,9.354,62.062,62.062,0,0,0-2.095,9.836c-.425,3.287-.65,6.554-.762,9.778a186.982,186.982,0,0,0,.485,18.8c.433,6.073,1.016,11.947,1.6,17.624s1.169,11.16,1.6,16.455.915,10.377,1.493,15.241c1.111,9.733,2.4,18.6,3.594,26.579,1.214,7.975,2.294,15.065,3.231,21.215s1.674,11.369,2.242,15.593c1.134,8.448,1.595,12.915,1.595,12.915s-.148-1.113-.415-3.284-.682-5.4-1.26-9.619-1.344-9.436-2.279-15.586-2.039-13.238-3.266-21.21c-1.205-7.976-2.507-16.845-3.629-26.581-.584-4.865-1.058-9.954-1.511-15.246-.437-5.29-1.025-10.772-1.617-16.449s-1.181-11.552-1.619-17.63a187.116,187.116,0,0,1-.5-18.826,75.894,75.894,0,0,1,2.855-19.682,37.225,37.225,0,0,1,4.28-9.423,26.105,26.105,0,0,1,7.4-7.573l.076.253L284.882.366,263.9.345c-.884,0-1.768-.008-2.647.044l-1.321.056-.661.028-.657.083c-.873.126-1.757.2-2.625.368l-2.593.581a31.42,31.42,0,0,0-9.633,4.519c-5.914,4.1-10.371,10.082-13.647,16.582a83.012,83.012,0,0,0-6.833,20.961A129.567,129.567,0,0,0,221,65.9c-.069,3.773.009,7.561.2,11.357.229,3.792.518,7.6,1.007,11.392,1.948,15.189,4.18,30.544,6.345,46.072,2.2,15.717,4.311,31.279,6.071,46.675a318.232,318.232,0,0,1,2.264,45.739,178.4,178.4,0,0,1-6.367,43.768,77.525,77.525,0,0,1-3.563,10.221,60.553,60.553,0,0,1-5.024,9.462,33.72,33.72,0,0,1-7.026,7.923,19.273,19.273,0,0,1-4.522,2.712,15.247,15.247,0,0,1-5.116,1.161l-.007-.337,206.771.05-.082.034a105.451,105.451,0,0,0,9.541-11.037,75.748,75.748,0,0,0,7.332-11.695c.244-.5.507-.995.732-1.5s.434-1.019.648-1.526c.463-1,.782-2.048,1.142-3.071l.263-.768.218-.78q.217-.778.434-1.551l.857-3.065c.478-2.049.989-4.056,1.419-6.045.385-2,.823-3.952,1.146-5.891a192.875,192.875,0,0,0,2.5-21.715c.381-6.7.429-12.813.362-18.3-.2-10.977-.9-19.434-1.417-25.142-.249-2.856-.491-5.024-.641-6.48s-.221-2.2-.221-2.2" transform="translate(-63.556 0)" fill="#263238"/>
        <path id="Trazado_256454" data-name="Trazado 256454" d="M432.441,174.951s.1.8.292,2.357.462,3.884.824,6.929c.7,6.1,1.823,15.09,2.735,26.744.453,5.827.8,12.324.857,19.447a151.872,151.872,0,0,1-1.433,23.13c-.338,2.055-.614,4.159-1.126,6.256l-.7,3.185q-.455,1.58-.915,3.186a107.9,107.9,0,0,1-4.77,12.917q-.753,1.607-1.518,3.237c-.536,1.073-1.133,2.127-1.7,3.2a61.016,61.016,0,0,1-3.99,6.237c-.345.523-.771.988-1.159,1.485-.4.483-.777,1-1.212,1.459l-1.3,1.4c-.436.467-.929.881-1.392,1.326a18.224,18.224,0,0,1-6.623,4.095l-.008,0h-.017l-186.017.045-.007-.338a9.047,9.047,0,0,0,4.456-1.514,15.862,15.862,0,0,0,3.543-3.254,39.012,39.012,0,0,0,5.022-8.388,108.533,108.533,0,0,0,6.248-18.952,230.292,230.292,0,0,0,5.847-40.711,259.564,259.564,0,0,0-1.288-42.5q-1.172-10.734-2.94-21.534c-1.168-7.2-2.486-14.413-3.724-21.684-2.572-14.948-4.778-29.793-6.768-44.47a166.732,166.732,0,0,1-1.134-43.717c.423-3.577,1.01-7.12,1.734-10.62a94.578,94.578,0,0,1,2.836-10.293,62.575,62.575,0,0,1,4.235-9.7,43.661,43.661,0,0,1,6.024-8.588A30.255,30.255,0,0,1,255.516,8.9a27.571,27.571,0,0,1,9.823-3.033c3.417-.369,6.813-.2,10.185-.233l10.07.012,144.179.19h.36l-.269.239a25.812,25.812,0,0,0-5.844,7.764,40.5,40.5,0,0,0-3.163,9,83.908,83.908,0,0,0-1.869,18.288c-.051,11.967,1.21,23.217,2.283,33.725.551,5.256,1.087,10.333,1.488,15.234s.807,9.609,1.265,14.12c.891,9.023,1.858,17.257,2.763,24.663l4.271,34.142c.461,3.91.813,6.894,1.049,8.9s.335,3.04.335,3.04c-.033-.27-.508-4.145-1.464-11.934-.994-7.816-2.46-19.33-4.344-34.133-.917-7.405-1.894-15.639-2.8-24.663-.463-4.511-.872-9.223-1.281-14.122s-.946-9.972-1.5-15.228c-1.084-10.507-2.356-21.761-2.313-33.749A84.11,84.11,0,0,1,420.6,22.777a40.743,40.743,0,0,1,3.178-9.057,26.067,26.067,0,0,1,5.9-7.849l.09.24L285.594,5.984l-10.07-.01c-3.37.035-6.781-.133-10.144.234a27.238,27.238,0,0,0-9.7,3,29.932,29.932,0,0,0-8.072,6.352,43.339,43.339,0,0,0-5.974,8.521,62.188,62.188,0,0,0-4.209,9.649A94.311,94.311,0,0,0,234.6,43.979c-.721,3.489-1.306,7.021-1.728,10.589A166.463,166.463,0,0,0,234.011,98.2c1.99,14.674,4.2,29.514,6.768,44.458,1.237,7.269,2.555,14.486,3.723,21.688s2.159,14.389,2.942,21.552a259.875,259.875,0,0,1,1.285,42.561,230.648,230.648,0,0,1-5.863,40.774,108.878,108.878,0,0,1-6.275,19.012,39.3,39.3,0,0,1-5.071,8.462,16.2,16.2,0,0,1-3.622,3.322,9.376,9.376,0,0,1-4.626,1.566l-.006-.338,186.017.045-.025,0a18.057,18.057,0,0,0,6.511-4.032c.461-.441.949-.852,1.383-1.315l1.294-1.388c.433-.458.8-.97,1.207-1.45.386-.494.81-.955,1.154-1.476a60.765,60.765,0,0,0,3.979-6.208c.569-1.072,1.165-2.121,1.7-3.191L428,279.011a107.76,107.76,0,0,0,4.772-12.886l.916-3.176.7-3.178c.514-2.091.79-4.191,1.131-6.242a152.065,152.065,0,0,0,1.46-23.1c-.049-7.118-.384-13.612-.826-19.437-.891-11.652-1.994-20.647-2.669-26.746-.347-3.047-.612-5.37-.79-6.933s-.256-2.361-.256-2.361" transform="translate(-69.13 -1.742)" fill="#263238"/>
        <path id="Trazado_256455" data-name="Trazado 256455" d="M430.305,22.979c0,.1-35.125.179-78.444.179s-78.451-.08-78.451-.179,35.118-.179,78.451-.179,78.444.08,78.444.179" transform="translate(-84.659 -7.06)" fill="#263238"/>
        <path id="Trazado_256456" data-name="Trazado 256456" d="M428.885,28.17c0,.1-35.125.179-78.443.179-43.334,0-78.452-.08-78.452-.179s35.118-.179,78.452-.179c43.319,0,78.443.08,78.443.179" transform="translate(-84.219 -8.667)" fill="#263238"/>
        <path id="Trazado_256490" data-name="Trazado 256490" d="M419.829,163.194c0,.1-31.725.18-70.85.18s-70.857-.08-70.857-.18,31.718-.179,70.857-.179,70.85.08,70.85.179" transform="translate(-86.118 -50.476)" fill="#263238"/>
        <path id="Trazado_256491" data-name="Trazado 256491" d="M419.829,175.915c0,.1-31.725.179-70.85.179s-70.857-.08-70.857-.179,31.718-.18,70.857-.18,70.85.08,70.85.18" transform="translate(-86.118 -54.415)" fill="#263238"/>
        <path id="Trazado_256492" data-name="Trazado 256492" d="M422.488,188.636c0,.1-31.725.18-70.85.18s-70.857-.08-70.857-.18,31.718-.179,70.857-.179,70.85.08,70.85.179" transform="translate(-86.941 -58.354)" fill="#263238"/>
        <path id="Trazado_256493" data-name="Trazado 256493" d="M425.862,202.479c0,.1-31.725.18-70.85.18s-70.857-.08-70.857-.18,31.718-.179,70.857-.179,70.85.08,70.85.179" transform="translate(-87.986 -62.64)" fill="#263238"/>
        <path id="Trazado_256494" data-name="Trazado 256494" d="M427.088,216.323c0,.1-31.725.179-70.85.179s-70.857-.08-70.857-.179,31.718-.179,70.857-.179,70.85.08,70.85.179" transform="translate(-88.366 -66.927)" fill="#263238"/>
        <path id="Trazado_256495" data-name="Trazado 256495" d="M429.235,230.167c0,.1-31.725.179-70.85.179s-70.857-.08-70.857-.179,31.718-.18,70.857-.18,70.85.08,70.85.18" transform="translate(-89.031 -71.213)" fill="#263238"/>
        <path id="Trazado_256496" data-name="Trazado 256496" d="M429.235,244.01c0,.1-31.725.179-70.85.179s-70.857-.08-70.857-.179,31.718-.18,70.857-.18,70.85.08,70.85.18" transform="translate(-89.031 -75.5)" fill="#263238"/>
        <path id="Trazado_256497" data-name="Trazado 256497" d="M432.608,257.854c0,.1-31.725.18-70.85.18s-70.857-.08-70.857-.18,31.718-.18,70.857-.18,70.85.08,70.85.18" transform="translate(-90.075 -79.787)" fill="#263238"/>
        <path id="Trazado_256498" data-name="Trazado 256498" d="M432.608,271.7c0,.1-31.725.179-70.85.179S290.9,271.8,290.9,271.7s31.718-.18,70.857-.18,70.85.08,70.85.18" transform="translate(-90.075 -84.073)" fill="#263238"/>
        <path id="Trazado_256558" data-name="Trazado 256558" d="M421.563,408.717c0,.1-30.547.18-68.22.18s-68.227-.08-68.227-.18,30.54-.18,68.227-.18,68.22.08,68.22.18" transform="translate(-97.284 -129.5)" fill="#263238"/>
        <path id="Trazado_258998" data-name="Trazado 258998" d="M427.993,163.194c0,.1-33.553.18-74.932.18s-74.939-.08-74.939-.18,33.545-.179,74.939-.179,74.932.08,74.932.179" transform="translate(-93.282 -135.477)" fill="#263238"/>
        <path id="Trazado_258999" data-name="Trazado 258999" d="M423.994,175.915c0,.1-32.657.179-72.933.179s-72.94-.08-72.94-.179,32.65-.18,72.94-.18,72.933.08,72.933.18" transform="translate(-96.118 -139.415)" fill="#263238"/>
        <path id="Trazado_259000" data-name="Trazado 259000" d="M422.488,188.636c0,.1-31.725.18-70.85.18s-70.857-.08-70.857-.18,31.718-.179,70.857-.179,70.85.08,70.85.179" transform="translate(-97.941 -141.354)" fill="#263238"/>
        <path id="Trazado_259001" data-name="Trazado 259001" d="M425.862,202.479c0,.1-31.725.18-70.85.18s-70.857-.08-70.857-.18,31.718-.179,70.857-.179,70.85.08,70.85.179" transform="translate(-99.986 -145.641)" fill="#263238"/>
        <path id="Trazado_259002" data-name="Trazado 259002" d="M427.088,216.323c0,.1-31.725.179-70.85.179s-70.857-.08-70.857-.179,31.718-.179,70.857-.179,70.85.08,70.85.179" transform="translate(-100.365 -149.927)" fill="#263238"/>
        <path id="Trazado_259003" data-name="Trazado 259003" d="M429.235,230.167c0,.1-31.725.179-70.85.179s-70.857-.08-70.857-.179,31.718-.18,70.857-.18,70.85.08,70.85.18" transform="translate(-100.03 -154.214)" fill="#263238"/>
        <path id="Trazado_259004" data-name="Trazado 259004" d="M429.235,244.01c0,.1-31.725.179-70.85.179s-70.857-.08-70.857-.179,31.718-.18,70.857-.18,70.85.08,70.85.18" transform="translate(-98.03 -158.5)" fill="#263238"/>
        <path id="Trazado_259005" data-name="Trazado 259005" d="M432.608,257.854c0,.1-31.725.18-70.85.18s-70.857-.08-70.857-.18,31.718-.18,70.857-.18,70.85.08,70.85.18" transform="translate(-99.074 -162.787)" fill="#263238"/>
        <path id="Trazado_259006" data-name="Trazado 259006" d="M432.608,271.7c0,.1-31.725.179-70.85.179S290.9,271.8,290.9,271.7s31.718-.18,70.857-.18,70.85.08,70.85.18" transform="translate(-99.074 -167.073)" fill="#263238"/>
        <path id="Trazado_259358" data-name="Trazado 259358" d="M432.608,271.7c0,.1-31.725.179-70.85.179S290.9,271.8,290.9,271.7s31.718-.18,70.857-.18,70.85.08,70.85.18" transform="translate(-90.074 -75.073)" fill="#263238"/>
        <path id="Trazado_259359" data-name="Trazado 259359" d="M432.608,271.7c0,.1-31.725.179-70.85.179S290.9,271.8,290.9,271.7s31.718-.18,70.857-.18,70.85.08,70.85.18" transform="translate(-90.074 -66.073)" fill="#263238"/>
        <path id="Trazado_259360" data-name="Trazado 259360" d="M432.608,271.7c0,.1-31.725.179-70.85.179S290.9,271.8,290.9,271.7s31.718-.18,70.857-.18,70.85.08,70.85.18" transform="translate(-88.074 -57.073)" fill="#263238"/>
        <path id="Trazado_259361" data-name="Trazado 259361" d="M432.608,271.7c0,.1-31.725.179-70.85.179S290.9,271.8,290.9,271.7s31.718-.18,70.857-.18,70.85.08,70.85.18" transform="translate(-86.074 -48.073)" fill="#263238"/>
        <path id="Trazado_259362" data-name="Trazado 259362" d="M432.608,271.7c0,.1-31.725.179-70.85.179S290.9,271.8,290.9,271.7s31.718-.18,70.857-.18,70.85.08,70.85.18" transform="translate(-86.074 -39.073)" fill="#263238"/>
        <path id="Trazado_259363" data-name="Trazado 259363" d="M432.608,271.7c0,.1-31.725.179-70.85.179S290.9,271.8,290.9,271.7s31.718-.18,70.857-.18,70.85.08,70.85.18" transform="translate(-85.074 -30.073)" fill="#263238"/>
        <path id="Trazado_259364" data-name="Trazado 259364" d="M432.608,271.7c0,.1-31.725.179-70.85.179S290.9,271.8,290.9,271.7s31.718-.18,70.857-.18,70.85.08,70.85.18" transform="translate(-87.074 -21.073)" fill="#263238"/>
        <path id="Trazado_259365" data-name="Trazado 259365" d="M432.608,271.7c0,.1-31.725.179-70.85.179S290.9,271.8,290.9,271.7s31.718-.18,70.857-.18,70.85.08,70.85.18" transform="translate(-91.074 -12.073)" fill="#263238"/>
        <path id="Trazado_259366" data-name="Trazado 259366" d="M432.608,271.7c0,.1-31.725.179-70.85.179S290.9,271.8,290.9,271.7s31.718-.18,70.857-.18,70.85.08,70.85.18" transform="translate(-95.074 -2.073)" fill="#263238"/>
      </g>
    </g>
    <path id="Trazado_256559" data-name="Trazado 256559" d="M613.278,352.71,589.8,307.479l-31.786,17.508L582,369.269Z" transform="translate(-172.784 -95.208)" fill="#ff725e"/>
    <g id="Grupo_166980" data-name="Grupo 166980">
      <g id="Grupo_166979" data-name="Grupo 166979" clip-path="url(#clip-path)">
        <g id="Grupo_166978" data-name="Grupo 166978" transform="translate(385.231 212.272)" opacity="0.3">
          <g id="Grupo_166977" data-name="Grupo 166977">
            <g id="Grupo_166976" data-name="Grupo 166976" clip-path="url(#clip-path-11)">
              <path id="Trazado_256560" data-name="Trazado 256560" d="M613.278,352.71,589.8,307.479l-31.786,17.508L582,369.269Z" transform="translate(-558.015 -307.48)" fill="#a3314f"/>
            </g>
          </g>
        </g>
        <path id="Trazado_256561" data-name="Trazado 256561" d="M555.3,319.869l30.388-15.875a6.225,6.225,0,0,0-5.765-11.035l-30.388,15.875a6.225,6.225,0,0,0,5.765,11.035" transform="translate(-169.123 -90.493)" fill="#263238"/>
        <path id="Trazado_256562" data-name="Trazado 256562" d="M596.682,396.4l30.388-15.875a6.225,6.225,0,0,0-5.765-11.035l-30.388,15.875a6.225,6.225,0,1,0,5.765,11.035" transform="translate(-181.937 -114.191)" fill="#263238"/>
        <path id="Trazado_256563" data-name="Trazado 256563" d="M439.542,416.716l48.076-26.137c17.269-8.312,35.741-17.106,42.73-21.3l-4.135-7.915c-8.586,3.676-23.577,13.471-41.8,23.161-15.084,8.02-32.542,15.4-49,24.278Z" transform="translate(-134.82 -111.893)" fill="#b55a72"/>
        <path id="Trazado_256564" data-name="Trazado 256564" d="M509.659,401.752h0a2.808,2.808,0,0,0,1.188-3.789l-2.995-5.733a2.808,2.808,0,0,0-4.977,2.6l3,5.734a2.808,2.808,0,0,0,3.789,1.188" transform="translate(-155.612 -120.984)" fill="#b55a72"/>
        <path id="Trazado_256565" data-name="Trazado 256565" d="M427.479,436a7.678,7.678,0,1,0,3.25-10.36,7.678,7.678,0,0,0-3.25,10.36" transform="translate(-132.094 -131.524)" fill="#b55a72"/>
        <path id="Trazado_256566" data-name="Trazado 256566" d="M543,433.849h100.91v-7a1.153,1.153,0,0,0-1.154-1.154h-98.6A1.153,1.153,0,0,0,543,426.854Z" transform="translate(-168.136 -131.814)" fill="#b55a72"/>
        <path id="Trazado_256567" data-name="Trazado 256567" d="M641.887,422.032V416.92a7.545,7.545,0,0,0-7.545-7.545H556.886a7.545,7.545,0,0,0-7.545,7.545v5.112Z" transform="translate(-170.099 -126.759)" fill="#b55a72"/>
        <rect id="Rectángulo_52761" data-name="Rectángulo 52761" width="82.184" height="7.282" transform="translate(384.577 278.801)" fill="#b55a72"/>
        <path id="Trazado_256568" data-name="Trazado 256568" d="M565.605,338.533l31.953-16.693a4.423,4.423,0,0,0-4.1-7.84l-31.954,16.694a4.423,4.423,0,1,0,4.1,7.84" transform="translate(-173.131 -97.071)" fill="#b55a72"/>
        <path id="Trazado_256569" data-name="Trazado 256569" d="M584.663,377.37l31.954-16.693a4.423,4.423,0,0,0-4.1-7.84L580.567,369.53a4.423,4.423,0,1,0,4.1,7.84" transform="translate(-179.032 -109.097)" fill="#b55a72"/>
        <path id="Trazado_256570" data-name="Trazado 256570" d="M573.541,369.36h0a2.487,2.487,0,0,0,.98-3.377l-4.625-8.409a2.486,2.486,0,1,0-4.357,2.4l4.625,8.408a2.486,2.486,0,0,0,3.377.98" transform="translate(-175.019 -110.321)" fill="#b55a72"/>
        <path id="Trazado_256571" data-name="Trazado 256571" d="M556.134,409.294c0-.1,18.619-.18,41.582-.18s41.586.08,41.586.18-18.616.18-41.586.18-41.582-.08-41.582-.18" transform="translate(-172.202 -126.679)" fill="#263238"/>
        <path id="Trazado_256572" data-name="Trazado 256572" d="M545.414,425.62c0-.1,21.846-.18,48.788-.18s48.793.08,48.793.18-21.842.18-48.793.18-48.788-.08-48.788-.18" transform="translate(-168.883 -131.734)" fill="#263238"/>
        <path id="Trazado_256573" data-name="Trazado 256573" d="M565.034,360.469a8.251,8.251,0,0,1,.794,1.41c.461.882,1.106,2.1,1.867,3.408s1.5,2.473,2.036,3.31a8.369,8.369,0,0,1,.831,1.388,6.436,6.436,0,0,1-1.041-1.243,37.662,37.662,0,0,1-3.922-6.752,6.494,6.494,0,0,1-.565-1.52" transform="translate(-174.956 -111.616)" fill="#263238"/>
        <path id="Trazado_256574" data-name="Trazado 256574" d="M513.843,399.2a40.266,40.266,0,0,1-3.466-6.759,40.26,40.26,0,0,1,3.466,6.759" transform="translate(-158.031 -121.515)" fill="#263238"/>
        <path id="Trazado_256575" data-name="Trazado 256575" d="M505.823,403.168a38.075,38.075,0,0,1-3.107-6.71,38.075,38.075,0,0,1,3.107,6.71" transform="translate(-155.659 -122.76)" fill="#263238"/>
      </g>
    </g>
    <g id="Grupo_166997" data-name="Grupo 166997">
      <g id="Grupo_166996" data-name="Grupo 166996" clip-path="url(#clip-path)">
        <path id="Trazado_256576" data-name="Trazado 256576" d="M118.25,156.261a1.705,1.705,0,0,1,.806-1.338c7.16-4.739,12.555-15.24,13.1-24.132.014-.506.03-1.02.047-1.537v-.006c.414-12.712,2.286-28.13,3.966-32.24,3.1-7.591,13.617-8.3,13.617-8.3,13.956-1,16.448,9.725,17.858,19.492.876,6.074,4.251,27.772,4.251,27.772l-2.565.992a31.575,31.575,0,0,1-18.672,19.528c-2.573.969-4.751,1.358-5.773.525A35.11,35.11,0,0,1,130.2,165.93a18.25,18.25,0,0,1-6.962.924,5.532,5.532,0,0,1-4.038-1.877,3.5,3.5,0,0,1,3-5.573c-.529-1.716-4.009-1.21-3.95-3.143" transform="translate(-36.615 -27.447)" fill="#263238"/>
        <path id="Trazado_256577" data-name="Trazado 256577" d="M156.382,94.079l.873-.832,9.435,3.8a2.633,2.633,0,0,1,2.487,2.549l-.083,30.743a8.618,8.618,0,0,1-1.664,5.552l-1.325,1.749a6.959,6.959,0,0,1-11.629-.735,3.346,3.346,0,0,1-.333-.795,6.216,6.216,0,0,1-.14-.688c-.281-2.474-.3-4.618-.3-4.618-.168-2.716-.224-3.83-.224-3.8,0,0-5.779-.665-7.341-8.083-.777-3.689-.63-8.765-.412-13.76.3-6.913,5.1-11.089,10.654-11.082" transform="translate(-45.07 -28.873)" fill="#ffc09d"/>
        <path id="Trazado_256578" data-name="Trazado 256578" d="M164.041,116.094a.96.96,0,0,0,.973.921.918.918,0,0,0,.945-.914.96.96,0,0,0-.972-.922.919.919,0,0,0-.946.915" transform="translate(-50.794 -35.664)" fill="#263238"/>
        <path id="Trazado_256579" data-name="Trazado 256579" d="M149.913,116.475a.96.96,0,0,0,.973.921.918.918,0,0,0,.945-.914.96.96,0,0,0-.972-.922.919.919,0,0,0-.946.915" transform="translate(-46.419 -35.782)" fill="#263238"/>
        <path id="Trazado_256580" data-name="Trazado 256580" d="M147.228,112.871c.125.119.825-.455,1.857-.5,1.03-.064,1.814.429,1.92.3.052-.059-.081-.279-.422-.5a2.638,2.638,0,0,0-1.545-.392,2.535,2.535,0,0,0-1.47.557c-.3.26-.4.491-.34.544" transform="translate(-45.582 -34.607)" fill="#263238"/>
        <path id="Trazado_256581" data-name="Trazado 256581" d="M162.4,112.932c.137.106.775-.538,1.8-.692,1.018-.17,1.849.24,1.941.1.046-.064-.108-.269-.471-.456a2.634,2.634,0,0,0-1.577-.233,2.539,2.539,0,0,0-1.406.706c-.276.289-.349.53-.282.576" transform="translate(-50.277 -34.561)" fill="#263238"/>
        <path id="Trazado_256582" data-name="Trazado 256582" d="M155.987,120.536a6.872,6.872,0,0,0-1.692-.218c-.264-.014-.517-.054-.57-.232a1.334,1.334,0,0,1,.136-.79q.324-.974.679-2.046a34.422,34.422,0,0,0,1.486-5.336,34.652,34.652,0,0,0-1.913,5.2q-.338,1.076-.645,2.056a1.532,1.532,0,0,0-.085,1.041.665.665,0,0,0,.453.364,1.81,1.81,0,0,0,.451.039,6.722,6.722,0,0,0,1.7-.083" transform="translate(-47.474 -34.653)" fill="#263238"/>
        <path id="Trazado_256583" data-name="Trazado 256583" d="M157.038,140.721a19.043,19.043,0,0,0,9.88-3.174s-2.258,5.3-9.778,4.978Z" transform="translate(-48.625 -42.59)" fill="#ff9b6c"/>
        <path id="Trazado_256584" data-name="Trazado 256584" d="M157.954,127.626a1.86,1.86,0,0,1,1.632-.774,1.7,1.7,0,0,1,1.2.57,1.077,1.077,0,0,1,.144,1.226,1.249,1.249,0,0,1-1.336.41,3.926,3.926,0,0,1-1.359-.721,1.152,1.152,0,0,1-.309-.291.346.346,0,0,1-.018-.385" transform="translate(-48.88 -39.278)" fill="#ff9b6c"/>
        <path id="Trazado_256585" data-name="Trazado 256585" d="M160.221,125.217c-.168,0-.115,1.119-1.034,1.962s-2.117.779-2.117.937c-.013.071.277.2.781.193a2.8,2.8,0,0,0,1.772-.719,2.438,2.438,0,0,0,.795-1.642c.019-.47-.12-.741-.2-.731" transform="translate(-48.635 -38.772)" fill="#263238"/>
        <path id="Trazado_256586" data-name="Trazado 256586" d="M160.97,107.194c.143.262,1.143-.026,2.363-.065,1.22-.064,2.24.139,2.36-.135.053-.13-.155-.365-.587-.574a4.107,4.107,0,0,0-3.6.152c-.413.244-.6.5-.537.622" transform="translate(-49.839 -32.846)" fill="#263238"/>
        <path id="Trazado_256587" data-name="Trazado 256587" d="M147.437,106.424c.193.225.892-.054,1.747-.108.852-.084,1.586.078,1.74-.175.068-.123-.059-.352-.386-.558a2.534,2.534,0,0,0-2.81.228c-.29.256-.377.5-.291.613" transform="translate(-45.643 -32.593)" fill="#263238"/>
        <path id="Trazado_256588" data-name="Trazado 256588" d="M173.475,112.493s-5.285,1.645-8.277-11.4c-1.022-4.46-5.158-8.072-5.158-8.072l1.677-.5s10.423,2.936,10.6,3.068,2.63,5.39,2.63,5.39Z" transform="translate(-49.555 -28.647)" fill="#263238"/>
        <path id="Trazado_256589" data-name="Trazado 256589" d="M177.615,119.791c-.026-.557.552-1.9,1.1-2.015,1.457-.3,4.11-.318,4.322,3.411.289,5.1-4.888,4.335-4.905,4.19-.013-.114-.422-3.662-.514-5.586" transform="translate(-54.997 -36.431)" fill="#ffc09d"/>
        <path id="Trazado_256590" data-name="Trazado 256590" d="M180.454,124.081c.021-.018.092.057.246.117a.888.888,0,0,0,.664-.024,2.2,2.2,0,0,0,.905-2.028,2.947,2.947,0,0,0-.321-1.258,1.026,1.026,0,0,0-.706-.643.453.453,0,0,0-.51.273c-.061.146-.022.246-.049.256s-.114-.079-.085-.291a.569.569,0,0,1,.182-.331.672.672,0,0,1,.484-.157,1.249,1.249,0,0,1,.972.737,3.025,3.025,0,0,1,.389,1.4,2.31,2.31,0,0,1-1.17,2.275.957.957,0,0,1-.82-.089c-.165-.117-.2-.229-.181-.24" transform="translate(-55.875 -37.155)" fill="#ff9b6c"/>
        <path id="Trazado_256591" data-name="Trazado 256591" d="M170.02,110.444a7.55,7.55,0,0,1-.764-.154,4.614,4.614,0,0,1-1.815-1.053,6.318,6.318,0,0,1-.946-1.109,8.5,8.5,0,0,1-.77-1.49,31.842,31.842,0,0,1-1.1-3.707c-.358-1.329-.746-2.585-1.172-3.7a21.313,21.313,0,0,0-1.328-2.879,15.326,15.326,0,0,0-1.167-1.791c-.15-.2-.282-.349-.365-.452a1.17,1.17,0,0,0-.136-.151,1.116,1.116,0,0,0,.115.168c.077.108.2.26.344.466a17.457,17.457,0,0,1,1.126,1.806,22.221,22.221,0,0,1,1.3,2.877c.418,1.114.8,2.366,1.158,3.692a30.657,30.657,0,0,0,1.114,3.719,8.49,8.49,0,0,0,.793,1.5,6.284,6.284,0,0,0,.975,1.117,4.514,4.514,0,0,0,1.865,1.033,2.825,2.825,0,0,0,.777.1" transform="translate(-49.684 -29.093)" fill="#263238"/>
        <path id="Trazado_256592" data-name="Trazado 256592" d="M178.048,131.375a1.466,1.466,0,0,0,.055-.246c.032-.179.075-.419.128-.724.108-.654.263-1.586.458-2.767l-.123-.018c-.026.185-.055.39-.084.6l.006-.019c-.032.068-.07.148-.107.229l.128.047a49.078,49.078,0,0,0,1.635-8.2,49.674,49.674,0,0,0,.311-5.307,24.294,24.294,0,0,0-.5-5.818,9.177,9.177,0,0,0-.927-2.313,12.638,12.638,0,0,0-1.409-1.963c-1.037-1.2-2.153-2.227-3.173-3.25l-5.472-5.383-3.7-3.615-1.016-.975-.268-.249a.486.486,0,0,0-.1-.079.53.53,0,0,0,.081.1l.251.266.984,1.006,3.651,3.667,5.437,5.419c1.016,1.027,2.13,2.061,3.15,3.245a10.057,10.057,0,0,1,2.284,4.186,24.32,24.32,0,0,1,.5,5.759,51.131,51.131,0,0,1-1.852,13.476l.128.047.1-.23,0-.01v-.01c.026-.212.052-.418.075-.6l-.124-.017c-.171,1.185-.306,2.119-.4,2.776-.041.307-.073.549-.1.73a1.458,1.458,0,0,0-.022.251" transform="translate(-50.746 -28.276)" fill="#455a64"/>
        <path id="Trazado_256593" data-name="Trazado 256593" d="M122.817,130.155a36.86,36.86,0,0,0-12.038-5.8c-3.64-1.043-21.521-14.547-21.521-14.547L74.815,83.589l-6.2,2.659s4.268,24.731,13.144,33.232c8.788,8.418,28.137,24.814,28.137,24.814Z" transform="translate(-21.245 -25.883)" fill="#ffc09d"/>
        <path id="Trazado_256594" data-name="Trazado 256594" d="M168.014,423.53l-.255-6.456-11.251-.424.171,7.9,4.092,2.469Z" transform="translate(-48.461 -129.012)" fill="#ffc09d"/>
        <path id="Trazado_256595" data-name="Trazado 256595" d="M150.749,425.8l0,.74s-12.493,5.157-12.6,7.537l24.9-.366-.461-8.282a14.245,14.245,0,0,1-11.84.37" transform="translate(-42.777 -131.731)" fill="#455a64"/>
        <g id="Grupo_166983" data-name="Grupo 166983" transform="translate(116.127 296.347)" opacity="0.6">
          <g id="Grupo_166982" data-name="Grupo 166982">
            <g id="Grupo_166981" data-name="Grupo 166981" clip-path="url(#clip-path-13)">
              <path id="Trazado_256596" data-name="Trazado 256596" d="M169.416,429.3a1.016,1.016,0,0,1,.72,1.15.977.977,0,0,1-1.134.724,1.074,1.074,0,0,1-.757-1.222,1.015,1.015,0,0,1,1.263-.623" transform="translate(-168.212 -429.265)" fill="#fff"/>
            </g>
          </g>
        </g>
        <g id="Grupo_166986" data-name="Grupo 166986" transform="translate(95.361 299.989)" opacity="0.6">
          <g id="Grupo_166985" data-name="Grupo 166985">
            <g id="Grupo_166984" data-name="Grupo 166984" clip-path="url(#clip-path-14)">
              <path id="Trazado_256597" data-name="Trazado 256597" d="M163.044,436.533l-.11-1.992-23.826,1.08s-1.1.5-.964,1.277Z" transform="translate(-138.132 -434.541)" fill="#fff"/>
            </g>
          </g>
        </g>
        <path id="Trazado_256598" data-name="Trazado 256598" d="M156.281,427.088c.006.121.614.168,1.218.55.614.366.93.888,1.041.838.112-.025-.08-.749-.819-1.2s-1.468-.3-1.44-.189" transform="translate(-48.391 -132.207)" fill="#263238"/>
        <path id="Trazado_256599" data-name="Trazado 256599" d="M152.521,428.738c-.026.118.5.318.924.826s.547,1.05.668,1.043c.115.017.188-.7-.347-1.318s-1.245-.667-1.246-.551" transform="translate(-47.226 -132.739)" fill="#263238"/>
        <path id="Trazado_256600" data-name="Trazado 256600" d="M149.989,432.386c.111.024.271-.585-.051-1.247s-.895-.918-.944-.816c-.067.1.307.453.563,1s.311,1.053.432,1.063" transform="translate(-46.132 -133.239)" fill="#263238"/>
        <path id="Trazado_256601" data-name="Trazado 256601" d="M168.708,405.145l1.974,19.221,8.81-1.467.2-18.923Z" transform="translate(-52.239 -125.088)" fill="#ffc09d"/>
        <path id="Trazado_256602" data-name="Trazado 256602" d="M178.82,426.109s-5.83,4.912-9.209,1.465l-.617,1.885-2.318,13.236a1.723,1.723,0,0,0,1.2,1.974,1.756,1.756,0,0,0,1.784-.512c2.341-2.625,10.9-12.32,10.7-13.5l-.339-3.163a1.619,1.619,0,0,0-1.194-1.381" transform="translate(-51.602 -131.941)" fill="#455a64"/>
        <g id="Grupo_166989" data-name="Grupo 166989" transform="translate(116.586 297.61)" opacity="0.6">
          <g id="Grupo_166988" data-name="Grupo 166988">
            <g id="Grupo_166987" data-name="Grupo 166987" clip-path="url(#clip-path-15)">
              <path id="Trazado_256603" data-name="Trazado 256603" d="M168.877,446.271l12.065-15.176.064.692a1.913,1.913,0,0,1-.489,1.586c-.947,1.527-3.642,5-10.119,12.324a1.754,1.754,0,0,1-1.52.574" transform="translate(-168.877 -431.095)" fill="#fff"/>
            </g>
          </g>
        </g>
        <g id="Grupo_166992" data-name="Grupo 166992" transform="translate(126.138 295.528)" opacity="0.6">
          <g id="Grupo_166991" data-name="Grupo 166991">
            <g id="Grupo_166990" data-name="Grupo 166990" clip-path="url(#clip-path-16)">
              <path id="Trazado_256604" data-name="Trazado 256604" d="M183.067,428.289a1,1,0,0,0-.164,1.348,1.02,1.02,0,0,0,1.369.163.97.97,0,1,0-1.279-1.444" transform="translate(-182.713 -428.079)" fill="#fff"/>
            </g>
          </g>
        </g>
        <path id="Trazado_256605" data-name="Trazado 256605" d="M171.892,441.493a5.2,5.2,0,0,0-1.586-1.136,5.381,5.381,0,0,0-1.963-.183c-.018-.039.183-.185.57-.275a2.751,2.751,0,0,1,1.526.121,2.663,2.663,0,0,1,1.219.9c.226.318.275.556.234.574" transform="translate(-52.125 -136.193)" fill="#263238"/>
        <path id="Trazado_256606" data-name="Trazado 256606" d="M170.605,445.123a14.26,14.26,0,0,0-1.549-.566,14.4,14.4,0,0,0-1.656-.056,1.955,1.955,0,0,1,1.73-.3c1.013.191,1.558.868,1.475.92" transform="translate(-51.833 -137.527)" fill="#263238"/>
        <path id="Trazado_256607" data-name="Trazado 256607" d="M174.15,437.171a17.27,17.27,0,0,0-2.329-1.031,17.534,17.534,0,0,0-2.539-.337,3.914,3.914,0,0,1,2.643-.01,3.8,3.8,0,0,1,2.225,1.378" transform="translate(-52.416 -134.877)" fill="#263238"/>
        <path id="Trazado_256608" data-name="Trazado 256608" d="M174.252,431.933c-.036.1-1-.19-2.206-.122-1.21.052-2.139.438-2.184.34a4.38,4.38,0,0,1,4.39-.217" transform="translate(-52.596 -133.593)" fill="#263238"/>
        <path id="Trazado_256609" data-name="Trazado 256609" d="M170.923,430.641a1.374,1.374,0,0,1,.036-.62,4.261,4.261,0,0,1,.658-1.575,1.955,1.955,0,0,1,.924-.838.7.7,0,0,1,.764.216,1.076,1.076,0,0,1,.2.761,2.434,2.434,0,0,1-2.335,2.008,2.814,2.814,0,0,1-2.63-1.672.937.937,0,0,1,.029-.8.691.691,0,0,1,.742-.289,2.4,2.4,0,0,1,1.051.654,4.777,4.777,0,0,1,1.023,1.367,1.429,1.429,0,0,1,.2.587,7.612,7.612,0,0,0-1.4-1.766,2.243,2.243,0,0,0-.931-.548.37.37,0,0,0-.405.155.642.642,0,0,0,.012.525,2.513,2.513,0,0,0,2.3,1.424,2.113,2.113,0,0,0,2.008-1.677.779.779,0,0,0-.113-.536.379.379,0,0,0-.42-.125,1.775,1.775,0,0,0-.8.695,6.3,6.3,0,0,0-.909,2.052" transform="translate(-52.162 -132.394)" fill="#263238"/>
        <path id="Trazado_256610" data-name="Trazado 256610" d="M128.843,235.74s-4.645,7.286-5.36,19.929,9.588,51.452,11.009,59.749c.967,5.648,7.041,32.909,12.766,50.086l7.511.965s-5.725-57.254-5.487-63.218,2.386-37.692,2.386-37.692l3.1-24.095Z" transform="translate(-38.224 -72.995)" fill="#263238"/>
        <path id="Trazado_256611" data-name="Trazado 256611" d="M187.065,235.74c-.716.239-25.6,4.533-25.6,4.533s-8.477,65.322-9.193,73.91,11.412,52.286,11.412,52.286h12.166s-.239-28.865-2.147-37.692-1.909-10.974-.716-16.461,12.353-31.812,15.454-46.364-1.379-30.213-1.379-30.213" transform="translate(-47.141 -72.995)" fill="#263238"/>
        <path id="Trazado_256612" data-name="Trazado 256612" d="M159.272,267.3s0,.1-.02.286-.052.48-.091.837c-.089.749-.217,1.829-.381,3.212-.346,2.8-.844,6.834-1.459,11.808-1.256,9.978-2.989,23.738-4.9,38.936a29.739,29.739,0,0,0,.365,5.622c.255,1.845.574,3.654.925,5.425.7,3.543,1.484,6.938,2.277,10.162,1.589,6.447,3.183,12.212,4.551,17.044s2.527,8.728,3.327,11.421c.4,1.334.708,2.376.924,3.1.1.344.179.612.235.808s.07.278.07.278-.039-.09-.1-.269l-.266-.8-.982-3.083c-.837-2.681-2.027-6.569-3.425-11.394s-3.014-10.587-4.619-17.036c-.8-3.225-1.6-6.623-2.3-10.172-.354-1.773-.674-3.589-.933-5.441a29.94,29.94,0,0,1-.368-5.689c1.882-15.229,3.707-28.975,5-38.942.657-4.969,1.189-9,1.56-11.8.19-1.38.338-2.457.44-3.2.052-.355.093-.632.122-.833s.052-.282.052-.282" transform="translate(-47.088 -82.766)" fill="#455a64"/>
        <path id="Trazado_256613" data-name="Trazado 256613" d="M179.409,256.944a21.925,21.925,0,0,1-2.4.385c-1.48.22-3.517.575-5.736,1.106s-4.2,1.141-5.615,1.616a22.1,22.1,0,0,1-2.311.744,2.307,2.307,0,0,1,.58-.306c.382-.177.944-.41,1.646-.679a46.772,46.772,0,0,1,11.4-2.735c.748-.079,1.354-.126,1.775-.142a2.3,2.3,0,0,1,.655.01" transform="translate(-50.579 -79.554)" fill="#455a64"/>
        <path id="Trazado_256614" data-name="Trazado 256614" d="M136.22,145.766s-6.011-2.3-10.846-4.413c-5.427-2.372-9.021-4.322-9.021-4.322-.652.378-9.735,14.634-9.735,14.634l21.553,16.087,8.712-21.294Z" transform="translate(-33.013 -42.43)" fill="#a3314f"/>
        <path id="Trazado_256615" data-name="Trazado 256615" d="M220.85,191.005a8.886,8.886,0,0,0,.225-7.376c-1.64-4.235-20.4-25.7-20.4-25.7s-7.374,3.457-6.985,10.184l4.028,6.413,11.064,12.732Z" transform="translate(-59.97 -48.902)" fill="#ffc09d"/>
        <path id="Trazado_256616" data-name="Trazado 256616" d="M200.643,217.842l11.289-19.969s10.838,5.307,11.076,5.5-11.348,14.17-19.134,19.936l-2.8-1.448Z" transform="translate(-62.127 -61.27)" fill="#ffc09d"/>
        <path id="Trazado_256617" data-name="Trazado 256617" d="M175.265,150.19l-4.723-1.592-16.169.472-2.688.5s-.89,14.906-.757,15.175,6.338,5.383,6.6,5.653,13.08-4.038,13.08-4.038l8.453-15.164Z" transform="translate(-46.73 -46.012)" fill="#ffc09d"/>
        <path id="Trazado_256618" data-name="Trazado 256618" d="M164.64,148.6c.673,0,11.836,1.889,14.882,4.413,3.227,2.675,11.167,13.719,11.167,13.719l-14.857,9L173.454,192s6.079,14.568,6.887,20.745c0,0-34.238,26.638-52.621-.831,0,0,5.814-10.237,6.63-17.7.1-.929-3.642-14.286-3.623-17.822.031-5.689,1.693-16.957,1.693-16.957l5.929-9.83,9.7-.555,4.988,9.253Z" transform="translate(-39.547 -46.012)" fill="#a3314f"/>
        <path id="Trazado_256619" data-name="Trazado 256619" d="M136.017,162.649c.063.028-.444,1.167-1.1,3.064a48.892,48.892,0,0,0-1.889,7.592,40.374,40.374,0,0,0-.557,7.8c.075,2,.367,3.217.3,3.232a3.754,3.754,0,0,1-.246-.844,19.168,19.168,0,0,1-.327-2.373,34.791,34.791,0,0,1,.447-7.874,40.812,40.812,0,0,1,2.015-7.622c.369-.941.681-1.7.937-2.2a3.751,3.751,0,0,1,.418-.772" transform="translate(-40.915 -50.363)" fill="#263238"/>
        <path id="Trazado_256620" data-name="Trazado 256620" d="M180.186,219.5s4.748-1.281,5.227-1.011,4.023,2.139,4.023,2.139a18.168,18.168,0,0,0,1.673,1.813,4.665,4.665,0,0,0,2.057,1.193,3.722,3.722,0,0,0,1.334-.143l2.8,5.741s-1.468,1.894-2.5,1.876-6.753-2.424-6.753-2.424l-1.382-.3s-5.191.75-5.616-.81l-.048-.445,5.1-1,1.941.113-3.438-.888s-4.86.237-5.319.157-1.042-.723-.893-1.125l1-.236s-1.178-.641-1.214-1.344l4.494-1.217s-2.9-1.08-2.493-2.088" transform="translate(-55.173 -67.641)" fill="#ffc09d"/>
        <path id="Trazado_256621" data-name="Trazado 256621" d="M179.172,225.96a1.845,1.845,0,0,0,.413-.1c.261-.077.641-.181,1.113-.3.943-.245,2.254-.556,3.707-.878a4.7,4.7,0,0,1,.527-.1,1.632,1.632,0,0,1,.5.035c.323.089.652.2.954.3.609.208,1.149.416,1.6.608s.8.371,1.032.5a2.4,2.4,0,0,0,.372.2,1.256,1.256,0,0,0-.329-.273,7.657,7.657,0,0,0-1.013-.57c-.443-.212-.983-.436-1.593-.656-.309-.109-.619-.221-.972-.321a1.792,1.792,0,0,0-.565-.043,4.705,4.705,0,0,0-.555.1c-1.456.323-2.765.657-3.7.941-.468.141-.844.268-1.1.369a1.464,1.464,0,0,0-.386.182" transform="translate(-55.479 -69.47)" fill="#ff9b6c"/>
        <path id="Trazado_256622" data-name="Trazado 256622" d="M184.532,222.951c.017.032.359-.165.958-.349a5.384,5.384,0,0,1,4.647.686c.52.349.79.636.816.61a2.582,2.582,0,0,0-.729-.732,5.038,5.038,0,0,0-4.783-.706,2.565,2.565,0,0,0-.909.491" transform="translate(-57.139 -68.787)" fill="#ff9b6c"/>
        <path id="Trazado_256623" data-name="Trazado 256623" d="M197.859,167.01a3.627,3.627,0,0,1,.031.823c0,.53-.023,1.294-.061,2.239-.075,1.89-.23,4.5-.484,7.372s-.561,5.47-.819,7.343c-.129.937-.244,1.693-.334,2.214a3.661,3.661,0,0,1-.175.8,3.61,3.61,0,0,1,.037-.823c.059-.6.133-1.345.22-2.226.194-1.879.459-4.474.714-7.345s.449-5.471.589-7.355c.069-.883.127-1.629.175-2.231a3.627,3.627,0,0,1,.108-.817" transform="translate(-60.691 -51.713)" fill="#263238"/>
        <path id="Trazado_256624" data-name="Trazado 256624" d="M72.625,76.388l.026-2.91a13.3,13.3,0,0,0-.579-5.4c-.921-2.39-4.911-8.229-4.911-8.229-1.51-.041-1.628,1.662-.957,4.477.867,3.637-5.582,8.926-5.582,9.252,0,.432,5.61,6.147,5.61,6.147l6.387-2.739Z" transform="translate(-18.771 -18.531)" fill="#ffc09d"/>
        <path id="Trazado_256625" data-name="Trazado 256625" d="M72.378,69.321a14.973,14.973,0,0,0-1.009,3.709A14.968,14.968,0,0,0,71.7,76.86a2.653,2.653,0,0,1-.456-1.067,7.987,7.987,0,0,1,.493-5.5,2.654,2.654,0,0,1,.639-.969" transform="translate(-21.976 -21.464)" fill="#ff9b6c"/>
        <path id="Trazado_256626" data-name="Trazado 256626" d="M39.016,162.893a3.029,3.029,0,0,1-.269-.466l-.71-1.367L35.488,156,27.2,139.254l0-.009h.322l-8.291,16.741c-1.064,2.109-1.931,3.827-2.549,5.055l-.71,1.366a3.078,3.078,0,0,1-.269.466,3,3,0,0,1,.2-.5q.243-.525.649-1.4c.594-1.24,1.426-2.975,2.447-5.105l8.2-16.788.161-.329.162.329,0,.01,8.193,16.794L38.163,161l.649,1.4a3,3,0,0,1,.2.5" transform="translate(-4.861 -42.965)" fill="#263238"/>
        <path id="Trazado_256627" data-name="Trazado 256627" d="M26.5,165.758c-.1-.016.762-5.94,1.921-13.231S30.6,139.335,30.7,139.351s-.762,5.938-1.921,13.232S26.6,165.774,26.5,165.758" transform="translate(-8.205 -43.149)" fill="#263238"/>
        <path id="Trazado_256628" data-name="Trazado 256628" d="M82.128,127.052c-1.175-.5-1.679,1.8-.512,2.3.012.006.018.006.02,0l.051.043a1.456,1.456,0,0,1,.333.3c.268.4.234.8-.122.983a3.882,3.882,0,0,1-2.865-.157,30.9,30.9,0,0,1-4.889-3.122c-4.714-3.169-9.576-6.8-15.077-7.129a8.741,8.741,0,0,0-3.867.467,8.182,8.182,0,0,0-2.937-.486,17.533,17.533,0,0,0-8.495,2.378c-4.186,2.24-7.965,5.519-12.139,7.77a5.3,5.3,0,0,1-.891.309,4.276,4.276,0,0,1-1.878.084c-.465-.107-.837-.318-.562-.953a1.118,1.118,0,0,1,.323-.378.942.942,0,0,1,.184-.125c1.147-.506.645-2.784-.526-2.289-2.336.989-2.744,5.116-.111,5.989,2.106.7,4.1-.32,5.925-1.5,2.453-1.58,4.858-3.273,7.312-4.85,2.752-1.769,5.594-3.391,8.7-3.9a8.845,8.845,0,0,1,4.376.164,1,1,0,0,0,1.436,0,8.193,8.193,0,0,1,3.346-.289c3.109.237,6.03,1.7,8.779,3.419,2.523,1.578,4.986,3.3,7.481,4.944,1.827,1.2,3.548,2.349,5.7,2.189a2.892,2.892,0,0,0,2.884-3.137,3.372,3.372,0,0,0-1.98-3.033" transform="translate(-8.161 -37.232)" fill="#ff725e"/>
        <g id="Grupo_166995" data-name="Grupo 166995" transform="translate(18.196 83.012)" opacity="0.3">
          <g id="Grupo_166994" data-name="Grupo 166994">
            <g id="Grupo_166993" data-name="Grupo 166993" clip-path="url(#clip-path-17)">
              <path id="Trazado_256629" data-name="Trazado 256629" d="M82.128,127.052c-1.175-.5-1.679,1.8-.512,2.3.012.006.018.006.02,0l.051.043a1.456,1.456,0,0,1,.333.3c.268.4.234.8-.122.983a3.882,3.882,0,0,1-2.865-.157,30.9,30.9,0,0,1-4.889-3.122c-4.714-3.169-9.576-6.8-15.077-7.129a8.741,8.741,0,0,0-3.867.467,8.182,8.182,0,0,0-2.937-.486,17.533,17.533,0,0,0-8.495,2.378c-4.186,2.24-7.965,5.519-12.139,7.77a5.3,5.3,0,0,1-.891.309,4.276,4.276,0,0,1-1.878.084c-.465-.107-.837-.318-.562-.953a1.118,1.118,0,0,1,.323-.378.942.942,0,0,1,.184-.125c1.147-.506.645-2.784-.526-2.289-2.336.989-2.744,5.116-.111,5.989,2.106.7,4.1-.32,5.925-1.5,2.453-1.58,4.858-3.273,7.312-4.85,2.752-1.769,5.594-3.391,8.7-3.9a8.845,8.845,0,0,1,4.376.164,1,1,0,0,0,1.436,0,8.193,8.193,0,0,1,3.346-.289c3.109.237,6.03,1.7,8.779,3.419,2.523,1.578,4.986,3.3,7.481,4.944,1.827,1.2,3.548,2.349,5.7,2.189a2.892,2.892,0,0,0,2.884-3.137,3.372,3.372,0,0,0-1.98-3.033" transform="translate(-26.357 -120.244)"/>
            </g>
          </g>
        </g>
        <path id="Trazado_256630" data-name="Trazado 256630" d="M15.7,173.69l5.65,5.65H33.059l5.957-5.63Z" transform="translate(-4.861 -53.781)" fill="#a3314f"/>
        <path id="Trazado_256631" data-name="Trazado 256631" d="M37.7,176.576c0,.1-4.262.179-9.518.179s-9.519-.08-9.519-.179,4.261-.18,9.519-.18,9.518.08,9.518.18" transform="translate(-5.779 -54.619)" fill="#263238"/>
        <path id="Trazado_256632" data-name="Trazado 256632" d="M32.451,138.549h-.134a.385.385,0,0,1-.385-.385V135.8a.385.385,0,0,1,.385-.385h.134a.385.385,0,0,1,.385.385v2.365a.385.385,0,0,1-.385.385" transform="translate(-9.887 -41.93)" fill="#ff725e"/>
        <path id="Trazado_256633" data-name="Trazado 256633" d="M110.807,162.5a3.167,3.167,0,0,1-.275-.478l-.726-1.4c-.634-1.257-1.521-3.019-2.61-5.183l-8.49-17.16,0-.01h.322l-8.494,17.153c-1.089,2.162-1.977,3.923-2.611,5.179l-.726,1.4a3.2,3.2,0,0,1-.275.478,3.162,3.162,0,0,1,.21-.509l.666-1.43,2.508-5.23,8.4-17.2.161-.329.162.329,0,.01,8.4,17.205c1.047,2.185,1.9,3.964,2.508,5.234l.666,1.431a3.163,3.163,0,0,1,.21.509" transform="translate(-26.913 -42.664)" fill="#263238"/>
        <path id="Trazado_256634" data-name="Trazado 256634" d="M97.989,165.434c-.1-.016.785-6.085,1.972-13.555s2.229-13.515,2.327-13.5-.785,6.084-1.972,13.557-2.229,13.514-2.327,13.5" transform="translate(-30.339 -42.848)" fill="#263238"/>
        <path id="Trazado_256635" data-name="Trazado 256635" d="M86.918,173.56l5.789,5.789h12l6.1-5.768Z" transform="translate(-26.914 -53.741)" fill="#a3314f"/>
        <path id="Trazado_256636" data-name="Trazado 256636" d="M109.461,176.518c0,.1-4.367.179-9.751.179s-9.752-.08-9.752-.179,4.365-.179,9.752-.179,9.751.08,9.751.179" transform="translate(-27.855 -54.602)" fill="#263238"/>
        <path id="Trazado_256637" data-name="Trazado 256637" d="M104.091,137.558h-.156a.385.385,0,0,1-.385-.385v-2.442a.385.385,0,0,1,.385-.385h.156a.385.385,0,0,1,.385.385v2.442a.385.385,0,0,1-.385.385" transform="translate(-32.063 -41.599)" fill="#ff725e"/>
        <path id="Trazado_256638" data-name="Trazado 256638" d="M70.163,112.792l-2.973,4.1-3.3-4.1,1.118-7.448.1-19.293,3.029.048.38,19.061Z" transform="translate(-19.783 -26.645)" fill="#a3314f"/>
        <path id="Trazado_256639" data-name="Trazado 256639" d="M69.9,109.683a3.253,3.253,0,1,1-3.252-3.308,3.281,3.281,0,0,1,3.252,3.308" transform="translate(-19.629 -32.938)" fill="#a3314f"/>
        <path id="Trazado_256640" data-name="Trazado 256640" d="M65.435,83.218a4.1,4.1,0,1,1,4.1-4.1,4.1,4.1,0,0,1-4.1,4.1m0-7.5a3.406,3.406,0,1,0,3.406,3.406,3.41,3.41,0,0,0-3.406-3.406" transform="translate(-18.993 -23.231)" fill="#ff725e"/>
        <path id="Trazado_256641" data-name="Trazado 256641" d="M61.36,72.571s1.72,1.878,2.871,1.593a1.466,1.466,0,0,0,.9-2.186,1.142,1.142,0,0,0,1.806.059,2.128,2.128,0,0,0,.138-2.346s.653.075.91-1.134a3.724,3.724,0,0,0-.817-2.563,2.759,2.759,0,0,0,.582-2.682A5.552,5.552,0,0,0,64.5,60.261c-.125-.013-1.575-.434-1.9.867s-.088,1.747-.088,1.747-1.324.373-.807,2.906c0,0-1.664.623-.908,2.968,0,0-1.3,2.336-1.107,3.464a4.442,4.442,0,0,0,.983,1.988" transform="translate(-18.476 -18.636)" fill="#ffc09d"/>
        <path id="Trazado_256642" data-name="Trazado 256642" d="M60.633,74.12a1.179,1.179,0,0,1-.283-.3,4.32,4.32,0,0,1-.592-1.031,2.863,2.863,0,0,1-.213-.848,3.454,3.454,0,0,1,.145-1.029,11.773,11.773,0,0,1,.953-2.309l-.01.1a3.358,3.358,0,0,1-.165-1.671,2,2,0,0,1,1.144-1.483l-.1.177a4.875,4.875,0,0,1-.093-1.625,1.762,1.762,0,0,1,1.007-1.478l-.1.245a2.032,2.032,0,0,1-.093-.906,5.619,5.619,0,0,1,.137-.857,1.54,1.54,0,0,1,.445-.84,1.455,1.455,0,0,1,.914-.344,3.618,3.618,0,0,1,.939.109,3.575,3.575,0,0,1,.86.413,6.985,6.985,0,0,1,1.439,1.223,3.853,3.853,0,0,1,1.062,2.157,2.96,2.96,0,0,1-.764,2.208l.012-.236a4.218,4.218,0,0,1,.88,2.13,2.371,2.371,0,0,1-.211,1.12,1.047,1.047,0,0,1-.922.721l.16-.245a2.677,2.677,0,0,1,.315,1.279,1.894,1.894,0,0,1-.433,1.184,1.281,1.281,0,0,1-1.079.544,1.551,1.551,0,0,1-.992-.552l.224-.141a1.921,1.921,0,0,1,.093,1.412,1.453,1.453,0,0,1-.911.876,1.516,1.516,0,0,1-1.091-.061,3.92,3.92,0,0,1-.785-.442,7.13,7.13,0,0,1-.929-.807,1.413,1.413,0,0,1-.274-.33c.024-.026.418.423,1.286,1.015a3.907,3.907,0,0,0,.765.395,1.326,1.326,0,0,0,.956.031,1.228,1.228,0,0,0,.755-.756,1.675,1.675,0,0,0-.11-1.222l-.356-.766.58.625a1.288,1.288,0,0,0,.808.439,1,1,0,0,0,.825-.449,1.908,1.908,0,0,0,.067-2.109l-.135-.251.3.006c.211,0,.464-.242.577-.532a2.043,2.043,0,0,0,.174-.961,3.9,3.9,0,0,0-.817-1.93L66.9,65.9l.1-.115a2.614,2.614,0,0,0,.655-1.927,3.505,3.505,0,0,0-.972-1.944,6.708,6.708,0,0,0-1.361-1.158,3.26,3.26,0,0,0-.762-.371,3.307,3.307,0,0,0-.824-.1,1.1,1.1,0,0,0-.694.251,1.186,1.186,0,0,0-.339.652,5.426,5.426,0,0,0-.133.8,1.923,1.923,0,0,0,.049.72l.066.179-.171.066a1.468,1.468,0,0,0-.775,1.2,4.619,4.619,0,0,0,.074,1.513l.023.125-.122.053a1.721,1.721,0,0,0-.97,1.247,3.121,3.121,0,0,0,.132,1.534l.016.055-.026.05c-.837,1.58-1.464,3.056-.979,4.007a6.771,6.771,0,0,0,.74,1.381" transform="translate(-18.437 -18.555)" fill="#ff9b6c"/>
        <path id="Trazado_256643" data-name="Trazado 256643" d="M65.632,75.8c-.051.023-.211-.286-.512-.736A9.032,9.032,0,0,0,63.693,73.5a4.182,4.182,0,0,0-.906-.686,3.638,3.638,0,0,0-.873-.3c-.509-.126-.732.229-.776.175-.017-.013.008-.1.126-.226a.821.821,0,0,1,.684-.206,3.141,3.141,0,0,1,.989.25,3.841,3.841,0,0,1,1.008.722,6.364,6.364,0,0,1,1.4,1.7c.258.509.33.852.288.869" transform="translate(-18.93 -22.373)" fill="#ff9b6c"/>
        <path id="Trazado_256644" data-name="Trazado 256644" d="M67.946,72.181c-.046.03-.281-.281-.708-.734s-1.058-1.037-1.772-1.682a4.942,4.942,0,0,0-2.009-1.234c-.587-.166-.982-.157-.984-.217a1.694,1.694,0,0,1,1.042-.037,4.417,4.417,0,0,1,2.2,1.216,13.713,13.713,0,0,1,1.722,1.786c.389.511.55.878.509.9" transform="translate(-19.345 -21.127)" fill="#ff9b6c"/>
        <path id="Trazado_256645" data-name="Trazado 256645" d="M68.734,67.678c-.085.043-.833-1.194-2.153-2.394a3.809,3.809,0,0,0-1.906-1.033c-.556-.106-.922-.05-.931-.11-.011-.039.348-.193.966-.148a3.522,3.522,0,0,1,2.124,1.024,9.265,9.265,0,0,1,1.5,1.778c.317.509.44.861.4.883" transform="translate(-19.738 -19.812)" fill="#ff9b6c"/>
      </g>
    </g>
  </g>
</svg>
