<svg xmlns="http://www.w3.org/2000/svg" width="160.032" height="170.813" viewBox="0 0 160.032 170.813">
  <g id="Grupo_167592" data-name="Grupo 167592" transform="translate(-15.964)">
    <g id="Grupo_167594" data-name="Grupo 167594" transform="translate(15.964)">
      <path id="Trazado_258738" data-name="Trazado 258738" d="M23.313,200.687c-.094-.124-.16-.307-.285-.364-2.788-1.278-3.7-3.536-3.7-6.481q.049-48.612.036-97.224a2.789,2.789,0,0,0-1.239-2.76,5.086,5.086,0,0,1-2.153-4.471c0-8.338-.026-16.677.013-25.015a5.685,5.685,0,0,1,5.7-5.754c1.494-.057,2.992-.01,4.735-.01,0-2.318-.011-4.567.005-6.816a16.688,16.688,0,0,1,.129-2.657,5.1,5.1,0,0,1,10.129.689c.066,2.831.049,5.664.073,8.5,0,.044.065.087.162.207h3.407c0-2.637-.007-5.286,0-7.935.011-3.4,2.105-5.715,5.15-5.707s5.136,2.308,5.153,5.722c.013,2.6,0,5.206,0,7.9h3.621c0-3.024-.076-5.967.024-8.9a5.075,5.075,0,0,1,9.806-1.525,8.184,8.184,0,0,1,.37,2.609c.046,2.555.016,5.11.016,7.79h58.573c0-2.867-.035-5.792.012-8.715a4.749,4.749,0,0,1,3.01-4.427,4.866,4.866,0,0,1,5.322.692,5.259,5.259,0,0,1,1.928,4.416c0,2.658,0,5.317,0,8.067h3.552c0-2.774-.056-5.532.014-8.287.1-3.879,3.564-6.328,6.989-5.006a4.967,4.967,0,0,1,3.265,4.766c.037,2.82.009,5.642.009,8.54h3.628c0-2.627-.006-5.275,0-7.923.01-3.4,2.1-5.719,5.141-5.715,3.058,0,5.144,2.3,5.161,5.714.013,2.6,0,5.207,0,8.005,1.57,0,3.051-.017,4.532,0a5.809,5.809,0,0,1,6.138,6.195c.024,8.171,0,16.343.009,24.514a5.826,5.826,0,0,1-2.506,5,2.067,2.067,0,0,0-.717,1.46q-.057,21.179,0,42.358a3.829,3.829,0,0,0,.687,1.962c13.659,20.531,5.945,47.445-16.606,57.348-3.3,1.449-7.01,1.964-10.527,2.922a3.7,3.7,0,0,0-.655.324ZM165.153,95.392H22.691V97.02q0,48.375,0,96.749c0,2.925.672,3.579,3.66,3.579h94.954c-10.473-5.217-17.471-12.887-20.893-23.57-3.437-10.729-2.147-21.08,3.224-31.1-1.159,0-2.1.012-3.032,0-3.186-.048-5.109-1.9-5.17-5.049-.045-2.334-.056-4.672,0-7.006a4.8,4.8,0,0,1,4.965-4.95c1.889-.054,3.789.1,5.67-.035,4.143-.3,6.739,1.865,6.4,6.051-.006.067.122.145.1.119q27.359-18.619,52.575,2.755ZM50.886,61.984a1.985,1.985,0,0,0-.177.461c-.017,2.668-.008,5.336-.043,8a5.379,5.379,0,0,1-5.225,5.415A5.3,5.3,0,0,1,40.33,70.4c-.007-2.764,0-5.527,0-8.343H36.734c0,.716,0,1.313,0,1.91-.01,2.335.061,4.673-.05,7a5.046,5.046,0,0,1-6.327,4.614,5.28,5.28,0,0,1-4.007-5.274c-.034-2.753-.008-5.508-.008-8.374-1.418,0-2.579-.006-3.739,0-2.5.014-3.288.8-3.289,3.29q-.008,11.341,0,22.682c0,3.421.522,3.941,3.963,3.941q70.64,0,141.28,0a11.464,11.464,0,0,0,1.828-.076,2.218,2.218,0,0,0,2.1-2.369q.007-12.508,0-25.016a2.244,2.244,0,0,0-2.266-2.4c-1.64-.127-3.3-.03-5.1-.03,0,2.784.008,5.384,0,7.984-.014,3.4-2.278,6-5.255,5.907a5.358,5.358,0,0,1-5.148-5.783c.174-2.64.036-5.3.036-8.022h-3.386c-.088.2-.168.3-.169.4-.019,2.278-.008,4.557-.052,6.835a10.873,10.873,0,0,1-.265,2.958,5.287,5.287,0,0,1-5.4,3.595,5.4,5.4,0,0,1-4.683-5.251c-.045-2.819-.01-5.639-.01-8.524h-3.39c0,2.823.031,5.537-.009,8.25a5.463,5.463,0,0,1-3.506,5.191,4.89,4.89,0,0,1-5.471-1.327,6.047,6.047,0,0,1-1.546-4.6c-.013-2.483,0-4.967,0-7.491H64.588c0,1.353.023,2.572-.005,3.789a48.792,48.792,0,0,1-.223,5.481,5.189,5.189,0,0,1-5.03,4.479,5.1,5.1,0,0,1-5.045-4.252,58.242,58.242,0,0,1-.23-6.976c-.018-.857,0-1.716,0-2.612ZM172.693,162.008a35.325,35.325,0,0,0-70.648-.324c-.05,20.046,15.693,35.777,36.134,35.593,18.34-.166,34.237-15.028,34.514-35.269M104.058,129c-1.053,0-2.108.038-3.159-.009-1.582-.072-2.21.678-2.146,2.214.055,1.328.025,2.66.009,3.99-.057,4.606-.039,4,4.144,4.2a4.68,4.68,0,0,0,4.76-2.356c.579-.952,1.523-1.575,1.484-2.972-.154-5.588.675-5.06-5.091-5.07m39.668-68.836h.041q0-5,0-10.006a1.668,1.668,0,0,0-1.646-1.907c-1.135-.076-1.716.631-1.891,1.7a5.115,5.115,0,0,0-.03.832q.029,9.505.066,19.01a2.223,2.223,0,0,0,.121,1.141c.345.5.846,1.205,1.313,1.229a2.552,2.552,0,0,0,1.729-.9,2.66,2.66,0,0,0,.284-1.588c.023-3.168.011-6.337.011-9.506m-110.4.176h.033q0-5.082,0-10.165a1.694,1.694,0,0,0-1.648-1.919c-1.222-.092-1.8.679-1.938,1.822a6.591,6.591,0,0,0-.017.832q.065,9.578.128,19.157c.006,1.164.223,2.176,1.653,2.182,1.474.006,1.8-.983,1.794-2.244-.019-3.222-.006-6.444-.006-9.666M154.11,60.26c0,3.333-.006,6.666,0,10,0,1.149.479,1.98,1.733,1.973,1.167-.006,1.616-.763,1.626-1.872q.09-9.907.2-19.814c.012-1.242-.372-2.313-1.809-2.282-1.4.031-1.773,1.06-1.762,2.329.027,3.222.009,6.444.01,9.666M43.668,60.241c0,3.336-.021,6.672.012,10.008.011,1.11.492,1.986,1.755,1.986,1.291,0,1.658-.862,1.665-2.01q.054-9.837.134-19.675c.01-1.254-.335-2.312-1.783-2.29-1.4.021-1.8,1.026-1.792,2.306.026,3.225.009,6.45.01,9.675M61.03,60.4h.093c0-3.216-.014-6.431.007-9.647.008-1.29-.257-2.456-1.78-2.478-1.555-.022-1.787,1.156-1.78,2.444q.05,9.65.054,19.3c0,1.25.239,2.28,1.761,2.229,1.387-.046,1.659-1.015,1.652-2.2-.02-3.217-.007-6.434-.007-9.651m68.752-.163h.076c0-3.222-.017-6.444.009-9.666.01-1.245-.243-2.323-1.724-2.3-1.421.017-1.78,1.028-1.774,2.3q.047,9.751.037,19.5c0,1.2.337,2.151,1.7,2.156,1.383.005,1.693-.95,1.683-2.157-.027-3.278-.009-6.557-.009-9.835" transform="translate(-15.964 -29.874)" fill="#262223"/>
      <path id="Trazado_258739" data-name="Trazado 258739" d="M312.537,0l1.472,2.862c.713.2,2.541-.065,2.159,1.821-.158.782-1.326,1.361-2.232,1.837-.573.937-.373,2.572-2.231,2.493-1.665-.071-1.513-1.468-1.6-2.616-1.282-.214-2.781-.144-2.823-1.816-.043-1.739,1.487-1.608,2.546-1.762L310.869,0Z" transform="translate(-210.093)" fill="#5aaed5"/>
      <path id="Trazado_258740" data-name="Trazado 258740" d="M170.65,22.352l-3.687-3.644,3.96-3.857a5.586,5.586,0,0,0,3.732,3.694l-4,3.807" transform="translate(-116.587 -9.896)" fill="#73cd73"/>
      <path id="Trazado_258741" data-name="Trazado 258741" d="M277.934,46.483c-.68.37-1.419,1.1-2.022,1-.555-.09-1.461-1.244-1.329-1.624a2.6,2.6,0,0,1,1.781-1.456c.467-.07,1.082.848,1.631,1.324q-.03.377-.06.754" transform="translate(-188.293 -29.588)" fill="#fdcb29"/>
      <path id="Trazado_258742" data-name="Trazado 258742" d="M178.589,196.388V235.56q-25.279-21.45-52.575-2.755c.023.026-.1-.052-.1-.12.335-4.186-2.262-6.35-6.4-6.051-1.881.136-3.781-.02-5.671.035a4.8,4.8,0,0,0-4.965,4.951c-.061,2.334-.049,4.671,0,7.005.061,3.149,1.983,5,5.169,5.049.936.014,1.874,0,3.033,0-5.371,10.018-6.661,20.369-3.224,31.1,3.422,10.683,10.42,18.353,20.893,23.57H39.787c-2.988,0-3.66-.655-3.66-3.579q0-48.375,0-96.75v-1.627Zm-40.72,9.84c-1.222,0-2.445-.028-3.666.006a4.6,4.6,0,0,0-4.777,4.7c-.078,2.5-.076,5-.005,7.5a4.658,4.658,0,0,0,4.729,4.786c2.5.086,5,.082,7.5,0a4.436,4.436,0,0,0,4.607-4.165,61.8,61.8,0,0,0-.005-8.808,4.38,4.38,0,0,0-4.548-4c-1.276-.044-2.555-.008-3.833-.012m20.44,0c-1.223,0-2.446-.028-3.668.005a4.639,4.639,0,0,0-4.81,4.848c-.043,2.444-.047,4.89,0,7.334a4.67,4.67,0,0,0,4.718,4.8c2.5.089,5,.088,7.5,0a4.725,4.725,0,0,0,4.761-4.795c.082-2.5.092-5-.005-7.5a4.675,4.675,0,0,0-4.832-4.687c-1.222-.034-2.445-.006-3.667,0M96.86,243.659v.016c1.222,0,2.445.024,3.667,0a4.755,4.755,0,0,0,4.946-4.922q.074-3.582,0-7.166a4.694,4.694,0,0,0-4.644-4.888c-2.552-.107-5.114-.1-7.666,0A4.636,4.636,0,0,0,88.5,231.2c-.094,2.663-.094,5.335,0,8a4.6,4.6,0,0,0,4.524,4.447c1.275.059,2.555.01,3.833.01m-20.369,0v.015c1.222,0,2.445.027,3.667-.005a4.525,4.525,0,0,0,4.766-4.358,65.372,65.372,0,0,0-.016-8.32,4.481,4.481,0,0,0-4.5-4.294c-2.607-.108-5.225-.112-7.831,0a4.569,4.569,0,0,0-4.535,4.615c-.082,2.663-.089,5.335.025,8a4.486,4.486,0,0,0,4.425,4.337c1.33.063,2.666.011,4,.011m-20.525,0v.012c1.222,0,2.444.023,3.666,0a4.646,4.646,0,0,0,4.893-4.772c.082-2.5.077-5,0-7.5a4.61,4.61,0,0,0-4.621-4.71c-2.551-.1-5.111-.094-7.663,0a4.416,4.416,0,0,0-4.541,4.044,65.22,65.22,0,0,0,.007,8.973,4.367,4.367,0,0,0,4.428,3.947c1.275.054,2.555.01,3.832.01m12.055,11.962H68c0,1.223-.046,2.447.009,3.667a4.6,4.6,0,0,0,4.71,4.782c2.553.087,5.114.087,7.668-.008a4.482,4.482,0,0,0,4.577-4.386,71.387,71.387,0,0,0-.024-8.161,4.36,4.36,0,0,0-4.26-4.338,66.619,66.619,0,0,0-8.489.02,4.394,4.394,0,0,0-4.155,4.425c-.08,1.328-.014,2.666-.014,4m-3.516,0h.054c0-1.222.042-2.446-.009-3.666a4.634,4.634,0,0,0-4.671-4.845c-2.55-.124-5.114-.12-7.664,0a4.437,4.437,0,0,0-4.561,4.223,65.406,65.406,0,0,0,.019,8.649A4.287,4.287,0,0,0,52,264.041c2.717.107,5.446.11,8.163,0a4.4,4.4,0,0,0,4.323-4.246c.112-1.379.02-2.774.02-4.162m23.959.017c0,1.111-.013,2.223,0,3.334.042,3.1,1.845,5.016,4.923,5.1q3.581.1,7.167,0a4.7,4.7,0,0,0,4.918-4.939q.068-3.583,0-7.167a4.544,4.544,0,0,0-4.339-4.8,65.364,65.364,0,0,0-8.323,0,4.573,4.573,0,0,0-4.342,4.8c-.032,1.222-.006,2.445-.006,3.667m-11.9,11.975v-.01c-1.222,0-2.445-.024-3.667,0a4.623,4.623,0,0,0-4.874,4.785c-.079,2.442-.075,4.891,0,7.333a4.689,4.689,0,0,0,4.821,4.877q3.664.111,7.334,0c2.55-.073,4.521-1.644,4.691-4.084a63.42,63.42,0,0,0-.019-8.976,4.348,4.348,0,0,0-4.448-3.921c-1.276-.05-2.556-.009-3.834-.009m-20.51,0v-.014c-1.222,0-2.445-.028-3.667.006a4.532,4.532,0,0,0-4.761,4.368,67.128,67.128,0,0,0-.01,8.156,4.6,4.6,0,0,0,4.709,4.464c2.5.083,5,.084,7.5,0a4.6,4.6,0,0,0,4.673-4.492c.121-2.715.115-5.444-.007-8.16a4.461,4.461,0,0,0-4.437-4.317c-1.331-.061-2.666-.011-4-.011m61.475-61.376v-.021c-1.278,0-2.557-.031-3.835.006a4.684,4.684,0,0,0-4.8,4.716c-.089,2.5-.085,5,0,7.5a4.687,4.687,0,0,0,4.623,4.752c2.607.111,5.227.112,7.834-.007a4.531,4.531,0,0,0,4.484-4.313c.106-2.774.1-5.558,0-8.333a4.489,4.489,0,0,0-4.3-4.286c-1.329-.079-2.667-.014-4-.014M96.963,267.62v-.005c-1.223,0-2.446-.029-3.667.006a4.68,4.68,0,0,0-4.819,4.857c-.044,2.388-.04,4.778,0,7.167a4.728,4.728,0,0,0,4.753,4.956c2.5.09,5,.088,7.5,0a4.7,4.7,0,0,0,4.728-4.648c.091-2.608.09-5.224,0-7.832a4.615,4.615,0,0,0-4.654-4.492c-1.276-.046-2.556-.008-3.833-.008m8.517-52.963c0-1.222.035-2.445-.007-3.666a4.657,4.657,0,0,0-4.753-4.747q-3.749-.082-7.5,0A4.648,4.648,0,0,0,88.482,211c-.054,2.443-.049,4.89,0,7.333a4.7,4.7,0,0,0,4.661,4.872c2.552.106,5.114.1,7.666,0a4.761,4.761,0,0,0,4.674-4.884c.04-1.221.007-2.444,0-3.666" transform="translate(-29.399 -130.869)" fill="#e7e7e8"/>
      <path id="Trazado_258743" data-name="Trazado 258743" d="M57.57,96.12h3.165c0,.9-.015,1.754,0,2.612a58.238,58.238,0,0,0,.23,6.975,5.1,5.1,0,0,0,5.046,4.253,5.188,5.188,0,0,0,5.03-4.479A48.719,48.719,0,0,0,71.267,100c.029-1.218.006-2.436.006-3.789H129.53c0,2.524-.009,5.008,0,7.491a6.047,6.047,0,0,0,1.546,4.6,4.89,4.89,0,0,0,5.471,1.327,5.463,5.463,0,0,0,3.506-5.192c.04-2.713.009-5.427.009-8.25h3.39c0,2.885-.035,5.706.01,8.524a5.4,5.4,0,0,0,4.683,5.251,5.287,5.287,0,0,0,5.4-3.595,10.873,10.873,0,0,0,.265-2.958c.044-2.278.033-4.557.052-6.835,0-.1.081-.2.169-.4h3.386c0,2.721.138,5.382-.036,8.022a5.358,5.358,0,0,0,5.148,5.783c2.977.091,5.241-2.506,5.255-5.907.011-2.6,0-5.2,0-7.985,1.807,0,3.464-.1,5.1.03a2.244,2.244,0,0,1,2.267,2.4q.018,12.508,0,25.017a2.218,2.218,0,0,1-2.1,2.369,11.466,11.466,0,0,1-1.828.076q-70.64,0-141.28,0c-3.442,0-3.963-.52-3.963-3.941q0-11.341,0-22.682c0-2.491.794-3.276,3.29-3.29,1.16-.007,2.32,0,3.739,0,0,2.866-.026,5.62.008,8.374a5.28,5.28,0,0,0,4.007,5.274,5.045,5.045,0,0,0,6.326-4.614c.111-2.33.041-4.668.05-7,0-.6,0-1.194,0-1.91h3.595c0,2.815-.006,5.579,0,8.343A5.3,5.3,0,0,0,52.125,110a5.379,5.379,0,0,0,5.225-5.415c.035-2.667.026-5.335.043-8a1.977,1.977,0,0,1,.177-.46m43.165,13.262q-8.827,0-17.653,0c-1.191,0-2.358.111-2.357,1.65,0,1.5,1.109,1.7,2.332,1.695q17.57-.016,35.14.005c1.244,0,2.365-.234,2.375-1.667s-1.1-1.7-2.349-1.691c-5.829.027-11.658.012-17.487.012" transform="translate(-22.648 -64.01)" fill="#a3314f"/>
      <path id="Trazado_258744" data-name="Trazado 258744" d="M344.634,325.389c-.277,20.24-16.174,35.1-34.514,35.269-20.44.185-36.184-15.547-36.134-35.593a35.325,35.325,0,0,1,70.648.324m-65.715.031a30.357,30.357,0,1,0,30.223-30.411,30.319,30.319,0,0,0-30.223,30.411" transform="translate(-187.904 -193.255)" fill="#ced371"/>
      <path id="Trazado_258745" data-name="Trazado 258745" d="M269.415,297.1c5.766.01,4.936-.518,5.091,5.07.039,1.4-.905,2.02-1.484,2.973a4.68,4.68,0,0,1-4.76,2.356c-4.183-.2-4.2.4-4.144-4.2.016-1.33.047-2.662-.009-3.99-.064-1.536.564-2.286,2.146-2.214,1.051.048,2.106.009,3.159.009" transform="translate(-181.32 -197.972)" fill="#aadbf5"/>
      <path id="Trazado_258746" data-name="Trazado 258746" d="M391.88,66.993c0,3.169.012,6.337-.011,9.506a2.659,2.659,0,0,1-.285,1.587,2.551,2.551,0,0,1-1.729.9c-.467-.025-.968-.729-1.313-1.23a2.219,2.219,0,0,1-.121-1.141q-.04-9.5-.066-19.01a5.081,5.081,0,0,1,.03-.832c.174-1.066.756-1.773,1.89-1.7a1.667,1.667,0,0,1,1.646,1.906q-.01,5,0,10.006h-.04" transform="translate(-264.117 -36.701)" fill="#e2e2e3"/>
      <path id="Trazado_258747" data-name="Trazado 258747" d="M60.883,67.175c0,3.222-.013,6.444.006,9.666.007,1.261-.32,2.25-1.794,2.244-1.431-.006-1.647-1.018-1.654-2.182q-.052-9.578-.128-19.157a6.655,6.655,0,0,1,.017-.832c.137-1.143.716-1.914,1.938-1.822a1.694,1.694,0,0,1,1.648,1.919q0,5.083,0,10.165h-.033" transform="translate(-43.516 -36.707)" fill="#e4e4e5"/>
      <path id="Trazado_258748" data-name="Trazado 258748" d="M430.027,67.12c0-3.222.018-6.444-.009-9.666-.011-1.27.358-2.3,1.761-2.329,1.437-.032,1.821,1.039,1.809,2.282q-.1,9.907-.2,19.814c-.01,1.109-.459,1.865-1.627,1.872-1.253.007-1.73-.824-1.733-1.973-.009-3.333,0-6.666,0-10" transform="translate(-291.881 -36.734)" fill="#e4e4e5"/>
      <path id="Trazado_258749" data-name="Trazado 258749" d="M98.984,67.094c0-3.225.017-6.45-.009-9.675-.01-1.28.389-2.284,1.792-2.306,1.448-.022,1.793,1.036,1.783,2.29q-.078,9.837-.134,19.675c-.006,1.147-.374,2.01-1.664,2.01-1.263,0-1.744-.876-1.755-1.986-.034-3.336-.012-6.672-.013-10.008" transform="translate(-71.28 -36.726)" fill="#e4e4e5"/>
      <path id="Trazado_258750" data-name="Trazado 258750" d="M144.134,67.274c0,3.217-.013,6.434.007,9.651.007,1.182-.265,2.151-1.652,2.2-1.523.051-1.761-.979-1.761-2.228q0-9.65-.054-19.3c-.007-1.288.225-2.466,1.78-2.444,1.523.022,1.788,1.188,1.78,2.478-.021,3.215-.007,6.431-.007,9.647h-.093" transform="translate(-99.068 -36.75)" fill="#e7e7e8"/>
      <path id="Trazado_258751" data-name="Trazado 258751" d="M350.305,67.094c0,3.278-.018,6.557.009,9.835.01,1.206-.3,2.162-1.683,2.157-1.365-.005-1.7-.958-1.7-2.156q0-9.752-.037-19.5c-.006-1.274.353-2.285,1.774-2.3,1.481-.018,1.734,1.059,1.724,2.3-.026,3.222-.009,6.444-.009,9.666h-.076" transform="translate(-236.488 -36.734)" fill="#e7e7e8"/>
      <path id="Trazado_258752" data-name="Trazado 258752" d="M324.113,225.863c1.277,0,2.557-.034,3.833.01a4.381,4.381,0,0,1,4.548,4,61.8,61.8,0,0,1,.005,8.808,4.436,4.436,0,0,1-4.607,4.165c-2.5.083-5,.087-7.5,0a4.658,4.658,0,0,1-4.729-4.786q-.106-3.746.005-7.5a4.6,4.6,0,0,1,4.777-4.7c1.221-.034,2.444-.006,3.666,0m-5.07,6.766,3.4,2.738,6.109-5.856c-.067-.041-.2-.2-.345-.2q-3.074-.054-6.148-.068c-3-.01-3.116.109-3.045,3.059a1.362,1.362,0,0,0,.028.329m4.478,6.949a31.808,31.808,0,0,0,4.234-.065,2.159,2.159,0,0,0,1.5-1.365,34.785,34.785,0,0,0,.072-4.768l-5.811,6.2m-4.3-2.211-.314.109a4.94,4.94,0,0,0,.708,1.745c.315.321,1.038.241,1.813.382l-2.206-2.236" transform="translate(-215.643 -150.502)" fill="#262323"/>
      <path id="Trazado_258753" data-name="Trazado 258753" d="M385.358,225.858c1.223,0,2.446-.029,3.668.005a4.676,4.676,0,0,1,4.832,4.687c.1,2.5.087,5,.005,7.5a4.725,4.725,0,0,1-4.761,4.795c-2.5.088-5,.09-7.5,0a4.67,4.67,0,0,1-4.718-4.8c-.05-2.444-.046-4.89,0-7.334a4.639,4.639,0,0,1,4.81-4.848c1.222-.033,2.445-.006,3.667-.006m-.96,9.725,5.035-6.459c.025.284-.538.133-1.1.124-1.94-.031-3.88-.018-5.82-.01-2.036.008-2.286.267-2.294,2.318,0,.491,0,.983,0,1.059l4.183,2.968m.472,4a34.039,34.039,0,0,0,3.959-.049c.588-.067,1.533-.617,1.592-1.047a38.414,38.414,0,0,0,.076-4.888l-5.627,5.984m-4.546-2.889c-.177,2.676.265,3.094,2.5,2.652l-2.5-2.652" transform="translate(-256.449 -150.499)" fill="#262223"/>
      <path id="Trazado_258754" data-name="Trazado 258754" d="M201.334,304.038c-1.278,0-2.558.049-3.833-.01a4.6,4.6,0,0,1-4.524-4.447c-.1-2.663-.1-5.335,0-8a4.636,4.636,0,0,1,4.664-4.513c2.553-.094,5.114-.1,7.666,0a4.694,4.694,0,0,1,4.644,4.888q.067,3.582,0,7.167A4.755,4.755,0,0,1,205,304.05c-1.222.028-2.445,0-3.667,0v-.016m-1.6-8.123,5.446-5.545c-2.252,0-4.691-.013-7.129.005a1.589,1.589,0,0,0-1.779,1.887c.026.545,0,1.092,0,1.637l.385-.3,3.073,2.313m6.884-1.255-.394-.145c-1.586,1.626-3.148,3.277-4.766,4.871-1.328,1.308-2.066,1.267-3.342-.057-.52-.539-1.026-1.093-1.65-1.76-.344,2.5-.06,3.089,1.5,3.125,2.328.055,4.658.015,6.987.014a1.459,1.459,0,0,0,1.667-1.615c.008-1.478,0-2.956,0-4.434" transform="translate(-133.874 -191.248)" fill="#252222"/>
      <path id="Trazado_258755" data-name="Trazado 258755" d="M140.119,304.033c-1.333,0-2.669.052-4-.011a4.487,4.487,0,0,1-4.424-4.337c-.114-2.662-.107-5.333-.025-8a4.569,4.569,0,0,1,4.534-4.615c2.606-.114,5.225-.111,7.831,0a4.482,4.482,0,0,1,4.5,4.293,65.446,65.446,0,0,1,.016,8.32,4.525,4.525,0,0,1-4.767,4.357c-1.221.033-2.445.006-3.667.006v-.015m-1.67-7.9,5.6-5.766c-2.4,0-4.785.018-7.17-.006-1.339-.014-1.939.613-1.877,1.935.023.49,0,.983,0,1.089l3.448,2.748m-3.208,1.886c-.455,2.235-.142,2.676,1.838,2.689,2.164.015,4.334.088,6.489-.055.594-.04,1.575-.709,1.633-1.181a41.419,41.419,0,0,0,.078-5.014,43.309,43.309,0,0,0-5.016,4.593c-1.714,1.725-2.3,1.71-3.933.011-.331-.344-.689-.662-1.089-1.043" transform="translate(-93.027 -191.244)" fill="#262323"/>
      <path id="Trazado_258756" data-name="Trazado 258756" d="M78.783,304.043c-1.277,0-2.557.044-3.832-.01a4.368,4.368,0,0,1-4.428-3.947,65.38,65.38,0,0,1-.007-8.973,4.416,4.416,0,0,1,4.54-4.044c2.552-.09,5.112-.1,7.663,0a4.611,4.611,0,0,1,4.621,4.71c.078,2.5.084,5,0,7.5a4.646,4.646,0,0,1-4.893,4.772c-1.221.028-2.444,0-3.666,0Zm-1.261-8.051,5.5-5.622q-3.22,0-6.434,0c-2.768,0-3.377.81-2.836,2.945l3.768,2.678m6.468-.882-.539-.258c-1.494,1.558-2.969,3.134-4.488,4.666-1.039,1.048-2.094,1.141-3.123-.083-.589-.7-1.249-1.339-1.967-2.1-.485,2.921-.109,3.38,2.548,3.382,1.944,0,3.888-.005,5.832,0,.937,0,1.693-.262,1.727-1.346.044-1.418.011-2.839.011-4.259" transform="translate(-52.216 -191.25)" fill="#262323"/>
      <path id="Trazado_258757" data-name="Trazado 258757" d="M131.652,356.825c0-1.333-.065-2.671.014-4a4.394,4.394,0,0,1,4.155-4.425,66.675,66.675,0,0,1,8.489-.02,4.36,4.36,0,0,1,4.26,4.338,71.469,71.469,0,0,1,.024,8.161,4.482,4.482,0,0,1-4.577,4.386c-2.553.094-5.114.095-7.668.008a4.6,4.6,0,0,1-4.71-4.782c-.055-1.22-.009-2.445-.009-3.667h.021m3.328.066c0,1.109.026,2.218-.007,3.326a1.575,1.575,0,0,0,1.791,1.852c2.217,0,4.435,0,6.652,0,1.207,0,1.888-.54,1.892-1.789.007-2.273.012-4.545,0-6.818a1.527,1.527,0,0,0-1.738-1.73c-2.273.019-4.546.023-6.819,0-1.278-.015-1.809.6-1.776,1.835.029,1.108.006,2.217.007,3.326" transform="translate(-93.03 -232.071)" fill="#292627"/>
      <path id="Trazado_258758" data-name="Trazado 258758" d="M87.268,356.773c0,1.388.092,2.783-.02,4.162a4.4,4.4,0,0,1-4.323,4.246c-2.717.115-5.445.111-8.163,0a4.287,4.287,0,0,1-4.325-4.052,65.406,65.406,0,0,1-.019-8.649,4.437,4.437,0,0,1,4.561-4.223c2.55-.121,5.115-.124,7.664,0a4.634,4.634,0,0,1,4.671,4.845c.051,1.22.008,2.444.008,3.666h-.054m-3.3.059c0-1.164,0-2.328,0-3.492.005-1.081-.495-1.657-1.606-1.655-2.328,0-4.657.013-6.985-.006a1.524,1.524,0,0,0-1.735,1.731q-.017,3.409,0,6.818A1.571,1.571,0,0,0,75.368,362c2.328.014,4.657.022,6.985-.007a1.47,1.47,0,0,0,1.617-1.674c-.013-1.164,0-2.328,0-3.492" transform="translate(-52.161 -232.013)" fill="#292627"/>
      <path id="Trazado_258759" data-name="Trazado 258759" d="M192.989,356.831c0-1.222-.026-2.445.006-3.667a4.573,4.573,0,0,1,4.342-4.8,65.431,65.431,0,0,1,8.323,0,4.544,4.544,0,0,1,4.34,4.8q.066,3.583,0,7.167a4.7,4.7,0,0,1-4.918,4.939q-3.581.1-7.167,0c-3.078-.089-4.88-2-4.923-5.1-.015-1.111,0-2.223,0-3.334m13.68.009c0-1.109-.017-2.219,0-3.328.023-1.152-.481-1.786-1.666-1.788q-3.494-.008-6.989,0c-1.173,0-1.7.592-1.694,1.76q.03,3.41,0,6.822a1.549,1.549,0,0,0,1.747,1.741q3.411.035,6.822,0a1.6,1.6,0,0,0,1.783-1.879c-.036-1.108-.008-2.218-.008-3.327" transform="translate(-133.923 -232.054)" fill="#272324"/>
      <path id="Trazado_258760" data-name="Trazado 258760" d="M140.149,409.864c1.278,0,2.558-.042,3.834.009a4.348,4.348,0,0,1,4.448,3.92,63.424,63.424,0,0,1,.019,8.977c-.17,2.44-2.141,4.011-4.691,4.084q-3.665.105-7.334,0a4.689,4.689,0,0,1-4.821-4.877c-.071-2.442-.074-4.891,0-7.333a4.623,4.623,0,0,1,4.874-4.785c1.222-.028,2.445,0,3.667,0v.01m-5.213,8.295c0,1.164.02,2.329-.006,3.493-.027,1.224.5,1.882,1.765,1.879,2.274,0,4.548,0,6.822,0a1.518,1.518,0,0,0,1.729-1.595q.063-3.576,0-7.152a1.469,1.469,0,0,0-1.7-1.592c-2.329.025-4.659.015-6.988.005a1.438,1.438,0,0,0-1.628,1.637c0,1.109,0,2.218,0,3.327" transform="translate(-92.987 -273.112)" fill="#282426"/>
      <path id="Trazado_258761" data-name="Trazado 258761" d="M78.759,409.865c1.333,0,2.669-.05,4,.011a4.461,4.461,0,0,1,4.437,4.316c.122,2.715.128,5.445.007,8.16a4.6,4.6,0,0,1-4.673,4.492c-2.5.086-5,.084-7.5,0a4.6,4.6,0,0,1-4.709-4.464,67.133,67.133,0,0,1,.01-8.156,4.532,4.532,0,0,1,4.76-4.368c1.221-.033,2.444-.006,3.667-.006v.014m5.15,8.525c0-1.22.012-2.44,0-3.659a1.382,1.382,0,0,0-1.552-1.534c-2.385,0-4.776-.1-7.149.067a2.184,2.184,0,0,0-1.537,1.452c-.171,2.372-.1,4.764-.068,7.147a1.516,1.516,0,0,0,1.668,1.659q3.494.018,6.988,0a1.477,1.477,0,0,0,1.658-1.638c.005-1.164,0-2.329,0-3.493" transform="translate(-52.107 -273.11)" fill="#282426"/>
      <path id="Trazado_258762" data-name="Trazado 258762" d="M262.732,225.88c1.334,0,2.671-.065,4,.014a4.489,4.489,0,0,1,4.3,4.286c.1,2.774.1,5.558,0,8.332a4.53,4.53,0,0,1-4.484,4.313c-2.607.12-5.226.118-7.833.007a4.687,4.687,0,0,1-4.624-4.752c-.084-2.5-.088-5,0-7.5a4.683,4.683,0,0,1,4.8-4.716c1.277-.037,2.556-.006,3.835-.006v.021m5.012,8.557c0-1.166-.009-2.331,0-3.5.012-1.185-.582-1.713-1.745-1.707q-3.414.019-6.829,0a1.544,1.544,0,0,0-1.761,1.724c-.013,2.331-.024,4.663.008,6.994a1.493,1.493,0,0,0,1.687,1.623c2.332,0,4.663,0,6.995,0a1.452,1.452,0,0,0,1.642-1.637q0-1.748,0-3.5" transform="translate(-174.605 -150.5)" fill="#262223"/>
      <path id="Trazado_258763" data-name="Trazado 258763" d="M201.467,409.867c1.278,0,2.557-.038,3.834.008a4.615,4.615,0,0,1,4.654,4.492c.1,2.608.1,5.224,0,7.832a4.7,4.7,0,0,1-4.728,4.648c-2.5.088-5,.09-7.5,0a4.728,4.728,0,0,1-4.753-4.956c-.037-2.388-.041-4.779,0-7.167a4.68,4.68,0,0,1,4.819-4.857c1.221-.035,2.445-.006,3.667-.006v.005m-5.157,8.513c0,1.11.016,2.221,0,3.331-.023,1.262.616,1.826,1.836,1.825q3.331,0,6.662,0c1.211,0,1.861-.543,1.851-1.812-.018-2.276-.008-4.552,0-6.828,0-1.177-.581-1.711-1.751-1.7q-3.414.026-6.829,0c-1.282-.012-1.8.628-1.767,1.857.028,1.11.006,2.22.006,3.331" transform="translate(-133.903 -273.116)" fill="#262223"/>
      <path id="Trazado_258764" data-name="Trazado 258764" d="M209.98,234.26c0,1.222.035,2.445-.005,3.666a4.76,4.76,0,0,1-4.674,4.884c-2.552.1-5.114.105-7.666,0a4.7,4.7,0,0,1-4.66-4.872c-.045-2.443-.05-4.89,0-7.333a4.648,4.648,0,0,1,4.738-4.758q3.748-.083,7.5,0a4.656,4.656,0,0,1,4.753,4.747c.042,1.221.007,2.444.009,3.666m-8.529,5.288c1.111,0,2.222-.018,3.333,0,1.229.025,1.871-.507,1.863-1.779-.014-2.277-.008-4.555,0-6.832a1.52,1.52,0,0,0-1.734-1.734c-2.277.007-4.555.011-6.832,0-1.153-.006-1.774.508-1.774,1.693,0,2.333,0,4.665,0,7a1.47,1.47,0,0,0,1.645,1.649c1.167.007,2.333,0,3.5,0" transform="translate(-133.898 -150.472)" fill="#252122"/>
      <path id="Trazado_258765" data-name="Trazado 258765" d="M210.053,135.978c5.829,0,11.658.015,17.487-.012,1.253-.006,2.359.259,2.349,1.691s-1.131,1.669-2.375,1.667q-17.571-.029-35.14-.005c-1.223,0-2.331-.193-2.332-1.695,0-1.538,1.166-1.651,2.357-1.65q8.827.012,17.653,0" transform="translate(-131.966 -90.605)" fill="#241f20"/>
      <path id="Trazado_258766" data-name="Trazado 258766" d="M288.773,335.41A30.357,30.357,0,1,1,319.1,365.718a30.315,30.315,0,0,1-30.331-30.308m57.35-.108a27.009,27.009,0,1,0-26.812,27.076A27.021,27.021,0,0,0,346.122,335.3" transform="translate(-197.758 -203.245)" fill="#262323"/>
      <path id="Trazado_258767" data-name="Trazado 258767" d="M325.816,239.4a1.362,1.362,0,0,1-.028-.329c-.071-2.95.041-3.069,3.045-3.059q3.074.009,6.147.068c.14,0,.278.16.346.2l-6.109,5.856-3.4-2.738" transform="translate(-222.416 -157.276)" fill="#6cc96c"/>
      <path id="Trazado_258768" data-name="Trazado 258768" d="M339.319,254.62l5.811-6.2a34.8,34.8,0,0,1-.072,4.768,2.159,2.159,0,0,1-1.505,1.365,31.8,31.8,0,0,1-4.234.065" transform="translate(-231.441 -165.544)" fill="#68c168"/>
      <path id="Trazado_258769" data-name="Trazado 258769" d="M325.787,260.375l2.206,2.236c-.775-.141-1.5-.061-1.813-.382a4.939,4.939,0,0,1-.708-1.745l.314-.109" transform="translate(-222.215 -173.509)" fill="#6ac66a"/>
      <path id="Trazado_258770" data-name="Trazado 258770" d="M391.126,242.129l-4.182-2.968c0-.076,0-.568,0-1.059.007-2.051.257-2.31,2.293-2.318,1.94-.008,3.881-.021,5.82.01.565.009,1.128.16,1.1-.124l-5.035,6.459" transform="translate(-263.177 -157.046)" fill="#6cc96c"/>
      <path id="Trazado_258771" data-name="Trazado 258771" d="M400.9,255.055l5.627-5.984a38.406,38.406,0,0,1-.076,4.888c-.058.43-1,.98-1.592,1.047a34.039,34.039,0,0,1-3.959.049" transform="translate(-272.475 -165.976)" fill="#68c168"/>
      <path id="Trazado_258772" data-name="Trazado 258772" d="M387.2,258.348l2.5,2.652c-2.23.442-2.672.024-2.5-2.652" transform="translate(-263.324 -172.158)" fill="#68c168"/>
      <path id="Trazado_258773" data-name="Trazado 258773" d="M206.456,302.644l-3.073-2.313-.385.3c0-.546.022-1.093,0-1.637a1.589,1.589,0,0,1,1.779-1.887c2.438-.019,4.877-.006,7.129-.006l-5.446,5.545" transform="translate(-140.594 -197.978)" fill="#6ac66a"/>
      <path id="Trazado_258774" data-name="Trazado 258774" d="M213.476,309.677c0,1.478.006,2.956,0,4.434a1.459,1.459,0,0,1-1.667,1.615c-2.329,0-4.659.041-6.987-.014-1.556-.036-1.84-.63-1.5-3.125.624.667,1.13,1.22,1.65,1.76,1.276,1.324,2.013,1.365,3.342.057,1.618-1.594,3.18-3.245,4.766-4.871l.394.145" transform="translate(-140.73 -206.266)" fill="#6ac66a"/>
      <path id="Trazado_258775" data-name="Trazado 258775" d="M145.208,302.859l-3.448-2.747c0-.107.019-.6,0-1.09-.063-1.321.537-1.948,1.877-1.935,2.385.024,4.77.007,7.17.007l-5.6,5.765" transform="translate(-99.787 -197.973)" fill="#6ac66a"/>
      <path id="Trazado_258776" data-name="Trazado 258776" d="M142.127,312.93c.4.382.758.7,1.089,1.043,1.632,1.7,2.22,1.714,3.933-.011a43.307,43.307,0,0,1,5.016-4.593,41.415,41.415,0,0,1-.078,5.014c-.058.472-1.039,1.141-1.633,1.181-2.155.143-4.325.07-6.489.055-1.98-.013-2.293-.454-1.838-2.689" transform="translate(-99.914 -206.158)" fill="#68c168"/>
      <path id="Trazado_258777" data-name="Trazado 258777" d="M83.931,302.725l-3.768-2.678c-.54-2.134.068-2.944,2.836-2.945h6.434l-5.5,5.623" transform="translate(-58.625 -197.983)" fill="#6ac66a"/>
      <path id="Trazado_258778" data-name="Trazado 258778" d="M90.631,310.8c0,1.42.033,2.841-.011,4.259-.034,1.084-.79,1.349-1.727,1.346-1.944-.006-3.888,0-5.832,0-2.657,0-3.033-.461-2.548-3.382.719.763,1.379,1.4,1.967,2.1,1.029,1.224,2.084,1.131,3.123.083,1.519-1.532,2.994-3.108,4.488-4.666l.539.258" transform="translate(-58.858 -206.938)" fill="#68c168"/>
      <path id="Trazado_258779" data-name="Trazado 258779" d="M141.686,363.833c0-1.109.023-2.218-.006-3.326-.033-1.239.5-1.85,1.776-1.835,2.272.027,4.546.023,6.818,0a1.527,1.527,0,0,1,1.739,1.73c.013,2.273.009,4.545,0,6.818,0,1.248-.686,1.792-1.892,1.789-2.218-.006-4.435,0-6.652,0a1.575,1.575,0,0,1-1.79-1.852c.033-1.108.007-2.217.007-3.326" transform="translate(-99.737 -239.012)" fill="#a8d9f3"/>
      <path id="Trazado_258780" data-name="Trazado 258780" d="M90.663,363.84c0,1.164-.01,2.328,0,3.492a1.47,1.47,0,0,1-1.617,1.674c-2.328.029-4.656.021-6.985.007a1.571,1.571,0,0,1-1.726-1.778q-.011-3.408,0-6.818a1.524,1.524,0,0,1,1.735-1.731c2.328.019,4.656.009,6.985.006,1.111,0,1.611.575,1.606,1.655-.005,1.164,0,2.328,0,3.492" transform="translate(-58.857 -239.021)" fill="#a8d9f3"/>
      <path id="Trazado_258781" data-name="Trazado 258781" d="M213.351,363.811c0,1.109-.029,2.219.008,3.327a1.6,1.6,0,0,1-1.783,1.879q-3.411.029-6.822,0a1.549,1.549,0,0,1-1.746-1.741q.024-3.41,0-6.822c-.01-1.168.522-1.759,1.694-1.76q3.494,0,6.989,0c1.185,0,1.689.636,1.666,1.788-.022,1.109,0,2.218,0,3.328" transform="translate(-140.605 -239.026)" fill="#aadbf5"/>
      <path id="Trazado_258782" data-name="Trazado 258782" d="M141.689,424.838c0-1.109,0-2.218,0-3.327a1.438,1.438,0,0,1,1.628-1.637c2.329.01,4.659.02,6.988-.005a1.469,1.469,0,0,1,1.7,1.592q.053,3.576,0,7.152a1.518,1.518,0,0,1-1.729,1.595c-2.274,0-4.548,0-6.821,0-1.263,0-1.792-.655-1.765-1.879.026-1.164.006-2.329.007-3.493" transform="translate(-99.739 -279.792)" fill="#a9daf4"/>
      <path id="Trazado_258783" data-name="Trazado 258783" d="M90.613,425.035c0,1.164.006,2.329,0,3.493a1.477,1.477,0,0,1-1.658,1.638q-3.493.021-6.987,0a1.516,1.516,0,0,1-1.668-1.659c-.029-2.384-.1-4.775.068-7.147a2.183,2.183,0,0,1,1.537-1.452c2.374-.163,4.765-.069,7.149-.067a1.382,1.382,0,0,1,1.552,1.534c.016,1.22,0,2.44.006,3.659" transform="translate(-58.809 -279.755)" fill="#a9daf4"/>
      <path id="Trazado_258784" data-name="Trazado 258784" d="M274.477,241.2q0,1.748,0,3.5a1.452,1.452,0,0,1-1.641,1.637c-2.332,0-4.663,0-7,0a1.493,1.493,0,0,1-1.687-1.623c-.032-2.331-.022-4.662-.008-6.994A1.544,1.544,0,0,1,265.907,236q3.414.016,6.828,0c1.163-.006,1.756.522,1.745,1.707-.011,1.166,0,2.331,0,3.5" transform="translate(-181.339 -157.264)" fill="#aadcf6"/>
      <path id="Trazado_258785" data-name="Trazado 258785" d="M203.007,425.055c0-1.11.022-2.221-.006-3.331-.031-1.229.484-1.869,1.767-1.857q3.414.032,6.829,0c1.169-.009,1.754.525,1.751,1.7,0,2.276-.014,4.552,0,6.828.01,1.269-.64,1.813-1.851,1.812q-3.331,0-6.662,0c-1.22,0-1.859-.562-1.836-1.825.02-1.11,0-2.22,0-3.331" transform="translate(-140.601 -279.791)" fill="#aadcf6"/>
      <path id="Trazado_258786" data-name="Trazado 258786" d="M208.167,246.336c-1.167,0-2.333,0-3.5,0a1.47,1.47,0,0,1-1.645-1.648c-.007-2.333,0-4.666,0-7,0-1.185.621-1.7,1.774-1.693,2.277.012,4.555.009,6.832,0a1.521,1.521,0,0,1,1.734,1.734c-.006,2.277-.011,4.555,0,6.832.008,1.272-.634,1.8-1.863,1.78-1.111-.023-2.222-.005-3.333-.005" transform="translate(-140.614 -157.262)" fill="#abdcf7"/>
      <path id="Trazado_258787" data-name="Trazado 258787" d="M352.778,341.973a27.009,27.009,0,1,1-27.254-26.964,27.049,27.049,0,0,1,27.254,26.964m-25.33-13.645c0-2.666.009-5.333,0-8-.005-1.109-.352-2.028-1.655-2.054s-1.7.837-1.717,1.977c-.007.444-.007.889-.007,1.333,0,4.777.035,9.555-.042,14.331a2.712,2.712,0,0,1-.938,1.843,5.446,5.446,0,0,0-2.3,5.045,2.648,2.648,0,0,1-.756,1.916c-2.532,2.25-5.2,4.349-7.722,6.6a2.789,2.789,0,0,0-.887,2.078c.177,1.265,1.68,1.5,2.9.495,2.661-2.185,5.254-4.454,7.947-6.6a2.7,2.7,0,0,1,2.011-.481,5.024,5.024,0,0,0,4.19-9.016,2.741,2.741,0,0,1-.972-1.812c-.109-2.551-.045-5.109-.047-7.664" transform="translate(-204.414 -209.916)" fill="#ffb500"/>
      <path id="Trazado_258788" data-name="Trazado 258788" d="M352.7,334.848c0,2.555-.062,5.113.046,7.664a2.739,2.739,0,0,0,.973,1.812,5.024,5.024,0,0,1-4.19,9.016,2.7,2.7,0,0,0-2.011.481c-2.694,2.143-5.287,4.413-7.948,6.6-1.222,1-2.725.77-2.9-.495a2.79,2.79,0,0,1,.887-2.079c2.526-2.256,5.191-4.355,7.723-6.605a2.647,2.647,0,0,0,.756-1.916,5.447,5.447,0,0,1,2.3-5.045,2.709,2.709,0,0,0,.938-1.843c.077-4.776.042-9.554.043-14.331,0-.444,0-.889.007-1.333.019-1.139.421-2,1.717-1.977s1.65.945,1.655,2.054c.013,2.666,0,5.333.005,8m.2,14.072q0-.372,0-.744c-.649-.43-1.308-1.205-1.943-1.185-.545.017-1.542,1.009-1.48,1.448a2.35,2.35,0,0,0,1.492,1.663c.57.086,1.281-.751,1.93-1.182" transform="translate(-229.669 -216.437)" fill="#292420"/>
      <path id="Trazado_258789" data-name="Trazado 258789" d="M378.519,393.256c-.649.431-1.359,1.268-1.93,1.182a2.349,2.349,0,0,1-1.492-1.663c-.062-.439.934-1.431,1.48-1.448.635-.02,1.294.755,1.943,1.185q0,.372,0,.744" transform="translate(-255.281 -260.773)" fill="#e2e2e3"/>
    </g>
  </g>
</svg>
