<svg xmlns="http://www.w3.org/2000/svg" width="166.267" height="165.108" viewBox="0 0 166.267 165.108">
  <g id="Grupo_167596" data-name="Grupo 167596" transform="translate(0 -2.049)">
    <g id="Grupo_167597" data-name="Grupo 167597" transform="translate(0 2.049)">
      <path id="Trazado_258791" data-name="Trazado 258791" d="M115.6,142.407a2.8,2.8,0,0,1-2.8,2.789c-8.791,1.1-17.578,2.236-26.368,3.353-8.949,1.138-17.891,2.334-26.853,3.36a13.382,13.382,0,0,0-5.919,2.3c-6.247,4.056-12.541,8.041-18.82,12.048-2.284,1.457-3.37,1.2-4.71-1.133Q15.562,139.805.988,114.49A13.214,13.214,0,0,0,0,113.172v-1.948a19.836,19.836,0,0,1,2.049-1.736c6.9-4.442,13.947-8.676,20.705-13.325,5.649-3.886,11.006-8.2,16.427-12.412A90.968,90.968,0,0,1,57.95,72.327c.236-.1.458-.242.8-.422a43.274,43.274,0,0,1-7.453-12.315,42.179,42.179,0,1,1,46.184,26.2,5.4,5.4,0,0,0-3.943,2.271,14.281,14.281,0,0,1-3.223,2.92c-4.089,2.995-8.229,5.919-12.686,9.111,3.334.406,6.291.806,9.258,1.09a3.141,3.141,0,0,0,1.606-.619q13.39-7.734,26.762-15.5c5.515-3.2,10.867-3.019,16.1.683a1.738,1.738,0,0,0,1.507.118c6.163-3.28,11.816-2.642,17.032,2.025a2.144,2.144,0,0,0,1.44.357,13.777,13.777,0,0,1,13.357,7.442,13.319,13.319,0,0,1-1.767,15.141c-7.971,8.981-16.056,17.863-24.132,26.751-4.061,4.47-9.453,5.765-15.2,6.225-1.554.124-2.652-.232-3.234-1.738.026-2.139.554-2.768,2.648-3.113.478-.079.965-.106,1.448-.151,3.771-.35,7.445-1.124,10.166-3.971,3.5-3.66,6.8-7.5,10.188-11.266,4.9-5.4,9.86-10.756,14.68-16.232a7.866,7.866,0,0,0,1.7-7.009A8.8,8.8,0,0,0,147.7,94.533q-12.03,7.181-23.946,14.552a7.552,7.552,0,0,1-5.361,1.048c-8.248-1.1-16.509-2.094-24.765-3.13q-11.179-1.4-22.358-2.807a2.466,2.466,0,0,1-2.473-1.929,2.578,2.578,0,0,1,1.379-2.847c1.211-.812,2.38-1.688,3.565-2.54,4.914-3.534,9.875-7,14.724-10.625A8.592,8.592,0,0,0,91.338,76.1c-1.336-3.5-4.845-6.043-8.447-5.634a68.987,68.987,0,0,0-18.932,4.754l-.528.222-.806.3c-3.863,1.9-8.018,3.371-11.531,5.78C43.533,86.7,36.3,92.368,28.941,97.843c-.071.053-.079.19-.155.391l4.906,8.275L46.125,128.1c3.521,6.178,7.021,12.368,10.609,18.506a2.134,2.134,0,0,0,1.735.57c3.488-.371,6.964-.846,10.444-1.29q21.524-2.747,43.047-5.492c2.222-.282,2.723.018,3.64,2.01m-94.284-2.537,12.208,21.455,19.023-12.168L41.228,129.732A7.445,7.445,0,0,0,40.9,129q-7.827-13.624-15.667-27.242a10.47,10.47,0,0,0-.671-.918L5.722,112.906c1.212,2.114,2.3,4.039,3.414,5.954q6.086,10.507,12.18,21.01M71.786,67.443q4.052-.775,8.1-1.548c8.183-1.559,15.309,3.151,16.725,11.113a38.9,38.9,0,0,1,.271,4.252l10.243-3.352c-1.857-3.753-1.988-4.82-.515-5.61,2.976-1.6,3.489,1.382,4.794,2.859a36.716,36.716,0,0,0,10.127-10.166c-3.29-2.242-3.906-3.077-3.028-4.477,1.786-2.848,3.713-.525,5.594.085a35.821,35.821,0,0,0,3.654-13.959c-1.869,0-3.595.014-5.321,0-1.847-.02-2.981-.992-2.942-2.485.038-1.451,1.122-2.36,2.894-2.38s3.553,0,5.411,0a35.688,35.688,0,0,0-3.792-14.008c-3.154,1.773-4.382,1.889-5.3.471-.3-.464-.639-1.328-.425-1.625a44.171,44.171,0,0,1,3.043-3.5,36.222,36.222,0,0,0-9.933-9.8c-2.32,3.234-3.276,3.867-4.669,2.888-2.59-1.821-.407-3.6.26-5.456A35.61,35.61,0,0,0,93.038,7.032c0,1.943.03,3.674-.008,5.4-.039,1.779-.975,2.853-2.416,2.868s-2.387-1.056-2.447-2.821c-.051-1.509-.074-3.02-.109-4.53.314-.958-.264-.968-.94-.894A37.079,37.079,0,0,0,74.21,10.741c.6,1.811,2.934,3.77.266,5.385-2.737,1.656-3.414-1.3-4.673-2.851A36.867,36.867,0,0,0,59.665,23.42c3.284,2.28,3.791,3.068,3.007,4.542-.83,1.559-1.831,1.544-5.564-.125a35.465,35.465,0,0,0-3.69,13.931c1.855,0,3.63-.018,5.406.005,1.756.023,2.848.962,2.863,2.412s-1.08,2.424-2.815,2.449c-1.776.026-3.552.006-5.466.006a34.864,34.864,0,0,0,3.74,14.018c3.338-1.776,4.5-1.839,5.437-.373s.436,2.268-3.017,4.819c1.2,1.46,2.369,2.938,3.62,4.341a1.422,1.422,0,0,0,1.213.3c2.476-.722,4.929-1.523,7.39-2.3m73.448,22.862c-3.341-1.98-6.519-2.14-9.707-.3q-11.772,6.785-23.511,13.626a8.168,8.168,0,0,0-.811.637c2.819.369,5.428.756,8.048,1.021a3.457,3.457,0,0,0,1.953-.444c2.984-1.734,5.924-3.545,8.874-5.335,4.975-3.018,9.948-6.042,15.153-9.2m-17.78-1.333a8.955,8.955,0,0,0-9.142-.033c-7.388,4.245-14.747,8.542-22.113,12.826a4.267,4.267,0,0,0-.6.556c1.992.263,3.8.626,5.621.694a6.247,6.247,0,0,0,3.179-.653c7.224-4.1,14.39-8.3,21.572-12.469.454-.264.894-.552,1.488-.921" transform="translate(0 -2.049)" fill="#040404"/>
      <path id="Trazado_258792" data-name="Trazado 258792" d="M175.816,301.044c-.917-1.992-1.418-2.293-3.64-2.01q-21.525,2.736-43.047,5.492c-3.479.444-6.956.92-10.444,1.29a2.136,2.136,0,0,1-1.735-.57c-3.588-6.139-7.088-12.329-10.609-18.506.712.339,1.419.69,2.137,1.016,3.322,1.511,6.568,3.235,9.99,4.474a60.989,60.989,0,0,0,19.15,3.189,140.205,140.205,0,0,0,17.9-.673,132.9,132.9,0,0,0,17.6-2.894c7.885-1.885,15.651-4.282,23.432-6.58,2.877-.849,5.654-2.039,8.476-3.073-3.387,3.764-6.691,7.606-10.188,11.266-2.721,2.848-6.395,3.621-10.166,3.972-.483.045-.97.072-1.448.151-2.093.346-2.622.975-2.648,3.113l-4.76.344" transform="translate(-60.217 -160.686)" fill="#fcc9bc"/>
      <path id="Trazado_258793" data-name="Trazado 258793" d="M306.832,129.972c-.016-6.211,5.306-9.686,10.209-7.434,2.105.967,4.2,1.972,6.249,3.047,3.9,2.043,4.9,6.142,2.541,10.231-2.376,4.124-6.349,5.316-10.109,2.961-2.058-1.289-4.061-2.668-6.046-4.067a6.287,6.287,0,0,1-2.845-4.737m15.8,1.734c-.668-.75-1.04-1.453-1.622-1.771-1.932-1.053-3.938-1.971-5.919-2.933a2.293,2.293,0,0,0-2.272,3.973c1.607,1.081,3.159,2.261,4.844,3.2.8.446,2.147.9,2.731.528.934-.589,1.44-1.858,2.238-3" transform="translate(-173.746 -69.887)" fill="#050403"/>
      <path id="Trazado_258794" data-name="Trazado 258794" d="M56.48,66.713c1.888.128,3.777.236,5.662.387a7.176,7.176,0,0,1-.073,14.274c-2.318.167-4.637.334-6.957.474A6.832,6.832,0,0,1,47.781,75.1c-.129-3.043.365-5.875,3.26-7.388,1.587-.83,3.539-.964,5.326-1.411q.057.209.113.417m.378,10.125c0,.01,0,.021,0,.032,1.612-.121,3.226-.226,4.836-.367a2.007,2.007,0,0,0,1.948-2.31,1.967,1.967,0,0,0-1.875-2.216,68.557,68.557,0,0,0-6.935-.393A2.679,2.679,0,0,0,52.8,72.94c-.96,2.691.265,4.144,3.09,3.952.323-.022.646-.036.969-.054" transform="translate(-27.046 -38.43)" fill="#040404"/>
      <path id="Trazado_258795" data-name="Trazado 258795" d="M76.506,121.307a7.545,7.545,0,0,1,6.861,5.464,6.686,6.686,0,0,1-2.508,7.613c-2.017,1.446-4.075,2.844-6.186,4.148a6.727,6.727,0,0,1-9.567-2.3c-3.122-4.978-2-8.926,3.263-11.5,1.6-.782,3.16-1.642,4.788-2.35a33.106,33.106,0,0,1,3.348-1.072m.352,4.815-.288.266a1.57,1.57,0,0,0-.477.065c-2.367,1.142-4.814,2.154-7.06,3.5-1.37.82-.694,2.133-.052,3.278.661,1.18,1.6,2.012,2.86,1.287a53.043,53.043,0,0,0,6.268-4.254,2.556,2.556,0,0,0,.428-2.276c-.239-.727-1.093-1.252-1.679-1.865" transform="translate(-35.888 -69.58)" fill="#040403"/>
      <path id="Trazado_258796" data-name="Trazado 258796" d="M333.632,67.208c4.5-.22,7.264,1.231,8.167,4.718,1.78,6.878-2.372,11.139-7.957,10.365-1.976-.274-3.989-.271-5.983-.414a7.177,7.177,0,0,1-.05-14.271c1.94-.151,3.882-.266,5.823-.4m-.479,10.17c0-.015,0-.029,0-.044.591.048,1.18.121,1.772.14,1.666.054,2.31-.648,2.335-2.514.031-2.242-.5-2.995-2.232-2.926-2.26.09-4.517.264-6.772.437a2.3,2.3,0,0,0,.06,4.547q2.418.177,4.834.36" transform="translate(-182.009 -38.934)"/>
      <path id="Trazado_258797" data-name="Trazado 258797" d="M306.837,15.637a6.187,6.187,0,0,1,2.739-4.674c2.067-1.47,4.161-2.908,6.311-4.252a6.783,6.783,0,0,1,9.392,2.1c1.866,2.79,2.69,5.675.749,8.764-1.491,2.372-9.808,6.4-12.614,6.172-3.693-.3-6.6-3.551-6.577-8.108m15.789-1.822c-.814-1.132-1.344-2.363-2.28-2.981-.535-.354-1.843.09-2.6.523-1.725.982-3.331,2.175-4.978,3.293a2.014,2.014,0,0,0-.72,2.929A2.044,2.044,0,0,0,315,18.63c2.043-.957,4.085-1.926,6.061-3.011.576-.316.924-1.045,1.561-1.8" transform="translate(-173.749 -4.082)" fill="#040403"/>
      <path id="Trazado_258798" data-name="Trazado 258798" d="M83.7,16.312A7.127,7.127,0,0,1,73.463,22.9q-3.157-1.454-6.25-3.047a6.8,6.8,0,0,1-2.889-9.541c2.215-4.145,5.6-5.976,9.048-4.273A43.173,43.173,0,0,1,81.8,11.688c1.18.987,1.576,2.91,2.327,4.409l-.429.215m-12.621-5.9c-1.7.06-2.193,1.44-2.559,2.586a2.554,2.554,0,0,0,.735,2.314,62.694,62.694,0,0,0,6.627,3.3,1.7,1.7,0,0,0,2.428-.943c.277-.8.422-2.24-.017-2.592-2.088-1.671-4.394-3.072-6.634-4.552a1.524,1.524,0,0,0-.58-.115" transform="translate(-35.909 -3.948)" fill="#040403"/>
      <path id="Trazado_258799" data-name="Trazado 258799" d="M188.8,212.818c-2.822,1.034-5.6,2.224-8.476,3.074-7.782,2.3-15.547,4.695-23.432,6.58a132.858,132.858,0,0,1-17.6,2.893,140.114,140.114,0,0,1-17.9.673,60.991,60.991,0,0,1-19.15-3.189c-3.421-1.239-6.667-2.963-9.989-4.474-.718-.327-1.425-.677-2.137-1.016L77.681,195.766c5.365-7.536,11.014-14.834,17.908-21.066,2.67-2.414,5.412-4.748,8.117-7.123.974-.855,1.938-1.722,2.907-2.584l.806-.3.528-.222a68.97,68.97,0,0,1,18.931-4.754c3.6-.409,7.111,2.135,8.447,5.634a8.592,8.592,0,0,1-2.872,10.16c-4.849,3.621-9.809,7.092-14.723,10.625-1.185.851-2.354,1.727-3.565,2.539a2.578,2.578,0,0,0-1.38,2.847,2.466,2.466,0,0,0,2.473,1.93q11.181,1.384,22.358,2.807c8.256,1.037,16.517,2.033,24.765,3.13a7.552,7.552,0,0,0,5.361-1.047q11.9-7.4,23.946-14.552a8.8,8.8,0,0,1,13.491,5.787,7.866,7.866,0,0,1-1.7,7.009c-4.819,5.476-9.777,10.83-14.68,16.232" transform="translate(-43.988 -91.306)" fill="#fddccd"/>
      <path id="Trazado_258800" data-name="Trazado 258800" d="M172.426,14.458c.036,1.51.058,3.02.109,4.53.059,1.765,1,2.836,2.447,2.821s2.377-1.089,2.416-2.867c.038-1.729.008-3.46.008-5.4a35.625,35.625,0,0,1,13.943,3.705c-.667,1.86-2.851,3.636-.26,5.456,1.393.979,2.349.346,4.668-2.888a36.229,36.229,0,0,1,9.933,9.8,44.088,44.088,0,0,0-3.043,3.5c-.213.3.125,1.161.425,1.625.918,1.418,2.146,1.3,5.3-.471a35.686,35.686,0,0,1,3.793,14.008c-1.859,0-3.635-.015-5.411,0s-2.856.929-2.894,2.38c-.039,1.493,1.094,2.466,2.942,2.486,1.726.018,3.452,0,5.321,0a35.827,35.827,0,0,1-3.654,13.959c-1.881-.609-3.809-2.933-5.594-.085-.877,1.4-.261,2.236,3.029,4.477a36.712,36.712,0,0,1-10.127,10.166c-1.3-1.477-1.818-4.456-4.793-2.86-1.473.791-1.342,1.858.515,5.61l-10.243,3.352a39.118,39.118,0,0,0-.271-4.252c-1.416-7.962-8.543-12.673-16.726-11.114q-4.053.772-8.1,1.548a4.852,4.852,0,0,0-.374-.872A38.633,38.633,0,0,1,149.806,58.9a53.264,53.264,0,0,1-.557-6.128c1.366,3.259,2.538,3.8,4.918,2.285l4.77.741a2.5,2.5,0,0,0,2.857,2.433c4.381,0,8.763.065,13.142-.016a7.435,7.435,0,0,0,7.5-7.7q.046-6.247,0-12.493a7.483,7.483,0,1,0-14.961-.01c-.016,1.715,0,3.43,0,5.221-3.593,0-7-.013-10.4,0-4.088.019-6.539,1.8-7.874,5.681a7.582,7.582,0,0,1-.188-1.734,42.706,42.706,0,0,1,3.45-13.013,37.883,37.883,0,0,1,11.578-14.678,89.552,89.552,0,0,1,8.392-5.035" transform="translate(-84.368 -8.555)" fill="#d2e1f1"/>
      <path id="Trazado_258801" data-name="Trazado 258801" d="M28.786,268.844q-6.091-10.5-12.18-21.01C15.5,245.92,14.4,244,13.192,241.88l18.843-12.064a10.382,10.382,0,0,1,.671.918q7.841,13.617,15.667,27.243a7.4,7.4,0,0,1,.324.73c-5.226,6.151-11.738,9.776-19.912,10.137" transform="translate(-7.47 -131.024)" fill="#d2e1f1"/>
      <path id="Trazado_258802" data-name="Trazado 258802" d="M157.778,14.456a89.555,89.555,0,0,0-8.392,5.035,37.883,37.883,0,0,0-11.578,14.678,42.706,42.706,0,0,0-3.45,13.013,7.575,7.575,0,0,0,.188,1.733q.027,1.928.054,3.857a53.257,53.257,0,0,0,.557,6.128,38.632,38.632,0,0,0,5.973,14.174,4.852,4.852,0,0,1,.374.872c-2.46.776-4.913,1.576-7.39,2.3a1.421,1.421,0,0,1-1.213-.3c-1.251-1.4-2.418-2.882-3.62-4.341,3.453-2.551,3.946-3.363,3.017-4.819s-2.1-1.4-5.437.372a34.871,34.871,0,0,1-3.74-14.018c1.915,0,3.691.02,5.466-.006,1.735-.025,2.83-1,2.815-2.448s-1.107-2.389-2.863-2.412c-1.775-.023-3.551,0-5.405,0a35.463,35.463,0,0,1,3.69-13.931c3.734,1.669,4.734,1.683,5.564.125.785-1.474.278-2.262-3.006-4.542a36.861,36.861,0,0,1,10.139-10.145c1.259,1.555,1.935,4.507,4.673,2.851,2.668-1.615.335-3.574-.266-5.385a37.089,37.089,0,0,1,12.908-3.683c.676-.073,1.254-.063.94.894" transform="translate(-69.72 -8.553)" fill="#b0c0d2"/>
      <path id="Trazado_258803" data-name="Trazado 258803" d="M49.144,306.562c8.173-.361,14.686-3.987,19.912-10.137l11.318,19.424L61.352,328.017,49.144,306.562m16.387,14.3a7.365,7.365,0,1,0-7.283-7.477,7.307,7.307,0,0,0,7.283,7.477" transform="translate(-27.828 -168.742)" fill="#b0c0d2"/>
      <path id="Trazado_258804" data-name="Trazado 258804" d="M100.206,171.936c-.969.862-1.932,1.729-2.907,2.585-2.705,2.375-5.447,4.709-8.117,7.122-6.894,6.232-12.543,13.53-17.908,21.065l-4.907-8.275c.076-.2.084-.338.155-.391,7.361-5.476,14.592-11.141,22.152-16.326,3.513-2.409,7.667-3.883,11.531-5.781" transform="translate(-37.581 -98.249)" fill="#fbc8bb"/>
      <path id="Trazado_258805" data-name="Trazado 258805" d="M290.416,203.453c-5.2,3.162-10.178,6.185-15.153,9.2-2.95,1.79-5.89,3.6-8.873,5.334a3.456,3.456,0,0,1-1.953.445c-2.621-.266-5.229-.652-8.048-1.022a8.148,8.148,0,0,1,.811-.636q11.749-6.822,23.511-13.626c3.188-1.838,6.366-1.678,9.707.3" transform="translate(-145.182 -115.197)" fill="#fac7ba"/>
      <path id="Trazado_258806" data-name="Trazado 258806" d="M252.256,200.793c-.594.369-1.034.657-1.488.921-7.182,4.172-14.348,8.371-21.572,12.469a6.247,6.247,0,0,1-3.179.653c-1.82-.068-3.63-.432-5.621-.694a4.269,4.269,0,0,1,.6-.556c7.366-4.284,14.725-8.581,22.113-12.826a8.955,8.955,0,0,1,9.142.033" transform="translate(-124.801 -113.87)" fill="#e5a899"/>
      <path id="Trazado_258807" data-name="Trazado 258807" d="M146.77,170.735l-.528.222.528-.222" transform="translate(-82.811 -97.569)" fill="#fbc8bb"/>
      <path id="Trazado_258808" data-name="Trazado 258808" d="M328.975,138.024c-.8,1.14-1.3,2.41-2.238,3-.584.368-1.93-.082-2.731-.528-1.685-.94-3.237-2.12-4.844-3.2a2.293,2.293,0,0,1,2.272-3.973c1.981.961,3.987,1.88,5.919,2.933.582.317.954,1.021,1.622,1.771" transform="translate(-180.093 -76.205)" fill="#ffb500"/>
      <path id="Trazado_258809" data-name="Trazado 258809" d="M63.011,83.738c-.323.018-.646.032-.969.054-2.826.193-4.05-1.261-3.09-3.952a2.679,2.679,0,0,1,2.036-1.355,68.555,68.555,0,0,1,6.935.393A1.967,1.967,0,0,1,69.8,81.093a2.007,2.007,0,0,1-1.948,2.31c-1.61.141-3.224.246-4.836.367,0-.011,0-.021,0-.032" transform="translate(-33.199 -45.329)" fill="#ffb500"/>
      <path id="Trazado_258810" data-name="Trazado 258810" d="M83.2,132.409c.586.613,1.44,1.138,1.679,1.865a2.556,2.556,0,0,1-.428,2.276,53.045,53.045,0,0,1-6.268,4.254c-1.258.725-2.2-.107-2.86-1.287-.642-1.145-1.318-2.458.052-3.278,2.246-1.345,4.693-2.357,7.06-3.5a1.57,1.57,0,0,1,.477-.065l.288-.266" transform="translate(-42.229 -75.867)" fill="#ffb500"/>
      <path id="Trazado_258811" data-name="Trazado 258811" d="M339.527,83.7q-2.417-.18-4.834-.36a2.3,2.3,0,0,1-.06-4.547c2.256-.174,4.513-.347,6.772-.437,1.733-.069,2.263.684,2.232,2.926-.025,1.866-.669,2.568-2.335,2.514-.592-.019-1.181-.092-1.772-.14,0,.015,0,.029,0,.044" transform="translate(-188.383 -45.257)" fill="#ffb500"/>
      <path id="Trazado_258812" data-name="Trazado 258812" d="M328.969,20.43c-.637.759-.985,1.487-1.561,1.8-1.976,1.085-4.018,2.053-6.061,3.011a2.044,2.044,0,0,1-2.961-1.05,2.014,2.014,0,0,1,.72-2.929c1.647-1.118,3.253-2.311,4.978-3.293.761-.433,2.069-.877,2.6-.523.936.619,1.466,1.849,2.28,2.981" transform="translate(-180.092 -10.697)" fill="#ffb500"/>
      <path id="Trazado_258813" data-name="Trazado 258813" d="M77.665,16.959a1.524,1.524,0,0,1,.58.115c2.239,1.48,4.545,2.881,6.634,4.552.439.352.294,1.792.017,2.592a1.7,1.7,0,0,1-2.428.943,62.694,62.694,0,0,1-6.627-3.3,2.554,2.554,0,0,1-.735-2.314c.366-1.145.858-2.526,2.559-2.586" transform="translate(-42.498 -10.492)" fill="#ffb500"/>
      <path id="Trazado_258814" data-name="Trazado 258814" d="M149.514,74.7q-.027-1.929-.054-3.857c1.335-3.882,3.786-5.662,7.874-5.68,3.405-.016,6.81,0,10.4,0,0-1.791-.014-3.506,0-5.221a7.483,7.483,0,1,1,14.961.01q.039,6.247,0,12.493a7.434,7.434,0,0,1-7.5,7.7c-4.379.082-8.761.022-13.142.017a2.5,2.5,0,0,1-2.857-2.433c.45-1.956.967-2.385,2.986-2.4,1.921-.016,3.842,0,5.77,0-.125-1.851-.235-3.484-.347-5.15-.56-.026-.988-.063-1.414-.063-3.232,0-6.465-.048-9.695.035a2.4,2.4,0,0,0-2.111,3.473,3.443,3.443,0,0,1,.042,3.37c-2.379,1.519-3.552.974-4.918-2.285m23.1-8.536c0,2.05-.023,4.1.007,6.15a2.615,2.615,0,1,0,5.188.017q.04-6.15,0-12.3c-.01-1.8-1.007-2.857-2.586-2.861s-2.579,1.055-2.6,2.845c-.028,2.049-.007,4.1-.007,6.15" transform="translate(-84.633 -30.48)" fill="#020303"/>
      <path id="Trazado_258815" data-name="Trazado 258815" d="M160.561,100.269a3.445,3.445,0,0,0-.042-3.37,2.4,2.4,0,0,1,2.111-3.473c3.23-.084,6.463-.035,9.695-.035.427,0,.854.037,1.414.062.112,1.667.223,3.3.347,5.15-1.928,0-3.849-.013-5.769,0-2.019.017-2.537.445-2.986,2.4l-4.77-.741" transform="translate(-90.762 -53.765)" fill="#355c7b"/>
      <path id="Trazado_258816" data-name="Trazado 258816" d="M77.415,333.532a7.365,7.365,0,1,1,7.447-7.326,7.274,7.274,0,0,1-7.447,7.326m2.577-7.426a2.5,2.5,0,0,0-5,.128,2.5,2.5,0,0,0,5-.128" transform="translate(-39.712 -181.414)" fill="#020303"/>
      <path id="Trazado_258817" data-name="Trazado 258817" d="M202.841,72.575c0-2.05-.021-4.1.006-6.15.024-1.79,1.021-2.849,2.6-2.845s2.576,1.064,2.586,2.861q.035,6.15,0,12.3a2.615,2.615,0,1,1-5.188-.017c-.03-2.049-.007-4.1-.007-6.15" transform="translate(-114.856 -36.892)" fill="#2b4c65"/>
      <path id="Trazado_258818" data-name="Trazado 258818" d="M86.342,332.463a2.5,2.5,0,1,1-2.485-2.434,2.463,2.463,0,0,1,2.485,2.434" transform="translate(-46.062 -187.771)" fill="#f3f0f3"/>
    </g>
  </g>
</svg>
