<svg xmlns="http://www.w3.org/2000/svg" xmlns:xlink="http://www.w3.org/1999/xlink" width="271.669" height="207.353" viewBox="0 0 271.669 207.353">
  <defs>
    <clipPath id="clip-path">
      <rect id="Rectángulo_37676" data-name="Rectángulo 37676" width="105.405" height="6.041" transform="translate(31.471 142.477)" fill="none"/>
    </clipPath>
    <clipPath id="clip-path-2">
      <rect id="Rectángulo_37677" data-name="Rectángulo 37677" width="129.07" height="8.456" transform="translate(53.893 153.558)" fill="none"/>
    </clipPath>
    <clipPath id="clip-path-3">
      <rect id="Rectángulo_37680" data-name="Rectángulo 37680" width="108.662" height="6.001" transform="translate(128.195 59.781)" fill="none"/>
    </clipPath>
    <clipPath id="clip-path-4">
      <rect id="Rectángulo_37682" data-name="Rectángulo 37682" width="110.562" height="45.932" transform="translate(127.245 9.476)" fill="none"/>
    </clipPath>
    <clipPath id="clip-path-5">
      <rect id="Rectángulo_37683" data-name="Rectángulo 37683" width="40.748" height="28.629" transform="translate(160.202 21.227)" fill="none"/>
    </clipPath>
    <clipPath id="clip-path-6">
      <rect id="Rectángulo_37690" data-name="Rectángulo 37690" width="11.608" height="46.405" transform="translate(148.797 81.354)" fill="none"/>
    </clipPath>
    <clipPath id="clip-path-7">
      <rect id="Rectángulo_37728" data-name="Rectángulo 37728" width="11.608" height="46.405" transform="translate(173.472 81.354)" fill="none"/>
    </clipPath>
    <clipPath id="clip-path-8">
      <rect id="Rectángulo_37760" data-name="Rectángulo 37760" width="47.408" height="37.281" transform="translate(76.964 100.695)" fill="none"/>
    </clipPath>
    <clipPath id="clip-path-9">
      <rect id="Rectángulo_37761" data-name="Rectángulo 37761" width="44.591" height="19.252" transform="translate(129.17 125.068)" fill="none"/>
    </clipPath>
    <clipPath id="clip-path-10">
      <rect id="Rectángulo_37765" data-name="Rectángulo 37765" width="11.608" height="46.405" transform="translate(194.251 81.354)" fill="none"/>
    </clipPath>
    <clipPath id="clip-path-11">
      <rect id="Rectángulo_37803" data-name="Rectángulo 37803" width="11.608" height="46.405" transform="translate(218.926 81.354)" fill="none"/>
    </clipPath>
  </defs>
  <g id="Grupo_143923" data-name="Grupo 143923" transform="translate(-21.224 -5.102)">
    <g id="Grupo_166784" data-name="Grupo 166784">
      <g id="Grupo_143921" data-name="Grupo 143921">
        <g id="Grupo_166785" data-name="Grupo 166785">
          <path id="Trazado_156773" data-name="Trazado 156773" d="M259.814,212.455H68.408a6.7,6.7,0,0,1-6.7-6.7V175.852a6.7,6.7,0,0,1,6.7-6.7H259.814a6.7,6.7,0,0,1,6.7,6.7v29.907a6.7,6.7,0,0,1-6.7,6.7" fill="#fff"/>
          <path id="Trazado_156781" data-name="Trazado 156781" d="M274.953,164.1H29.331a8.106,8.106,0,0,1-8.106-8.106v-5.451a8.106,8.106,0,0,1,8.106-8.106H274.953a8.106,8.106,0,0,1,8.106,8.106v5.451a8.106,8.106,0,0,1-8.106,8.106" fill="#ec9800"/>
          <path id="Trazado_156782" data-name="Trazado 156782" d="M246.485,178H62.735a8.842,8.842,0,0,1-8.842-8.842v-5.948a8.842,8.842,0,0,1,8.842-8.842h183.75a8.843,8.843,0,0,1,8.843,8.842v5.948A8.843,8.843,0,0,1,246.485,178" fill="#c25b25"/>
          <path id="Trazado_156783" data-name="Trazado 156783" d="M50.174,187.938H24.942a3.719,3.719,0,0,1-3.718-3.718v-2.5A3.719,3.719,0,0,1,24.942,178H50.174a3.718,3.718,0,0,1,3.718,3.719v2.5a3.718,3.718,0,0,1-3.718,3.718" fill="#cf7e54"/>
          <path id="Trazado_156784" data-name="Trazado 156784" d="M289.174,178H270.442a3.719,3.719,0,0,1-3.718-3.718v-2.5a3.718,3.718,0,0,1,3.718-3.718h18.732a3.718,3.718,0,0,1,3.719,3.718v2.5A3.719,3.719,0,0,1,289.174,178" fill="#c96d3d"/>
          <path id="Trazado_156785" data-name="Trazado 156785" d="M203.107,193.524H146.364a3.949,3.949,0,0,1-3.949-3.949v-2.656a3.949,3.949,0,0,1,3.949-3.95h56.743a3.949,3.949,0,0,1,3.949,3.95v2.656a3.949,3.949,0,0,1-3.949,3.949" fill="#d38861"/>
          <g id="Grupo_143889" data-name="Grupo 143889" style="mix-blend-mode: multiply;isolation: isolate">
            <g id="Grupo_143888" data-name="Grupo 143888">
              <g id="Grupo_143887" data-name="Grupo 143887" clip-path="url(#clip-path)">
                <path id="Trazado_156786" data-name="Trazado 156786" d="M124.372,148.518H59.04l-27.569-6.041h105.4Z" fill="#d49c3c"/>
              </g>
            </g>
          </g>
          <g id="Grupo_143892" data-name="Grupo 143892" style="mix-blend-mode: multiply;isolation: isolate">
            <g id="Grupo_143891" data-name="Grupo 143891">
              <g id="Grupo_143890" data-name="Grupo 143890" clip-path="url(#clip-path-2)">
                <path id="Trazado_156787" data-name="Trazado 156787" d="M178.735,162.014H58.121a4.228,4.228,0,0,1,0-8.456H178.735a4.228,4.228,0,0,1,0,8.456" fill="#d49c3c"/>
              </g>
            </g>
          </g>
          <path id="Trazado_156788" data-name="Trazado 156788" d="M64.075,16.745h0A15.991,15.991,0,0,0,48.116,31.719s-2.4,30.694-2.612,40.95c-.208,10.074.907,40.293.907,40.293A15.991,15.991,0,0,0,62.4,128.593h3.354a15.991,15.991,0,0,0,15.987-15.631s1.115-30.219.907-40.293c-.211-10.256-2.612-40.95-2.612-40.95A15.991,15.991,0,0,0,64.075,16.745" fill="#a7b816"/>
          <path id="Trazado_156789" data-name="Trazado 156789" d="M64.075,38.054,59.04,148.518H69.11Z" fill="#845600"/>
          <path id="Trazado_156790" data-name="Trazado 156790" d="M96.9,57.645h16.324a12.638,12.638,0,0,0,12.638-12.638v-8.5a12.638,12.638,0,0,0-12.638-12.638H96.9A12.638,12.638,0,0,0,84.265,36.507v8.5A12.638,12.638,0,0,0,96.9,57.645" fill="#789f00"/>
          <path id="Trazado_156791" data-name="Trazado 156791" d="M97.7,38.054H87.235A15.566,15.566,0,0,0,71.67,53.62V85.97a15.566,15.566,0,0,0,15.565,15.566H97.7A15.566,15.566,0,0,0,113.27,85.97V53.62A15.566,15.566,0,0,0,97.7,38.054" fill="#7e8e0b"/>
          <path id="Trazado_156792" data-name="Trazado 156792" d="M131.1,47.378H120.63a15.566,15.566,0,0,0-15.566,15.566v32.35A15.566,15.566,0,0,0,120.63,110.86H131.1a15.566,15.566,0,0,0,15.566-15.566V62.944A15.566,15.566,0,0,0,131.1,47.378" fill="#7e8e0b"/>
          <path id="Trazado_156793" data-name="Trazado 156793" d="M101.663,74.724H91.1a15.519,15.519,0,0,0-15.519,15.52v10.437A15.519,15.519,0,0,0,91.1,116.2h10.562a15.519,15.519,0,0,0,15.519-15.519V90.244a15.519,15.519,0,0,0-15.519-15.52" fill="#788100"/>
          <path id="Trazado_156794" data-name="Trazado 156794" d="M129.295,38.054a5.647,5.647,0,1,1-5.647-5.647,5.647,5.647,0,0,1,5.647,5.647" fill="#f2bc00"/>
          <path id="Trazado_156795" data-name="Trazado 156795" d="M89.912,53.025a5.648,5.648,0,1,1-5.647-5.647,5.647,5.647,0,0,1,5.647,5.647" fill="#f2bc00"/>
          <path id="Trazado_156796" data-name="Trazado 156796" d="M105.279,69.794a5.647,5.647,0,1,1-5.647-5.647,5.647,5.647,0,0,1,5.647,5.647" fill="#f2bc00"/>
          <path id="Trazado_156797" data-name="Trazado 156797" d="M139.757,63.262a5.648,5.648,0,1,1-5.648-5.647,5.648,5.648,0,0,1,5.648,5.647" fill="#ff4a3b"/>
          <path id="Trazado_156798" data-name="Trazado 156798" d="M89.912,89.815a5.648,5.648,0,1,1-5.647-5.647,5.647,5.647,0,0,1,5.647,5.647" fill="#f2bc00"/>
          <rect id="Rectángulo_37678" data-name="Rectángulo 37678" width="108.663" height="88.737" transform="translate(128.195 59.781)" fill="#d9b791"/>
          <g id="Grupo_143895" data-name="Grupo 143895" style="mix-blend-mode: multiply;isolation: isolate">
            <g id="Grupo_143894" data-name="Grupo 143894">
              <g id="Grupo_143893" data-name="Grupo 143893" clip-path="url(#clip-path-3)">
                <rect id="Rectángulo_37679" data-name="Rectángulo 37679" width="108.663" height="6.001" transform="translate(128.195 59.781)" fill="#e9cacd"/>
              </g>
            </g>
          </g>
          <path id="Trazado_156799" data-name="Trazado 156799" d="M162.852,5.1H202.2l44.852,54.679H118Z" fill="#f9f8ee"/>
          <path id="Trazado_156800" data-name="Trazado 156800" d="M237.8,55.408H127.237l7.417-9.045,6.6-8.047,8.257-10.06,6.6-8.047,8.257-10.06.56-.682h35.217l.542.665,8.258,10.077,6.6,8.03,8.258,10.077,6.595,8.047Z" fill="#fa493c"/>
          <path id="Trazado_156801" data-name="Trazado 156801" d="M141.25,38.316V55.408h-6.6V46.364Z" fill="#e62e22"/>
          <path id="Trazado_156802" data-name="Trazado 156802" d="M156.1,20.209v35.2h-6.6V28.257Z" fill="#e62e22"/>
          <path id="Trazado_156803" data-name="Trazado 156803" d="M170.956,9.467V55.408h-6.6V10.149l.559-.682Z" fill="#e62e22"/>
          <rect id="Rectángulo_37681" data-name="Rectángulo 37681" width="6.578" height="45.941" transform="translate(179.231 9.467)" fill="#e62e22"/>
          <path id="Trazado_156804" data-name="Trazado 156804" d="M200.679,10.132V55.408h-6.6V9.467h6.052Z" fill="#e62e22"/>
          <path id="Trazado_156805" data-name="Trazado 156805" d="M215.532,28.239V55.408h-6.6v-35.2Z" fill="#e62e22"/>
          <path id="Trazado_156806" data-name="Trazado 156806" d="M230.385,46.363v9.045h-6.6V38.315Z" fill="#e62e22"/>
          <g id="Grupo_143898" data-name="Grupo 143898" style="mix-blend-mode: multiply;isolation: isolate">
            <g id="Grupo_143897" data-name="Grupo 143897">
              <g id="Grupo_143896" data-name="Grupo 143896" clip-path="url(#clip-path-4)">
                <path id="Trazado_156807" data-name="Trazado 156807" d="M163.362,15.088h35.211l33.072,40.32h6.162L200.131,9.476H164.92L127.244,55.408h3.045Z" fill="#cc776a"/>
              </g>
            </g>
          </g>
          <g id="Grupo_143901" data-name="Grupo 143901" style="mix-blend-mode: multiply;isolation: isolate">
            <g id="Grupo_143900" data-name="Grupo 143900">
              <g id="Grupo_143899" data-name="Grupo 143899" clip-path="url(#clip-path-5)">
                <path id="Trazado_156808" data-name="Trazado 156808" d="M197.889,49.856H160.2V23.706l3.9-2.479,36.849,26.151Z" fill="#cc776a"/>
              </g>
            </g>
          </g>
          <rect id="Rectángulo_37684" data-name="Rectángulo 37684" width="36.848" height="26.15" transform="translate(164.102 21.228)" fill="#ede6bc"/>
          <rect id="Rectángulo_37685" data-name="Rectángulo 37685" width="33.173" height="22.368" transform="translate(165.94 23.119)" fill="#ba0e00"/>
          <rect id="Rectángulo_37686" data-name="Rectángulo 37686" width="33.17" height="20.154" transform="translate(165.935 25.334)" fill="#e62e22"/>
          <path id="Trazado_156809" data-name="Trazado 156809" d="M199.1,24.215v1.749l-14.153,9.447-2.432,1.61-12.684,8.467h-3.9v-.647l14.153-9.43,2.432-1.627,12.666-8.45,1.68-1.119Z" fill="#ba0e00"/>
          <path id="Trazado_156810" data-name="Trazado 156810" d="M199.1,44.841v.647h-3.884l-12.7-8.467-2.432-1.61-14.153-9.447V24.215h2.257l1.679,1.119,12.649,8.45,2.432,1.627Z" fill="#ba0e00"/>
          <rect id="Rectángulo_37687" data-name="Rectángulo 37687" width="2.702" height="22.368" transform="translate(181.175 23.119)" fill="#ede6bc"/>
          <path id="Trazado_156811" data-name="Trazado 156811" d="M199.113,23.118V24.86l-30.92,20.627H165.94V43.746l30.917-20.627Z" fill="#ede6bc"/>
          <path id="Trazado_156812" data-name="Trazado 156812" d="M165.94,23.118V24.86l30.92,20.627h2.253V43.746L168.2,23.118Z" fill="#ede6bc"/>
          <rect id="Rectángulo_37688" data-name="Rectángulo 37688" width="116.308" height="28.266" transform="translate(124.372 120.252)" fill="#e8d3bc"/>
          <rect id="Rectángulo_37689" data-name="Rectángulo 37689" width="116.308" height="4.372" transform="translate(124.372 120.252)" fill="#f0e3d4"/>
          <g id="Grupo_143904" data-name="Grupo 143904" style="mix-blend-mode: multiply;isolation: isolate">
            <g id="Grupo_143903" data-name="Grupo 143903">
              <g id="Grupo_143902" data-name="Grupo 143902" clip-path="url(#clip-path-6)">
                <path id="Trazado_156813" data-name="Trazado 156813" d="M152.18,81.354,148.8,89.531v38.228h9.658l1.95-3.542Z" fill="#e7c7ca"/>
              </g>
            </g>
          </g>
          <rect id="Rectángulo_37691" data-name="Rectángulo 37691" width="16.45" height="42.863" transform="translate(160.405 81.354)" fill="#f5a44f"/>
          <rect id="Rectángulo_37692" data-name="Rectángulo 37692" width="13.768" height="39.678" transform="translate(161.749 82.942)" fill="#3b3944"/>
          <path id="Trazado_156814" data-name="Trazado 156814" d="M175.517,82.942v4.584l-13.768,26.312v-22.6l4.338-8.292Z" fill="#405166"/>
          <path id="Trazado_156815" data-name="Trazado 156815" d="M175.517,101.644v15.972l-2.624,5h-8.345Z" fill="#405166"/>
          <rect id="Rectángulo_37693" data-name="Rectángulo 37693" width="1.737" height="39.678" transform="translate(167.762 82.947)" fill="#c0742e"/>
          <rect id="Rectángulo_37694" data-name="Rectángulo 37694" width="13.765" height="1.194" transform="translate(161.748 102.189)" fill="#f5a44f"/>
          <rect id="Rectángulo_37695" data-name="Rectángulo 37695" width="13.765" height="1.194" transform="translate(161.748 113.599)" fill="#f5a44f"/>
          <rect id="Rectángulo_37696" data-name="Rectángulo 37696" width="13.765" height="1.194" transform="translate(161.748 91.047)" fill="#f5a44f"/>
          <rect id="Rectángulo_37697" data-name="Rectángulo 37697" width="8.225" height="42.863" transform="translate(152.18 81.354)" fill="#c0742e"/>
          <rect id="Rectángulo_37698" data-name="Rectángulo 37698" width="6.075" height="40.334" transform="translate(153.255 82.619)" fill="#c4823a"/>
          <rect id="Rectángulo_37699" data-name="Rectángulo 37699" width="6.075" height="0.765" transform="translate(153.255 82.619)" fill="#a55e00"/>
          <rect id="Rectángulo_37700" data-name="Rectángulo 37700" width="6.075" height="0.765" transform="translate(153.255 86.008)" fill="#a55e00"/>
          <rect id="Rectángulo_37701" data-name="Rectángulo 37701" width="6.075" height="0.383" transform="translate(153.255 85.625)" fill="#d4a470"/>
          <rect id="Rectángulo_37702" data-name="Rectángulo 37702" width="6.075" height="0.765" transform="translate(153.255 88.766)" fill="#a55e00"/>
          <rect id="Rectángulo_37703" data-name="Rectángulo 37703" width="6.075" height="0.383" transform="translate(153.255 88.384)" fill="#d4a470"/>
          <rect id="Rectángulo_37704" data-name="Rectángulo 37704" width="6.075" height="0.765" transform="translate(153.255 91.524)" fill="#a55e00"/>
          <rect id="Rectángulo_37705" data-name="Rectángulo 37705" width="6.075" height="0.383" transform="translate(153.255 91.142)" fill="#d4a470"/>
          <rect id="Rectángulo_37706" data-name="Rectángulo 37706" width="6.075" height="0.765" transform="translate(153.255 94.282)" fill="#a55e00"/>
          <rect id="Rectángulo_37707" data-name="Rectángulo 37707" width="6.075" height="0.383" transform="translate(153.255 93.899)" fill="#d4a470"/>
          <rect id="Rectángulo_37708" data-name="Rectángulo 37708" width="6.075" height="0.765" transform="translate(153.255 97.04)" fill="#a55e00"/>
          <rect id="Rectángulo_37709" data-name="Rectángulo 37709" width="6.075" height="0.383" transform="translate(153.255 96.657)" fill="#d4a470"/>
          <rect id="Rectángulo_37710" data-name="Rectángulo 37710" width="6.075" height="0.765" transform="translate(153.255 99.798)" fill="#a55e00"/>
          <rect id="Rectángulo_37711" data-name="Rectángulo 37711" width="6.075" height="0.383" transform="translate(153.255 99.415)" fill="#d4a470"/>
          <rect id="Rectángulo_37712" data-name="Rectángulo 37712" width="6.075" height="0.765" transform="translate(153.255 102.556)" fill="#a55e00"/>
          <rect id="Rectángulo_37713" data-name="Rectángulo 37713" width="6.075" height="0.383" transform="translate(153.255 102.173)" fill="#d4a470"/>
          <rect id="Rectángulo_37714" data-name="Rectángulo 37714" width="6.075" height="0.765" transform="translate(153.255 105.314)" fill="#a55e00"/>
          <rect id="Rectángulo_37715" data-name="Rectángulo 37715" width="6.075" height="0.383" transform="translate(153.255 104.931)" fill="#d4a470"/>
          <rect id="Rectángulo_37716" data-name="Rectángulo 37716" width="6.075" height="0.765" transform="translate(153.255 108.072)" fill="#a55e00"/>
          <rect id="Rectángulo_37717" data-name="Rectángulo 37717" width="6.075" height="0.383" transform="translate(153.255 107.689)" fill="#d4a470"/>
          <rect id="Rectángulo_37718" data-name="Rectángulo 37718" width="6.075" height="0.765" transform="translate(153.255 110.83)" fill="#a55e00"/>
          <rect id="Rectángulo_37719" data-name="Rectángulo 37719" width="6.075" height="0.383" transform="translate(153.255 110.447)" fill="#d4a470"/>
          <rect id="Rectángulo_37720" data-name="Rectángulo 37720" width="6.075" height="0.765" transform="translate(153.255 113.588)" fill="#a55e00"/>
          <rect id="Rectángulo_37721" data-name="Rectángulo 37721" width="6.075" height="0.383" transform="translate(153.255 113.205)" fill="#d4a470"/>
          <rect id="Rectángulo_37722" data-name="Rectángulo 37722" width="6.075" height="0.765" transform="translate(153.255 116.346)" fill="#a55e00"/>
          <rect id="Rectángulo_37723" data-name="Rectángulo 37723" width="6.075" height="0.383" transform="translate(153.255 115.963)" fill="#d4a470"/>
          <rect id="Rectángulo_37724" data-name="Rectángulo 37724" width="6.075" height="0.765" transform="translate(153.255 119.104)" fill="#a55e00"/>
          <rect id="Rectángulo_37725" data-name="Rectángulo 37725" width="6.075" height="0.383" transform="translate(153.255 118.721)" fill="#d4a470"/>
          <rect id="Rectángulo_37726" data-name="Rectángulo 37726" width="6.075" height="0.765" transform="translate(153.255 121.862)" fill="#a55e00"/>
          <rect id="Rectángulo_37727" data-name="Rectángulo 37727" width="6.075" height="0.383" transform="translate(153.255 121.479)" fill="#d4a470"/>
          <g id="Grupo_143907" data-name="Grupo 143907" style="mix-blend-mode: multiply;isolation: isolate">
            <g id="Grupo_143906" data-name="Grupo 143906">
              <g id="Grupo_143905" data-name="Grupo 143905" clip-path="url(#clip-path-7)">
                <path id="Trazado_156816" data-name="Trazado 156816" d="M176.855,81.354l-3.383,8.177v38.228h9.658l1.95-3.542Z" fill="#e7c7ca"/>
              </g>
            </g>
          </g>
          <rect id="Rectángulo_37729" data-name="Rectángulo 37729" width="8.225" height="42.863" transform="translate(176.855 81.354)" fill="#c0742e"/>
          <rect id="Rectángulo_37730" data-name="Rectángulo 37730" width="6.075" height="40.334" transform="translate(177.93 82.619)" fill="#c4823a"/>
          <rect id="Rectángulo_37731" data-name="Rectángulo 37731" width="6.075" height="0.765" transform="translate(177.93 82.619)" fill="#a55e00"/>
          <rect id="Rectángulo_37732" data-name="Rectángulo 37732" width="6.075" height="0.765" transform="translate(177.93 86.008)" fill="#a55e00"/>
          <rect id="Rectángulo_37733" data-name="Rectángulo 37733" width="6.075" height="0.383" transform="translate(177.93 85.625)" fill="#d4a470"/>
          <rect id="Rectángulo_37734" data-name="Rectángulo 37734" width="6.075" height="0.765" transform="translate(177.93 88.766)" fill="#a55e00"/>
          <rect id="Rectángulo_37735" data-name="Rectángulo 37735" width="6.075" height="0.383" transform="translate(177.93 88.384)" fill="#d4a470"/>
          <rect id="Rectángulo_37736" data-name="Rectángulo 37736" width="6.075" height="0.765" transform="translate(177.93 91.524)" fill="#a55e00"/>
          <rect id="Rectángulo_37737" data-name="Rectángulo 37737" width="6.075" height="0.383" transform="translate(177.93 91.142)" fill="#d4a470"/>
          <rect id="Rectángulo_37738" data-name="Rectángulo 37738" width="6.075" height="0.765" transform="translate(177.93 94.282)" fill="#a55e00"/>
          <rect id="Rectángulo_37739" data-name="Rectángulo 37739" width="6.075" height="0.383" transform="translate(177.93 93.899)" fill="#d4a470"/>
          <rect id="Rectángulo_37740" data-name="Rectángulo 37740" width="6.075" height="0.765" transform="translate(177.93 97.04)" fill="#a55e00"/>
          <rect id="Rectángulo_37741" data-name="Rectángulo 37741" width="6.075" height="0.383" transform="translate(177.93 96.657)" fill="#d4a470"/>
          <rect id="Rectángulo_37742" data-name="Rectángulo 37742" width="6.075" height="0.765" transform="translate(177.93 99.798)" fill="#a55e00"/>
          <rect id="Rectángulo_37743" data-name="Rectángulo 37743" width="6.075" height="0.383" transform="translate(177.93 99.415)" fill="#d4a470"/>
          <rect id="Rectángulo_37744" data-name="Rectángulo 37744" width="6.075" height="0.765" transform="translate(177.93 102.556)" fill="#a55e00"/>
          <rect id="Rectángulo_37745" data-name="Rectángulo 37745" width="6.075" height="0.383" transform="translate(177.93 102.173)" fill="#d4a470"/>
          <rect id="Rectángulo_37746" data-name="Rectángulo 37746" width="6.075" height="0.765" transform="translate(177.93 105.314)" fill="#a55e00"/>
          <rect id="Rectángulo_37747" data-name="Rectángulo 37747" width="6.075" height="0.383" transform="translate(177.93 104.931)" fill="#d4a470"/>
          <rect id="Rectángulo_37748" data-name="Rectángulo 37748" width="6.075" height="0.765" transform="translate(177.93 108.072)" fill="#a55e00"/>
          <rect id="Rectángulo_37749" data-name="Rectángulo 37749" width="6.075" height="0.383" transform="translate(177.93 107.689)" fill="#d4a470"/>
          <rect id="Rectángulo_37750" data-name="Rectángulo 37750" width="6.075" height="0.765" transform="translate(177.93 110.83)" fill="#a55e00"/>
          <rect id="Rectángulo_37751" data-name="Rectángulo 37751" width="6.075" height="0.383" transform="translate(177.93 110.447)" fill="#d4a470"/>
          <rect id="Rectángulo_37752" data-name="Rectángulo 37752" width="6.075" height="0.765" transform="translate(177.93 113.588)" fill="#a55e00"/>
          <rect id="Rectángulo_37753" data-name="Rectángulo 37753" width="6.075" height="0.383" transform="translate(177.93 113.205)" fill="#d4a470"/>
          <rect id="Rectángulo_37754" data-name="Rectángulo 37754" width="6.075" height="0.765" transform="translate(177.93 116.346)" fill="#a55e00"/>
          <rect id="Rectángulo_37755" data-name="Rectángulo 37755" width="6.075" height="0.383" transform="translate(177.93 115.963)" fill="#d4a470"/>
          <rect id="Rectángulo_37756" data-name="Rectángulo 37756" width="6.075" height="0.765" transform="translate(177.93 119.104)" fill="#a55e00"/>
          <rect id="Rectángulo_37757" data-name="Rectángulo 37757" width="6.075" height="0.383" transform="translate(177.93 118.721)" fill="#d4a470"/>
          <rect id="Rectángulo_37758" data-name="Rectángulo 37758" width="6.075" height="0.765" transform="translate(177.93 121.862)" fill="#a55e00"/>
          <rect id="Rectángulo_37759" data-name="Rectángulo 37759" width="6.075" height="0.383" transform="translate(177.93 121.479)" fill="#d4a470"/>
          <path id="Trazado_156817" data-name="Trazado 156817" d="M174.883,141.765l4.782-10.116.815-19.356-3.884-6.259-33.458-4.5L115.354,92.95l-24-.27S76.855,97.1,77.3,97.372c.1.06-.866,14.4,1.319,15.929,7.705,5.379,29.359,5.5,29.359,5.5s14.41,24.353,14.757,25.048,23.93.613,23.93.613Z" fill="#de3d2c"/>
          <g id="Grupo_143910" data-name="Grupo 143910" style="mix-blend-mode: multiply;isolation: isolate">
            <g id="Grupo_143909" data-name="Grupo 143909">
              <g id="Grupo_143908" data-name="Grupo 143908" clip-path="url(#clip-path-8)">
                <path id="Trazado_156818" data-name="Trazado 156818" d="M124.372,131.779l-5.071,6.2-9.437-15.984-1.887-3.19-29.9-6.426-.487-3.185s-1.056-6.274-.416-7.655,25.878-.9,27.9.289,4.476,7.968,4.476,7.968Z" fill="#c4271b"/>
              </g>
            </g>
          </g>
          <path id="Trazado_156819" data-name="Trazado 156819" d="M144.9,132.447H116.041l6.949,12.019,17.417.29Z" fill="#a9211a"/>
          <path id="Trazado_156820" data-name="Trazado 156820" d="M171.654,110.375,169.1,123.1l1.279,8.428,3.386,7.4L177.134,137l2.532-5.356.814-19.355-.814-1.313Z" fill="#e04737"/>
          <path id="Trazado_156821" data-name="Trazado 156821" d="M143.949,103.791l-3.542,25.953,5.668-5.623.179-1.667,4.1-14.743Z" fill="#e04737"/>
          <path id="Trazado_156822" data-name="Trazado 156822" d="M161.492,117.581s-5.427,4.474-5.427,5.149v1.293h8.529l3.788-1.569Z" fill="#c4271b"/>
          <g id="Grupo_143913" data-name="Grupo 143913" style="mix-blend-mode: multiply;isolation: isolate">
            <g id="Grupo_143912" data-name="Grupo 143912">
              <g id="Grupo_143911" data-name="Grupo 143911" clip-path="url(#clip-path-9)">
                <path id="Trazado_156823" data-name="Trazado 156823" d="M133.742,136.709l-4.572,7.612h44.591l-.861-4.475s-4.533-10.9-6.611-12.439-11.262-2.338-11.262-2.338l-10.351,2.26Z" fill="#c4271b"/>
              </g>
            </g>
          </g>
          <rect id="Rectángulo_37762" data-name="Rectángulo 37762" width="10.515" height="8.01" transform="translate(171.524 135.841)" fill="#ff5e45"/>
          <path id="Trazado_156824" data-name="Trazado 156824" d="M180.3,116.641l-7.34-.244-1.3,6,5.628,8.752,2.383.5Z" fill="#424261"/>
          <path id="Trazado_156825" data-name="Trazado 156825" d="M177.738,130.984l-5.628-8.753,1.265-5.82-.418-.014-1.3,6,5.628,8.753,2.384.5.01-.255Z" fill="#ff8470"/>
          <path id="Trazado_156826" data-name="Trazado 156826" d="M179.963,124.574l-.052,1.233-6.219-.244-.793-1.233Zm-.248,5.909.052-1.233-3.861-.245.793,1.234Zm-5.312-3.816.793,1.234,4.617.244.052-1.233Zm-2.662-4.675-.087.4.535.833,7.821.244.052-1.233Zm1.016-4.676-.268,1.233,7.718.244.052-1.233Zm-.508,2.338-.268,1.233,8.127.244.052-1.233Z" fill="#ff5e45"/>
          <path id="Trazado_156827" data-name="Trazado 156827" d="M176.138,129.366l3.614.229.014-.345-3.86-.245Z" fill="#ff8470"/>
          <path id="Trazado_156828" data-name="Trazado 156828" d="M172.757,117.662l7.487.244.014-.346-7.5-.244-.268,1.233.075,0Z" fill="#ff8470"/>
          <path id="Trazado_156829" data-name="Trazado 156829" d="M174.632,127.024l5.218.233.015-.345-5.462-.244Z" fill="#ff8470"/>
          <path id="Trazado_156830" data-name="Trazado 156830" d="M171.981,120.887l.075,0,.193-.889,7.9.243.015-.345-7.911-.244Z" fill="#ff8470"/>
          <path id="Trazado_156831" data-name="Trazado 156831" d="M173.127,124.684l6.822.236.014-.346-7.063-.244Z" fill="#ff8470"/>
          <path id="Trazado_156832" data-name="Trazado 156832" d="M171.654,122.392l.056.087.031-.142,8.306.244.015-.345-8.321-.245Z" fill="#ff8470"/>
          <path id="Trazado_156833" data-name="Trazado 156833" d="M136.117,138.928l-2.464-2.484,12.422-12.323h20.367l7.938,12.634-2.962,1.862-6.91-11H147.516Z" fill="#ff5e45"/>
          <path id="Trazado_156834" data-name="Trazado 156834" d="M122.878,133.557l-18.461-30.323L79.4,101.928,65.192,113.721l-2.235-2.693L78.22,98.363l28.225,1.473,19.421,31.9Z" fill="#ff5e45"/>
          <path id="Trazado_156835" data-name="Trazado 156835" d="M145.455,125.728h20.367l7.391,11.762,1.168-.734-7.939-12.635H146.075l-12.422,12.324.5.5Z" fill="#ff8470"/>
          <path id="Trazado_156836" data-name="Trazado 156836" d="M77.6,99.969l28.225,1.474,18.875,31,1.166-.709-19.422-31.9L78.221,98.363,62.957,111.028l.537.647Z" fill="#ff8470"/>
          <path id="Trazado_156837" data-name="Trazado 156837" d="M143.139,101.535s0,4.352,7.211,6.176,29.316,3.27,29.316,3.27l-3.07-4.947Z" fill="#ff8470"/>
          <path id="Trazado_156838" data-name="Trazado 156838" d="M167.507,122.454h-3.879a2.819,2.819,0,0,1-2.7-3.627l.1-.35a2.822,2.822,0,0,1,2.465-2l4.077.145a.874.874,0,0,1,.809.872v4.087a.875.875,0,0,1-.875.875" fill="#ff745e"/>
          <path id="Trazado_156839" data-name="Trazado 156839" d="M165.46,121.363a2.82,2.82,0,0,1-2.7-3.627l.105-.349a2.754,2.754,0,0,1,.455-.869,2.805,2.805,0,0,0-2.287,1.959l-.1.35a2.819,2.819,0,0,0,2.7,3.627h3.879a.875.875,0,0,0,.875-.875v-.216Z" fill="#ff5135"/>
          <path id="Trazado_156840" data-name="Trazado 156840" d="M143.139,101.536l-3.938,10.84h-9.755L115.353,92.951l-18.919-.027,5.929-26.917.924-3.53H111c9.327.768,22.489,1.991,23.889,2.863,3.156,1.971,8.254,36.2,8.254,36.2" fill="#5baba2"/>
          <path id="Trazado_156841" data-name="Trazado 156841" d="M114.118,69h-8.456l-3.93,20.821h12.527Z" fill="#a9e7cf"/>
          <path id="Trazado_156842" data-name="Trazado 156842" d="M132.372,69H116.326l.205,19.526h12.107l4.317,8.4h5.356s-1.663-12.649-3.064-18.986A48.184,48.184,0,0,0,132.372,69" fill="#a9e7cf"/>
          <path id="Trazado_156843" data-name="Trazado 156843" d="M140.236,99.423h-6.127l-4.939-9.608H115.32l-.235-22.338h19.024V65.071H104.89l.175-.924-2.588,1.325L96.433,92.924l3.2.007h14.65v.02h1.072l14.093,19.424H139.2l2.047-5.635Zm-40.3-8.128,4.5-23.818h9.673l.161,23.818Z" fill="#424261"/>
          <path id="Trazado_156844" data-name="Trazado 156844" d="M132.721,65.954A50.192,50.192,0,0,1,136.73,77.7c1.6,7.249,4.518,29.036,4.518,29.036l1.891-5.2S140.09,81.168,138.6,75.185a58.51,58.51,0,0,0-3.171-9.594Z" fill="#de3d2c"/>
          <path id="Trazado_156845" data-name="Trazado 156845" d="M137.353,62.154,113.27,60.807l-11.739.715-1.9,4.094,38.679.338Z" fill="#ff5e45"/>
          <path id="Trazado_156846" data-name="Trazado 156846" d="M115.353,134.331A27.683,27.683,0,1,0,87.67,162.014a27.683,27.683,0,0,0,27.683-27.683" fill="#727289"/>
          <path id="Trazado_156847" data-name="Trazado 156847" d="M113.27,134.331a25.6,25.6,0,1,0-25.6,25.6,25.6,25.6,0,0,0,25.6-25.6" fill="#424261"/>
          <path id="Trazado_156848" data-name="Trazado 156848" d="M105.064,134.331A17.395,17.395,0,1,0,87.67,151.725a17.394,17.394,0,0,0,17.394-17.394" fill="#2a2a4d"/>
          <path id="Trazado_156849" data-name="Trazado 156849" d="M170.448,145.767A16.247,16.247,0,1,0,154.2,162.014a16.247,16.247,0,0,0,16.247-16.247" fill="#727289"/>
          <path id="Trazado_156850" data-name="Trazado 156850" d="M169.1,145.767A14.894,14.894,0,1,0,154.2,160.661,14.894,14.894,0,0,0,169.1,145.767" fill="#424261"/>
          <path id="Trazado_156851" data-name="Trazado 156851" d="M163.774,145.767a9.573,9.573,0,1,0-9.573,9.573,9.573,9.573,0,0,0,9.573-9.573" fill="#2a2a4d"/>
          <path id="Trazado_156852" data-name="Trazado 156852" d="M102.941,134.331A15.271,15.271,0,1,0,87.67,149.6a15.271,15.271,0,0,0,15.271-15.271" fill="#cd9000"/>
          <path id="Trazado_156853" data-name="Trazado 156853" d="M85.383,123.179a2.663,2.663,0,1,0-1.288,3.539,2.663,2.663,0,0,0,1.288-3.539" fill="#2e2b27"/>
          <path id="Trazado_156854" data-name="Trazado 156854" d="M77.616,128.934A2.663,2.663,0,1,0,79.5,132.2a2.661,2.661,0,0,0-1.883-3.262" fill="#2e2b27"/>
          <path id="Trazado_156855" data-name="Trazado 156855" d="M77.032,138.583a2.663,2.663,0,1,0,3.709.654,2.662,2.662,0,0,0-3.709-.654" fill="#2e2b27"/>
          <path id="Trazado_156856" data-name="Trazado 156856" d="M84.048,145.233a2.663,2.663,0,1,0,2.885-2.421,2.663,2.663,0,0,0-2.885,2.421" fill="#2e2b27"/>
          <path id="Trazado_156857" data-name="Trazado 156857" d="M93.652,144.133a2.663,2.663,0,1,0,0-3.766,2.663,2.663,0,0,0,0,3.766" fill="#2e2b27"/>
          <path id="Trazado_156858" data-name="Trazado 156858" d="M98.982,136.068a2.663,2.663,0,1,0-2.885-2.421,2.663,2.663,0,0,0,2.885,2.421" fill="#2e2b27"/>
          <path id="Trazado_156859" data-name="Trazado 156859" d="M96.231,126.8a2.663,2.663,0,1,0-3.709.654,2.663,2.663,0,0,0,3.709-.654" fill="#2e2b27"/>
          <path id="Trazado_156860" data-name="Trazado 156860" d="M98.041,134.385A10.371,10.371,0,1,0,87.67,144.756a10.371,10.371,0,0,0,10.371-10.371" fill="#f2c028"/>
          <path id="Trazado_156861" data-name="Trazado 156861" d="M94.05,134.385a6.38,6.38,0,1,0-6.38,6.38,6.38,6.38,0,0,0,6.38-6.38" fill="#cd9000"/>
          <path id="Trazado_156862" data-name="Trazado 156862" d="M90.333,134.385a2.663,2.663,0,1,0-2.663,2.663,2.663,2.663,0,0,0,2.663-2.663" fill="#ffcb2e"/>
          <path id="Trazado_156863" data-name="Trazado 156863" d="M85.265,131.507a.814.814,0,1,0,.1,1.147.815.815,0,0,0-.1-1.147" fill="#2e2b27"/>
          <path id="Trazado_156864" data-name="Trazado 156864" d="M83.919,134.377a.814.814,0,1,0,.943.66.813.813,0,0,0-.943-.66" fill="#2e2b27"/>
          <path id="Trazado_156865" data-name="Trazado 156865" d="M85.253,137.254a.814.814,0,1,0,1.112-.3.813.813,0,0,0-1.112.3" fill="#2e2b27"/>
          <path id="Trazado_156866" data-name="Trazado 156866" d="M88.314,138.081a.814.814,0,1,0,.487-1.044.815.815,0,0,0-.487,1.044" fill="#2e2b27"/>
          <path id="Trazado_156867" data-name="Trazado 156867" d="M90.915,136.267a.814.814,0,1,0-.487-1.044.815.815,0,0,0,.487,1.044" fill="#2e2b27"/>
          <path id="Trazado_156868" data-name="Trazado 156868" d="M91.2,133.109a.814.814,0,1,0-1.112-.3.814.814,0,0,0,1.112.3" fill="#2e2b27"/>
          <path id="Trazado_156869" data-name="Trazado 156869" d="M88.96,130.863a.814.814,0,1,0-.943.66.814.814,0,0,0,.943-.66" fill="#2e2b27"/>
          <path id="Trazado_156870" data-name="Trazado 156870" d="M161.992,145.767a7.791,7.791,0,1,0-7.791,7.791,7.791,7.791,0,0,0,7.791-7.791" fill="#cd9000"/>
          <rect id="Rectángulo_37763" data-name="Rectángulo 37763" width="1.75" height="5.979" transform="translate(166.632 116.475)" fill="#ded9cb"/>
          <rect id="Rectángulo_37764" data-name="Rectángulo 37764" width="0.875" height="5.979" transform="translate(166.632 116.475)" fill="#9db397"/>
          <path id="Trazado_156871" data-name="Trazado 156871" d="M164.594,124.245H162.41l1.218-1.791h2.184Z" fill="#ff5e45"/>
          <g id="Grupo_143916" data-name="Grupo 143916" style="mix-blend-mode: multiply;isolation: isolate">
            <g id="Grupo_143915" data-name="Grupo 143915">
              <g id="Grupo_143914" data-name="Grupo 143914" clip-path="url(#clip-path-10)">
                <path id="Trazado_156872" data-name="Trazado 156872" d="M197.634,81.354l-3.383,8.177v38.228h9.658l1.95-3.542Z" fill="#e7c7ca"/>
              </g>
            </g>
          </g>
          <rect id="Rectángulo_37766" data-name="Rectángulo 37766" width="16.45" height="42.863" transform="translate(205.859 81.354)" fill="#f5a44f"/>
          <rect id="Rectángulo_37767" data-name="Rectángulo 37767" width="13.768" height="39.678" transform="translate(207.203 82.942)" fill="#3b3944"/>
          <path id="Trazado_156873" data-name="Trazado 156873" d="M220.971,82.942v4.584L207.2,113.838v-22.6l4.338-8.292Z" fill="#405166"/>
          <path id="Trazado_156874" data-name="Trazado 156874" d="M220.971,101.644v15.972l-2.624,5H210Z" fill="#405166"/>
          <rect id="Rectángulo_37768" data-name="Rectángulo 37768" width="1.737" height="39.678" transform="translate(213.216 82.947)" fill="#c0742e"/>
          <rect id="Rectángulo_37769" data-name="Rectángulo 37769" width="13.765" height="1.194" transform="translate(207.202 102.189)" fill="#f5a44f"/>
          <rect id="Rectángulo_37770" data-name="Rectángulo 37770" width="13.765" height="1.194" transform="translate(207.202 113.599)" fill="#f5a44f"/>
          <rect id="Rectángulo_37771" data-name="Rectángulo 37771" width="13.765" height="1.194" transform="translate(207.202 91.047)" fill="#f5a44f"/>
          <rect id="Rectángulo_37772" data-name="Rectángulo 37772" width="8.225" height="42.863" transform="translate(197.634 81.354)" fill="#c0742e"/>
          <rect id="Rectángulo_37773" data-name="Rectángulo 37773" width="6.075" height="40.334" transform="translate(198.709 82.619)" fill="#c4823a"/>
          <rect id="Rectángulo_37774" data-name="Rectángulo 37774" width="6.075" height="0.765" transform="translate(198.709 82.619)" fill="#a55e00"/>
          <rect id="Rectángulo_37775" data-name="Rectángulo 37775" width="6.075" height="0.765" transform="translate(198.709 86.008)" fill="#a55e00"/>
          <rect id="Rectángulo_37776" data-name="Rectángulo 37776" width="6.075" height="0.383" transform="translate(198.709 85.625)" fill="#d4a470"/>
          <rect id="Rectángulo_37777" data-name="Rectángulo 37777" width="6.075" height="0.765" transform="translate(198.709 88.766)" fill="#a55e00"/>
          <rect id="Rectángulo_37778" data-name="Rectángulo 37778" width="6.075" height="0.383" transform="translate(198.709 88.384)" fill="#d4a470"/>
          <rect id="Rectángulo_37779" data-name="Rectángulo 37779" width="6.075" height="0.765" transform="translate(198.709 91.524)" fill="#a55e00"/>
          <rect id="Rectángulo_37780" data-name="Rectángulo 37780" width="6.075" height="0.383" transform="translate(198.709 91.142)" fill="#d4a470"/>
          <rect id="Rectángulo_37781" data-name="Rectángulo 37781" width="6.075" height="0.765" transform="translate(198.709 94.282)" fill="#a55e00"/>
          <rect id="Rectángulo_37782" data-name="Rectángulo 37782" width="6.075" height="0.383" transform="translate(198.709 93.899)" fill="#d4a470"/>
          <rect id="Rectángulo_37783" data-name="Rectángulo 37783" width="6.075" height="0.765" transform="translate(198.709 97.04)" fill="#a55e00"/>
          <rect id="Rectángulo_37784" data-name="Rectángulo 37784" width="6.075" height="0.383" transform="translate(198.709 96.657)" fill="#d4a470"/>
          <rect id="Rectángulo_37785" data-name="Rectángulo 37785" width="6.075" height="0.765" transform="translate(198.709 99.798)" fill="#a55e00"/>
          <rect id="Rectángulo_37786" data-name="Rectángulo 37786" width="6.075" height="0.383" transform="translate(198.709 99.415)" fill="#d4a470"/>
          <rect id="Rectángulo_37787" data-name="Rectángulo 37787" width="6.075" height="0.765" transform="translate(198.709 102.556)" fill="#a55e00"/>
          <rect id="Rectángulo_37788" data-name="Rectángulo 37788" width="6.075" height="0.383" transform="translate(198.709 102.173)" fill="#d4a470"/>
          <rect id="Rectángulo_37789" data-name="Rectángulo 37789" width="6.075" height="0.765" transform="translate(198.709 105.314)" fill="#a55e00"/>
          <rect id="Rectángulo_37790" data-name="Rectángulo 37790" width="6.075" height="0.383" transform="translate(198.709 104.931)" fill="#d4a470"/>
          <rect id="Rectángulo_37791" data-name="Rectángulo 37791" width="6.075" height="0.765" transform="translate(198.709 108.072)" fill="#a55e00"/>
          <rect id="Rectángulo_37792" data-name="Rectángulo 37792" width="6.075" height="0.383" transform="translate(198.709 107.689)" fill="#d4a470"/>
          <rect id="Rectángulo_37793" data-name="Rectángulo 37793" width="6.075" height="0.765" transform="translate(198.709 110.83)" fill="#a55e00"/>
          <rect id="Rectángulo_37794" data-name="Rectángulo 37794" width="6.075" height="0.383" transform="translate(198.709 110.447)" fill="#d4a470"/>
          <rect id="Rectángulo_37795" data-name="Rectángulo 37795" width="6.075" height="0.765" transform="translate(198.709 113.588)" fill="#a55e00"/>
          <rect id="Rectángulo_37796" data-name="Rectángulo 37796" width="6.075" height="0.383" transform="translate(198.709 113.205)" fill="#d4a470"/>
          <rect id="Rectángulo_37797" data-name="Rectángulo 37797" width="6.075" height="0.765" transform="translate(198.709 116.346)" fill="#a55e00"/>
          <rect id="Rectángulo_37798" data-name="Rectángulo 37798" width="6.075" height="0.383" transform="translate(198.709 115.963)" fill="#d4a470"/>
          <rect id="Rectángulo_37799" data-name="Rectángulo 37799" width="6.075" height="0.765" transform="translate(198.709 119.104)" fill="#a55e00"/>
          <rect id="Rectángulo_37800" data-name="Rectángulo 37800" width="6.075" height="0.383" transform="translate(198.709 118.721)" fill="#d4a470"/>
          <rect id="Rectángulo_37801" data-name="Rectángulo 37801" width="6.075" height="0.765" transform="translate(198.709 121.862)" fill="#a55e00"/>
          <rect id="Rectángulo_37802" data-name="Rectángulo 37802" width="6.075" height="0.383" transform="translate(198.709 121.479)" fill="#d4a470"/>
          <g id="Grupo_143919" data-name="Grupo 143919" style="mix-blend-mode: multiply;isolation: isolate">
            <g id="Grupo_143918" data-name="Grupo 143918">
              <g id="Grupo_143917" data-name="Grupo 143917" clip-path="url(#clip-path-11)">
                <path id="Trazado_156875" data-name="Trazado 156875" d="M222.309,81.354l-3.383,8.177v38.228h9.658l1.95-3.542Z" fill="#e7c7ca"/>
              </g>
            </g>
          </g>
          <rect id="Rectángulo_37804" data-name="Rectángulo 37804" width="8.225" height="42.863" transform="translate(222.309 81.354)" fill="#c0742e"/>
          <rect id="Rectángulo_37805" data-name="Rectángulo 37805" width="6.075" height="40.334" transform="translate(223.384 82.619)" fill="#c4823a"/>
          <rect id="Rectángulo_37806" data-name="Rectángulo 37806" width="6.075" height="0.765" transform="translate(223.384 82.619)" fill="#a55e00"/>
          <rect id="Rectángulo_37807" data-name="Rectángulo 37807" width="6.075" height="0.765" transform="translate(223.384 86.008)" fill="#a55e00"/>
          <rect id="Rectángulo_37808" data-name="Rectángulo 37808" width="6.075" height="0.383" transform="translate(223.384 85.625)" fill="#d4a470"/>
          <rect id="Rectángulo_37809" data-name="Rectángulo 37809" width="6.075" height="0.765" transform="translate(223.384 88.766)" fill="#a55e00"/>
          <rect id="Rectángulo_37810" data-name="Rectángulo 37810" width="6.075" height="0.383" transform="translate(223.384 88.384)" fill="#d4a470"/>
          <rect id="Rectángulo_37811" data-name="Rectángulo 37811" width="6.075" height="0.765" transform="translate(223.384 91.524)" fill="#a55e00"/>
          <rect id="Rectángulo_37812" data-name="Rectángulo 37812" width="6.075" height="0.383" transform="translate(223.384 91.142)" fill="#d4a470"/>
          <rect id="Rectángulo_37813" data-name="Rectángulo 37813" width="6.075" height="0.765" transform="translate(223.384 94.282)" fill="#a55e00"/>
          <rect id="Rectángulo_37814" data-name="Rectángulo 37814" width="6.075" height="0.383" transform="translate(223.384 93.899)" fill="#d4a470"/>
          <rect id="Rectángulo_37815" data-name="Rectángulo 37815" width="6.075" height="0.765" transform="translate(223.384 97.04)" fill="#a55e00"/>
          <rect id="Rectángulo_37816" data-name="Rectángulo 37816" width="6.075" height="0.383" transform="translate(223.384 96.657)" fill="#d4a470"/>
          <rect id="Rectángulo_37817" data-name="Rectángulo 37817" width="6.075" height="0.765" transform="translate(223.384 99.798)" fill="#a55e00"/>
          <rect id="Rectángulo_37818" data-name="Rectángulo 37818" width="6.075" height="0.383" transform="translate(223.384 99.415)" fill="#d4a470"/>
          <rect id="Rectángulo_37819" data-name="Rectángulo 37819" width="6.075" height="0.765" transform="translate(223.384 102.556)" fill="#a55e00"/>
          <rect id="Rectángulo_37820" data-name="Rectángulo 37820" width="6.075" height="0.383" transform="translate(223.384 102.173)" fill="#d4a470"/>
          <rect id="Rectángulo_37821" data-name="Rectángulo 37821" width="6.075" height="0.765" transform="translate(223.384 105.314)" fill="#a55e00"/>
          <rect id="Rectángulo_37822" data-name="Rectángulo 37822" width="6.075" height="0.383" transform="translate(223.384 104.931)" fill="#d4a470"/>
          <rect id="Rectángulo_37823" data-name="Rectángulo 37823" width="6.075" height="0.765" transform="translate(223.384 108.072)" fill="#a55e00"/>
          <rect id="Rectángulo_37824" data-name="Rectángulo 37824" width="6.075" height="0.383" transform="translate(223.384 107.689)" fill="#d4a470"/>
          <rect id="Rectángulo_37825" data-name="Rectángulo 37825" width="6.075" height="0.765" transform="translate(223.384 110.83)" fill="#a55e00"/>
          <rect id="Rectángulo_37826" data-name="Rectángulo 37826" width="6.075" height="0.383" transform="translate(223.384 110.447)" fill="#d4a470"/>
          <rect id="Rectángulo_37827" data-name="Rectángulo 37827" width="6.075" height="0.765" transform="translate(223.384 113.588)" fill="#a55e00"/>
          <rect id="Rectángulo_37828" data-name="Rectángulo 37828" width="6.075" height="0.383" transform="translate(223.384 113.205)" fill="#d4a470"/>
          <rect id="Rectángulo_37829" data-name="Rectángulo 37829" width="6.075" height="0.765" transform="translate(223.384 116.346)" fill="#a55e00"/>
          <rect id="Rectángulo_37830" data-name="Rectángulo 37830" width="6.075" height="0.383" transform="translate(223.384 115.963)" fill="#d4a470"/>
          <rect id="Rectángulo_37831" data-name="Rectángulo 37831" width="6.075" height="0.765" transform="translate(223.384 119.104)" fill="#a55e00"/>
          <rect id="Rectángulo_37832" data-name="Rectángulo 37832" width="6.075" height="0.383" transform="translate(223.384 118.721)" fill="#d4a470"/>
          <rect id="Rectángulo_37833" data-name="Rectángulo 37833" width="6.075" height="0.765" transform="translate(223.384 121.862)" fill="#a55e00"/>
          <rect id="Rectángulo_37834" data-name="Rectángulo 37834" width="6.075" height="0.383" transform="translate(223.384 121.479)" fill="#d4a470"/>
          <path id="Trazado_156876" data-name="Trazado 156876" d="M152.964,140.08a1.342,1.342,0,1,0-.649,1.783,1.341,1.341,0,0,0,.649-1.783" fill="#2e2b27"/>
          <path id="Trazado_156877" data-name="Trazado 156877" d="M149.051,142.979a1.342,1.342,0,1,0,.949,1.643,1.341,1.341,0,0,0-.949-1.643" fill="#2e2b27"/>
          <path id="Trazado_156878" data-name="Trazado 156878" d="M148.757,147.841a1.342,1.342,0,1,0,1.869.329,1.34,1.34,0,0,0-1.869-.329" fill="#2e2b27"/>
          <path id="Trazado_156879" data-name="Trazado 156879" d="M152.292,151.191a1.342,1.342,0,1,0,1.453-1.22,1.342,1.342,0,0,0-1.453,1.22" fill="#2e2b27"/>
          <path id="Trazado_156880" data-name="Trazado 156880" d="M157.13,150.637a1.341,1.341,0,1,0,0-1.9,1.341,1.341,0,0,0,0,1.9" fill="#2e2b27"/>
          <path id="Trazado_156881" data-name="Trazado 156881" d="M159.816,146.574a1.342,1.342,0,1,0-1.453-1.22,1.342,1.342,0,0,0,1.453,1.22" fill="#2e2b27"/>
          <path id="Trazado_156882" data-name="Trazado 156882" d="M158.43,141.9a1.342,1.342,0,1,0-1.869.33,1.342,1.342,0,0,0,1.869-.33" fill="#2e2b27"/>
          <path id="Trazado_156883" data-name="Trazado 156883" d="M159.342,145.725a5.225,5.225,0,1,0-5.225,5.225,5.225,5.225,0,0,0,5.225-5.225" fill="#f2c028"/>
          <path id="Trazado_156884" data-name="Trazado 156884" d="M157.331,145.725a3.214,3.214,0,1,0-3.214,3.214,3.214,3.214,0,0,0,3.214-3.214" fill="#cd9000"/>
          <path id="Trazado_156885" data-name="Trazado 156885" d="M155.458,145.725a1.341,1.341,0,1,0-1.342,1.342,1.342,1.342,0,0,0,1.342-1.342" fill="#ffcb2e"/>
          <path id="Trazado_156886" data-name="Trazado 156886" d="M152.9,144.275a.41.41,0,1,0,.051.578.41.41,0,0,0-.051-.578" fill="#2e2b27"/>
          <path id="Trazado_156887" data-name="Trazado 156887" d="M152.227,145.722a.41.41,0,1,0,.474.333.41.41,0,0,0-.474-.333" fill="#2e2b27"/>
          <path id="Trazado_156888" data-name="Trazado 156888" d="M152.9,147.171a.41.41,0,1,0,.56-.15.41.41,0,0,0-.56.15" fill="#2e2b27"/>
          <path id="Trazado_156889" data-name="Trazado 156889" d="M154.441,147.587a.41.41,0,1,0,.245-.526.41.41,0,0,0-.245.526" fill="#2e2b27"/>
          <path id="Trazado_156890" data-name="Trazado 156890" d="M155.751,146.674a.41.41,0,1,0-.245-.526.411.411,0,0,0,.245.526" fill="#2e2b27"/>
          <path id="Trazado_156891" data-name="Trazado 156891" d="M155.894,145.083a.41.41,0,1,0-.56-.15.41.41,0,0,0,.56.15" fill="#2e2b27"/>
          <path id="Trazado_156892" data-name="Trazado 156892" d="M154.766,143.951a.41.41,0,1,0-.475.333.41.41,0,0,0,.475-.333" fill="#2e2b27"/>
        </g>
      </g>
    </g>
  </g>
</svg>
