<svg xmlns="http://www.w3.org/2000/svg" width="175.497" height="175.521" viewBox="0 0 175.497 175.521">
  <g id="Grupo_167590" data-name="Grupo 167590" transform="translate(-5.899 -6.508)">
    <g id="Grupo_167591" data-name="Grupo 167591" transform="translate(5.899 6.508)">
      <path id="Trazado_258716" data-name="Trazado 258716" d="M101.141,43.44a52.591,52.591,0,0,1,16.9-7.293c27.578-5.882,50.995,7.81,59.97,30.52,7.574,19.162,2.187,41.07-13.551,55.258-1.663,1.5-3.432,2.892-5,4.486a15.476,15.476,0,0,0-2.7,3.652,3.939,3.939,0,0,0,.378,4.8c2.906,3.666,1.873,8.339-1.838,11.506a43.458,43.458,0,0,1,.252,6.441,6.894,6.894,0,0,1-4.073,5.431,2.042,2.042,0,0,0-1.264,2.313,20.067,20.067,0,0,1-4.79,14.552,19.7,19.7,0,0,1-32.1-3,2.4,2.4,0,0,0-2.433-1.4q-51.464.049-102.928.026H5.908V156.676c0-2.889-.033-5.779.027-8.667a2.675,2.675,0,0,1,.608-1.7c9.1-9.158,18.229-18.28,27.482-27.534l17.013,14.158,25.4-25.447c1.749-1.752,3.539-3.467,5.213-5.288a2.334,2.334,0,0,0,.452-1.792c-.973-4.769-2.035-9.519-3.132-14.557H68.164V46.183c-1.478,0-2.82.034-4.159-.006A7.159,7.159,0,0,1,57.74,35.552q7.394-12.846,15.247-25.425c3.161-5.063,10.133-4.736,13.331.488,4.27,6.974,8.432,14.013,12.64,21.023.545.908,1.066,1.832,1.645,2.718a7.578,7.578,0,0,1,.214,8.785l-.352.477.677-.179M150.4,131.046c1.707-5.258,2.381-6.289,6.541-10.023,1.666-1.5,3.363-2.959,5-4.492,17.084-16.049,18.45-43.293,2.914-60.816-11.52-12.994-26.246-17.231-43-14.488A43.906,43.906,0,0,0,87.326,98.288c2.9,8.9,8.374,15.989,15.567,21.835,3.579,2.908,6.609,6.189,7.433,10.923ZM79.31,80.1c1.054-4.192,1.5-8.427,3.188-12.083A32.783,32.783,0,0,0,85.155,52.1c-.086-1.706-.013-3.419-.013-5.129V40.525c3,0,5.815.067,8.627-.041a3.367,3.367,0,0,0,2.389-.925c.319-.454-.087-1.663-.491-2.346Q88.782,25.587,81.788,14.024c-1.385-2.3-3.193-2.334-4.556-.069Q70.173,25.685,63.15,37.436c-1.222,2.044-.617,3.073,1.779,3.086,2.927.015,5.853,0,8.946,0V80.1ZM90.664,165a2.638,2.638,0,0,0,.121-.477q.012-23.77,0-47.539a2.784,2.784,0,0,0-.415-1.462c-1.817-2.736-3.685-5.438-5.73-8.434-1.3,1.375-2.613,2.88-4.058,4.242a3.432,3.432,0,0,0-1.118,2.777q.047,24.565.022,49.131V165ZM73.751,118.178c-3.6,3.612-6.964,6.917-10.223,10.322a3.867,3.867,0,0,0-.979,2.422c-.064,10.846-.044,21.691-.039,32.537,0,.507.058,1.014.086,1.473H73.751ZM39.865,165.005c0-11.169.005-22.169-.021-33.169a1.784,1.784,0,0,0-.483-1.211c-1.615-1.423-3.291-2.778-5.037-4.231-1.637,1.676-3.231,3.17-4.642,4.82a4.385,4.385,0,0,0-1.086,2.553c-.075,9.889-.049,19.779-.044,29.668,0,.509.055,1.018.086,1.57Zm104.611-5.491H116.365c-1.156,10.828,6.733,16.817,13.964,16.868,7.364.052,15.3-6.039,14.147-16.868m-47.9-37.479v42.905h14.038c0-1.588-.062-3.062.02-4.527a1.951,1.951,0,0,0-1.245-2.165,7.6,7.6,0,0,1-4.334-6.437,26.918,26.918,0,0,1,.66-5.276c-4.012-3.555-4.887-8.194-1.846-11.935a3.459,3.459,0,0,0,.563-3.683c-1.274-4.059-4.956-5.9-7.856-8.882M56.727,165V134.955l-5.211,5.737-5.886-4.857V165Zm73.5-22.588q9.712,0,19.423,0c2.095,0,3.358-1.062,3.394-2.769.037-1.77-1.266-2.858-3.455-2.885-.353,0-.706,0-1.059,0H116.217c-1.766,0-3.532-.026-5.3.008-1.916.037-3.146,1.186-3.127,2.851s1.245,2.741,3.188,2.8c.353.01.706,0,1.06,0h18.187M22.762,164.994V138.069c-3.677,3.678-7.175,7.166-10.65,10.677a1.71,1.71,0,0,0-.516,1.042c-.033,5.048-.023,10.1-.023,15.206Zm107.672-11.257c5.414,0,10.828.042,16.241-.04a3.9,3.9,0,0,0,2.673-.921,3.733,3.733,0,0,0,.594-2.854c-.312-1.439-1.6-1.855-3.033-1.853-11,.015-22.009,0-33.013.015-2.051,0-3.311,1.153-3.273,2.882.037,1.708,1.3,2.761,3.393,2.766,5.473.014,10.946,0,16.418,0M90.908,46.278v5.646L97.068,46l-6.161.282" transform="translate(-5.899 -6.508)" fill="#020201"/>
      <path id="Trazado_258717" data-name="Trazado 258717" d="M63.884,145.659H41.257V106.073c-1.459,0-2.791.026-4.12,0a7.173,7.173,0,0,1-6.259-10.835Q38.228,82.571,45.93,70.115A7.648,7.648,0,0,1,59.066,70.1Q66.791,82.539,74.12,95.221c2.9,5-.6,10.759-6.413,10.851-1.229.02-2.458,0-3.823,0ZM46.9,100.413v39.5H58.247v-39.5c3.041,0,5.922.011,8.8,0,2.4-.012,3.007-1.038,1.788-3.08Q61.781,85.509,54.679,73.714c-1.253-2.08-3.1-2.066-4.363.026q-7.1,11.795-14.161,23.615c-1.208,2.022-.585,3.044,1.826,3.055,2.879.013,5.758,0,8.922,0" transform="translate(-18.536 -38.092)" fill="#010101"/>
      <path id="Trazado_258718" data-name="Trazado 258718" d="M238.868,168.923H198.79c-.824-4.735-3.854-8.015-7.433-10.923-7.194-5.846-12.67-12.932-15.567-21.835A43.906,43.906,0,0,1,210.321,79.1c16.75-2.743,31.477,1.494,43,14.488,15.536,17.523,14.17,44.766-2.914,60.816-1.632,1.533-3.329,3-5,4.492-4.16,3.735-4.834,4.765-6.541,10.023m-17.219-64.911v-5.7h-5.626v5.81c-.282.117-.443.189-.608.25-5.054,1.889-7.919,5.818-7.848,10.768.068,4.824,3.074,8.713,8.059,10.419,1.723.589,3.468,1.115,5.17,1.756a5.428,5.428,0,0,1,3.622,6.284,5.613,5.613,0,0,1-6.277,4.22,5.466,5.466,0,0,1-4.908-5.339c-.034-1.03-.005-2.063-.005-3.008h-5.589c-.674,6.809,1.817,11.583,8.5,13.825v5.747h5.579v-5.774c.309-.134.569-.261.839-.362,4.824-1.826,7.671-5.754,7.645-10.55-.027-4.844-3-8.79-7.939-10.516-1.718-.6-3.463-1.126-5.178-1.738a5.391,5.391,0,0,1,1.35-10.562,5.536,5.536,0,0,1,5.96,4.176c.124.479.194.972.3,1.514l5.351-.332c.345-4.624-2.368-8.136-8.4-10.888m-2.827-19.9c-18.53-.655-33.2,12.764-36.695,24.485l4.92,1.918c6.291-13.6,16.916-20.541,31.774-20.909Zm18.1,75.054c7.18-7.077,15.8-12.842,18.958-23.212l-4.985-1.868c-1.1,2.053-2.058,4-3.159,5.86-2.66,4.494-6.727,7.671-10.513,11.114-1.638,1.49-3.141,3.128-4.809,4.8l4.51,3.3M179.2,120.787h5.7c.209-1.672.416-3.321.632-5.054l-5.542-1.1c-.27,2.089-.514,3.984-.793,6.15m79.393,2.974h-5.7c-.206,1.665-.405,3.284-.621,5.033l5.541,1.088c.261-2.054.5-3.957.779-6.121" transform="translate(-94.363 -44.385)" fill="#fdc94a"/>
      <path id="Trazado_258719" data-name="Trazado 258719" d="M142.548,86.543h-5.434V46.966c-3.092,0-6.019.011-8.946,0-2.4-.012-3-1.041-1.779-3.086q7.021-11.751,14.08-23.48c1.364-2.266,3.172-2.234,4.557.069q6.964,11.579,13.879,23.189c.4.683.811,1.892.491,2.345a3.364,3.364,0,0,1-2.388.925c-2.812.108-5.631.041-8.627.041v6.442c0,1.71-.072,3.424.013,5.129a32.791,32.791,0,0,1-2.658,15.923c-1.692,3.655-2.134,7.891-3.188,12.083" transform="translate(-69.137 -12.949)" fill="#a3314f"/>
      <path id="Trazado_258720" data-name="Trazado 258720" d="M172.8,277.3H161.623v-1.763q0-24.565-.022-49.13a3.432,3.432,0,0,1,1.118-2.777c1.445-1.363,2.756-2.867,4.058-4.242,2.045,3,3.913,5.7,5.73,8.434a2.787,2.787,0,0,1,.415,1.462q.025,23.77,0,47.54a2.648,2.648,0,0,1-.121.477" transform="translate(-88.037 -118.806)" fill="#b3dc7e"/>
      <path id="Trazado_258721" data-name="Trazado 258721" d="M136.953,242.863v46.754H125.8c-.028-.459-.086-.966-.086-1.473-.005-10.846-.026-21.691.038-32.536a3.873,3.873,0,0,1,.979-2.423c3.259-3.4,6.622-6.709,10.223-10.322" transform="translate(-69.1 -131.193)" fill="#b3dc7e"/>
      <path id="Trazado_258722" data-name="Trazado 258722" d="M65.149,298.863H53.922c-.032-.553-.086-1.062-.086-1.57-.005-9.89-.031-19.779.044-29.668a4.386,4.386,0,0,1,1.085-2.553c1.412-1.65,3.006-3.144,4.642-4.82,1.746,1.454,3.421,2.808,5.037,4.231a1.784,1.784,0,0,1,.484,1.211c.026,11,.02,22,.02,33.169" transform="translate(-31.183 -140.366)" fill="#b3dc7e"/>
      <path id="Trazado_258723" data-name="Trazado 258723" d="M267.689,330.354c1.151,10.829-6.783,16.92-14.147,16.868-7.231-.052-15.119-6.04-13.964-16.868Z" transform="translate(-129.113 -177.347)" fill="#a8b0bb"/>
      <path id="Trazado_258724" data-name="Trazado 258724" d="M197.814,251.028c2.9,2.98,6.582,4.823,7.856,8.882a3.46,3.46,0,0,1-.563,3.684c-3.041,3.741-2.166,8.381,1.846,11.935a26.916,26.916,0,0,0-.66,5.276,7.6,7.6,0,0,0,4.334,6.437,1.951,1.951,0,0,1,1.245,2.165c-.082,1.465-.02,2.938-.02,4.526H197.814Z" transform="translate(-107.14 -135.5)" fill="#b2db7e"/>
      <path id="Trazado_258725" data-name="Trazado 258725" d="M101.088,308.421h-11.1v-29.17l5.885,4.856,5.211-5.736Z" transform="translate(-50.261 -149.925)" fill="#b3dc7e"/>
      <path id="Trazado_258726" data-name="Trazado 258726" d="M244,287.835H225.811c-.353,0-.707.009-1.06,0-1.943-.058-3.17-1.136-3.188-2.8s1.21-2.814,3.127-2.851c1.765-.034,3.531-.008,5.3-.008H262.3c.353,0,.706,0,1.059,0,2.189.027,3.492,1.116,3.455,2.885-.036,1.707-1.3,2.764-3.394,2.769q-9.711.019-19.423,0" transform="translate(-119.668 -151.926)" fill="#cacfd7"/>
      <path id="Trazado_258727" data-name="Trazado 258727" d="M29.1,311.888H17.907c0-5.109-.011-10.158.022-15.206a1.709,1.709,0,0,1,.516-1.042c3.475-3.51,6.973-7,10.65-10.677Z" transform="translate(-12.233 -153.402)" fill="#b3dc7e"/>
      <path id="Trazado_258728" data-name="Trazado 258728" d="M247.362,311.8c-5.473,0-10.946.009-16.418,0-2.1-.005-3.355-1.058-3.393-2.766-.038-1.729,1.222-2.88,3.273-2.882,11-.014,22.008,0,33.013-.015,1.431,0,2.721.414,3.033,1.853a3.735,3.735,0,0,1-.594,2.854,3.9,3.9,0,0,1-2.673.92c-5.413.082-10.827.04-16.241.04" transform="translate(-122.827 -164.569)" fill="#cacfd7"/>
      <path id="Trazado_258729" data-name="Trazado 258729" d="M185.824,90.368l6.161-.282-6.161,5.928Z" transform="translate(-100.815 -50.598)" fill="#fafafa"/>
      <path id="Trazado_258730" data-name="Trazado 258730" d="M206.728,84.343l-.677.179.353-.477.324.3" transform="translate(-111.486 -47.411)" fill="#fefefe"/>
      <path id="Trazado_258731" data-name="Trazado 258731" d="M53.269,106.869c-3.164,0-6.043.01-8.922,0-2.411-.011-3.034-1.032-1.826-3.055Q49.582,91.992,56.682,80.2c1.26-2.092,3.109-2.105,4.363-.026q7.1,11.794,14.159,23.616c1.219,2.042.61,3.067-1.788,3.08-2.882.015-5.763,0-8.8,0v39.5H53.269Z" transform="translate(-24.902 -44.549)" fill="#a3314f"/>
      <path id="Trazado_258732" data-name="Trazado 258732" d="M259.545,126.348c6.03,2.753,8.742,6.264,8.4,10.889l-5.351.332c-.106-.541-.176-1.034-.3-1.513a5.723,5.723,0,0,0-11.114.351,5.476,5.476,0,0,0,3.8,6.035c1.715.611,3.459,1.138,5.178,1.738,4.942,1.725,7.911,5.671,7.939,10.516.027,4.8-2.821,8.724-7.645,10.55-.269.1-.53.228-.839.363v5.774h-5.579v-5.747c-6.684-2.242-9.175-7.016-8.5-13.825h5.589c0,.945-.028,1.977.006,3.008a5.466,5.466,0,0,0,4.908,5.339,5.613,5.613,0,0,0,6.277-4.22,5.428,5.428,0,0,0-3.622-6.284c-1.7-.641-3.448-1.167-5.17-1.757-4.985-1.705-7.991-5.594-8.059-10.418-.071-4.95,2.794-8.879,7.848-10.768.165-.062.326-.134.608-.251V120.65h5.626Z" transform="translate(-132.259 -66.721)" fill="#030302"/>
      <path id="Trazado_258733" data-name="Trazado 258733" d="M228.353,90.561v5.494c-14.858.369-25.483,7.306-31.774,20.909l-4.92-1.918c3.491-11.721,18.165-25.14,36.695-24.485" transform="translate(-103.893 -50.837)" fill="#040403"/>
      <path id="Trazado_258734" data-name="Trazado 258734" d="M302.587,221.439l-4.51-3.3c1.669-1.675,3.171-3.314,4.81-4.8,3.786-3.444,7.853-6.621,10.513-11.114,1.1-1.861,2.059-3.807,3.159-5.86l4.985,1.868c-3.163,10.371-11.778,16.136-18.958,23.212" transform="translate(-160.032 -106.66)" fill="#050403"/>
      <path id="Trazado_258735" data-name="Trazado 258735" d="M185.46,161.351c.279-2.166.524-4.06.793-6.149l5.542,1.1-.633,5.053Z" transform="translate(-100.623 -84.949)" fill="#080705"/>
      <path id="Trazado_258736" data-name="Trazado 258736" d="M346.442,174.511l-.779,6.121-5.541-1.088c.215-1.75.415-3.369.621-5.033Z" transform="translate(-182.212 -95.135)" fill="#060604"/>
    </g>
  </g>
</svg>
