<svg xmlns="http://www.w3.org/2000/svg" xmlns:xlink="http://www.w3.org/1999/xlink" width="293.032" height="175.937" viewBox="0 0 293.032 175.937">
  <defs>
    <clipPath id="clip-path">
      <rect id="Rectángulo_37842" data-name="Rectángulo 37842" width="111.63" height="2.379" transform="translate(161.08 175.995)" fill="none"/>
    </clipPath>
    <clipPath id="clip-path-2">
      <rect id="Rectángulo_37844" data-name="Rectángulo 37844" width="44.47" height="79.921" transform="translate(81.266 89.91)" fill="none"/>
    </clipPath>
    <clipPath id="clip-path-3">
      <rect id="Rectángulo_37845" data-name="Rectángulo 37845" width="55.748" height="97.944" transform="translate(28.2 71.887)" fill="none"/>
    </clipPath>
    <clipPath id="clip-path-4">
      <rect id="Rectángulo_37854" data-name="Rectángulo 37854" width="103.869" height="7.857" transform="translate(134.68 88.037)" fill="none"/>
    </clipPath>
    <clipPath id="clip-path-5">
      <rect id="Rectángulo_37865" data-name="Rectángulo 37865" width="22.055" height="36.241" transform="translate(142.124 109.849)" fill="none"/>
    </clipPath>
    <clipPath id="clip-path-6">
      <rect id="Rectángulo_37873" data-name="Rectángulo 37873" width="22.055" height="36.241" transform="translate(207.639 109.849)" fill="none"/>
    </clipPath>
    <clipPath id="clip-path-7">
      <rect id="Rectángulo_37885" data-name="Rectángulo 37885" width="17.969" height="24.646" transform="translate(149.014 57.759)" fill="none"/>
    </clipPath>
    <clipPath id="clip-path-8">
      <rect id="Rectángulo_37886" data-name="Rectángulo 37886" width="15.648" height="23.16" transform="translate(188.624 51.997)" fill="none"/>
    </clipPath>
  </defs>
  <g id="Grupo_143951" data-name="Grupo 143951" transform="translate(-14.806 -36.518)">
    <g id="Grupo_166786" data-name="Grupo 166786">
      <g id="Grupo_143949" data-name="Grupo 143949">
        <g id="Grupo_166787" data-name="Grupo 166787">
          <path id="Trazado_156893" data-name="Trazado 156893" d="M255.214,212.455H63.807a6.7,6.7,0,0,1-6.7-6.7V175.852a6.7,6.7,0,0,1,6.7-6.7H255.214a6.7,6.7,0,0,1,6.695,6.7v29.907a6.7,6.7,0,0,1-6.695,6.7" fill="#fff"/>
          <path id="Trazado_156894" data-name="Trazado 156894" d="M268.671,63.627c-1.68-.28-14.157,1.664-15.269,9.868s-7.333,12.464-4.237,19.111,8.08,7.635,8.184,15.243,0,26.772,0,26.772,12.776,5.715,15.061,4.6,7.479-7.766,9.141-11.4.415-26.694-.416-29.81-.415-11.471-3.116-15.6-3.739-17.843-9.348-18.778" fill="#7e8e0b"/>
          <path id="Trazado_156895" data-name="Trazado 156895" d="M265.34,83.155l2.916,35.419.415,46.308-7.374-1.125,2.389-49.388Z" fill="#c39f62"/>
          <path id="Trazado_156896" data-name="Trazado 156896" d="M249.559,81.389s-9.556.623-12.672,7.478,0,20.982,1.662,20.982-9.608,3.739-8.855,13.191a110.235,110.235,0,0,0,1.688,13.607l11.322,4.882s17.242.1,18.592,1.143,7.375-8.518,7.375-11.426-.415-12.672-.415-12.672-.624-17.865-1.87-20.358-1.662-16-16.827-16.827" fill="#a7b816"/>
          <path id="Trazado_156897" data-name="Trazado 156897" d="M53.131,128.909h6.707a9.973,9.973,0,0,0,9.973-9.973V47.062a9.972,9.972,0,0,0-9.973-9.973H53.131a9.972,9.972,0,0,0-9.973,9.973v71.874a9.973,9.973,0,0,0,9.973,9.973" fill="#c6cec6"/>
          <path id="Trazado_156898" data-name="Trazado 156898" d="M68.531,123.352H61.824a9.973,9.973,0,0,1-9.973-9.973V41.505a9.917,9.917,0,0,1,1.035-4.4,9.966,9.966,0,0,0-9.728,9.96v71.875a9.973,9.973,0,0,0,9.973,9.972h6.707a9.964,9.964,0,0,0,8.938-5.568c-.082,0-.162.012-.245.012" fill="#a6b3a6"/>
          <rect id="Rectángulo_37837" data-name="Rectángulo 37837" width="26.653" height="2.387" transform="translate(43.158 79.637)" fill="#dbe0db"/>
          <rect id="Rectángulo_37838" data-name="Rectángulo 37838" width="8.693" height="2.387" transform="translate(43.158 79.637)" fill="#8c9c8c"/>
          <path id="Trazado_156899" data-name="Trazado 156899" d="M101.918,134.154h9.2A13.681,13.681,0,0,0,124.8,120.473V67.7a13.681,13.681,0,0,0-13.681-13.681h-9.2A13.679,13.679,0,0,0,88.238,67.7v52.773a13.679,13.679,0,0,0,13.68,13.681" fill="#f0e2d3"/>
          <path id="Trazado_156900" data-name="Trazado 156900" d="M110.643,132.033a13.681,13.681,0,0,1-13.681-13.681V65.579a13.659,13.659,0,0,1,6.387-11.56h-1.431A13.681,13.681,0,0,0,88.237,67.7v52.774a13.681,13.681,0,0,0,13.681,13.68h9.2a13.6,13.6,0,0,0,7.294-2.121Z" fill="#e4ccb1"/>
          <rect id="Rectángulo_37839" data-name="Rectángulo 37839" width="8.725" height="3.023" transform="translate(88.237 82.89)" fill="#cc9f6c"/>
          <rect id="Rectángulo_37840" data-name="Rectángulo 37840" width="27.837" height="3.023" transform="translate(96.962 82.89)" fill="#dfc2a2"/>
          <path id="Trazado_156901" data-name="Trazado 156901" d="M124.8,77.805a23.664,23.664,0,0,0-11.426,0c-6.232,1.558-10.519,3.895-10.594,7.167s-3.739,5.713-1.87,11.114-2.131-1.143,4.232,11.01,5.272,17.712,12.751,18.36,23.682.8,24.772-2.624,2.649-6.232,3.272-8.1,2.961-4.312,3.116-8.466,2.337-7.477-.934-10.178-3.272-6.751-5.454-7.842S139.081,83.05,137.99,83s-1.869-2.856-4.518-3.012-8.673-2.181-8.673-2.181" fill="#7e8e0b"/>
          <path id="Trazado_156902" data-name="Trazado 156902" d="M293.38,176H21.338a6.532,6.532,0,0,1-6.532-6.532v-4.393a6.532,6.532,0,0,1,6.532-6.532H293.38a6.531,6.531,0,0,1,6.532,6.532v4.393A6.531,6.531,0,0,1,293.38,176" fill="#aebd00"/>
          <path id="Trazado_156903" data-name="Trazado 156903" d="M152.492,159.984H117.4v-1.446h41.332Z" fill="#6d8600"/>
          <path id="Trazado_156904" data-name="Trazado 156904" d="M270.44,187.2H48.259a7.126,7.126,0,0,1-7.126-7.126V175.28a7.126,7.126,0,0,1,7.126-7.126H270.44a7.125,7.125,0,0,1,7.126,7.126v4.792a7.125,7.125,0,0,1-7.126,7.126" fill="#ff9758"/>
          <path id="Trazado_156905" data-name="Trazado 156905" d="M38.136,195.206H17.8a3,3,0,0,1-3-3v-2.016a3,3,0,0,1,3-3H38.136a3,3,0,0,1,3,3v2.016a3,3,0,0,1-3,3" fill="#ffa975"/>
          <path id="Trazado_156906" data-name="Trazado 156906" d="M304.841,187.2h-15.1a3,3,0,0,1-3-3v-2.016a3,3,0,0,1,3-3h15.1a3,3,0,0,1,3,3V184.2a3,3,0,0,1-3,3" fill="#ff9758"/>
          <path id="Trazado_156907" data-name="Trazado 156907" d="M278.6,203.328H232.877a3.183,3.183,0,0,1-3.183-3.182v-2.141a3.182,3.182,0,0,1,3.183-3.182H278.6a3.182,3.182,0,0,1,3.183,3.182v2.141a3.183,3.183,0,0,1-3.183,3.182" fill="#ffd18b"/>
          <path id="Trazado_156908" data-name="Trazado 156908" d="M244.271,184.138H235.38a1.37,1.37,0,1,1,0-2.74h8.891a1.37,1.37,0,1,1,0,2.74" fill="#ffa975"/>
          <path id="Trazado_156909" data-name="Trazado 156909" d="M201.749,179.99h-8.891a1.37,1.37,0,0,1,0-2.74h8.891a1.37,1.37,0,1,1,0,2.74" fill="#ffa975"/>
          <path id="Trazado_156910" data-name="Trazado 156910" d="M229.411,181.36H218.189a1.37,1.37,0,0,1,0-2.74h11.222a1.37,1.37,0,1,1,0,2.74" fill="#ffa975"/>
          <path id="Trazado_156911" data-name="Trazado 156911" d="M217.073,175.569h-8.891a1.37,1.37,0,1,1,0-2.74h8.891a1.37,1.37,0,0,1,0,2.74" fill="#ffa975"/>
          <path id="Trazado_156912" data-name="Trazado 156912" d="M157.366,178.31h-8.891a1.37,1.37,0,1,1,0-2.74h8.891a1.37,1.37,0,1,1,0,2.74" fill="#ffa975"/>
          <path id="Trazado_156913" data-name="Trazado 156913" d="M248.081,175.713H239.19a1.37,1.37,0,1,1,0-2.74h8.891a1.37,1.37,0,1,1,0,2.74" fill="#ffa975"/>
          <path id="Trazado_156914" data-name="Trazado 156914" d="M191.027,175.713h-8.891a1.37,1.37,0,0,1,0-2.74h8.891a1.37,1.37,0,1,1,0,2.74" fill="#ffa975"/>
          <path id="Trazado_156915" data-name="Trazado 156915" d="M137.58,176.94h-8.891a1.37,1.37,0,0,1,0-2.74h8.891a1.37,1.37,0,0,1,0,2.74" fill="#ffa975"/>
          <path id="Trazado_156916" data-name="Trazado 156916" d="M59.224,179.164H50.333a1.37,1.37,0,0,1,0-2.74h8.891a1.37,1.37,0,1,1,0,2.74" fill="#ffa975"/>
          <path id="Trazado_156917" data-name="Trazado 156917" d="M129.809,184.138H113.272a1.37,1.37,0,1,1,0-2.74h16.537a1.37,1.37,0,0,1,0,2.74" fill="#ffa975"/>
          <path id="Trazado_156918" data-name="Trazado 156918" d="M119.485,174.342H102.949a1.37,1.37,0,0,1,0-2.74h16.536a1.37,1.37,0,1,1,0,2.74" fill="#ffa975"/>
          <path id="Trazado_156919" data-name="Trazado 156919" d="M181.718,182.768h-19.95a1.37,1.37,0,1,1,0-2.74h19.95a1.37,1.37,0,0,1,0,2.74" fill="#ffa975"/>
          <path id="Trazado_156920" data-name="Trazado 156920" d="M104.718,181.4H89.607a1.37,1.37,0,1,1,0-2.74h15.111a1.37,1.37,0,0,1,0,2.74" fill="#ffa975"/>
          <path id="Trazado_156921" data-name="Trazado 156921" d="M77.655,184.138H57.706a1.37,1.37,0,1,1,0-2.74H77.655a1.37,1.37,0,1,1,0,2.74" fill="#ffa975"/>
          <path id="Trazado_156922" data-name="Trazado 156922" d="M232.64,172.972h-3.718a1.37,1.37,0,0,1,0-2.74h3.718a1.37,1.37,0,0,1,0,2.74" fill="#ffa975"/>
          <path id="Trazado_156923" data-name="Trazado 156923" d="M210.779,184.138h-3.718a1.37,1.37,0,1,1,0-2.74h3.718a1.37,1.37,0,0,1,0,2.74" fill="#ffa975"/>
          <path id="Trazado_156924" data-name="Trazado 156924" d="M148.556,184.138h-3.718a1.37,1.37,0,0,1,0-2.74h3.718a1.37,1.37,0,0,1,0,2.74" fill="#ffa975"/>
          <path id="Trazado_156925" data-name="Trazado 156925" d="M82.462,177.794H78.743a1.37,1.37,0,0,1,0-2.74h3.719a1.37,1.37,0,0,1,0,2.74" fill="#ffa975"/>
          <g id="Grupo_143926" data-name="Grupo 143926" style="mix-blend-mode: multiply;isolation: isolate">
            <g id="Grupo_143925" data-name="Grupo 143925">
              <g id="Grupo_143924" data-name="Grupo 143924" clip-path="url(#clip-path)">
                <rect id="Rectángulo_37841" data-name="Rectángulo 37841" width="111.63" height="2.379" transform="translate(161.08 175.995)" fill="#c7a688"/>
              </g>
            </g>
          </g>
          <path id="Trazado_156926" data-name="Trazado 156926" d="M28.2,169.832l-13.395-.368V164.9a6.361,6.361,0,0,1,6.361-6.361H41.644Z" fill="#6d8600"/>
          <rect id="Rectángulo_37843" data-name="Rectángulo 37843" width="100.955" height="63.56" transform="translate(28.201 106.271)" fill="#74abff"/>
          <path id="Trazado_156927" data-name="Trazado 156927" d="M129.156,106.271H28.2l6.65-4.534,1.663-1.129,12.675-8.627.376-.251,1.286-.894,1.381-.926,2.431-1.662,8.847-6.04,1.663-1.129,12.674-8.627.831-.565.832.565,4.439,3.027,8.235,5.6,1.663,1.129,8.862,6.04,2.432,1.662,1.38.926,1.663,1.145,12.674,8.627,1.663,1.129,3.216,2.2Z" fill="#92c7ff"/>
          <g id="Grupo_143929" data-name="Grupo 143929" style="mix-blend-mode: screen;isolation: isolate">
            <g id="Grupo_143928" data-name="Grupo 143928">
              <g id="Grupo_143927" data-name="Grupo 143927" clip-path="url(#clip-path-2)">
                <path id="Trazado_156928" data-name="Trazado 156928" d="M125.736,103.934l-.69,2.337-18.98,63.56h-24.8l18.98-63.56,4.894-16.36,1.381.925,1.662,1.145,12.674,8.627,1.663,1.13Z" fill="#2578ff"/>
              </g>
            </g>
          </g>
          <g id="Grupo_143932" data-name="Grupo 143932" style="mix-blend-mode: screen;isolation: isolate">
            <g id="Grupo_143931" data-name="Grupo 143931">
              <g id="Grupo_143930" data-name="Grupo 143930" clip-path="url(#clip-path-3)">
                <path id="Trazado_156929" data-name="Trazado 156929" d="M83.948,75.479l-9.192,30.792-18.98,63.56H28.2v-6.6l17.019-56.956L49.564,91.73l1.287-.894,1.38-.926,2.431-1.662,8.847-6.04,1.663-1.129,12.674-8.627.832-.565.831.565Z" fill="#2578ff"/>
              </g>
            </g>
          </g>
          <rect id="Rectángulo_37846" data-name="Rectángulo 37846" width="100.961" height="1.662" transform="translate(28.2 106.265)" fill="#5f9696"/>
          <path id="Trazado_156930" data-name="Trazado 156930" d="M105.141,89.9H52.224l2.437-1.661H102.7Z" fill="#5f9696"/>
          <rect id="Rectángulo_37847" data-name="Rectángulo 37847" width="100.961" height="1.662" transform="translate(28.2 126.104)" fill="#5f9696"/>
          <rect id="Rectángulo_37848" data-name="Rectángulo 37848" width="90.741" height="1.494" transform="translate(28.201 150.508)" fill="#5f9696"/>
          <path id="Trazado_156931" data-name="Trazado 156931" d="M36.509,100.605v69.226H34.848v-68.1Z" fill="#5f9696"/>
          <path id="Trazado_156932" data-name="Trazado 156932" d="M50.843,90.843v78.989H49.182V91.974Z" fill="#5f9696"/>
          <path id="Trazado_156933" data-name="Trazado 156933" d="M65.177,81.083v88.749H63.516V82.214Z" fill="#5f9696"/>
          <path id="Trazado_156934" data-name="Trazado 156934" d="M79.511,72.449v97.383H77.85V72.452l.832-.567Z" fill="#5f9696"/>
          <path id="Trazado_156935" data-name="Trazado 156935" d="M93.845,82.211v87.621H92.184V81.08Z" fill="#5f9696"/>
          <path id="Trazado_156936" data-name="Trazado 156936" d="M108.179,91.974v77.858h-1.661V90.843Z" fill="#5f9696"/>
          <path id="Trazado_156937" data-name="Trazado 156937" d="M122.513,101.736v68.1h-1.661V100.605Z" fill="#5f9696"/>
          <rect id="Rectángulo_37849" data-name="Rectángulo 37849" width="90.74" height="3.827" transform="translate(28.202 166.005)" fill="#5f9696"/>
          <rect id="Rectángulo_37850" data-name="Rectángulo 37850" width="20.404" height="31.784" transform="translate(68.48 138.048)" fill="#5f9696"/>
          <rect id="Rectángulo_37851" data-name="Rectángulo 37851" width="17.743" height="30.64" transform="translate(69.811 139.192)" fill="#477086"/>
          <rect id="Rectángulo_37852" data-name="Rectángulo 37852" width="103.869" height="70.008" transform="translate(134.68 88.037)" fill="#d9b791"/>
          <g id="Grupo_143935" data-name="Grupo 143935" style="mix-blend-mode: multiply;isolation: isolate">
            <g id="Grupo_143934" data-name="Grupo 143934">
              <g id="Grupo_143933" data-name="Grupo 143933" clip-path="url(#clip-path-4)">
                <rect id="Rectángulo_37853" data-name="Rectángulo 37853" width="103.869" height="7.857" transform="translate(134.68 88.037)" fill="#e2babe"/>
              </g>
            </g>
          </g>
          <path id="Trazado_156938" data-name="Trazado 156938" d="M244.989,88.037H128.24l1.454-20.254L136.159,52H237.071l6.464,15.785Z" fill="#00aa9e"/>
          <path id="Trazado_156939" data-name="Trazado 156939" d="M136.159,52l-6.464,15.785h113.84L237.071,52Z" fill="#2ab8ae"/>
          <rect id="Rectángulo_37855" data-name="Rectángulo 37855" width="20.566" height="38.639" transform="translate(204.272 36.518)" fill="#cda16f"/>
          <rect id="Rectángulo_37856" data-name="Rectángulo 37856" width="20.566" height="1.273" transform="translate(204.272 36.518)" fill="#e9d6c0"/>
          <path id="Trazado_156940" data-name="Trazado 156940" d="M220.7,61.007h-5.617a1.961,1.961,0,0,0-1.961,1.961v1.319a1.961,1.961,0,0,0,1.961,1.961H220.7a1.961,1.961,0,0,0,1.961-1.961V62.968a1.961,1.961,0,0,0-1.961-1.961" fill="#bd8341"/>
          <path id="Trazado_156941" data-name="Trazado 156941" d="M209.877,52h-3.2a1.665,1.665,0,0,0-1.665,1.666v1.12a1.665,1.665,0,0,0,1.665,1.666h3.2a1.666,1.666,0,0,0,1.666-1.666v-1.12A1.666,1.666,0,0,0,209.877,52" fill="#bd8341"/>
          <path id="Trazado_156942" data-name="Trazado 156942" d="M222.749,40.561h-3.2a1.665,1.665,0,0,0-1.665,1.666v1.12a1.665,1.665,0,0,0,1.665,1.666h3.2a1.666,1.666,0,0,0,1.666-1.666v-1.12a1.666,1.666,0,0,0-1.666-1.666" fill="#bd8341"/>
          <path id="Trazado_156943" data-name="Trazado 156943" d="M176.839,67.782H157.127l-8.113,14.623,1.662.75,7.374-13.919h17.866l7.375,13.919,1.661-.75Z" fill="#cbe8eb"/>
          <path id="Trazado_156944" data-name="Trazado 156944" d="M175.916,69.236H157.958l-7.282,13.919,2.077,2.492h28.368l2.17-2.492Z" fill="#008d8e"/>
          <rect id="Rectángulo_37857" data-name="Rectángulo 37857" width="14.853" height="10.364" transform="translate(159.511 71.025)" fill="#f5a44f"/>
          <rect id="Rectángulo_37858" data-name="Rectángulo 37858" width="12.375" height="7.894" transform="translate(160.749 72.26)" fill="#3b3944"/>
          <rect id="Rectángulo_37859" data-name="Rectángulo 37859" width="10.655" height="6.743" transform="translate(160.75 73.411)" fill="#5f5e67"/>
          <rect id="Rectángulo_37860" data-name="Rectángulo 37860" width="12.375" height="0.689" transform="translate(160.749 76.552)" fill="#3b3944"/>
          <rect id="Rectángulo_37861" data-name="Rectángulo 37861" width="0.689" height="7.894" transform="translate(166.593 72.26)" fill="#f5a44f"/>
          <rect id="Rectángulo_37862" data-name="Rectángulo 37862" width="0.69" height="7.894" transform="translate(165.902 72.26)" fill="#3b3944"/>
          <rect id="Rectángulo_37863" data-name="Rectángulo 37863" width="12.375" height="0.69" transform="translate(160.749 75.862)" fill="#f5a44f"/>
          <path id="Trazado_156945" data-name="Trazado 156945" d="M149.014,82.405l7.167-18.778,10.8-5.868,10.387,5.868,7.582,18.778-8.113-14.623H157.127Z" fill="#51c5bd"/>
          <rect id="Rectángulo_37864" data-name="Rectángulo 37864" width="36.175" height="4.341" transform="translate(152.492 155.643)" fill="#f7efe7"/>
          <path id="Trazado_156946" data-name="Trazado 156946" d="M188.672,111.1h-4.115a12.061,12.061,0,0,0-12.044,11.416l-1.687,31.534H202.4l-1.687-31.534A12.06,12.06,0,0,0,188.672,111.1" fill="#edddcb"/>
          <path id="Trazado_156947" data-name="Trazado 156947" d="M199.413,154.051h-25.6l1.443-30.745a10.762,10.762,0,0,1,2.353-6.211,9.44,9.44,0,0,1,2.949-2.416,8.585,8.585,0,0,1,3.953-1.051,1.166,1.166,0,0,1,.235-.016h3.734a8.74,8.74,0,0,1,2.933.5,9.392,9.392,0,0,1,2.933,1.679,10.52,10.52,0,0,1,3.624,7.513l.345,7.357Z" fill="#f5a44f"/>
          <path id="Trazado_156948" data-name="Trazado 156948" d="M177.61,117.094V154.05h-3.8l1.443-30.744a10.758,10.758,0,0,1,2.353-6.212" fill="#de903e"/>
          <path id="Trazado_156949" data-name="Trazado 156949" d="M184.512,113.628v40.423h-3.953V114.679a8.582,8.582,0,0,1,3.953-1.051" fill="#de903e"/>
          <path id="Trazado_156950" data-name="Trazado 156950" d="M191.413,114.114v39.937h-3.968V113.612h1.035a8.715,8.715,0,0,1,2.933.5" fill="#de903e"/>
          <path id="Trazado_156951" data-name="Trazado 156951" d="M198.316,130.663v23.388h-3.97V115.793a10.519,10.519,0,0,1,3.625,7.513Z" fill="#de903e"/>
          <g id="Grupo_143938" data-name="Grupo 143938" style="mix-blend-mode: multiply;isolation: isolate">
            <g id="Grupo_143937" data-name="Grupo 143937">
              <g id="Grupo_143936" data-name="Grupo 143936" clip-path="url(#clip-path-5)">
                <path id="Trazado_156952" data-name="Trazado 156952" d="M152.442,109.849l-1.886,2.96H144.6l-2.476,3.792v1.793h2.265v27.7h15.627l2.82-2.276-2.133-21.5,1.421-4.167,2.055-2.691-3.624-.1-6.243-1.749Z" fill="#e2babe"/>
              </g>
            </g>
          </g>
          <rect id="Rectángulo_37866" data-name="Rectángulo 37866" width="16.411" height="26.071" transform="translate(146.106 115.458)" fill="#f5a44f"/>
          <rect id="Rectángulo_37867" data-name="Rectángulo 37867" width="13.918" height="23.786" transform="translate(147.352 116.6)" fill="#3b3944"/>
          <rect id="Rectángulo_37868" data-name="Rectángulo 37868" width="12.255" height="21.551" transform="translate(147.352 118.835)" fill="#5f5e67"/>
          <rect id="Rectángulo_37869" data-name="Rectángulo 37869" width="13.918" height="1.35" transform="translate(147.327 129.169)" fill="#3b3944"/>
          <rect id="Rectángulo_37870" data-name="Rectángulo 37870" width="0.857" height="23.786" transform="translate(153.026 116.6)" fill="#3b3944"/>
          <rect id="Rectángulo_37871" data-name="Rectángulo 37871" width="13.918" height="1.35" transform="translate(147.352 127.819)" fill="#f5a44f"/>
          <rect id="Rectángulo_37872" data-name="Rectángulo 37872" width="0.857" height="23.786" transform="translate(153.883 116.6)" fill="#f5a44f"/>
          <g id="Grupo_143941" data-name="Grupo 143941" style="mix-blend-mode: multiply;isolation: isolate">
            <g id="Grupo_143940" data-name="Grupo 143940">
              <g id="Grupo_143939" data-name="Grupo 143939" clip-path="url(#clip-path-6)">
                <path id="Trazado_156953" data-name="Trazado 156953" d="M217.957,109.849l-1.886,2.96h-5.956l-2.476,3.792v1.793H209.9v27.7h15.627l2.82-2.276-2.133-21.5,1.421-4.167,2.055-2.691-3.624-.1-6.243-1.749Z" fill="#e2babe"/>
              </g>
            </g>
          </g>
          <rect id="Rectángulo_37874" data-name="Rectángulo 37874" width="16.411" height="26.071" transform="translate(211.699 115.458)" fill="#f5a44f"/>
          <rect id="Rectángulo_37875" data-name="Rectángulo 37875" width="13.918" height="23.786" transform="translate(212.945 116.6)" fill="#3b3944"/>
          <rect id="Rectángulo_37876" data-name="Rectángulo 37876" width="12.255" height="21.551" transform="translate(212.945 118.835)" fill="#5f5e67"/>
          <rect id="Rectángulo_37877" data-name="Rectángulo 37877" width="13.918" height="1.35" transform="translate(212.945 129.169)" fill="#3b3944"/>
          <rect id="Rectángulo_37878" data-name="Rectángulo 37878" width="0.857" height="23.786" transform="translate(218.644 116.6)" fill="#3b3944"/>
          <rect id="Rectángulo_37879" data-name="Rectángulo 37879" width="13.918" height="1.35" transform="translate(212.945 127.819)" fill="#f5a44f"/>
          <rect id="Rectángulo_37880" data-name="Rectángulo 37880" width="0.857" height="23.786" transform="translate(219.476 116.6)" fill="#f5a44f"/>
          <rect id="Rectángulo_37881" data-name="Rectángulo 37881" width="19.579" height="2.649" transform="translate(144.6 112.809)" fill="#edddcb"/>
          <rect id="Rectángulo_37882" data-name="Rectángulo 37882" width="16.892" height="2.285" transform="translate(145.943 141.529)" fill="#edddcb"/>
          <rect id="Rectángulo_37883" data-name="Rectángulo 37883" width="16.892" height="2.285" transform="translate(211.459 141.529)" fill="#edddcb"/>
          <path id="Trazado_156954" data-name="Trazado 156954" d="M155.662,114.783h-2.7l-.519-4.934h3.739Z" fill="#fbf7f3"/>
          <rect id="Rectángulo_37884" data-name="Rectángulo 37884" width="19.579" height="2.649" transform="translate(210.115 112.809)" fill="#edddcb"/>
          <path id="Trazado_156955" data-name="Trazado 156955" d="M221.177,114.783h-2.7l-.519-4.934H221.7Z" fill="#fbf7f3"/>
          <path id="Trazado_156956" data-name="Trazado 156956" d="M247.274,107.85l-2.285,20.644-.623,28.773,9.036.778-2.8-29.551,6.8-8.466-6.514,4.727Z" fill="#845600"/>
          <g id="Grupo_143944" data-name="Grupo 143944" style="mix-blend-mode: multiply;isolation: isolate">
            <g id="Grupo_143943" data-name="Grupo 143943">
              <g id="Grupo_143942" data-name="Grupo 143942" clip-path="url(#clip-path-7)">
                <path id="Trazado_156957" data-name="Trazado 156957" d="M156.181,63.627l10.8-5.869-16.307,5.819-1.662,18.828Z" fill="#e4bfc3"/>
              </g>
            </g>
          </g>
          <path id="Trazado_156958" data-name="Trazado 156958" d="M150.676,83.155l2.077,2.493h28.368l2.17-2.493Z" fill="#51c5bd"/>
          <path id="Trazado_156959" data-name="Trazado 156959" d="M179.355,178.374h-7.1V157.016l3.547-3.381,3.548,3.381Z" fill="#ede6bc"/>
          <path id="Trazado_156960" data-name="Trazado 156960" d="M191.024,178.374h-7.1V157.016l3.548-3.381,3.547,3.381Z" fill="#ede6bc"/>
          <path id="Trazado_156961" data-name="Trazado 156961" d="M202.693,178.374h-7.1V157.016l3.547-3.381,3.548,3.381Z" fill="#ede6bc"/>
          <path id="Trazado_156962" data-name="Trazado 156962" d="M214.363,178.374h-7.1V157.016l3.547-3.381,3.548,3.381Z" fill="#ede6bc"/>
          <path id="Trazado_156963" data-name="Trazado 156963" d="M226.032,178.374h-7.1V157.016l3.548-3.381,3.547,3.381Z" fill="#ede6bc"/>
          <path id="Trazado_156964" data-name="Trazado 156964" d="M237.7,178.374h-7.1V157.016l3.547-3.381,3.548,3.381Z" fill="#ede6bc"/>
          <path id="Trazado_156965" data-name="Trazado 156965" d="M249.371,178.374h-7.1V157.016l3.547-3.381,3.548,3.381Z" fill="#ede6bc"/>
          <path id="Trazado_156966" data-name="Trazado 156966" d="M261.04,178.374h-7.1V157.016l3.548-3.381,3.547,3.381Z" fill="#ede6bc"/>
          <path id="Trazado_156967" data-name="Trazado 156967" d="M272.71,178.374h-7.1V157.016l3.547-3.381,3.548,3.381Z" fill="#ede6bc"/>
          <g id="Grupo_143947" data-name="Grupo 143947" style="mix-blend-mode: multiply;isolation: isolate">
            <g id="Grupo_143946" data-name="Grupo 143946">
              <g id="Grupo_143945" data-name="Grupo 143945" clip-path="url(#clip-path-8)">
                <path id="Trazado_156968" data-name="Trazado 156968" d="M190.581,52l-1.957,11.625,15.648,11.534V52Z" fill="#e4bfc3"/>
              </g>
            </g>
          </g>
          <rect id="Rectángulo_37887" data-name="Rectángulo 37887" width="26.653" height="2.387" transform="translate(43.158 56.449)" fill="#dbe0db"/>
          <rect id="Rectángulo_37888" data-name="Rectángulo 37888" width="8.693" height="2.387" transform="translate(43.158 56.449)" fill="#8c9c8c"/>
          <rect id="Rectángulo_37889" data-name="Rectángulo 37889" width="26.653" height="2.387" transform="translate(43.158 68.043)" fill="#dbe0db"/>
          <rect id="Rectángulo_37890" data-name="Rectángulo 37890" width="8.693" height="2.387" transform="translate(43.158 68.043)" fill="#8c9c8c"/>
          <rect id="Rectángulo_37891" data-name="Rectángulo 37891" width="8.725" height="3.023" transform="translate(88.237 69.237)" fill="#cc9f6c"/>
          <rect id="Rectángulo_37892" data-name="Rectángulo 37892" width="27.837" height="3.023" transform="translate(96.962 69.237)" fill="#dfc2a2"/>
          <path id="Trazado_156969" data-name="Trazado 156969" d="M180.949,136.275v-4.839a5.657,5.657,0,1,1,11.314,0v4.839Z" fill="#f7efe7"/>
          <path id="Trazado_156970" data-name="Trazado 156970" d="M186.606,126.476a4.96,4.96,0,0,0-4.96,4.96v4.142h9.92v-4.142a4.96,4.96,0,0,0-4.96-4.96" fill="#3b3944"/>
          <path id="Trazado_156971" data-name="Trazado 156971" d="M186.606,126.476a4.94,4.94,0,0,0-4.222,2.388,4.945,4.945,0,0,1,8.6,3.345v3.369h.581v-4.141a4.961,4.961,0,0,0-4.96-4.961" fill="#211f2c"/>
          <path id="Trazado_156972" data-name="Trazado 156972" d="M176.512,119.5a9.446,9.446,0,0,1,2.949-2.416,8.593,8.593,0,0,1,3.953-1.05,1.162,1.162,0,0,1,.235-.016h3.734a8.72,8.72,0,0,1,2.933.5,9.4,9.4,0,0,1,2.933,1.678,10.526,10.526,0,0,1,3.624,7.514l.345,7.356.985,20.979h1.211l-1.1-23.388-.346-7.357a10.521,10.521,0,0,0-3.623-7.514,9.42,9.42,0,0,0-2.933-1.678,8.746,8.746,0,0,0-2.934-.5h-3.733a1.162,1.162,0,0,0-.235.016,8.593,8.593,0,0,0-3.953,1.05,9.445,9.445,0,0,0-2.949,2.416,10.556,10.556,0,0,0-1.822,3.464,10.278,10.278,0,0,1,.724-1.054" fill="#b06323"/>
          <rect id="Rectángulo_37893" data-name="Rectángulo 37893" width="115.551" height="79.287" transform="translate(23.095 96.54) rotate(-1.733)" fill="#fc5954"/>
          <path id="Trazado_156986" data-name="Trazado 156986" d="M92.819,170.825c.107,3.523-4.134,6.51-9.472,6.671s-9.751-2.563-9.858-6.086,4.135-6.51,9.472-6.671,9.751,2.563,9.858,6.086" fill="#fc5954"/>
          <path id="Trazado_156987" data-name="Trazado 156987" d="M89.339,93.891a8.517,8.517,0,0,0-8.256,8.771l2.081,68.775c.322-2.912,3.625-5.637,8.344-5.845l44.763-1.354-2.17-71.7Z" fill="#f0e1d3"/>
          <rect id="Rectángulo_37894" data-name="Rectángulo 37894" width="109.452" height="75.419" transform="matrix(1, -0.03, 0.03, 1, 26.158, 96.319)" fill="#dc1428"/>
          <path id="Trazado_156988" data-name="Trazado 156988" d="M89.41,96.232A8.517,8.517,0,0,0,81.154,105l2.01,66.434c.322-2.912,6.113-3.369,8.415-3.5l44.763-1.354-2.17-71.7Z" fill="#d8c5b6"/>
          <path id="Trazado_156989" data-name="Trazado 156989" d="M89.339,93.891a8.517,8.517,0,0,0-8.256,8.771l2.081,68.775c.322-2.912,3.625-5.637,8.344-5.845l44.763-1.354-2.17-71.7Z" fill="#f0e1d3"/>
          <path id="Trazado_156990" data-name="Trazado 156990" d="M89.25,90.965a8.517,8.517,0,0,0-8.256,8.771l2.169,71.7a8.519,8.519,0,0,1,8.256-8.772l44.763-1.354-2.17-71.7Z" fill="#f4ede9"/>
          <path id="Trazado_156991" data-name="Trazado 156991" d="M72.373,96.428a8.517,8.517,0,0,1,8.771,8.256l2.01,66.434c-.5-2.887-6.305-2.994-8.612-2.989L29.78,169.484l-2.169-71.7Z" fill="#d8c5b6"/>
          <path id="Trazado_156992" data-name="Trazado 156992" d="M72.3,94.087a8.517,8.517,0,0,1,8.771,8.256l2.081,68.775c-.5-2.887-3.96-5.407-8.683-5.33l-44.762,1.355-2.169-71.7Z" fill="#f0e1d3"/>
          <path id="Trazado_156993" data-name="Trazado 156993" d="M72.214,91.16a8.517,8.517,0,0,1,8.771,8.256l2.169,71.7a8.518,8.518,0,0,0-8.771-8.256l-44.762,1.355-2.169-71.7Z" fill="#fff"/>
          <line id="Línea_152" data-name="Línea 152" y1="1.17" x2="38.681" transform="translate(88.909 98.28)" fill="none" stroke="#f0e1d3" stroke-miterlimit="10" stroke-width="1.757"/>
          <line id="Línea_153" data-name="Línea 153" y1="1.17" x2="38.681" transform="translate(89.061 103.306)" fill="none" stroke="#f0e1d3" stroke-miterlimit="10" stroke-width="1.757"/>
          <line id="Línea_154" data-name="Línea 154" y1="1.17" x2="38.681" transform="translate(89.213 108.332)" fill="none" stroke="#f0e1d3" stroke-miterlimit="10" stroke-width="1.757"/>
          <line id="Línea_155" data-name="Línea 155" y1="1.17" x2="38.681" transform="translate(89.365 113.358)" fill="none" stroke="#f0e1d3" stroke-miterlimit="10" stroke-width="1.757"/>
          <line id="Línea_156" data-name="Línea 156" y1="1.17" x2="38.681" transform="translate(89.517 118.383)" fill="none" stroke="#f0e1d3" stroke-miterlimit="10" stroke-width="1.757"/>
          <line id="Línea_157" data-name="Línea 157" y1="1.17" x2="38.681" transform="translate(89.669 123.409)" fill="none" stroke="#f0e1d3" stroke-miterlimit="10" stroke-width="1.757"/>
          <line id="Línea_158" data-name="Línea 158" y1="1.17" x2="38.681" transform="translate(89.821 128.435)" fill="none" stroke="#f0e1d3" stroke-miterlimit="10" stroke-width="1.757"/>
          <line id="Línea_159" data-name="Línea 159" y1="1.17" x2="38.681" transform="translate(89.973 133.46)" fill="none" stroke="#f0e1d3" stroke-miterlimit="10" stroke-width="1.757"/>
          <line id="Línea_160" data-name="Línea 160" y1="1.17" x2="38.681" transform="translate(90.125 138.486)" fill="none" stroke="#f0e1d3" stroke-miterlimit="10" stroke-width="1.757"/>
          <line id="Línea_161" data-name="Línea 161" y1="1.17" x2="38.681" transform="translate(90.277 143.512)" fill="none" stroke="#f0e1d3" stroke-miterlimit="10" stroke-width="1.757"/>
          <line id="Línea_162" data-name="Línea 162" y1="1.17" x2="38.681" transform="translate(90.429 148.537)" fill="none" stroke="#f0e1d3" stroke-miterlimit="10" stroke-width="1.757"/>
          <line id="Línea_163" data-name="Línea 163" y1="1.17" x2="38.681" transform="translate(90.581 153.563)" fill="none" stroke="#f0e1d3" stroke-miterlimit="10" stroke-width="1.757"/>
          <line id="Línea_164" data-name="Línea 164" y1="1.17" x2="38.681" transform="translate(35.015 99.911)" fill="none" stroke="#f0e1d3" stroke-miterlimit="10" stroke-width="1.757"/>
          <line id="Línea_165" data-name="Línea 165" y1="1.17" x2="38.681" transform="translate(35.167 104.937)" fill="none" stroke="#f0e1d3" stroke-miterlimit="10" stroke-width="1.757"/>
          <line id="Línea_166" data-name="Línea 166" y1="1.17" x2="38.681" transform="translate(35.319 109.962)" fill="none" stroke="#f0e1d3" stroke-miterlimit="10" stroke-width="1.757"/>
          <line id="Línea_167" data-name="Línea 167" y1="1.17" x2="38.681" transform="translate(35.471 114.988)" fill="none" stroke="#f0e1d3" stroke-miterlimit="10" stroke-width="1.757"/>
          <line id="Línea_168" data-name="Línea 168" y1="1.17" x2="38.681" transform="translate(35.623 120.014)" fill="none" stroke="#f0e1d3" stroke-miterlimit="10" stroke-width="1.757"/>
          <line id="Línea_169" data-name="Línea 169" y1="0.387" x2="12.787" transform="translate(35.775 125.822)" fill="none" stroke="#f0e1d3" stroke-miterlimit="10" stroke-width="1.757"/>
          <line id="Línea_170" data-name="Línea 170" y1="0.387" x2="12.787" transform="translate(35.927 130.848)" fill="none" stroke="#f0e1d3" stroke-miterlimit="10" stroke-width="1.757"/>
          <line id="Línea_171" data-name="Línea 171" y1="0.387" x2="12.787" transform="translate(36.079 135.874)" fill="none" stroke="#f0e1d3" stroke-miterlimit="10" stroke-width="1.757"/>
          <line id="Línea_172" data-name="Línea 172" y1="0.387" x2="12.787" transform="translate(36.231 140.899)" fill="none" stroke="#f0e1d3" stroke-miterlimit="10" stroke-width="1.757"/>
          <line id="Línea_173" data-name="Línea 173" y1="0.387" x2="12.787" transform="translate(36.383 145.925)" fill="none" stroke="#f0e1d3" stroke-miterlimit="10" stroke-width="1.757"/>
          <line id="Línea_174" data-name="Línea 174" y1="0.387" x2="12.787" transform="translate(36.535 150.951)" fill="none" stroke="#f0e1d3" stroke-miterlimit="10" stroke-width="1.757"/>
          <line id="Línea_175" data-name="Línea 175" y1="0.387" x2="12.787" transform="translate(36.687 155.976)" fill="none" stroke="#f0e1d3" stroke-miterlimit="10" stroke-width="1.757"/>
          <path id="Trazado_156994" data-name="Trazado 156994" d="M103.6,145.861l-4.874-3.37-4.662,3.658L92.39,90.869l9.536-.288Z" fill="#fac855"/>
          <rect id="Rectángulo_37895" data-name="Rectángulo 37895" width="22.167" height="31.943" transform="matrix(1, -0.03, 0.03, 1, 52.273, 124.837)" fill="#f0e1d3"/>
        </g>
      </g>
    </g>
  </g>
</svg>
