<svg xmlns="http://www.w3.org/2000/svg" width="184.638" height="184.668" viewBox="0 0 184.638 184.668">
  <g id="Grupo_167517" data-name="Grupo 167517" transform="translate(-6.126 -3.733)">
    <g id="Grupo_167518" data-name="Grupo 167518" transform="translate(6.126 3.734)">
      <path id="Trazado_258207" data-name="Trazado 258207" d="M131.678,142.521l-6.264-6.308c-4.416,2.595-8.674,5.456-13.229,7.716-42.36,21.014-94.217-3.975-104.3-50.182A73.816,73.816,0,0,1,53.568,8.608C85.061-3.645,121.849,7.839,140.786,35.9a3.518,3.518,0,0,0,3.379,1.787c12.211-.07,24.423-.054,36.634-.031,5.625.011,9.728,3.727,9.9,8.874a9.213,9.213,0,0,1-9.393,9.563c-9.708.04-19.416.012-29.124.012H150.8l2.587,12.273h1.949c8.487,0,16.974-.02,25.461.008,4.745.016,8.291,2.5,9.51,6.553a9.221,9.221,0,0,1-9,11.909c-8.67.058-17.34.015-26.01.015h-1.913l-2.594,12.253h2.01c9.342,0,18.684-.022,28.025.008,5.508.018,9.611,3.7,9.866,8.752.274,5.417-3.919,9.717-9.6,9.731q-18.592.046-37.184-.028a3.072,3.072,0,0,0-3.071,1.663c-.7,1.206-1.609,2.293-2.314,3.277l6.6,6.61c3.64-2.335,6.051-2.085,9.312,1.175,10.624,10.619,21.3,21.182,31.843,31.882a15.31,15.31,0,0,1-7,25.637,14.44,14.44,0,0,1-14.531-3.789c-11-10.84-21.9-21.793-32.8-32.739-2.542-2.553-2.557-5.343-.282-8.772m19.494-2.113,2.228-2.071-4.226-4.481-2.406,2.521-10.108,10.456,3.762,3.833,10.749-10.257m26.634-65.754c-.544-.048-1.088-.137-1.631-.138q-10.437-.014-20.873,0c-.47,0-.94.067-1.473.108v5.961h24.016c1.146.028,2.294.11,3.437.072a3,3,0,0,0,3.209-2.784,3.079,3.079,0,0,0-2.9-3.307,29.809,29.809,0,0,0-3.782.088m.014,30.74c-9.522-.042-19.043-.091-28.565-.095a1.474,1.474,0,0,0-1.09.679c-.861,1.729-1.624,3.506-2.514,5.469,1.71,0,3.217,0,4.723,0l27.471-.093c1.206.026,2.418.133,3.618.059a2.962,2.962,0,0,0,3.028-3.149,3.112,3.112,0,0,0-3.06-2.976c-1.2-.059-2.407.065-3.611.107m-.027-61.474a13.021,13.021,0,0,0-1.443-.158q-14.83-.013-29.659,0c-.281,0-.562.045-1.017.084.871,1.913,1.636,3.689,2.5,5.414a1.471,1.471,0,0,0,1.115.623c9.518,0,19.037-.032,28.555-.062,1.21.027,2.423.106,3.631.068a2.994,2.994,0,0,0,.623-5.93,27.242,27.242,0,0,0-4.308-.037M163.975,153.944l-10.184,10.386c5.1,5.127,10.16,10.3,15.324,15.364a7.728,7.728,0,0,0,5.786,2.267,8.8,8.8,0,0,0,8.668-4.9,9.025,9.025,0,0,0-1.506-10.364c-4.34-4.463-8.8-8.815-13.167-13.248a23.534,23.534,0,0,1-1.877-2.465l-3.044,2.958M102.016,141.41a15.576,15.576,0,0,0,1.741-.45A66.536,66.536,0,0,0,131.2,121.755c13.145-15.466,18.493-33.416,15.744-53.418-2.852-20.753-13.51-36.874-31.233-48.079-4.018-2.54-8.623-4.152-12.958-6.192a5.417,5.417,0,0,0-.651-.325,65.629,65.629,0,0,0-46.186.686A67.238,67.238,0,0,0,12.608,82.675,65.177,65.177,0,0,0,28.3,121.116c12.245,14.407,27.916,22.4,46.743,23.929a59.948,59.948,0,0,0,26.971-3.635M149.1,159.615l12.569-12.623-3.573-4.079L145.3,155.64l3.794,3.975m-18.848-27.992,6.147,6.083,3.756-3.689-5.974-5.907-3.929,3.513" transform="translate(-6.126 -3.734)" fill="#030303"/>
      <path id="Trazado_258208" data-name="Trazado 258208" d="M108.591,147.823a59.942,59.942,0,0,1-26.971,3.635c-18.828-1.529-34.5-9.522-46.743-23.929A65.171,65.171,0,0,1,19.182,89.088,67.238,67.238,0,0,1,62.49,20.842a65.628,65.628,0,0,1,46.186-.687,5.463,5.463,0,0,1,.651.325,6.828,6.828,0,0,0,1.165,1.025,72.221,72.221,0,0,1,18.678,14.411,70.533,70.533,0,0,1,13.187,20.227,65.34,65.34,0,0,1,2.163,6.9,3.286,3.286,0,0,1-.374-.58A61.545,61.545,0,0,0,74.132,23.767C41.2,30.331,19.271,63.651,26.319,96.426c6.908,32.127,37,53.4,69.191,48.4,21.662-3.363,37.281-15.352,46.921-35.075a15.128,15.128,0,0,1,.945-1.484,7.975,7.975,0,0,1-.349,1.928c-1.15,2.548-2.277,5.114-3.6,7.574a69.5,69.5,0,0,1-25.49,26.753c-1.787,1.093-3.565,2.2-5.347,3.3" transform="translate(-12.7 -10.147)" fill="#9b9b9b"/>
      <path id="Trazado_258209" data-name="Trazado 258209" d="M237.971,67.405a65.386,65.386,0,0,0-2.163-6.9,70.542,70.542,0,0,0-13.187-20.227,72.227,72.227,0,0,0-18.678-14.41,6.81,6.81,0,0,1-1.165-1.025c4.335,2.04,8.94,3.651,12.958,6.192,17.723,11.205,28.38,27.326,31.232,48.079,2.749,20-2.6,37.951-15.744,53.418a66.543,66.543,0,0,1-27.442,19.205,15.579,15.579,0,0,1-1.741.45c1.782-1.1,3.56-2.208,5.347-3.3a69.5,69.5,0,0,0,25.49-26.753c1.321-2.459,2.449-5.026,3.6-7.574a7.952,7.952,0,0,0,.349-1.928l.014.053,2.217-6.418a15.543,15.543,0,0,1,.286-1.765,60.711,60.711,0,0,0,2.179-16.574,70.868,70.868,0,0,0-3.55-20.524" transform="translate(-106.15 -14.513)" fill="#6e6e6e"/>
      <path id="Trazado_258210" data-name="Trazado 258210" d="M328.933,338.646a7.729,7.729,0,0,1-5.786-2.266c-5.163-5.068-10.226-10.238-15.324-15.364l10.184-10.385a10.548,10.548,0,0,1,1.61,1.1q4.566,4.5,9.074,9.057a12.4,12.4,0,0,1,2.711,13.829,32.708,32.708,0,0,1-2.469,4.033" transform="translate(-160.157 -160.419)" fill="#b55a72"/>
      <path id="Trazado_258211" data-name="Trazado 258211" d="M323.41,91.568c-9.518.029-19.037.067-28.555.062a1.471,1.471,0,0,1-1.115-.623c-.867-1.725-1.633-3.5-2.5-5.414.455-.039.736-.084,1.017-.084q14.83-.006,29.659,0a13.138,13.138,0,0,1,1.443.157q.027,2.949.054,5.9" transform="translate(-151.689 -45.482)" fill="#7e8d93"/>
      <path id="Trazado_258212" data-name="Trazado 258212" d="M323.386,217.3q-13.736.047-27.471.093c-1.506,0-3.013,0-4.723,0,.889-1.963,1.652-3.74,2.514-5.469a1.472,1.472,0,0,1,1.09-.679c9.522,0,19.043.053,28.565.094q.012,2.98.025,5.96" transform="translate(-151.666 -109.678)" fill="#7e8d93"/>
      <path id="Trazado_258213" data-name="Trazado 258213" d="M339.555,335.56a32.711,32.711,0,0,0,2.469-4.033,12.4,12.4,0,0,0-2.711-13.829q-4.522-4.544-9.074-9.057a10.55,10.55,0,0,0-1.61-1.1l3.045-2.958a23.45,23.45,0,0,0,1.877,2.464c4.371,4.434,8.827,8.785,13.167,13.248a9.025,9.025,0,0,1,1.507,10.364,8.8,8.8,0,0,1-8.668,4.9" transform="translate(-170.78 -157.334)" fill="#a3314f"/>
      <path id="Trazado_258214" data-name="Trazado 258214" d="M331.914,154.412H307.9V148.45c.533-.041,1-.107,1.473-.108q10.436-.01,20.873,0c.544,0,1.088.09,1.632.137q.02,2.965.039,5.931" transform="translate(-160.195 -77.561)" fill="#7e8d93"/>
      <path id="Trazado_258215" data-name="Trazado 258215" d="M294.27,304.8l-3.794-3.975,12.789-12.727,3.574,4.079L294.27,304.8" transform="translate(-151.301 -148.914)" fill="#a3314f"/>
      <path id="Trazado_258216" data-name="Trazado 258216" d="M287.334,278.769l-10.75,10.257-3.761-3.833,10.108-10.456,4.4,4.032" transform="translate(-142.288 -142.094)" fill="#b55a72"/>
      <path id="Trazado_258217" data-name="Trazado 258217" d="M259.719,261.363l3.929-3.513,5.974,5.907-3.756,3.689-6.147-6.083" transform="translate(-135.598 -133.473)" fill="#7a898e"/>
      <path id="Trazado_258218" data-name="Trazado 258218" d="M356.941,217.27q-.012-2.98-.025-5.96c1.2-.042,2.412-.165,3.611-.106a3.111,3.111,0,0,1,3.06,2.976,2.963,2.963,0,0,1-3.028,3.149c-1.2.073-2.411-.034-3.618-.06" transform="translate(-185.222 -109.65)" fill="#575f63"/>
      <path id="Trazado_258219" data-name="Trazado 258219" d="M356.914,91.661q-.027-2.95-.054-5.9a27.3,27.3,0,0,1,4.308.038,2.994,2.994,0,0,1-.623,5.93c-1.208.038-2.421-.041-3.631-.068" transform="translate(-185.193 -45.575)" fill="#535b5f"/>
      <path id="Trazado_258220" data-name="Trazado 258220" d="M356.926,154.426q-.019-2.966-.039-5.931a29.9,29.9,0,0,1,3.781-.088,3.079,3.079,0,0,1,2.9,3.307,3,3,0,0,1-3.209,2.784c-1.144.038-2.292-.044-3.437-.072" transform="translate(-185.207 -77.575)" fill="#545d61"/>
      <path id="Trazado_258221" data-name="Trazado 258221" d="M297.878,276.14l-4.4-4.032,2.405-2.521,4.226,4.482-2.228,2.071" transform="translate(-152.831 -139.465)" fill="#a3314f"/>
      <path id="Trazado_258222" data-name="Trazado 258222" d="M150.776,69.547a70.869,70.869,0,0,1,3.55,20.523,60.693,60.693,0,0,1-2.179,16.575,15.508,15.508,0,0,0-.286,1.765l-2.217,6.418-.014-.053a15.238,15.238,0,0,0-.945,1.484c-9.639,19.724-25.259,31.712-46.921,35.075-32.191,5-62.283-16.274-69.191-48.4C25.527,70.158,47.452,36.839,80.387,30.274A61.546,61.546,0,0,1,150.4,68.967a3.311,3.311,0,0,0,.374.58M95.441,130.425a17.95,17.95,0,0,0,2.7-.217,9.213,9.213,0,0,0,6.817-10.758,9.246,9.246,0,0,0-18.271,1.658,9.149,9.149,0,0,0,8.757,9.318M122.922,81.47a8.876,8.876,0,0,0-8.507,8.607c-.215,5.12,3.259,9.038,8.506,9.59a18.7,18.7,0,0,0,3.06-.253A9.23,9.23,0,0,0,132.7,89.07a8.986,8.986,0,0,0-9.777-7.6M95.092,50.724A9,9,0,0,0,86.685,59.6a9.2,9.2,0,1,0,18.4-.179,8.958,8.958,0,0,0-9.992-8.695m15.721-12.365a52.3,52.3,0,0,0-27.544-2.322C58.514,40.189,39.015,61.357,37.7,86.3c-1.249,23.628,8.592,41.7,29.393,53.122,13.617,7.476,28.154,8.518,42.991,3.533A49.989,49.989,0,0,0,130.4,130.977c.055-.051.007-.212.007-.376h-4.536c-5.614-.021-11.228-.072-16.842-.018a2.894,2.894,0,0,0-1.769.988,15.27,15.27,0,0,1-22.73.021,3.575,3.575,0,0,0-2.3-1.008c-4.454-.095-8.915.075-13.363-.105a12.739,12.739,0,0,1-5.225-1.31,8.967,8.967,0,0,1-4.36-10.162,9.271,9.271,0,0,1,9.207-6.96c4.577-.068,9.156.032,13.732-.062a3.545,3.545,0,0,0,2.3-1,15.214,15.214,0,0,1,22.574-.095,3.228,3.228,0,0,0,2.665,1.164c7.141-.044,14.283-.01,21.424-.029,2.375-.006,4.751-.092,7.126-.141,1.51.043,3.02.126,4.529.1.409-.008,1.081-.268,1.177-.561,1.226-3.752,2.369-7.531,3.614-11.564h-6.384c-.853-.024-1.714.022-2.556-.086a5.077,5.077,0,0,0-4.595,1.81,14.977,14.977,0,0,1-21.715-.678,3.16,3.16,0,0,0-2.664-1.136c-5.735.04-11.471.019-17.207.019-12.082,0-24.163.029-36.244-.013a9.281,9.281,0,0,1-9.1-12.129c1.326-4.022,4.812-6.345,9.663-6.349,17.573-.014,35.146.009,52.719-.049a4.042,4.042,0,0,0,2.668-1.019,15.266,15.266,0,0,1,22.85.15,2.749,2.749,0,0,0,1.648.868c1.514.091,3.04-.026,4.562-.061H147.4c-.641-2.582-1.039-4.989-1.839-7.255-2.165-6.125-.385-4.849-7.269-4.79a1.859,1.859,0,0,0-.358-.072c-9.64-.015-19.28-.042-28.921,0a2.6,2.6,0,0,0-1.63.872A15.259,15.259,0,0,1,84.54,70.1a3.574,3.574,0,0,0-2.289-1.027c-4.513-.1-9.031.02-13.544-.087a11.875,11.875,0,0,1-4.25-.855,9.16,9.16,0,0,1,4-17.533c4.575-.054,9.153.018,13.728-.047a3.028,3.028,0,0,0,2.075-.741,15.328,15.328,0,0,1,23.213-.112,2.537,2.537,0,0,0,1.673.817c5.55.046,11.1.008,16.652-.006h4.732a28.4,28.4,0,0,0-4.783-4.4,46.9,46.9,0,0,0-14.931-7.748m-2.526,49.069H65.426c-3.052,0-6.1-.03-9.155.013a3.094,3.094,0,0,0-3.321,2.536c-.345,2.111,1.069,3.614,3.489,3.615q25.269.017,50.538,0a11.216,11.216,0,0,0,1.31-.145Zm32.474,30.862H111.215v5.864c.132.069.237.172.343.172,8.05.021,16.1.042,24.152.021a1.721,1.721,0,0,0,1.222-.573c1.257-1.7,2.431-3.461,3.828-5.484m-.085-55.562c-1.125-1.691-2.159-3.169-3.11-4.7a2.786,2.786,0,0,0-2.71-1.389c-7.311.061-14.623.027-21.935.036-.573,0-1.146.07-1.723.108v5.944ZM80.634,56.669H77.427c-3.049,0-6.1-.055-9.147.035a3.105,3.105,0,0,0-3.136,2.973A3.019,3.019,0,0,0,67.9,62.787c4.254.087,8.511.03,12.729.03Zm0,61.516H76.08c-2.564,0-5.128-.048-7.69.02a3.125,3.125,0,0,0-3.231,2.876,2.925,2.925,0,0,0,2.473,3.164c4.361.139,8.729.049,13,.049Zm58.228-24.673h9.252c0-1.8.035-3.539-.036-5.276a1.111,1.111,0,0,0-.772-.762c-2.833-.056-5.667-.035-8.444-.035Z" transform="translate(-18.955 -16.654)" fill="#010203"/>
      <path id="Trazado_258223" data-name="Trazado 258223" d="M273.138,197.617l2.217-6.418-2.217,6.418" transform="translate(-142.449 -99.444)" fill="#858585"/>
      <path id="Trazado_258224" data-name="Trazado 258224" d="M132.4,56.919c-5.55.014-11.1.052-16.652.006a2.538,2.538,0,0,1-1.674-.817,15.328,15.328,0,0,0-23.213.112,3.021,3.021,0,0,1-2.075.741c-4.575.066-9.153-.006-13.728.047a9.161,9.161,0,0,0-4,17.534,11.885,11.885,0,0,0,4.25.854c4.513.106,9.03-.01,13.544.086a3.577,3.577,0,0,1,2.289,1.027A15.258,15.258,0,0,0,114,76.345a2.6,2.6,0,0,1,1.63-.871c9.64-.041,19.28-.014,28.921,0a1.788,1.788,0,0,1,.358.072c.166.759.312,1.523.5,2.276q1.229,4.887,2.478,9.768c-1.522.035-3.048.153-4.563.061a2.745,2.745,0,0,1-1.647-.868,15.266,15.266,0,0,0-22.85-.15,4.04,4.04,0,0,1-2.668,1.019c-17.573.059-35.146.036-52.719.05-4.851,0-8.336,2.326-9.663,6.348a9.281,9.281,0,0,0,9.1,12.13c12.082.042,24.163.012,36.244.013,5.735,0,11.471.021,17.207-.019a3.161,3.161,0,0,1,2.664,1.136,14.977,14.977,0,0,0,21.715.679,5.077,5.077,0,0,1,4.595-1.81c.842.108,1.7.062,2.555.086q-1.029,4.277-2.061,8.554c-.281,1.16-.582,2.317-.874,3.475-2.375.049-4.751.135-7.126.141-7.142.019-14.283-.015-21.424.029a3.227,3.227,0,0,1-2.665-1.164,15.214,15.214,0,0,0-22.574.1,3.552,3.552,0,0,1-2.3,1c-4.576.093-9.156-.006-13.732.062a9.27,9.27,0,0,0-9.207,6.96,8.968,8.968,0,0,0,4.36,10.163,12.738,12.738,0,0,0,5.225,1.309c4.449.181,8.91.011,13.364.106a3.575,3.575,0,0,1,2.3,1.007,15.27,15.27,0,0,0,22.73-.021,2.893,2.893,0,0,1,1.77-.988c5.614-.055,11.228,0,16.842.017a48.3,48.3,0,0,1-11.736,9.725c-1.364.857-2.7,1.755-4.052,2.634-14.837,4.985-29.373,3.944-42.991-3.533-20.8-11.422-30.642-29.494-29.393-53.122C45.626,67.77,65.125,46.6,89.879,42.449a52.289,52.289,0,0,1,27.544,2.321,12.512,12.512,0,0,0,1.433,1.3c2.127,1.415,4.428,2.607,6.4,4.209,2.518,2.048,4.779,4.412,7.15,6.64" transform="translate(-25.565 -23.067)" fill="#dee4f0"/>
      <path id="Trazado_258225" data-name="Trazado 258225" d="M130.863,148.319v6.018a11.105,11.105,0,0,1-1.31.145q-25.269.012-50.537,0c-2.42,0-3.834-1.5-3.489-3.615a3.094,3.094,0,0,1,3.321-2.536c3.051-.044,6.1-.013,9.155-.013h42.86" transform="translate(-41.532 -77.547)" fill="#7c8b91"/>
      <path id="Trazado_258226" data-name="Trazado 258226" d="M224.169,211.386c-1.4,2.022-2.571,3.783-3.828,5.484a1.721,1.721,0,0,1-1.222.573c-8.05.021-16.1,0-24.152-.021-.106,0-.211-.1-.343-.173v-5.863Z" transform="translate(-102.363 -109.75)" fill="#7d8b91"/>
      <path id="Trazado_258227" data-name="Trazado 258227" d="M224.064,91.516H194.585V85.572c.578-.038,1.15-.108,1.723-.108,7.312-.008,14.624.026,21.936-.035a2.785,2.785,0,0,1,2.71,1.389c.951,1.53,1.985,3.008,3.11,4.7" transform="translate(-102.344 -45.443)" fill="#7c8b90"/>
      <path id="Trazado_258228" data-name="Trazado 258228" d="M153.264,91.549a9.14,9.14,0,0,1-8.759-9.334,9,9,0,0,1,8.406-8.875c3.739,4.033,5,8.621,2.876,13.831a35.8,35.8,0,0,1-2.524,4.377" transform="translate(-76.774 -39.271)" fill="#fdc94a"/>
      <path id="Trazado_258229" data-name="Trazado 258229" d="M209.657,154.356c-5.246-.552-8.721-4.47-8.506-9.59a8.877,8.877,0,0,1,8.507-8.608c.218.288.429.582.655.864,3.035,3.786,3.979,8.008,2.228,12.573a30.2,30.2,0,0,1-2.884,4.76" transform="translate(-105.691 -71.343)" fill="#fdc94a"/>
      <path id="Trazado_258230" data-name="Trazado 258230" d="M153.259,217.2a9.149,9.149,0,0,1-8.757-9.317A9.009,9.009,0,0,1,152.892,199a9.832,9.832,0,0,0,.657.864,12.076,12.076,0,0,1,1.151,15.048c-.512.74-.962,1.523-1.441,2.286" transform="translate(-76.773 -103.426)" fill="#fdc94a"/>
      <path id="Trazado_258231" data-name="Trazado 258231" d="M218.54,154.285a30.2,30.2,0,0,0,2.884-4.76c1.751-4.566.807-8.787-2.228-12.573-.226-.282-.437-.576-.655-.864a8.986,8.986,0,0,1,9.777,7.6,9.229,9.229,0,0,1-6.718,10.345,18.591,18.591,0,0,1-3.06.253" transform="translate(-114.574 -71.273)" fill="#ffb500"/>
      <path id="Trazado_258232" data-name="Trazado 258232" d="M162.013,217.1c.479-.763.929-1.546,1.441-2.286a12.076,12.076,0,0,0-1.151-15.048,9.825,9.825,0,0,1-.657-.864,9.012,9.012,0,0,1,9.88,7.223,9.213,9.213,0,0,1-6.817,10.759,17.945,17.945,0,0,1-2.7.216" transform="translate(-85.526 -103.332)" fill="#ffb500"/>
      <path id="Trazado_258233" data-name="Trazado 258233" d="M162.034,91.484a35.8,35.8,0,0,0,2.524-4.377c2.126-5.21.863-9.8-2.877-13.831a8.958,8.958,0,0,1,9.991,8.7,9.067,9.067,0,0,1-9.638,9.513" transform="translate(-85.544 -39.206)" fill="#ffb500"/>
      <path id="Trazado_258234" data-name="Trazado 258234" d="M115.98,85.472v6.147c-4.218,0-8.475.058-12.729-.03a3.018,3.018,0,0,1-2.76-3.11,3.1,3.1,0,0,1,3.136-2.973c3.047-.09,6.1-.031,9.147-.035h3.206" transform="translate(-54.302 -45.457)" fill="#7b8a90"/>
      <path id="Trazado_258235" data-name="Trazado 258235" d="M115.99,211.154v6.111c-4.271,0-8.64.089-13-.049a2.925,2.925,0,0,1-2.473-3.165,3.124,3.124,0,0,1,3.231-2.877c2.562-.069,5.127-.02,7.69-.021h4.552" transform="translate(-54.313 -109.624)" fill="#7c8b91"/>
      <path id="Trazado_258236" data-name="Trazado 258236" d="M252.929,122.846q-1.241-4.884-2.478-9.768c-.19-.753-.336-1.517-.5-2.277,6.885-.059,5.1-1.335,7.269,4.791.8,2.265,1.2,4.672,1.839,7.254Z" transform="translate(-130.61 -58.321)" fill="#b0c0d2"/>
      <path id="Trazado_258237" data-name="Trazado 258237" d="M249.982,185.746c.292-1.158.593-2.314.874-3.475q1.037-4.275,2.061-8.554H259.3c-1.245,4.034-2.388,7.813-3.614,11.565-.1.293-.767.553-1.177.56-1.509.028-3.019-.056-4.529-.1" transform="translate(-130.626 -90.519)" fill="#b0c0d2"/>
      <path id="Trazado_258238" data-name="Trazado 258238" d="M251.107,154.423v-6.073c2.777,0,5.612-.022,8.444.035a1.111,1.111,0,0,1,.772.762c.071,1.737.036,3.478.036,5.276Z" transform="translate(-131.201 -77.566)" fill="#7b898f"/>
      <path id="Trazado_258239" data-name="Trazado 258239" d="M208.782,60.226c-2.371-2.228-4.632-4.592-7.15-6.64-1.97-1.6-4.271-2.794-6.4-4.209a12.512,12.512,0,0,1-1.433-1.3,46.9,46.9,0,0,1,14.931,7.747,28.4,28.4,0,0,1,4.783,4.4Z" transform="translate(-101.943 -26.373)" fill="#b0c0d2"/>
      <path id="Trazado_258240" data-name="Trazado 258240" d="M192.306,248.9c1.35-.88,2.688-1.778,4.052-2.635a48.315,48.315,0,0,0,11.736-9.725h4.536c0,.165.048.325-.007.377A49.987,49.987,0,0,1,192.306,248.9" transform="translate(-101.18 -122.592)" fill="#b0c0d2"/>
    </g>
  </g>
</svg>
