<svg xmlns="http://www.w3.org/2000/svg" width="295" height="225.693" viewBox="0 0 295 225.693">
  <g id="Grupo_166884" data-name="Grupo 166884" transform="translate(0 -59.988)">
    <g id="Grupo_165342" data-name="Grupo 165342" transform="translate(0 59.988)">
      <path id="Trazado_236710" data-name="Trazado 236710" d="M0,59.988H175V68.51H8.663V80.983a16.243,16.243,0,0,1-.02,2.59c-.779,4.775.871,8.393,4.641,11.441a7.383,7.383,0,0,0,5.057,1.929q129.039-.061,258.078.012a7.966,7.966,0,0,0,5.531-2.185c3.584-2.959,4.863-6.362,4.47-10.974-.42-4.931-.1-9.925-.1-15.066H189.206V59.988H295v34c-2.736,2.684-5.559,5.288-8.149,8.106a5.307,5.307,0,0,0-1.032,3.319c-.069,13.061-.044,26.122-.044,39.183v3.15c-16.694-1.033-28.764-12.093-34.941-32.279-3.485,6.26-6.764,12.152-10.044,18.043l-10.115,18.165-18.741-32.708-18.247,32.8-22.709-40.806-23.48,51.6-23.473-51.6-22.706,40.8L83.059,118.95,64.316,151.681,44.168,115.451c-4.9,18.49-15.853,29.767-34.943,32.574v-18.7c0-8.067.056-16.135-.063-24.2a5.682,5.682,0,0,0-1.4-3.455C5.3,99,2.6,96.534,0,93.989v-34m163.8,45.735H131.2l16.3,35.856,16.3-35.856m-46.816,0H85.662l15.644,28.181,15.679-28.181m61-.064L193.7,133.914l15.659-28.252ZM64.411,133.992c4.519-7.889,8.912-15.47,13.2-23.111.82-1.462-1.393-5.258-3.034-5.27-8.477-.066-16.956-.031-25.92-.031l15.756,28.411m181.938-28.413c-8.586,0-16.619-.007-24.652,0A4.231,4.231,0,0,0,218,112.038q5.671,9.961,11.388,19.9c.351.61.809,1.158,1.307,1.862l15.651-28.218m30.567,31.238V105.8H258.251c1.223,13.4,5.942,24.419,18.665,31.014M36.749,105.775H18.076v31.042c12.768-6.6,17.432-17.667,18.673-31.042" transform="translate(0 -59.988)" fill="#020202"/>
      <path id="Trazado_236711" data-name="Trazado 236711" d="M13.224,376.2c2.928-8.815,6.2-17.514,8.646-26.441,1.652-6.041,5-9.883,10.148-13.3,6.043-4.009,11.871-7.295,19.628-5.286V288.719c15.675.071,29.275,12.43,35.05,32.206l20.223-36.318L129.631,325.4,153.1,273.8l23.481,51.593L199.3,284.6l20.2,36.334c4.876-18.481,15.834-29.688,34.89-32.615v42.179c.535.139.725.251.891.222,7.834-1.361,13.835,2.32,20.009,6.506,4.367,2.96,7.153,6.291,8.635,11.362,2.706,9.262,5.975,18.359,9.074,27.718H227.105v-8.47h53.616a19.2,19.2,0,0,0-.437-2.295c-.831-2.548-2.06-5.018-2.514-7.627-1.424-8.175-5.925-13.826-13.365-17.24a9.5,9.5,0,0,0-3.706-1.135q-107.591-.081-215.181,0a9.47,9.47,0,0,0-3.707,1.13A22.256,22.256,0,0,0,28.43,357.9c-.583,3.232-2.023,6.31-3.192,9.815H83.752V376.2ZM169.451,330.72l-16.36-35.925-16.31,35.925Zm-78.177-.075h31.318l-15.683-28.176L91.274,330.645m123.686.02-15.683-28.2-15.654,28.2Zm-135.873-.02c.53-12.748-9.529-29.163-18.488-30.462v30.462Zm166.7,0c0-9.949,0-19.628,0-29.306,0-.447-.047-.894-.074-1.375-9.863,2.754-18.44,16.92-18.638,30.682Z" transform="translate(-5.605 -150.608)" fill="#040404"/>
      <rect id="Rectángulo_51259" data-name="Rectángulo 51259" width="115.133" height="8.351" transform="translate(92.212 217.321)" fill="#040404"/>
      <rect id="Rectángulo_51260" data-name="Rectángulo 51260" width="110.532" height="8.367" transform="translate(129.125 198.833)" fill="#050505"/>
      <rect id="Rectángulo_51261" data-name="Rectángulo 51261" width="9.078" height="8.294" transform="translate(55.267 198.842)" fill="#090909"/>
      <rect id="Rectángulo_51262" data-name="Rectángulo 51262" width="8.881" height="8.46" transform="translate(73.872 198.762)" fill="#080808"/>
      <rect id="Rectángulo_51263" data-name="Rectángulo 51263" width="8.95" height="8.456" transform="translate(92.261 198.783)" fill="#070707"/>
      <rect id="Rectángulo_51264" data-name="Rectángulo 51264" width="8.966" height="8.339" transform="translate(110.763 198.822)" fill="#060606"/>
      <rect id="Rectángulo_51265" data-name="Rectángulo 51265" width="202.872" height="8.399" transform="translate(18.34 18.594)" fill="#010101"/>
      <rect id="Rectángulo_51266" data-name="Rectángulo 51266" width="8.995" height="8.308" transform="translate(249.125 18.644)" fill="#060606"/>
      <rect id="Rectángulo_51267" data-name="Rectángulo 51267" width="9" height="8.402" transform="translate(230.68 18.595)" fill="#050505"/>
      <path id="Trazado_236712" data-name="Trazado 236712" d="M260.31,139.365l-16.3,35.856-16.3-35.856Z" transform="translate(-96.509 -93.63)" fill="#fafafa"/>
      <path id="Trazado_236713" data-name="Trazado 236713" d="M180,139.37,164.32,167.551,148.676,139.37Z" transform="translate(-63.013 -93.632)" fill="#fafafa"/>
      <path id="Trazado_236714" data-name="Trazado 236714" d="M308.9,139.259h31.375l-15.659,28.252L308.9,139.259" transform="translate(-130.921 -93.585)" fill="#fafafa"/>
      <path id="Trazado_236715" data-name="Trazado 236715" d="M100.2,167.523,84.446,139.112c8.964,0,17.442-.035,25.92.031,1.642.012,3.854,3.807,3.034,5.27-4.286,7.641-8.678,15.222-13.2,23.111" transform="translate(-35.791 -93.519)" fill="#fafafa"/>
      <path id="Trazado_236716" data-name="Trazado 236716" d="M406.258,139.113l-15.651,28.218c-.5-.7-.956-1.251-1.307-1.862q-5.71-9.939-11.387-19.9a4.231,4.231,0,0,1,3.694-6.456c8.033-.011,16.066,0,24.651,0" transform="translate(-159.908 -93.522)" fill="#fafafa"/>
      <path id="Trazado_236717" data-name="Trazado 236717" d="M466.885,170.518c-12.723-6.594-17.442-17.615-18.665-31.014h18.665Z" transform="translate(-189.968 -93.689)" fill="#fafafa"/>
      <path id="Trazado_236718" data-name="Trazado 236718" d="M50.045,139.455C48.8,152.83,44.14,163.894,31.372,170.5V139.455Z" transform="translate(-13.296 -93.668)" fill="#fafafa"/>
      <path id="Trazado_236719" data-name="Trazado 236719" d="M260.339,346.163h-32.67l16.31-35.925,16.36,35.925" transform="translate(-96.493 -166.051)" fill="#f8f8f8"/>
      <path id="Trazado_236720" data-name="Trazado 236720" d="M148.687,351.734l15.635-28.177,15.683,28.177Z" transform="translate(-63.018 -171.696)" fill="#f7f7f7"/>
      <path id="Trazado_236721" data-name="Trazado 236721" d="M340.3,351.75H308.968l15.654-28.2,15.683,28.2" transform="translate(-130.949 -171.694)" fill="#f7f7f7"/>
      <path id="Trazado_236722" data-name="Trazado 236722" d="M113.937,350.051H95.449V319.589c8.958,1.3,19.018,17.714,18.488,30.462" transform="translate(-40.454 -170.014)" fill="#f7f7f7"/>
      <path id="Trazado_236723" data-name="Trazado 236723" d="M403.1,349.89H384.384c.2-13.762,8.775-27.928,18.638-30.682.027.481.073.928.074,1.375,0,9.679,0,19.358,0,29.306" transform="translate(-162.913 -169.853)" fill="#f7f7f7"/>
    </g>
  </g>
</svg>
