<svg id="Grupo_165357" data-name="Grupo 165357" xmlns="http://www.w3.org/2000/svg" width="186" height="185.991" viewBox="0 0 186 185.991">
  <g id="Grupo_165358" data-name="Grupo 165358">
    <g id="Grupo_165355" data-name="Grupo 165355">
      <g id="Grupo_165359" data-name="Grupo 165359">
        <g id="Grupo_165353" data-name="Grupo 165353">
          <g id="Grupo_165360" data-name="Grupo 165360">
            <path id="Trazado_236754" data-name="Trazado 236754" d="M0,162.62a9.844,9.844,0,0,0,.494-1.252C3.242,150.334,12.57,143.5,23.87,144.524c2.7.245,5.337,1.3,8.155,2.015,1.841-5.031,3.773-10.291,5.69-15.556Q48.236,102.074,58.7,73.144a5.475,5.475,0,0,0,0-3.422c-4.778-13.409-9.86-26.713-14.434-40.191C40.7,19.021,46.211,7.681,56.431,3.321c2.783-1.187,4.313-.552,5.351,2.279C64.23,12.28,66.658,18.968,69.2,25.941c.357-.828.636-1.4.851-1.987Q73.34,14.945,76.611,5.93c1.177-3.232,2.548-3.839,5.646-2.515a21.613,21.613,0,0,1,11.684,27.37q-5.889,16.727-12.2,33.3c-.612,1.613-2.2,2.856-3.59,4.582l28.416,78.062c1.829-.606,3.553-1.334,5.348-1.745,8.208-1.875,15.281.429,20.908,6.512,5.57,6.022,7.031,13.262,4.617,21.087a21.3,21.3,0,0,1-19.536,15.066,21.993,21.993,0,0,1-20.84-13.07c-2.778-6.743-5.132-13.662-7.674-20.5-.1-.276-.218-.549-.39-.98-2.926,1.038-5.775,2.142-8.685,3.051-2.483.775-4.773-1.361-3.9-3.684a4.636,4.636,0,0,1,2.357-2.223c2.586-1.138,5.286-2.017,8.115-3.063L69.242,98.639,51.579,147.166c2.52.929,4.986,1.835,7.448,2.749a11.687,11.687,0,0,1,1.5.619,3.084,3.084,0,0,1,1.5,3.991,3.031,3.031,0,0,1-3.767,1.675c-2.911-.959-5.781-2.039-8.831-3.127-1.728,4.758-3.341,9.488-5.165,14.134-1.427,3.636-2.7,7.428-4.761,10.7-7.422,11.819-24.741,13.045-33.95,2.573a22,22,0,0,1-4.933-9.365,12.679,12.679,0,0,0-.622-1.6v-6.9M80.714,94.246l.064.026-1.519-4.021.063.027-1.516-4.023.062.028L76.35,82.26l.061.029-1.417-3.67.083-.1-1.538-3.9.084-.1-1.538-3.9.082-.1c-1.124-3.769.1-6.591,3.584-8.447L56.766,9.91l-3.054,2.9a14.49,14.49,0,0,0-1.329,1.457c-3.3,4.746-3.668,9.81-1.712,15.179q25.56,70.182,51.09,140.375a18.333,18.333,0,0,0,5,7.646c5.394,4.8,14.058,5.194,19.322.794,8.453-5.283,8.287-19.011-.3-24.907a15.417,15.417,0,0,0-17.983.155c-2.926,2.053-4.808,1.445-6.072-1.936-.269-.72-.624-1.409-.94-2.112l.083-.1-1.635-4.25.06.029-1.417-3.671.083-.1c-3.184-8.792-6.35-17.59-9.559-26.373-2.045-5.6-4.155-11.17-6.235-16.754l.064.024-1.519-4.02M80.7,48.691c2.567-7.021,5.175-14.027,7.68-21.07a13.806,13.806,0,0,0-.083-9.09,14.717,14.717,0,0,0-6.63-8.387L74.281,30.6a17.675,17.675,0,0,0-.927,2.54,6.782,6.782,0,0,0-.282,3.241c1.687,5.033,3.567,10,5.393,14.989.164.448.414.865.832,1.725l1.4-4.408M13.424,153.1a1.157,1.157,0,0,0-.348.094,15.421,15.421,0,0,0-4.1,21.583A15.011,15.011,0,0,0,30.549,178.3c3.482-2.176,5.173-5.6,6.514-9.286Q47.7,139.753,58.355,110.5c2.037-5.609,4-11.246,5.994-16.871.472-1.525,1.559-3.171,1.286-4.549-.555-2.8-1.843-5.463-2.981-8.6l-1.714,5c-.1.215-.22.423-.3.646q-8.52,23.377-17.033,46.756c-2.312,6.348-4.6,12.7-6.934,19.043-1.083,2.946-3.053,3.543-5.648,1.783-.3-.2-.586-.429-.887-.631a15.114,15.114,0,0,0-16.713.023" transform="translate(0 -1.684)" fill="#030303"/>
            <path id="Trazado_236755" data-name="Trazado 236755" d="M416.994,0A40.1,40.1,0,0,1,421.1,1.542a15.2,15.2,0,0,1,8.909,14.44q.1,45.864.022,91.729c0,2.74-1.133,3.824-3.872,3.86-.712.009-1.424,0-2.313,0,0,2.122-.05,4.1.042,6.081a1.748,1.748,0,0,0,.909,1.1,9.365,9.365,0,0,1,5.234,8.868c.02,10.051.075,20.1-.009,30.152-.13,15.446-11.972,27.787-26.941,28.2-2.846.078-3.976-.991-4.052-3.835-.008-.3,0-.605,0-.908q0-82.1-.021-164.2c0-5.666,1.653-10.488,6.346-13.907A31.4,31.4,0,0,1,409.82.793c.565-.284,1.15-.53,1.726-.793Zm-5.455,86.869h-6.168V92.95h18.38V86.869Zm.016,12.378h-6.123v6.068h18.312V99.247ZM411.9,73q-.235-.867-.471-1.734.208-.772.415-1.545a3.8,3.8,0,0,1,3.488-1.5c2.81.042,5.622.012,8.344.012a3.962,3.962,0,0,0,.122-.478c.017-17.4.1-34.8.007-52.193a8.959,8.959,0,0,0-8.6-9.224,11.524,11.524,0,0,0-1.971-.009c-4.9.8-7.923,4.458-7.937,9.7q-.048,17.247-.008,34.494c.006,6.9.04,13.794.063,20.692V80.56h18.423V74.434c-2.828,0-5.593.142-8.332-.065-1.207-.091-2.36-.892-3.537-1.37m-3.7,105.838c8.9-2.232,15.565-11.1,15.632-20.975.068-9.923.023-19.846.012-29.769,0-2.69-.72-3.558-3.3-4.149-2.129-.486-2.827-1.315-2.88-3.506-.045-1.873-.052-3.748-.075-5.622v-3.139H405.36v67.916l2.838-.757" transform="translate(-244.07)" fill="#020202"/>
            <path id="Trazado_236756" data-name="Trazado 236756" d="M204.026,194.1c-5.264,4.4-13.928,4.009-19.322-.794a18.332,18.332,0,0,1-5-7.646q-25.545-70.188-51.09-140.375c-1.956-5.369-1.585-10.433,1.712-15.179a14.489,14.489,0,0,1,1.329-1.457,22,22,0,0,0,.762,10.513c5.629,15.419,11.186,30.864,16.8,46.29.134.367.59.616.9.92l-.083.1q.769,1.95,1.539,3.9l-.085.1q.769,1.948,1.539,3.9l-.084.1q.708,1.835,1.418,3.67l-.061-.029,1.518,4.023-.062-.027,1.516,4.022-.062-.026q.759,2.011,1.519,4.02l-.064-.025,1.519,4.02-.064-.024a16.9,16.9,0,0,0,.5,2.62c1.84,5.166,3.739,10.312,5.612,15.467q4.384,12.066,8.782,24.126c.134.365.59.612.9.913l-.084.1q.708,1.835,1.418,3.671l-.061-.029,1.635,4.249-.083.1a3.047,3.047,0,0,0-.01,1.044q2.978,8.222,6.026,16.417c.108.289.551.454.838.676a10.06,10.06,0,0,0,6.4,7.344,12.828,12.828,0,0,0,1.953,1.447,19.967,19.967,0,0,0,10.084,1.873" transform="translate(-77.941 -17.523)" fill="#87d0ce"/>
            <path id="Trazado_236757" data-name="Trazado 236757" d="M83.868,223.953c-2,5.624-3.957,11.261-5.994,16.87q-10.628,29.261-21.292,58.509c-1.341,3.69-3.032,7.11-6.513,9.286-3.43-.111-6.725-.66-9.484-2.939,4-.068,7.1-1.662,8.926-5.33,1.235-2.481.337-4.292-2.389-4.98L45.7,292.532c1.366-2.665.608-4.369-2.282-5.133-4.48-1.184-8.563.9-10.913,5.573-.21-.589-.65-1.2-.592-1.762.267-2.6.672-5.193,1.028-7.787a15.114,15.114,0,0,1,16.713-.023c.3.2.587.427.887.631,2.6,1.76,4.564,1.163,5.648-1.783,2.332-6.34,4.623-12.7,6.934-19.043q8.513-23.379,17.033-46.756c.081-.223.2-.431.3-.646a7.061,7.061,0,0,1,.524.9c.972,2.413,1.926,4.833,2.885,7.25" transform="translate(-19.518 -132.005)" fill="#86cfcd"/>
            <path id="Trazado_236758" data-name="Trazado 236758" d="M156.326,81.8c-.306-.3-.763-.553-.9-.92-5.611-15.426-11.169-30.87-16.8-46.29a22,22,0,0,1-.762-10.513l3.054-2.9,18.985,52.174c-3.487,1.856-4.708,4.678-3.584,8.447" transform="translate(-84.158 -12.958)" fill="#c1d9d8"/>
            <path id="Trazado_236759" data-name="Trazado 236759" d="M266.317,398.7c-.287-.223-.73-.387-.838-.676q-3.057-8.192-6.026-16.417a3.048,3.048,0,0,1,.01-1.044c.316.7.671,1.391.94,2.112,1.264,3.382,3.146,3.989,6.072,1.937a15.416,15.416,0,0,1,17.983-.155c8.589,5.9,8.755,19.625.3,24.907a19.966,19.966,0,0,1-10.084-1.873,12.8,12.8,0,0,1-1.953-1.447c.359.05.72.087,1.076.153a9.274,9.274,0,0,0,10.908-10.672c-.551-3.247-2.573-4.32-5.4-2.868l-2.65-1.452c-.893-2.963-2.6-3.745-5.312-2.309-3.934,2.084-5.343,5.514-5.024,9.8" transform="translate(-158.674 -232.784)" fill="#c1d9d8"/>
            <path id="Trazado_236760" data-name="Trazado 236760" d="M191.292,42.245l7.387-20.46a14.716,14.716,0,0,1,6.63,8.387,13.807,13.807,0,0,1,.083,9.091c-2.5,7.043-5.113,14.049-7.68,21.07-.2-.632-.374-1.272-.6-1.895q-2.9-8.1-5.823-16.193" transform="translate(-117.011 -13.326)" fill="#86d0ce"/>
            <path id="Trazado_236761" data-name="Trazado 236761" d="M23.251,389.942c-.356,2.594-.761,5.184-1.028,7.787-.057.561.382,1.173.593,1.761-1.831,6.622,1.2,11.4,8.077,12.709,2.759,2.279,6.054,2.828,9.484,2.939a15.011,15.011,0,0,1-21.569-3.518,15.421,15.421,0,0,1,4.1-21.583,1.157,1.157,0,0,1,.348-.094" transform="translate(-9.828 -238.523)" fill="#32ae9f"/>
            <path id="Trazado_236762" data-name="Trazado 236762" d="M189.2,74.475q2.913,8.1,5.823,16.193c.223.623.4,1.263.6,1.895l-1.4,4.408c-.418-.86-.668-1.277-.832-1.725-1.825-4.987-3.706-9.956-5.393-14.989a6.781,6.781,0,0,1,.282-3.241,17.675,17.675,0,0,1,.927-2.541" transform="translate(-114.915 -45.556)" fill="#33ad9e"/>
            <path id="Trazado_236763" data-name="Trazado 236763" d="M160.345,216.077c-.96-2.418-1.914-4.838-2.885-7.25a7.067,7.067,0,0,0-.524-.9l1.714-5c1.138,3.138,2.427,5.8,2.981,8.6.273,1.377-.815,3.024-1.286,4.549" transform="translate(-95.996 -124.129)" fill="#33ac9d"/>
            <path id="Trazado_236764" data-name="Trazado 236764" d="M227.4,291.789c-.306-.3-.762-.548-.9-.913q-4.423-12.051-8.782-24.126c-1.873-5.155-3.772-10.3-5.612-15.467a16.962,16.962,0,0,1-.5-2.62c2.081,5.583,4.191,11.157,6.235,16.754,3.209,8.783,6.375,17.581,9.559,26.373" transform="translate(-129.436 -152.104)" fill="#c1d9d8"/>
            <path id="Trazado_236765" data-name="Trazado 236765" d="M257.194,373.606q-.818-2.124-1.635-4.249l1.635,4.249" transform="translate(-156.323 -225.932)" fill="#c1d9d8"/>
            <path id="Trazado_236766" data-name="Trazado 236766" d="M187.174,181.442q-.77-1.95-1.538-3.9.77,1.95,1.538,3.9" transform="translate(-113.552 -108.601)" fill="#c1d9d8"/>
            <path id="Trazado_236767" data-name="Trazado 236767" d="M190.919,191.732q-.77-1.948-1.539-3.9.771,1.948,1.539,3.9" transform="translate(-115.842 -114.897)" fill="#c1d9d8"/>
            <path id="Trazado_236768" data-name="Trazado 236768" d="M198.139,211.527l-1.517-4.023q.759,2.011,1.517,4.023" transform="translate(-120.272 -126.928)" fill="#c1d9d8"/>
            <path id="Trazado_236769" data-name="Trazado 236769" d="M201.885,221.816q-.758-2.011-1.516-4.022l1.516,4.022" transform="translate(-122.564 -133.222)" fill="#c1d9d8"/>
            <path id="Trazado_236770" data-name="Trazado 236770" d="M205.632,232.1q-.76-2.01-1.519-4.02l1.519,4.02" transform="translate(-124.854 -139.517)" fill="#c1d9d8"/>
            <path id="Trazado_236771" data-name="Trazado 236771" d="M209.378,242.391l-1.519-4.02q.76,2.01,1.519,4.02" transform="translate(-127.145 -145.809)" fill="#c1d9d8"/>
            <path id="Trazado_236772" data-name="Trazado 236772" d="M194.545,201.8q-.709-1.835-1.418-3.67.71,1.835,1.418,3.67" transform="translate(-118.134 -121.192)" fill="#c1d9d8"/>
            <path id="Trazado_236773" data-name="Trazado 236773" d="M253.481,363.648q-.709-1.835-1.418-3.671.71,1.835,1.418,3.671" transform="translate(-154.184 -220.194)" fill="#c1d9d8"/>
            <path id="Trazado_236774" data-name="Trazado 236774" d="M434.94,16.32a8.959,8.959,0,0,1,8.6,9.225c.094,17.4.01,34.795-.007,52.193a4.015,4.015,0,0,1-.122.478c-2.721,0-5.533.03-8.344-.012a3.8,3.8,0,0,0-3.488,1.5,12.64,12.64,0,0,1-.288-1.912q-.023-26.245,0-52.49a5.706,5.706,0,0,1,.248-2.313c1.049-2.26,2.253-4.45,3.4-6.667" transform="translate(-263.813 -9.983)" fill="#eb1441"/>
            <path id="Trazado_236775" data-name="Trazado 236775" d="M432.056,295.508c.024,1.874.029,3.748.075,5.622.054,2.19.751,3.019,2.881,3.506,2.584.59,3.3,1.458,3.3,4.148.011,9.923.056,19.847-.011,29.769-.067,9.873-6.736,18.743-15.632,20.975.028-1.209.08-2.418.08-3.626.005-17.171.146-34.345-.073-51.514-.078-6.152,1.992-9.672,9.375-8.88m-6.121,33.959c0,2.9-.021,5.8.007,8.7.023,2.3,1.222,3.709,3.072,3.694,1.771-.014,3.066-1.381,3.086-3.547q.083-8.789,0-17.578c-.021-2.3-1.3-3.613-3.212-3.554-1.858.057-2.922,1.312-2.946,3.588-.031,2.9-.008,5.8-.008,8.7" transform="translate(-258.545 -180.692)" fill="#86d0ce"/>
            <path id="Trazado_236776" data-name="Trazado 236776" d="M425.058,16.234c-1.145,2.217-2.348,4.406-3.4,6.667a5.705,5.705,0,0,0-.248,2.313q-.019,26.245,0,52.49a12.636,12.636,0,0,0,.288,1.912q-.207.773-.415,1.546l-6.084-.049c-.022-6.9-.056-13.795-.062-20.692q-.015-17.246.008-34.493c.015-5.244,3.037-8.9,7.937-9.7a11.489,11.489,0,0,1,1.971.008" transform="translate(-253.931 -9.897)" fill="#cd1743"/>
            <path id="Trazado_236777" data-name="Trazado 236777" d="M427.585,290.738c-7.383-.792-9.453,2.727-9.375,8.88.219,17.169.078,34.342.072,51.514,0,1.208-.052,2.417-.08,3.626l-2.838.757V287.6h12.221Z" transform="translate(-254.074 -175.921)" fill="#33afa1"/>
            <path id="Trazado_236778" data-name="Trazado 236778" d="M431.654,187.991c1.178.478,2.331,1.279,3.538,1.37,2.739.207,5.5.065,8.331.065v6.126H431.307q.174-3.78.347-7.561" transform="translate(-263.826 -114.992)" fill="#c4dcdb"/>
            <path id="Trazado_236779" data-name="Trazado 236779" d="M431.308,255.586H443.5v6.068H431.3q0-3.034,0-6.068" transform="translate(-263.824 -156.339)" fill="#eb1441"/>
            <path id="Trazado_236780" data-name="Trazado 236780" d="M431.276,223.709h12.211v6.082H431.278q0-3.041,0-6.082" transform="translate(-263.807 -136.84)" fill="#87d1cf"/>
            <path id="Trazado_236781" data-name="Trazado 236781" d="M421.875,185.183q-.174,3.78-.347,7.561h-6.208V183.4l6.083.049.471,1.734" transform="translate(-254.048 -112.184)" fill="#8bcecd"/>
            <path id="Trazado_236782" data-name="Trazado 236782" d="M421.669,255.586q0,3.034,0,6.068h-6.119v-6.068Z" transform="translate(-254.185 -156.339)" fill="#cd1743"/>
            <path id="Trazado_236783" data-name="Trazado 236783" d="M421.56,223.709q0,3.041,0,6.082h-6.17v-6.082Z" transform="translate(-254.091 -136.84)" fill="#35b1a2"/>
            <path id="Trazado_236784" data-name="Trazado 236784" d="M277.138,410.721c-.32-4.29,1.09-7.72,5.024-9.8,2.71-1.436,4.419-.654,5.313,2.309a3.911,3.911,0,0,1-2.211,3.061c-1.832.93-2.38,2.417-1.723,4.013a3.033,3.033,0,0,0,3.525,1.814c1.738-.453,2.393-1.832,2.314-3.932a14.242,14.242,0,0,1,.745-3.5c2.831-1.452,4.852-.379,5.4,2.868a9.274,9.274,0,0,1-10.908,10.672c-.356-.066-.717-.1-1.076-.153a10.058,10.058,0,0,1-6.4-7.344" transform="translate(-169.496 -244.809)" fill="#030404"/>
            <path id="Trazado_236785" data-name="Trazado 236785" d="M40.7,417.947c-6.875-1.313-9.908-6.086-8.077-12.709,2.35-4.672,6.432-6.757,10.913-5.573,2.891.764,3.649,2.468,2.282,5.133a3.829,3.829,0,0,1-3.84.864,3,3,0,0,0-3.735,2.517,3.078,3.078,0,0,0,2.511,3.445,3.007,3.007,0,0,0,3.378-1.853,3.493,3.493,0,0,1,3.105-2.136c2.726.688,3.624,2.5,2.389,4.98-1.827,3.668-4.931,5.261-8.926,5.33" transform="translate(-19.635 -244.272)" fill="#020303"/>
            <path id="Trazado_236788" data-name="Trazado 236788" d="M431.06,363.777c0-2.9-.024-5.8.008-8.7.024-2.276,1.088-3.531,2.946-3.588,1.913-.059,3.192,1.25,3.212,3.554q.079,8.788,0,17.578c-.021,2.166-1.315,3.533-3.086,3.547-1.849.015-3.05-1.392-3.072-3.694-.028-2.9-.007-5.8-.007-8.7" transform="translate(-263.669 -215.002)" fill="#030404"/>
          </g>
        </g>
      </g>
    </g>
  </g>
</svg>
